<?xml version="1.0" encoding="UTF-8" standalone="no"?>
<!DOCTYPE svg PUBLIC "-//W3C//DTD SVG 1.1//EN"
 "http://www.w3.org/Graphics/SVG/1.1/DTD/svg11.dtd">
<!-- Generated by graphviz version 2.36.0 (20140111.2315)
 -->
<!-- Title: set_first_derives Pages: 1 -->
<svg width="452pt" height="38pt"
 viewBox="0.00 0.00 452.00 38.00" xmlns="http://www.w3.org/2000/svg" xmlns:xlink="http://www.w3.org/1999/xlink">
<g id="graph0" class="graph" transform="scale(1 1) rotate(0) translate(4 34)">
<title>set_first_derives</title>
<polygon fill="white" stroke="none" points="-4,4 -4,-34 448,-34 448,4 -4,4"/>
<!-- Node1 -->
<g id="node1" class="node"><title>Node1</title>
<polygon fill="#bfbfbf" stroke="black" points="0.5,-5.5 0.5,-24.5 89.5,-24.5 89.5,-5.5 0.5,-5.5"/>
<text text-anchor="middle" x="45" y="-12.5" font-family="Helvetica,sans-Serif" font-size="10.00">set_first_derives</text>
</g>
<!-- Node2 -->
<g id="node2" class="node"><title>Node2</title>
<g id="a_node2"><a xlink:href="closure_8c.html#a8771690f7fd06e6be291505119de2fcb" target="_top" xlink:title="Populates EFF, the matrix of Epsilon&#45;Free Firsts. ">
<polygon fill="white" stroke="black" points="126,-5.5 126,-24.5 180,-24.5 180,-5.5 126,-5.5"/>
<text text-anchor="middle" x="153" y="-12.5" font-family="Helvetica,sans-Serif" font-size="10.00">set_EFF</text>
</a>
</g>
</g>
<!-- Node1&#45;&gt;Node2 -->
<g id="edge1" class="edge"><title>Node1&#45;&gt;Node2</title>
<path fill="none" stroke="midnightblue" d="M89.7262,-15C98.3875,-15 107.39,-15 115.769,-15"/>
<polygon fill="midnightblue" stroke="midnightblue" points="115.976,-18.5001 125.976,-15 115.976,-11.5001 115.976,-18.5001"/>
</g>
<!-- Node3 -->
<g id="node3" class="node"><title>Node3</title>
<g id="a_node3"><a xlink:href="warshall_8c.html#a5b17363d658cbdfeba8682ae963937dc" target="_top" xlink:title="reflexive_transitive\l_closure">
<polygon fill="white" stroke="black" points="216,-0 216,-30 314,-30 314,-0 216,-0"/>
<text text-anchor="start" x="224" y="-18" font-family="Helvetica,sans-Serif" font-size="10.00">reflexive_transitive</text>
<text text-anchor="middle" x="265" y="-7" font-family="Helvetica,sans-Serif" font-size="10.00">_closure</text>
</a>
</g>
</g>
<!-- Node2&#45;&gt;Node3 -->
<g id="edge2" class="edge"><title>Node2&#45;&gt;Node3</title>
<path fill="none" stroke="midnightblue" d="M180.068,-15C187.823,-15 196.651,-15 205.599,-15"/>
<polygon fill="midnightblue" stroke="midnightblue" points="205.702,-18.5001 215.702,-15 205.702,-11.5001 205.702,-18.5001"/>
</g>
<!-- Node4 -->
<g id="node4" class="node"><title>Node4</title>
<g id="a_node4"><a xlink:href="warshall_8c.html#a99f17c91d1c5f4ddb62238d2c7fa7ea4" target="_top" xlink:title="transitive_closure">
<polygon fill="white" stroke="black" points="350.5,-5.5 350.5,-24.5 443.5,-24.5 443.5,-5.5 350.5,-5.5"/>
<text text-anchor="middle" x="397" y="-12.5" font-family="Helvetica,sans-Serif" font-size="10.00">transitive_closure</text>
</a>
</g>
</g>
<!-- Node3&#45;&gt;Node4 -->
<g id="edge3" class="edge"><title>Node3&#45;&gt;Node4</title>
<path fill="none" stroke="midnightblue" d="M314.038,-15C322.564,-15 331.508,-15 340.226,-15"/>
<polygon fill="midnightblue" stroke="midnightblue" points="340.318,-18.5001 350.318,-15 340.318,-11.5001 340.318,-18.5001"/>
</g>
</g>
</svg>
