<?xml version="1.0" encoding="UTF-8" standalone="no"?>
<!DOCTYPE svg PUBLIC "-//W3C//DTD SVG 1.1//EN"
 "http://www.w3.org/Graphics/SVG/1.1/DTD/svg11.dtd">
<!-- Generated by graphviz version 2.36.0 (20140111.2315)
 -->
<!-- Title: set_EFF Pages: 1 -->
<svg width="326pt" height="38pt"
 viewBox="0.00 0.00 326.00 38.00" xmlns="http://www.w3.org/2000/svg" xmlns:xlink="http://www.w3.org/1999/xlink">
<g id="graph0" class="graph" transform="scale(1 1) rotate(0) translate(4 34)">
<title>set_EFF</title>
<polygon fill="white" stroke="none" points="-4,4 -4,-34 322,-34 322,4 -4,4"/>
<!-- Node1 -->
<g id="node1" class="node"><title>Node1</title>
<polygon fill="#bfbfbf" stroke="black" points="0,-5.5 0,-24.5 54,-24.5 54,-5.5 0,-5.5"/>
<text text-anchor="middle" x="27" y="-12.5" font-family="Helvetica,sans-Serif" font-size="10.00">set_EFF</text>
</g>
<!-- Node2 -->
<g id="node2" class="node"><title>Node2</title>
<g id="a_node2"><a xlink:href="warshall_8c.html#a5b17363d658cbdfeba8682ae963937dc" target="_top" xlink:title="reflexive_transitive\l_closure">
<polygon fill="white" stroke="black" points="90,-0 90,-30 188,-30 188,-0 90,-0"/>
<text text-anchor="start" x="98" y="-18" font-family="Helvetica,sans-Serif" font-size="10.00">reflexive_transitive</text>
<text text-anchor="middle" x="139" y="-7" font-family="Helvetica,sans-Serif" font-size="10.00">_closure</text>
</a>
</g>
</g>
<!-- Node1&#45;&gt;Node2 -->
<g id="edge1" class="edge"><title>Node1&#45;&gt;Node2</title>
<path fill="none" stroke="midnightblue" d="M54.0685,-15C61.8234,-15 70.651,-15 79.5992,-15"/>
<polygon fill="midnightblue" stroke="midnightblue" points="79.7024,-18.5001 89.7024,-15 79.7023,-11.5001 79.7024,-18.5001"/>
</g>
<!-- Node3 -->
<g id="node3" class="node"><title>Node3</title>
<g id="a_node3"><a xlink:href="warshall_8c.html#a99f17c91d1c5f4ddb62238d2c7fa7ea4" target="_top" xlink:title="transitive_closure">
<polygon fill="white" stroke="black" points="224.5,-5.5 224.5,-24.5 317.5,-24.5 317.5,-5.5 224.5,-5.5"/>
<text text-anchor="middle" x="271" y="-12.5" font-family="Helvetica,sans-Serif" font-size="10.00">transitive_closure</text>
</a>
</g>
</g>
<!-- Node2&#45;&gt;Node3 -->
<g id="edge2" class="edge"><title>Node2&#45;&gt;Node3</title>
<path fill="none" stroke="midnightblue" d="M188.038,-15C196.564,-15 205.508,-15 214.226,-15"/>
<polygon fill="midnightblue" stroke="midnightblue" points="214.318,-18.5001 224.318,-15 214.318,-11.5001 214.318,-18.5001"/>
</g>
</g>
</svg>
