<?xml version="1.0" encoding="UTF-8" standalone="no"?>
<!DOCTYPE svg PUBLIC "-//W3C//DTD SVG 1.1//EN"
 "http://www.w3.org/Graphics/SVG/1.1/DTD/svg11.dtd">
<!-- Generated by graphviz version 2.36.0 (20140111.2315)
 -->
<!-- Title: set_EFF Pages: 1 -->
<svg width="376pt" height="28pt"
 viewBox="0.00 0.00 376.00 28.00" xmlns="http://www.w3.org/2000/svg" xmlns:xlink="http://www.w3.org/1999/xlink">
<g id="graph0" class="graph" transform="scale(1 1) rotate(0) translate(4 24)">
<title>set_EFF</title>
<polygon fill="white" stroke="none" points="-4,4 -4,-24 372,-24 372,4 -4,4"/>
<!-- Node1 -->
<g id="node1" class="node"><title>Node1</title>
<polygon fill="#bfbfbf" stroke="black" points="0,-0.5 0,-19.5 54,-19.5 54,-0.5 0,-0.5"/>
<text text-anchor="middle" x="27" y="-7.5" font-family="Helvetica,sans-Serif" font-size="10.00">set_EFF</text>
</g>
<!-- Node2 -->
<g id="node2" class="node"><title>Node2</title>
<g id="a_node2"><a xlink:href="closure_8c.html#ab7198901ee6f38f5ed229dce745ceaa6" target="_top" xlink:title="set_first_derives">
<polygon fill="white" stroke="black" points="90.5,-0.5 90.5,-19.5 179.5,-19.5 179.5,-0.5 90.5,-0.5"/>
<text text-anchor="middle" x="135" y="-7.5" font-family="Helvetica,sans-Serif" font-size="10.00">set_first_derives</text>
</a>
</g>
</g>
<!-- Node1&#45;&gt;Node2 -->
<g id="edge1" class="edge"><title>Node1&#45;&gt;Node2</title>
<path fill="none" stroke="midnightblue" d="M64.3934,-10C72.7548,-10 81.7297,-10 90.3623,-10"/>
<polygon fill="midnightblue" stroke="midnightblue" points="64.2023,-6.5001 54.2023,-10 64.2022,-13.5001 64.2023,-6.5001"/>
</g>
<!-- Node3 -->
<g id="node3" class="node"><title>Node3</title>
<g id="a_node3"><a xlink:href="lr0_8c.html#a81209dc209ca0c6fb2a5e74bd98c02c7" target="_top" xlink:title="generate_states">
<polygon fill="white" stroke="black" points="216,-0.5 216,-19.5 302,-19.5 302,-0.5 216,-0.5"/>
<text text-anchor="middle" x="259" y="-7.5" font-family="Helvetica,sans-Serif" font-size="10.00">generate_states</text>
</a>
</g>
</g>
<!-- Node2&#45;&gt;Node3 -->
<g id="edge2" class="edge"><title>Node2&#45;&gt;Node3</title>
<path fill="none" stroke="midnightblue" d="M189.801,-10C198.521,-10 207.439,-10 215.83,-10"/>
<polygon fill="midnightblue" stroke="midnightblue" points="189.7,-6.5001 179.7,-10 189.7,-13.5001 189.7,-6.5001"/>
</g>
<!-- Node4 -->
<g id="node4" class="node"><title>Node4</title>
<g id="a_node4"><a xlink:href="lr0_8c.html#aec6ecb962126ab8e37fed166e9416bce" target="_top" xlink:title="lr0">
<polygon fill="white" stroke="red" points="338.5,-0.5 338.5,-19.5 367.5,-19.5 367.5,-0.5 338.5,-0.5"/>
<text text-anchor="middle" x="353" y="-7.5" font-family="Helvetica,sans-Serif" font-size="10.00">lr0</text>
</a>
</g>
</g>
<!-- Node3&#45;&gt;Node4 -->
<g id="edge3" class="edge"><title>Node3&#45;&gt;Node4</title>
<path fill="none" stroke="midnightblue" d="M312.323,-10C321.946,-10 331.193,-10 338.335,-10"/>
<polygon fill="midnightblue" stroke="midnightblue" points="312.23,-6.5001 302.23,-10 312.23,-13.5001 312.23,-6.5001"/>
</g>
</g>
</svg>
