<?xml version="1.0" encoding="UTF-8" standalone="no"?>
<!DOCTYPE svg PUBLIC "-//W3C//DTD SVG 1.1//EN"
 "http://www.w3.org/Graphics/SVG/1.1/DTD/svg11.dtd">
<!-- Generated by graphviz version 2.36.0 (20140111.2315)
 -->
<!-- Title: closure Pages: 1 -->
<svg width="318pt" height="28pt"
 viewBox="0.00 0.00 318.00 28.00" xmlns="http://www.w3.org/2000/svg" xmlns:xlink="http://www.w3.org/1999/xlink">
<g id="graph0" class="graph" transform="scale(1 1) rotate(0) translate(4 24)">
<title>closure</title>
<polygon fill="white" stroke="none" points="-4,4 -4,-24 314,-24 314,4 -4,4"/>
<!-- Node1 -->
<g id="node1" class="node"><title>Node1</title>
<polygon fill="#bfbfbf" stroke="black" points="0,-0.5 0,-19.5 48,-19.5 48,-0.5 0,-0.5"/>
<text text-anchor="middle" x="24" y="-7.5" font-family="Helvetica,sans-Serif" font-size="10.00">closure</text>
</g>
<!-- Node2 -->
<g id="node2" class="node"><title>Node2</title>
<g id="a_node2"><a xlink:href="lr0_8c.html#a81209dc209ca0c6fb2a5e74bd98c02c7" target="_top" xlink:title="generate_states">
<polygon fill="white" stroke="black" points="84,-0.5 84,-19.5 170,-19.5 170,-0.5 84,-0.5"/>
<text text-anchor="middle" x="127" y="-7.5" font-family="Helvetica,sans-Serif" font-size="10.00">generate_states</text>
</a>
</g>
</g>
<!-- Node1&#45;&gt;Node2 -->
<g id="edge1" class="edge"><title>Node1&#45;&gt;Node2</title>
<path fill="none" stroke="midnightblue" d="M58.4162,-10C66.5682,-10 75.3935,-10 83.8926,-10"/>
<polygon fill="midnightblue" stroke="midnightblue" points="58.1715,-6.5001 48.1714,-10 58.1714,-13.5001 58.1715,-6.5001"/>
</g>
<!-- Node3 -->
<g id="node3" class="node"><title>Node3</title>
<g id="a_node3"><a xlink:href="lr0_8c.html#aec6ecb962126ab8e37fed166e9416bce" target="_top" xlink:title="lr0">
<polygon fill="white" stroke="black" points="206.5,-0.5 206.5,-19.5 235.5,-19.5 235.5,-0.5 206.5,-0.5"/>
<text text-anchor="middle" x="221" y="-7.5" font-family="Helvetica,sans-Serif" font-size="10.00">lr0</text>
</a>
</g>
</g>
<!-- Node2&#45;&gt;Node3 -->
<g id="edge2" class="edge"><title>Node2&#45;&gt;Node3</title>
<path fill="none" stroke="midnightblue" d="M180.323,-10C189.946,-10 199.193,-10 206.335,-10"/>
<polygon fill="midnightblue" stroke="midnightblue" points="180.23,-6.5001 170.23,-10 180.23,-13.5001 180.23,-6.5001"/>
</g>
<!-- Node4 -->
<g id="node4" class="node"><title>Node4</title>
<g id="a_node4"><a xlink:href="main_8c.html#afced8478b91af5c169926dfa4426333d" target="_top" xlink:title="main">
<polygon fill="white" stroke="black" points="272,-0.5 272,-19.5 310,-19.5 310,-0.5 272,-0.5"/>
<text text-anchor="middle" x="291" y="-7.5" font-family="Helvetica,sans-Serif" font-size="10.00">main</text>
</a>
</g>
</g>
<!-- Node3&#45;&gt;Node4 -->
<g id="edge3" class="edge"><title>Node3&#45;&gt;Node4</title>
<path fill="none" stroke="midnightblue" d="M245.891,-10C254.428,-10 263.901,-10 271.872,-10"/>
<polygon fill="midnightblue" stroke="midnightblue" points="245.761,-6.5001 235.761,-10 245.761,-13.5001 245.761,-6.5001"/>
</g>
</g>
</svg>
