<?xml version="1.0" encoding="UTF-8" standalone="no"?>
<!DOCTYPE svg PUBLIC "-//W3C//DTD SVG 1.1//EN"
 "http://www.w3.org/Graphics/SVG/1.1/DTD/svg11.dtd">
<!-- Generated by graphviz version 2.36.0 (20140111.2315)
 -->
<!-- Title: strcpy Pages: 1 -->
<!--zoomable 219 -->
<svg id="main" version="1.1" xmlns="http://www.w3.org/2000/svg" xmlns:xlink="http://www.w3.org/1999/xlink" xml:space="preserve" onload="init(evt)">
<style type="text/css"><![CDATA[
.edge:hover path { stroke: red; }
.edge:hover polygon { stroke: red; fill: red; }
]]></style>
<script type="text/javascript"><![CDATA[
var edges = document.getElementsByTagName('g');
if (edges && edges.length) {
  for (var i=0;i<edges.length;i++) {
    if (edges[i].id.substr(0,4)=='edge') {
      edges[i].setAttribute('class','edge');
    }
  }
}
]]></script>
        <defs>
                <circle id="rim" cx="0" cy="0" r="7"/>
                <circle id="rim2" cx="0" cy="0" r="3.5"/>
                <g id="zoomPlus">
                        <use xlink:href="#rim" fill="#404040">
                                <set attributeName="fill" to="#808080" begin="zoomplus.mouseover" end="zoomplus.mouseout"/>
                        </use>
                        <path d="M-4,0h8M0,-4v8" fill="none" stroke="white" stroke-width="1.5" pointer-events="none"/>
                </g>
                <g id="zoomMin">
                        <use xlink:href="#rim" fill="#404040">
                                <set attributeName="fill" to="#808080" begin="zoomminus.mouseover" end="zoomminus.mouseout"/>
                        </use>
                        <path d="M-4,0h8" fill="none" stroke="white" stroke-width="1.5" pointer-events="none"/>
                </g>
                <g id="dirArrow">
                        <path fill="none" stroke="white" stroke-width="1.5" d="M0,-3.0v7 M-2.5,-0.5L0,-3.0L2.5,-0.5"/>
                </g>
               <g id="resetDef">
                       <use xlink:href="#rim2" fill="#404040">
                               <set attributeName="fill" to="#808080" begin="reset.mouseover" end="reset.mouseout"/>
                       </use>
               </g>
        </defs>

<script type="text/javascript">
var viewWidth = 620;
var viewHeight = 219;
var sectionId = 'dynsection-5';
</script>
<script xlink:href="svgpan.js"/>
<svg id="graph" class="graph">
<g id="viewport">
<title>strcpy</title>
<polygon fill="white" stroke="none" points="-4,4 -4,-214.716 616,-214.716 616,4 -4,4"/>
<!-- Node1 -->
<g id="node1" class="node"><title>Node1</title>
<polygon fill="#bfbfbf" stroke="black" points="0,-94.5 0,-113.5 44,-113.5 44,-94.5 0,-94.5"/>
<text text-anchor="middle" x="22" y="-101.5" font-family="Helvetica,sans-Serif" font-size="10.00">strcpy</text>
</g>
<!-- Node2 -->
<g id="node2" class="node"><title>Node2</title>
<g id="a_node2"><a xlink:href="main_8c.html#a8424435403fe377f38d43b7bdda78ac3" target="_top" xlink:title="create_file_names">
<polygon fill="white" stroke="black" points="80,-189.5 80,-208.5 176,-208.5 176,-189.5 80,-189.5"/>
<text text-anchor="middle" x="128" y="-196.5" font-family="Helvetica,sans-Serif" font-size="10.00">create_file_names</text>
</a>
</g>
</g>
<!-- Node1&#45;&gt;Node2 -->
<g id="edge1" class="edge"><title>Node1&#45;&gt;Node2</title>
<path fill="none" stroke="midnightblue" d="M41.3574,-120.769C63.1808,-140.704 98.8565,-173.292 116.475,-189.386"/>
<polygon fill="midnightblue" stroke="midnightblue" points="43.482,-117.969 33.7381,-113.809 38.7609,-123.137 43.482,-117.969"/>
</g>
<!-- Node5 -->
<g id="node5" class="node"><title>Node5</title>
<g id="a_node5"><a xlink:href="reader_8c.html#a0d5a7fe7641edf38078ba5e99536772d" target="_top" xlink:title="get_tag">
<polygon fill="white" stroke="black" points="103.5,-123.5 103.5,-142.5 152.5,-142.5 152.5,-123.5 103.5,-123.5"/>
<text text-anchor="middle" x="128" y="-130.5" font-family="Helvetica,sans-Serif" font-size="10.00">get_tag</text>
</a>
</g>
</g>
<!-- Node1&#45;&gt;Node5 -->
<g id="edge4" class="edge"><title>Node1&#45;&gt;Node5</title>
<path fill="none" stroke="midnightblue" d="M53.9349,-112.626C69.7922,-117.048 88.7947,-122.347 103.445,-126.432"/>
<polygon fill="midnightblue" stroke="midnightblue" points="54.6186,-109.183 44.046,-109.869 52.7384,-115.926 54.6186,-109.183"/>
</g>
<!-- Node12 -->
<g id="node12" class="node"><title>Node12</title>
<g id="a_node12"><a xlink:href="symtab_8c.html#aa9c886d3ff3a8214ae40b7bf98ad7dd4" target="_top" xlink:title="make_bucket">
<polygon fill="white" stroke="black" points="90.5,-66.5 90.5,-85.5 165.5,-85.5 165.5,-66.5 90.5,-66.5"/>
<text text-anchor="middle" x="128" y="-73.5" font-family="Helvetica,sans-Serif" font-size="10.00">make_bucket</text>
</a>
</g>
</g>
<!-- Node1&#45;&gt;Node12 -->
<g id="edge14" class="edge"><title>Node1&#45;&gt;Node12</title>
<path fill="none" stroke="midnightblue" d="M53.9349,-95.6714C65.7927,-92.4789 79.4093,-88.8129 91.6498,-85.5174"/>
<polygon fill="midnightblue" stroke="midnightblue" points="52.7922,-92.3543 44.046,-98.3338 54.612,-99.1136 52.7922,-92.3543"/>
</g>
<!-- Node15 -->
<g id="node15" class="node"><title>Node15</title>
<g id="a_node15"><a xlink:href="reader_8c.html#a9f8a3fd57d7687e5e2fe6b548fee5bc5" target="_top" xlink:title="pack_names">
<polygon fill="white" stroke="black" points="350,-0.5 350,-19.5 422,-19.5 422,-0.5 350,-0.5"/>
<text text-anchor="middle" x="386" y="-7.5" font-family="Helvetica,sans-Serif" font-size="10.00">pack_names</text>
</a>
</g>
</g>
<!-- Node1&#45;&gt;Node15 -->
<g id="edge18" class="edge"><title>Node1&#45;&gt;Node15</title>
<path fill="none" stroke="midnightblue" d="M38.8408,-86.91C49.4611,-76.5518 64.33,-64.0207 80,-57 171.186,-16.1455 291.385,-9.87276 349.929,-9.47796"/>
<polygon fill="midnightblue" stroke="midnightblue" points="36.1131,-84.6925 31.6046,-94.2802 41.108,-89.5966 36.1131,-84.6925"/>
</g>
<!-- Node3 -->
<g id="node3" class="node"><title>Node3</title>
<g id="a_node3"><a xlink:href="main_8c.html#a2a2d365d086e7a890bc2770b6a9c0f0f" target="_top" xlink:title="open_files">
<polygon fill="white" stroke="black" points="476.5,-180.5 476.5,-199.5 537.5,-199.5 537.5,-180.5 476.5,-180.5"/>
<text text-anchor="middle" x="507" y="-187.5" font-family="Helvetica,sans-Serif" font-size="10.00">open_files</text>
</a>
</g>
</g>
<!-- Node2&#45;&gt;Node3 -->
<g id="edge2" class="edge"><title>Node2&#45;&gt;Node3</title>
<path fill="none" stroke="midnightblue" d="M186.293,-206.811C194.894,-207.72 203.669,-208.5 212,-209 308.752,-214.807 423.362,-201.606 476.377,-194.356"/>
<polygon fill="midnightblue" stroke="midnightblue" points="186.642,-203.329 176.315,-205.694 185.863,-210.285 186.642,-203.329"/>
</g>
<!-- Node4 -->
<g id="node4" class="node"><title>Node4</title>
<g id="a_node4"><a xlink:href="main_8c.html#afced8478b91af5c169926dfa4426333d" target="_top" xlink:title="main">
<polygon fill="white" stroke="black" points="574,-142.5 574,-161.5 612,-161.5 612,-142.5 574,-142.5"/>
<text text-anchor="middle" x="593" y="-149.5" font-family="Helvetica,sans-Serif" font-size="10.00">main</text>
</a>
</g>
</g>
<!-- Node3&#45;&gt;Node4 -->
<g id="edge3" class="edge"><title>Node3&#45;&gt;Node4</title>
<path fill="none" stroke="midnightblue" d="M538.385,-176.254C550.306,-170.861 563.582,-164.856 573.941,-160.169"/>
<polygon fill="midnightblue" stroke="midnightblue" points="536.865,-173.1 529.197,-180.411 539.75,-179.478 536.865,-173.1"/>
</g>
<!-- Node6 -->
<g id="node6" class="node"><title>Node6</title>
<g id="a_node6"><a xlink:href="reader_8c.html#a0b749a023a959fabb8ed2778b46ec217" target="_top" xlink:title="declare_tokens">
<polygon fill="white" stroke="black" points="212.5,-180.5 212.5,-199.5 295.5,-199.5 295.5,-180.5 212.5,-180.5"/>
<text text-anchor="middle" x="254" y="-187.5" font-family="Helvetica,sans-Serif" font-size="10.00">declare_tokens</text>
</a>
</g>
</g>
<!-- Node5&#45;&gt;Node6 -->
<g id="edge5" class="edge"><title>Node5&#45;&gt;Node6</title>
<path fill="none" stroke="midnightblue" d="M158.928,-146.757C181.585,-157.172 212.125,-171.211 232.177,-180.428"/>
<polygon fill="midnightblue" stroke="midnightblue" points="160.303,-143.537 149.755,-142.541 157.379,-149.897 160.303,-143.537"/>
</g>
<!-- Node9 -->
<g id="node9" class="node"><title>Node9</title>
<g id="a_node9"><a xlink:href="reader_8c.html#a860dbc8da656fd831b19668da20207c7" target="_top" xlink:title="declare_types">
<polygon fill="white" stroke="black" points="215.5,-142.5 215.5,-161.5 292.5,-161.5 292.5,-142.5 215.5,-142.5"/>
<text text-anchor="middle" x="254" y="-149.5" font-family="Helvetica,sans-Serif" font-size="10.00">declare_types</text>
</a>
</g>
</g>
<!-- Node5&#45;&gt;Node9 -->
<g id="edge9" class="edge"><title>Node5&#45;&gt;Node9</title>
<path fill="none" stroke="midnightblue" d="M162.764,-138.173C179.027,-140.665 198.586,-143.662 215.33,-146.228"/>
<polygon fill="midnightblue" stroke="midnightblue" points="163.03,-134.674 152.615,-136.618 161.97,-141.593 163.03,-134.674"/>
</g>
<!-- Node10 -->
<g id="node10" class="node"><title>Node10</title>
<g id="a_node10"><a xlink:href="reader_8c.html#abb83807b1bba8d346650d3e4ae4e7425" target="_top" xlink:title="copy_action">
<polygon fill="white" stroke="black" points="219.5,-104.5 219.5,-123.5 288.5,-123.5 288.5,-104.5 219.5,-104.5"/>
<text text-anchor="middle" x="254" y="-111.5" font-family="Helvetica,sans-Serif" font-size="10.00">copy_action</text>
</a>
</g>
</g>
<!-- Node5&#45;&gt;Node10 -->
<g id="edge11" class="edge"><title>Node5&#45;&gt;Node10</title>
<path fill="none" stroke="midnightblue" d="M162.948,-127.798C180.435,-125.119 201.695,-121.861 219.165,-119.184"/>
<polygon fill="midnightblue" stroke="midnightblue" points="161.97,-124.407 152.615,-129.382 163.03,-131.326 161.97,-124.407"/>
</g>
<!-- Node7 -->
<g id="node7" class="node"><title>Node7</title>
<g id="a_node7"><a xlink:href="reader_8c.html#a07addfee5457e48ddb310769dd0e39af" target="_top" xlink:title="read_declarations">
<polygon fill="white" stroke="black" points="339.5,-142.5 339.5,-161.5 432.5,-161.5 432.5,-142.5 339.5,-142.5"/>
<text text-anchor="middle" x="386" y="-149.5" font-family="Helvetica,sans-Serif" font-size="10.00">read_declarations</text>
</a>
</g>
</g>
<!-- Node6&#45;&gt;Node7 -->
<g id="edge6" class="edge"><title>Node6&#45;&gt;Node7</title>
<path fill="none" stroke="midnightblue" d="M297.884,-177.465C315.569,-172.295 335.734,-166.401 352.206,-161.586"/>
<polygon fill="midnightblue" stroke="midnightblue" points="296.421,-174.246 287.804,-180.411 298.385,-180.965 296.421,-174.246"/>
</g>
<!-- Node8 -->
<g id="node8" class="node"><title>Node8</title>
<g id="a_node8"><a xlink:href="reader_8c.html#a3351a985e2d992eea6ed332cc837ad5b" target="_top" xlink:title="reader">
<polygon fill="white" stroke="black" points="485,-104.5 485,-123.5 529,-123.5 529,-104.5 485,-104.5"/>
<text text-anchor="middle" x="507" y="-111.5" font-family="Helvetica,sans-Serif" font-size="10.00">reader</text>
</a>
</g>
</g>
<!-- Node7&#45;&gt;Node8 -->
<g id="edge7" class="edge"><title>Node7&#45;&gt;Node8</title>
<path fill="none" stroke="midnightblue" d="M426.595,-139.356C446.108,-133.125 468.85,-125.863 484.982,-120.712"/>
<polygon fill="midnightblue" stroke="midnightblue" points="425.49,-136.035 417.029,-142.411 427.62,-142.703 425.49,-136.035"/>
</g>
<!-- Node8&#45;&gt;Node4 -->
<g id="edge8" class="edge"><title>Node8&#45;&gt;Node4</title>
<path fill="none" stroke="midnightblue" d="M538.385,-127.746C550.306,-133.139 563.582,-139.144 573.941,-143.831"/>
<polygon fill="midnightblue" stroke="midnightblue" points="539.75,-124.522 529.197,-123.589 536.865,-130.9 539.75,-124.522"/>
</g>
<!-- Node9&#45;&gt;Node7 -->
<g id="edge10" class="edge"><title>Node9&#45;&gt;Node7</title>
<path fill="none" stroke="midnightblue" d="M302.79,-152C314.677,-152 327.392,-152 339.181,-152"/>
<polygon fill="midnightblue" stroke="midnightblue" points="302.601,-148.5 292.601,-152 302.601,-155.5 302.601,-148.5"/>
</g>
<!-- Node11 -->
<g id="node11" class="node"><title>Node11</title>
<g id="a_node11"><a xlink:href="reader_8c.html#af6d4fba61bb761ca9fe92fef83e8ee94" target="_top" xlink:title="read_grammar">
<polygon fill="white" stroke="black" points="346.5,-104.5 346.5,-123.5 425.5,-123.5 425.5,-104.5 346.5,-104.5"/>
<text text-anchor="middle" x="386" y="-111.5" font-family="Helvetica,sans-Serif" font-size="10.00">read_grammar</text>
</a>
</g>
</g>
<!-- Node10&#45;&gt;Node11 -->
<g id="edge12" class="edge"><title>Node10&#45;&gt;Node11</title>
<path fill="none" stroke="midnightblue" d="M299.092,-114C314.405,-114 331.45,-114 346.294,-114"/>
<polygon fill="midnightblue" stroke="midnightblue" points="298.817,-110.5 288.817,-114 298.817,-117.5 298.817,-110.5"/>
</g>
<!-- Node11&#45;&gt;Node8 -->
<g id="edge13" class="edge"><title>Node11&#45;&gt;Node8</title>
<path fill="none" stroke="midnightblue" d="M436.041,-114C453.081,-114 471.302,-114 484.876,-114"/>
<polygon fill="midnightblue" stroke="midnightblue" points="435.636,-110.5 425.636,-114 435.636,-117.5 435.636,-110.5"/>
</g>
<!-- Node13 -->
<g id="node13" class="node"><title>Node13</title>
<g id="a_node13"><a xlink:href="symtab_8c.html#aee518732e7aee5ce3c6fd5208c4ffdea" target="_top" xlink:title="lookup">
<polygon fill="white" stroke="black" points="231.5,-66.5 231.5,-85.5 276.5,-85.5 276.5,-66.5 231.5,-66.5"/>
<text text-anchor="middle" x="254" y="-73.5" font-family="Helvetica,sans-Serif" font-size="10.00">lookup</text>
</a>
</g>
</g>
<!-- Node12&#45;&gt;Node13 -->
<g id="edge15" class="edge"><title>Node12&#45;&gt;Node13</title>
<path fill="none" stroke="midnightblue" d="M175.624,-76C194.802,-76 216.075,-76 231.454,-76"/>
<polygon fill="midnightblue" stroke="midnightblue" points="175.533,-72.5001 165.533,-76 175.533,-79.5001 175.533,-72.5001"/>
</g>
<!-- Node14 -->
<g id="node14" class="node"><title>Node14</title>
<g id="a_node14"><a xlink:href="symtab_8c.html#aeeef4e0a9c6733adb569531e181de719" target="_top" xlink:title="create_symbol_table">
<polygon fill="white" stroke="black" points="332.5,-57.5 332.5,-76.5 439.5,-76.5 439.5,-57.5 332.5,-57.5"/>
<text text-anchor="middle" x="386" y="-64.5" font-family="Helvetica,sans-Serif" font-size="10.00">create_symbol_table</text>
</a>
</g>
</g>
<!-- Node12&#45;&gt;Node14 -->
<g id="edge16" class="edge"><title>Node12&#45;&gt;Node14</title>
<path fill="none" stroke="midnightblue" d="M172.458,-64.1162C185.109,-61.1852 199.019,-58.4668 212,-57 252.208,-52.4566 297.921,-55.4477 332.254,-59.3103"/>
<polygon fill="midnightblue" stroke="midnightblue" points="171.523,-60.7415 162.625,-66.4926 173.167,-67.5456 171.523,-60.7415"/>
</g>
<!-- Node14&#45;&gt;Node8 -->
<g id="edge17" class="edge"><title>Node14&#45;&gt;Node8</title>
<path fill="none" stroke="midnightblue" d="M420.436,-80.2058C441.06,-88.3514 466.891,-98.5536 484.747,-105.606"/>
<polygon fill="midnightblue" stroke="midnightblue" points="421.668,-76.9294 411.081,-76.5112 419.097,-83.44 421.668,-76.9294"/>
</g>
<!-- Node15&#45;&gt;Node8 -->
<g id="edge19" class="edge"><title>Node15&#45;&gt;Node8</title>
<path fill="none" stroke="midnightblue" d="M410.415,-25.5553C419.866,-32.1464 430.711,-40.1166 440,-48 461.745,-66.454 484.786,-90.7291 497.063,-104.099"/>
<polygon fill="midnightblue" stroke="midnightblue" points="412.105,-22.4705 401.877,-19.7065 408.149,-28.2455 412.105,-22.4705"/>
</g>
</g>
</svg>
        <g id="navigator" transform="translate(0 0)" fill="#404254">
                <rect fill="#f2f5e9" fill-opacity="0.5" stroke="#606060" stroke-width=".5" x="0" y="0" width="60" height="60"/>
                <use id="zoomplus" xlink:href="#zoomPlus" x="17" y="9" onmousedown="handleZoom(evt,'in')"/>
                <use id="zoomminus" xlink:href="#zoomMin" x="42" y="9" onmousedown="handleZoom(evt,'out')"/>
                <use id="reset" xlink:href="#resetDef" x="30" y="36" onmousedown="handleReset()"/>
                <g id="arrowUp" xlink:href="#dirArrow" transform="translate(30 24)" onmousedown="handlePan(0,-1)">
                  <use xlink:href="#rim" fill="#404040">
                        <set attributeName="fill" to="#808080" begin="arrowUp.mouseover" end="arrowUp.mouseout"/>
                  </use>
                  <path fill="none" stroke="white" stroke-width="1.5" d="M0,-3.0v7 M-2.5,-0.5L0,-3.0L2.5,-0.5"/>
                </g>
                <g id="arrowRight" xlink:href="#dirArrow" transform="rotate(90) translate(36 -43)" onmousedown="handlePan(1,0)">
                  <use xlink:href="#rim" fill="#404040">
                        <set attributeName="fill" to="#808080" begin="arrowRight.mouseover" end="arrowRight.mouseout"/>
                  </use>
                  <path fill="none" stroke="white" stroke-width="1.5" d="M0,-3.0v7 M-2.5,-0.5L0,-3.0L2.5,-0.5"/>
                </g>
                <g id="arrowDown" xlink:href="#dirArrow" transform="rotate(180) translate(-30 -48)" onmousedown="handlePan(0,1)">
                  <use xlink:href="#rim" fill="#404040">
                        <set attributeName="fill" to="#808080" begin="arrowDown.mouseover" end="arrowDown.mouseout"/>
                  </use>
                  <path fill="none" stroke="white" stroke-width="1.5" d="M0,-3.0v7 M-2.5,-0.5L0,-3.0L2.5,-0.5"/>
                </g>
                <g id="arrowLeft" xlink:href="#dirArrow" transform="rotate(270) translate(-36 17)" onmousedown="handlePan(-1,0)">
                  <use xlink:href="#rim" fill="#404040">
                        <set attributeName="fill" to="#808080" begin="arrowLeft.mouseover" end="arrowLeft.mouseout"/>
                  </use>
                  <path fill="none" stroke="white" stroke-width="1.5" d="M0,-3.0v7 M-2.5,-0.5L0,-3.0L2.5,-0.5"/>
                </g>
        </g>
        <svg viewBox="0 0 15 15" width="100%" height="30px" preserveAspectRatio="xMaxYMin meet">
         <g id="arrow_out" transform="scale(0.3 0.3)">
          <a xlink:href="defs_8h_add539a5755e4c4070b0c8ca97477fe47_icgraph_org.svg" target="_base">
           <rect id="button" ry="5" rx="5" y="6" x="6" height="38" width="38"
                fill="#f2f5e9" fill-opacity="0.5" stroke="#606060" stroke-width="1.0"/>
           <path id="arrow"
             d="M 11.500037,31.436501 C 11.940474,20.09759 22.043105,11.32322 32.158766,21.979434 L 37.068811,17.246167 C 37.068811,17.246167 37.088388,32 37.088388,32 L 22.160133,31.978069 C 22.160133,31.978069 26.997745,27.140456 26.997745,27.140456 C 18.528582,18.264221 13.291696,25.230495 11.500037,31.436501 z"
             style="fill:#404040;"/>
          </a>
         </g>
        </svg>
</svg>
