<?xml version="1.0" encoding="UTF-8" standalone="no"?>
<!DOCTYPE svg PUBLIC "-//W3C//DTD SVG 1.1//EN"
 "http://www.w3.org/Graphics/SVG/1.1/DTD/svg11.dtd">
<!-- Generated by graphviz version 2.36.0 (20140111.2315)
 -->
<!-- Title: allocate Pages: 1 -->
<svg width="370pt" height="104pt"
 viewBox="0.00 0.00 370.00 104.00" xmlns="http://www.w3.org/2000/svg" xmlns:xlink="http://www.w3.org/1999/xlink">
<g id="graph0" class="graph" transform="scale(1 1) rotate(0) translate(4 100)">
<title>allocate</title>
<polygon fill="white" stroke="none" points="-4,4 -4,-100 366,-100 366,4 -4,4"/>
<!-- Node1 -->
<g id="node1" class="node"><title>Node1</title>
<polygon fill="#bfbfbf" stroke="black" points="0,-38.5 0,-57.5 50,-57.5 50,-38.5 0,-38.5"/>
<text text-anchor="middle" x="25" y="-45.5" font-family="Helvetica,sans-Serif" font-size="10.00">allocate</text>
</g>
<!-- Node2 -->
<g id="node2" class="node"><title>Node2</title>
<g id="a_node2"><a xlink:href="lr0_8c.html#ae1044f1d92f94e2469b09788be4d6b09" target="_top" xlink:title="new_state">
<polygon fill="white" stroke="black" points="99,-76.5 99,-95.5 161,-95.5 161,-76.5 99,-76.5"/>
<text text-anchor="middle" x="130" y="-83.5" font-family="Helvetica,sans-Serif" font-size="10.00">new_state</text>
</a>
</g>
</g>
<!-- Node1&#45;&gt;Node2 -->
<g id="edge1" class="edge"><title>Node1&#45;&gt;Node2</title>
<path fill="none" stroke="midnightblue" d="M59.5689,-60.3847C73.7441,-65.6143 89.9903,-71.6081 103.202,-76.4822"/>
<polygon fill="midnightblue" stroke="midnightblue" points="60.7423,-57.087 50.1489,-56.9093 58.3193,-63.6543 60.7423,-57.087"/>
</g>
<!-- Node3 -->
<g id="node3" class="node"><title>Node3</title>
<g id="a_node3"><a xlink:href="lr0_8c.html#ab38dfd7acc43af0b0c19728b7d22aeec" target="_top" xlink:title="save_reductions">
<polygon fill="white" stroke="black" points="86,-38.5 86,-57.5 174,-57.5 174,-38.5 86,-38.5"/>
<text text-anchor="middle" x="130" y="-45.5" font-family="Helvetica,sans-Serif" font-size="10.00">save_reductions</text>
</a>
</g>
</g>
<!-- Node1&#45;&gt;Node3 -->
<g id="edge2" class="edge"><title>Node1&#45;&gt;Node3</title>
<path fill="none" stroke="midnightblue" d="M60.3491,-48C68.4482,-48 77.1861,-48 85.6254,-48"/>
<polygon fill="midnightblue" stroke="midnightblue" points="60.149,-44.5001 50.1489,-48 60.1489,-51.5001 60.149,-44.5001"/>
</g>
<!-- Node6 -->
<g id="node6" class="node"><title>Node6</title>
<g id="a_node6"><a xlink:href="lr0_8c.html#a1908887fd7a9309bb55050cf523e0181" target="_top" xlink:title="save_shifts">
<polygon fill="white" stroke="black" points="96.5,-0.5 96.5,-19.5 163.5,-19.5 163.5,-0.5 96.5,-0.5"/>
<text text-anchor="middle" x="130" y="-7.5" font-family="Helvetica,sans-Serif" font-size="10.00">save_shifts</text>
</a>
</g>
</g>
<!-- Node1&#45;&gt;Node6 -->
<g id="edge5" class="edge"><title>Node1&#45;&gt;Node6</title>
<path fill="none" stroke="midnightblue" d="M59.5689,-35.6153C73.7441,-30.3857 89.9903,-24.3919 103.202,-19.5178"/>
<polygon fill="midnightblue" stroke="midnightblue" points="58.3193,-32.3457 50.1489,-39.0907 60.7423,-38.913 58.3193,-32.3457"/>
</g>
<!-- Node4 -->
<g id="node4" class="node"><title>Node4</title>
<g id="a_node4"><a xlink:href="lr0_8c.html#a81209dc209ca0c6fb2a5e74bd98c02c7" target="_top" xlink:title="generate_states">
<polygon fill="white" stroke="black" points="210,-19.5 210,-38.5 296,-38.5 296,-19.5 210,-19.5"/>
<text text-anchor="middle" x="253" y="-26.5" font-family="Helvetica,sans-Serif" font-size="10.00">generate_states</text>
</a>
</g>
</g>
<!-- Node3&#45;&gt;Node4 -->
<g id="edge3" class="edge"><title>Node3&#45;&gt;Node4</title>
<path fill="none" stroke="midnightblue" d="M184.041,-39.6712C192.713,-38.3096 201.591,-36.9154 209.951,-35.6028"/>
<polygon fill="midnightblue" stroke="midnightblue" points="183.337,-36.2389 174.001,-41.2478 184.423,-43.1541 183.337,-36.2389"/>
</g>
<!-- Node5 -->
<g id="node5" class="node"><title>Node5</title>
<g id="a_node5"><a xlink:href="lr0_8c.html#aec6ecb962126ab8e37fed166e9416bce" target="_top" xlink:title="lr0">
<polygon fill="white" stroke="red" points="332.5,-19.5 332.5,-38.5 361.5,-38.5 361.5,-19.5 332.5,-19.5"/>
<text text-anchor="middle" x="347" y="-26.5" font-family="Helvetica,sans-Serif" font-size="10.00">lr0</text>
</a>
</g>
</g>
<!-- Node4&#45;&gt;Node5 -->
<g id="edge4" class="edge"><title>Node4&#45;&gt;Node5</title>
<path fill="none" stroke="midnightblue" d="M306.323,-29C315.946,-29 325.193,-29 332.335,-29"/>
<polygon fill="midnightblue" stroke="midnightblue" points="306.23,-25.5001 296.23,-29 306.23,-32.5001 306.23,-25.5001"/>
</g>
<!-- Node6&#45;&gt;Node4 -->
<g id="edge6" class="edge"><title>Node6&#45;&gt;Node4</title>
<path fill="none" stroke="midnightblue" d="M173.702,-16.7053C185.373,-18.538 198.015,-20.523 209.665,-22.3524"/>
<polygon fill="midnightblue" stroke="midnightblue" points="174.166,-13.2354 163.744,-15.1417 173.08,-20.1506 174.166,-13.2354"/>
</g>
</g>
</svg>
