<?xml version="1.0" encoding="UTF-8" standalone="no"?>
<!DOCTYPE svg PUBLIC "-//W3C//DTD SVG 1.1//EN"
 "http://www.w3.org/Graphics/SVG/1.1/DTD/svg11.dtd">
<!-- Generated by graphviz version 2.36.0 (20140111.2315)
 -->
<!-- Title: byacc/defs.h Pages: 1 -->
<svg width="1174pt" height="84pt"
 viewBox="0.00 0.00 1174.00 84.00" xmlns="http://www.w3.org/2000/svg" xmlns:xlink="http://www.w3.org/1999/xlink">
<g id="graph0" class="graph" transform="scale(1 1) rotate(0) translate(4 80)">
<title>byacc/defs.h</title>
<polygon fill="white" stroke="none" points="-4,4 -4,-80 1170,-80 1170,4 -4,4"/>
<!-- Node1 -->
<g id="node1" class="node"><title>Node1</title>
<polygon fill="#bfbfbf" stroke="black" points="510.5,-56.5 510.5,-75.5 583.5,-75.5 583.5,-56.5 510.5,-56.5"/>
<text text-anchor="middle" x="547" y="-63.5" font-family="Helvetica,sans-Serif" font-size="10.00">byacc/defs.h</text>
</g>
<!-- Node2 -->
<g id="node2" class="node"><title>Node2</title>
<g id="a_node2"><a xlink:href="closure_8c.html" target="_top" xlink:title="byacc/closure.c">
<polygon fill="white" stroke="black" points="0,-0.5 0,-19.5 86,-19.5 86,-0.5 0,-0.5"/>
<text text-anchor="middle" x="43" y="-7.5" font-family="Helvetica,sans-Serif" font-size="10.00">byacc/closure.c</text>
</a>
</g>
</g>
<!-- Node1&#45;&gt;Node2 -->
<g id="edge1" class="edge"><title>Node1&#45;&gt;Node2</title>
<path fill="none" stroke="midnightblue" d="M500.255,-61.465C418.074,-55.0008 242.434,-40.0711 95,-20 92.095,-19.6045 89.1037,-19.1673 86.0931,-18.7049"/>
<polygon fill="midnightblue" stroke="midnightblue" points="500.035,-64.9584 510.277,-62.2477 500.58,-57.9796 500.035,-64.9584"/>
</g>
<!-- Node3 -->
<g id="node3" class="node"><title>Node3</title>
<g id="a_node3"><a xlink:href="error_8c.html" target="_top" xlink:title="byacc/error.c">
<polygon fill="white" stroke="black" points="104,-0.5 104,-19.5 178,-19.5 178,-0.5 104,-0.5"/>
<text text-anchor="middle" x="141" y="-7.5" font-family="Helvetica,sans-Serif" font-size="10.00">byacc/error.c</text>
</a>
</g>
</g>
<!-- Node1&#45;&gt;Node3 -->
<g id="edge2" class="edge"><title>Node1&#45;&gt;Node3</title>
<path fill="none" stroke="midnightblue" d="M500.264,-60.1977C431.462,-52.8928 298.955,-37.9275 187,-20 184.107,-19.5368 181.119,-19.0259 178.118,-18.4899"/>
<polygon fill="midnightblue" stroke="midnightblue" points="500.032,-63.6926 510.344,-61.2614 500.767,-56.7312 500.032,-63.6926"/>
</g>
<!-- Node4 -->
<g id="node4" class="node"><title>Node4</title>
<g id="a_node4"><a xlink:href="lalr_8c.html" target="_top" xlink:title="byacc/lalr.c">
<polygon fill="white" stroke="black" points="196.5,-0.5 196.5,-19.5 263.5,-19.5 263.5,-0.5 196.5,-0.5"/>
<text text-anchor="middle" x="230" y="-7.5" font-family="Helvetica,sans-Serif" font-size="10.00">byacc/lalr.c</text>
</a>
</g>
</g>
<!-- Node1&#45;&gt;Node4 -->
<g id="edge3" class="edge"><title>Node1&#45;&gt;Node4</title>
<path fill="none" stroke="midnightblue" d="M500.325,-58.0739C445.519,-49.7769 351.941,-35.0963 272,-20 269.362,-19.5018 266.635,-18.9658 263.897,-18.4124"/>
<polygon fill="midnightblue" stroke="midnightblue" points="500.014,-61.5665 510.424,-59.597 501.058,-54.6448 500.014,-61.5665"/>
</g>
<!-- Node5 -->
<g id="node5" class="node"><title>Node5</title>
<g id="a_node5"><a xlink:href="lr0_8c.html" target="_top" xlink:title="byacc/lr0.c">
<polygon fill="white" stroke="black" points="281.5,-0.5 281.5,-19.5 346.5,-19.5 346.5,-0.5 281.5,-0.5"/>
<text text-anchor="middle" x="314" y="-7.5" font-family="Helvetica,sans-Serif" font-size="10.00">byacc/lr0.c</text>
</a>
</g>
</g>
<!-- Node1&#45;&gt;Node5 -->
<g id="edge4" class="edge"><title>Node1&#45;&gt;Node5</title>
<path fill="none" stroke="midnightblue" d="M500.417,-54.2039C454.887,-43.6519 386.744,-27.8592 346.689,-18.5759"/>
<polygon fill="midnightblue" stroke="midnightblue" points="499.805,-57.6549 510.337,-56.5031 501.386,-50.8356 499.805,-57.6549"/>
</g>
<!-- Node6 -->
<g id="node6" class="node"><title>Node6</title>
<g id="a_node6"><a xlink:href="main_8c.html" target="_top" xlink:title="byacc/main.c">
<polygon fill="white" stroke="black" points="364.5,-0.5 364.5,-19.5 439.5,-19.5 439.5,-0.5 364.5,-0.5"/>
<text text-anchor="middle" x="402" y="-7.5" font-family="Helvetica,sans-Serif" font-size="10.00">byacc/main.c</text>
</a>
</g>
</g>
<!-- Node1&#45;&gt;Node6 -->
<g id="edge5" class="edge"><title>Node1&#45;&gt;Node6</title>
<path fill="none" stroke="midnightblue" d="M514.525,-52.9058C487.264,-42.7536 449.008,-28.5063 424.868,-19.5164"/>
<polygon fill="midnightblue" stroke="midnightblue" points="513.432,-56.2334 524.024,-56.4435 515.875,-49.6736 513.432,-56.2334"/>
</g>
<!-- Node7 -->
<g id="node7" class="node"><title>Node7</title>
<g id="a_node7"><a xlink:href="mkpar_8c.html" target="_top" xlink:title="byacc/mkpar.c">
<polygon fill="white" stroke="black" points="457.5,-0.5 457.5,-19.5 538.5,-19.5 538.5,-0.5 457.5,-0.5"/>
<text text-anchor="middle" x="498" y="-7.5" font-family="Helvetica,sans-Serif" font-size="10.00">byacc/mkpar.c</text>
</a>
</g>
</g>
<!-- Node1&#45;&gt;Node7 -->
<g id="edge6" class="edge"><title>Node1&#45;&gt;Node7</title>
<path fill="none" stroke="midnightblue" d="M531.966,-48.4314C523.378,-38.9673 512.957,-27.4827 505.941,-19.7511"/>
<polygon fill="midnightblue" stroke="midnightblue" points="529.597,-51.0293 538.909,-56.083 534.781,-46.3254 529.597,-51.0293"/>
</g>
<!-- Node8 -->
<g id="node8" class="node"><title>Node8</title>
<g id="a_node8"><a xlink:href="output_8c.html" target="_top" xlink:title="byacc/output.c">
<polygon fill="white" stroke="black" points="556.5,-0.5 556.5,-19.5 637.5,-19.5 637.5,-0.5 556.5,-0.5"/>
<text text-anchor="middle" x="597" y="-7.5" font-family="Helvetica,sans-Serif" font-size="10.00">byacc/output.c</text>
</a>
</g>
</g>
<!-- Node1&#45;&gt;Node8 -->
<g id="edge7" class="edge"><title>Node1&#45;&gt;Node8</title>
<path fill="none" stroke="midnightblue" d="M562.076,-48.7175C570.889,-39.1997 581.666,-27.5608 588.897,-19.7511"/>
<polygon fill="midnightblue" stroke="midnightblue" points="559.482,-46.3674 555.256,-56.083 564.619,-51.1233 559.482,-46.3674"/>
</g>
<!-- Node9 -->
<g id="node9" class="node"><title>Node9</title>
<g id="a_node9"><a xlink:href="reader_8c.html" target="_top" xlink:title="byacc/reader.c">
<polygon fill="white" stroke="black" points="655.5,-0.5 655.5,-19.5 736.5,-19.5 736.5,-0.5 655.5,-0.5"/>
<text text-anchor="middle" x="696" y="-7.5" font-family="Helvetica,sans-Serif" font-size="10.00">byacc/reader.c</text>
</a>
</g>
</g>
<!-- Node1&#45;&gt;Node9 -->
<g id="edge8" class="edge"><title>Node1&#45;&gt;Node9</title>
<path fill="none" stroke="midnightblue" d="M580.371,-52.9058C608.384,-42.7536 647.696,-28.5063 672.501,-19.5164"/>
<polygon fill="midnightblue" stroke="midnightblue" points="578.819,-49.7456 570.609,-56.4435 581.204,-56.3267 578.819,-49.7456"/>
</g>
<!-- Node10 -->
<g id="node10" class="node"><title>Node10</title>
<g id="a_node10"><a xlink:href="skeleton_8c.html" target="_top" xlink:title="byacc/skeleton.c">
<polygon fill="white" stroke="black" points="754.5,-0.5 754.5,-19.5 845.5,-19.5 845.5,-0.5 754.5,-0.5"/>
<text text-anchor="middle" x="800" y="-7.5" font-family="Helvetica,sans-Serif" font-size="10.00">byacc/skeleton.c</text>
</a>
</g>
</g>
<!-- Node1&#45;&gt;Node10 -->
<g id="edge9" class="edge"><title>Node1&#45;&gt;Node10</title>
<path fill="none" stroke="midnightblue" d="M593.303,-55.1172C641.096,-44.9163 714.88,-29.1678 760.154,-19.5047"/>
<polygon fill="midnightblue" stroke="midnightblue" points="592.567,-51.6953 583.518,-57.2056 594.029,-58.5411 592.567,-51.6953"/>
</g>
<!-- Node11 -->
<g id="node11" class="node"><title>Node11</title>
<g id="a_node11"><a xlink:href="symtab_8c.html" target="_top" xlink:title="byacc/symtab.c">
<polygon fill="white" stroke="black" points="864,-0.5 864,-19.5 950,-19.5 950,-0.5 864,-0.5"/>
<text text-anchor="middle" x="907" y="-7.5" font-family="Helvetica,sans-Serif" font-size="10.00">byacc/symtab.c</text>
</a>
</g>
</g>
<!-- Node1&#45;&gt;Node11 -->
<g id="edge10" class="edge"><title>Node1&#45;&gt;Node11</title>
<path fill="none" stroke="midnightblue" d="M593.868,-58.4667C654.122,-49.9902 761.957,-34.5589 854,-20 857.226,-19.4897 860.561,-18.9506 863.915,-18.4003"/>
<polygon fill="midnightblue" stroke="midnightblue" points="593.317,-55.0096 583.901,-59.8664 594.291,-61.9416 593.317,-55.0096"/>
</g>
<!-- Node12 -->
<g id="node12" class="node"><title>Node12</title>
<g id="a_node12"><a xlink:href="verbose_8c.html" target="_top" xlink:title="byacc/verbose.c">
<polygon fill="white" stroke="black" points="968.5,-0.5 968.5,-19.5 1057.5,-19.5 1057.5,-0.5 968.5,-0.5"/>
<text text-anchor="middle" x="1013" y="-7.5" font-family="Helvetica,sans-Serif" font-size="10.00">byacc/verbose.c</text>
</a>
</g>
</g>
<!-- Node1&#45;&gt;Node12 -->
<g id="edge11" class="edge"><title>Node1&#45;&gt;Node12</title>
<path fill="none" stroke="midnightblue" d="M594.007,-60.7354C670.617,-53.59 827.1,-38.1802 959,-20 962.013,-19.5847 965.116,-19.1326 968.241,-18.6594"/>
<polygon fill="midnightblue" stroke="midnightblue" points="593.372,-57.2792 583.738,-61.6882 594.019,-64.2493 593.372,-57.2792"/>
</g>
<!-- Node13 -->
<g id="node13" class="node"><title>Node13</title>
<g id="a_node13"><a xlink:href="warshall_8c.html" target="_top" xlink:title="byacc/warshall.c">
<polygon fill="white" stroke="black" points="1076,-0.5 1076,-19.5 1166,-19.5 1166,-0.5 1076,-0.5"/>
<text text-anchor="middle" x="1121" y="-7.5" font-family="Helvetica,sans-Serif" font-size="10.00">byacc/warshall.c</text>
</a>
</g>
</g>
<!-- Node1&#45;&gt;Node13 -->
<g id="edge12" class="edge"><title>Node1&#45;&gt;Node13</title>
<path fill="none" stroke="midnightblue" d="M593.59,-62.1479C684.603,-56.3138 892.309,-41.7095 1066,-20 1069.17,-19.604 1072.43,-19.1605 1075.72,-18.6884"/>
<polygon fill="midnightblue" stroke="midnightblue" points="593.353,-58.6558 583.596,-62.7832 593.798,-65.6417 593.353,-58.6558"/>
</g>
</g>
</svg>
