<?xml version="1.0" encoding="UTF-8" standalone="no"?>
<!DOCTYPE svg PUBLIC "-//W3C//DTD SVG 1.1//EN"
 "http://www.w3.org/Graphics/SVG/1.1/DTD/svg11.dtd">
<!-- Generated by graphviz version 2.36.0 (20140111.2315)
 -->
<!-- Title: lookup Pages: 1 -->
<!--zoomable 200 -->
<svg id="main" version="1.1" xmlns="http://www.w3.org/2000/svg" xmlns:xlink="http://www.w3.org/1999/xlink" xml:space="preserve" onload="init(evt)">
<style type="text/css"><![CDATA[
.edge:hover path { stroke: red; }
.edge:hover polygon { stroke: red; fill: red; }
]]></style>
<script type="text/javascript"><![CDATA[
var edges = document.getElementsByTagName('g');
if (edges && edges.length) {
  for (var i=0;i<edges.length;i++) {
    if (edges[i].id.substr(0,4)=='edge') {
      edges[i].setAttribute('class','edge');
    }
  }
}
]]></script>
        <defs>
                <circle id="rim" cx="0" cy="0" r="7"/>
                <circle id="rim2" cx="0" cy="0" r="3.5"/>
                <g id="zoomPlus">
                        <use xlink:href="#rim" fill="#404040">
                                <set attributeName="fill" to="#808080" begin="zoomplus.mouseover" end="zoomplus.mouseout"/>
                        </use>
                        <path d="M-4,0h8M0,-4v8" fill="none" stroke="white" stroke-width="1.5" pointer-events="none"/>
                </g>
                <g id="zoomMin">
                        <use xlink:href="#rim" fill="#404040">
                                <set attributeName="fill" to="#808080" begin="zoomminus.mouseover" end="zoomminus.mouseout"/>
                        </use>
                        <path d="M-4,0h8" fill="none" stroke="white" stroke-width="1.5" pointer-events="none"/>
                </g>
                <g id="dirArrow">
                        <path fill="none" stroke="white" stroke-width="1.5" d="M0,-3.0v7 M-2.5,-0.5L0,-3.0L2.5,-0.5"/>
                </g>
               <g id="resetDef">
                       <use xlink:href="#rim2" fill="#404040">
                               <set attributeName="fill" to="#808080" begin="reset.mouseover" end="reset.mouseout"/>
                       </use>
               </g>
        </defs>

<script type="text/javascript">
var viewWidth = 516;
var viewHeight = 200;
var sectionId = 'dynsection-3';
</script>
<script xlink:href="svgpan.js"/>
<svg id="graph" class="graph">
<g id="viewport">
<title>lookup</title>
<polygon fill="white" stroke="none" points="-4,4 -4,-195.74 512,-195.74 512,4 -4,4"/>
<!-- Node1 -->
<g id="node1" class="node"><title>Node1</title>
<polygon fill="#bfbfbf" stroke="black" points="0.5,-96.2397 0.5,-115.24 45.5,-115.24 45.5,-96.2397 0.5,-96.2397"/>
<text text-anchor="middle" x="23" y="-103.24" font-family="Helvetica,sans-Serif" font-size="10.00">lookup</text>
</g>
<!-- Node2 -->
<g id="node2" class="node"><title>Node2</title>
<g id="a_node2"><a xlink:href="reader_8c.html#acfb64f081b0d9c4536e90c5352ce9c2c" target="_top" xlink:title="get_literal">
<polygon fill="white" stroke="black" points="82.5,-115.24 82.5,-134.24 141.5,-134.24 141.5,-115.24 82.5,-115.24"/>
<text text-anchor="middle" x="112" y="-122.24" font-family="Helvetica,sans-Serif" font-size="10.00">get_literal</text>
</a>
</g>
</g>
<!-- Node1&#45;&gt;Node2 -->
<g id="edge1" class="edge"><title>Node1&#45;&gt;Node2</title>
<path fill="none" stroke="midnightblue" d="M55.3633,-112.589C64.1203,-114.502 73.5907,-116.57 82.1926,-118.448"/>
<polygon fill="midnightblue" stroke="midnightblue" points="56.0222,-109.151 45.5056,-110.436 54.5286,-115.989 56.0222,-109.151"/>
</g>
<!-- Node9 -->
<g id="node9" class="node"><title>Node9</title>
<g id="a_node9"><a xlink:href="reader_8c.html#a47f6ab5db224a190b33568ed55a03eaf" target="_top" xlink:title="get_name">
<polygon fill="white" stroke="black" points="82.5,-77.2397 82.5,-96.2397 141.5,-96.2397 141.5,-77.2397 82.5,-77.2397"/>
<text text-anchor="middle" x="112" y="-84.2397" font-family="Helvetica,sans-Serif" font-size="10.00">get_name</text>
</a>
</g>
</g>
<!-- Node1&#45;&gt;Node9 -->
<g id="edge10" class="edge"><title>Node1&#45;&gt;Node9</title>
<path fill="none" stroke="midnightblue" d="M55.3633,-98.8903C64.1203,-96.9778 73.5907,-94.9096 82.1926,-93.031"/>
<polygon fill="midnightblue" stroke="midnightblue" points="54.5286,-95.49 45.5056,-101.043 56.0222,-102.329 54.5286,-95.49"/>
</g>
<!-- Node3 -->
<g id="node3" class="node"><title>Node3</title>
<g id="a_node3"><a xlink:href="reader_8c.html#a0b749a023a959fabb8ed2778b46ec217" target="_top" xlink:title="declare_tokens">
<polygon fill="white" stroke="black" points="178.5,-58.2397 178.5,-77.2397 261.5,-77.2397 261.5,-58.2397 178.5,-58.2397"/>
<text text-anchor="middle" x="220" y="-65.2397" font-family="Helvetica,sans-Serif" font-size="10.00">declare_tokens</text>
</a>
</g>
</g>
<!-- Node2&#45;&gt;Node3 -->
<g id="edge2" class="edge"><title>Node2&#45;&gt;Node3</title>
<path fill="none" stroke="midnightblue" d="M137.158,-109.88C149.266,-102.622 164.244,-93.9273 178,-86.7397 184.119,-83.5426 190.876,-80.2983 197.109,-77.4172"/>
<polygon fill="midnightblue" stroke="midnightblue" points="135.272,-106.93 128.527,-115.101 138.895,-112.92 135.272,-106.93"/>
</g>
<!-- Node5 -->
<g id="node5" class="node"><title>Node5</title>
<g id="a_node5"><a xlink:href="reader_8c.html#a860dbc8da656fd831b19668da20207c7" target="_top" xlink:title="declare_types">
<polygon fill="white" stroke="black" points="181.5,-96.2397 181.5,-115.24 258.5,-115.24 258.5,-96.2397 181.5,-96.2397"/>
<text text-anchor="middle" x="220" y="-103.24" font-family="Helvetica,sans-Serif" font-size="10.00">declare_types</text>
</a>
</g>
</g>
<!-- Node2&#45;&gt;Node5 -->
<g id="edge4" class="edge"><title>Node2&#45;&gt;Node5</title>
<path fill="none" stroke="midnightblue" d="M151.754,-117.793C161.336,-116.076 171.589,-114.238 181.128,-112.528"/>
<polygon fill="midnightblue" stroke="midnightblue" points="150.911,-114.389 141.685,-119.598 152.146,-121.279 150.911,-114.389"/>
</g>
<!-- Node6 -->
<g id="node6" class="node"><title>Node6</title>
<g id="a_node6"><a xlink:href="reader_8c.html#a34bf32e056d8bc6f1fb490f4efc7ce90" target="_top" xlink:title="add_symbol">
<polygon fill="white" stroke="black" points="185.5,-172.24 185.5,-191.24 254.5,-191.24 254.5,-172.24 185.5,-172.24"/>
<text text-anchor="middle" x="220" y="-179.24" font-family="Helvetica,sans-Serif" font-size="10.00">add_symbol</text>
</a>
</g>
</g>
<!-- Node2&#45;&gt;Node6 -->
<g id="edge6" class="edge"><title>Node2&#45;&gt;Node6</title>
<path fill="none" stroke="midnightblue" d="M137.158,-139.6C149.266,-146.857 164.244,-155.552 178,-162.74 184.119,-165.937 190.876,-169.181 197.109,-172.062"/>
<polygon fill="midnightblue" stroke="midnightblue" points="138.895,-136.56 128.527,-134.379 135.272,-142.549 138.895,-136.56"/>
</g>
<!-- Node8 -->
<g id="node8" class="node"><title>Node8</title>
<g id="a_node8"><a xlink:href="reader_8c.html#aae3985d515e47c03afc20f92c0292531" target="_top" xlink:title="mark_symbol">
<polygon fill="white" stroke="black" points="182.5,-134.24 182.5,-153.24 257.5,-153.24 257.5,-134.24 182.5,-134.24"/>
<text text-anchor="middle" x="220" y="-141.24" font-family="Helvetica,sans-Serif" font-size="10.00">mark_symbol</text>
</a>
</g>
</g>
<!-- Node2&#45;&gt;Node8 -->
<g id="edge8" class="edge"><title>Node2&#45;&gt;Node8</title>
<path fill="none" stroke="midnightblue" d="M151.754,-131.686C161.731,-133.475 172.436,-135.393 182.305,-137.162"/>
<polygon fill="midnightblue" stroke="midnightblue" points="152.146,-128.201 141.685,-129.881 150.911,-135.091 152.146,-128.201"/>
</g>
<!-- Node4 -->
<g id="node4" class="node"><title>Node4</title>
<g id="a_node4"><a xlink:href="reader_8c.html#a07addfee5457e48ddb310769dd0e39af" target="_top" xlink:title="read_declarations">
<polygon fill="white" stroke="red" points="298.5,-58.2397 298.5,-77.2397 391.5,-77.2397 391.5,-58.2397 298.5,-58.2397"/>
<text text-anchor="middle" x="345" y="-65.2397" font-family="Helvetica,sans-Serif" font-size="10.00">read_declarations</text>
</a>
</g>
</g>
<!-- Node3&#45;&gt;Node4 -->
<g id="edge3" class="edge"><title>Node3&#45;&gt;Node4</title>
<path fill="none" stroke="midnightblue" d="M271.764,-67.7397C280.565,-67.7397 289.669,-67.7397 298.325,-67.7397"/>
<polygon fill="midnightblue" stroke="midnightblue" points="271.616,-64.2398 261.616,-67.7397 271.616,-71.2398 271.616,-64.2398"/>
</g>
<!-- Node5&#45;&gt;Node4 -->
<g id="edge5" class="edge"><title>Node5&#45;&gt;Node4</title>
<path fill="none" stroke="midnightblue" d="M262.045,-93.0593C278.664,-87.9249 297.532,-82.0956 312.972,-77.3257"/>
<polygon fill="midnightblue" stroke="midnightblue" points="260.559,-89.8548 252.038,-96.1507 262.626,-96.5429 260.559,-89.8548"/>
</g>
<!-- Node7 -->
<g id="node7" class="node"><title>Node7</title>
<g id="a_node7"><a xlink:href="reader_8c.html#af6d4fba61bb761ca9fe92fef83e8ee94" target="_top" xlink:title="read_grammar">
<polygon fill="white" stroke="red" points="428.5,-134.24 428.5,-153.24 507.5,-153.24 507.5,-134.24 428.5,-134.24"/>
<text text-anchor="middle" x="468" y="-141.24" font-family="Helvetica,sans-Serif" font-size="10.00">read_grammar</text>
</a>
</g>
</g>
<!-- Node6&#45;&gt;Node7 -->
<g id="edge7" class="edge"><title>Node6&#45;&gt;Node7</title>
<path fill="none" stroke="midnightblue" d="M265.047,-176.113C299.631,-171.561 348.966,-164.772 392,-157.74 403.765,-155.817 416.528,-153.516 428.132,-151.34"/>
<polygon fill="midnightblue" stroke="midnightblue" points="264.273,-172.684 254.811,-177.452 265.181,-179.625 264.273,-172.684"/>
</g>
<!-- Node8&#45;&gt;Node7 -->
<g id="edge9" class="edge"><title>Node8&#45;&gt;Node7</title>
<path fill="none" stroke="midnightblue" d="M267.676,-143.74C314.162,-143.74 384.698,-143.74 428.204,-143.74"/>
<polygon fill="midnightblue" stroke="midnightblue" points="267.563,-140.24 257.563,-143.74 267.563,-147.24 267.563,-140.24"/>
</g>
<!-- Node9&#45;&gt;Node3 -->
<g id="edge11" class="edge"><title>Node9&#45;&gt;Node3</title>
<path fill="none" stroke="midnightblue" d="M151.587,-79.8232C160.295,-78.2624 169.564,-76.6008 178.354,-75.0253"/>
<polygon fill="midnightblue" stroke="midnightblue" points="150.911,-76.3885 141.685,-81.598 152.146,-83.2787 150.911,-76.3885"/>
</g>
<!-- Node9&#45;&gt;Node5 -->
<g id="edge12" class="edge"><title>Node9&#45;&gt;Node5</title>
<path fill="none" stroke="midnightblue" d="M151.754,-93.6861C161.336,-95.4036 171.589,-97.2414 181.128,-98.9513"/>
<polygon fill="midnightblue" stroke="midnightblue" points="152.146,-90.2007 141.685,-91.8814 150.911,-97.0909 152.146,-90.2007"/>
</g>
<!-- Node9&#45;&gt;Node6 -->
<g id="edge18" class="edge"><title>Node9&#45;&gt;Node6</title>
<path fill="none" stroke="midnightblue" d="M138.559,-102.535C139.763,-103.57 140.919,-104.64 142,-105.74 163.009,-127.103 155.488,-142.966 178,-162.74 182.244,-166.467 187.344,-169.601 192.483,-172.18"/>
<polygon fill="midnightblue" stroke="midnightblue" points="140.286,-99.4557 130.184,-96.2633 136.09,-105.059 140.286,-99.4557"/>
</g>
<!-- Node9&#45;&gt;Node8 -->
<g id="edge19" class="edge"><title>Node9&#45;&gt;Node8</title>
<path fill="none" stroke="midnightblue" d="M137.158,-101.6C149.266,-108.857 164.244,-117.552 178,-124.74 184.119,-127.937 190.876,-131.181 197.109,-134.062"/>
<polygon fill="midnightblue" stroke="midnightblue" points="138.895,-98.5597 128.527,-96.3787 135.272,-104.549 138.895,-98.5597"/>
</g>
<!-- Node10 -->
<g id="node10" class="node"><title>Node10</title>
<g id="a_node10"><a xlink:href="reader_8c.html#a279a8d9eb5a5ad8dce6c95b2647b9c98" target="_top" xlink:title="declare_start">
<polygon fill="white" stroke="black" points="183.5,-20.2397 183.5,-39.2397 256.5,-39.2397 256.5,-20.2397 183.5,-20.2397"/>
<text text-anchor="middle" x="220" y="-27.2397" font-family="Helvetica,sans-Serif" font-size="10.00">declare_start</text>
</a>
</g>
</g>
<!-- Node9&#45;&gt;Node10 -->
<g id="edge13" class="edge"><title>Node9&#45;&gt;Node10</title>
<path fill="none" stroke="midnightblue" d="M137.158,-71.8797C149.266,-64.622 164.244,-55.9273 178,-48.7397 184.119,-45.5426 190.876,-42.2983 197.109,-39.4172"/>
<polygon fill="midnightblue" stroke="midnightblue" points="135.272,-68.9303 128.527,-77.1007 138.895,-74.9198 135.272,-68.9303"/>
</g>
<!-- Node11 -->
<g id="node11" class="node"><title>Node11</title>
<g id="a_node11"><a xlink:href="reader_8c.html#ac910677446efcb4dbebc9a6d3d90a9ff" target="_top" xlink:title="advance_to_start">
<polygon fill="white" stroke="black" points="299,-20.2397 299,-39.2397 391,-39.2397 391,-20.2397 299,-20.2397"/>
<text text-anchor="middle" x="345" y="-27.2397" font-family="Helvetica,sans-Serif" font-size="10.00">advance_to_start</text>
</a>
</g>
</g>
<!-- Node9&#45;&gt;Node11 -->
<g id="edge17" class="edge"><title>Node9&#45;&gt;Node11</title>
<path fill="none" stroke="midnightblue" d="M122.541,-68.2502C133.233,-49.7823 152.469,-22.4993 178,-10.7397 225.688,11.2252 288.925,-7.36762 321.884,-20.1471"/>
<polygon fill="midnightblue" stroke="midnightblue" points="119.366,-66.7624 117.618,-77.2121 125.501,-70.1329 119.366,-66.7624"/>
</g>
<!-- Node10&#45;&gt;Node4 -->
<g id="edge14" class="edge"><title>Node10&#45;&gt;Node4</title>
<path fill="none" stroke="midnightblue" d="M262.045,-42.4201C278.664,-47.5546 297.532,-53.3838 312.972,-58.1538"/>
<polygon fill="midnightblue" stroke="midnightblue" points="262.626,-38.9365 252.038,-39.3287 260.559,-45.6246 262.626,-38.9365"/>
</g>
<!-- Node10&#45;&gt;Node11 -->
<g id="edge15" class="edge"><title>Node10&#45;&gt;Node11</title>
<path fill="none" stroke="midnightblue" d="M266.79,-29.7397C277.271,-29.7397 288.404,-29.7397 298.857,-29.7397"/>
<polygon fill="midnightblue" stroke="midnightblue" points="266.577,-26.2398 256.577,-29.7397 266.577,-33.2398 266.577,-26.2398"/>
</g>
<!-- Node11&#45;&gt;Node7 -->
<g id="edge16" class="edge"><title>Node11&#45;&gt;Node7</title>
<path fill="none" stroke="midnightblue" d="M384.551,-43.8608C387.161,-45.3568 389.673,-46.9816 392,-48.7397 424.524,-73.3166 450.825,-115.201 461.657,-134.047"/>
<polygon fill="midnightblue" stroke="midnightblue" points="385.943,-40.6427 375.438,-39.2636 382.79,-46.8925 385.943,-40.6427"/>
</g>
</g>
</svg>
        <g id="navigator" transform="translate(0 0)" fill="#404254">
                <rect fill="#f2f5e9" fill-opacity="0.5" stroke="#606060" stroke-width=".5" x="0" y="0" width="60" height="60"/>
                <use id="zoomplus" xlink:href="#zoomPlus" x="17" y="9" onmousedown="handleZoom(evt,'in')"/>
                <use id="zoomminus" xlink:href="#zoomMin" x="42" y="9" onmousedown="handleZoom(evt,'out')"/>
                <use id="reset" xlink:href="#resetDef" x="30" y="36" onmousedown="handleReset()"/>
                <g id="arrowUp" xlink:href="#dirArrow" transform="translate(30 24)" onmousedown="handlePan(0,-1)">
                  <use xlink:href="#rim" fill="#404040">
                        <set attributeName="fill" to="#808080" begin="arrowUp.mouseover" end="arrowUp.mouseout"/>
                  </use>
                  <path fill="none" stroke="white" stroke-width="1.5" d="M0,-3.0v7 M-2.5,-0.5L0,-3.0L2.5,-0.5"/>
                </g>
                <g id="arrowRight" xlink:href="#dirArrow" transform="rotate(90) translate(36 -43)" onmousedown="handlePan(1,0)">
                  <use xlink:href="#rim" fill="#404040">
                        <set attributeName="fill" to="#808080" begin="arrowRight.mouseover" end="arrowRight.mouseout"/>
                  </use>
                  <path fill="none" stroke="white" stroke-width="1.5" d="M0,-3.0v7 M-2.5,-0.5L0,-3.0L2.5,-0.5"/>
                </g>
                <g id="arrowDown" xlink:href="#dirArrow" transform="rotate(180) translate(-30 -48)" onmousedown="handlePan(0,1)">
                  <use xlink:href="#rim" fill="#404040">
                        <set attributeName="fill" to="#808080" begin="arrowDown.mouseover" end="arrowDown.mouseout"/>
                  </use>
                  <path fill="none" stroke="white" stroke-width="1.5" d="M0,-3.0v7 M-2.5,-0.5L0,-3.0L2.5,-0.5"/>
                </g>
                <g id="arrowLeft" xlink:href="#dirArrow" transform="rotate(270) translate(-36 17)" onmousedown="handlePan(-1,0)">
                  <use xlink:href="#rim" fill="#404040">
                        <set attributeName="fill" to="#808080" begin="arrowLeft.mouseover" end="arrowLeft.mouseout"/>
                  </use>
                  <path fill="none" stroke="white" stroke-width="1.5" d="M0,-3.0v7 M-2.5,-0.5L0,-3.0L2.5,-0.5"/>
                </g>
        </g>
        <svg viewBox="0 0 15 15" width="100%" height="30px" preserveAspectRatio="xMaxYMin meet">
         <g id="arrow_out" transform="scale(0.3 0.3)">
          <a xlink:href="defs_8h_aeb8facfda1fb8dcf16a3120589eb90e0_icgraph_org.svg" target="_base">
           <rect id="button" ry="5" rx="5" y="6" x="6" height="38" width="38"
                fill="#f2f5e9" fill-opacity="0.5" stroke="#606060" stroke-width="1.0"/>
           <path id="arrow"
             d="M 11.500037,31.436501 C 11.940474,20.09759 22.043105,11.32322 32.158766,21.979434 L 37.068811,17.246167 C 37.068811,17.246167 37.088388,32 37.088388,32 L 22.160133,31.978069 C 22.160133,31.978069 26.997745,27.140456 26.997745,27.140456 C 18.528582,18.264221 13.291696,25.230495 11.500037,31.436501 z"
             style="fill:#404040;"/>
          </a>
         </g>
        </svg>
</svg>
