<?xml version="1.0" encoding="UTF-8" standalone="no"?>
<!DOCTYPE svg PUBLIC "-//W3C//DTD SVG 1.1//EN"
 "http://www.w3.org/Graphics/SVG/1.1/DTD/svg11.dtd">
<!-- Generated by graphviz version 2.36.0 (20140111.2315)
 -->
<!-- Title: illegal_character Pages: 1 -->
<svg width="442pt" height="142pt"
 viewBox="0.00 0.00 442.00 142.00" xmlns="http://www.w3.org/2000/svg" xmlns:xlink="http://www.w3.org/1999/xlink">
<g id="graph0" class="graph" transform="scale(1 1) rotate(0) translate(4 138)">
<title>illegal_character</title>
<polygon fill="white" stroke="none" points="-4,4 -4,-138 438,-138 438,4 -4,4"/>
<!-- Node1 -->
<g id="node1" class="node"><title>Node1</title>
<polygon fill="#bfbfbf" stroke="black" points="0.5,-57.5 0.5,-76.5 87.5,-76.5 87.5,-57.5 0.5,-57.5"/>
<text text-anchor="middle" x="44" y="-64.5" font-family="Helvetica,sans-Serif" font-size="10.00">illegal_character</text>
</g>
<!-- Node2 -->
<g id="node2" class="node"><title>Node2</title>
<g id="a_node2"><a xlink:href="reader_8c.html#acfb64f081b0d9c4536e90c5352ce9c2c" target="_top" xlink:title="get_literal">
<polygon fill="white" stroke="black" points="124.5,-57.5 124.5,-76.5 183.5,-76.5 183.5,-57.5 124.5,-57.5"/>
<text text-anchor="middle" x="154" y="-64.5" font-family="Helvetica,sans-Serif" font-size="10.00">get_literal</text>
</a>
</g>
</g>
<!-- Node1&#45;&gt;Node2 -->
<g id="edge1" class="edge"><title>Node1&#45;&gt;Node2</title>
<path fill="none" stroke="midnightblue" d="M97.8726,-67C106.961,-67 116.092,-67 124.235,-67"/>
<polygon fill="midnightblue" stroke="midnightblue" points="97.6845,-63.5001 87.6845,-67 97.6844,-70.5001 97.6845,-63.5001"/>
</g>
<!-- Node3 -->
<g id="node3" class="node"><title>Node3</title>
<g id="a_node3"><a xlink:href="reader_8c.html#a0b749a023a959fabb8ed2778b46ec217" target="_top" xlink:title="declare_tokens">
<polygon fill="white" stroke="black" points="220.5,-114.5 220.5,-133.5 303.5,-133.5 303.5,-114.5 220.5,-114.5"/>
<text text-anchor="middle" x="262" y="-121.5" font-family="Helvetica,sans-Serif" font-size="10.00">declare_tokens</text>
</a>
</g>
</g>
<!-- Node2&#45;&gt;Node3 -->
<g id="edge2" class="edge"><title>Node2&#45;&gt;Node3</title>
<path fill="none" stroke="midnightblue" d="M179.158,-81.8601C191.266,-89.1177 206.244,-97.8124 220,-105 226.119,-108.197 232.876,-111.441 239.109,-114.323"/>
<polygon fill="midnightblue" stroke="midnightblue" points="180.895,-78.82 170.527,-76.639 177.272,-84.8095 180.895,-78.82"/>
</g>
<!-- Node5 -->
<g id="node5" class="node"><title>Node5</title>
<g id="a_node5"><a xlink:href="reader_8c.html#a860dbc8da656fd831b19668da20207c7" target="_top" xlink:title="declare_types">
<polygon fill="white" stroke="black" points="223.5,-76.5 223.5,-95.5 300.5,-95.5 300.5,-76.5 223.5,-76.5"/>
<text text-anchor="middle" x="262" y="-83.5" font-family="Helvetica,sans-Serif" font-size="10.00">declare_types</text>
</a>
</g>
</g>
<!-- Node2&#45;&gt;Node5 -->
<g id="edge4" class="edge"><title>Node2&#45;&gt;Node5</title>
<path fill="none" stroke="midnightblue" d="M193.754,-73.9464C203.336,-75.6639 213.589,-77.5017 223.128,-79.2116"/>
<polygon fill="midnightblue" stroke="midnightblue" points="194.146,-70.461 183.685,-72.1417 192.911,-77.3512 194.146,-70.461"/>
</g>
<!-- Node6 -->
<g id="node6" class="node"><title>Node6</title>
<g id="a_node6"><a xlink:href="reader_8c.html#a34bf32e056d8bc6f1fb490f4efc7ce90" target="_top" xlink:title="add_symbol">
<polygon fill="white" stroke="black" points="227.5,-38.5 227.5,-57.5 296.5,-57.5 296.5,-38.5 227.5,-38.5"/>
<text text-anchor="middle" x="262" y="-45.5" font-family="Helvetica,sans-Serif" font-size="10.00">add_symbol</text>
</a>
</g>
</g>
<!-- Node2&#45;&gt;Node6 -->
<g id="edge6" class="edge"><title>Node2&#45;&gt;Node6</title>
<path fill="none" stroke="midnightblue" d="M193.55,-60.0901C204.638,-58.1026 216.641,-55.9512 227.404,-54.0219"/>
<polygon fill="midnightblue" stroke="midnightblue" points="192.911,-56.6488 183.685,-61.8583 194.146,-63.539 192.911,-56.6488"/>
</g>
<!-- Node8 -->
<g id="node8" class="node"><title>Node8</title>
<g id="a_node8"><a xlink:href="reader_8c.html#aae3985d515e47c03afc20f92c0292531" target="_top" xlink:title="mark_symbol">
<polygon fill="white" stroke="black" points="224.5,-0.5 224.5,-19.5 299.5,-19.5 299.5,-0.5 224.5,-0.5"/>
<text text-anchor="middle" x="262" y="-7.5" font-family="Helvetica,sans-Serif" font-size="10.00">mark_symbol</text>
</a>
</g>
</g>
<!-- Node2&#45;&gt;Node8 -->
<g id="edge8" class="edge"><title>Node2&#45;&gt;Node8</title>
<path fill="none" stroke="midnightblue" d="M179.158,-52.1399C191.266,-44.8823 206.244,-36.1876 220,-29 226.119,-25.8028 232.876,-22.5586 239.109,-19.6775"/>
<polygon fill="midnightblue" stroke="midnightblue" points="177.272,-49.1905 170.527,-57.361 180.895,-55.18 177.272,-49.1905"/>
</g>
<!-- Node4 -->
<g id="node4" class="node"><title>Node4</title>
<g id="a_node4"><a xlink:href="reader_8c.html#a07addfee5457e48ddb310769dd0e39af" target="_top" xlink:title="read_declarations">
<polygon fill="white" stroke="red" points="340.5,-85.5 340.5,-104.5 433.5,-104.5 433.5,-85.5 340.5,-85.5"/>
<text text-anchor="middle" x="387" y="-92.5" font-family="Helvetica,sans-Serif" font-size="10.00">read_declarations</text>
</a>
</g>
</g>
<!-- Node3&#45;&gt;Node4 -->
<g id="edge3" class="edge"><title>Node3&#45;&gt;Node4</title>
<path fill="none" stroke="midnightblue" d="M313.6,-112.07C324.201,-109.571 335.248,-106.966 345.427,-104.566"/>
<polygon fill="midnightblue" stroke="midnightblue" points="312.546,-108.722 303.616,-114.424 314.152,-115.536 312.546,-108.722"/>
</g>
<!-- Node5&#45;&gt;Node4 -->
<g id="edge5" class="edge"><title>Node5&#45;&gt;Node4</title>
<path fill="none" stroke="midnightblue" d="M310.569,-89.4807C320.378,-90.1984 330.687,-90.9527 340.423,-91.6651"/>
<polygon fill="midnightblue" stroke="midnightblue" points="310.801,-85.9884 300.572,-88.7492 310.29,-92.9697 310.801,-85.9884"/>
</g>
<!-- Node7 -->
<g id="node7" class="node"><title>Node7</title>
<g id="a_node7"><a xlink:href="reader_8c.html#af6d4fba61bb761ca9fe92fef83e8ee94" target="_top" xlink:title="read_grammar">
<polygon fill="white" stroke="red" points="347.5,-28.5 347.5,-47.5 426.5,-47.5 426.5,-28.5 347.5,-28.5"/>
<text text-anchor="middle" x="387" y="-35.5" font-family="Helvetica,sans-Serif" font-size="10.00">read_grammar</text>
</a>
</g>
</g>
<!-- Node6&#45;&gt;Node7 -->
<g id="edge7" class="edge"><title>Node6&#45;&gt;Node7</title>
<path fill="none" stroke="midnightblue" d="M306.869,-44.4334C320.04,-43.3626 334.39,-42.1959 347.209,-41.1538"/>
<polygon fill="midnightblue" stroke="midnightblue" points="306.294,-40.9685 296.61,-45.2675 306.861,-47.9455 306.294,-40.9685"/>
</g>
<!-- Node8&#45;&gt;Node7 -->
<g id="edge9" class="edge"><title>Node8&#45;&gt;Node7</title>
<path fill="none" stroke="midnightblue" d="M309.347,-20.5505C321.827,-23.3916 335.196,-26.4348 347.217,-29.1713"/>
<polygon fill="midnightblue" stroke="midnightblue" points="310.098,-17.1321 299.571,-18.3251 308.545,-23.9575 310.098,-17.1321"/>
</g>
</g>
</svg>
