<?xml version="1.0" encoding="UTF-8" standalone="no"?>
<!DOCTYPE svg PUBLIC "-//W3C//DTD SVG 1.1//EN"
 "http://www.w3.org/Graphics/SVG/1.1/DTD/svg11.dtd">
<!-- Generated by graphviz version 2.36.0 (20140111.2315)
 -->
<!-- Title: used_reserved Pages: 1 -->
<svg width="550pt" height="218pt"
 viewBox="0.00 0.00 550.00 218.00" xmlns="http://www.w3.org/2000/svg" xmlns:xlink="http://www.w3.org/1999/xlink">
<g id="graph0" class="graph" transform="scale(1 1) rotate(0) translate(4 214)">
<title>used_reserved</title>
<polygon fill="white" stroke="none" points="-4,4 -4,-214 546,-214 546,4 -4,4"/>
<!-- Node1 -->
<g id="node1" class="node"><title>Node1</title>
<polygon fill="#bfbfbf" stroke="black" points="0,-95.5 0,-114.5 80,-114.5 80,-95.5 0,-95.5"/>
<text text-anchor="middle" x="40" y="-102.5" font-family="Helvetica,sans-Serif" font-size="10.00">used_reserved</text>
</g>
<!-- Node2 -->
<g id="node2" class="node"><title>Node2</title>
<g id="a_node2"><a xlink:href="reader_8c.html#a47f6ab5db224a190b33568ed55a03eaf" target="_top" xlink:title="get_name">
<polygon fill="white" stroke="black" points="116.5,-95.5 116.5,-114.5 175.5,-114.5 175.5,-95.5 116.5,-95.5"/>
<text text-anchor="middle" x="146" y="-102.5" font-family="Helvetica,sans-Serif" font-size="10.00">get_name</text>
</a>
</g>
</g>
<!-- Node1&#45;&gt;Node2 -->
<g id="edge1" class="edge"><title>Node1&#45;&gt;Node2</title>
<path fill="none" stroke="midnightblue" d="M90.117,-105C99.1542,-105 108.308,-105 116.482,-105"/>
<polygon fill="midnightblue" stroke="midnightblue" points="90.0217,-101.5 80.0217,-105 90.0216,-108.5 90.0217,-101.5"/>
</g>
<!-- Node3 -->
<g id="node3" class="node"><title>Node3</title>
<g id="a_node3"><a xlink:href="reader_8c.html#a0b749a023a959fabb8ed2778b46ec217" target="_top" xlink:title="declare_tokens">
<polygon fill="white" stroke="black" points="212.5,-190.5 212.5,-209.5 295.5,-209.5 295.5,-190.5 212.5,-190.5"/>
<text text-anchor="middle" x="254" y="-197.5" font-family="Helvetica,sans-Serif" font-size="10.00">declare_tokens</text>
</a>
</g>
</g>
<!-- Node2&#45;&gt;Node3 -->
<g id="edge2" class="edge"><title>Node2&#45;&gt;Node3</title>
<path fill="none" stroke="midnightblue" d="M158.912,-122.939C170.767,-139.7 190.286,-164.541 212,-181 216.752,-184.602 222.295,-187.739 227.742,-190.371"/>
<polygon fill="midnightblue" stroke="midnightblue" points="161.701,-120.818 153.149,-114.564 155.934,-124.786 161.701,-120.818"/>
</g>
<!-- Node5 -->
<g id="node5" class="node"><title>Node5</title>
<g id="a_node5"><a xlink:href="reader_8c.html#a860dbc8da656fd831b19668da20207c7" target="_top" xlink:title="declare_types">
<polygon fill="white" stroke="black" points="215.5,-152.5 215.5,-171.5 292.5,-171.5 292.5,-152.5 215.5,-152.5"/>
<text text-anchor="middle" x="254" y="-159.5" font-family="Helvetica,sans-Serif" font-size="10.00">declare_types</text>
</a>
</g>
</g>
<!-- Node2&#45;&gt;Node5 -->
<g id="edge4" class="edge"><title>Node2&#45;&gt;Node5</title>
<path fill="none" stroke="midnightblue" d="M171.158,-119.86C183.266,-127.118 198.244,-135.812 212,-143 218.119,-146.197 224.876,-149.441 231.109,-152.323"/>
<polygon fill="midnightblue" stroke="midnightblue" points="172.895,-116.82 162.527,-114.639 169.272,-122.809 172.895,-116.82"/>
</g>
<!-- Node6 -->
<g id="node6" class="node"><title>Node6</title>
<g id="a_node6"><a xlink:href="reader_8c.html#a279a8d9eb5a5ad8dce6c95b2647b9c98" target="_top" xlink:title="declare_start">
<polygon fill="white" stroke="black" points="217.5,-114.5 217.5,-133.5 290.5,-133.5 290.5,-114.5 217.5,-114.5"/>
<text text-anchor="middle" x="254" y="-121.5" font-family="Helvetica,sans-Serif" font-size="10.00">declare_start</text>
</a>
</g>
</g>
<!-- Node2&#45;&gt;Node6 -->
<g id="edge6" class="edge"><title>Node2&#45;&gt;Node6</title>
<path fill="none" stroke="midnightblue" d="M185.735,-111.943C196.113,-113.803 207.279,-115.805 217.474,-117.632"/>
<polygon fill="midnightblue" stroke="midnightblue" points="186.146,-108.461 175.685,-110.142 184.911,-115.351 186.146,-108.461"/>
</g>
<!-- Node7 -->
<g id="node7" class="node"><title>Node7</title>
<g id="a_node7"><a xlink:href="reader_8c.html#ac910677446efcb4dbebc9a6d3d90a9ff" target="_top" xlink:title="advance_to_start">
<polygon fill="white" stroke="black" points="333,-76.5 333,-95.5 425,-95.5 425,-76.5 333,-76.5"/>
<text text-anchor="middle" x="379" y="-83.5" font-family="Helvetica,sans-Serif" font-size="10.00">advance_to_start</text>
</a>
</g>
</g>
<!-- Node2&#45;&gt;Node7 -->
<g id="edge10" class="edge"><title>Node2&#45;&gt;Node7</title>
<path fill="none" stroke="midnightblue" d="M185.843,-101.805C226.462,-98.4642 290.14,-93.2266 332.94,-89.7062"/>
<polygon fill="midnightblue" stroke="midnightblue" points="185.469,-98.324 175.789,-102.632 186.043,-105.3 185.469,-98.324"/>
</g>
<!-- Node9 -->
<g id="node9" class="node"><title>Node9</title>
<g id="a_node9"><a xlink:href="reader_8c.html#a34bf32e056d8bc6f1fb490f4efc7ce90" target="_top" xlink:title="add_symbol">
<polygon fill="white" stroke="black" points="344.5,-38.5 344.5,-57.5 413.5,-57.5 413.5,-38.5 344.5,-38.5"/>
<text text-anchor="middle" x="379" y="-45.5" font-family="Helvetica,sans-Serif" font-size="10.00">add_symbol</text>
</a>
</g>
</g>
<!-- Node2&#45;&gt;Node9 -->
<g id="edge11" class="edge"><title>Node2&#45;&gt;Node9</title>
<path fill="none" stroke="midnightblue" d="M185.631,-95.4677C230.024,-84.5135 302.165,-66.7126 344.347,-56.304"/>
<polygon fill="midnightblue" stroke="midnightblue" points="184.66,-92.1023 175.789,-97.8962 186.337,-98.8985 184.66,-92.1023"/>
</g>
<!-- Node10 -->
<g id="node10" class="node"><title>Node10</title>
<g id="a_node10"><a xlink:href="reader_8c.html#aae3985d515e47c03afc20f92c0292531" target="_top" xlink:title="mark_symbol">
<polygon fill="white" stroke="black" points="341.5,-0.5 341.5,-19.5 416.5,-19.5 416.5,-0.5 341.5,-0.5"/>
<text text-anchor="middle" x="379" y="-7.5" font-family="Helvetica,sans-Serif" font-size="10.00">mark_symbol</text>
</a>
</g>
</g>
<!-- Node2&#45;&gt;Node10 -->
<g id="edge13" class="edge"><title>Node2&#45;&gt;Node10</title>
<path fill="none" stroke="midnightblue" d="M169.05,-89.6558C181.31,-81.5857 197.068,-71.9533 212,-65 254.935,-45.007 307.185,-28.9569 341.454,-19.4684"/>
<polygon fill="midnightblue" stroke="midnightblue" points="166.775,-86.9683 160.428,-95.4521 170.68,-92.7776 166.775,-86.9683"/>
</g>
<!-- Node4 -->
<g id="node4" class="node"><title>Node4</title>
<g id="a_node4"><a xlink:href="reader_8c.html#a07addfee5457e48ddb310769dd0e39af" target="_top" xlink:title="read_declarations">
<polygon fill="white" stroke="red" points="332.5,-152.5 332.5,-171.5 425.5,-171.5 425.5,-152.5 332.5,-152.5"/>
<text text-anchor="middle" x="379" y="-159.5" font-family="Helvetica,sans-Serif" font-size="10.00">read_declarations</text>
</a>
</g>
</g>
<!-- Node3&#45;&gt;Node4 -->
<g id="edge3" class="edge"><title>Node3&#45;&gt;Node4</title>
<path fill="none" stroke="midnightblue" d="M296.045,-187.32C312.664,-182.185 331.532,-176.356 346.972,-171.586"/>
<polygon fill="midnightblue" stroke="midnightblue" points="294.559,-184.115 286.038,-190.411 296.626,-190.803 294.559,-184.115"/>
</g>
<!-- Node5&#45;&gt;Node4 -->
<g id="edge5" class="edge"><title>Node5&#45;&gt;Node4</title>
<path fill="none" stroke="midnightblue" d="M302.879,-162C312.595,-162 322.789,-162 332.423,-162"/>
<polygon fill="midnightblue" stroke="midnightblue" points="302.572,-158.5 292.572,-162 302.572,-165.5 302.572,-158.5"/>
</g>
<!-- Node6&#45;&gt;Node4 -->
<g id="edge7" class="edge"><title>Node6&#45;&gt;Node4</title>
<path fill="none" stroke="midnightblue" d="M296.045,-136.68C312.664,-141.815 331.532,-147.644 346.972,-152.414"/>
<polygon fill="midnightblue" stroke="midnightblue" points="296.626,-133.197 286.038,-133.589 294.559,-139.885 296.626,-133.197"/>
</g>
<!-- Node6&#45;&gt;Node7 -->
<g id="edge8" class="edge"><title>Node6&#45;&gt;Node7</title>
<path fill="none" stroke="midnightblue" d="M296.045,-111.32C312.664,-106.185 331.532,-100.356 346.972,-95.5859"/>
<polygon fill="midnightblue" stroke="midnightblue" points="294.559,-108.115 286.038,-114.411 296.626,-114.803 294.559,-108.115"/>
</g>
<!-- Node8 -->
<g id="node8" class="node"><title>Node8</title>
<g id="a_node8"><a xlink:href="reader_8c.html#af6d4fba61bb761ca9fe92fef83e8ee94" target="_top" xlink:title="read_grammar">
<polygon fill="white" stroke="red" points="462.5,-38.5 462.5,-57.5 541.5,-57.5 541.5,-38.5 462.5,-38.5"/>
<text text-anchor="middle" x="502" y="-45.5" font-family="Helvetica,sans-Serif" font-size="10.00">read_grammar</text>
</a>
</g>
</g>
<!-- Node7&#45;&gt;Node8 -->
<g id="edge9" class="edge"><title>Node7&#45;&gt;Node8</title>
<path fill="none" stroke="midnightblue" d="M420.377,-73.3196C436.726,-68.1852 455.288,-62.3559 470.476,-57.5859"/>
<polygon fill="midnightblue" stroke="midnightblue" points="419.025,-70.0755 410.533,-76.411 421.123,-76.7539 419.025,-70.0755"/>
</g>
<!-- Node9&#45;&gt;Node8 -->
<g id="edge12" class="edge"><title>Node9&#45;&gt;Node8</title>
<path fill="none" stroke="midnightblue" d="M423.966,-48C436.532,-48 450.129,-48 462.351,-48"/>
<polygon fill="midnightblue" stroke="midnightblue" points="423.705,-44.5001 413.705,-48 423.705,-51.5001 423.705,-44.5001"/>
</g>
<!-- Node10&#45;&gt;Node8 -->
<g id="edge14" class="edge"><title>Node10&#45;&gt;Node8</title>
<path fill="none" stroke="midnightblue" d="M420.377,-22.6804C436.726,-27.8148 455.288,-33.6441 470.476,-38.4141"/>
<polygon fill="midnightblue" stroke="midnightblue" points="421.123,-19.2461 410.533,-19.589 419.025,-25.9245 421.123,-19.2461"/>
</g>
</g>
</svg>
