<?xml version="1.0" encoding="UTF-8" standalone="no"?>
<!DOCTYPE svg PUBLIC "-//W3C//DTD SVG 1.1//EN"
 "http://www.w3.org/Graphics/SVG/1.1/DTD/svg11.dtd">
<!-- Generated by graphviz version 2.36.0 (20140111.2315)
 -->
<!-- Title: fatal Pages: 1 -->
<svg width="374pt" height="104pt"
 viewBox="0.00 0.00 374.00 104.00" xmlns="http://www.w3.org/2000/svg" xmlns:xlink="http://www.w3.org/1999/xlink">
<g id="graph0" class="graph" transform="scale(1 1) rotate(0) translate(4 100)">
<title>fatal</title>
<polygon fill="white" stroke="none" points="-4,4 -4,-100 370,-100 370,4 -4,4"/>
<!-- Node1 -->
<g id="node1" class="node"><title>Node1</title>
<polygon fill="#bfbfbf" stroke="black" points="0.5,-38.5 0.5,-57.5 35.5,-57.5 35.5,-38.5 0.5,-38.5"/>
<text text-anchor="middle" x="18" y="-45.5" font-family="Helvetica,sans-Serif" font-size="10.00">fatal</text>
</g>
<!-- Node2 -->
<g id="node2" class="node"><title>Node2</title>
<g id="a_node2"><a xlink:href="lr0_8c.html#ae1044f1d92f94e2469b09788be4d6b09" target="_top" xlink:title="new_state">
<polygon fill="white" stroke="black" points="80,-76.5 80,-95.5 142,-95.5 142,-76.5 80,-76.5"/>
<text text-anchor="middle" x="111" y="-83.5" font-family="Helvetica,sans-Serif" font-size="10.00">new_state</text>
</a>
</g>
</g>
<!-- Node1&#45;&gt;Node2 -->
<g id="edge1" class="edge"><title>Node1&#45;&gt;Node2</title>
<path fill="none" stroke="midnightblue" d="M45.2278,-58.9523C58.5124,-64.4997 74.4858,-71.1699 87.246,-76.4983"/>
<polygon fill="midnightblue" stroke="midnightblue" points="46.2673,-55.5935 35.6908,-54.9698 43.5699,-62.0529 46.2673,-55.5935"/>
</g>
<!-- Node3 -->
<g id="node3" class="node"><title>Node3</title>
<g id="a_node3"><a xlink:href="output_8c.html#a0bb10d48c7349f5223563cafe2d47cee" target="_top" xlink:title="pack_vector">
<polygon fill="white" stroke="black" points="76,-38.5 76,-57.5 146,-57.5 146,-38.5 76,-38.5"/>
<text text-anchor="middle" x="111" y="-45.5" font-family="Helvetica,sans-Serif" font-size="10.00">pack_vector</text>
</a>
</g>
</g>
<!-- Node1&#45;&gt;Node3 -->
<g id="edge2" class="edge"><title>Node1&#45;&gt;Node3</title>
<path fill="none" stroke="midnightblue" d="M45.9453,-48C55.2741,-48 65.8586,-48 75.6981,-48"/>
<polygon fill="midnightblue" stroke="midnightblue" points="45.6908,-44.5001 35.6908,-48 45.6908,-51.5001 45.6908,-44.5001"/>
</g>
<!-- Node6 -->
<g id="node6" class="node"><title>Node6</title>
<g id="a_node6"><a xlink:href="lalr_8c.html#ae8c3ccdf05c8529dad837c3a51a13fbd" target="_top" xlink:title="set_goto_map">
<polygon fill="white" stroke="black" points="72,-0.5 72,-19.5 150,-19.5 150,-0.5 72,-0.5"/>
<text text-anchor="middle" x="111" y="-7.5" font-family="Helvetica,sans-Serif" font-size="10.00">set_goto_map</text>
</a>
</g>
</g>
<!-- Node1&#45;&gt;Node6 -->
<g id="edge5" class="edge"><title>Node1&#45;&gt;Node6</title>
<path fill="none" stroke="midnightblue" d="M45.2278,-37.0477C58.5124,-31.5003 74.4858,-24.8301 87.246,-19.5017"/>
<polygon fill="midnightblue" stroke="midnightblue" points="43.5699,-33.9471 35.6908,-41.0302 46.2673,-40.4065 43.5699,-33.9471"/>
</g>
<!-- Node4 -->
<g id="node4" class="node"><title>Node4</title>
<g id="a_node4"><a xlink:href="output_8c.html#a54964cb539071e5e6280a37aea70ca3d" target="_top" xlink:title="pack_table">
<polygon fill="white" stroke="black" points="186,-38.5 186,-57.5 250,-57.5 250,-38.5 186,-38.5"/>
<text text-anchor="middle" x="218" y="-45.5" font-family="Helvetica,sans-Serif" font-size="10.00">pack_table</text>
</a>
</g>
</g>
<!-- Node3&#45;&gt;Node4 -->
<g id="edge3" class="edge"><title>Node3&#45;&gt;Node4</title>
<path fill="none" stroke="midnightblue" d="M156.274,-48C166.246,-48 176.625,-48 185.922,-48"/>
<polygon fill="midnightblue" stroke="midnightblue" points="156.091,-44.5001 146.09,-48 156.09,-51.5001 156.091,-44.5001"/>
</g>
<!-- Node5 -->
<g id="node5" class="node"><title>Node5</title>
<g id="a_node5"><a xlink:href="output_8c.html#aeefacc88e584337cfc3508c372fb453e" target="_top" xlink:title="output_actions">
<polygon fill="white" stroke="red" points="286,-38.5 286,-57.5 366,-57.5 366,-38.5 286,-38.5"/>
<text text-anchor="middle" x="326" y="-45.5" font-family="Helvetica,sans-Serif" font-size="10.00">output_actions</text>
</a>
</g>
</g>
<!-- Node4&#45;&gt;Node5 -->
<g id="edge4" class="edge"><title>Node4&#45;&gt;Node5</title>
<path fill="none" stroke="midnightblue" d="M260.472,-48C268.778,-48 277.48,-48 285.708,-48"/>
<polygon fill="midnightblue" stroke="midnightblue" points="260.23,-44.5001 250.23,-48 260.23,-51.5001 260.23,-44.5001"/>
</g>
<!-- Node7 -->
<g id="node7" class="node"><title>Node7</title>
<g id="a_node7"><a xlink:href="lalr_8c.html#aa70d90188d9b76b70e29c8f7e19dc92f" target="_top" xlink:title="lalr">
<polygon fill="white" stroke="black" points="203.5,-0.5 203.5,-19.5 232.5,-19.5 232.5,-0.5 203.5,-0.5"/>
<text text-anchor="middle" x="218" y="-7.5" font-family="Helvetica,sans-Serif" font-size="10.00">lalr</text>
</a>
</g>
</g>
<!-- Node6&#45;&gt;Node7 -->
<g id="edge6" class="edge"><title>Node6&#45;&gt;Node7</title>
<path fill="none" stroke="midnightblue" d="M160.383,-10C176.07,-10 192.25,-10 203.275,-10"/>
<polygon fill="midnightblue" stroke="midnightblue" points="160.204,-6.5001 150.204,-10 160.204,-13.5001 160.204,-6.5001"/>
</g>
<!-- Node8 -->
<g id="node8" class="node"><title>Node8</title>
<g id="a_node8"><a xlink:href="main_8c.html#afced8478b91af5c169926dfa4426333d" target="_top" xlink:title="main">
<polygon fill="white" stroke="black" points="307,-0.5 307,-19.5 345,-19.5 345,-0.5 307,-0.5"/>
<text text-anchor="middle" x="326" y="-7.5" font-family="Helvetica,sans-Serif" font-size="10.00">main</text>
</a>
</g>
</g>
<!-- Node7&#45;&gt;Node8 -->
<g id="edge7" class="edge"><title>Node7&#45;&gt;Node8</title>
<path fill="none" stroke="midnightblue" d="M243.018,-10C262.406,-10 289.265,-10 306.88,-10"/>
<polygon fill="midnightblue" stroke="midnightblue" points="242.858,-6.5001 232.858,-10 242.858,-13.5001 242.858,-6.5001"/>
</g>
</g>
</svg>
