<?xml version="1.0" encoding="UTF-8" standalone="no"?>
<!DOCTYPE svg PUBLIC "-//W3C//DTD SVG 1.1//EN"
 "http://www.w3.org/Graphics/SVG/1.1/DTD/svg11.dtd">
<!-- Generated by graphviz version 2.36.0 (20140111.2315)
 -->
<!-- Title: no_space Pages: 1 -->
<!--zoomable 826 -->
<svg id="main" version="1.1" xmlns="http://www.w3.org/2000/svg" xmlns:xlink="http://www.w3.org/1999/xlink" xml:space="preserve" onload="init(evt)">
<style type="text/css"><![CDATA[
.edge:hover path { stroke: red; }
.edge:hover polygon { stroke: red; fill: red; }
]]></style>
<script type="text/javascript"><![CDATA[
var edges = document.getElementsByTagName('g');
if (edges && edges.length) {
  for (var i=0;i<edges.length;i++) {
    if (edges[i].id.substr(0,4)=='edge') {
      edges[i].setAttribute('class','edge');
    }
  }
}
]]></script>
        <defs>
                <circle id="rim" cx="0" cy="0" r="7"/>
                <circle id="rim2" cx="0" cy="0" r="3.5"/>
                <g id="zoomPlus">
                        <use xlink:href="#rim" fill="#404040">
                                <set attributeName="fill" to="#808080" begin="zoomplus.mouseover" end="zoomplus.mouseout"/>
                        </use>
                        <path d="M-4,0h8M0,-4v8" fill="none" stroke="white" stroke-width="1.5" pointer-events="none"/>
                </g>
                <g id="zoomMin">
                        <use xlink:href="#rim" fill="#404040">
                                <set attributeName="fill" to="#808080" begin="zoomminus.mouseover" end="zoomminus.mouseout"/>
                        </use>
                        <path d="M-4,0h8" fill="none" stroke="white" stroke-width="1.5" pointer-events="none"/>
                </g>
                <g id="dirArrow">
                        <path fill="none" stroke="white" stroke-width="1.5" d="M0,-3.0v7 M-2.5,-0.5L0,-3.0L2.5,-0.5"/>
                </g>
               <g id="resetDef">
                       <use xlink:href="#rim2" fill="#404040">
                               <set attributeName="fill" to="#808080" begin="reset.mouseover" end="reset.mouseout"/>
                       </use>
               </g>
        </defs>

<script type="text/javascript">
var viewWidth = 474;
var viewHeight = 826;
var sectionId = 'dynsection-14';
</script>
<script xlink:href="svgpan.js"/>
<svg id="graph" class="graph">
<g id="viewport">
<title>no_space</title>
<polygon fill="white" stroke="none" points="-4,4 -4,-822 470,-822 470,4 -4,4"/>
<!-- Node1 -->
<g id="node1" class="node"><title>Node1</title>
<polygon fill="#bfbfbf" stroke="black" points="0.5,-399.5 0.5,-418.5 59.5,-418.5 59.5,-399.5 0.5,-399.5"/>
<text text-anchor="middle" x="30" y="-406.5" font-family="Helvetica,sans-Serif" font-size="10.00">no_space</text>
</g>
<!-- Node2 -->
<g id="node2" class="node"><title>Node2</title>
<g id="a_node2"><a xlink:href="main_8c.html#af2aa58a9844ff8871f3b2ac54ad7b656" target="_top" xlink:title="allocate">
<polygon fill="white" stroke="black" points="119,-798.5 119,-817.5 169,-817.5 169,-798.5 119,-798.5"/>
<text text-anchor="middle" x="144" y="-805.5" font-family="Helvetica,sans-Serif" font-size="10.00">allocate</text>
</a>
</g>
</g>
<!-- Node1&#45;&gt;Node2 -->
<g id="edge1" class="edge"><title>Node1&#45;&gt;Node2</title>
<path fill="none" stroke="midnightblue" d="M32.1354,-428.939C36.4192,-498.076 53.5682,-726.429 96,-784 101.653,-791.67 110.47,-797.069 118.947,-800.777"/>
<polygon fill="midnightblue" stroke="midnightblue" points="35.6081,-428.376 31.5187,-418.602 28.6206,-428.793 35.6081,-428.376"/>
</g>
<!-- Node3 -->
<g id="node3" class="node"><title>Node3</title>
<g id="a_node3"><a xlink:href="reader_8c.html#a04707e6fc9527eaf37d68dafdc9483a9" target="_top" xlink:title="cachec">
<polygon fill="white" stroke="black" points="120,-722.5 120,-741.5 168,-741.5 168,-722.5 120,-722.5"/>
<text text-anchor="middle" x="144" y="-729.5" font-family="Helvetica,sans-Serif" font-size="10.00">cachec</text>
</a>
</g>
</g>
<!-- Node1&#45;&gt;Node3 -->
<g id="edge2" class="edge"><title>Node1&#45;&gt;Node3</title>
<path fill="none" stroke="midnightblue" d="M33.1106,-429.008C39.735,-488.598 61.7338,-663.516 96,-708 101.927,-715.694 111.003,-721.131 119.605,-724.861"/>
<polygon fill="midnightblue" stroke="midnightblue" points="36.5505,-428.264 31.9916,-418.701 29.5914,-429.02 36.5505,-428.264"/>
</g>
<!-- Node5 -->
<g id="node5" class="node"><title>Node5</title>
<g id="a_node5"><a xlink:href="reader_8c.html#a07addfee5457e48ddb310769dd0e39af" target="_top" xlink:title="read_declarations">
<polygon fill="white" stroke="red" points="372.5,-741.5 372.5,-760.5 465.5,-760.5 465.5,-741.5 372.5,-741.5"/>
<text text-anchor="middle" x="419" y="-748.5" font-family="Helvetica,sans-Serif" font-size="10.00">read_declarations</text>
</a>
</g>
</g>
<!-- Node1&#45;&gt;Node5 -->
<g id="edge28" class="edge"><title>Node1&#45;&gt;Node5</title>
<path fill="none" stroke="midnightblue" d="M31.5982,-428.824C34.0642,-495.45 45.8296,-709.467 96,-751 136.801,-784.777 293.636,-768.548 372.364,-757.838"/>
<polygon fill="midnightblue" stroke="midnightblue" points="35.0954,-428.678 31.258,-418.802 28.0994,-428.915 35.0954,-428.678"/>
</g>
<!-- Node6 -->
<g id="node6" class="node"><title>Node6</title>
<g id="a_node6"><a xlink:href="reader_8c.html#acfb64f081b0d9c4536e90c5352ce9c2c" target="_top" xlink:title="get_literal">
<polygon fill="white" stroke="red" points="252.5,-646.5 252.5,-665.5 311.5,-665.5 311.5,-646.5 252.5,-646.5"/>
<text text-anchor="middle" x="282" y="-653.5" font-family="Helvetica,sans-Serif" font-size="10.00">get_literal</text>
</a>
</g>
</g>
<!-- Node1&#45;&gt;Node6 -->
<g id="edge17" class="edge"><title>Node1&#45;&gt;Node6</title>
<path fill="none" stroke="midnightblue" d="M32.7364,-428.669C38.1453,-484.882 56.7318,-644.172 96,-675 119.618,-693.542 206.576,-675.11 252.366,-663.644"/>
<polygon fill="midnightblue" stroke="midnightblue" points="36.2108,-428.229 31.8037,-418.594 29.2406,-428.874 36.2108,-428.229"/>
</g>
<!-- Node8 -->
<g id="node8" class="node"><title>Node8</title>
<g id="a_node8"><a xlink:href="reader_8c.html#a0d5a7fe7641edf38078ba5e99536772d" target="_top" xlink:title="get_tag">
<polygon fill="white" stroke="red" points="257.5,-608.5 257.5,-627.5 306.5,-627.5 306.5,-608.5 257.5,-608.5"/>
<text text-anchor="middle" x="282" y="-615.5" font-family="Helvetica,sans-Serif" font-size="10.00">get_tag</text>
</a>
</g>
</g>
<!-- Node1&#45;&gt;Node8 -->
<g id="edge18" class="edge"><title>Node1&#45;&gt;Node8</title>
<path fill="none" stroke="midnightblue" d="M34.0156,-428.837C39.9759,-461.188 56.3065,-525.278 96,-561 120.107,-582.695 213.014,-604.075 257.282,-613.285"/>
<polygon fill="midnightblue" stroke="midnightblue" points="37.4392,-428.091 32.3185,-418.816 30.5374,-429.26 37.4392,-428.091"/>
</g>
<!-- Node9 -->
<g id="node9" class="node"><title>Node9</title>
<g id="a_node9"><a xlink:href="main_8c.html#a8424435403fe377f38d43b7bdda78ac3" target="_top" xlink:title="create_file_names">
<polygon fill="white" stroke="red" points="96,-532.5 96,-551.5 192,-551.5 192,-532.5 96,-532.5"/>
<text text-anchor="middle" x="144" y="-539.5" font-family="Helvetica,sans-Serif" font-size="10.00">create_file_names</text>
</a>
</g>
</g>
<!-- Node1&#45;&gt;Node9 -->
<g id="edge8" class="edge"><title>Node1&#45;&gt;Node9</title>
<path fill="none" stroke="midnightblue" d="M38.3845,-427.942C48.3954,-451.573 68.2621,-492.024 96,-518 102.286,-523.887 110.293,-528.686 117.909,-532.403"/>
<polygon fill="midnightblue" stroke="midnightblue" points="41.6143,-426.593 34.5941,-418.658 35.1336,-429.239 41.6143,-426.593"/>
</g>
<!-- Node10 -->
<g id="node10" class="node"><title>Node10</title>
<g id="a_node10"><a xlink:href="symtab_8c.html#aeeef4e0a9c6733adb569531e181de719" target="_top" xlink:title="create_symbol_table">
<polygon fill="white" stroke="red" points="228.5,-475.5 228.5,-494.5 335.5,-494.5 335.5,-475.5 228.5,-475.5"/>
<text text-anchor="middle" x="282" y="-482.5" font-family="Helvetica,sans-Serif" font-size="10.00">create_symbol_table</text>
</a>
</g>
</g>
<!-- Node1&#45;&gt;Node10 -->
<g id="edge9" class="edge"><title>Node1&#45;&gt;Node10</title>
<path fill="none" stroke="midnightblue" d="M40.5415,-427.489C51.2329,-445.957 70.4686,-473.24 96,-485 141.655,-506.028 200.628,-501.346 239.574,-494.53"/>
<polygon fill="midnightblue" stroke="midnightblue" points="43.5006,-425.607 35.618,-418.528 37.3655,-428.977 43.5006,-425.607"/>
</g>
<!-- Node11 -->
<g id="node11" class="node"><title>Node11</title>
<g id="a_node11"><a xlink:href="reader_8c.html#a416a4e795e86e5666f1a734793f9636e" target="_top" xlink:title="dup_line">
<polygon fill="white" stroke="red" points="117.5,-608.5 117.5,-627.5 170.5,-627.5 170.5,-608.5 117.5,-608.5"/>
<text text-anchor="middle" x="144" y="-615.5" font-family="Helvetica,sans-Serif" font-size="10.00">dup_line</text>
</a>
</g>
</g>
<!-- Node1&#45;&gt;Node11 -->
<g id="edge10" class="edge"><title>Node1&#45;&gt;Node11</title>
<path fill="none" stroke="midnightblue" d="M33.1447,-429.083C38.0411,-465.912 53.1434,-544.966 96,-594 101.668,-600.485 109.51,-605.443 117.166,-609.121"/>
<polygon fill="midnightblue" stroke="midnightblue" points="36.5647,-428.209 31.8913,-418.701 29.6152,-429.048 36.5647,-428.209"/>
</g>
<!-- Node12 -->
<g id="node12" class="node"><title>Node12</title>
<g id="a_node12"><a xlink:href="reader_8c.html#a2d5a55a1a526ac853c3234ea51ee18f8" target="_top" xlink:title="expand_items">
<polygon fill="white" stroke="red" points="105.5,-418.5 105.5,-437.5 182.5,-437.5 182.5,-418.5 105.5,-418.5"/>
<text text-anchor="middle" x="144" y="-425.5" font-family="Helvetica,sans-Serif" font-size="10.00">expand_items</text>
</a>
</g>
</g>
<!-- Node1&#45;&gt;Node12 -->
<g id="edge13" class="edge"><title>Node1&#45;&gt;Node12</title>
<path fill="none" stroke="midnightblue" d="M69.7325,-415.571C81.2154,-417.519 93.772,-419.649 105.195,-421.587"/>
<polygon fill="midnightblue" stroke="midnightblue" points="69.9967,-412.066 59.5521,-413.844 68.8258,-418.967 69.9967,-412.066"/>
</g>
<!-- Node13 -->
<g id="node13" class="node"><title>Node13</title>
<g id="a_node13"><a xlink:href="reader_8c.html#a26f803a6175f255b34b89151133c51f6" target="_top" xlink:title="expand_rules">
<polygon fill="white" stroke="red" points="107,-380.5 107,-399.5 181,-399.5 181,-380.5 107,-380.5"/>
<text text-anchor="middle" x="144" y="-387.5" font-family="Helvetica,sans-Serif" font-size="10.00">expand_rules</text>
</a>
</g>
</g>
<!-- Node1&#45;&gt;Node13 -->
<g id="edge14" class="edge"><title>Node1&#45;&gt;Node13</title>
<path fill="none" stroke="midnightblue" d="M69.7621,-402.424C81.7977,-400.383 95.0105,-398.141 106.86,-396.131"/>
<polygon fill="midnightblue" stroke="midnightblue" points="68.8258,-399.033 59.5521,-404.156 69.9967,-405.934 68.8258,-399.033"/>
</g>
<!-- Node14 -->
<g id="node14" class="node"><title>Node14</title>
<g id="a_node14"><a xlink:href="reader_8c.html#a204317aa3b6d154f1abff12df35953df" target="_top" xlink:title="get_line">
<polygon fill="white" stroke="red" points="119,-646.5 119,-665.5 169,-665.5 169,-646.5 119,-646.5"/>
<text text-anchor="middle" x="144" y="-653.5" font-family="Helvetica,sans-Serif" font-size="10.00">get_line</text>
</a>
</g>
</g>
<!-- Node1&#45;&gt;Node14 -->
<g id="edge15" class="edge"><title>Node1&#45;&gt;Node14</title>
<path fill="none" stroke="midnightblue" d="M31.0849,-428.686C32.3218,-471.892 41.1898,-576.021 96,-637 102.001,-643.677 110.682,-648.049 118.953,-650.894"/>
<polygon fill="midnightblue" stroke="midnightblue" points="34.5836,-428.574 30.9088,-418.637 27.5847,-428.697 34.5836,-428.574"/>
</g>
<!-- Node15 -->
<g id="node15" class="node"><title>Node15</title>
<g id="a_node15"><a xlink:href="reader_8c.html#a329c5f0f613a0bef43be8262a531e952" target="_top" xlink:title="initialize_grammar">
<polygon fill="white" stroke="red" points="96.5,-342.5 96.5,-361.5 191.5,-361.5 191.5,-342.5 96.5,-342.5"/>
<text text-anchor="middle" x="144" y="-349.5" font-family="Helvetica,sans-Serif" font-size="10.00">initialize_grammar</text>
</a>
</g>
</g>
<!-- Node1&#45;&gt;Node15 -->
<g id="edge19" class="edge"><title>Node1&#45;&gt;Node15</title>
<path fill="none" stroke="midnightblue" d="M54.523,-394.137C66.6758,-386.746 81.8824,-377.935 96,-371 102.794,-367.663 110.327,-364.424 117.336,-361.593"/>
<polygon fill="midnightblue" stroke="midnightblue" points="52.5685,-391.23 45.8934,-399.458 56.2424,-397.189 52.5685,-391.23"/>
</g>
<!-- Node16 -->
<g id="node16" class="node"><title>Node16</title>
<g id="a_node16"><a xlink:href="lr0_8c.html#a4a4e3e94f2e9df0df4826edfaa275d47" target="_top" xlink:title="initialize_states">
<polygon fill="white" stroke="red" points="102,-304.5 102,-323.5 186,-323.5 186,-304.5 102,-304.5"/>
<text text-anchor="middle" x="144" y="-311.5" font-family="Helvetica,sans-Serif" font-size="10.00">initialize_states</text>
</a>
</g>
</g>
<!-- Node1&#45;&gt;Node16 -->
<g id="edge20" class="edge"><title>Node1&#45;&gt;Node16</title>
<path fill="none" stroke="midnightblue" d="M42.7311,-390.816C54.455,-373.878 73.8828,-348.914 96,-333 101.144,-329.299 107.112,-326.177 113.034,-323.601"/>
<polygon fill="midnightblue" stroke="midnightblue" points="39.7094,-389.037 37.0423,-399.291 45.5215,-392.939 39.7094,-389.037"/>
</g>
<!-- Node17 -->
<g id="node17" class="node"><title>Node17</title>
<g id="a_node17"><a xlink:href="symtab_8c.html#aa9c886d3ff3a8214ae40b7bf98ad7dd4" target="_top" xlink:title="make_bucket">
<polygon fill="white" stroke="red" points="106.5,-456.5 106.5,-475.5 181.5,-475.5 181.5,-456.5 106.5,-456.5"/>
<text text-anchor="middle" x="144" y="-463.5" font-family="Helvetica,sans-Serif" font-size="10.00">make_bucket</text>
</a>
</g>
</g>
<!-- Node1&#45;&gt;Node17 -->
<g id="edge21" class="edge"><title>Node1&#45;&gt;Node17</title>
<path fill="none" stroke="midnightblue" d="M54.523,-423.863C66.6758,-431.254 81.8824,-440.065 96,-447 102.794,-450.337 110.327,-453.576 117.336,-456.407"/>
<polygon fill="midnightblue" stroke="midnightblue" points="56.2424,-420.811 45.8934,-418.542 52.5685,-426.77 56.2424,-420.811"/>
</g>
<!-- Node18 -->
<g id="node18" class="node"><title>Node18</title>
<g id="a_node18"><a xlink:href="output_8c.html#a47dee73a8684c92137c4358133450a88" target="_top" xlink:title="output_debug">
<polygon fill="white" stroke="red" points="106.5,-266.5 106.5,-285.5 181.5,-285.5 181.5,-266.5 106.5,-266.5"/>
<text text-anchor="middle" x="144" y="-273.5" font-family="Helvetica,sans-Serif" font-size="10.00">output_debug</text>
</a>
</g>
</g>
<!-- Node1&#45;&gt;Node18 -->
<g id="edge23" class="edge"><title>Node1&#45;&gt;Node18</title>
<path fill="none" stroke="midnightblue" d="M37.3889,-389.865C46.6304,-364.878 65.9831,-321.241 96,-295 100.373,-291.177 105.616,-288.062 110.988,-285.545"/>
<polygon fill="midnightblue" stroke="midnightblue" points="34.0772,-388.732 34.0456,-399.327 40.6773,-391.064 34.0772,-388.732"/>
</g>
<!-- Node19 -->
<g id="node19" class="node"><title>Node19</title>
<g id="a_node19"><a xlink:href="reader_8c.html#ac095dad6352a9764b63b751824aa223d" target="_top" xlink:title="pack_grammar">
<polygon fill="white" stroke="red" points="103.5,-228.5 103.5,-247.5 184.5,-247.5 184.5,-228.5 103.5,-228.5"/>
<text text-anchor="middle" x="144" y="-235.5" font-family="Helvetica,sans-Serif" font-size="10.00">pack_grammar</text>
</a>
</g>
</g>
<!-- Node1&#45;&gt;Node19 -->
<g id="edge24" class="edge"><title>Node1&#45;&gt;Node19</title>
<path fill="none" stroke="midnightblue" d="M34.3646,-389.535C40.8277,-357.719 57.8655,-294.382 96,-257 99.8968,-253.18 104.663,-250.096 109.649,-247.615"/>
<polygon fill="midnightblue" stroke="midnightblue" points="30.922,-388.904 32.5023,-399.38 37.8001,-390.205 30.922,-388.904"/>
</g>
<!-- Node20 -->
<g id="node20" class="node"><title>Node20</title>
<g id="a_node20"><a xlink:href="reader_8c.html#a9f8a3fd57d7687e5e2fe6b548fee5bc5" target="_top" xlink:title="pack_names">
<polygon fill="white" stroke="red" points="108,-190.5 108,-209.5 180,-209.5 180,-190.5 108,-190.5"/>
<text text-anchor="middle" x="144" y="-197.5" font-family="Helvetica,sans-Serif" font-size="10.00">pack_names</text>
</a>
</g>
</g>
<!-- Node1&#45;&gt;Node20 -->
<g id="edge25" class="edge"><title>Node1&#45;&gt;Node20</title>
<path fill="none" stroke="midnightblue" d="M32.4649,-389.038C36.2812,-351.065 49.7295,-267.866 96,-219 99.6308,-215.166 104.142,-212.085 108.92,-209.615"/>
<polygon fill="midnightblue" stroke="midnightblue" points="28.9535,-389.015 31.5641,-399.283 35.9266,-389.628 28.9535,-389.015"/>
</g>
<!-- Node21 -->
<g id="node21" class="node"><title>Node21</title>
<g id="a_node21"><a xlink:href="reader_8c.html#ad4d46b52f342745925534555eb129ffb" target="_top" xlink:title="pack_symbols">
<polygon fill="white" stroke="red" points="104,-152.5 104,-171.5 184,-171.5 184,-152.5 104,-152.5"/>
<text text-anchor="middle" x="144" y="-159.5" font-family="Helvetica,sans-Serif" font-size="10.00">pack_symbols</text>
</a>
</g>
</g>
<!-- Node1&#45;&gt;Node21 -->
<g id="edge26" class="edge"><title>Node1&#45;&gt;Node21</title>
<path fill="none" stroke="midnightblue" d="M31.0849,-389.314C32.3218,-346.108 41.1898,-241.979 96,-181 99.4124,-177.204 103.691,-174.152 108.268,-171.703"/>
<polygon fill="midnightblue" stroke="midnightblue" points="27.5847,-389.303 30.9088,-399.363 34.5836,-389.426 27.5847,-389.303"/>
</g>
<!-- Node22 -->
<g id="node22" class="node"><title>Node22</title>
<g id="a_node22"><a xlink:href="output_8c.html#a0bb10d48c7349f5223563cafe2d47cee" target="_top" xlink:title="pack_vector">
<polygon fill="white" stroke="red" points="109,-114.5 109,-133.5 179,-133.5 179,-114.5 109,-114.5"/>
<text text-anchor="middle" x="144" y="-121.5" font-family="Helvetica,sans-Serif" font-size="10.00">pack_vector</text>
</a>
</g>
</g>
<!-- Node1&#45;&gt;Node22 -->
<g id="edge27" class="edge"><title>Node1&#45;&gt;Node22</title>
<path fill="none" stroke="midnightblue" d="M33.4689,-389.292C40.7152,-334.274 63.48,-180.595 96,-143 99.4547,-139.006 103.872,-135.841 108.61,-133.335"/>
<polygon fill="midnightblue" stroke="midnightblue" points="29.9657,-389.093 32.1602,-399.458 36.9084,-389.987 29.9657,-389.093"/>
</g>
<!-- Node23 -->
<g id="node23" class="node"><title>Node23</title>
<g id="a_node23"><a xlink:href="lr0_8c.html#a13b7dc617c6f314880ce2338dac35568" target="_top" xlink:title="set_nullable">
<polygon fill="white" stroke="red" points="110,-76.5 110,-95.5 178,-95.5 178,-76.5 110,-76.5"/>
<text text-anchor="middle" x="144" y="-83.5" font-family="Helvetica,sans-Serif" font-size="10.00">set_nullable</text>
</a>
</g>
</g>
<!-- Node1&#45;&gt;Node23 -->
<g id="edge29" class="edge"><title>Node1&#45;&gt;Node23</title>
<path fill="none" stroke="midnightblue" d="M32.8131,-389.298C38.7143,-329.076 59.1498,-148.871 96,-105 99.7361,-100.552 104.67,-97.1347 109.935,-94.5122"/>
<polygon fill="midnightblue" stroke="midnightblue" points="29.317,-389.091 31.8527,-399.378 36.2854,-389.755 29.317,-389.091"/>
</g>
<!-- Node24 -->
<g id="node24" class="node"><title>Node24</title>
<g id="a_node24"><a xlink:href="mkpar_8c.html#a00b425b13b9daa8d3e647ea34588b411" target="_top" xlink:title="unused_rules">
<polygon fill="white" stroke="red" points="107,-38.5 107,-57.5 181,-57.5 181,-38.5 107,-38.5"/>
<text text-anchor="middle" x="144" y="-45.5" font-family="Helvetica,sans-Serif" font-size="10.00">unused_rules</text>
</a>
</g>
</g>
<!-- Node1&#45;&gt;Node24 -->
<g id="edge30" class="edge"><title>Node1&#45;&gt;Node24</title>
<path fill="none" stroke="midnightblue" d="M32.3212,-389.006C37.0148,-323.57 54.857,-117.133 96,-67 99.1267,-63.1901 103.135,-60.1378 107.488,-57.694"/>
<polygon fill="midnightblue" stroke="midnightblue" points="28.8144,-388.986 31.6158,-399.204 35.7977,-389.469 28.8144,-388.986"/>
</g>
<!-- Node25 -->
<g id="node25" class="node"><title>Node25</title>
<g id="a_node25"><a xlink:href="verbose_8c.html#a51c39b5f33bea9632e037e0b94fa0db8" target="_top" xlink:title="verbose">
<polygon fill="white" stroke="red" points="118.5,-0.5 118.5,-19.5 169.5,-19.5 169.5,-0.5 118.5,-0.5"/>
<text text-anchor="middle" x="144" y="-7.5" font-family="Helvetica,sans-Serif" font-size="10.00">verbose</text>
</a>
</g>
</g>
<!-- Node1&#45;&gt;Node25 -->
<g id="edge31" class="edge"><title>Node1&#45;&gt;Node25</title>
<path fill="none" stroke="midnightblue" d="M31.8982,-389.093C35.4279,-319.106 50.4653,-85.5374 96,-29 101.521,-22.1454 109.9,-17.7468 118.062,-14.9314"/>
<polygon fill="midnightblue" stroke="midnightblue" points="28.3966,-389.046 31.4125,-399.202 35.3885,-389.382 28.3966,-389.046"/>
</g>
<!-- Node4 -->
<g id="node4" class="node"><title>Node4</title>
<g id="a_node4"><a xlink:href="reader_8c.html#a7b9f905e2f933d429fa1b479fd058f03" target="_top" xlink:title="keyword">
<polygon fill="white" stroke="red" points="255.5,-722.5 255.5,-741.5 308.5,-741.5 308.5,-722.5 255.5,-722.5"/>
<text text-anchor="middle" x="282" y="-729.5" font-family="Helvetica,sans-Serif" font-size="10.00">keyword</text>
</a>
</g>
</g>
<!-- Node3&#45;&gt;Node4 -->
<g id="edge3" class="edge"><title>Node3&#45;&gt;Node4</title>
<path fill="none" stroke="midnightblue" d="M178.079,-732C201.917,-732 233.611,-732 255.499,-732"/>
<polygon fill="midnightblue" stroke="midnightblue" points="178.071,-728.5 168.071,-732 178.071,-735.5 178.071,-728.5"/>
</g>
<!-- Node3&#45;&gt;Node6 -->
<g id="edge5" class="edge"><title>Node3&#45;&gt;Node6</title>
<path fill="none" stroke="midnightblue" d="M175.876,-717.747C181.399,-714.777 186.986,-711.482 192,-708 209.827,-695.619 209.418,-686.217 228,-675 235.448,-670.504 244.123,-666.838 252.272,-663.968"/>
<polygon fill="midnightblue" stroke="midnightblue" points="174.063,-714.743 166.755,-722.413 177.252,-720.975 174.063,-714.743"/>
</g>
<!-- Node7 -->
<g id="node7" class="node"><title>Node7</title>
<g id="a_node7"><a xlink:href="reader_8c.html#a47f6ab5db224a190b33568ed55a03eaf" target="_top" xlink:title="get_name">
<polygon fill="white" stroke="red" points="252.5,-684.5 252.5,-703.5 311.5,-703.5 311.5,-684.5 252.5,-684.5"/>
<text text-anchor="middle" x="282" y="-691.5" font-family="Helvetica,sans-Serif" font-size="10.00">get_name</text>
</a>
</g>
</g>
<!-- Node3&#45;&gt;Node7 -->
<g id="edge6" class="edge"><title>Node3&#45;&gt;Node7</title>
<path fill="none" stroke="midnightblue" d="M177.923,-722.801C200.582,-716.47 230.397,-708.139 252.129,-702.067"/>
<polygon fill="midnightblue" stroke="midnightblue" points="176.76,-719.492 168.071,-725.554 178.644,-726.234 176.76,-719.492"/>
</g>
<!-- Node3&#45;&gt;Node8 -->
<g id="edge7" class="edge"><title>Node3&#45;&gt;Node8</title>
<path fill="none" stroke="midnightblue" d="M159.597,-714.346C181.127,-688.454 219.75,-642.626 228,-637 236.803,-630.998 247.718,-626.662 257.35,-623.662"/>
<polygon fill="midnightblue" stroke="midnightblue" points="156.71,-712.344 153.019,-722.276 162.097,-716.814 156.71,-712.344"/>
</g>
<!-- Node4&#45;&gt;Node5 -->
<g id="edge4" class="edge"><title>Node4&#45;&gt;Node5</title>
<path fill="none" stroke="midnightblue" d="M318.976,-737.063C335.387,-739.373 355.004,-742.134 372.433,-744.587"/>
<polygon fill="midnightblue" stroke="midnightblue" points="319.1,-733.546 308.71,-735.618 318.125,-740.478 319.1,-733.546"/>
</g>
<!-- Node11&#45;&gt;Node6 -->
<g id="edge11" class="edge"><title>Node11&#45;&gt;Node6</title>
<path fill="none" stroke="midnightblue" d="M180.372,-627.883C202.736,-634.132 231.27,-642.105 252.238,-647.964"/>
<polygon fill="midnightblue" stroke="midnightblue" points="181.154,-624.468 170.581,-625.148 179.27,-631.21 181.154,-624.468"/>
</g>
<!-- Node11&#45;&gt;Node8 -->
<g id="edge12" class="edge"><title>Node11&#45;&gt;Node8</title>
<path fill="none" stroke="midnightblue" d="M180.797,-618C204.982,-618 236.232,-618 257.354,-618"/>
<polygon fill="midnightblue" stroke="midnightblue" points="180.581,-614.5 170.581,-618 180.581,-621.5 180.581,-614.5"/>
</g>
<!-- Node14&#45;&gt;Node6 -->
<g id="edge16" class="edge"><title>Node14&#45;&gt;Node6</title>
<path fill="none" stroke="midnightblue" d="M179.122,-656C201.596,-656 230.7,-656 252.043,-656"/>
<polygon fill="midnightblue" stroke="midnightblue" points="179.001,-652.5 169.001,-656 179.001,-659.5 179.001,-652.5"/>
</g>
<!-- Node17&#45;&gt;Node10 -->
<g id="edge22" class="edge"><title>Node17&#45;&gt;Node10</title>
<path fill="none" stroke="midnightblue" d="M191.857,-472.546C203.618,-474.189 216.315,-475.963 228.338,-477.643"/>
<polygon fill="midnightblue" stroke="midnightblue" points="192.192,-469.059 181.804,-471.142 191.223,-475.992 192.192,-469.059"/>
</g>
</g>
</svg>
        <g id="navigator" transform="translate(0 0)" fill="#404254">
                <rect fill="#f2f5e9" fill-opacity="0.5" stroke="#606060" stroke-width=".5" x="0" y="0" width="60" height="60"/>
                <use id="zoomplus" xlink:href="#zoomPlus" x="17" y="9" onmousedown="handleZoom(evt,'in')"/>
                <use id="zoomminus" xlink:href="#zoomMin" x="42" y="9" onmousedown="handleZoom(evt,'out')"/>
                <use id="reset" xlink:href="#resetDef" x="30" y="36" onmousedown="handleReset()"/>
                <g id="arrowUp" xlink:href="#dirArrow" transform="translate(30 24)" onmousedown="handlePan(0,-1)">
                  <use xlink:href="#rim" fill="#404040">
                        <set attributeName="fill" to="#808080" begin="arrowUp.mouseover" end="arrowUp.mouseout"/>
                  </use>
                  <path fill="none" stroke="white" stroke-width="1.5" d="M0,-3.0v7 M-2.5,-0.5L0,-3.0L2.5,-0.5"/>
                </g>
                <g id="arrowRight" xlink:href="#dirArrow" transform="rotate(90) translate(36 -43)" onmousedown="handlePan(1,0)">
                  <use xlink:href="#rim" fill="#404040">
                        <set attributeName="fill" to="#808080" begin="arrowRight.mouseover" end="arrowRight.mouseout"/>
                  </use>
                  <path fill="none" stroke="white" stroke-width="1.5" d="M0,-3.0v7 M-2.5,-0.5L0,-3.0L2.5,-0.5"/>
                </g>
                <g id="arrowDown" xlink:href="#dirArrow" transform="rotate(180) translate(-30 -48)" onmousedown="handlePan(0,1)">
                  <use xlink:href="#rim" fill="#404040">
                        <set attributeName="fill" to="#808080" begin="arrowDown.mouseover" end="arrowDown.mouseout"/>
                  </use>
                  <path fill="none" stroke="white" stroke-width="1.5" d="M0,-3.0v7 M-2.5,-0.5L0,-3.0L2.5,-0.5"/>
                </g>
                <g id="arrowLeft" xlink:href="#dirArrow" transform="rotate(270) translate(-36 17)" onmousedown="handlePan(-1,0)">
                  <use xlink:href="#rim" fill="#404040">
                        <set attributeName="fill" to="#808080" begin="arrowLeft.mouseover" end="arrowLeft.mouseout"/>
                  </use>
                  <path fill="none" stroke="white" stroke-width="1.5" d="M0,-3.0v7 M-2.5,-0.5L0,-3.0L2.5,-0.5"/>
                </g>
        </g>
        <svg viewBox="0 0 15 15" width="100%" height="30px" preserveAspectRatio="xMaxYMin meet">
         <g id="arrow_out" transform="scale(0.3 0.3)">
          <a xlink:href="error_8c_a03b3d711852aa32c4076f12ea7bb93a4_icgraph_org.svg" target="_base">
           <rect id="button" ry="5" rx="5" y="6" x="6" height="38" width="38"
                fill="#f2f5e9" fill-opacity="0.5" stroke="#606060" stroke-width="1.0"/>
           <path id="arrow"
             d="M 11.500037,31.436501 C 11.940474,20.09759 22.043105,11.32322 32.158766,21.979434 L 37.068811,17.246167 C 37.068811,17.246167 37.088388,32 37.088388,32 L 22.160133,31.978069 C 22.160133,31.978069 26.997745,27.140456 26.997745,27.140456 C 18.528582,18.264221 13.291696,25.230495 11.500037,31.436501 z"
             style="fill:#404040;"/>
          </a>
         </g>
        </svg>
</svg>
