<?xml version="1.0" encoding="UTF-8" standalone="no"?>
<!DOCTYPE svg PUBLIC "-//W3C//DTD SVG 1.1//EN"
 "http://www.w3.org/Graphics/SVG/1.1/DTD/svg11.dtd">
<!-- Generated by graphviz version 2.36.0 (20140111.2315)
 -->
<!-- Title: unterminated_comment Pages: 1 -->
<!--zoomable 436 -->
<svg id="main" version="1.1" xmlns="http://www.w3.org/2000/svg" xmlns:xlink="http://www.w3.org/1999/xlink" xml:space="preserve" onload="init(evt)">
<style type="text/css"><![CDATA[
.edge:hover path { stroke: red; }
.edge:hover polygon { stroke: red; fill: red; }
]]></style>
<script type="text/javascript"><![CDATA[
var edges = document.getElementsByTagName('g');
if (edges && edges.length) {
  for (var i=0;i<edges.length;i++) {
    if (edges[i].id.substr(0,4)=='edge') {
      edges[i].setAttribute('class','edge');
    }
  }
}
]]></script>
        <defs>
                <circle id="rim" cx="0" cy="0" r="7"/>
                <circle id="rim2" cx="0" cy="0" r="3.5"/>
                <g id="zoomPlus">
                        <use xlink:href="#rim" fill="#404040">
                                <set attributeName="fill" to="#808080" begin="zoomplus.mouseover" end="zoomplus.mouseout"/>
                        </use>
                        <path d="M-4,0h8M0,-4v8" fill="none" stroke="white" stroke-width="1.5" pointer-events="none"/>
                </g>
                <g id="zoomMin">
                        <use xlink:href="#rim" fill="#404040">
                                <set attributeName="fill" to="#808080" begin="zoomminus.mouseover" end="zoomminus.mouseout"/>
                        </use>
                        <path d="M-4,0h8" fill="none" stroke="white" stroke-width="1.5" pointer-events="none"/>
                </g>
                <g id="dirArrow">
                        <path fill="none" stroke="white" stroke-width="1.5" d="M0,-3.0v7 M-2.5,-0.5L0,-3.0L2.5,-0.5"/>
                </g>
               <g id="resetDef">
                       <use xlink:href="#rim2" fill="#404040">
                               <set attributeName="fill" to="#808080" begin="reset.mouseover" end="reset.mouseout"/>
                       </use>
               </g>
        </defs>

<script type="text/javascript">
var viewWidth = 796;
var viewHeight = 436;
var sectionId = 'dynsection-43';
</script>
<script xlink:href="svgpan.js"/>
<svg id="graph" class="graph">
<g id="viewport">
<title>unterminated_comment</title>
<polygon fill="white" stroke="none" points="-4,4 -4,-431.911 792,-431.911 792,4 -4,4"/>
<!-- Node1 -->
<g id="node1" class="node"><title>Node1</title>
<polygon fill="#bfbfbf" stroke="black" points="0.5,-171.411 0.5,-190.411 119.5,-190.411 119.5,-171.411 0.5,-171.411"/>
<text text-anchor="middle" x="60" y="-178.411" font-family="Helvetica,sans-Serif" font-size="10.00">unterminated_comment</text>
</g>
<!-- Node2 -->
<g id="node2" class="node"><title>Node2</title>
<g id="a_node2"><a xlink:href="reader_8c.html#abb83807b1bba8d346650d3e4ae4e7425" target="_top" xlink:title="copy_action">
<polygon fill="white" stroke="black" points="497.5,-408.411 497.5,-427.411 566.5,-427.411 566.5,-408.411 497.5,-408.411"/>
<text text-anchor="middle" x="532" y="-415.411" font-family="Helvetica,sans-Serif" font-size="10.00">copy_action</text>
</a>
</g>
</g>
<!-- Node1&#45;&gt;Node2 -->
<g id="edge1" class="edge"><title>Node1&#45;&gt;Node2</title>
<path fill="none" stroke="midnightblue" d="M76.3446,-198.265C118.37,-244.335 241.088,-369.306 374,-414.911 414.613,-428.846 464.68,-426.77 497.195,-423.109"/>
<polygon fill="midnightblue" stroke="midnightblue" points="78.7471,-195.703 69.4523,-190.618 73.5474,-200.389 78.7471,-195.703"/>
</g>
<!-- Node5 -->
<g id="node5" class="node"><title>Node5</title>
<g id="a_node5"><a xlink:href="reader_8c.html#a5719a5118a10bc1e96786f599eeb516f" target="_top" xlink:title="copy_text">
<polygon fill="white" stroke="black" points="382.5,-28.4107 382.5,-47.4107 441.5,-47.4107 441.5,-28.4107 382.5,-28.4107"/>
<text text-anchor="middle" x="412" y="-35.4107" font-family="Helvetica,sans-Serif" font-size="10.00">copy_text</text>
</a>
</g>
</g>
<!-- Node1&#45;&gt;Node5 -->
<g id="edge4" class="edge"><title>Node1&#45;&gt;Node5</title>
<path fill="none" stroke="midnightblue" d="M94.189,-167.351C164.493,-138.627 326.937,-72.2564 387.594,-47.4736"/>
<polygon fill="midnightblue" stroke="midnightblue" points="92.4413,-164.284 84.508,-171.306 95.0889,-170.764 92.4413,-164.284"/>
</g>
<!-- Node8 -->
<g id="node8" class="node"><title>Node8</title>
<g id="a_node8"><a xlink:href="reader_8c.html#a7ee403ea2ff911fb368d38ab6ef937c3" target="_top" xlink:title="copy_union">
<polygon fill="white" stroke="black" points="272,-9.41069 272,-28.4107 338,-28.4107 338,-9.41069 272,-9.41069"/>
<text text-anchor="middle" x="305" y="-16.4107" font-family="Helvetica,sans-Serif" font-size="10.00">copy_union</text>
</a>
</g>
</g>
<!-- Node1&#45;&gt;Node8 -->
<g id="edge9" class="edge"><title>Node1&#45;&gt;Node8</title>
<path fill="none" stroke="midnightblue" d="M83.9073,-165.639C133.378,-132.659 249.009,-55.5716 289.603,-28.5088"/>
<polygon fill="midnightblue" stroke="midnightblue" points="81.8521,-162.803 75.473,-171.262 85.735,-168.627 81.8521,-162.803"/>
</g>
<!-- Node9 -->
<g id="node9" class="node"><title>Node9</title>
<g id="a_node9"><a xlink:href="reader_8c.html#ac812a775973bb1eb24e86256b2de6b8b" target="_top" xlink:title="skip_comment">
<polygon fill="white" stroke="black" points="156,-209.411 156,-228.411 236,-228.411 236,-209.411 156,-209.411"/>
<text text-anchor="middle" x="196" y="-216.411" font-family="Helvetica,sans-Serif" font-size="10.00">skip_comment</text>
</a>
</g>
</g>
<!-- Node1&#45;&gt;Node9 -->
<g id="edge11" class="edge"><title>Node1&#45;&gt;Node9</title>
<path fill="none" stroke="midnightblue" d="M104.438,-193.229C122.849,-198.45 143.98,-204.442 161.197,-209.325"/>
<polygon fill="midnightblue" stroke="midnightblue" points="105.389,-189.861 94.8139,-190.5 103.48,-196.595 105.389,-189.861"/>
</g>
<!-- Node3 -->
<g id="node3" class="node"><title>Node3</title>
<g id="a_node3"><a xlink:href="reader_8c.html#af6d4fba61bb761ca9fe92fef83e8ee94" target="_top" xlink:title="read_grammar">
<polygon fill="white" stroke="black" points="621.5,-237.411 621.5,-256.411 700.5,-256.411 700.5,-237.411 621.5,-237.411"/>
<text text-anchor="middle" x="661" y="-244.411" font-family="Helvetica,sans-Serif" font-size="10.00">read_grammar</text>
</a>
</g>
</g>
<!-- Node2&#45;&gt;Node3 -->
<g id="edge2" class="edge"><title>Node2&#45;&gt;Node3</title>
<path fill="none" stroke="midnightblue" d="M572.577,-403.17C574.494,-401.858 576.317,-400.44 578,-398.911 624.149,-356.959 649.439,-282.835 657.3,-256.513"/>
<polygon fill="midnightblue" stroke="midnightblue" points="570.643,-400.245 563.725,-408.27 574.137,-406.31 570.643,-400.245"/>
</g>
<!-- Node4 -->
<g id="node4" class="node"><title>Node4</title>
<g id="a_node4"><a xlink:href="reader_8c.html#a3351a985e2d992eea6ed332cc837ad5b" target="_top" xlink:title="reader">
<polygon fill="white" stroke="red" points="744,-203.411 744,-222.411 788,-222.411 788,-203.411 744,-203.411"/>
<text text-anchor="middle" x="766" y="-210.411" font-family="Helvetica,sans-Serif" font-size="10.00">reader</text>
</a>
</g>
</g>
<!-- Node3&#45;&gt;Node4 -->
<g id="edge3" class="edge"><title>Node3&#45;&gt;Node4</title>
<path fill="none" stroke="midnightblue" d="M700.761,-234.116C715.335,-229.305 731.361,-224.015 743.761,-219.922"/>
<polygon fill="midnightblue" stroke="midnightblue" points="699.364,-230.891 690.965,-237.349 701.558,-237.538 699.364,-230.891"/>
</g>
<!-- Node6 -->
<g id="node6" class="node"><title>Node6</title>
<g id="a_node6"><a xlink:href="reader_8c.html#a07addfee5457e48ddb310769dd0e39af" target="_top" xlink:title="read_declarations">
<polygon fill="white" stroke="black" points="614.5,-137.411 614.5,-156.411 707.5,-156.411 707.5,-137.411 614.5,-137.411"/>
<text text-anchor="middle" x="661" y="-144.411" font-family="Helvetica,sans-Serif" font-size="10.00">read_declarations</text>
</a>
</g>
</g>
<!-- Node5&#45;&gt;Node6 -->
<g id="edge5" class="edge"><title>Node5&#45;&gt;Node6</title>
<path fill="none" stroke="midnightblue" d="M451.842,-34.9178C486.752,-33.9041 538.459,-36.6625 578,-56.9107 614.688,-75.6979 643.062,-118.083 654.501,-137.216"/>
<polygon fill="midnightblue" stroke="midnightblue" points="451.428,-31.4317 441.58,-35.3383 451.715,-38.4259 451.428,-31.4317"/>
</g>
<!-- Node7 -->
<g id="node7" class="node"><title>Node7</title>
<g id="a_node7"><a xlink:href="reader_8c.html#ac910677446efcb4dbebc9a6d3d90a9ff" target="_top" xlink:title="advance_to_start">
<polygon fill="white" stroke="black" points="486,-142.411 486,-161.411 578,-161.411 578,-142.411 486,-142.411"/>
<text text-anchor="middle" x="532" y="-149.411" font-family="Helvetica,sans-Serif" font-size="10.00">advance_to_start</text>
</a>
</g>
</g>
<!-- Node5&#45;&gt;Node7 -->
<g id="edge7" class="edge"><title>Node5&#45;&gt;Node7</title>
<path fill="none" stroke="midnightblue" d="M430.422,-54.7424C455.476,-78.9468 500.87,-122.802 520.965,-142.216"/>
<polygon fill="midnightblue" stroke="midnightblue" points="432.684,-52.0612 423.061,-47.6303 427.821,-57.0956 432.684,-52.0612"/>
</g>
<!-- Node6&#45;&gt;Node4 -->
<g id="edge6" class="edge"><title>Node6&#45;&gt;Node4</title>
<path fill="none" stroke="midnightblue" d="M685.689,-162.09C705.518,-174.796 733.206,-192.538 750.075,-203.347"/>
<polygon fill="midnightblue" stroke="midnightblue" points="687.506,-159.098 677.198,-156.649 683.729,-164.991 687.506,-159.098"/>
</g>
<!-- Node7&#45;&gt;Node3 -->
<g id="edge8" class="edge"><title>Node7&#45;&gt;Node3</title>
<path fill="none" stroke="midnightblue" d="M554.37,-167.896C580.912,-187.75 625.348,-220.99 647.148,-237.297"/>
<polygon fill="midnightblue" stroke="midnightblue" points="556.217,-164.907 546.113,-161.72 552.024,-170.512 556.217,-164.907"/>
</g>
<!-- Node8&#45;&gt;Node6 -->
<g id="edge10" class="edge"><title>Node8&#45;&gt;Node6</title>
<path fill="none" stroke="midnightblue" d="M348.402,-9.41426C404.925,0.845806 506.165,10.6466 578,-30.9107 621.336,-55.9808 647.505,-114.232 656.484,-137.277"/>
<polygon fill="midnightblue" stroke="midnightblue" points="347.553,-6.01289 338.385,-11.3231 348.863,-12.8891 347.553,-6.01289"/>
</g>
<!-- Node10 -->
<g id="node10" class="node"><title>Node10</title>
<g id="a_node10"><a xlink:href="reader_8c.html#a11446424d65669df0f3a9e3b1cca57fa" target="_top" xlink:title="nextc">
<polygon fill="white" stroke="black" points="284.5,-218.411 284.5,-237.411 325.5,-237.411 325.5,-218.411 284.5,-218.411"/>
<text text-anchor="middle" x="305" y="-225.411" font-family="Helvetica,sans-Serif" font-size="10.00">nextc</text>
</a>
</g>
</g>
<!-- Node9&#45;&gt;Node10 -->
<g id="edge12" class="edge"><title>Node9&#45;&gt;Node10</title>
<path fill="none" stroke="midnightblue" d="M246.375,-223.064C259.796,-224.193 273.567,-225.351 284.279,-226.252"/>
<polygon fill="midnightblue" stroke="midnightblue" points="246.493,-219.561 236.235,-222.211 245.907,-226.537 246.493,-219.561"/>
</g>
<!-- Node10&#45;&gt;Node3 -->
<g id="edge32" class="edge"><title>Node10&#45;&gt;Node3</title>
<path fill="none" stroke="midnightblue" d="M335.468,-237.786C347.306,-241.319 361.165,-244.917 374,-246.911 461.58,-260.513 566.074,-255.146 621.316,-250.651"/>
<polygon fill="midnightblue" stroke="midnightblue" points="336.251,-234.364 325.663,-234.74 334.174,-241.049 336.251,-234.364"/>
</g>
<!-- Node10&#45;&gt;Node6 -->
<g id="edge26" class="edge"><title>Node10&#45;&gt;Node6</title>
<path fill="none" stroke="midnightblue" d="M316.415,-209.404C327.937,-190.817 348.319,-162.974 374,-148.911 455.006,-104.552 569.278,-123.596 625.713,-137.328"/>
<polygon fill="midnightblue" stroke="midnightblue" points="313.312,-207.773 311.215,-218.158 319.331,-211.348 313.312,-207.773"/>
</g>
<!-- Node10&#45;&gt;Node7 -->
<g id="edge27" class="edge"><title>Node10&#45;&gt;Node7</title>
<path fill="none" stroke="midnightblue" d="M321.08,-210.718C333.779,-197.471 353.166,-179.942 374,-170.911 409.519,-155.514 453.539,-151.314 485.921,-150.647"/>
<polygon fill="midnightblue" stroke="midnightblue" points="318.295,-208.575 314.085,-218.298 323.439,-213.323 318.295,-208.575"/>
</g>
<!-- Node11 -->
<g id="node11" class="node"><title>Node11</title>
<g id="a_node11"><a xlink:href="reader_8c.html#a475e9b3fc05ea753aeeb760cea34a511" target="_top" xlink:title="copy_ident">
<polygon fill="white" stroke="black" points="500,-66.4107 500,-85.4107 564,-85.4107 564,-66.4107 500,-66.4107"/>
<text text-anchor="middle" x="532" y="-73.4107" font-family="Helvetica,sans-Serif" font-size="10.00">copy_ident</text>
</a>
</g>
</g>
<!-- Node10&#45;&gt;Node11 -->
<g id="edge13" class="edge"><title>Node10&#45;&gt;Node11</title>
<path fill="none" stroke="midnightblue" d="M314.975,-208.807C331.095,-174.849 364.189,-106.871 374,-99.9107 411.218,-73.5042 465.931,-71.2099 499.964,-72.8878"/>
<polygon fill="midnightblue" stroke="midnightblue" points="311.669,-207.611 310.561,-218.148 317.998,-210.601 311.669,-207.611"/>
</g>
<!-- Node12 -->
<g id="node12" class="node"><title>Node12</title>
<g id="a_node12"><a xlink:href="reader_8c.html#a0d5a7fe7641edf38078ba5e99536772d" target="_top" xlink:title="get_tag">
<polygon fill="white" stroke="black" points="387.5,-370.411 387.5,-389.411 436.5,-389.411 436.5,-370.411 387.5,-370.411"/>
<text text-anchor="middle" x="412" y="-377.411" font-family="Helvetica,sans-Serif" font-size="10.00">get_tag</text>
</a>
</g>
</g>
<!-- Node10&#45;&gt;Node12 -->
<g id="edge15" class="edge"><title>Node10&#45;&gt;Node12</title>
<path fill="none" stroke="midnightblue" d="M311.687,-247.338C320.78,-275.487 341.004,-327.857 374,-360.911 377.775,-364.693 382.459,-367.876 387.212,-370.49"/>
<polygon fill="midnightblue" stroke="midnightblue" points="314.947,-246.031 308.651,-237.51 308.259,-248.097 314.947,-246.031"/>
</g>
<!-- Node13 -->
<g id="node13" class="node"><title>Node13</title>
<g id="a_node13"><a xlink:href="reader_8c.html#a0b749a023a959fabb8ed2778b46ec217" target="_top" xlink:title="declare_tokens">
<polygon fill="white" stroke="black" points="490.5,-370.411 490.5,-389.411 573.5,-389.411 573.5,-370.411 490.5,-370.411"/>
<text text-anchor="middle" x="532" y="-377.411" font-family="Helvetica,sans-Serif" font-size="10.00">declare_tokens</text>
</a>
</g>
</g>
<!-- Node10&#45;&gt;Node13 -->
<g id="edge21" class="edge"><title>Node10&#45;&gt;Node13</title>
<path fill="none" stroke="midnightblue" d="M307.056,-247.574C310.233,-284.653 322.967,-364.285 374,-398.911 393.255,-411.975 455.839,-399.41 495.934,-389.427"/>
<polygon fill="midnightblue" stroke="midnightblue" points="310.542,-247.257 306.345,-237.53 303.56,-247.752 310.542,-247.257"/>
</g>
<!-- Node14 -->
<g id="node14" class="node"><title>Node14</title>
<g id="a_node14"><a xlink:href="reader_8c.html#a860dbc8da656fd831b19668da20207c7" target="_top" xlink:title="declare_types">
<polygon fill="white" stroke="black" points="493.5,-294.411 493.5,-313.411 570.5,-313.411 570.5,-294.411 493.5,-294.411"/>
<text text-anchor="middle" x="532" y="-301.411" font-family="Helvetica,sans-Serif" font-size="10.00">declare_types</text>
</a>
</g>
</g>
<!-- Node10&#45;&gt;Node14 -->
<g id="edge22" class="edge"><title>Node10&#45;&gt;Node14</title>
<path fill="none" stroke="midnightblue" d="M323.139,-244.973C336.023,-256.745 354.705,-271.701 374,-279.911 412.566,-296.319 460.684,-301.704 493.414,-303.37"/>
<polygon fill="midnightblue" stroke="midnightblue" points="325.23,-242.133 315.562,-237.8 320.418,-247.217 325.23,-242.133"/>
</g>
<!-- Node15 -->
<g id="node15" class="node"><title>Node15</title>
<g id="a_node15"><a xlink:href="reader_8c.html#a279a8d9eb5a5ad8dce6c95b2647b9c98" target="_top" xlink:title="declare_start">
<polygon fill="white" stroke="black" points="375.5,-180.411 375.5,-199.411 448.5,-199.411 448.5,-180.411 375.5,-180.411"/>
<text text-anchor="middle" x="412" y="-187.411" font-family="Helvetica,sans-Serif" font-size="10.00">declare_start</text>
</a>
</g>
</g>
<!-- Node10&#45;&gt;Node15 -->
<g id="edge23" class="edge"><title>Node10&#45;&gt;Node15</title>
<path fill="none" stroke="midnightblue" d="M335.348,-217.289C350.803,-211.696 369.604,-204.892 384.597,-199.466"/>
<polygon fill="midnightblue" stroke="midnightblue" points="333.962,-214.069 325.75,-220.763 336.344,-220.651 333.962,-214.069"/>
</g>
<!-- Node16 -->
<g id="node16" class="node"><title>Node16</title>
<g id="a_node16"><a xlink:href="reader_8c.html#a34bf32e056d8bc6f1fb490f4efc7ce90" target="_top" xlink:title="add_symbol">
<polygon fill="white" stroke="black" points="377.5,-218.411 377.5,-237.411 446.5,-237.411 446.5,-218.411 377.5,-218.411"/>
<text text-anchor="middle" x="412" y="-225.411" font-family="Helvetica,sans-Serif" font-size="10.00">add_symbol</text>
</a>
</g>
</g>
<!-- Node10&#45;&gt;Node16 -->
<g id="edge28" class="edge"><title>Node10&#45;&gt;Node16</title>
<path fill="none" stroke="midnightblue" d="M335.968,-227.911C348.868,-227.911 364.006,-227.911 377.294,-227.911"/>
<polygon fill="midnightblue" stroke="midnightblue" points="335.75,-224.411 325.75,-227.911 335.75,-231.411 335.75,-224.411"/>
</g>
<!-- Node17 -->
<g id="node17" class="node"><title>Node17</title>
<g id="a_node17"><a xlink:href="reader_8c.html#aae3985d515e47c03afc20f92c0292531" target="_top" xlink:title="mark_symbol">
<polygon fill="white" stroke="black" points="374.5,-332.411 374.5,-351.411 449.5,-351.411 449.5,-332.411 374.5,-332.411"/>
<text text-anchor="middle" x="412" y="-339.411" font-family="Helvetica,sans-Serif" font-size="10.00">mark_symbol</text>
</a>
</g>
</g>
<!-- Node10&#45;&gt;Node17 -->
<g id="edge30" class="edge"><title>Node10&#45;&gt;Node17</title>
<path fill="none" stroke="midnightblue" d="M317.062,-246.163C329.353,-265.474 350.578,-296.109 374,-317.911 379.829,-323.336 387.028,-328.314 393.522,-332.313"/>
<polygon fill="midnightblue" stroke="midnightblue" points="319.888,-244.079 311.63,-237.442 313.946,-247.78 319.888,-244.079"/>
</g>
<!-- Node11&#45;&gt;Node6 -->
<g id="edge14" class="edge"><title>Node11&#45;&gt;Node6</title>
<path fill="none" stroke="midnightblue" d="M560.319,-90.3094C566.171,-93.4415 572.305,-96.761 578,-99.9107 600.974,-112.617 627.262,-127.8 643.747,-137.4"/>
<polygon fill="midnightblue" stroke="midnightblue" points="561.931,-87.2027 551.46,-85.5931 558.642,-93.3818 561.931,-87.2027"/>
</g>
<!-- Node12&#45;&gt;Node2 -->
<g id="edge20" class="edge"><title>Node12&#45;&gt;Node2</title>
<path fill="none" stroke="midnightblue" d="M446.272,-390.625C463.523,-396.181 484.424,-402.912 501.15,-408.298"/>
<polygon fill="midnightblue" stroke="midnightblue" points="447.187,-387.243 436.595,-387.509 445.041,-393.906 447.187,-387.243"/>
</g>
<!-- Node12&#45;&gt;Node13 -->
<g id="edge16" class="edge"><title>Node12&#45;&gt;Node13</title>
<path fill="none" stroke="midnightblue" d="M446.904,-379.911C460.425,-379.911 476.106,-379.911 490.239,-379.911"/>
<polygon fill="midnightblue" stroke="midnightblue" points="446.595,-376.411 436.595,-379.911 446.595,-383.411 446.595,-376.411"/>
</g>
<!-- Node12&#45;&gt;Node14 -->
<g id="edge18" class="edge"><title>Node12&#45;&gt;Node14</title>
<path fill="none" stroke="midnightblue" d="M441.775,-365.635C444.583,-364.092 447.366,-362.503 450,-360.911 475.162,-345.697 502.85,-325.376 518.463,-313.558"/>
<polygon fill="midnightblue" stroke="midnightblue" points="440.065,-362.579 432.864,-370.35 443.34,-368.766 440.065,-362.579"/>
</g>
<!-- Node13&#45;&gt;Node6 -->
<g id="edge17" class="edge"><title>Node13&#45;&gt;Node6</title>
<path fill="none" stroke="midnightblue" d="M548.955,-362.615C558.324,-351.802 569.881,-337.249 578,-322.911 600.249,-283.621 594.794,-268.775 614,-227.911 626.519,-201.273 644.488,-171.571 653.829,-156.625"/>
<polygon fill="midnightblue" stroke="midnightblue" points="546.339,-360.289 542.31,-370.088 551.571,-364.94 546.339,-360.289"/>
</g>
<!-- Node14&#45;&gt;Node6 -->
<g id="edge19" class="edge"><title>Node14&#45;&gt;Node6</title>
<path fill="none" stroke="midnightblue" d="M547.372,-286.144C574.211,-252.965 631.125,-182.606 652.059,-156.728"/>
<polygon fill="midnightblue" stroke="midnightblue" points="544.512,-284.114 540.944,-294.09 549.955,-288.516 544.512,-284.114"/>
</g>
<!-- Node15&#45;&gt;Node6 -->
<g id="edge24" class="edge"><title>Node15&#45;&gt;Node6</title>
<path fill="none" stroke="midnightblue" d="M459.016,-186.721C492.296,-183.904 538.217,-178.962 578,-170.911 596.173,-167.233 616.149,-161.424 631.835,-156.443"/>
<polygon fill="midnightblue" stroke="midnightblue" points="458.362,-183.263 448.679,-187.563 458.93,-190.24 458.362,-183.263"/>
</g>
<!-- Node15&#45;&gt;Node7 -->
<g id="edge25" class="edge"><title>Node15&#45;&gt;Node7</title>
<path fill="none" stroke="midnightblue" d="M452.376,-177.23C468.32,-172.096 486.421,-166.267 501.233,-161.497"/>
<polygon fill="midnightblue" stroke="midnightblue" points="451.222,-173.925 442.776,-180.322 453.368,-180.588 451.222,-173.925"/>
</g>
<!-- Node16&#45;&gt;Node3 -->
<g id="edge29" class="edge"><title>Node16&#45;&gt;Node3</title>
<path fill="none" stroke="midnightblue" d="M456.671,-231.27C503.315,-234.858 576.541,-240.491 621.217,-243.927"/>
<polygon fill="midnightblue" stroke="midnightblue" points="456.808,-227.77 446.569,-230.493 456.271,-234.75 456.808,-227.77"/>
</g>
<!-- Node17&#45;&gt;Node3 -->
<g id="edge31" class="edge"><title>Node17&#45;&gt;Node3</title>
<path fill="none" stroke="midnightblue" d="M460.012,-344.14C494.214,-343.984 540.844,-339.998 578,-322.911 611.33,-307.583 640.141,-273.463 652.939,-256.653"/>
<polygon fill="midnightblue" stroke="midnightblue" points="459.843,-340.639 449.821,-344.076 459.799,-347.639 459.843,-340.639"/>
</g>
</g>
</svg>
        <g id="navigator" transform="translate(0 0)" fill="#404254">
                <rect fill="#f2f5e9" fill-opacity="0.5" stroke="#606060" stroke-width=".5" x="0" y="0" width="60" height="60"/>
                <use id="zoomplus" xlink:href="#zoomPlus" x="17" y="9" onmousedown="handleZoom(evt,'in')"/>
                <use id="zoomminus" xlink:href="#zoomMin" x="42" y="9" onmousedown="handleZoom(evt,'out')"/>
                <use id="reset" xlink:href="#resetDef" x="30" y="36" onmousedown="handleReset()"/>
                <g id="arrowUp" xlink:href="#dirArrow" transform="translate(30 24)" onmousedown="handlePan(0,-1)">
                  <use xlink:href="#rim" fill="#404040">
                        <set attributeName="fill" to="#808080" begin="arrowUp.mouseover" end="arrowUp.mouseout"/>
                  </use>
                  <path fill="none" stroke="white" stroke-width="1.5" d="M0,-3.0v7 M-2.5,-0.5L0,-3.0L2.5,-0.5"/>
                </g>
                <g id="arrowRight" xlink:href="#dirArrow" transform="rotate(90) translate(36 -43)" onmousedown="handlePan(1,0)">
                  <use xlink:href="#rim" fill="#404040">
                        <set attributeName="fill" to="#808080" begin="arrowRight.mouseover" end="arrowRight.mouseout"/>
                  </use>
                  <path fill="none" stroke="white" stroke-width="1.5" d="M0,-3.0v7 M-2.5,-0.5L0,-3.0L2.5,-0.5"/>
                </g>
                <g id="arrowDown" xlink:href="#dirArrow" transform="rotate(180) translate(-30 -48)" onmousedown="handlePan(0,1)">
                  <use xlink:href="#rim" fill="#404040">
                        <set attributeName="fill" to="#808080" begin="arrowDown.mouseover" end="arrowDown.mouseout"/>
                  </use>
                  <path fill="none" stroke="white" stroke-width="1.5" d="M0,-3.0v7 M-2.5,-0.5L0,-3.0L2.5,-0.5"/>
                </g>
                <g id="arrowLeft" xlink:href="#dirArrow" transform="rotate(270) translate(-36 17)" onmousedown="handlePan(-1,0)">
                  <use xlink:href="#rim" fill="#404040">
                        <set attributeName="fill" to="#808080" begin="arrowLeft.mouseover" end="arrowLeft.mouseout"/>
                  </use>
                  <path fill="none" stroke="white" stroke-width="1.5" d="M0,-3.0v7 M-2.5,-0.5L0,-3.0L2.5,-0.5"/>
                </g>
        </g>
        <svg viewBox="0 0 15 15" width="100%" height="30px" preserveAspectRatio="xMaxYMin meet">
         <g id="arrow_out" transform="scale(0.3 0.3)">
          <a xlink:href="error_8c_a81c4e76cf37319065a21afcaec1b8ab1_icgraph_org.svg" target="_base">
           <rect id="button" ry="5" rx="5" y="6" x="6" height="38" width="38"
                fill="#f2f5e9" fill-opacity="0.5" stroke="#606060" stroke-width="1.0"/>
           <path id="arrow"
             d="M 11.500037,31.436501 C 11.940474,20.09759 22.043105,11.32322 32.158766,21.979434 L 37.068811,17.246167 C 37.068811,17.246167 37.088388,32 37.088388,32 L 22.160133,31.978069 C 22.160133,31.978069 26.997745,27.140456 26.997745,27.140456 C 18.528582,18.264221 13.291696,25.230495 11.500037,31.436501 z"
             style="fill:#404040;"/>
          </a>
         </g>
        </svg>
</svg>
