<?xml version="1.0" encoding="UTF-8" standalone="no"?>
<!DOCTYPE svg PUBLIC "-//W3C//DTD SVG 1.1//EN"
 "http://www.w3.org/Graphics/SVG/1.1/DTD/svg11.dtd">
<!-- Generated by graphviz version 2.36.0 (20140111.2315)
 -->
<!-- Title: unexpected_EOF Pages: 1 -->
<!--zoomable 256 -->
<svg id="main" version="1.1" xmlns="http://www.w3.org/2000/svg" xmlns:xlink="http://www.w3.org/1999/xlink" xml:space="preserve" onload="init(evt)">
<style type="text/css"><![CDATA[
.edge:hover path { stroke: red; }
.edge:hover polygon { stroke: red; fill: red; }
]]></style>
<script type="text/javascript"><![CDATA[
var edges = document.getElementsByTagName('g');
if (edges && edges.length) {
  for (var i=0;i<edges.length;i++) {
    if (edges[i].id.substr(0,4)=='edge') {
      edges[i].setAttribute('class','edge');
    }
  }
}
]]></script>
        <defs>
                <circle id="rim" cx="0" cy="0" r="7"/>
                <circle id="rim2" cx="0" cy="0" r="3.5"/>
                <g id="zoomPlus">
                        <use xlink:href="#rim" fill="#404040">
                                <set attributeName="fill" to="#808080" begin="zoomplus.mouseover" end="zoomplus.mouseout"/>
                        </use>
                        <path d="M-4,0h8M0,-4v8" fill="none" stroke="white" stroke-width="1.5" pointer-events="none"/>
                </g>
                <g id="zoomMin">
                        <use xlink:href="#rim" fill="#404040">
                                <set attributeName="fill" to="#808080" begin="zoomminus.mouseover" end="zoomminus.mouseout"/>
                        </use>
                        <path d="M-4,0h8" fill="none" stroke="white" stroke-width="1.5" pointer-events="none"/>
                </g>
                <g id="dirArrow">
                        <path fill="none" stroke="white" stroke-width="1.5" d="M0,-3.0v7 M-2.5,-0.5L0,-3.0L2.5,-0.5"/>
                </g>
               <g id="resetDef">
                       <use xlink:href="#rim2" fill="#404040">
                               <set attributeName="fill" to="#808080" begin="reset.mouseover" end="reset.mouseout"/>
                       </use>
               </g>
        </defs>

<script type="text/javascript">
var viewWidth = 548;
var viewHeight = 256;
var sectionId = 'dynsection-37';
</script>
<script xlink:href="svgpan.js"/>
<svg id="graph" class="graph">
<g id="viewport">
<title>unexpected_EOF</title>
<polygon fill="white" stroke="none" points="-4,4 -4,-252 544,-252 544,4 -4,4"/>
<!-- Node1 -->
<g id="node1" class="node"><title>Node1</title>
<polygon fill="#bfbfbf" stroke="black" points="0,-114.5 0,-133.5 92,-133.5 92,-114.5 0,-114.5"/>
<text text-anchor="middle" x="46" y="-121.5" font-family="Helvetica,sans-Serif" font-size="10.00">unexpected_EOF</text>
</g>
<!-- Node2 -->
<g id="node2" class="node"><title>Node2</title>
<g id="a_node2"><a xlink:href="reader_8c.html#ac910677446efcb4dbebc9a6d3d90a9ff" target="_top" xlink:title="advance_to_start">
<polygon fill="white" stroke="black" points="238,-228.5 238,-247.5 330,-247.5 330,-228.5 238,-228.5"/>
<text text-anchor="middle" x="284" y="-235.5" font-family="Helvetica,sans-Serif" font-size="10.00">advance_to_start</text>
</a>
</g>
</g>
<!-- Node1&#45;&gt;Node2 -->
<g id="edge1" class="edge"><title>Node1&#45;&gt;Node2</title>
<path fill="none" stroke="midnightblue" d="M56.9245,-142.423C70.0041,-164.698 95.2415,-201.385 128,-219 161.787,-237.168 205.579,-241.057 237.992,-240.901"/>
<polygon fill="midnightblue" stroke="midnightblue" points="59.8993,-140.573 51.9316,-133.59 53.8054,-144.018 59.8993,-140.573"/>
</g>
<!-- Node5 -->
<g id="node5" class="node"><title>Node5</title>
<g id="a_node5"><a xlink:href="reader_8c.html#a475e9b3fc05ea753aeeb760cea34a511" target="_top" xlink:title="copy_ident">
<polygon fill="white" stroke="black" points="133,-0.5 133,-19.5 197,-19.5 197,-0.5 133,-0.5"/>
<text text-anchor="middle" x="165" y="-7.5" font-family="Helvetica,sans-Serif" font-size="10.00">copy_ident</text>
</a>
</g>
</g>
<!-- Node1&#45;&gt;Node5 -->
<g id="edge4" class="edge"><title>Node1&#45;&gt;Node5</title>
<path fill="none" stroke="midnightblue" d="M60.548,-106.487C75.7727,-87.4297 101.801,-56.6553 128,-34 134.023,-28.7919 141.23,-23.782 147.608,-19.6991"/>
<polygon fill="midnightblue" stroke="midnightblue" points="57.7937,-104.328 54.3513,-114.348 63.2909,-108.661 57.7937,-104.328"/>
</g>
<!-- Node6 -->
<g id="node6" class="node"><title>Node6</title>
<g id="a_node6"><a xlink:href="reader_8c.html#a07addfee5457e48ddb310769dd0e39af" target="_top" xlink:title="read_declarations">
<polygon fill="white" stroke="black" points="366.5,-95.5 366.5,-114.5 459.5,-114.5 459.5,-95.5 366.5,-95.5"/>
<text text-anchor="middle" x="413" y="-102.5" font-family="Helvetica,sans-Serif" font-size="10.00">read_declarations</text>
</a>
</g>
</g>
<!-- Node1&#45;&gt;Node6 -->
<g id="edge19" class="edge"><title>Node1&#45;&gt;Node6</title>
<path fill="none" stroke="midnightblue" d="M75.7548,-110.248C126.979,-87.524 237.35,-46.5756 330,-67 354.669,-72.4383 380.742,-86.0661 396.696,-95.4316"/>
<polygon fill="midnightblue" stroke="midnightblue" points="74.2717,-107.078 66.6083,-114.394 77.1614,-113.454 74.2717,-107.078"/>
</g>
<!-- Node7 -->
<g id="node7" class="node"><title>Node7</title>
<g id="a_node7"><a xlink:href="reader_8c.html#a279a8d9eb5a5ad8dce6c95b2647b9c98" target="_top" xlink:title="declare_start">
<polygon fill="white" stroke="black" points="128.5,-190.5 128.5,-209.5 201.5,-209.5 201.5,-190.5 128.5,-190.5"/>
<text text-anchor="middle" x="165" y="-197.5" font-family="Helvetica,sans-Serif" font-size="10.00">declare_start</text>
</a>
</g>
</g>
<!-- Node1&#45;&gt;Node7 -->
<g id="edge7" class="edge"><title>Node1&#45;&gt;Node7</title>
<path fill="none" stroke="midnightblue" d="M67.7258,-139.69C83.8037,-151.587 106.842,-168.045 128,-181 133.304,-184.247 139.215,-187.507 144.69,-190.388"/>
<polygon fill="midnightblue" stroke="midnightblue" points="69.6736,-136.776 59.5658,-133.601 65.4871,-142.386 69.6736,-136.776"/>
</g>
<!-- Node8 -->
<g id="node8" class="node"><title>Node8</title>
<g id="a_node8"><a xlink:href="reader_8c.html#a0b749a023a959fabb8ed2778b46ec217" target="_top" xlink:title="declare_tokens">
<polygon fill="white" stroke="black" points="242.5,-114.5 242.5,-133.5 325.5,-133.5 325.5,-114.5 242.5,-114.5"/>
<text text-anchor="middle" x="284" y="-121.5" font-family="Helvetica,sans-Serif" font-size="10.00">declare_tokens</text>
</a>
</g>
</g>
<!-- Node1&#45;&gt;Node8 -->
<g id="edge10" class="edge"><title>Node1&#45;&gt;Node8</title>
<path fill="none" stroke="midnightblue" d="M102.488,-124C145.338,-124 203.65,-124 242.264,-124"/>
<polygon fill="midnightblue" stroke="midnightblue" points="102.224,-120.5 92.2239,-124 102.224,-127.5 102.224,-120.5"/>
</g>
<!-- Node9 -->
<g id="node9" class="node"><title>Node9</title>
<g id="a_node9"><a xlink:href="reader_8c.html#a860dbc8da656fd831b19668da20207c7" target="_top" xlink:title="declare_types">
<polygon fill="white" stroke="black" points="245.5,-76.5 245.5,-95.5 322.5,-95.5 322.5,-76.5 245.5,-76.5"/>
<text text-anchor="middle" x="284" y="-83.5" font-family="Helvetica,sans-Serif" font-size="10.00">declare_types</text>
</a>
</g>
</g>
<!-- Node1&#45;&gt;Node9 -->
<g id="edge12" class="edge"><title>Node1&#45;&gt;Node9</title>
<path fill="none" stroke="midnightblue" d="M102.193,-115.113C146.214,-108.025 206.692,-98.2869 245.318,-92.0675"/>
<polygon fill="midnightblue" stroke="midnightblue" points="101.54,-111.673 92.2239,-116.718 102.653,-118.584 101.54,-111.673"/>
</g>
<!-- Node10 -->
<g id="node10" class="node"><title>Node10</title>
<g id="a_node10"><a xlink:href="reader_8c.html#a0d5a7fe7641edf38078ba5e99536772d" target="_top" xlink:title="get_tag">
<polygon fill="white" stroke="black" points="140.5,-152.5 140.5,-171.5 189.5,-171.5 189.5,-152.5 140.5,-152.5"/>
<text text-anchor="middle" x="165" y="-159.5" font-family="Helvetica,sans-Serif" font-size="10.00">get_tag</text>
</a>
</g>
</g>
<!-- Node1&#45;&gt;Node10 -->
<g id="edge14" class="edge"><title>Node1&#45;&gt;Node10</title>
<path fill="none" stroke="midnightblue" d="M86.1722,-136.723C104.137,-142.557 124.841,-149.282 140.376,-154.327"/>
<polygon fill="midnightblue" stroke="midnightblue" points="87.1162,-133.349 76.524,-133.589 84.9538,-140.007 87.1162,-133.349"/>
</g>
<!-- Node3 -->
<g id="node3" class="node"><title>Node3</title>
<g id="a_node3"><a xlink:href="reader_8c.html#af6d4fba61bb761ca9fe92fef83e8ee94" target="_top" xlink:title="read_grammar">
<polygon fill="white" stroke="black" points="373.5,-152.5 373.5,-171.5 452.5,-171.5 452.5,-152.5 373.5,-152.5"/>
<text text-anchor="middle" x="413" y="-159.5" font-family="Helvetica,sans-Serif" font-size="10.00">read_grammar</text>
</a>
</g>
</g>
<!-- Node2&#45;&gt;Node3 -->
<g id="edge2" class="edge"><title>Node2&#45;&gt;Node3</title>
<path fill="none" stroke="midnightblue" d="M313.153,-223.404C318.776,-220.371 324.609,-217.141 330,-214 354.179,-199.913 381.479,-182.23 397.687,-171.539"/>
<polygon fill="midnightblue" stroke="midnightblue" points="311.189,-220.484 304.003,-228.27 314.476,-226.664 311.189,-220.484"/>
</g>
<!-- Node4 -->
<g id="node4" class="node"><title>Node4</title>
<g id="a_node4"><a xlink:href="reader_8c.html#a3351a985e2d992eea6ed332cc837ad5b" target="_top" xlink:title="reader">
<polygon fill="white" stroke="red" points="496,-133.5 496,-152.5 540,-152.5 540,-133.5 496,-133.5"/>
<text text-anchor="middle" x="518" y="-140.5" font-family="Helvetica,sans-Serif" font-size="10.00">reader</text>
</a>
</g>
</g>
<!-- Node3&#45;&gt;Node4 -->
<g id="edge3" class="edge"><title>Node3&#45;&gt;Node4</title>
<path fill="none" stroke="midnightblue" d="M462.746,-153.008C474.362,-150.865 486.165,-148.688 495.783,-146.914"/>
<polygon fill="midnightblue" stroke="midnightblue" points="461.846,-149.615 452.646,-154.871 463.115,-156.499 461.846,-149.615"/>
</g>
<!-- Node5&#45;&gt;Node6 -->
<g id="edge5" class="edge"><title>Node5&#45;&gt;Node6</title>
<path fill="none" stroke="midnightblue" d="M207.205,-9.70384C241.506,-10.909 290.879,-16.0835 330,-34 361.845,-48.5842 390.702,-79.4562 404.103,-95.2488"/>
<polygon fill="midnightblue" stroke="midnightblue" points="207.157,-6.2016 197.072,-9.44754 206.98,-13.1994 207.157,-6.2016"/>
</g>
<!-- Node6&#45;&gt;Node4 -->
<g id="edge6" class="edge"><title>Node6&#45;&gt;Node4</title>
<path fill="none" stroke="midnightblue" d="M449.739,-118.185C465.127,-123.862 482.592,-130.306 495.869,-135.204"/>
<polygon fill="midnightblue" stroke="midnightblue" points="450.585,-114.767 439.991,-114.589 448.162,-121.334 450.585,-114.767"/>
</g>
<!-- Node7&#45;&gt;Node2 -->
<g id="edge9" class="edge"><title>Node7&#45;&gt;Node2</title>
<path fill="none" stroke="midnightblue" d="M205.042,-212.68C220.851,-217.815 238.799,-223.644 253.485,-228.414"/>
<polygon fill="midnightblue" stroke="midnightblue" points="206.116,-209.349 195.524,-209.589 203.954,-216.007 206.116,-209.349"/>
</g>
<!-- Node7&#45;&gt;Node6 -->
<g id="edge8" class="edge"><title>Node7&#45;&gt;Node6</title>
<path fill="none" stroke="midnightblue" d="M211.766,-202.878C246.047,-203.152 293.18,-199.421 330,-181 350.806,-170.591 349,-158.882 366,-143 376.9,-132.817 390.092,-122.066 399.549,-114.609"/>
<polygon fill="midnightblue" stroke="midnightblue" points="211.633,-199.375 201.566,-202.677 211.495,-206.374 211.633,-199.375"/>
</g>
<!-- Node8&#45;&gt;Node6 -->
<g id="edge11" class="edge"><title>Node8&#45;&gt;Node6</title>
<path fill="none" stroke="midnightblue" d="M335.458,-116.451C345.579,-114.937 356.16,-113.354 366.115,-111.865"/>
<polygon fill="midnightblue" stroke="midnightblue" points="334.905,-112.995 325.533,-117.936 335.941,-119.918 334.905,-112.995"/>
</g>
<!-- Node9&#45;&gt;Node6 -->
<g id="edge13" class="edge"><title>Node9&#45;&gt;Node6</title>
<path fill="none" stroke="midnightblue" d="M332.93,-93.1706C343.791,-94.7955 355.3,-96.5173 366.076,-98.1294"/>
<polygon fill="midnightblue" stroke="midnightblue" points="333.168,-89.6674 322.76,-91.6492 332.132,-96.5903 333.168,-89.6674"/>
</g>
<!-- Node10&#45;&gt;Node8 -->
<g id="edge15" class="edge"><title>Node10&#45;&gt;Node8</title>
<path fill="none" stroke="midnightblue" d="M199.275,-151.193C216.373,-145.64 237.026,-138.932 253.542,-133.568"/>
<polygon fill="midnightblue" stroke="midnightblue" points="198.106,-147.892 189.677,-154.31 200.269,-154.55 198.106,-147.892"/>
</g>
<!-- Node10&#45;&gt;Node9 -->
<g id="edge16" class="edge"><title>Node10&#45;&gt;Node9</title>
<path fill="none" stroke="midnightblue" d="M184.399,-145.132C198.374,-132.911 218.459,-116.57 238,-105 243.838,-101.544 250.421,-98.3919 256.715,-95.6922"/>
<polygon fill="midnightblue" stroke="midnightblue" points="181.684,-142.863 176.547,-152.129 186.341,-148.089 181.684,-142.863"/>
</g>
<!-- Node11 -->
<g id="node11" class="node"><title>Node11</title>
<g id="a_node11"><a xlink:href="reader_8c.html#abb83807b1bba8d346650d3e4ae4e7425" target="_top" xlink:title="copy_action">
<polygon fill="white" stroke="black" points="249.5,-152.5 249.5,-171.5 318.5,-171.5 318.5,-152.5 249.5,-152.5"/>
<text text-anchor="middle" x="284" y="-159.5" font-family="Helvetica,sans-Serif" font-size="10.00">copy_action</text>
</a>
</g>
</g>
<!-- Node10&#45;&gt;Node11 -->
<g id="edge17" class="edge"><title>Node10&#45;&gt;Node11</title>
<path fill="none" stroke="midnightblue" d="M199.881,-162C215.369,-162 233.675,-162 249.159,-162"/>
<polygon fill="midnightblue" stroke="midnightblue" points="199.677,-158.5 189.677,-162 199.677,-165.5 199.677,-158.5"/>
</g>
<!-- Node11&#45;&gt;Node3 -->
<g id="edge18" class="edge"><title>Node11&#45;&gt;Node3</title>
<path fill="none" stroke="midnightblue" d="M328.879,-162C343.286,-162 359.188,-162 373.192,-162"/>
<polygon fill="midnightblue" stroke="midnightblue" points="328.7,-158.5 318.7,-162 328.7,-165.5 328.7,-158.5"/>
</g>
</g>
</svg>
        <g id="navigator" transform="translate(0 0)" fill="#404254">
                <rect fill="#f2f5e9" fill-opacity="0.5" stroke="#606060" stroke-width=".5" x="0" y="0" width="60" height="60"/>
                <use id="zoomplus" xlink:href="#zoomPlus" x="17" y="9" onmousedown="handleZoom(evt,'in')"/>
                <use id="zoomminus" xlink:href="#zoomMin" x="42" y="9" onmousedown="handleZoom(evt,'out')"/>
                <use id="reset" xlink:href="#resetDef" x="30" y="36" onmousedown="handleReset()"/>
                <g id="arrowUp" xlink:href="#dirArrow" transform="translate(30 24)" onmousedown="handlePan(0,-1)">
                  <use xlink:href="#rim" fill="#404040">
                        <set attributeName="fill" to="#808080" begin="arrowUp.mouseover" end="arrowUp.mouseout"/>
                  </use>
                  <path fill="none" stroke="white" stroke-width="1.5" d="M0,-3.0v7 M-2.5,-0.5L0,-3.0L2.5,-0.5"/>
                </g>
                <g id="arrowRight" xlink:href="#dirArrow" transform="rotate(90) translate(36 -43)" onmousedown="handlePan(1,0)">
                  <use xlink:href="#rim" fill="#404040">
                        <set attributeName="fill" to="#808080" begin="arrowRight.mouseover" end="arrowRight.mouseout"/>
                  </use>
                  <path fill="none" stroke="white" stroke-width="1.5" d="M0,-3.0v7 M-2.5,-0.5L0,-3.0L2.5,-0.5"/>
                </g>
                <g id="arrowDown" xlink:href="#dirArrow" transform="rotate(180) translate(-30 -48)" onmousedown="handlePan(0,1)">
                  <use xlink:href="#rim" fill="#404040">
                        <set attributeName="fill" to="#808080" begin="arrowDown.mouseover" end="arrowDown.mouseout"/>
                  </use>
                  <path fill="none" stroke="white" stroke-width="1.5" d="M0,-3.0v7 M-2.5,-0.5L0,-3.0L2.5,-0.5"/>
                </g>
                <g id="arrowLeft" xlink:href="#dirArrow" transform="rotate(270) translate(-36 17)" onmousedown="handlePan(-1,0)">
                  <use xlink:href="#rim" fill="#404040">
                        <set attributeName="fill" to="#808080" begin="arrowLeft.mouseover" end="arrowLeft.mouseout"/>
                  </use>
                  <path fill="none" stroke="white" stroke-width="1.5" d="M0,-3.0v7 M-2.5,-0.5L0,-3.0L2.5,-0.5"/>
                </g>
        </g>
        <svg viewBox="0 0 15 15" width="100%" height="30px" preserveAspectRatio="xMaxYMin meet">
         <g id="arrow_out" transform="scale(0.3 0.3)">
          <a xlink:href="error_8c_a65962bc9ddf21cd2dc0b5f6b7dcb35fc_icgraph_org.svg" target="_base">
           <rect id="button" ry="5" rx="5" y="6" x="6" height="38" width="38"
                fill="#f2f5e9" fill-opacity="0.5" stroke="#606060" stroke-width="1.0"/>
           <path id="arrow"
             d="M 11.500037,31.436501 C 11.940474,20.09759 22.043105,11.32322 32.158766,21.979434 L 37.068811,17.246167 C 37.068811,17.246167 37.088388,32 37.088388,32 L 22.160133,31.978069 C 22.160133,31.978069 26.997745,27.140456 26.997745,27.140456 C 18.528582,18.264221 13.291696,25.230495 11.500037,31.436501 z"
             style="fill:#404040;"/>
          </a>
         </g>
        </svg>
</svg>
