<?xml version="1.0" encoding="UTF-8" standalone="no"?>
<!DOCTYPE svg PUBLIC "-//W3C//DTD SVG 1.1//EN"
 "http://www.w3.org/Graphics/SVG/1.1/DTD/svg11.dtd">
<!-- Generated by graphviz version 2.36.0 (20140111.2315)
 -->
<!-- Title: syntax_error Pages: 1 -->
<svg width="520pt" height="294pt"
 viewBox="0.00 0.00 520.00 294.00" xmlns="http://www.w3.org/2000/svg" xmlns:xlink="http://www.w3.org/1999/xlink">
<g id="graph0" class="graph" transform="scale(1 1) rotate(0) translate(4 290)">
<title>syntax_error</title>
<polygon fill="white" stroke="none" points="-4,4 -4,-290 516,-290 516,4 -4,4"/>
<!-- Node1 -->
<g id="node1" class="node"><title>Node1</title>
<polygon fill="#bfbfbf" stroke="black" points="0.5,-133.5 0.5,-152.5 71.5,-152.5 71.5,-133.5 0.5,-133.5"/>
<text text-anchor="middle" x="36" y="-140.5" font-family="Helvetica,sans-Serif" font-size="10.00">syntax_error</text>
</g>
<!-- Node2 -->
<g id="node2" class="node"><title>Node2</title>
<g id="a_node2"><a xlink:href="reader_8c.html#ac910677446efcb4dbebc9a6d3d90a9ff" target="_top" xlink:title="advance_to_start">
<polygon fill="white" stroke="black" points="223,-171.5 223,-190.5 315,-190.5 315,-171.5 223,-171.5"/>
<text text-anchor="middle" x="269" y="-178.5" font-family="Helvetica,sans-Serif" font-size="10.00">advance_to_start</text>
</a>
</g>
</g>
<!-- Node1&#45;&gt;Node2 -->
<g id="edge1" class="edge"><title>Node1&#45;&gt;Node2</title>
<path fill="none" stroke="midnightblue" d="M58.6039,-158.182C72.1118,-166.727 90.2606,-176.551 108,-181 145.856,-190.493 190.353,-189.566 222.799,-186.797"/>
<polygon fill="midnightblue" stroke="midnightblue" points="60.3324,-155.13 50.0557,-152.553 56.4825,-160.976 60.3324,-155.13"/>
</g>
<!-- Node3 -->
<g id="node3" class="node"><title>Node3</title>
<g id="a_node3"><a xlink:href="reader_8c.html#af6d4fba61bb761ca9fe92fef83e8ee94" target="_top" xlink:title="read_grammar">
<polygon fill="white" stroke="black" points="352.5,-209.5 352.5,-228.5 431.5,-228.5 431.5,-209.5 352.5,-209.5"/>
<text text-anchor="middle" x="392" y="-216.5" font-family="Helvetica,sans-Serif" font-size="10.00">read_grammar</text>
</a>
</g>
</g>
<!-- Node1&#45;&gt;Node3 -->
<g id="edge18" class="edge"><title>Node1&#45;&gt;Node3</title>
<path fill="none" stroke="midnightblue" d="M53.3583,-160.284C66.7122,-173.156 86.7843,-189.855 108,-198 190.559,-229.697 296.476,-227.268 352.406,-222.986"/>
<polygon fill="midnightblue" stroke="midnightblue" points="55.5037,-157.479 45.9617,-152.875 50.5496,-162.425 55.5037,-157.479"/>
</g>
<!-- Node5 -->
<g id="node5" class="node"><title>Node5</title>
<g id="a_node5"><a xlink:href="reader_8c.html#a475e9b3fc05ea753aeeb760cea34a511" target="_top" xlink:title="copy_ident">
<polygon fill="white" stroke="black" points="115,-38.5 115,-57.5 179,-57.5 179,-38.5 115,-38.5"/>
<text text-anchor="middle" x="147" y="-45.5" font-family="Helvetica,sans-Serif" font-size="10.00">copy_ident</text>
</a>
</g>
</g>
<!-- Node1&#45;&gt;Node5 -->
<g id="edge4" class="edge"><title>Node1&#45;&gt;Node5</title>
<path fill="none" stroke="midnightblue" d="M52.4192,-125.522C66.1883,-110.437 87.3201,-88.5309 108,-72 114.582,-66.7382 122.374,-61.6445 129.183,-57.5137"/>
<polygon fill="midnightblue" stroke="midnightblue" points="49.6658,-123.349 45.5769,-133.123 54.8685,-128.032 49.6658,-123.349"/>
</g>
<!-- Node6 -->
<g id="node6" class="node"><title>Node6</title>
<g id="a_node6"><a xlink:href="reader_8c.html#a07addfee5457e48ddb310769dd0e39af" target="_top" xlink:title="read_declarations">
<polygon fill="white" stroke="black" points="222.5,-95.5 222.5,-114.5 315.5,-114.5 315.5,-95.5 222.5,-95.5"/>
<text text-anchor="middle" x="269" y="-102.5" font-family="Helvetica,sans-Serif" font-size="10.00">read_declarations</text>
</a>
</g>
</g>
<!-- Node1&#45;&gt;Node6 -->
<g id="edge17" class="edge"><title>Node1&#45;&gt;Node6</title>
<path fill="none" stroke="midnightblue" d="M58.6039,-127.818C72.1118,-119.273 90.2606,-109.449 108,-105 145.721,-95.5405 190.036,-96.4273 222.452,-99.1733"/>
<polygon fill="midnightblue" stroke="midnightblue" points="56.4825,-125.024 50.0557,-133.447 60.3324,-130.87 56.4825,-125.024"/>
</g>
<!-- Node7 -->
<g id="node7" class="node"><title>Node7</title>
<g id="a_node7"><a xlink:href="reader_8c.html#a279a8d9eb5a5ad8dce6c95b2647b9c98" target="_top" xlink:title="declare_start">
<polygon fill="white" stroke="black" points="110.5,-114.5 110.5,-133.5 183.5,-133.5 183.5,-114.5 110.5,-114.5"/>
<text text-anchor="middle" x="147" y="-121.5" font-family="Helvetica,sans-Serif" font-size="10.00">declare_start</text>
</a>
</g>
</g>
<!-- Node1&#45;&gt;Node7 -->
<g id="edge7" class="edge"><title>Node1&#45;&gt;Node7</title>
<path fill="none" stroke="midnightblue" d="M81.8908,-135.175C91.3998,-133.517 101.312,-131.79 110.419,-130.202"/>
<polygon fill="midnightblue" stroke="midnightblue" points="81.0384,-131.771 71.788,-136.936 82.2405,-138.667 81.0384,-131.771"/>
</g>
<!-- Node8 -->
<g id="node8" class="node"><title>Node8</title>
<g id="a_node8"><a xlink:href="reader_8c.html#a860dbc8da656fd831b19668da20207c7" target="_top" xlink:title="declare_types">
<polygon fill="white" stroke="black" points="108.5,-0.5 108.5,-19.5 185.5,-19.5 185.5,-0.5 108.5,-0.5"/>
<text text-anchor="middle" x="147" y="-7.5" font-family="Helvetica,sans-Serif" font-size="10.00">declare_types</text>
</a>
</g>
</g>
<!-- Node1&#45;&gt;Node8 -->
<g id="edge10" class="edge"><title>Node1&#45;&gt;Node8</title>
<path fill="none" stroke="midnightblue" d="M44.9308,-123.865C55.9525,-99.227 77.9833,-56.3371 108,-29 112.035,-25.3248 116.913,-22.1868 121.809,-19.5824"/>
<polygon fill="midnightblue" stroke="midnightblue" points="41.6472,-122.641 40.8901,-133.208 48.0721,-125.419 41.6472,-122.641"/>
</g>
<!-- Node9 -->
<g id="node9" class="node"><title>Node9</title>
<g id="a_node9"><a xlink:href="reader_8c.html#a7b9f905e2f933d429fa1b479fd058f03" target="_top" xlink:title="keyword">
<polygon fill="white" stroke="black" points="120.5,-152.5 120.5,-171.5 173.5,-171.5 173.5,-152.5 120.5,-152.5"/>
<text text-anchor="middle" x="147" y="-159.5" font-family="Helvetica,sans-Serif" font-size="10.00">keyword</text>
</a>
</g>
</g>
<!-- Node1&#45;&gt;Node9 -->
<g id="edge12" class="edge"><title>Node1&#45;&gt;Node9</title>
<path fill="none" stroke="midnightblue" d="M82.0012,-150.844C95.0089,-153.112 108.762,-155.509 120.171,-157.498"/>
<polygon fill="midnightblue" stroke="midnightblue" points="82.2405,-147.333 71.788,-149.064 81.0384,-154.229 82.2405,-147.333"/>
</g>
<!-- Node10 -->
<g id="node10" class="node"><title>Node10</title>
<g id="a_node10"><a xlink:href="reader_8c.html#aae3985d515e47c03afc20f92c0292531" target="_top" xlink:title="mark_symbol">
<polygon fill="white" stroke="black" points="231.5,-266.5 231.5,-285.5 306.5,-285.5 306.5,-266.5 231.5,-266.5"/>
<text text-anchor="middle" x="269" y="-273.5" font-family="Helvetica,sans-Serif" font-size="10.00">mark_symbol</text>
</a>
</g>
</g>
<!-- Node1&#45;&gt;Node10 -->
<g id="edge15" class="edge"><title>Node1&#45;&gt;Node10</title>
<path fill="none" stroke="midnightblue" d="M43.6918,-162.039C53.572,-187.112 74.585,-230.527 108,-252 145.099,-275.841 196.872,-279.466 231.367,-278.705"/>
<polygon fill="midnightblue" stroke="midnightblue" points="46.9178,-160.673 40.1353,-152.534 40.3617,-163.126 46.9178,-160.673"/>
</g>
<!-- Node2&#45;&gt;Node3 -->
<g id="edge2" class="edge"><title>Node2&#45;&gt;Node3</title>
<path fill="none" stroke="midnightblue" d="M310.377,-193.68C326.726,-198.815 345.288,-204.644 360.476,-209.414"/>
<polygon fill="midnightblue" stroke="midnightblue" points="311.123,-190.246 300.533,-190.589 309.025,-196.924 311.123,-190.246"/>
</g>
<!-- Node4 -->
<g id="node4" class="node"><title>Node4</title>
<g id="a_node4"><a xlink:href="reader_8c.html#a3351a985e2d992eea6ed332cc837ad5b" target="_top" xlink:title="reader">
<polygon fill="white" stroke="red" points="468,-190.5 468,-209.5 512,-209.5 512,-190.5 468,-190.5"/>
<text text-anchor="middle" x="490" y="-197.5" font-family="Helvetica,sans-Serif" font-size="10.00">reader</text>
</a>
</g>
</g>
<!-- Node3&#45;&gt;Node4 -->
<g id="edge3" class="edge"><title>Node3&#45;&gt;Node4</title>
<path fill="none" stroke="midnightblue" d="M441.671,-209.367C450.841,-207.552 459.979,-205.744 467.745,-204.207"/>
<polygon fill="midnightblue" stroke="midnightblue" points="440.9,-205.952 431.77,-211.327 442.259,-212.819 440.9,-205.952"/>
</g>
<!-- Node5&#45;&gt;Node6 -->
<g id="edge5" class="edge"><title>Node5&#45;&gt;Node6</title>
<path fill="none" stroke="midnightblue" d="M177.257,-61.8971C199.152,-72.2972 228.531,-86.252 247.849,-95.4284"/>
<polygon fill="midnightblue" stroke="midnightblue" points="178.62,-58.6697 168.085,-57.5405 175.616,-64.9926 178.62,-58.6697"/>
</g>
<!-- Node6&#45;&gt;Node4 -->
<g id="edge6" class="edge"><title>Node6&#45;&gt;Node4</title>
<path fill="none" stroke="midnightblue" d="M301.539,-118.681C346.798,-138.314 428.97,-173.96 467.708,-190.764"/>
<polygon fill="midnightblue" stroke="midnightblue" points="302.771,-115.401 292.204,-114.632 299.985,-121.822 302.771,-115.401"/>
</g>
<!-- Node7&#45;&gt;Node2 -->
<g id="edge9" class="edge"><title>Node7&#45;&gt;Node2</title>
<path fill="none" stroke="midnightblue" d="M177.257,-137.897C199.152,-148.297 228.531,-162.252 247.849,-171.428"/>
<polygon fill="midnightblue" stroke="midnightblue" points="178.62,-134.67 168.085,-133.541 175.616,-140.993 178.62,-134.67"/>
</g>
<!-- Node7&#45;&gt;Node6 -->
<g id="edge8" class="edge"><title>Node7&#45;&gt;Node6</title>
<path fill="none" stroke="midnightblue" d="M193.661,-116.77C203.084,-115.278 213.009,-113.707 222.43,-112.215"/>
<polygon fill="midnightblue" stroke="midnightblue" points="193.009,-113.33 183.679,-118.351 194.103,-120.244 193.009,-113.33"/>
</g>
<!-- Node8&#45;&gt;Node6 -->
<g id="edge11" class="edge"><title>Node8&#45;&gt;Node6</title>
<path fill="none" stroke="midnightblue" d="M178.891,-24.4954C181.347,-25.9326 183.747,-27.44 186,-29 215.365,-49.3293 244.879,-79.697 259.158,-95.1707"/>
<polygon fill="midnightblue" stroke="midnightblue" points="180.369,-21.3157 169.909,-19.6293 177.034,-27.4704 180.369,-21.3157"/>
</g>
<!-- Node9&#45;&gt;Node2 -->
<g id="edge14" class="edge"><title>Node9&#45;&gt;Node2</title>
<path fill="none" stroke="midnightblue" d="M183.648,-167.644C195.97,-169.595 209.943,-171.808 222.922,-173.863"/>
<polygon fill="midnightblue" stroke="midnightblue" points="184.167,-164.183 173.743,-166.076 183.073,-171.097 184.167,-164.183"/>
</g>
<!-- Node9&#45;&gt;Node6 -->
<g id="edge13" class="edge"><title>Node9&#45;&gt;Node6</title>
<path fill="none" stroke="midnightblue" d="M177.257,-148.103C199.152,-137.703 228.531,-123.748 247.849,-114.572"/>
<polygon fill="midnightblue" stroke="midnightblue" points="175.616,-145.007 168.085,-152.459 178.62,-151.33 175.616,-145.007"/>
</g>
<!-- Node10&#45;&gt;Node3 -->
<g id="edge16" class="edge"><title>Node10&#45;&gt;Node3</title>
<path fill="none" stroke="midnightblue" d="M299.501,-262.103C321.578,-251.703 351.202,-237.748 370.681,-228.572"/>
<polygon fill="midnightblue" stroke="midnightblue" points="297.808,-259.032 290.253,-266.459 300.791,-265.364 297.808,-259.032"/>
</g>
</g>
</svg>
