<?xml version="1.0" encoding="UTF-8" standalone="no"?>
<!DOCTYPE svg PUBLIC "-//W3C//DTD SVG 1.1//EN"
 "http://www.w3.org/Graphics/SVG/1.1/DTD/svg11.dtd">
<!-- Generated by graphviz version 2.36.0 (20140111.2315)
 -->
<!-- Title: unterminated_string Pages: 1 -->
<!--zoomable 256 -->
<svg id="main" version="1.1" xmlns="http://www.w3.org/2000/svg" xmlns:xlink="http://www.w3.org/1999/xlink" xml:space="preserve" onload="init(evt)">
<style type="text/css"><![CDATA[
.edge:hover path { stroke: red; }
.edge:hover polygon { stroke: red; fill: red; }
]]></style>
<script type="text/javascript"><![CDATA[
var edges = document.getElementsByTagName('g');
if (edges && edges.length) {
  for (var i=0;i<edges.length;i++) {
    if (edges[i].id.substr(0,4)=='edge') {
      edges[i].setAttribute('class','edge');
    }
  }
}
]]></script>
        <defs>
                <circle id="rim" cx="0" cy="0" r="7"/>
                <circle id="rim2" cx="0" cy="0" r="3.5"/>
                <g id="zoomPlus">
                        <use xlink:href="#rim" fill="#404040">
                                <set attributeName="fill" to="#808080" begin="zoomplus.mouseover" end="zoomplus.mouseout"/>
                        </use>
                        <path d="M-4,0h8M0,-4v8" fill="none" stroke="white" stroke-width="1.5" pointer-events="none"/>
                </g>
                <g id="zoomMin">
                        <use xlink:href="#rim" fill="#404040">
                                <set attributeName="fill" to="#808080" begin="zoomminus.mouseover" end="zoomminus.mouseout"/>
                        </use>
                        <path d="M-4,0h8" fill="none" stroke="white" stroke-width="1.5" pointer-events="none"/>
                </g>
                <g id="dirArrow">
                        <path fill="none" stroke="white" stroke-width="1.5" d="M0,-3.0v7 M-2.5,-0.5L0,-3.0L2.5,-0.5"/>
                </g>
               <g id="resetDef">
                       <use xlink:href="#rim2" fill="#404040">
                               <set attributeName="fill" to="#808080" begin="reset.mouseover" end="reset.mouseout"/>
                       </use>
               </g>
        </defs>

<script type="text/javascript">
var viewWidth = 554;
var viewHeight = 256;
var sectionId = 'dynsection-45';
</script>
<script xlink:href="svgpan.js"/>
<svg id="graph" class="graph">
<g id="viewport">
<title>unterminated_string</title>
<polygon fill="white" stroke="none" points="-4,4 -4,-252.243 550,-252.243 550,4 -4,4"/>
<!-- Node1 -->
<g id="node1" class="node"><title>Node1</title>
<polygon fill="#bfbfbf" stroke="black" points="0,-130.2 0,-149.2 102,-149.2 102,-130.2 0,-130.2"/>
<text text-anchor="middle" x="51" y="-137.2" font-family="Helvetica,sans-Serif" font-size="10.00">unterminated_string</text>
</g>
<!-- Node2 -->
<g id="node2" class="node"><title>Node2</title>
<g id="a_node2"><a xlink:href="reader_8c.html#abb83807b1bba8d346650d3e4ae4e7425" target="_top" xlink:title="copy_action">
<polygon fill="white" stroke="black" points="138.5,-225.2 138.5,-244.2 207.5,-244.2 207.5,-225.2 138.5,-225.2"/>
<text text-anchor="middle" x="173" y="-232.2" font-family="Helvetica,sans-Serif" font-size="10.00">copy_action</text>
</a>
</g>
</g>
<!-- Node1&#45;&gt;Node2 -->
<g id="edge1" class="edge"><title>Node1&#45;&gt;Node2</title>
<path fill="none" stroke="midnightblue" d="M72.5198,-155.945C97.6355,-175.828 139.348,-208.85 159.856,-225.086"/>
<polygon fill="midnightblue" stroke="midnightblue" points="74.4031,-152.972 64.3901,-149.509 70.0581,-158.46 74.4031,-152.972"/>
</g>
<!-- Node5 -->
<g id="node5" class="node"><title>Node5</title>
<g id="a_node5"><a xlink:href="reader_8c.html#a5719a5118a10bc1e96786f599eeb516f" target="_top" xlink:title="copy_text">
<polygon fill="white" stroke="black" points="143.5,-168.2 143.5,-187.2 202.5,-187.2 202.5,-168.2 143.5,-168.2"/>
<text text-anchor="middle" x="173" y="-175.2" font-family="Helvetica,sans-Serif" font-size="10.00">copy_text</text>
</a>
</g>
</g>
<!-- Node1&#45;&gt;Node5 -->
<g id="edge4" class="edge"><title>Node1&#45;&gt;Node5</title>
<path fill="none" stroke="midnightblue" d="M91.8789,-152.329C108.73,-157.665 127.976,-163.759 143.381,-168.638"/>
<polygon fill="midnightblue" stroke="midnightblue" points="92.8711,-148.972 82.2811,-149.289 90.7578,-155.645 92.8711,-148.972"/>
</g>
<!-- Node8 -->
<g id="node8" class="node"><title>Node8</title>
<g id="a_node8"><a xlink:href="reader_8c.html#a7ee403ea2ff911fb368d38ab6ef937c3" target="_top" xlink:title="copy_union">
<polygon fill="white" stroke="black" points="140,-16.2003 140,-35.2003 206,-35.2003 206,-16.2003 140,-16.2003"/>
<text text-anchor="middle" x="173" y="-23.2003" font-family="Helvetica,sans-Serif" font-size="10.00">copy_union</text>
</a>
</g>
</g>
<!-- Node1&#45;&gt;Node8 -->
<g id="edge9" class="edge"><title>Node1&#45;&gt;Node8</title>
<path fill="none" stroke="midnightblue" d="M69.7176,-122.869C95.1959,-98.6642 141.359,-54.8092 161.795,-35.3953"/>
<polygon fill="midnightblue" stroke="midnightblue" points="67.0705,-120.556 62.2311,-129.981 71.8918,-125.631 67.0705,-120.556"/>
</g>
<!-- Node9 -->
<g id="node9" class="node"><title>Node9</title>
<g id="a_node9"><a xlink:href="reader_8c.html#acfb64f081b0d9c4536e90c5352ce9c2c" target="_top" xlink:title="get_literal">
<polygon fill="white" stroke="black" points="143.5,-92.2003 143.5,-111.2 202.5,-111.2 202.5,-92.2003 143.5,-92.2003"/>
<text text-anchor="middle" x="173" y="-99.2003" font-family="Helvetica,sans-Serif" font-size="10.00">get_literal</text>
</a>
</g>
</g>
<!-- Node1&#45;&gt;Node9 -->
<g id="edge11" class="edge"><title>Node1&#45;&gt;Node9</title>
<path fill="none" stroke="midnightblue" d="M91.8789,-127.072C108.73,-121.736 127.976,-115.641 143.381,-110.763"/>
<polygon fill="midnightblue" stroke="midnightblue" points="90.7578,-123.756 82.2811,-130.111 92.8711,-130.429 90.7578,-123.756"/>
</g>
<!-- Node3 -->
<g id="node3" class="node"><title>Node3</title>
<g id="a_node3"><a xlink:href="reader_8c.html#af6d4fba61bb761ca9fe92fef83e8ee94" target="_top" xlink:title="read_grammar">
<polygon fill="white" stroke="black" points="379.5,-130.2 379.5,-149.2 458.5,-149.2 458.5,-130.2 379.5,-130.2"/>
<text text-anchor="middle" x="419" y="-137.2" font-family="Helvetica,sans-Serif" font-size="10.00">read_grammar</text>
</a>
</g>
</g>
<!-- Node2&#45;&gt;Node3 -->
<g id="edge2" class="edge"><title>Node2&#45;&gt;Node3</title>
<path fill="none" stroke="midnightblue" d="M217.728,-244.227C251.579,-249.408 298.804,-251.73 336,-234.7 375.223,-216.742 402.826,-169.734 413.32,-149.355"/>
<polygon fill="midnightblue" stroke="midnightblue" points="218.119,-240.744 207.678,-242.546 216.963,-247.648 218.119,-240.744"/>
</g>
<!-- Node4 -->
<g id="node4" class="node"><title>Node4</title>
<g id="a_node4"><a xlink:href="reader_8c.html#a3351a985e2d992eea6ed332cc837ad5b" target="_top" xlink:title="reader">
<polygon fill="white" stroke="red" points="502,-92.2003 502,-111.2 546,-111.2 546,-92.2003 502,-92.2003"/>
<text text-anchor="middle" x="524" y="-99.2003" font-family="Helvetica,sans-Serif" font-size="10.00">reader</text>
</a>
</g>
</g>
<!-- Node3&#45;&gt;Node4 -->
<g id="edge3" class="edge"><title>Node3&#45;&gt;Node4</title>
<path fill="none" stroke="midnightblue" d="M455.739,-126.515C471.127,-120.838 488.592,-114.394 501.869,-109.496"/>
<polygon fill="midnightblue" stroke="midnightblue" points="454.162,-123.366 445.991,-130.111 456.585,-129.934 454.162,-123.366"/>
</g>
<!-- Node6 -->
<g id="node6" class="node"><title>Node6</title>
<g id="a_node6"><a xlink:href="reader_8c.html#a07addfee5457e48ddb310769dd0e39af" target="_top" xlink:title="read_declarations">
<polygon fill="white" stroke="black" points="372.5,-54.2003 372.5,-73.2003 465.5,-73.2003 465.5,-54.2003 372.5,-54.2003"/>
<text text-anchor="middle" x="419" y="-61.2003" font-family="Helvetica,sans-Serif" font-size="10.00">read_declarations</text>
</a>
</g>
</g>
<!-- Node5&#45;&gt;Node6 -->
<g id="edge5" class="edge"><title>Node5&#45;&gt;Node6</title>
<path fill="none" stroke="midnightblue" d="M212.879,-180.805C247.233,-181.831 297.687,-179.025 336,-158.7 345.816,-153.493 392.059,-96.259 410.44,-73.2224"/>
<polygon fill="midnightblue" stroke="midnightblue" points="212.903,-177.303 202.765,-180.379 212.609,-184.297 212.903,-177.303"/>
</g>
<!-- Node7 -->
<g id="node7" class="node"><title>Node7</title>
<g id="a_node7"><a xlink:href="reader_8c.html#ac910677446efcb4dbebc9a6d3d90a9ff" target="_top" xlink:title="advance_to_start">
<polygon fill="white" stroke="black" points="244,-206.2 244,-225.2 336,-225.2 336,-206.2 244,-206.2"/>
<text text-anchor="middle" x="290" y="-213.2" font-family="Helvetica,sans-Serif" font-size="10.00">advance_to_start</text>
</a>
</g>
</g>
<!-- Node5&#45;&gt;Node7 -->
<g id="edge7" class="edge"><title>Node5&#45;&gt;Node7</title>
<path fill="none" stroke="midnightblue" d="M212.602,-190.456C228.177,-195.602 245.833,-201.436 260.245,-206.199"/>
<polygon fill="midnightblue" stroke="midnightblue" points="213.316,-187.006 202.723,-187.191 211.12,-193.652 213.316,-187.006"/>
</g>
<!-- Node6&#45;&gt;Node4 -->
<g id="edge6" class="edge"><title>Node6&#45;&gt;Node4</title>
<path fill="none" stroke="midnightblue" d="M455.739,-76.8854C471.127,-82.5626 488.592,-89.0063 501.869,-93.9044"/>
<polygon fill="midnightblue" stroke="midnightblue" points="456.585,-73.467 445.991,-73.2893 454.162,-80.0343 456.585,-73.467"/>
</g>
<!-- Node7&#45;&gt;Node3 -->
<g id="edge8" class="edge"><title>Node7&#45;&gt;Node3</title>
<path fill="none" stroke="midnightblue" d="M319.153,-201.104C324.776,-198.072 330.609,-194.841 336,-191.7 360.179,-177.613 387.479,-159.931 403.687,-149.239"/>
<polygon fill="midnightblue" stroke="midnightblue" points="317.189,-198.184 310.003,-205.97 320.476,-204.365 317.189,-198.184"/>
</g>
<!-- Node8&#45;&gt;Node6 -->
<g id="edge10" class="edge"><title>Node8&#45;&gt;Node6</title>
<path fill="none" stroke="midnightblue" d="M209.921,-13.1111C243.288,-3.3606 294.002,6.46254 336,-6.70032 365.779,-16.0338 394.221,-40.422 408.484,-54.0799"/>
<polygon fill="midnightblue" stroke="midnightblue" points="208.685,-9.82935 200.151,-16.1092 210.738,-16.5213 208.685,-9.82935"/>
</g>
<!-- Node10 -->
<g id="node10" class="node"><title>Node10</title>
<g id="a_node10"><a xlink:href="reader_8c.html#a0b749a023a959fabb8ed2778b46ec217" target="_top" xlink:title="declare_tokens">
<polygon fill="white" stroke="black" points="248.5,-16.2003 248.5,-35.2003 331.5,-35.2003 331.5,-16.2003 248.5,-16.2003"/>
<text text-anchor="middle" x="290" y="-23.2003" font-family="Helvetica,sans-Serif" font-size="10.00">declare_tokens</text>
</a>
</g>
</g>
<!-- Node9&#45;&gt;Node10 -->
<g id="edge12" class="edge"><title>Node9&#45;&gt;Node10</title>
<path fill="none" stroke="midnightblue" d="M191.81,-84.7937C205.357,-72.5534 224.87,-56.2052 244,-44.7003 249.814,-41.2038 256.389,-38.0372 262.681,-35.3357"/>
<polygon fill="midnightblue" stroke="midnightblue" points="189.185,-82.4537 184.203,-91.8041 193.928,-87.6013 189.185,-82.4537"/>
</g>
<!-- Node11 -->
<g id="node11" class="node"><title>Node11</title>
<g id="a_node11"><a xlink:href="reader_8c.html#a860dbc8da656fd831b19668da20207c7" target="_top" xlink:title="declare_types">
<polygon fill="white" stroke="black" points="251.5,-54.2003 251.5,-73.2003 328.5,-73.2003 328.5,-54.2003 251.5,-54.2003"/>
<text text-anchor="middle" x="290" y="-61.2003" font-family="Helvetica,sans-Serif" font-size="10.00">declare_types</text>
</a>
</g>
</g>
<!-- Node9&#45;&gt;Node11 -->
<g id="edge14" class="edge"><title>Node9&#45;&gt;Node11</title>
<path fill="none" stroke="midnightblue" d="M212.602,-88.9449C228.177,-83.7985 245.833,-77.9643 260.245,-73.202"/>
<polygon fill="midnightblue" stroke="midnightblue" points="211.12,-85.7485 202.723,-92.2093 213.316,-92.395 211.12,-85.7485"/>
</g>
<!-- Node12 -->
<g id="node12" class="node"><title>Node12</title>
<g id="a_node12"><a xlink:href="reader_8c.html#a34bf32e056d8bc6f1fb490f4efc7ce90" target="_top" xlink:title="add_symbol">
<polygon fill="white" stroke="black" points="255.5,-92.2003 255.5,-111.2 324.5,-111.2 324.5,-92.2003 255.5,-92.2003"/>
<text text-anchor="middle" x="290" y="-99.2003" font-family="Helvetica,sans-Serif" font-size="10.00">add_symbol</text>
</a>
</g>
</g>
<!-- Node9&#45;&gt;Node12 -->
<g id="edge16" class="edge"><title>Node9&#45;&gt;Node12</title>
<path fill="none" stroke="midnightblue" d="M212.885,-101.7C226.662,-101.7 242.036,-101.7 255.341,-101.7"/>
<polygon fill="midnightblue" stroke="midnightblue" points="212.723,-98.2004 202.723,-101.7 212.723,-105.2 212.723,-98.2004"/>
</g>
<!-- Node13 -->
<g id="node13" class="node"><title>Node13</title>
<g id="a_node13"><a xlink:href="reader_8c.html#aae3985d515e47c03afc20f92c0292531" target="_top" xlink:title="mark_symbol">
<polygon fill="white" stroke="black" points="252.5,-130.2 252.5,-149.2 327.5,-149.2 327.5,-130.2 252.5,-130.2"/>
<text text-anchor="middle" x="290" y="-137.2" font-family="Helvetica,sans-Serif" font-size="10.00">mark_symbol</text>
</a>
</g>
</g>
<!-- Node9&#45;&gt;Node13 -->
<g id="edge18" class="edge"><title>Node9&#45;&gt;Node13</title>
<path fill="none" stroke="midnightblue" d="M212.602,-114.456C228.177,-119.602 245.833,-125.436 260.245,-130.199"/>
<polygon fill="midnightblue" stroke="midnightblue" points="213.316,-111.006 202.723,-111.191 211.12,-117.652 213.316,-111.006"/>
</g>
<!-- Node10&#45;&gt;Node6 -->
<g id="edge13" class="edge"><title>Node10&#45;&gt;Node6</title>
<path fill="none" stroke="midnightblue" d="M332.894,-38.2356C350.171,-43.4051 369.871,-49.2994 385.963,-54.1144"/>
<polygon fill="midnightblue" stroke="midnightblue" points="333.631,-34.8028 323.047,-35.2893 331.624,-41.5091 333.631,-34.8028"/>
</g>
<!-- Node11&#45;&gt;Node6 -->
<g id="edge15" class="edge"><title>Node11&#45;&gt;Node6</title>
<path fill="none" stroke="midnightblue" d="M338.93,-63.7003C349.791,-63.7003 361.3,-63.7003 372.076,-63.7003"/>
<polygon fill="midnightblue" stroke="midnightblue" points="338.76,-60.2004 328.76,-63.7003 338.76,-67.2004 338.76,-60.2004"/>
</g>
<!-- Node12&#45;&gt;Node3 -->
<g id="edge17" class="edge"><title>Node12&#45;&gt;Node3</title>
<path fill="none" stroke="midnightblue" d="M332.894,-114.236C350.171,-119.405 369.871,-125.299 385.963,-130.114"/>
<polygon fill="midnightblue" stroke="midnightblue" points="333.631,-110.803 323.047,-111.289 331.624,-117.509 333.631,-110.803"/>
</g>
<!-- Node13&#45;&gt;Node3 -->
<g id="edge19" class="edge"><title>Node13&#45;&gt;Node3</title>
<path fill="none" stroke="midnightblue" d="M337.858,-139.7C351.435,-139.7 366.104,-139.7 379.135,-139.7"/>
<polygon fill="midnightblue" stroke="midnightblue" points="337.734,-136.2 327.734,-139.7 337.734,-143.2 337.734,-136.2"/>
</g>
</g>
</svg>
        <g id="navigator" transform="translate(0 0)" fill="#404254">
                <rect fill="#f2f5e9" fill-opacity="0.5" stroke="#606060" stroke-width=".5" x="0" y="0" width="60" height="60"/>
                <use id="zoomplus" xlink:href="#zoomPlus" x="17" y="9" onmousedown="handleZoom(evt,'in')"/>
                <use id="zoomminus" xlink:href="#zoomMin" x="42" y="9" onmousedown="handleZoom(evt,'out')"/>
                <use id="reset" xlink:href="#resetDef" x="30" y="36" onmousedown="handleReset()"/>
                <g id="arrowUp" xlink:href="#dirArrow" transform="translate(30 24)" onmousedown="handlePan(0,-1)">
                  <use xlink:href="#rim" fill="#404040">
                        <set attributeName="fill" to="#808080" begin="arrowUp.mouseover" end="arrowUp.mouseout"/>
                  </use>
                  <path fill="none" stroke="white" stroke-width="1.5" d="M0,-3.0v7 M-2.5,-0.5L0,-3.0L2.5,-0.5"/>
                </g>
                <g id="arrowRight" xlink:href="#dirArrow" transform="rotate(90) translate(36 -43)" onmousedown="handlePan(1,0)">
                  <use xlink:href="#rim" fill="#404040">
                        <set attributeName="fill" to="#808080" begin="arrowRight.mouseover" end="arrowRight.mouseout"/>
                  </use>
                  <path fill="none" stroke="white" stroke-width="1.5" d="M0,-3.0v7 M-2.5,-0.5L0,-3.0L2.5,-0.5"/>
                </g>
                <g id="arrowDown" xlink:href="#dirArrow" transform="rotate(180) translate(-30 -48)" onmousedown="handlePan(0,1)">
                  <use xlink:href="#rim" fill="#404040">
                        <set attributeName="fill" to="#808080" begin="arrowDown.mouseover" end="arrowDown.mouseout"/>
                  </use>
                  <path fill="none" stroke="white" stroke-width="1.5" d="M0,-3.0v7 M-2.5,-0.5L0,-3.0L2.5,-0.5"/>
                </g>
                <g id="arrowLeft" xlink:href="#dirArrow" transform="rotate(270) translate(-36 17)" onmousedown="handlePan(-1,0)">
                  <use xlink:href="#rim" fill="#404040">
                        <set attributeName="fill" to="#808080" begin="arrowLeft.mouseover" end="arrowLeft.mouseout"/>
                  </use>
                  <path fill="none" stroke="white" stroke-width="1.5" d="M0,-3.0v7 M-2.5,-0.5L0,-3.0L2.5,-0.5"/>
                </g>
        </g>
        <svg viewBox="0 0 15 15" width="100%" height="30px" preserveAspectRatio="xMaxYMin meet">
         <g id="arrow_out" transform="scale(0.3 0.3)">
          <a xlink:href="error_8c_a1be74faa1a912de2fd380aa9a4de6eb2_icgraph_org.svg" target="_base">
           <rect id="button" ry="5" rx="5" y="6" x="6" height="38" width="38"
                fill="#f2f5e9" fill-opacity="0.5" stroke="#606060" stroke-width="1.0"/>
           <path id="arrow"
             d="M 11.500037,31.436501 C 11.940474,20.09759 22.043105,11.32322 32.158766,21.979434 L 37.068811,17.246167 C 37.068811,17.246167 37.088388,32 37.088388,32 L 22.160133,31.978069 C 22.160133,31.978069 26.997745,27.140456 26.997745,27.140456 C 18.528582,18.264221 13.291696,25.230495 11.500037,31.436501 z"
             style="fill:#404040;"/>
          </a>
         </g>
        </svg>
</svg>
