<?xml version="1.0" encoding="UTF-8" standalone="no"?>
<!DOCTYPE svg PUBLIC "-//W3C//DTD SVG 1.1//EN"
 "http://www.w3.org/Graphics/SVG/1.1/DTD/svg11.dtd">
<!-- Generated by graphviz version 2.36.0 (20140111.2315)
 -->
<!-- Title: revalued_warning Pages: 1 -->
<svg width="430pt" height="28pt"
 viewBox="0.00 0.00 430.00 28.00" xmlns="http://www.w3.org/2000/svg" xmlns:xlink="http://www.w3.org/1999/xlink">
<g id="graph0" class="graph" transform="scale(1 1) rotate(0) translate(4 24)">
<title>revalued_warning</title>
<polygon fill="white" stroke="none" points="-4,4 -4,-24 426,-24 426,4 -4,4"/>
<!-- Node1 -->
<g id="node1" class="node"><title>Node1</title>
<polygon fill="#bfbfbf" stroke="black" points="0,-0.5 0,-19.5 92,-19.5 92,-0.5 0,-0.5"/>
<text text-anchor="middle" x="46" y="-7.5" font-family="Helvetica,sans-Serif" font-size="10.00">revalued_warning</text>
</g>
<!-- Node2 -->
<g id="node2" class="node"><title>Node2</title>
<g id="a_node2"><a xlink:href="reader_8c.html#a0b749a023a959fabb8ed2778b46ec217" target="_top" xlink:title="declare_tokens">
<polygon fill="white" stroke="black" points="128.5,-0.5 128.5,-19.5 211.5,-19.5 211.5,-0.5 128.5,-0.5"/>
<text text-anchor="middle" x="170" y="-7.5" font-family="Helvetica,sans-Serif" font-size="10.00">declare_tokens</text>
</a>
</g>
</g>
<!-- Node1&#45;&gt;Node2 -->
<g id="edge1" class="edge"><title>Node1&#45;&gt;Node2</title>
<path fill="none" stroke="midnightblue" d="M102.207,-10C110.931,-10 119.815,-10 128.136,-10"/>
<polygon fill="midnightblue" stroke="midnightblue" points="102.082,-6.5001 92.0817,-10 102.082,-13.5001 102.082,-6.5001"/>
</g>
<!-- Node3 -->
<g id="node3" class="node"><title>Node3</title>
<g id="a_node3"><a xlink:href="reader_8c.html#a07addfee5457e48ddb310769dd0e39af" target="_top" xlink:title="read_declarations">
<polygon fill="white" stroke="black" points="248.5,-0.5 248.5,-19.5 341.5,-19.5 341.5,-0.5 248.5,-0.5"/>
<text text-anchor="middle" x="295" y="-7.5" font-family="Helvetica,sans-Serif" font-size="10.00">read_declarations</text>
</a>
</g>
</g>
<!-- Node2&#45;&gt;Node3 -->
<g id="edge2" class="edge"><title>Node2&#45;&gt;Node3</title>
<path fill="none" stroke="midnightblue" d="M221.764,-10C230.565,-10 239.669,-10 248.325,-10"/>
<polygon fill="midnightblue" stroke="midnightblue" points="221.616,-6.5001 211.616,-10 221.616,-13.5001 221.616,-6.5001"/>
</g>
<!-- Node4 -->
<g id="node4" class="node"><title>Node4</title>
<g id="a_node4"><a xlink:href="reader_8c.html#a3351a985e2d992eea6ed332cc837ad5b" target="_top" xlink:title="reader">
<polygon fill="white" stroke="red" points="378,-0.5 378,-19.5 422,-19.5 422,-0.5 378,-0.5"/>
<text text-anchor="middle" x="400" y="-7.5" font-family="Helvetica,sans-Serif" font-size="10.00">reader</text>
</a>
</g>
</g>
<!-- Node3&#45;&gt;Node4 -->
<g id="edge3" class="edge"><title>Node3&#45;&gt;Node4</title>
<path fill="none" stroke="midnightblue" d="M351.836,-10C361.091,-10 370.157,-10 377.829,-10"/>
<polygon fill="midnightblue" stroke="midnightblue" points="351.777,-6.5001 341.777,-10 351.777,-13.5001 351.777,-6.5001"/>
</g>
</g>
</svg>
