<?xml version="1.0" encoding="UTF-8" standalone="no"?>
<!DOCTYPE svg PUBLIC "-//W3C//DTD SVG 1.1//EN"
 "http://www.w3.org/Graphics/SVG/1.1/DTD/svg11.dtd">
<!-- Generated by graphviz version 2.36.0 (20140111.2315)
 -->
<!-- Title: unterminated_text Pages: 1 -->
<svg width="538pt" height="66pt"
 viewBox="0.00 0.00 538.00 66.00" xmlns="http://www.w3.org/2000/svg" xmlns:xlink="http://www.w3.org/1999/xlink">
<g id="graph0" class="graph" transform="scale(1 1) rotate(0) translate(4 62)">
<title>unterminated_text</title>
<polygon fill="white" stroke="none" points="-4,4 -4,-62 534,-62 534,4 -4,4"/>
<!-- Node1 -->
<g id="node1" class="node"><title>Node1</title>
<polygon fill="#bfbfbf" stroke="black" points="0.5,-19.5 0.5,-38.5 95.5,-38.5 95.5,-19.5 0.5,-19.5"/>
<text text-anchor="middle" x="48" y="-26.5" font-family="Helvetica,sans-Serif" font-size="10.00">unterminated_text</text>
</g>
<!-- Node2 -->
<g id="node2" class="node"><title>Node2</title>
<g id="a_node2"><a xlink:href="reader_8c.html#a5719a5118a10bc1e96786f599eeb516f" target="_top" xlink:title="copy_text">
<polygon fill="white" stroke="black" points="132.5,-19.5 132.5,-38.5 191.5,-38.5 191.5,-19.5 132.5,-19.5"/>
<text text-anchor="middle" x="162" y="-26.5" font-family="Helvetica,sans-Serif" font-size="10.00">copy_text</text>
</a>
</g>
</g>
<!-- Node1&#45;&gt;Node2 -->
<g id="edge1" class="edge"><title>Node1&#45;&gt;Node2</title>
<path fill="none" stroke="midnightblue" d="M105.576,-29C114.875,-29 124.153,-29 132.384,-29"/>
<polygon fill="midnightblue" stroke="midnightblue" points="105.525,-25.5001 95.5251,-29 105.525,-32.5001 105.525,-25.5001"/>
</g>
<!-- Node3 -->
<g id="node3" class="node"><title>Node3</title>
<g id="a_node3"><a xlink:href="reader_8c.html#a07addfee5457e48ddb310769dd0e39af" target="_top" xlink:title="read_declarations">
<polygon fill="white" stroke="black" points="356.5,-38.5 356.5,-57.5 449.5,-57.5 449.5,-38.5 356.5,-38.5"/>
<text text-anchor="middle" x="403" y="-45.5" font-family="Helvetica,sans-Serif" font-size="10.00">read_declarations</text>
</a>
</g>
</g>
<!-- Node2&#45;&gt;Node3 -->
<g id="edge2" class="edge"><title>Node2&#45;&gt;Node3</title>
<path fill="none" stroke="midnightblue" d="M202.001,-32.1005C244.253,-35.4594 311.597,-40.8132 356.299,-44.3669"/>
<polygon fill="midnightblue" stroke="midnightblue" points="202.075,-28.5954 191.829,-31.2918 201.52,-35.5734 202.075,-28.5954"/>
</g>
<!-- Node5 -->
<g id="node5" class="node"><title>Node5</title>
<g id="a_node5"><a xlink:href="reader_8c.html#ac910677446efcb4dbebc9a6d3d90a9ff" target="_top" xlink:title="advance_to_start">
<polygon fill="white" stroke="black" points="228,-0.5 228,-19.5 320,-19.5 320,-0.5 228,-0.5"/>
<text text-anchor="middle" x="274" y="-7.5" font-family="Helvetica,sans-Serif" font-size="10.00">advance_to_start</text>
</a>
</g>
</g>
<!-- Node2&#45;&gt;Node5 -->
<g id="edge4" class="edge"><title>Node2&#45;&gt;Node5</title>
<path fill="none" stroke="midnightblue" d="M201.627,-22.3281C210.119,-20.8613 219.184,-19.2955 227.905,-17.7891"/>
<polygon fill="midnightblue" stroke="midnightblue" points="200.872,-18.9065 191.614,-24.0576 202.064,-25.8044 200.872,-18.9065"/>
</g>
<!-- Node4 -->
<g id="node4" class="node"><title>Node4</title>
<g id="a_node4"><a xlink:href="reader_8c.html#a3351a985e2d992eea6ed332cc837ad5b" target="_top" xlink:title="reader">
<polygon fill="white" stroke="red" points="486,-19.5 486,-38.5 530,-38.5 530,-19.5 486,-19.5"/>
<text text-anchor="middle" x="508" y="-26.5" font-family="Helvetica,sans-Serif" font-size="10.00">reader</text>
</a>
</g>
</g>
<!-- Node3&#45;&gt;Node4 -->
<g id="edge3" class="edge"><title>Node3&#45;&gt;Node4</title>
<path fill="none" stroke="midnightblue" d="M459.836,-37.7001C469.091,-35.993 478.157,-34.3205 485.829,-32.9053"/>
<polygon fill="midnightblue" stroke="midnightblue" points="458.976,-34.2996 449.777,-39.5557 460.246,-41.1835 458.976,-34.2996"/>
</g>
<!-- Node6 -->
<g id="node6" class="node"><title>Node6</title>
<g id="a_node6"><a xlink:href="reader_8c.html#af6d4fba61bb761ca9fe92fef83e8ee94" target="_top" xlink:title="read_grammar">
<polygon fill="white" stroke="black" points="363.5,-0.5 363.5,-19.5 442.5,-19.5 442.5,-0.5 363.5,-0.5"/>
<text text-anchor="middle" x="403" y="-7.5" font-family="Helvetica,sans-Serif" font-size="10.00">read_grammar</text>
</a>
</g>
</g>
<!-- Node5&#45;&gt;Node6 -->
<g id="edge5" class="edge"><title>Node5&#45;&gt;Node6</title>
<path fill="none" stroke="midnightblue" d="M330.237,-10C341.388,-10 352.886,-10 363.322,-10"/>
<polygon fill="midnightblue" stroke="midnightblue" points="330.133,-6.5001 320.133,-10 330.133,-13.5001 330.133,-6.5001"/>
</g>
<!-- Node6&#45;&gt;Node4 -->
<g id="edge6" class="edge"><title>Node6&#45;&gt;Node4</title>
<path fill="none" stroke="midnightblue" d="M452.746,-18.9921C464.362,-21.1348 476.165,-23.3121 485.783,-25.0862"/>
<polygon fill="midnightblue" stroke="midnightblue" points="453.115,-15.5012 442.646,-17.129 451.846,-22.385 453.115,-15.5012"/>
</g>
</g>
</svg>
