<?xml version="1.0" encoding="UTF-8" standalone="no"?>
<!DOCTYPE svg PUBLIC "-//W3C//DTD SVG 1.1//EN"
 "http://www.w3.org/Graphics/SVG/1.1/DTD/svg11.dtd">
<!-- Generated by graphviz version 2.36.0 (20140111.2315)
 -->
<!-- Title: illegal_tag Pages: 1 -->
<svg width="404pt" height="104pt"
 viewBox="0.00 0.00 404.00 104.00" xmlns="http://www.w3.org/2000/svg" xmlns:xlink="http://www.w3.org/1999/xlink">
<g id="graph0" class="graph" transform="scale(1 1) rotate(0) translate(4 100)">
<title>illegal_tag</title>
<polygon fill="white" stroke="none" points="-4,4 -4,-100 400,-100 400,4 -4,4"/>
<!-- Node1 -->
<g id="node1" class="node"><title>Node1</title>
<polygon fill="#bfbfbf" stroke="black" points="0,-38.5 0,-57.5 60,-57.5 60,-38.5 0,-38.5"/>
<text text-anchor="middle" x="30" y="-45.5" font-family="Helvetica,sans-Serif" font-size="10.00">illegal_tag</text>
</g>
<!-- Node2 -->
<g id="node2" class="node"><title>Node2</title>
<g id="a_node2"><a xlink:href="reader_8c.html#a0d5a7fe7641edf38078ba5e99536772d" target="_top" xlink:title="get_tag">
<polygon fill="white" stroke="black" points="96.5,-38.5 96.5,-57.5 145.5,-57.5 145.5,-38.5 96.5,-38.5"/>
<text text-anchor="middle" x="121" y="-45.5" font-family="Helvetica,sans-Serif" font-size="10.00">get_tag</text>
</a>
</g>
</g>
<!-- Node1&#45;&gt;Node2 -->
<g id="edge1" class="edge"><title>Node1&#45;&gt;Node2</title>
<path fill="none" stroke="midnightblue" d="M70.3661,-48C79.2579,-48 88.4267,-48 96.427,-48"/>
<polygon fill="midnightblue" stroke="midnightblue" points="70.142,-44.5001 60.1419,-48 70.1419,-51.5001 70.142,-44.5001"/>
</g>
<!-- Node3 -->
<g id="node3" class="node"><title>Node3</title>
<g id="a_node3"><a xlink:href="reader_8c.html#a0b749a023a959fabb8ed2778b46ec217" target="_top" xlink:title="declare_tokens">
<polygon fill="white" stroke="black" points="182.5,-76.5 182.5,-95.5 265.5,-95.5 265.5,-76.5 182.5,-76.5"/>
<text text-anchor="middle" x="224" y="-83.5" font-family="Helvetica,sans-Serif" font-size="10.00">declare_tokens</text>
</a>
</g>
</g>
<!-- Node2&#45;&gt;Node3 -->
<g id="edge2" class="edge"><title>Node2&#45;&gt;Node3</title>
<path fill="none" stroke="midnightblue" d="M155.319,-60.5357C169.123,-65.7295 184.872,-71.6549 197.703,-76.4822"/>
<polygon fill="midnightblue" stroke="midnightblue" points="156.272,-57.1549 145.68,-56.9093 153.807,-63.7066 156.272,-57.1549"/>
</g>
<!-- Node5 -->
<g id="node5" class="node"><title>Node5</title>
<g id="a_node5"><a xlink:href="reader_8c.html#a860dbc8da656fd831b19668da20207c7" target="_top" xlink:title="declare_types">
<polygon fill="white" stroke="black" points="185.5,-38.5 185.5,-57.5 262.5,-57.5 262.5,-38.5 185.5,-38.5"/>
<text text-anchor="middle" x="224" y="-45.5" font-family="Helvetica,sans-Serif" font-size="10.00">declare_types</text>
</a>
</g>
</g>
<!-- Node2&#45;&gt;Node5 -->
<g id="edge4" class="edge"><title>Node2&#45;&gt;Node5</title>
<path fill="none" stroke="midnightblue" d="M155.875,-48C165.304,-48 175.604,-48 185.242,-48"/>
<polygon fill="midnightblue" stroke="midnightblue" points="155.68,-44.5001 145.68,-48 155.68,-51.5001 155.68,-44.5001"/>
</g>
<!-- Node6 -->
<g id="node6" class="node"><title>Node6</title>
<g id="a_node6"><a xlink:href="reader_8c.html#abb83807b1bba8d346650d3e4ae4e7425" target="_top" xlink:title="copy_action">
<polygon fill="white" stroke="black" points="189.5,-0.5 189.5,-19.5 258.5,-19.5 258.5,-0.5 189.5,-0.5"/>
<text text-anchor="middle" x="224" y="-7.5" font-family="Helvetica,sans-Serif" font-size="10.00">copy_action</text>
</a>
</g>
</g>
<!-- Node2&#45;&gt;Node6 -->
<g id="edge6" class="edge"><title>Node2&#45;&gt;Node6</title>
<path fill="none" stroke="midnightblue" d="M155.319,-35.4643C169.123,-30.2705 184.872,-24.3451 197.703,-19.5178"/>
<polygon fill="midnightblue" stroke="midnightblue" points="153.807,-32.2934 145.68,-39.0907 156.272,-38.8451 153.807,-32.2934"/>
</g>
<!-- Node4 -->
<g id="node4" class="node"><title>Node4</title>
<g id="a_node4"><a xlink:href="reader_8c.html#a07addfee5457e48ddb310769dd0e39af" target="_top" xlink:title="read_declarations">
<polygon fill="white" stroke="red" points="302.5,-57.5 302.5,-76.5 395.5,-76.5 395.5,-57.5 302.5,-57.5"/>
<text text-anchor="middle" x="349" y="-64.5" font-family="Helvetica,sans-Serif" font-size="10.00">read_declarations</text>
</a>
</g>
</g>
<!-- Node3&#45;&gt;Node4 -->
<g id="edge3" class="edge"><title>Node3&#45;&gt;Node4</title>
<path fill="none" stroke="midnightblue" d="M275.764,-78.1584C284.565,-76.7989 293.669,-75.3925 302.325,-74.0555"/>
<polygon fill="midnightblue" stroke="midnightblue" points="274.964,-74.7404 265.616,-79.726 276.033,-81.6583 274.964,-74.7404"/>
</g>
<!-- Node5&#45;&gt;Node4 -->
<g id="edge5" class="edge"><title>Node5&#45;&gt;Node4</title>
<path fill="none" stroke="midnightblue" d="M272.569,-55.3481C282.378,-56.8633 292.687,-58.4557 302.423,-59.9597"/>
<polygon fill="midnightblue" stroke="midnightblue" points="272.99,-51.8716 262.572,-53.8039 271.921,-58.7895 272.99,-51.8716"/>
</g>
<!-- Node7 -->
<g id="node7" class="node"><title>Node7</title>
<g id="a_node7"><a xlink:href="reader_8c.html#af6d4fba61bb761ca9fe92fef83e8ee94" target="_top" xlink:title="read_grammar">
<polygon fill="white" stroke="red" points="309.5,-0.5 309.5,-19.5 388.5,-19.5 388.5,-0.5 309.5,-0.5"/>
<text text-anchor="middle" x="349" y="-7.5" font-family="Helvetica,sans-Serif" font-size="10.00">read_grammar</text>
</a>
</g>
</g>
<!-- Node6&#45;&gt;Node7 -->
<g id="edge7" class="edge"><title>Node6&#45;&gt;Node7</title>
<path fill="none" stroke="midnightblue" d="M268.869,-10C282.04,-10 296.39,-10 309.209,-10"/>
<polygon fill="midnightblue" stroke="midnightblue" points="268.61,-6.5001 258.61,-10 268.61,-13.5001 268.61,-6.5001"/>
</g>
</g>
</svg>
