<?xml version="1.0" encoding="UTF-8" standalone="no"?>
<!DOCTYPE svg PUBLIC "-//W3C//DTD SVG 1.1//EN"
 "http://www.w3.org/Graphics/SVG/1.1/DTD/svg11.dtd">
<!-- Generated by graphviz version 2.36.0 (20140111.2315)
 -->
<!-- Title: prec_redeclared Pages: 1 -->
<svg width="402pt" height="28pt"
 viewBox="0.00 0.00 402.00 28.00" xmlns="http://www.w3.org/2000/svg" xmlns:xlink="http://www.w3.org/1999/xlink">
<g id="graph0" class="graph" transform="scale(1 1) rotate(0) translate(4 24)">
<title>prec_redeclared</title>
<polygon fill="white" stroke="none" points="-4,4 -4,-24 398,-24 398,4 -4,4"/>
<!-- Node1 -->
<g id="node1" class="node"><title>Node1</title>
<polygon fill="#bfbfbf" stroke="black" points="0,-0.5 0,-19.5 86,-19.5 86,-0.5 0,-0.5"/>
<text text-anchor="middle" x="43" y="-7.5" font-family="Helvetica,sans-Serif" font-size="10.00">prec_redeclared</text>
</g>
<!-- Node2 -->
<g id="node2" class="node"><title>Node2</title>
<g id="a_node2"><a xlink:href="reader_8c.html#aae3985d515e47c03afc20f92c0292531" target="_top" xlink:title="mark_symbol">
<polygon fill="white" stroke="black" points="122.5,-0.5 122.5,-19.5 197.5,-19.5 197.5,-0.5 122.5,-0.5"/>
<text text-anchor="middle" x="160" y="-7.5" font-family="Helvetica,sans-Serif" font-size="10.00">mark_symbol</text>
</a>
</g>
</g>
<!-- Node1&#45;&gt;Node2 -->
<g id="edge1" class="edge"><title>Node1&#45;&gt;Node2</title>
<path fill="none" stroke="midnightblue" d="M96.2924,-10C105.021,-10 113.911,-10 122.149,-10"/>
<polygon fill="midnightblue" stroke="midnightblue" points="96.1688,-6.5001 86.1688,-10 96.1687,-13.5001 96.1688,-6.5001"/>
</g>
<!-- Node3 -->
<g id="node3" class="node"><title>Node3</title>
<g id="a_node3"><a xlink:href="reader_8c.html#af6d4fba61bb761ca9fe92fef83e8ee94" target="_top" xlink:title="read_grammar">
<polygon fill="white" stroke="black" points="234.5,-0.5 234.5,-19.5 313.5,-19.5 313.5,-0.5 234.5,-0.5"/>
<text text-anchor="middle" x="274" y="-7.5" font-family="Helvetica,sans-Serif" font-size="10.00">read_grammar</text>
</a>
</g>
</g>
<!-- Node2&#45;&gt;Node3 -->
<g id="edge2" class="edge"><title>Node2&#45;&gt;Node3</title>
<path fill="none" stroke="midnightblue" d="M207.83,-10C216.65,-10 225.782,-10 234.319,-10"/>
<polygon fill="midnightblue" stroke="midnightblue" points="207.673,-6.5001 197.673,-10 207.673,-13.5001 207.673,-6.5001"/>
</g>
<!-- Node4 -->
<g id="node4" class="node"><title>Node4</title>
<g id="a_node4"><a xlink:href="reader_8c.html#a3351a985e2d992eea6ed332cc837ad5b" target="_top" xlink:title="reader">
<polygon fill="white" stroke="red" points="350,-0.5 350,-19.5 394,-19.5 394,-0.5 350,-0.5"/>
<text text-anchor="middle" x="372" y="-7.5" font-family="Helvetica,sans-Serif" font-size="10.00">reader</text>
</a>
</g>
</g>
<!-- Node3&#45;&gt;Node4 -->
<g id="edge3" class="edge"><title>Node3&#45;&gt;Node4</title>
<path fill="none" stroke="midnightblue" d="M323.963,-10C333.035,-10 342.061,-10 349.745,-10"/>
<polygon fill="midnightblue" stroke="midnightblue" points="323.77,-6.5001 313.77,-10 323.77,-13.5001 323.77,-6.5001"/>
</g>
</g>
</svg>
