<?xml version="1.0" encoding="UTF-8" standalone="no"?>
<!DOCTYPE svg PUBLIC "-//W3C//DTD SVG 1.1//EN"
 "http://www.w3.org/Graphics/SVG/1.1/DTD/svg11.dtd">
<!-- Generated by graphviz version 2.36.0 (20140111.2315)
 -->
<!-- Title: terminal_start Pages: 1 -->
<svg width="532pt" height="66pt"
 viewBox="0.00 0.00 532.00 66.00" xmlns="http://www.w3.org/2000/svg" xmlns:xlink="http://www.w3.org/1999/xlink">
<g id="graph0" class="graph" transform="scale(1 1) rotate(0) translate(4 62)">
<title>terminal_start</title>
<polygon fill="white" stroke="none" points="-4,4 -4,-62 528,-62 528,4 -4,4"/>
<!-- Node1 -->
<g id="node1" class="node"><title>Node1</title>
<polygon fill="#bfbfbf" stroke="black" points="0,-19.5 0,-38.5 76,-38.5 76,-19.5 0,-19.5"/>
<text text-anchor="middle" x="38" y="-26.5" font-family="Helvetica,sans-Serif" font-size="10.00">terminal_start</text>
</g>
<!-- Node2 -->
<g id="node2" class="node"><title>Node2</title>
<g id="a_node2"><a xlink:href="reader_8c.html#ac910677446efcb4dbebc9a6d3d90a9ff" target="_top" xlink:title="advance_to_start">
<polygon fill="white" stroke="black" points="222,-38.5 222,-57.5 314,-57.5 314,-38.5 222,-38.5"/>
<text text-anchor="middle" x="268" y="-45.5" font-family="Helvetica,sans-Serif" font-size="10.00">advance_to_start</text>
</a>
</g>
</g>
<!-- Node1&#45;&gt;Node2 -->
<g id="edge1" class="edge"><title>Node1&#45;&gt;Node2</title>
<path fill="none" stroke="midnightblue" d="M86.1149,-32.9262C125.86,-36.2383 182.386,-40.9489 221.63,-44.2191"/>
<polygon fill="midnightblue" stroke="midnightblue" points="86.3957,-29.4376 76.1396,-32.095 85.8143,-36.4134 86.3957,-29.4376"/>
</g>
<!-- Node5 -->
<g id="node5" class="node"><title>Node5</title>
<g id="a_node5"><a xlink:href="reader_8c.html#a279a8d9eb5a5ad8dce6c95b2647b9c98" target="_top" xlink:title="declare_start">
<polygon fill="white" stroke="black" points="112.5,-0.5 112.5,-19.5 185.5,-19.5 185.5,-0.5 112.5,-0.5"/>
<text text-anchor="middle" x="149" y="-7.5" font-family="Helvetica,sans-Serif" font-size="10.00">declare_start</text>
</a>
</g>
</g>
<!-- Node1&#45;&gt;Node5 -->
<g id="edge4" class="edge"><title>Node1&#45;&gt;Node5</title>
<path fill="none" stroke="midnightblue" d="M86.3205,-20.7515C95.0818,-19.2243 104.095,-17.6532 112.433,-16.1997"/>
<polygon fill="midnightblue" stroke="midnightblue" points="85.4572,-17.3491 76.2068,-22.5144 86.6593,-24.2451 85.4572,-17.3491"/>
</g>
<!-- Node3 -->
<g id="node3" class="node"><title>Node3</title>
<g id="a_node3"><a xlink:href="reader_8c.html#af6d4fba61bb761ca9fe92fef83e8ee94" target="_top" xlink:title="read_grammar">
<polygon fill="white" stroke="black" points="357.5,-38.5 357.5,-57.5 436.5,-57.5 436.5,-38.5 357.5,-38.5"/>
<text text-anchor="middle" x="397" y="-45.5" font-family="Helvetica,sans-Serif" font-size="10.00">read_grammar</text>
</a>
</g>
</g>
<!-- Node2&#45;&gt;Node3 -->
<g id="edge2" class="edge"><title>Node2&#45;&gt;Node3</title>
<path fill="none" stroke="midnightblue" d="M324.237,-48C335.388,-48 346.886,-48 357.322,-48"/>
<polygon fill="midnightblue" stroke="midnightblue" points="324.133,-44.5001 314.133,-48 324.133,-51.5001 324.133,-44.5001"/>
</g>
<!-- Node4 -->
<g id="node4" class="node"><title>Node4</title>
<g id="a_node4"><a xlink:href="reader_8c.html#a3351a985e2d992eea6ed332cc837ad5b" target="_top" xlink:title="reader">
<polygon fill="white" stroke="red" points="480,-19.5 480,-38.5 524,-38.5 524,-19.5 480,-19.5"/>
<text text-anchor="middle" x="502" y="-26.5" font-family="Helvetica,sans-Serif" font-size="10.00">reader</text>
</a>
</g>
</g>
<!-- Node3&#45;&gt;Node4 -->
<g id="edge3" class="edge"><title>Node3&#45;&gt;Node4</title>
<path fill="none" stroke="midnightblue" d="M446.746,-39.0079C458.362,-36.8652 470.165,-34.6879 479.783,-32.9138"/>
<polygon fill="midnightblue" stroke="midnightblue" points="445.846,-35.615 436.646,-40.871 447.115,-42.4988 445.846,-35.615"/>
</g>
<!-- Node5&#45;&gt;Node2 -->
<g id="edge7" class="edge"><title>Node5&#45;&gt;Node2</title>
<path fill="none" stroke="midnightblue" d="M189.042,-22.6804C204.851,-27.8148 222.799,-33.6441 237.485,-38.4141"/>
<polygon fill="midnightblue" stroke="midnightblue" points="190.116,-19.3493 179.524,-19.589 187.954,-26.0069 190.116,-19.3493"/>
</g>
<!-- Node6 -->
<g id="node6" class="node"><title>Node6</title>
<g id="a_node6"><a xlink:href="reader_8c.html#a07addfee5457e48ddb310769dd0e39af" target="_top" xlink:title="read_declarations">
<polygon fill="white" stroke="black" points="350.5,-0.5 350.5,-19.5 443.5,-19.5 443.5,-0.5 350.5,-0.5"/>
<text text-anchor="middle" x="397" y="-7.5" font-family="Helvetica,sans-Serif" font-size="10.00">read_declarations</text>
</a>
</g>
</g>
<!-- Node5&#45;&gt;Node6 -->
<g id="edge5" class="edge"><title>Node5&#45;&gt;Node6</title>
<path fill="none" stroke="midnightblue" d="M195.673,-10C239.827,-10 306.347,-10 350.457,-10"/>
<polygon fill="midnightblue" stroke="midnightblue" points="195.508,-6.5001 185.508,-10 195.508,-13.5001 195.508,-6.5001"/>
</g>
<!-- Node6&#45;&gt;Node4 -->
<g id="edge6" class="edge"><title>Node6&#45;&gt;Node4</title>
<path fill="none" stroke="midnightblue" d="M453.836,-20.2999C463.091,-22.007 472.157,-23.6795 479.829,-25.0947"/>
<polygon fill="midnightblue" stroke="midnightblue" points="454.246,-16.8165 443.777,-18.4443 452.976,-23.7004 454.246,-16.8165"/>
</g>
</g>
</svg>
