<?xml version="1.0" encoding="UTF-8" standalone="no"?>
<!DOCTYPE svg PUBLIC "-//W3C//DTD SVG 1.1//EN"
 "http://www.w3.org/Graphics/SVG/1.1/DTD/svg11.dtd">
<!-- Generated by graphviz version 2.36.0 (20140111.2315)
 -->
<!-- Title: no_space Pages: 1 -->
<svg width="474pt" height="826pt"
 viewBox="0.00 0.00 474.00 826.00" xmlns="http://www.w3.org/2000/svg" xmlns:xlink="http://www.w3.org/1999/xlink">
<g id="graph0" class="graph" transform="scale(1 1) rotate(0) translate(4 822)">
<title>no_space</title>
<polygon fill="white" stroke="none" points="-4,4 -4,-822 470,-822 470,4 -4,4"/>
<!-- Node1 -->
<g id="node1" class="node"><title>Node1</title>
<polygon fill="#bfbfbf" stroke="black" points="0.5,-399.5 0.5,-418.5 59.5,-418.5 59.5,-399.5 0.5,-399.5"/>
<text text-anchor="middle" x="30" y="-406.5" font-family="Helvetica,sans-Serif" font-size="10.00">no_space</text>
</g>
<!-- Node2 -->
<g id="node2" class="node"><title>Node2</title>
<g id="a_node2"><a xlink:href="main_8c.html#af2aa58a9844ff8871f3b2ac54ad7b656" target="_top" xlink:title="allocate">
<polygon fill="white" stroke="black" points="119,-798.5 119,-817.5 169,-817.5 169,-798.5 119,-798.5"/>
<text text-anchor="middle" x="144" y="-805.5" font-family="Helvetica,sans-Serif" font-size="10.00">allocate</text>
</a>
</g>
</g>
<!-- Node1&#45;&gt;Node2 -->
<g id="edge1" class="edge"><title>Node1&#45;&gt;Node2</title>
<path fill="none" stroke="midnightblue" d="M31.8982,-428.907C35.4279,-498.894 50.4653,-732.463 96,-789 101.631,-795.992 110.236,-800.428 118.552,-803.236"/>
<polygon fill="midnightblue" stroke="midnightblue" points="35.3885,-428.618 31.4125,-418.798 28.3966,-428.954 35.3885,-428.618"/>
</g>
<!-- Node3 -->
<g id="node3" class="node"><title>Node3</title>
<g id="a_node3"><a xlink:href="reader_8c.html#a04707e6fc9527eaf37d68dafdc9483a9" target="_top" xlink:title="cachec">
<polygon fill="white" stroke="black" points="120,-760.5 120,-779.5 168,-779.5 168,-760.5 120,-760.5"/>
<text text-anchor="middle" x="144" y="-767.5" font-family="Helvetica,sans-Serif" font-size="10.00">cachec</text>
</a>
</g>
</g>
<!-- Node1&#45;&gt;Node3 -->
<g id="edge2" class="edge"><title>Node1&#45;&gt;Node3</title>
<path fill="none" stroke="midnightblue" d="M32.5347,-428.568C37.8952,-492.629 57.5799,-694.891 96,-746 101.946,-753.909 111.24,-759.417 119.999,-763.141"/>
<polygon fill="midnightblue" stroke="midnightblue" points="36.0221,-428.269 31.7231,-418.586 29.0452,-428.837 36.0221,-428.269"/>
</g>
<!-- Node4 -->
<g id="node4" class="node"><title>Node4</title>
<g id="a_node4"><a xlink:href="reader_8c.html#acfb64f081b0d9c4536e90c5352ce9c2c" target="_top" xlink:title="get_literal">
<polygon fill="white" stroke="red" points="252.5,-655.5 252.5,-674.5 311.5,-674.5 311.5,-655.5 252.5,-655.5"/>
<text text-anchor="middle" x="282" y="-662.5" font-family="Helvetica,sans-Serif" font-size="10.00">get_literal</text>
</a>
</g>
</g>
<!-- Node1&#45;&gt;Node4 -->
<g id="edge17" class="edge"><title>Node1&#45;&gt;Node4</title>
<path fill="none" stroke="midnightblue" d="M34.8962,-428.526C41.9787,-459.354 59.7105,-519.536 96,-556 128.979,-589.137 151.653,-575.382 192,-599 221.716,-616.395 253.389,-641.732 269.754,-655.4"/>
<polygon fill="midnightblue" stroke="midnightblue" points="38.284,-427.632 32.7541,-418.595 31.4413,-429.108 38.284,-427.632"/>
</g>
<!-- Node6 -->
<g id="node6" class="node"><title>Node6</title>
<g id="a_node6"><a xlink:href="reader_8c.html#a0d5a7fe7641edf38078ba5e99536772d" target="_top" xlink:title="get_tag">
<polygon fill="white" stroke="red" points="257.5,-703.5 257.5,-722.5 306.5,-722.5 306.5,-703.5 257.5,-703.5"/>
<text text-anchor="middle" x="282" y="-710.5" font-family="Helvetica,sans-Serif" font-size="10.00">get_tag</text>
</a>
</g>
</g>
<!-- Node1&#45;&gt;Node6 -->
<g id="edge18" class="edge"><title>Node1&#45;&gt;Node6</title>
<path fill="none" stroke="midnightblue" d="M32.1146,-428.976C36.0194,-490.78 51.3537,-676.891 96,-713 142.449,-750.567 219.062,-733.545 257.487,-721.427"/>
<polygon fill="midnightblue" stroke="midnightblue" points="35.5879,-428.422 31.4973,-418.649 28.6003,-428.84 35.5879,-428.422"/>
</g>
<!-- Node8 -->
<g id="node8" class="node"><title>Node8</title>
<g id="a_node8"><a xlink:href="reader_8c.html#a07addfee5457e48ddb310769dd0e39af" target="_top" xlink:title="read_declarations">
<polygon fill="white" stroke="red" points="372.5,-636.5 372.5,-655.5 465.5,-655.5 465.5,-636.5 372.5,-636.5"/>
<text text-anchor="middle" x="419" y="-643.5" font-family="Helvetica,sans-Serif" font-size="10.00">read_declarations</text>
</a>
</g>
</g>
<!-- Node1&#45;&gt;Node8 -->
<g id="edge28" class="edge"><title>Node1&#45;&gt;Node8</title>
<path fill="none" stroke="midnightblue" d="M37.1829,-428.377C46.1965,-453.632 65.2974,-497.565 96,-523 130.743,-551.783 149.697,-540.316 192,-556 266.842,-583.748 354.358,-619.579 395.041,-636.435"/>
<polygon fill="midnightblue" stroke="midnightblue" points="40.4624,-427.149 33.9331,-418.806 33.834,-429.4 40.4624,-427.149"/>
</g>
<!-- Node9 -->
<g id="node9" class="node"><title>Node9</title>
<g id="a_node9"><a xlink:href="main_8c.html#a8424435403fe377f38d43b7bdda78ac3" target="_top" xlink:title="create_file_names">
<polygon fill="white" stroke="red" points="96,-608.5 96,-627.5 192,-627.5 192,-608.5 96,-608.5"/>
<text text-anchor="middle" x="144" y="-615.5" font-family="Helvetica,sans-Serif" font-size="10.00">create_file_names</text>
</a>
</g>
</g>
<!-- Node1&#45;&gt;Node9 -->
<g id="edge8" class="edge"><title>Node1&#45;&gt;Node9</title>
<path fill="none" stroke="midnightblue" d="M33.1447,-429.083C38.0411,-465.912 53.1434,-544.966 96,-594 101.306,-600.071 108.518,-604.804 115.698,-608.401"/>
<polygon fill="midnightblue" stroke="midnightblue" points="36.5647,-428.209 31.8913,-418.701 29.6152,-429.048 36.5647,-428.209"/>
</g>
<!-- Node10 -->
<g id="node10" class="node"><title>Node10</title>
<g id="a_node10"><a xlink:href="symtab_8c.html#aeeef4e0a9c6733adb569531e181de719" target="_top" xlink:title="create_symbol_table">
<polygon fill="white" stroke="red" points="228.5,-361.5 228.5,-380.5 335.5,-380.5 335.5,-361.5 228.5,-361.5"/>
<text text-anchor="middle" x="282" y="-368.5" font-family="Helvetica,sans-Serif" font-size="10.00">create_symbol_table</text>
</a>
</g>
</g>
<!-- Node1&#45;&gt;Node10 -->
<g id="edge9" class="edge"><title>Node1&#45;&gt;Node10</title>
<path fill="none" stroke="midnightblue" d="M40.5415,-390.511C51.2329,-372.043 70.4686,-344.76 96,-333 154.372,-306.114 231.805,-342.672 264.896,-361.286"/>
<polygon fill="midnightblue" stroke="midnightblue" points="37.3655,-389.023 35.618,-399.472 43.5006,-392.393 37.3655,-389.023"/>
</g>
<!-- Node11 -->
<g id="node11" class="node"><title>Node11</title>
<g id="a_node11"><a xlink:href="reader_8c.html#a416a4e795e86e5666f1a734793f9636e" target="_top" xlink:title="dup_line">
<polygon fill="white" stroke="red" points="117.5,-684.5 117.5,-703.5 170.5,-703.5 170.5,-684.5 117.5,-684.5"/>
<text text-anchor="middle" x="144" y="-691.5" font-family="Helvetica,sans-Serif" font-size="10.00">dup_line</text>
</a>
</g>
</g>
<!-- Node1&#45;&gt;Node11 -->
<g id="edge10" class="edge"><title>Node1&#45;&gt;Node11</title>
<path fill="none" stroke="midnightblue" d="M33.4689,-428.708C40.7152,-483.726 63.48,-637.405 96,-675 101.528,-681.39 109.519,-685.66 117.349,-688.5"/>
<polygon fill="midnightblue" stroke="midnightblue" points="36.9084,-428.013 32.1602,-418.542 29.9657,-428.907 36.9084,-428.013"/>
</g>
<!-- Node12 -->
<g id="node12" class="node"><title>Node12</title>
<g id="a_node12"><a xlink:href="reader_8c.html#a2d5a55a1a526ac853c3234ea51ee18f8" target="_top" xlink:title="expand_items">
<polygon fill="white" stroke="red" points="105.5,-494.5 105.5,-513.5 182.5,-513.5 182.5,-494.5 105.5,-494.5"/>
<text text-anchor="middle" x="144" y="-501.5" font-family="Helvetica,sans-Serif" font-size="10.00">expand_items</text>
</a>
</g>
</g>
<!-- Node1&#45;&gt;Node12 -->
<g id="edge13" class="edge"><title>Node1&#45;&gt;Node12</title>
<path fill="none" stroke="midnightblue" d="M42.7311,-427.184C54.455,-444.122 73.8828,-469.086 96,-485 101.144,-488.701 107.112,-491.823 113.034,-494.399"/>
<polygon fill="midnightblue" stroke="midnightblue" points="45.5215,-425.061 37.0423,-418.709 39.7094,-428.963 45.5215,-425.061"/>
</g>
<!-- Node13 -->
<g id="node13" class="node"><title>Node13</title>
<g id="a_node13"><a xlink:href="reader_8c.html#a26f803a6175f255b34b89151133c51f6" target="_top" xlink:title="expand_rules">
<polygon fill="white" stroke="red" points="107,-456.5 107,-475.5 181,-475.5 181,-456.5 107,-456.5"/>
<text text-anchor="middle" x="144" y="-463.5" font-family="Helvetica,sans-Serif" font-size="10.00">expand_rules</text>
</a>
</g>
</g>
<!-- Node1&#45;&gt;Node13 -->
<g id="edge14" class="edge"><title>Node1&#45;&gt;Node13</title>
<path fill="none" stroke="midnightblue" d="M54.523,-423.863C66.6758,-431.254 81.8824,-440.065 96,-447 102.794,-450.337 110.327,-453.576 117.336,-456.407"/>
<polygon fill="midnightblue" stroke="midnightblue" points="56.2424,-420.811 45.8934,-418.542 52.5685,-426.77 56.2424,-420.811"/>
</g>
<!-- Node14 -->
<g id="node14" class="node"><title>Node14</title>
<g id="a_node14"><a xlink:href="reader_8c.html#a204317aa3b6d154f1abff12df35953df" target="_top" xlink:title="get_line">
<polygon fill="white" stroke="red" points="119,-646.5 119,-665.5 169,-665.5 169,-646.5 119,-646.5"/>
<text text-anchor="middle" x="144" y="-653.5" font-family="Helvetica,sans-Serif" font-size="10.00">get_line</text>
</a>
</g>
</g>
<!-- Node1&#45;&gt;Node14 -->
<g id="edge15" class="edge"><title>Node1&#45;&gt;Node14</title>
<path fill="none" stroke="midnightblue" d="M31.0849,-428.686C32.3218,-471.892 41.1898,-576.021 96,-637 102.001,-643.677 110.682,-648.049 118.953,-650.894"/>
<polygon fill="midnightblue" stroke="midnightblue" points="34.5836,-428.574 30.9088,-418.637 27.5847,-428.697 34.5836,-428.574"/>
</g>
<!-- Node15 -->
<g id="node15" class="node"><title>Node15</title>
<g id="a_node15"><a xlink:href="reader_8c.html#a329c5f0f613a0bef43be8262a531e952" target="_top" xlink:title="initialize_grammar">
<polygon fill="white" stroke="red" points="96.5,-380.5 96.5,-399.5 191.5,-399.5 191.5,-380.5 96.5,-380.5"/>
<text text-anchor="middle" x="144" y="-387.5" font-family="Helvetica,sans-Serif" font-size="10.00">initialize_grammar</text>
</a>
</g>
</g>
<!-- Node1&#45;&gt;Node15 -->
<g id="edge19" class="edge"><title>Node1&#45;&gt;Node15</title>
<path fill="none" stroke="midnightblue" d="M69.6405,-402.445C78.2063,-400.992 87.3734,-399.437 96.2243,-397.935"/>
<polygon fill="midnightblue" stroke="midnightblue" points="68.8258,-399.033 59.5521,-404.156 69.9967,-405.934 68.8258,-399.033"/>
</g>
<!-- Node16 -->
<g id="node16" class="node"><title>Node16</title>
<g id="a_node16"><a xlink:href="lr0_8c.html#a4a4e3e94f2e9df0df4826edfaa275d47" target="_top" xlink:title="initialize_states">
<polygon fill="white" stroke="red" points="102,-342.5 102,-361.5 186,-361.5 186,-342.5 102,-342.5"/>
<text text-anchor="middle" x="144" y="-349.5" font-family="Helvetica,sans-Serif" font-size="10.00">initialize_states</text>
</a>
</g>
</g>
<!-- Node1&#45;&gt;Node16 -->
<g id="edge20" class="edge"><title>Node1&#45;&gt;Node16</title>
<path fill="none" stroke="midnightblue" d="M54.523,-394.137C66.6758,-386.746 81.8824,-377.935 96,-371 102.794,-367.663 110.327,-364.424 117.336,-361.593"/>
<polygon fill="midnightblue" stroke="midnightblue" points="52.5685,-391.23 45.8934,-399.458 56.2424,-397.189 52.5685,-391.23"/>
</g>
<!-- Node17 -->
<g id="node17" class="node"><title>Node17</title>
<g id="a_node17"><a xlink:href="symtab_8c.html#aa9c886d3ff3a8214ae40b7bf98ad7dd4" target="_top" xlink:title="make_bucket">
<polygon fill="white" stroke="red" points="106.5,-418.5 106.5,-437.5 181.5,-437.5 181.5,-418.5 106.5,-418.5"/>
<text text-anchor="middle" x="144" y="-425.5" font-family="Helvetica,sans-Serif" font-size="10.00">make_bucket</text>
</a>
</g>
</g>
<!-- Node1&#45;&gt;Node17 -->
<g id="edge21" class="edge"><title>Node1&#45;&gt;Node17</title>
<path fill="none" stroke="midnightblue" d="M69.6668,-415.56C81.5879,-417.582 94.6715,-419.801 106.446,-421.799"/>
<polygon fill="midnightblue" stroke="midnightblue" points="69.9967,-412.066 59.5521,-413.844 68.8258,-418.967 69.9967,-412.066"/>
</g>
<!-- Node18 -->
<g id="node18" class="node"><title>Node18</title>
<g id="a_node18"><a xlink:href="output_8c.html#a47dee73a8684c92137c4358133450a88" target="_top" xlink:title="output_debug">
<polygon fill="white" stroke="red" points="106.5,-266.5 106.5,-285.5 181.5,-285.5 181.5,-266.5 106.5,-266.5"/>
<text text-anchor="middle" x="144" y="-273.5" font-family="Helvetica,sans-Serif" font-size="10.00">output_debug</text>
</a>
</g>
</g>
<!-- Node1&#45;&gt;Node18 -->
<g id="edge23" class="edge"><title>Node1&#45;&gt;Node18</title>
<path fill="none" stroke="midnightblue" d="M38.3845,-390.058C48.3954,-366.427 68.2621,-325.976 96,-300 102.286,-294.113 110.293,-289.314 117.909,-285.597"/>
<polygon fill="midnightblue" stroke="midnightblue" points="35.1336,-388.761 34.5941,-399.342 41.6143,-391.407 35.1336,-388.761"/>
</g>
<!-- Node19 -->
<g id="node19" class="node"><title>Node19</title>
<g id="a_node19"><a xlink:href="group__memopt.html#gac095dad6352a9764b63b751824aa223d" target="_top" xlink:title="pack_grammar">
<polygon fill="white" stroke="red" points="103.5,-228.5 103.5,-247.5 184.5,-247.5 184.5,-228.5 103.5,-228.5"/>
<text text-anchor="middle" x="144" y="-235.5" font-family="Helvetica,sans-Serif" font-size="10.00">pack_grammar</text>
</a>
</g>
</g>
<!-- Node1&#45;&gt;Node19 -->
<g id="edge24" class="edge"><title>Node1&#45;&gt;Node19</title>
<path fill="none" stroke="midnightblue" d="M34.3646,-389.535C40.8277,-357.719 57.8655,-294.382 96,-257 99.8968,-253.18 104.663,-250.096 109.649,-247.615"/>
<polygon fill="midnightblue" stroke="midnightblue" points="30.922,-388.904 32.5023,-399.38 37.8001,-390.205 30.922,-388.904"/>
</g>
<!-- Node20 -->
<g id="node20" class="node"><title>Node20</title>
<g id="a_node20"><a xlink:href="group__memopt.html#ga9f8a3fd57d7687e5e2fe6b548fee5bc5" target="_top" xlink:title="pack_names">
<polygon fill="white" stroke="red" points="108,-190.5 108,-209.5 180,-209.5 180,-190.5 108,-190.5"/>
<text text-anchor="middle" x="144" y="-197.5" font-family="Helvetica,sans-Serif" font-size="10.00">pack_names</text>
</a>
</g>
</g>
<!-- Node1&#45;&gt;Node20 -->
<g id="edge25" class="edge"><title>Node1&#45;&gt;Node20</title>
<path fill="none" stroke="midnightblue" d="M32.4649,-389.038C36.2812,-351.065 49.7295,-267.866 96,-219 99.6308,-215.166 104.142,-212.085 108.92,-209.615"/>
<polygon fill="midnightblue" stroke="midnightblue" points="28.9535,-389.015 31.5641,-399.283 35.9266,-389.628 28.9535,-389.015"/>
</g>
<!-- Node21 -->
<g id="node21" class="node"><title>Node21</title>
<g id="a_node21"><a xlink:href="group__memopt.html#gad4d46b52f342745925534555eb129ffb" target="_top" xlink:title="pack_symbols">
<polygon fill="white" stroke="red" points="104,-152.5 104,-171.5 184,-171.5 184,-152.5 104,-152.5"/>
<text text-anchor="middle" x="144" y="-159.5" font-family="Helvetica,sans-Serif" font-size="10.00">pack_symbols</text>
</a>
</g>
</g>
<!-- Node1&#45;&gt;Node21 -->
<g id="edge26" class="edge"><title>Node1&#45;&gt;Node21</title>
<path fill="none" stroke="midnightblue" d="M31.0849,-389.314C32.3218,-346.108 41.1898,-241.979 96,-181 99.4124,-177.204 103.691,-174.152 108.268,-171.703"/>
<polygon fill="midnightblue" stroke="midnightblue" points="27.5847,-389.303 30.9088,-399.363 34.5836,-389.426 27.5847,-389.303"/>
</g>
<!-- Node22 -->
<g id="node22" class="node"><title>Node22</title>
<g id="a_node22"><a xlink:href="output_8c.html#a0bb10d48c7349f5223563cafe2d47cee" target="_top" xlink:title="pack_vector">
<polygon fill="white" stroke="red" points="109,-114.5 109,-133.5 179,-133.5 179,-114.5 109,-114.5"/>
<text text-anchor="middle" x="144" y="-121.5" font-family="Helvetica,sans-Serif" font-size="10.00">pack_vector</text>
</a>
</g>
</g>
<!-- Node1&#45;&gt;Node22 -->
<g id="edge27" class="edge"><title>Node1&#45;&gt;Node22</title>
<path fill="none" stroke="midnightblue" d="M33.4689,-389.292C40.7152,-334.274 63.48,-180.595 96,-143 99.4547,-139.006 103.872,-135.841 108.61,-133.335"/>
<polygon fill="midnightblue" stroke="midnightblue" points="29.9657,-389.093 32.1602,-399.458 36.9084,-389.987 29.9657,-389.093"/>
</g>
<!-- Node23 -->
<g id="node23" class="node"><title>Node23</title>
<g id="a_node23"><a xlink:href="lr0_8c.html#a13b7dc617c6f314880ce2338dac35568" target="_top" xlink:title="set_nullable">
<polygon fill="white" stroke="red" points="110,-76.5 110,-95.5 178,-95.5 178,-76.5 110,-76.5"/>
<text text-anchor="middle" x="144" y="-83.5" font-family="Helvetica,sans-Serif" font-size="10.00">set_nullable</text>
</a>
</g>
</g>
<!-- Node1&#45;&gt;Node23 -->
<g id="edge29" class="edge"><title>Node1&#45;&gt;Node23</title>
<path fill="none" stroke="midnightblue" d="M32.8131,-389.298C38.7143,-329.076 59.1498,-148.871 96,-105 99.7361,-100.552 104.67,-97.1347 109.935,-94.5122"/>
<polygon fill="midnightblue" stroke="midnightblue" points="29.317,-389.091 31.8527,-399.378 36.2854,-389.755 29.317,-389.091"/>
</g>
<!-- Node24 -->
<g id="node24" class="node"><title>Node24</title>
<g id="a_node24"><a xlink:href="mkpar_8c.html#a00b425b13b9daa8d3e647ea34588b411" target="_top" xlink:title="unused_rules">
<polygon fill="white" stroke="red" points="107,-38.5 107,-57.5 181,-57.5 181,-38.5 107,-38.5"/>
<text text-anchor="middle" x="144" y="-45.5" font-family="Helvetica,sans-Serif" font-size="10.00">unused_rules</text>
</a>
</g>
</g>
<!-- Node1&#45;&gt;Node24 -->
<g id="edge30" class="edge"><title>Node1&#45;&gt;Node24</title>
<path fill="none" stroke="midnightblue" d="M32.3212,-389.006C37.0148,-323.57 54.857,-117.133 96,-67 99.1267,-63.1901 103.135,-60.1378 107.488,-57.694"/>
<polygon fill="midnightblue" stroke="midnightblue" points="28.8144,-388.986 31.6158,-399.204 35.7977,-389.469 28.8144,-388.986"/>
</g>
<!-- Node25 -->
<g id="node25" class="node"><title>Node25</title>
<g id="a_node25"><a xlink:href="verbose_8c.html#a51c39b5f33bea9632e037e0b94fa0db8" target="_top" xlink:title="verbose">
<polygon fill="white" stroke="red" points="118.5,-0.5 118.5,-19.5 169.5,-19.5 169.5,-0.5 118.5,-0.5"/>
<text text-anchor="middle" x="144" y="-7.5" font-family="Helvetica,sans-Serif" font-size="10.00">verbose</text>
</a>
</g>
</g>
<!-- Node1&#45;&gt;Node25 -->
<g id="edge31" class="edge"><title>Node1&#45;&gt;Node25</title>
<path fill="none" stroke="midnightblue" d="M31.8982,-389.093C35.4279,-319.106 50.4653,-85.5374 96,-29 101.521,-22.1454 109.9,-17.7468 118.062,-14.9314"/>
<polygon fill="midnightblue" stroke="midnightblue" points="28.3966,-389.046 31.4125,-399.202 35.3885,-389.382 28.3966,-389.046"/>
</g>
<!-- Node3&#45;&gt;Node4 -->
<g id="edge3" class="edge"><title>Node3&#45;&gt;Node4</title>
<path fill="none" stroke="midnightblue" d="M161.102,-753.05C177.121,-736.742 202.874,-711.977 228,-694 238.322,-686.615 250.726,-679.733 260.939,-674.527"/>
<polygon fill="midnightblue" stroke="midnightblue" points="158.512,-750.694 154.065,-760.31 163.538,-755.566 158.512,-750.694"/>
</g>
<!-- Node5 -->
<g id="node5" class="node"><title>Node5</title>
<g id="a_node5"><a xlink:href="reader_8c.html#a47f6ab5db224a190b33568ed55a03eaf" target="_top" xlink:title="get_name">
<polygon fill="white" stroke="red" points="252.5,-779.5 252.5,-798.5 311.5,-798.5 311.5,-779.5 252.5,-779.5"/>
<text text-anchor="middle" x="282" y="-786.5" font-family="Helvetica,sans-Serif" font-size="10.00">get_name</text>
</a>
</g>
</g>
<!-- Node3&#45;&gt;Node5 -->
<g id="edge4" class="edge"><title>Node3&#45;&gt;Node5</title>
<path fill="none" stroke="midnightblue" d="M178.23,-774.642C200.851,-777.803 230.495,-781.944 252.129,-784.967"/>
<polygon fill="midnightblue" stroke="midnightblue" points="178.459,-771.14 168.071,-773.223 177.49,-778.073 178.459,-771.14"/>
</g>
<!-- Node3&#45;&gt;Node6 -->
<g id="edge5" class="edge"><title>Node3&#45;&gt;Node6</title>
<path fill="none" stroke="midnightblue" d="M173.845,-756.062C189.687,-748.592 209.768,-739.426 228,-732 237.505,-728.128 248.129,-724.236 257.355,-720.992"/>
<polygon fill="midnightblue" stroke="midnightblue" points="172.113,-753.01 164.582,-760.462 175.117,-759.332 172.113,-753.01"/>
</g>
<!-- Node7 -->
<g id="node7" class="node"><title>Node7</title>
<g id="a_node7"><a xlink:href="reader_8c.html#a7b9f905e2f933d429fa1b479fd058f03" target="_top" xlink:title="keyword">
<polygon fill="white" stroke="red" points="255.5,-741.5 255.5,-760.5 308.5,-760.5 308.5,-741.5 255.5,-741.5"/>
<text text-anchor="middle" x="282" y="-748.5" font-family="Helvetica,sans-Serif" font-size="10.00">keyword</text>
</a>
</g>
</g>
<!-- Node3&#45;&gt;Node7 -->
<g id="edge6" class="edge"><title>Node3&#45;&gt;Node7</title>
<path fill="none" stroke="midnightblue" d="M178.079,-765.379C201.917,-762.048 233.611,-757.621 255.499,-754.563"/>
<polygon fill="midnightblue" stroke="midnightblue" points="177.49,-761.927 168.071,-766.777 178.459,-768.86 177.49,-761.927"/>
</g>
<!-- Node7&#45;&gt;Node8 -->
<g id="edge7" class="edge"><title>Node7&#45;&gt;Node8</title>
<path fill="none" stroke="midnightblue" d="M318.233,-740.982C324.397,-738.51 330.569,-735.533 336,-732 369.03,-710.515 398.419,-673.217 411.213,-655.662"/>
<polygon fill="midnightblue" stroke="midnightblue" points="316.864,-737.756 308.659,-744.459 319.253,-744.335 316.864,-737.756"/>
</g>
<!-- Node11&#45;&gt;Node4 -->
<g id="edge11" class="edge"><title>Node11&#45;&gt;Node4</title>
<path fill="none" stroke="midnightblue" d="M180.372,-686.457C202.736,-681.689 231.27,-675.604 252.238,-671.133"/>
<polygon fill="midnightblue" stroke="midnightblue" points="179.631,-683.037 170.581,-688.545 181.091,-689.883 179.631,-683.037"/>
</g>
<!-- Node11&#45;&gt;Node6 -->
<g id="edge12" class="edge"><title>Node11&#45;&gt;Node6</title>
<path fill="none" stroke="midnightblue" d="M180.797,-699.001C204.982,-702.38 236.232,-706.746 257.354,-709.697"/>
<polygon fill="midnightblue" stroke="midnightblue" points="180.969,-695.491 170.581,-697.574 180,-702.424 180.969,-695.491"/>
</g>
<!-- Node14&#45;&gt;Node4 -->
<g id="edge16" class="edge"><title>Node14&#45;&gt;Node4</title>
<path fill="none" stroke="midnightblue" d="M179.122,-658.258C201.596,-659.745 230.7,-661.671 252.043,-663.084"/>
<polygon fill="midnightblue" stroke="midnightblue" points="179.21,-654.756 169.001,-657.588 178.748,-661.741 179.21,-654.756"/>
</g>
<!-- Node17&#45;&gt;Node10 -->
<g id="edge22" class="edge"><title>Node17&#45;&gt;Node10</title>
<path fill="none" stroke="midnightblue" d="M178.252,-414.651C182.876,-412.768 187.56,-410.845 192,-409 214.806,-399.522 240.767,-388.4 258.739,-380.646"/>
<polygon fill="midnightblue" stroke="midnightblue" points="176.899,-411.423 168.947,-418.424 179.529,-417.91 176.899,-411.423"/>
</g>
</g>
</svg>
