<?xml version="1.0" encoding="UTF-8" standalone="no"?>
<!DOCTYPE svg PUBLIC "-//W3C//DTD SVG 1.1//EN"
 "http://www.w3.org/Graphics/SVG/1.1/DTD/svg11.dtd">
<!-- Generated by graphviz version 2.36.0 (20140111.2315)
 -->
<!-- Title: unterminated_comment Pages: 1 -->
<!--zoomable 442 -->
<svg id="main" version="1.1" xmlns="http://www.w3.org/2000/svg" xmlns:xlink="http://www.w3.org/1999/xlink" xml:space="preserve" onload="init(evt)">
<style type="text/css"><![CDATA[
.edge:hover path { stroke: red; }
.edge:hover polygon { stroke: red; fill: red; }
]]></style>
<script type="text/javascript"><![CDATA[
var edges = document.getElementsByTagName('g');
if (edges && edges.length) {
  for (var i=0;i<edges.length;i++) {
    if (edges[i].id.substr(0,4)=='edge') {
      edges[i].setAttribute('class','edge');
    }
  }
}
]]></script>
        <defs>
                <circle id="rim" cx="0" cy="0" r="7"/>
                <circle id="rim2" cx="0" cy="0" r="3.5"/>
                <g id="zoomPlus">
                        <use xlink:href="#rim" fill="#404040">
                                <set attributeName="fill" to="#808080" begin="zoomplus.mouseover" end="zoomplus.mouseout"/>
                        </use>
                        <path d="M-4,0h8M0,-4v8" fill="none" stroke="white" stroke-width="1.5" pointer-events="none"/>
                </g>
                <g id="zoomMin">
                        <use xlink:href="#rim" fill="#404040">
                                <set attributeName="fill" to="#808080" begin="zoomminus.mouseover" end="zoomminus.mouseout"/>
                        </use>
                        <path d="M-4,0h8" fill="none" stroke="white" stroke-width="1.5" pointer-events="none"/>
                </g>
                <g id="dirArrow">
                        <path fill="none" stroke="white" stroke-width="1.5" d="M0,-3.0v7 M-2.5,-0.5L0,-3.0L2.5,-0.5"/>
                </g>
               <g id="resetDef">
                       <use xlink:href="#rim2" fill="#404040">
                               <set attributeName="fill" to="#808080" begin="reset.mouseover" end="reset.mouseout"/>
                       </use>
               </g>
        </defs>

<script type="text/javascript">
var viewWidth = 796;
var viewHeight = 442;
var sectionId = 'dynsection-46';
</script>
<script xlink:href="svgpan.js"/>
<svg id="graph" class="graph">
<g id="viewport">
<title>unterminated_comment</title>
<polygon fill="white" stroke="none" points="-4,4 -4,-437.574 792,-437.574 792,4 -4,4"/>
<!-- Node1 -->
<g id="node1" class="node"><title>Node1</title>
<polygon fill="#bfbfbf" stroke="black" points="0.5,-233.074 0.5,-252.074 119.5,-252.074 119.5,-233.074 0.5,-233.074"/>
<text text-anchor="middle" x="60" y="-240.074" font-family="Helvetica,sans-Serif" font-size="10.00">unterminated_comment</text>
</g>
<!-- Node2 -->
<g id="node2" class="node"><title>Node2</title>
<g id="a_node2"><a xlink:href="reader_8c.html#abb83807b1bba8d346650d3e4ae4e7425" target="_top" xlink:title="copy_action">
<polygon fill="white" stroke="black" points="497.5,-262.074 497.5,-281.074 566.5,-281.074 566.5,-262.074 497.5,-262.074"/>
<text text-anchor="middle" x="532" y="-269.074" font-family="Helvetica,sans-Serif" font-size="10.00">copy_action</text>
</a>
</g>
</g>
<!-- Node1&#45;&gt;Node2 -->
<g id="edge1" class="edge"><title>Node1&#45;&gt;Node2</title>
<path fill="none" stroke="midnightblue" d="M129.812,-246.82C232.2,-253.138 420.799,-264.775 497.369,-269.499"/>
<polygon fill="midnightblue" stroke="midnightblue" points="129.772,-243.311 119.576,-246.189 129.341,-250.298 129.772,-243.311"/>
</g>
<!-- Node5 -->
<g id="node5" class="node"><title>Node5</title>
<g id="a_node5"><a xlink:href="reader_8c.html#a5719a5118a10bc1e96786f599eeb516f" target="_top" xlink:title="copy_text">
<polygon fill="white" stroke="black" points="382.5,-338.074 382.5,-357.074 441.5,-357.074 441.5,-338.074 382.5,-338.074"/>
<text text-anchor="middle" x="412" y="-345.074" font-family="Helvetica,sans-Serif" font-size="10.00">copy_text</text>
</a>
</g>
</g>
<!-- Node1&#45;&gt;Node5 -->
<g id="edge4" class="edge"><title>Node1&#45;&gt;Node5</title>
<path fill="none" stroke="midnightblue" d="M88.6051,-256.724C107.272,-265.877 132.679,-277.54 156,-285.574 236.121,-313.177 334.429,-333.399 382.201,-342.394"/>
<polygon fill="midnightblue" stroke="midnightblue" points="90.0174,-253.518 79.5049,-252.199 86.9006,-259.786 90.0174,-253.518"/>
</g>
<!-- Node8 -->
<g id="node8" class="node"><title>Node8</title>
<g id="a_node8"><a xlink:href="reader_8c.html#a7ee403ea2ff911fb368d38ab6ef937c3" target="_top" xlink:title="copy_union">
<polygon fill="white" stroke="black" points="272,-15.0743 272,-34.0743 338,-34.0743 338,-15.0743 272,-15.0743"/>
<text text-anchor="middle" x="305" y="-22.0743" font-family="Helvetica,sans-Serif" font-size="10.00">copy_union</text>
</a>
</g>
</g>
<!-- Node1&#45;&gt;Node8 -->
<g id="edge9" class="edge"><title>Node1&#45;&gt;Node8</title>
<path fill="none" stroke="midnightblue" d="M79.2296,-226.22C127.144,-183.235 255.536,-68.0523 293.369,-34.1114"/>
<polygon fill="midnightblue" stroke="midnightblue" points="76.8613,-223.643 71.755,-232.926 81.5358,-228.853 76.8613,-223.643"/>
</g>
<!-- Node9 -->
<g id="node9" class="node"><title>Node9</title>
<g id="a_node9"><a xlink:href="reader_8c.html#ac812a775973bb1eb24e86256b2de6b8b" target="_top" xlink:title="skip_comment">
<polygon fill="white" stroke="black" points="156,-205.074 156,-224.074 236,-224.074 236,-205.074 156,-205.074"/>
<text text-anchor="middle" x="196" y="-212.074" font-family="Helvetica,sans-Serif" font-size="10.00">skip_comment</text>
</a>
</g>
</g>
<!-- Node1&#45;&gt;Node9 -->
<g id="edge11" class="edge"><title>Node1&#45;&gt;Node9</title>
<path fill="none" stroke="midnightblue" d="M116.629,-230.95C129.759,-228.207 143.489,-225.338 155.722,-222.782"/>
<polygon fill="midnightblue" stroke="midnightblue" points="115.813,-227.545 106.74,-233.017 117.245,-234.397 115.813,-227.545"/>
</g>
<!-- Node3 -->
<g id="node3" class="node"><title>Node3</title>
<g id="a_node3"><a xlink:href="reader_8c.html#af6d4fba61bb761ca9fe92fef83e8ee94" target="_top" xlink:title="read_grammar">
<polygon fill="white" stroke="black" points="621.5,-281.074 621.5,-300.074 700.5,-300.074 700.5,-281.074 621.5,-281.074"/>
<text text-anchor="middle" x="661" y="-288.074" font-family="Helvetica,sans-Serif" font-size="10.00">read_grammar</text>
</a>
</g>
</g>
<!-- Node2&#45;&gt;Node3 -->
<g id="edge2" class="edge"><title>Node2&#45;&gt;Node3</title>
<path fill="none" stroke="midnightblue" d="M576.879,-278.139C591.286,-280.294 607.188,-282.673 621.192,-284.768"/>
<polygon fill="midnightblue" stroke="midnightblue" points="577.108,-274.634 566.7,-276.616 576.072,-281.557 577.108,-274.634"/>
</g>
<!-- Node4 -->
<g id="node4" class="node"><title>Node4</title>
<g id="a_node4"><a xlink:href="reader_8c.html#a3351a985e2d992eea6ed332cc837ad5b" target="_top" xlink:title="reader">
<polygon fill="white" stroke="red" points="744,-214.074 744,-233.074 788,-233.074 788,-214.074 744,-214.074"/>
<text text-anchor="middle" x="766" y="-221.074" font-family="Helvetica,sans-Serif" font-size="10.00">reader</text>
</a>
</g>
</g>
<!-- Node3&#45;&gt;Node4 -->
<g id="edge3" class="edge"><title>Node3&#45;&gt;Node4</title>
<path fill="none" stroke="midnightblue" d="M685.272,-275.436C705.205,-262.47 733.302,-244.193 750.27,-233.156"/>
<polygon fill="midnightblue" stroke="midnightblue" points="683.232,-272.588 676.757,-280.975 687.048,-278.456 683.232,-272.588"/>
</g>
<!-- Node6 -->
<g id="node6" class="node"><title>Node6</title>
<g id="a_node6"><a xlink:href="reader_8c.html#ac910677446efcb4dbebc9a6d3d90a9ff" target="_top" xlink:title="advance_to_start">
<polygon fill="white" stroke="black" points="486,-300.074 486,-319.074 578,-319.074 578,-300.074 486,-300.074"/>
<text text-anchor="middle" x="532" y="-307.074" font-family="Helvetica,sans-Serif" font-size="10.00">advance_to_start</text>
</a>
</g>
</g>
<!-- Node5&#45;&gt;Node6 -->
<g id="edge5" class="edge"><title>Node5&#45;&gt;Node6</title>
<path fill="none" stroke="midnightblue" d="M451.336,-335.229C467.611,-329.988 486.289,-323.973 501.466,-319.085"/>
<polygon fill="midnightblue" stroke="midnightblue" points="450.01,-331.979 441.565,-338.376 452.156,-338.642 450.01,-331.979"/>
</g>
<!-- Node7 -->
<g id="node7" class="node"><title>Node7</title>
<g id="a_node7"><a xlink:href="reader_8c.html#a07addfee5457e48ddb310769dd0e39af" target="_top" xlink:title="read_declarations">
<polygon fill="white" stroke="black" points="614.5,-129.074 614.5,-148.074 707.5,-148.074 707.5,-129.074 614.5,-129.074"/>
<text text-anchor="middle" x="661" y="-136.074" font-family="Helvetica,sans-Serif" font-size="10.00">read_declarations</text>
</a>
</g>
</g>
<!-- Node5&#45;&gt;Node7 -->
<g id="edge7" class="edge"><title>Node5&#45;&gt;Node7</title>
<path fill="none" stroke="midnightblue" d="M451.953,-353.389C488.146,-356.597 541.766,-355.496 578,-328.574 609.434,-305.219 646.795,-183.861 657.194,-148.347"/>
<polygon fill="midnightblue" stroke="midnightblue" points="452.085,-349.884 441.778,-352.334 451.363,-356.847 452.085,-349.884"/>
</g>
<!-- Node6&#45;&gt;Node3 -->
<g id="edge6" class="edge"><title>Node6&#45;&gt;Node3</title>
<path fill="none" stroke="midnightblue" d="M588.237,-301.311C599.388,-299.642 610.886,-297.922 621.322,-296.361"/>
<polygon fill="midnightblue" stroke="midnightblue" points="587.505,-297.881 578.133,-302.822 588.541,-304.804 587.505,-297.881"/>
</g>
<!-- Node7&#45;&gt;Node4 -->
<g id="edge8" class="edge"><title>Node7&#45;&gt;Node4</title>
<path fill="none" stroke="midnightblue" d="M681.56,-154.716C702.751,-172.204 735.864,-199.53 753.322,-213.937"/>
<polygon fill="midnightblue" stroke="midnightblue" points="683.756,-151.99 673.815,-148.325 679.301,-157.389 683.756,-151.99"/>
</g>
<!-- Node8&#45;&gt;Node7 -->
<g id="edge10" class="edge"><title>Node8&#45;&gt;Node7</title>
<path fill="none" stroke="midnightblue" d="M348.275,-13.2757C404.24,-0.738206 504.415,13.1399 578,-24.5743 622.043,-47.1476 647.798,-105.604 656.575,-128.841"/>
<polygon fill="midnightblue" stroke="midnightblue" points="347.3,-9.90899 338.356,-15.5883 348.89,-16.7261 347.3,-9.90899"/>
</g>
<!-- Node10 -->
<g id="node10" class="node"><title>Node10</title>
<g id="a_node10"><a xlink:href="reader_8c.html#a11446424d65669df0f3a9e3b1cca57fa" target="_top" xlink:title="nextc">
<polygon fill="white" stroke="black" points="284.5,-186.074 284.5,-205.074 325.5,-205.074 325.5,-186.074 284.5,-186.074"/>
<text text-anchor="middle" x="305" y="-193.074" font-family="Helvetica,sans-Serif" font-size="10.00">nextc</text>
</a>
</g>
</g>
<!-- Node9&#45;&gt;Node10 -->
<g id="edge12" class="edge"><title>Node9&#45;&gt;Node10</title>
<path fill="none" stroke="midnightblue" d="M246.375,-205.807C259.796,-203.424 273.567,-200.978 284.279,-199.076"/>
<polygon fill="midnightblue" stroke="midnightblue" points="245.469,-202.413 236.235,-207.607 246.693,-209.305 245.469,-202.413"/>
</g>
<!-- Node10&#45;&gt;Node3 -->
<g id="edge32" class="edge"><title>Node10&#45;&gt;Node3</title>
<path fill="none" stroke="midnightblue" d="M307.056,-215.237C310.233,-252.317 322.967,-331.948 374,-366.574 398.446,-383.161 555.58,-363.48 578,-354.574 608.546,-342.441 637.105,-315.212 651.063,-300.484"/>
<polygon fill="midnightblue" stroke="midnightblue" points="310.542,-214.921 306.345,-205.193 303.56,-215.415 310.542,-214.921"/>
</g>
<!-- Node10&#45;&gt;Node6 -->
<g id="edge15" class="edge"><title>Node10&#45;&gt;Node6</title>
<path fill="none" stroke="midnightblue" d="M322.597,-212.373C335.644,-224.824 354.77,-241.488 374,-252.574 412.311,-274.66 460.692,-290.66 493.55,-299.987"/>
<polygon fill="midnightblue" stroke="midnightblue" points="324.911,-209.739 315.313,-205.252 320.018,-214.745 324.911,-209.739"/>
</g>
<!-- Node10&#45;&gt;Node7 -->
<g id="edge31" class="edge"><title>Node10&#45;&gt;Node7</title>
<path fill="none" stroke="midnightblue" d="M335.775,-190.78C397.659,-180.816 540.529,-157.811 614.212,-145.947"/>
<polygon fill="midnightblue" stroke="midnightblue" points="334.853,-187.383 325.537,-192.429 335.966,-194.294 334.853,-187.383"/>
</g>
<!-- Node11 -->
<g id="node11" class="node"><title>Node11</title>
<g id="a_node11"><a xlink:href="reader_8c.html#a34bf32e056d8bc6f1fb490f4efc7ce90" target="_top" xlink:title="add_symbol">
<polygon fill="white" stroke="black" points="497.5,-186.074 497.5,-205.074 566.5,-205.074 566.5,-186.074 497.5,-186.074"/>
<text text-anchor="middle" x="532" y="-193.074" font-family="Helvetica,sans-Serif" font-size="10.00">add_symbol</text>
</a>
</g>
</g>
<!-- Node10&#45;&gt;Node11 -->
<g id="edge13" class="edge"><title>Node10&#45;&gt;Node11</title>
<path fill="none" stroke="midnightblue" d="M335.658,-195.574C377.416,-195.574 453.33,-195.574 497.213,-195.574"/>
<polygon fill="midnightblue" stroke="midnightblue" points="335.574,-192.074 325.574,-195.574 335.574,-199.074 335.574,-192.074"/>
</g>
<!-- Node12 -->
<g id="node12" class="node"><title>Node12</title>
<g id="a_node12"><a xlink:href="reader_8c.html#a475e9b3fc05ea753aeeb760cea34a511" target="_top" xlink:title="copy_ident">
<polygon fill="white" stroke="black" points="380,-110.074 380,-129.074 444,-129.074 444,-110.074 380,-110.074"/>
<text text-anchor="middle" x="412" y="-117.074" font-family="Helvetica,sans-Serif" font-size="10.00">copy_ident</text>
</a>
</g>
</g>
<!-- Node10&#45;&gt;Node12 -->
<g id="edge16" class="edge"><title>Node10&#45;&gt;Node12</title>
<path fill="none" stroke="midnightblue" d="M326.363,-179.344C339.714,-168.868 357.66,-155.096 374,-143.574 381.008,-138.633 388.967,-133.421 395.702,-129.122"/>
<polygon fill="midnightblue" stroke="midnightblue" points="323.998,-176.753 318.317,-185.696 328.335,-182.247 323.998,-176.753"/>
</g>
<!-- Node13 -->
<g id="node13" class="node"><title>Node13</title>
<g id="a_node13"><a xlink:href="reader_8c.html#a279a8d9eb5a5ad8dce6c95b2647b9c98" target="_top" xlink:title="declare_start">
<polygon fill="white" stroke="black" points="375.5,-224.074 375.5,-243.074 448.5,-243.074 448.5,-224.074 375.5,-224.074"/>
<text text-anchor="middle" x="412" y="-231.074" font-family="Helvetica,sans-Serif" font-size="10.00">declare_start</text>
</a>
</g>
</g>
<!-- Node10&#45;&gt;Node13 -->
<g id="edge18" class="edge"><title>Node10&#45;&gt;Node13</title>
<path fill="none" stroke="midnightblue" d="M335.348,-206.196C350.803,-211.789 369.604,-218.593 384.597,-224.019"/>
<polygon fill="midnightblue" stroke="midnightblue" points="336.344,-202.834 325.75,-202.722 333.962,-209.416 336.344,-202.834"/>
</g>
<!-- Node14 -->
<g id="node14" class="node"><title>Node14</title>
<g id="a_node14"><a xlink:href="reader_8c.html#a0b749a023a959fabb8ed2778b46ec217" target="_top" xlink:title="declare_tokens">
<polygon fill="white" stroke="black" points="490.5,-72.0743 490.5,-91.0743 573.5,-91.0743 573.5,-72.0743 490.5,-72.0743"/>
<text text-anchor="middle" x="532" y="-79.0743" font-family="Helvetica,sans-Serif" font-size="10.00">declare_tokens</text>
</a>
</g>
</g>
<!-- Node10&#45;&gt;Node14 -->
<g id="edge21" class="edge"><title>Node10&#45;&gt;Node14</title>
<path fill="none" stroke="midnightblue" d="M309.414,-176.019C315.908,-145.517 333.218,-87.5268 374,-62.5743 402.813,-44.9455 416.446,-58.6917 450,-62.5743 466.07,-64.4338 483.583,-68.303 498.2,-72.0674"/>
<polygon fill="midnightblue" stroke="midnightblue" points="305.966,-175.416 307.487,-185.901 312.836,-176.756 305.966,-175.416"/>
</g>
<!-- Node15 -->
<g id="node15" class="node"><title>Node15</title>
<g id="a_node15"><a xlink:href="reader_8c.html#a860dbc8da656fd831b19668da20207c7" target="_top" xlink:title="declare_types">
<polygon fill="white" stroke="black" points="493.5,-34.0743 493.5,-53.0743 570.5,-53.0743 570.5,-34.0743 493.5,-34.0743"/>
<text text-anchor="middle" x="532" y="-41.0743" font-family="Helvetica,sans-Serif" font-size="10.00">declare_types</text>
</a>
</g>
</g>
<!-- Node10&#45;&gt;Node15 -->
<g id="edge23" class="edge"><title>Node10&#45;&gt;Node15</title>
<path fill="none" stroke="midnightblue" d="M308.67,-175.757C314.248,-143.049 330.462,-78.5091 374,-49.5743 409.212,-26.1729 459.34,-28.9096 493.412,-34.7115"/>
<polygon fill="midnightblue" stroke="midnightblue" points="305.173,-175.473 307.113,-185.889 312.091,-176.536 305.173,-175.473"/>
</g>
<!-- Node16 -->
<g id="node16" class="node"><title>Node16</title>
<g id="a_node16"><a xlink:href="reader_8c.html#a0d5a7fe7641edf38078ba5e99536772d" target="_top" xlink:title="get_tag">
<polygon fill="white" stroke="black" points="387.5,-72.0743 387.5,-91.0743 436.5,-91.0743 436.5,-72.0743 387.5,-72.0743"/>
<text text-anchor="middle" x="412" y="-79.0743" font-family="Helvetica,sans-Serif" font-size="10.00">get_tag</text>
</a>
</g>
</g>
<!-- Node10&#45;&gt;Node16 -->
<g id="edge25" class="edge"><title>Node10&#45;&gt;Node16</title>
<path fill="none" stroke="midnightblue" d="M315.724,-176.991C327.33,-156.233 348.416,-122.653 374,-100.574 378.155,-96.9888 383.104,-93.8577 388.009,-91.2271"/>
<polygon fill="midnightblue" stroke="midnightblue" points="312.641,-175.335 310.943,-185.793 318.792,-178.676 312.641,-175.335"/>
</g>
<!-- Node17 -->
<g id="node17" class="node"><title>Node17</title>
<g id="a_node17"><a xlink:href="reader_8c.html#aae3985d515e47c03afc20f92c0292531" target="_top" xlink:title="mark_symbol">
<polygon fill="white" stroke="black" points="374.5,-414.074 374.5,-433.074 449.5,-433.074 449.5,-414.074 374.5,-414.074"/>
<text text-anchor="middle" x="412" y="-421.074" font-family="Helvetica,sans-Serif" font-size="10.00">mark_symbol</text>
</a>
</g>
</g>
<!-- Node10&#45;&gt;Node17 -->
<g id="edge29" class="edge"><title>Node10&#45;&gt;Node17</title>
<path fill="none" stroke="midnightblue" d="M308.172,-215.131C313.352,-253.978 329.501,-342.067 374,-399.574 378.498,-405.388 384.826,-410.216 390.978,-413.98"/>
<polygon fill="midnightblue" stroke="midnightblue" points="311.638,-214.641 306.942,-205.143 304.691,-215.496 311.638,-214.641"/>
</g>
<!-- Node11&#45;&gt;Node3 -->
<g id="edge14" class="edge"><title>Node11&#45;&gt;Node3</title>
<path fill="none" stroke="midnightblue" d="M554.37,-211.559C580.912,-231.414 625.348,-264.654 647.148,-280.96"/>
<polygon fill="midnightblue" stroke="midnightblue" points="556.217,-208.57 546.113,-205.383 552.024,-214.176 556.217,-208.57"/>
</g>
<!-- Node12&#45;&gt;Node7 -->
<g id="edge17" class="edge"><title>Node12&#45;&gt;Node7</title>
<path fill="none" stroke="midnightblue" d="M454.396,-122.759C498.61,-126.16 568.492,-131.535 614.294,-135.058"/>
<polygon fill="midnightblue" stroke="midnightblue" points="454.522,-119.258 444.283,-121.981 453.985,-126.237 454.522,-119.258"/>
</g>
<!-- Node13&#45;&gt;Node6 -->
<g id="edge19" class="edge"><title>Node13&#45;&gt;Node6</title>
<path fill="none" stroke="midnightblue" d="M431.293,-250.079C445.497,-262.326 466.067,-278.862 486,-290.574 491.996,-294.097 498.767,-297.312 505.203,-300.056"/>
<polygon fill="midnightblue" stroke="midnightblue" points="433.544,-247.397 423.719,-243.432 428.927,-252.659 433.544,-247.397"/>
</g>
<!-- Node13&#45;&gt;Node7 -->
<g id="edge20" class="edge"><title>Node13&#45;&gt;Node7</title>
<path fill="none" stroke="midnightblue" d="M458.707,-235.808C493.021,-235.747 540.37,-231.88 578,-214.574 611.33,-199.246 640.141,-165.127 652.939,-148.317"/>
<polygon fill="midnightblue" stroke="midnightblue" points="458.533,-232.306 448.501,-235.715 458.469,-239.306 458.533,-232.306"/>
</g>
<!-- Node14&#45;&gt;Node7 -->
<g id="edge22" class="edge"><title>Node14&#45;&gt;Node7</title>
<path fill="none" stroke="midnightblue" d="M563.652,-95.3317C586.857,-105.746 618.136,-119.785 638.674,-129.003"/>
<polygon fill="midnightblue" stroke="midnightblue" points="564.813,-92.0164 554.257,-91.1148 561.947,-98.4027 564.813,-92.0164"/>
</g>
<!-- Node15&#45;&gt;Node7 -->
<g id="edge24" class="edge"><title>Node15&#45;&gt;Node7</title>
<path fill="none" stroke="midnightblue" d="M569.196,-57.5178C572.246,-59.0912 575.222,-60.7799 578,-62.5743 608.327,-82.1623 637.872,-113.406 651.762,-129.028"/>
<polygon fill="midnightblue" stroke="midnightblue" points="570.491,-54.2585 559.954,-53.1524 567.501,-60.588 570.491,-54.2585"/>
</g>
<!-- Node16&#45;&gt;Node2 -->
<g id="edge26" class="edge"><title>Node16&#45;&gt;Node2</title>
<path fill="none" stroke="midnightblue" d="M445.04,-95.746C446.846,-97.2192 448.524,-98.8259 450,-100.574 484.275,-141.174 461.131,-167.621 486,-214.574 495.678,-232.847 511.424,-251.1 521.492,-261.86"/>
<polygon fill="midnightblue" stroke="midnightblue" points="446.791,-92.7083 436.519,-90.1155 442.932,-98.5485 446.791,-92.7083"/>
</g>
<!-- Node16&#45;&gt;Node14 -->
<g id="edge27" class="edge"><title>Node16&#45;&gt;Node14</title>
<path fill="none" stroke="midnightblue" d="M446.904,-81.5743C460.425,-81.5743 476.106,-81.5743 490.239,-81.5743"/>
<polygon fill="midnightblue" stroke="midnightblue" points="446.595,-78.0744 436.595,-81.5743 446.595,-85.0744 446.595,-78.0744"/>
</g>
<!-- Node16&#45;&gt;Node15 -->
<g id="edge28" class="edge"><title>Node16&#45;&gt;Node15</title>
<path fill="none" stroke="midnightblue" d="M446.272,-70.8596C463.523,-65.3042 484.424,-58.5735 501.15,-53.1871"/>
<polygon fill="midnightblue" stroke="midnightblue" points="445.041,-67.5789 436.595,-73.9758 447.187,-74.2419 445.041,-67.5789"/>
</g>
<!-- Node17&#45;&gt;Node3 -->
<g id="edge30" class="edge"><title>Node17&#45;&gt;Node3</title>
<path fill="none" stroke="midnightblue" d="M460.114,-426.014C494.957,-425.712 542.346,-420.711 578,-399.574 618.944,-375.301 646.144,-321.949 655.941,-300.145"/>
<polygon fill="midnightblue" stroke="midnightblue" points="459.746,-422.513 449.731,-425.97 459.716,-429.513 459.746,-422.513"/>
</g>
</g>
</svg>
        <g id="navigator" transform="translate(0 0)" fill="#404254">
                <rect fill="#f2f5e9" fill-opacity="0.5" stroke="#606060" stroke-width=".5" x="0" y="0" width="60" height="60"/>
                <use id="zoomplus" xlink:href="#zoomPlus" x="17" y="9" onmousedown="handleZoom(evt,'in')"/>
                <use id="zoomminus" xlink:href="#zoomMin" x="42" y="9" onmousedown="handleZoom(evt,'out')"/>
                <use id="reset" xlink:href="#resetDef" x="30" y="36" onmousedown="handleReset()"/>
                <g id="arrowUp" xlink:href="#dirArrow" transform="translate(30 24)" onmousedown="handlePan(0,-1)">
                  <use xlink:href="#rim" fill="#404040">
                        <set attributeName="fill" to="#808080" begin="arrowUp.mouseover" end="arrowUp.mouseout"/>
                  </use>
                  <path fill="none" stroke="white" stroke-width="1.5" d="M0,-3.0v7 M-2.5,-0.5L0,-3.0L2.5,-0.5"/>
                </g>
                <g id="arrowRight" xlink:href="#dirArrow" transform="rotate(90) translate(36 -43)" onmousedown="handlePan(1,0)">
                  <use xlink:href="#rim" fill="#404040">
                        <set attributeName="fill" to="#808080" begin="arrowRight.mouseover" end="arrowRight.mouseout"/>
                  </use>
                  <path fill="none" stroke="white" stroke-width="1.5" d="M0,-3.0v7 M-2.5,-0.5L0,-3.0L2.5,-0.5"/>
                </g>
                <g id="arrowDown" xlink:href="#dirArrow" transform="rotate(180) translate(-30 -48)" onmousedown="handlePan(0,1)">
                  <use xlink:href="#rim" fill="#404040">
                        <set attributeName="fill" to="#808080" begin="arrowDown.mouseover" end="arrowDown.mouseout"/>
                  </use>
                  <path fill="none" stroke="white" stroke-width="1.5" d="M0,-3.0v7 M-2.5,-0.5L0,-3.0L2.5,-0.5"/>
                </g>
                <g id="arrowLeft" xlink:href="#dirArrow" transform="rotate(270) translate(-36 17)" onmousedown="handlePan(-1,0)">
                  <use xlink:href="#rim" fill="#404040">
                        <set attributeName="fill" to="#808080" begin="arrowLeft.mouseover" end="arrowLeft.mouseout"/>
                  </use>
                  <path fill="none" stroke="white" stroke-width="1.5" d="M0,-3.0v7 M-2.5,-0.5L0,-3.0L2.5,-0.5"/>
                </g>
        </g>
        <svg viewBox="0 0 15 15" width="100%" height="30px" preserveAspectRatio="xMaxYMin meet">
         <g id="arrow_out" transform="scale(0.3 0.3)">
          <a xlink:href="group__eh_ga81c4e76cf37319065a21afcaec1b8ab1_icgraph_org.svg" target="_base">
           <rect id="button" ry="5" rx="5" y="6" x="6" height="38" width="38"
                fill="#f2f5e9" fill-opacity="0.5" stroke="#606060" stroke-width="1.0"/>
           <path id="arrow"
             d="M 11.500037,31.436501 C 11.940474,20.09759 22.043105,11.32322 32.158766,21.979434 L 37.068811,17.246167 C 37.068811,17.246167 37.088388,32 37.088388,32 L 22.160133,31.978069 C 22.160133,31.978069 26.997745,27.140456 26.997745,27.140456 C 18.528582,18.264221 13.291696,25.230495 11.500037,31.436501 z"
             style="fill:#404040;"/>
          </a>
         </g>
        </svg>
</svg>
