<?xml version="1.0" encoding="UTF-8" standalone="no"?>
<!DOCTYPE svg PUBLIC "-//W3C//DTD SVG 1.1//EN"
 "http://www.w3.org/Graphics/SVG/1.1/DTD/svg11.dtd">
<!-- Generated by graphviz version 2.36.0 (20140111.2315)
 -->
<!-- Title: onintr Pages: 1 -->
<svg width="226pt" height="28pt"
 viewBox="0.00 0.00 226.00 28.00" xmlns="http://www.w3.org/2000/svg" xmlns:xlink="http://www.w3.org/1999/xlink">
<g id="graph0" class="graph" transform="scale(1 1) rotate(0) translate(4 24)">
<title>onintr</title>
<polygon fill="white" stroke="none" points="-4,4 -4,-24 222,-24 222,4 -4,4"/>
<!-- Node1 -->
<g id="node1" class="node"><title>Node1</title>
<polygon fill="#bfbfbf" stroke="black" points="0.5,-0.5 0.5,-19.5 41.5,-19.5 41.5,-0.5 0.5,-0.5"/>
<text text-anchor="middle" x="21" y="-7.5" font-family="Helvetica,sans-Serif" font-size="10.00">onintr</text>
</g>
<!-- Node2 -->
<g id="node2" class="node"><title>Node2</title>
<g id="a_node2"><a xlink:href="group__eh.html#gac769b3ff8cee5f62e69fb29097d21158" target="_top" xlink:title="Sets the appropriate signal handlers up. ">
<polygon fill="white" stroke="black" points="78,-0.5 78,-19.5 144,-19.5 144,-0.5 78,-0.5"/>
<text text-anchor="middle" x="111" y="-7.5" font-family="Helvetica,sans-Serif" font-size="10.00">set_signals</text>
</a>
</g>
</g>
<!-- Node1&#45;&gt;Node2 -->
<g id="edge1" class="edge"><title>Node1&#45;&gt;Node2</title>
<path fill="none" stroke="midnightblue" d="M51.6329,-10C60.0238,-10 69.1977,-10 77.7356,-10"/>
<polygon fill="midnightblue" stroke="midnightblue" points="51.5301,-6.5001 41.5301,-10 51.53,-13.5001 51.5301,-6.5001"/>
</g>
<!-- Node3 -->
<g id="node3" class="node"><title>Node3</title>
<g id="a_node3"><a xlink:href="main_8c.html#afced8478b91af5c169926dfa4426333d" target="_top" xlink:title="main">
<polygon fill="white" stroke="black" points="180,-0.5 180,-19.5 218,-19.5 218,-0.5 180,-0.5"/>
<text text-anchor="middle" x="199" y="-7.5" font-family="Helvetica,sans-Serif" font-size="10.00">main</text>
</a>
</g>
</g>
<!-- Node2&#45;&gt;Node3 -->
<g id="edge2" class="edge"><title>Node2&#45;&gt;Node3</title>
<path fill="none" stroke="midnightblue" d="M154.087,-10C163.095,-10 172.156,-10 179.689,-10"/>
<polygon fill="midnightblue" stroke="midnightblue" points="154.023,-6.5001 144.023,-10 154.023,-13.5001 154.023,-6.5001"/>
</g>
</g>
</svg>
