<?xml version="1.0" encoding="UTF-8" standalone="no"?>
<!DOCTYPE svg PUBLIC "-//W3C//DTD SVG 1.1//EN"
 "http://www.w3.org/Graphics/SVG/1.1/DTD/svg11.dtd">
<!-- Generated by graphviz version 2.36.0 (20140111.2315)
 -->
<!-- Title: default_action_warning Pages: 1 -->
<svg width="436pt" height="47pt"
 viewBox="0.00 0.00 436.00 47.00" xmlns="http://www.w3.org/2000/svg" xmlns:xlink="http://www.w3.org/1999/xlink">
<g id="graph0" class="graph" transform="scale(1 1) rotate(0) translate(4 43)">
<title>default_action_warning</title>
<polygon fill="white" stroke="none" points="-4,4 -4,-43 432,-43 432,4 -4,4"/>
<!-- Node1 -->
<g id="node1" class="node"><title>Node1</title>
<polygon fill="#bfbfbf" stroke="black" points="0,-0.5 0,-19.5 116,-19.5 116,-0.5 0,-0.5"/>
<text text-anchor="middle" x="58" y="-7.5" font-family="Helvetica,sans-Serif" font-size="10.00">default_action_warning</text>
</g>
<!-- Node2 -->
<g id="node2" class="node"><title>Node2</title>
<g id="a_node2"><a xlink:href="reader_8c.html#ae8594bb30d2b0297a4f533a4268c5d0a" target="_top" xlink:title="end_rule">
<polygon fill="white" stroke="black" points="152.5,-0.5 152.5,-19.5 205.5,-19.5 205.5,-0.5 152.5,-0.5"/>
<text text-anchor="middle" x="179" y="-7.5" font-family="Helvetica,sans-Serif" font-size="10.00">end_rule</text>
</a>
</g>
</g>
<!-- Node1&#45;&gt;Node2 -->
<g id="edge1" class="edge"><title>Node1&#45;&gt;Node2</title>
<path fill="none" stroke="midnightblue" d="M126.22,-10C135.531,-10 144.585,-10 152.45,-10"/>
<polygon fill="midnightblue" stroke="midnightblue" points="126.06,-6.5001 116.06,-10 126.06,-13.5001 126.06,-6.5001"/>
</g>
<!-- Node3 -->
<g id="node3" class="node"><title>Node3</title>
<g id="a_node3"><a xlink:href="reader_8c.html#a34bf32e056d8bc6f1fb490f4efc7ce90" target="_top" xlink:title="add_symbol">
<polygon fill="white" stroke="black" points="242.5,-19.5 242.5,-38.5 311.5,-38.5 311.5,-19.5 242.5,-19.5"/>
<text text-anchor="middle" x="277" y="-26.5" font-family="Helvetica,sans-Serif" font-size="10.00">add_symbol</text>
</a>
</g>
</g>
<!-- Node2&#45;&gt;Node3 -->
<g id="edge2" class="edge"><title>Node2&#45;&gt;Node3</title>
<path fill="none" stroke="midnightblue" d="M215.612,-17.0482C224.326,-18.7729 233.625,-20.6133 242.249,-22.3201"/>
<polygon fill="midnightblue" stroke="midnightblue" points="216.216,-13.5998 205.726,-15.0917 214.856,-20.4666 216.216,-13.5998"/>
</g>
<!-- Node4 -->
<g id="node4" class="node"><title>Node4</title>
<g id="a_node4"><a xlink:href="reader_8c.html#af6d4fba61bb761ca9fe92fef83e8ee94" target="_top" xlink:title="read_grammar">
<polygon fill="white" stroke="red" points="348.5,-0.5 348.5,-19.5 427.5,-19.5 427.5,-0.5 348.5,-0.5"/>
<text text-anchor="middle" x="388" y="-7.5" font-family="Helvetica,sans-Serif" font-size="10.00">read_grammar</text>
</a>
</g>
</g>
<!-- Node2&#45;&gt;Node4 -->
<g id="edge4" class="edge"><title>Node2&#45;&gt;Node4</title>
<path fill="none" stroke="midnightblue" d="M216.106,-10C253.043,-10 310.242,-10 348.147,-10"/>
<polygon fill="midnightblue" stroke="midnightblue" points="215.798,-6.5001 205.798,-10 215.798,-13.5001 215.798,-6.5001"/>
</g>
<!-- Node3&#45;&gt;Node4 -->
<g id="edge3" class="edge"><title>Node3&#45;&gt;Node4</title>
<path fill="none" stroke="midnightblue" d="M321.707,-21.3814C330.526,-19.8441 339.738,-18.2384 348.368,-16.734"/>
<polygon fill="midnightblue" stroke="midnightblue" points="320.843,-17.979 311.593,-23.1443 322.046,-24.875 320.843,-17.979"/>
</g>
</g>
</svg>
