<?xml version="1.0" encoding="UTF-8" standalone="no"?>
<!DOCTYPE svg PUBLIC "-//W3C//DTD SVG 1.1//EN"
 "http://www.w3.org/Graphics/SVG/1.1/DTD/svg11.dtd">
<!-- Generated by graphviz version 2.36.0 (20140111.2315)
 -->
<!-- Title: terminal_lhs Pages: 1 -->
<svg width="416pt" height="104pt"
 viewBox="0.00 0.00 416.00 104.00" xmlns="http://www.w3.org/2000/svg" xmlns:xlink="http://www.w3.org/1999/xlink">
<g id="graph0" class="graph" transform="scale(1 1) rotate(0) translate(4 100)">
<title>terminal_lhs</title>
<polygon fill="white" stroke="none" points="-4,4 -4,-100 412,-100 412,4 -4,4"/>
<!-- Node1 -->
<g id="node1" class="node"><title>Node1</title>
<polygon fill="#bfbfbf" stroke="black" points="0.5,-38.5 0.5,-57.5 69.5,-57.5 69.5,-38.5 0.5,-38.5"/>
<text text-anchor="middle" x="35" y="-45.5" font-family="Helvetica,sans-Serif" font-size="10.00">terminal_lhs</text>
</g>
<!-- Node2 -->
<g id="node2" class="node"><title>Node2</title>
<g id="a_node2"><a xlink:href="reader_8c.html#a7691871ff8cdc7f1f7bdaf2443070ff1" target="_top" xlink:title="start_rule">
<polygon fill="white" stroke="black" points="106.5,-38.5 106.5,-57.5 163.5,-57.5 163.5,-38.5 106.5,-38.5"/>
<text text-anchor="middle" x="135" y="-45.5" font-family="Helvetica,sans-Serif" font-size="10.00">start_rule</text>
</a>
</g>
</g>
<!-- Node1&#45;&gt;Node2 -->
<g id="edge1" class="edge"><title>Node1&#45;&gt;Node2</title>
<path fill="none" stroke="midnightblue" d="M79.7721,-48C88.8197,-48 98.1079,-48 106.384,-48"/>
<polygon fill="midnightblue" stroke="midnightblue" points="79.7261,-44.5001 69.726,-48 79.726,-51.5001 79.7261,-44.5001"/>
</g>
<!-- Node3 -->
<g id="node3" class="node"><title>Node3</title>
<g id="a_node3"><a xlink:href="reader_8c.html#a34bf32e056d8bc6f1fb490f4efc7ce90" target="_top" xlink:title="add_symbol">
<polygon fill="white" stroke="black" points="211.5,-76.5 211.5,-95.5 280.5,-95.5 280.5,-76.5 211.5,-76.5"/>
<text text-anchor="middle" x="246" y="-83.5" font-family="Helvetica,sans-Serif" font-size="10.00">add_symbol</text>
</a>
</g>
</g>
<!-- Node2&#45;&gt;Node3 -->
<g id="edge2" class="edge"><title>Node2&#45;&gt;Node3</title>
<path fill="none" stroke="midnightblue" d="M173.209,-60.9718C187.73,-66.0344 204.079,-71.7341 217.503,-76.4141"/>
<polygon fill="midnightblue" stroke="midnightblue" points="174.1,-57.5761 163.505,-57.589 171.796,-64.1859 174.1,-57.5761"/>
</g>
<!-- Node4 -->
<g id="node4" class="node"><title>Node4</title>
<g id="a_node4"><a xlink:href="reader_8c.html#af6d4fba61bb761ca9fe92fef83e8ee94" target="_top" xlink:title="read_grammar">
<polygon fill="white" stroke="red" points="328.5,-38.5 328.5,-57.5 407.5,-57.5 407.5,-38.5 328.5,-38.5"/>
<text text-anchor="middle" x="368" y="-45.5" font-family="Helvetica,sans-Serif" font-size="10.00">read_grammar</text>
</a>
</g>
</g>
<!-- Node2&#45;&gt;Node4 -->
<g id="edge6" class="edge"><title>Node2&#45;&gt;Node4</title>
<path fill="none" stroke="midnightblue" d="M174.107,-48C216.726,-48 285.386,-48 328.261,-48"/>
<polygon fill="midnightblue" stroke="midnightblue" points="173.864,-44.5001 163.864,-48 173.864,-51.5001 173.864,-44.5001"/>
</g>
<!-- Node5 -->
<g id="node5" class="node"><title>Node5</title>
<g id="a_node5"><a xlink:href="reader_8c.html#ac910677446efcb4dbebc9a6d3d90a9ff" target="_top" xlink:title="advance_to_start">
<polygon fill="white" stroke="black" points="200,-0.5 200,-19.5 292,-19.5 292,-0.5 200,-0.5"/>
<text text-anchor="middle" x="246" y="-7.5" font-family="Helvetica,sans-Serif" font-size="10.00">advance_to_start</text>
</a>
</g>
</g>
<!-- Node2&#45;&gt;Node5 -->
<g id="edge4" class="edge"><title>Node2&#45;&gt;Node5</title>
<path fill="none" stroke="midnightblue" d="M173.209,-35.0282C187.73,-29.9656 204.079,-24.2659 217.503,-19.5859"/>
<polygon fill="midnightblue" stroke="midnightblue" points="171.796,-31.8141 163.505,-38.411 174.1,-38.4239 171.796,-31.8141"/>
</g>
<!-- Node3&#45;&gt;Node4 -->
<g id="edge3" class="edge"><title>Node3&#45;&gt;Node4</title>
<path fill="none" stroke="midnightblue" d="M287.043,-73.3196C303.257,-68.1852 321.666,-62.3559 336.729,-57.5859"/>
<polygon fill="midnightblue" stroke="midnightblue" points="285.758,-70.0553 277.281,-76.411 287.871,-76.7287 285.758,-70.0553"/>
</g>
<!-- Node5&#45;&gt;Node4 -->
<g id="edge5" class="edge"><title>Node5&#45;&gt;Node4</title>
<path fill="none" stroke="midnightblue" d="M287.043,-22.6804C303.257,-27.8148 321.666,-33.6441 336.729,-38.4141"/>
<polygon fill="midnightblue" stroke="midnightblue" points="287.871,-19.2713 277.281,-19.589 285.758,-25.9447 287.871,-19.2713"/>
</g>
</g>
</svg>
