<?xml version="1.0" encoding="UTF-8" standalone="no"?>
<!DOCTYPE svg PUBLIC "-//W3C//DTD SVG 1.1//EN"
 "http://www.w3.org/Graphics/SVG/1.1/DTD/svg11.dtd">
<!-- Generated by graphviz version 2.36.0 (20140111.2315)
 -->
<!-- Title: print_pos Pages: 1 -->
<svg width="720pt" height="498pt"
 viewBox="0.00 0.00 720.00 498.12" xmlns="http://www.w3.org/2000/svg" xmlns:xlink="http://www.w3.org/1999/xlink">
<g id="graph0" class="graph" transform="scale(1 1) rotate(0) translate(4 494.117)">
<title>print_pos</title>
<polygon fill="white" stroke="none" points="-4,4 -4,-494.117 716,-494.117 716,4 -4,4"/>
<!-- Node1 -->
<g id="node1" class="node"><title>Node1</title>
<polygon fill="#bfbfbf" stroke="black" points="0,-299.617 0,-318.617 56,-318.617 56,-299.617 0,-299.617"/>
<text text-anchor="middle" x="28" y="-306.617" font-family="Helvetica,sans-Serif" font-size="10.00">print_pos</text>
</g>
<!-- Node2 -->
<g id="node2" class="node"><title>Node2</title>
<g id="a_node2"><a xlink:href="group__eh.html#gaa7751e4500f0f24aba5df3a1da874632" target="_top" xlink:title="dollar_error">
<polygon fill="white" stroke="black" points="267.5,-470.617 267.5,-489.617 332.5,-489.617 332.5,-470.617 267.5,-470.617"/>
<text text-anchor="middle" x="300" y="-477.617" font-family="Helvetica,sans-Serif" font-size="10.00">dollar_error</text>
</a>
</g>
</g>
<!-- Node1&#45;&gt;Node2 -->
<g id="edge1" class="edge"><title>Node1&#45;&gt;Node2</title>
<path fill="none" stroke="midnightblue" d="M31.636,-328.766C36.9627,-360.13 52.1116,-421.032 92,-451.117 143.57,-490.013 223.501,-488.84 267.422,-484.514"/>
<polygon fill="midnightblue" stroke="midnightblue" points="35.0619,-328.015 30.0903,-318.659 28.1424,-329.073 35.0619,-328.015"/>
</g>
<!-- Node5 -->
<g id="node5" class="node"><title>Node5</title>
<g id="a_node5"><a xlink:href="group__eh.html#gaad64de11ac1b5b04da452109e0c6e55a" target="_top" xlink:title="illegal_character">
<polygon fill="white" stroke="black" points="108.5,-204.617 108.5,-223.617 195.5,-223.617 195.5,-204.617 108.5,-204.617"/>
<text text-anchor="middle" x="152" y="-211.617" font-family="Helvetica,sans-Serif" font-size="10.00">illegal_character</text>
</a>
</g>
</g>
<!-- Node1&#45;&gt;Node5 -->
<g id="edge4" class="edge"><title>Node1&#45;&gt;Node5</title>
<path fill="none" stroke="midnightblue" d="M39.8163,-290.834C50.8859,-273.619 69.6075,-248.276 92,-233.117 97.7032,-229.256 104.242,-226.138 110.843,-223.633"/>
<polygon fill="midnightblue" stroke="midnightblue" points="36.7723,-289.102 34.4791,-299.445 42.7222,-292.789 36.7723,-289.102"/>
</g>
<!-- Node10 -->
<g id="node10" class="node"><title>Node10</title>
<g id="a_node10"><a xlink:href="group__eh.html#ga3abdd7162e1bf8338bfc5c31c590ffe1" target="_top" xlink:title="illegal_tag">
<polygon fill="white" stroke="black" points="122,-394.617 122,-413.617 182,-413.617 182,-394.617 122,-394.617"/>
<text text-anchor="middle" x="152" y="-401.617" font-family="Helvetica,sans-Serif" font-size="10.00">illegal_tag</text>
</a>
</g>
</g>
<!-- Node1&#45;&gt;Node10 -->
<g id="edge10" class="edge"><title>Node1&#45;&gt;Node10</title>
<path fill="none" stroke="midnightblue" d="M39.8163,-327.4C50.8859,-344.615 69.6075,-369.958 92,-385.117 100.911,-391.15 111.863,-395.369 121.902,-398.27"/>
<polygon fill="midnightblue" stroke="midnightblue" points="42.7222,-325.445 34.4791,-318.789 36.7723,-329.133 42.7222,-325.445"/>
</g>
<!-- Node12 -->
<g id="node12" class="node"><title>Node12</title>
<g id="a_node12"><a xlink:href="group__eh.html#gaa9bb2f4291d5b51cee6f8dc4156e0fd5" target="_top" xlink:title="over_unionized">
<polygon fill="white" stroke="black" points="111,-318.617 111,-337.617 193,-337.617 193,-318.617 111,-318.617"/>
<text text-anchor="middle" x="152" y="-325.617" font-family="Helvetica,sans-Serif" font-size="10.00">over_unionized</text>
</a>
</g>
</g>
<!-- Node1&#45;&gt;Node12 -->
<g id="edge14" class="edge"><title>Node1&#45;&gt;Node12</title>
<path fill="none" stroke="midnightblue" d="M66.3339,-314.931C80.3293,-317.111 96.2916,-319.597 110.556,-321.818"/>
<polygon fill="midnightblue" stroke="midnightblue" points="66.4953,-311.414 56.0758,-313.334 65.418,-318.331 66.4953,-311.414"/>
</g>
<!-- Node14 -->
<g id="node14" class="node"><title>Node14</title>
<g id="a_node14"><a xlink:href="group__eh.html#gae2027917ace8b6f808a14b5cd4085eaf" target="_top" xlink:title="syntax_error">
<polygon fill="white" stroke="black" points="264.5,-166.617 264.5,-185.617 335.5,-185.617 335.5,-166.617 264.5,-166.617"/>
<text text-anchor="middle" x="300" y="-173.617" font-family="Helvetica,sans-Serif" font-size="10.00">syntax_error</text>
</a>
</g>
</g>
<!-- Node1&#45;&gt;Node14 -->
<g id="edge17" class="edge"><title>Node1&#45;&gt;Node14</title>
<path fill="none" stroke="midnightblue" d="M33.7548,-289.391C41.2521,-262.995 58.5404,-216.978 92,-195.117 144.266,-160.968 220.424,-164.297 264.314,-170.045"/>
<polygon fill="midnightblue" stroke="midnightblue" points="30.2877,-288.813 31.1225,-299.375 37.0564,-290.598 30.2877,-288.813"/>
</g>
<!-- Node19 -->
<g id="node19" class="node"><title>Node19</title>
<g id="a_node19"><a xlink:href="group__eh.html#ga150e9a905e4ecaf20109c91b6de62383" target="_top" xlink:title="unterminated_action">
<polygon fill="white" stroke="black" points="248,-432.617 248,-451.617 352,-451.617 352,-432.617 248,-432.617"/>
<text text-anchor="middle" x="300" y="-439.617" font-family="Helvetica,sans-Serif" font-size="10.00">unterminated_action</text>
</a>
</g>
</g>
<!-- Node1&#45;&gt;Node19 -->
<g id="edge32" class="edge"><title>Node1&#45;&gt;Node19</title>
<path fill="none" stroke="midnightblue" d="M33.7548,-328.843C41.2521,-355.239 58.5404,-401.256 92,-423.117 138.224,-453.318 203.135,-454.206 247.885,-450.032"/>
<polygon fill="midnightblue" stroke="midnightblue" points="37.0564,-327.637 31.1225,-318.859 30.2877,-329.421 37.0564,-327.637"/>
</g>
<!-- Node20 -->
<g id="node20" class="node"><title>Node20</title>
<g id="a_node20"><a xlink:href="group__eh.html#ga81c4e76cf37319065a21afcaec1b8ab1" target="_top" xlink:title="unterminated_comment">
<polygon fill="white" stroke="black" points="92.5,-356.617 92.5,-375.617 211.5,-375.617 211.5,-356.617 92.5,-356.617"/>
<text text-anchor="middle" x="152" y="-363.617" font-family="Helvetica,sans-Serif" font-size="10.00">unterminated_comment</text>
</a>
</g>
</g>
<!-- Node1&#45;&gt;Node20 -->
<g id="edge34" class="edge"><title>Node1&#45;&gt;Node20</title>
<path fill="none" stroke="midnightblue" d="M51.6559,-324.531C63.3501,-332.03 78.0567,-340.771 92,-347.117 99.8354,-350.684 108.535,-353.877 116.794,-356.581"/>
<polygon fill="midnightblue" stroke="midnightblue" points="53.2774,-321.409 42.9954,-318.854 49.4394,-327.264 53.2774,-321.409"/>
</g>
<!-- Node23 -->
<g id="node23" class="node"><title>Node23</title>
<g id="a_node23"><a xlink:href="group__eh.html#ga1be74faa1a912de2fd380aa9a4de6eb2" target="_top" xlink:title="unterminated_string">
<polygon fill="white" stroke="black" points="101,-242.617 101,-261.617 203,-261.617 203,-242.617 101,-242.617"/>
<text text-anchor="middle" x="152" y="-249.617" font-family="Helvetica,sans-Serif" font-size="10.00">unterminated_string</text>
</a>
</g>
</g>
<!-- Node1&#45;&gt;Node23 -->
<g id="edge41" class="edge"><title>Node1&#45;&gt;Node23</title>
<path fill="none" stroke="midnightblue" d="M51.6559,-293.703C63.3501,-286.204 78.0567,-277.464 92,-271.117 99.8354,-267.551 108.535,-264.358 116.794,-261.653"/>
<polygon fill="midnightblue" stroke="midnightblue" points="49.4394,-290.971 42.9954,-299.381 53.2774,-296.825 49.4394,-290.971"/>
</g>
<!-- Node24 -->
<g id="node24" class="node"><title>Node24</title>
<g id="a_node24"><a xlink:href="group__eh.html#ga60e968f02480372518e9cce97e70ef5b" target="_top" xlink:title="unterminated_text">
<polygon fill="white" stroke="black" points="104.5,-128.617 104.5,-147.617 199.5,-147.617 199.5,-128.617 104.5,-128.617"/>
<text text-anchor="middle" x="152" y="-135.617" font-family="Helvetica,sans-Serif" font-size="10.00">unterminated_text</text>
</a>
</g>
</g>
<!-- Node1&#45;&gt;Node24 -->
<g id="edge46" class="edge"><title>Node1&#45;&gt;Node24</title>
<path fill="none" stroke="midnightblue" d="M32.4574,-289.449C38.8811,-258.424 55.4697,-197.976 92,-162.117 98.3921,-155.843 106.646,-151.136 114.943,-147.633"/>
<polygon fill="midnightblue" stroke="midnightblue" points="28.9862,-288.966 30.5326,-299.447 35.86,-290.289 28.9862,-288.966"/>
</g>
<!-- Node25 -->
<g id="node25" class="node"><title>Node25</title>
<g id="a_node25"><a xlink:href="group__eh.html#ga81dd9930c4155592c10afdb2b0e34588" target="_top" xlink:title="unterminated_union">
<polygon fill="white" stroke="black" points="101.5,-280.617 101.5,-299.617 202.5,-299.617 202.5,-280.617 101.5,-280.617"/>
<text text-anchor="middle" x="152" y="-287.617" font-family="Helvetica,sans-Serif" font-size="10.00">unterminated_union</text>
</a>
</g>
</g>
<!-- Node1&#45;&gt;Node25 -->
<g id="edge48" class="edge"><title>Node1&#45;&gt;Node25</title>
<path fill="none" stroke="midnightblue" d="M66.2654,-303.314C77.3513,-301.587 89.6764,-299.668 101.416,-297.839"/>
<polygon fill="midnightblue" stroke="midnightblue" points="65.418,-299.903 56.0758,-304.9 66.4953,-306.82 65.418,-299.903"/>
</g>
<!-- Node3 -->
<g id="node3" class="node"><title>Node3</title>
<g id="a_node3"><a xlink:href="reader_8c.html#abb83807b1bba8d346650d3e4ae4e7425" target="_top" xlink:title="copy_action">
<polygon fill="white" stroke="black" points="392.5,-394.617 392.5,-413.617 461.5,-413.617 461.5,-394.617 392.5,-394.617"/>
<text text-anchor="middle" x="427" y="-401.617" font-family="Helvetica,sans-Serif" font-size="10.00">copy_action</text>
</a>
</g>
</g>
<!-- Node2&#45;&gt;Node3 -->
<g id="edge2" class="edge"><title>Node2&#45;&gt;Node3</title>
<path fill="none" stroke="midnightblue" d="M340.881,-466.598C344.71,-464.904 348.476,-463.072 352,-461.117 376.674,-447.429 401.993,-426.016 415.681,-413.702"/>
<polygon fill="midnightblue" stroke="midnightblue" points="339.254,-463.482 331.334,-470.519 341.914,-469.957 339.254,-463.482"/>
</g>
<!-- Node4 -->
<g id="node4" class="node"><title>Node4</title>
<g id="a_node4"><a xlink:href="reader_8c.html#af6d4fba61bb761ca9fe92fef83e8ee94" target="_top" xlink:title="read_grammar">
<polygon fill="white" stroke="red" points="632.5,-261.617 632.5,-280.617 711.5,-280.617 711.5,-261.617 632.5,-261.617"/>
<text text-anchor="middle" x="672" y="-268.617" font-family="Helvetica,sans-Serif" font-size="10.00">read_grammar</text>
</a>
</g>
</g>
<!-- Node3&#45;&gt;Node4 -->
<g id="edge3" class="edge"><title>Node3&#45;&gt;Node4</title>
<path fill="none" stroke="midnightblue" d="M454.376,-389.681C504.252,-362.382 611.165,-303.866 653.356,-280.774"/>
<polygon fill="midnightblue" stroke="midnightblue" points="452.568,-386.681 445.476,-394.552 455.928,-392.821 452.568,-386.681"/>
</g>
<!-- Node6 -->
<g id="node6" class="node"><title>Node6</title>
<g id="a_node6"><a xlink:href="reader_8c.html#acfb64f081b0d9c4536e90c5352ce9c2c" target="_top" xlink:title="get_literal">
<polygon fill="white" stroke="red" points="270.5,-204.617 270.5,-223.617 329.5,-223.617 329.5,-204.617 270.5,-204.617"/>
<text text-anchor="middle" x="300" y="-211.617" font-family="Helvetica,sans-Serif" font-size="10.00">get_literal</text>
</a>
</g>
</g>
<!-- Node5&#45;&gt;Node6 -->
<g id="edge5" class="edge"><title>Node5&#45;&gt;Node6</title>
<path fill="none" stroke="midnightblue" d="M205.761,-214.117C227.59,-214.117 252.041,-214.117 270.426,-214.117"/>
<polygon fill="midnightblue" stroke="midnightblue" points="205.622,-210.617 195.622,-214.117 205.622,-217.617 205.622,-210.617"/>
</g>
<!-- Node7 -->
<g id="node7" class="node"><title>Node7</title>
<g id="a_node7"><a xlink:href="reader_8c.html#a860dbc8da656fd831b19668da20207c7" target="_top" xlink:title="declare_types">
<polygon fill="white" stroke="black" points="388.5,-318.617 388.5,-337.617 465.5,-337.617 465.5,-318.617 388.5,-318.617"/>
<text text-anchor="middle" x="427" y="-325.617" font-family="Helvetica,sans-Serif" font-size="10.00">declare_types</text>
</a>
</g>
</g>
<!-- Node6&#45;&gt;Node7 -->
<g id="edge6" class="edge"><title>Node6&#45;&gt;Node7</title>
<path fill="none" stroke="midnightblue" d="M338.482,-228.147C343.375,-230.975 348.051,-234.283 352,-238.117 377.383,-262.764 362.912,-284.17 388,-309.117 391.766,-312.862 396.419,-316.003 401.163,-318.584"/>
<polygon fill="midnightblue" stroke="midnightblue" points="340.047,-225.015 329.552,-223.565 336.852,-231.244 340.047,-225.015"/>
</g>
<!-- Node9 -->
<g id="node9" class="node"><title>Node9</title>
<g id="a_node9"><a xlink:href="reader_8c.html#aae3985d515e47c03afc20f92c0292531" target="_top" xlink:title="mark_symbol">
<polygon fill="white" stroke="black" points="389.5,-280.617 389.5,-299.617 464.5,-299.617 464.5,-280.617 389.5,-280.617"/>
<text text-anchor="middle" x="427" y="-287.617" font-family="Helvetica,sans-Serif" font-size="10.00">mark_symbol</text>
</a>
</g>
</g>
<!-- Node6&#45;&gt;Node9 -->
<g id="edge8" class="edge"><title>Node6&#45;&gt;Node9</title>
<path fill="none" stroke="midnightblue" d="M333.252,-227.969C339.602,-231.063 346.116,-234.506 352,-238.117 369.276,-248.72 371.411,-254.469 388,-266.117 395.024,-271.05 403.028,-276.174 409.873,-280.415"/>
<polygon fill="midnightblue" stroke="midnightblue" points="334.699,-224.782 324.159,-223.707 331.728,-231.12 334.699,-224.782"/>
</g>
<!-- Node8 -->
<g id="node8" class="node"><title>Node8</title>
<g id="a_node8"><a xlink:href="reader_8c.html#a07addfee5457e48ddb310769dd0e39af" target="_top" xlink:title="read_declarations">
<polygon fill="white" stroke="red" points="502.5,-166.617 502.5,-185.617 595.5,-185.617 595.5,-166.617 502.5,-166.617"/>
<text text-anchor="middle" x="549" y="-173.617" font-family="Helvetica,sans-Serif" font-size="10.00">read_declarations</text>
</a>
</g>
</g>
<!-- Node7&#45;&gt;Node8 -->
<g id="edge7" class="edge"><title>Node7&#45;&gt;Node8</title>
<path fill="none" stroke="midnightblue" d="M461.156,-313.034C462.861,-311.804 464.49,-310.499 466,-309.117 506.828,-271.764 534.657,-209.486 544.278,-185.727"/>
<polygon fill="midnightblue" stroke="midnightblue" points="458.882,-310.323 452.204,-318.549 462.554,-316.283 458.882,-310.323"/>
</g>
<!-- Node9&#45;&gt;Node4 -->
<g id="edge9" class="edge"><title>Node9&#45;&gt;Node4</title>
<path fill="none" stroke="midnightblue" d="M474.622,-286.472C520.465,-282.887 589.618,-277.48 632.45,-274.131"/>
<polygon fill="midnightblue" stroke="midnightblue" points="474.339,-282.983 464.643,-287.252 474.885,-289.962 474.339,-282.983"/>
</g>
<!-- Node11 -->
<g id="node11" class="node"><title>Node11</title>
<g id="a_node11"><a xlink:href="reader_8c.html#a0d5a7fe7641edf38078ba5e99536772d" target="_top" xlink:title="get_tag">
<polygon fill="white" stroke="red" points="275.5,-356.617 275.5,-375.617 324.5,-375.617 324.5,-356.617 275.5,-356.617"/>
<text text-anchor="middle" x="300" y="-363.617" font-family="Helvetica,sans-Serif" font-size="10.00">get_tag</text>
</a>
</g>
</g>
<!-- Node10&#45;&gt;Node11 -->
<g id="edge11" class="edge"><title>Node10&#45;&gt;Node11</title>
<path fill="none" stroke="midnightblue" d="M191.929,-393.985C218.42,-387.09 252.628,-378.187 275.162,-372.322"/>
<polygon fill="midnightblue" stroke="midnightblue" points="190.99,-390.613 182.194,-396.519 192.754,-397.387 190.99,-390.613"/>
</g>
<!-- Node11&#45;&gt;Node3 -->
<g id="edge12" class="edge"><title>Node11&#45;&gt;Node3</title>
<path fill="none" stroke="midnightblue" d="M334.112,-376.183C352.84,-381.876 376.124,-388.955 394.568,-394.562"/>
<polygon fill="midnightblue" stroke="midnightblue" points="335.097,-372.825 324.512,-373.265 333.061,-379.522 335.097,-372.825"/>
</g>
<!-- Node11&#45;&gt;Node7 -->
<g id="edge13" class="edge"><title>Node11&#45;&gt;Node7</title>
<path fill="none" stroke="midnightblue" d="M334.112,-356.051C352.84,-350.358 376.124,-343.279 394.568,-337.672"/>
<polygon fill="midnightblue" stroke="midnightblue" points="333.061,-352.712 324.512,-358.97 335.097,-359.41 333.061,-352.712"/>
</g>
<!-- Node13 -->
<g id="node13" class="node"><title>Node13</title>
<g id="a_node13"><a xlink:href="reader_8c.html#a7ee403ea2ff911fb368d38ab6ef937c3" target="_top" xlink:title="copy_union">
<polygon fill="white" stroke="black" points="267,-280.617 267,-299.617 333,-299.617 333,-280.617 267,-280.617"/>
<text text-anchor="middle" x="300" y="-287.617" font-family="Helvetica,sans-Serif" font-size="10.00">copy_union</text>
</a>
</g>
</g>
<!-- Node12&#45;&gt;Node13 -->
<g id="edge15" class="edge"><title>Node12&#45;&gt;Node13</title>
<path fill="none" stroke="midnightblue" d="M199.591,-315.991C221.442,-310.304 246.941,-303.667 266.643,-298.539"/>
<polygon fill="midnightblue" stroke="midnightblue" points="198.638,-312.622 189.842,-318.528 200.401,-319.396 198.638,-312.622"/>
</g>
<!-- Node13&#45;&gt;Node8 -->
<g id="edge16" class="edge"><title>Node13&#45;&gt;Node8</title>
<path fill="none" stroke="midnightblue" d="M342.543,-303.722C345.838,-305.359 349.034,-307.155 352,-309.117 371.402,-321.954 366.629,-337.925 388,-347.117 419.846,-360.815 436.662,-365.585 466,-347.117 525.349,-309.757 542.704,-216.187 546.86,-185.808"/>
<polygon fill="midnightblue" stroke="midnightblue" points="343.665,-300.391 333.106,-299.529 340.823,-306.788 343.665,-300.391"/>
</g>
<!-- Node14&#45;&gt;Node4 -->
<g id="edge31" class="edge"><title>Node14&#45;&gt;Node4</title>
<path fill="none" stroke="midnightblue" d="M342.678,-189.79C345.925,-191.408 349.075,-193.182 352,-195.117 371.402,-207.954 367.289,-222.52 388,-233.117 429.87,-254.541 565.149,-265.083 632.363,-269.104"/>
<polygon fill="midnightblue" stroke="midnightblue" points="343.932,-186.517 333.374,-185.636 341.078,-192.908 343.932,-186.517"/>
</g>
<!-- Node14&#45;&gt;Node7 -->
<g id="edge24" class="edge"><title>Node14&#45;&gt;Node7</title>
<path fill="none" stroke="midnightblue" d="M344.685,-189.039C347.348,-190.813 349.824,-192.828 352,-195.117 388.605,-233.629 353.507,-268.703 388,-309.117 391.256,-312.932 395.464,-316.061 399.887,-318.599"/>
<polygon fill="midnightblue" stroke="midnightblue" points="346.15,-185.852 335.692,-184.156 342.81,-192.004 346.15,-185.852"/>
</g>
<!-- Node14&#45;&gt;Node8 -->
<g id="edge28" class="edge"><title>Node14&#45;&gt;Node8</title>
<path fill="none" stroke="midnightblue" d="M345.795,-176.117C390.126,-176.117 457.651,-176.117 502.296,-176.117"/>
<polygon fill="midnightblue" stroke="midnightblue" points="345.604,-172.617 335.604,-176.117 345.604,-179.617 345.604,-172.617"/>
</g>
<!-- Node14&#45;&gt;Node9 -->
<g id="edge30" class="edge"><title>Node14&#45;&gt;Node9</title>
<path fill="none" stroke="midnightblue" d="M344.518,-189.606C347.186,-191.244 349.713,-193.074 352,-195.117 378.386,-218.687 364.186,-239.951 388,-266.117 393.147,-271.772 399.922,-276.615 406.324,-280.438"/>
<polygon fill="midnightblue" stroke="midnightblue" points="346.117,-186.493 335.628,-184.998 342.896,-192.707 346.117,-186.493"/>
</g>
<!-- Node15 -->
<g id="node15" class="node"><title>Node15</title>
<g id="a_node15"><a xlink:href="reader_8c.html#a7b9f905e2f933d429fa1b479fd058f03" target="_top" xlink:title="keyword">
<polygon fill="white" stroke="black" points="400.5,-52.6172 400.5,-71.6172 453.5,-71.6172 453.5,-52.6172 400.5,-52.6172"/>
<text text-anchor="middle" x="427" y="-59.6172" font-family="Helvetica,sans-Serif" font-size="10.00">keyword</text>
</a>
</g>
</g>
<!-- Node14&#45;&gt;Node15 -->
<g id="edge18" class="edge"><title>Node14&#45;&gt;Node15</title>
<path fill="none" stroke="midnightblue" d="M343.969,-162.172C346.782,-160.639 349.49,-158.958 352,-157.117 368.942,-144.691 404.899,-93.2131 419.567,-71.6673"/>
<polygon fill="midnightblue" stroke="midnightblue" points="342.255,-159.112 334.734,-166.575 345.267,-165.43 342.255,-159.112"/>
</g>
<!-- Node16 -->
<g id="node16" class="node"><title>Node16</title>
<g id="a_node16"><a xlink:href="reader_8c.html#ac910677446efcb4dbebc9a6d3d90a9ff" target="_top" xlink:title="advance_to_start">
<polygon fill="white" stroke="black" points="503,-52.6172 503,-71.6172 595,-71.6172 595,-52.6172 503,-52.6172"/>
<text text-anchor="middle" x="549" y="-59.6172" font-family="Helvetica,sans-Serif" font-size="10.00">advance_to_start</text>
</a>
</g>
</g>
<!-- Node14&#45;&gt;Node16 -->
<g id="edge29" class="edge"><title>Node14&#45;&gt;Node16</title>
<path fill="none" stroke="midnightblue" d="M344.685,-163.195C347.348,-161.421 349.824,-159.406 352,-157.117 388.605,-118.606 345.144,-74.5256 388,-43.1172 430.756,-11.7821 497.884,-37.2486 529.875,-52.5937"/>
<polygon fill="midnightblue" stroke="midnightblue" points="342.81,-160.231 335.692,-168.078 346.15,-166.382 342.81,-160.231"/>
</g>
<!-- Node17 -->
<g id="node17" class="node"><title>Node17</title>
<g id="a_node17"><a xlink:href="reader_8c.html#a475e9b3fc05ea753aeeb760cea34a511" target="_top" xlink:title="copy_ident">
<polygon fill="white" stroke="black" points="395,-204.617 395,-223.617 459,-223.617 459,-204.617 395,-204.617"/>
<text text-anchor="middle" x="427" y="-211.617" font-family="Helvetica,sans-Serif" font-size="10.00">copy_ident</text>
</a>
</g>
</g>
<!-- Node14&#45;&gt;Node17 -->
<g id="edge22" class="edge"><title>Node14&#45;&gt;Node17</title>
<path fill="none" stroke="midnightblue" d="M342.311,-188.676C359.453,-193.887 379.007,-199.831 394.9,-204.663"/>
<polygon fill="midnightblue" stroke="midnightblue" points="343.128,-185.266 332.543,-185.706 341.092,-191.964 343.128,-185.266"/>
</g>
<!-- Node18 -->
<g id="node18" class="node"><title>Node18</title>
<g id="a_node18"><a xlink:href="reader_8c.html#a279a8d9eb5a5ad8dce6c95b2647b9c98" target="_top" xlink:title="declare_start">
<polygon fill="white" stroke="black" points="390.5,-128.617 390.5,-147.617 463.5,-147.617 463.5,-128.617 390.5,-128.617"/>
<text text-anchor="middle" x="427" y="-135.617" font-family="Helvetica,sans-Serif" font-size="10.00">declare_start</text>
</a>
</g>
</g>
<!-- Node14&#45;&gt;Node18 -->
<g id="edge25" class="edge"><title>Node14&#45;&gt;Node18</title>
<path fill="none" stroke="midnightblue" d="M342.235,-163.582C359.239,-158.412 378.629,-152.518 394.467,-147.703"/>
<polygon fill="midnightblue" stroke="midnightblue" points="341.092,-160.271 332.543,-166.528 343.128,-166.968 341.092,-160.271"/>
</g>
<!-- Node15&#45;&gt;Node8 -->
<g id="edge21" class="edge"><title>Node15&#45;&gt;Node8</title>
<path fill="none" stroke="midnightblue" d="M453.817,-77.096C458.026,-79.9084 462.236,-82.9625 466,-86.1172 496.78,-111.916 527.04,-148.996 540.597,-166.4"/>
<polygon fill="midnightblue" stroke="midnightblue" points="455.641,-74.1081 445.321,-71.7081 451.892,-80.0196 455.641,-74.1081"/>
</g>
<!-- Node15&#45;&gt;Node16 -->
<g id="edge19" class="edge"><title>Node15&#45;&gt;Node16</title>
<path fill="none" stroke="midnightblue" d="M464.018,-62.1172C476.25,-62.1172 490.073,-62.1172 502.922,-62.1172"/>
<polygon fill="midnightblue" stroke="midnightblue" points="463.743,-58.6173 453.743,-62.1172 463.743,-65.6173 463.743,-58.6173"/>
</g>
<!-- Node16&#45;&gt;Node4 -->
<g id="edge20" class="edge"><title>Node16&#45;&gt;Node4</title>
<path fill="none" stroke="midnightblue" d="M560.621,-80.4617C585.469,-123.381 646.704,-229.152 665.454,-261.538"/>
<polygon fill="midnightblue" stroke="midnightblue" points="563.553,-78.5412 555.514,-71.6406 557.495,-82.0485 563.553,-78.5412"/>
</g>
<!-- Node17&#45;&gt;Node8 -->
<g id="edge23" class="edge"><title>Node17&#45;&gt;Node8</title>
<path fill="none" stroke="midnightblue" d="M468.043,-201.437C484.257,-196.302 502.666,-190.473 517.729,-185.703"/>
<polygon fill="midnightblue" stroke="midnightblue" points="466.758,-198.172 458.281,-204.528 468.871,-204.846 466.758,-198.172"/>
</g>
<!-- Node18&#45;&gt;Node8 -->
<g id="edge27" class="edge"><title>Node18&#45;&gt;Node8</title>
<path fill="none" stroke="midnightblue" d="M468.043,-150.798C484.257,-155.932 502.666,-161.761 517.729,-166.531"/>
<polygon fill="midnightblue" stroke="midnightblue" points="468.871,-147.388 458.281,-147.706 466.758,-154.062 468.871,-147.388"/>
</g>
<!-- Node18&#45;&gt;Node16 -->
<g id="edge26" class="edge"><title>Node18&#45;&gt;Node16</title>
<path fill="none" stroke="midnightblue" d="M451.774,-123.06C475.902,-107.779 512.523,-84.5861 532.925,-71.6645"/>
<polygon fill="midnightblue" stroke="midnightblue" points="449.774,-120.184 443.198,-128.492 453.519,-126.098 449.774,-120.184"/>
</g>
<!-- Node19&#45;&gt;Node3 -->
<g id="edge33" class="edge"><title>Node19&#45;&gt;Node3</title>
<path fill="none" stroke="midnightblue" d="M342.235,-429.582C359.239,-424.412 378.629,-418.518 394.467,-413.703"/>
<polygon fill="midnightblue" stroke="midnightblue" points="341.092,-426.271 332.543,-432.528 343.128,-432.968 341.092,-426.271"/>
</g>
<!-- Node20&#45;&gt;Node3 -->
<g id="edge40" class="edge"><title>Node20&#45;&gt;Node3</title>
<path fill="none" stroke="midnightblue" d="M206.466,-377.697C219.977,-380.379 234.486,-383.049 248,-385.117 298.075,-392.781 356.545,-398.388 392.42,-401.451"/>
<polygon fill="midnightblue" stroke="midnightblue" points="206.858,-374.206 196.363,-375.654 205.471,-381.067 206.858,-374.206"/>
</g>
<!-- Node20&#45;&gt;Node13 -->
<g id="edge39" class="edge"><title>Node20&#45;&gt;Node13</title>
<path fill="none" stroke="midnightblue" d="M201.849,-352.581C205.382,-350.944 208.807,-349.128 212,-347.117 231.686,-334.72 228.598,-321.954 248,-309.117 253.752,-305.311 260.371,-302.131 266.894,-299.529"/>
<polygon fill="midnightblue" stroke="midnightblue" points="200.236,-349.46 192.326,-356.509 202.905,-355.932 200.236,-349.46"/>
</g>
<!-- Node21 -->
<g id="node21" class="node"><title>Node21</title>
<g id="a_node21"><a xlink:href="reader_8c.html#ac812a775973bb1eb24e86256b2de6b8b" target="_top" xlink:title="skip_comment">
<polygon fill="white" stroke="red" points="260,-318.617 260,-337.617 340,-337.617 340,-318.617 260,-318.617"/>
<text text-anchor="middle" x="300" y="-325.617" font-family="Helvetica,sans-Serif" font-size="10.00">skip_comment</text>
</a>
</g>
</g>
<!-- Node20&#45;&gt;Node21 -->
<g id="edge35" class="edge"><title>Node20&#45;&gt;Node21</title>
<path fill="none" stroke="midnightblue" d="M199.536,-354.005C219.87,-348.713 243.371,-342.596 262.423,-337.637"/>
<polygon fill="midnightblue" stroke="midnightblue" points="198.638,-350.622 189.842,-356.528 200.401,-357.396 198.638,-350.622"/>
</g>
<!-- Node22 -->
<g id="node22" class="node"><title>Node22</title>
<g id="a_node22"><a xlink:href="reader_8c.html#a5719a5118a10bc1e96786f599eeb516f" target="_top" xlink:title="copy_text">
<polygon fill="white" stroke="black" points="270.5,-128.617 270.5,-147.617 329.5,-147.617 329.5,-128.617 270.5,-128.617"/>
<text text-anchor="middle" x="300" y="-135.617" font-family="Helvetica,sans-Serif" font-size="10.00">copy_text</text>
</a>
</g>
</g>
<!-- Node20&#45;&gt;Node22 -->
<g id="edge36" class="edge"><title>Node20&#45;&gt;Node22</title>
<path fill="none" stroke="midnightblue" d="M208.211,-350.839C209.556,-349.687 210.825,-348.448 212,-347.117 268.882,-282.686 192.585,-222.813 248,-157.117 253.727,-150.328 262.124,-145.963 270.459,-143.157"/>
<polygon fill="midnightblue" stroke="midnightblue" points="206.106,-348.037 199.785,-356.539 210.029,-353.835 206.106,-348.037"/>
</g>
<!-- Node22&#45;&gt;Node8 -->
<g id="edge38" class="edge"><title>Node22&#45;&gt;Node8</title>
<path fill="none" stroke="midnightblue" d="M337.294,-125.503C371.278,-115.646 423.11,-105.675 466,-119.117 495.779,-128.451 524.221,-152.839 538.484,-166.497"/>
<polygon fill="midnightblue" stroke="midnightblue" points="335.896,-122.27 327.35,-128.532 337.936,-128.966 335.896,-122.27"/>
</g>
<!-- Node22&#45;&gt;Node16 -->
<g id="edge37" class="edge"><title>Node22&#45;&gt;Node16</title>
<path fill="none" stroke="midnightblue" d="M307.502,-118.669C318.627,-88.9314 344.432,-33.1834 388,-10.1172 418.638,6.10346 432.708,-0.451102 466,-10.1172 494.492,-18.3897 522.565,-39.8656 537.329,-52.4802"/>
<polygon fill="midnightblue" stroke="midnightblue" points="304.116,-117.745 304.062,-128.34 310.711,-120.092 304.116,-117.745"/>
</g>
<!-- Node23&#45;&gt;Node3 -->
<g id="edge45" class="edge"><title>Node23&#45;&gt;Node3</title>
<path fill="none" stroke="midnightblue" d="M213.248,-243.152C255.734,-240.107 311.974,-243.035 352,-271.117 382.596,-292.584 369.585,-314.593 388,-347.117 397.727,-364.297 410.817,-383.164 418.819,-394.306"/>
<polygon fill="midnightblue" stroke="midnightblue" points="212.705,-239.686 203.036,-244.017 213.295,-246.661 212.705,-239.686"/>
</g>
<!-- Node23&#45;&gt;Node6 -->
<g id="edge44" class="edge"><title>Node23&#45;&gt;Node6</title>
<path fill="none" stroke="midnightblue" d="M199.54,-240.004C222.842,-233.939 250.303,-226.792 270.46,-221.545"/>
<polygon fill="midnightblue" stroke="midnightblue" points="198.638,-236.622 189.842,-242.528 200.401,-243.396 198.638,-236.622"/>
</g>
<!-- Node23&#45;&gt;Node13 -->
<g id="edge43" class="edge"><title>Node23&#45;&gt;Node13</title>
<path fill="none" stroke="midnightblue" d="M199.591,-264.244C221.442,-269.931 246.941,-276.568 266.643,-281.696"/>
<polygon fill="midnightblue" stroke="midnightblue" points="200.401,-260.838 189.842,-261.706 198.638,-267.612 200.401,-260.838"/>
</g>
<!-- Node23&#45;&gt;Node22 -->
<g id="edge42" class="edge"><title>Node23&#45;&gt;Node22</title>
<path fill="none" stroke="midnightblue" d="M205.74,-237.794C207.951,-236.379 210.053,-234.825 212,-233.117 240.1,-208.473 220.463,-182.389 248,-157.117 254.265,-151.367 262.429,-147.312 270.381,-144.47"/>
<polygon fill="midnightblue" stroke="midnightblue" points="203.94,-234.787 196.771,-242.589 207.24,-240.961 203.94,-234.787"/>
</g>
<!-- Node24&#45;&gt;Node22 -->
<g id="edge47" class="edge"><title>Node24&#45;&gt;Node22</title>
<path fill="none" stroke="midnightblue" d="M209.88,-138.117C230.541,-138.117 253.016,-138.117 270.227,-138.117"/>
<polygon fill="midnightblue" stroke="midnightblue" points="209.597,-134.617 199.597,-138.117 209.597,-141.617 209.597,-134.617"/>
</g>
<!-- Node25&#45;&gt;Node13 -->
<g id="edge49" class="edge"><title>Node25&#45;&gt;Node13</title>
<path fill="none" stroke="midnightblue" d="M212.93,-290.117C231.368,-290.117 250.955,-290.117 266.779,-290.117"/>
<polygon fill="midnightblue" stroke="midnightblue" points="212.837,-286.617 202.837,-290.117 212.837,-293.617 212.837,-286.617"/>
</g>
</g>
</svg>
