<?xml version="1.0" encoding="UTF-8" standalone="no"?>
<!DOCTYPE svg PUBLIC "-//W3C//DTD SVG 1.1//EN"
 "http://www.w3.org/Graphics/SVG/1.1/DTD/svg11.dtd">
<!-- Generated by graphviz version 2.36.0 (20140111.2315)
 -->
<!-- Title: used_reserved Pages: 1 -->
<svg width="550pt" height="193pt"
 viewBox="0.00 0.00 550.00 192.91" xmlns="http://www.w3.org/2000/svg" xmlns:xlink="http://www.w3.org/1999/xlink">
<g id="graph0" class="graph" transform="scale(1 1) rotate(0) translate(4 188.909)">
<title>used_reserved</title>
<polygon fill="white" stroke="none" points="-4,4 -4,-188.909 546,-188.909 546,4 -4,4"/>
<!-- Node1 -->
<g id="node1" class="node"><title>Node1</title>
<polygon fill="#bfbfbf" stroke="black" points="0,-80.4085 0,-99.4085 80,-99.4085 80,-80.4085 0,-80.4085"/>
<text text-anchor="middle" x="40" y="-87.4085" font-family="Helvetica,sans-Serif" font-size="10.00">used_reserved</text>
</g>
<!-- Node2 -->
<g id="node2" class="node"><title>Node2</title>
<g id="a_node2"><a xlink:href="reader_8c.html#a47f6ab5db224a190b33568ed55a03eaf" target="_top" xlink:title="get_name">
<polygon fill="white" stroke="black" points="116.5,-80.4085 116.5,-99.4085 175.5,-99.4085 175.5,-80.4085 116.5,-80.4085"/>
<text text-anchor="middle" x="146" y="-87.4085" font-family="Helvetica,sans-Serif" font-size="10.00">get_name</text>
</a>
</g>
</g>
<!-- Node1&#45;&gt;Node2 -->
<g id="edge1" class="edge"><title>Node1&#45;&gt;Node2</title>
<path fill="none" stroke="midnightblue" d="M90.117,-89.9085C99.1542,-89.9085 108.308,-89.9085 116.482,-89.9085"/>
<polygon fill="midnightblue" stroke="midnightblue" points="90.0217,-86.4086 80.0217,-89.9085 90.0216,-93.4086 90.0217,-86.4086"/>
</g>
<!-- Node3 -->
<g id="node3" class="node"><title>Node3</title>
<g id="a_node3"><a xlink:href="reader_8c.html#a34bf32e056d8bc6f1fb490f4efc7ce90" target="_top" xlink:title="add_symbol">
<polygon fill="white" stroke="black" points="344.5,-165.409 344.5,-184.409 413.5,-184.409 413.5,-165.409 344.5,-165.409"/>
<text text-anchor="middle" x="379" y="-172.409" font-family="Helvetica,sans-Serif" font-size="10.00">add_symbol</text>
</a>
</g>
</g>
<!-- Node2&#45;&gt;Node3 -->
<g id="edge2" class="edge"><title>Node2&#45;&gt;Node3</title>
<path fill="none" stroke="midnightblue" d="M162.211,-107.317C174.375,-120.075 192.562,-136.709 212,-145.909 254.707,-166.121 309.595,-172.373 344.298,-174.234"/>
<polygon fill="midnightblue" stroke="midnightblue" points="164.475,-104.609 155.134,-99.6112 159.32,-109.344 164.475,-104.609"/>
</g>
<!-- Node5 -->
<g id="node5" class="node"><title>Node5</title>
<g id="a_node5"><a xlink:href="reader_8c.html#ac910677446efcb4dbebc9a6d3d90a9ff" target="_top" xlink:title="advance_to_start">
<polygon fill="white" stroke="black" points="333,-118.409 333,-137.409 425,-137.409 425,-118.409 333,-118.409"/>
<text text-anchor="middle" x="379" y="-125.409" font-family="Helvetica,sans-Serif" font-size="10.00">advance_to_start</text>
</a>
</g>
</g>
<!-- Node2&#45;&gt;Node5 -->
<g id="edge4" class="edge"><title>Node2&#45;&gt;Node5</title>
<path fill="none" stroke="midnightblue" d="M167.173,-105.48C179.41,-113.923 195.756,-123.509 212,-127.909 251.778,-138.683 298.913,-137.42 332.774,-134.206"/>
<polygon fill="midnightblue" stroke="midnightblue" points="169.209,-102.633 159.05,-99.6251 165.116,-108.312 169.209,-102.633"/>
</g>
<!-- Node6 -->
<g id="node6" class="node"><title>Node6</title>
<g id="a_node6"><a xlink:href="reader_8c.html#a279a8d9eb5a5ad8dce6c95b2647b9c98" target="_top" xlink:title="declare_start">
<polygon fill="white" stroke="black" points="217.5,-99.4085 217.5,-118.409 290.5,-118.409 290.5,-99.4085 217.5,-99.4085"/>
<text text-anchor="middle" x="254" y="-106.409" font-family="Helvetica,sans-Serif" font-size="10.00">declare_start</text>
</a>
</g>
</g>
<!-- Node2&#45;&gt;Node6 -->
<g id="edge6" class="edge"><title>Node2&#45;&gt;Node6</title>
<path fill="none" stroke="midnightblue" d="M185.735,-96.8516C196.113,-98.7118 207.279,-100.713 217.474,-102.541"/>
<polygon fill="midnightblue" stroke="midnightblue" points="186.146,-93.3695 175.685,-95.0502 184.911,-100.26 186.146,-93.3695"/>
</g>
<!-- Node8 -->
<g id="node8" class="node"><title>Node8</title>
<g id="a_node8"><a xlink:href="reader_8c.html#a0b749a023a959fabb8ed2778b46ec217" target="_top" xlink:title="declare_tokens">
<polygon fill="white" stroke="black" points="212.5,-61.4085 212.5,-80.4085 295.5,-80.4085 295.5,-61.4085 212.5,-61.4085"/>
<text text-anchor="middle" x="254" y="-68.4085" font-family="Helvetica,sans-Serif" font-size="10.00">declare_tokens</text>
</a>
</g>
</g>
<!-- Node2&#45;&gt;Node8 -->
<g id="edge9" class="edge"><title>Node2&#45;&gt;Node8</title>
<path fill="none" stroke="midnightblue" d="M185.587,-82.992C194.295,-81.4311 203.564,-79.7696 212.354,-78.1941"/>
<polygon fill="midnightblue" stroke="midnightblue" points="184.911,-79.5573 175.685,-84.7668 186.146,-86.4475 184.911,-79.5573"/>
</g>
<!-- Node9 -->
<g id="node9" class="node"><title>Node9</title>
<g id="a_node9"><a xlink:href="reader_8c.html#a860dbc8da656fd831b19668da20207c7" target="_top" xlink:title="declare_types">
<polygon fill="white" stroke="black" points="215.5,-23.4085 215.5,-42.4085 292.5,-42.4085 292.5,-23.4085 215.5,-23.4085"/>
<text text-anchor="middle" x="254" y="-30.4085" font-family="Helvetica,sans-Serif" font-size="10.00">declare_types</text>
</a>
</g>
</g>
<!-- Node2&#45;&gt;Node9 -->
<g id="edge11" class="edge"><title>Node2&#45;&gt;Node9</title>
<path fill="none" stroke="midnightblue" d="M171.158,-75.0484C183.266,-67.7908 198.244,-59.0961 212,-51.9085 218.119,-48.7113 224.876,-45.4671 231.109,-42.586"/>
<polygon fill="midnightblue" stroke="midnightblue" points="169.272,-72.099 162.527,-80.2695 172.895,-78.0885 169.272,-72.099"/>
</g>
<!-- Node10 -->
<g id="node10" class="node"><title>Node10</title>
<g id="a_node10"><a xlink:href="reader_8c.html#aae3985d515e47c03afc20f92c0292531" target="_top" xlink:title="mark_symbol">
<polygon fill="white" stroke="black" points="341.5,-4.4085 341.5,-23.4085 416.5,-23.4085 416.5,-4.4085 341.5,-4.4085"/>
<text text-anchor="middle" x="379" y="-11.4085" font-family="Helvetica,sans-Serif" font-size="10.00">mark_symbol</text>
</a>
</g>
</g>
<!-- Node2&#45;&gt;Node10 -->
<g id="edge13" class="edge"><title>Node2&#45;&gt;Node10</title>
<path fill="none" stroke="midnightblue" d="M156.541,-71.419C167.233,-52.9511 186.469,-25.6681 212,-13.9085 253.228,5.08064 306.559,0.704236 341.496,-5.47478"/>
<polygon fill="midnightblue" stroke="midnightblue" points="153.366,-69.9312 151.618,-80.3809 159.501,-73.3017 153.366,-69.9312"/>
</g>
<!-- Node4 -->
<g id="node4" class="node"><title>Node4</title>
<g id="a_node4"><a xlink:href="reader_8c.html#af6d4fba61bb761ca9fe92fef83e8ee94" target="_top" xlink:title="read_grammar">
<polygon fill="white" stroke="red" points="462.5,-118.409 462.5,-137.409 541.5,-137.409 541.5,-118.409 462.5,-118.409"/>
<text text-anchor="middle" x="502" y="-125.409" font-family="Helvetica,sans-Serif" font-size="10.00">read_grammar</text>
</a>
</g>
</g>
<!-- Node3&#45;&gt;Node4 -->
<g id="edge3" class="edge"><title>Node3&#45;&gt;Node4</title>
<path fill="none" stroke="midnightblue" d="M414.037,-161.687C433.779,-154.019 458.202,-144.532 476.135,-137.567"/>
<polygon fill="midnightblue" stroke="midnightblue" points="412.54,-158.514 404.486,-165.397 415.075,-165.039 412.54,-158.514"/>
</g>
<!-- Node5&#45;&gt;Node4 -->
<g id="edge5" class="edge"><title>Node5&#45;&gt;Node4</title>
<path fill="none" stroke="midnightblue" d="M435.245,-127.909C444.37,-127.909 453.655,-127.909 462.262,-127.909"/>
<polygon fill="midnightblue" stroke="midnightblue" points="435.056,-124.409 425.056,-127.909 435.056,-131.409 435.056,-124.409"/>
</g>
<!-- Node6&#45;&gt;Node5 -->
<g id="edge7" class="edge"><title>Node6&#45;&gt;Node5</title>
<path fill="none" stroke="midnightblue" d="M300.463,-115.931C311.039,-117.565 322.295,-119.304 332.857,-120.935"/>
<polygon fill="midnightblue" stroke="midnightblue" points="300.994,-112.472 290.577,-114.404 299.925,-119.39 300.994,-112.472"/>
</g>
<!-- Node7 -->
<g id="node7" class="node"><title>Node7</title>
<g id="a_node7"><a xlink:href="reader_8c.html#a07addfee5457e48ddb310769dd0e39af" target="_top" xlink:title="read_declarations">
<polygon fill="white" stroke="red" points="332.5,-61.4085 332.5,-80.4085 425.5,-80.4085 425.5,-61.4085 332.5,-61.4085"/>
<text text-anchor="middle" x="379" y="-68.4085" font-family="Helvetica,sans-Serif" font-size="10.00">read_declarations</text>
</a>
</g>
</g>
<!-- Node6&#45;&gt;Node7 -->
<g id="edge8" class="edge"><title>Node6&#45;&gt;Node7</title>
<path fill="none" stroke="midnightblue" d="M296.045,-96.2281C312.664,-91.0937 331.532,-85.2644 346.972,-80.4944"/>
<polygon fill="midnightblue" stroke="midnightblue" points="294.559,-93.0236 286.038,-99.3195 296.626,-99.7117 294.559,-93.0236"/>
</g>
<!-- Node8&#45;&gt;Node7 -->
<g id="edge10" class="edge"><title>Node8&#45;&gt;Node7</title>
<path fill="none" stroke="midnightblue" d="M305.764,-70.9085C314.565,-70.9085 323.669,-70.9085 332.325,-70.9085"/>
<polygon fill="midnightblue" stroke="midnightblue" points="305.616,-67.4086 295.616,-70.9085 305.616,-74.4086 305.616,-67.4086"/>
</g>
<!-- Node9&#45;&gt;Node7 -->
<g id="edge12" class="edge"><title>Node9&#45;&gt;Node7</title>
<path fill="none" stroke="midnightblue" d="M296.045,-45.5889C312.664,-50.7233 331.532,-56.5526 346.972,-61.3226"/>
<polygon fill="midnightblue" stroke="midnightblue" points="296.626,-42.1053 286.038,-42.4975 294.559,-48.7934 296.626,-42.1053"/>
</g>
<!-- Node10&#45;&gt;Node4 -->
<g id="edge14" class="edge"><title>Node10&#45;&gt;Node4</title>
<path fill="none" stroke="midnightblue" d="M400.329,-29.96C408.469,-36.5768 417.834,-44.4335 426,-51.9085 450.886,-74.6884 478.295,-103.491 492.061,-118.239"/>
<polygon fill="midnightblue" stroke="midnightblue" points="402.379,-27.1174 392.392,-23.5813 397.994,-32.5738 402.379,-27.1174"/>
</g>
</g>
</svg>
