<?xml version="1.0" encoding="UTF-8" standalone="no"?>
<!DOCTYPE svg PUBLIC "-//W3C//DTD SVG 1.1//EN"
 "http://www.w3.org/Graphics/SVG/1.1/DTD/svg11.dtd">
<!-- Generated by graphviz version 2.36.0 (20140111.2315)
 -->
<!-- Title: retyped_warning Pages: 1 -->
<svg width="426pt" height="66pt"
 viewBox="0.00 0.00 426.00 66.00" xmlns="http://www.w3.org/2000/svg" xmlns:xlink="http://www.w3.org/1999/xlink">
<g id="graph0" class="graph" transform="scale(1 1) rotate(0) translate(4 62)">
<title>retyped_warning</title>
<polygon fill="white" stroke="none" points="-4,4 -4,-62 422,-62 422,4 -4,4"/>
<!-- Node1 -->
<g id="node1" class="node"><title>Node1</title>
<polygon fill="#bfbfbf" stroke="black" points="0,-19.5 0,-38.5 88,-38.5 88,-19.5 0,-19.5"/>
<text text-anchor="middle" x="44" y="-26.5" font-family="Helvetica,sans-Serif" font-size="10.00">retyped_warning</text>
</g>
<!-- Node2 -->
<g id="node2" class="node"><title>Node2</title>
<g id="a_node2"><a xlink:href="reader_8c.html#a0b749a023a959fabb8ed2778b46ec217" target="_top" xlink:title="declare_tokens">
<polygon fill="white" stroke="black" points="124.5,-38.5 124.5,-57.5 207.5,-57.5 207.5,-38.5 124.5,-38.5"/>
<text text-anchor="middle" x="166" y="-45.5" font-family="Helvetica,sans-Serif" font-size="10.00">declare_tokens</text>
</a>
</g>
</g>
<!-- Node1&#45;&gt;Node2 -->
<g id="edge1" class="edge"><title>Node1&#45;&gt;Node2</title>
<path fill="none" stroke="midnightblue" d="M98.3524,-37.4475C107.007,-38.8177 115.848,-40.2175 124.143,-41.531"/>
<polygon fill="midnightblue" stroke="midnightblue" points="98.7471,-33.9664 88.3228,-35.8594 97.6523,-40.8803 98.7471,-33.9664"/>
</g>
<!-- Node5 -->
<g id="node5" class="node"><title>Node5</title>
<g id="a_node5"><a xlink:href="reader_8c.html#a860dbc8da656fd831b19668da20207c7" target="_top" xlink:title="declare_types">
<polygon fill="white" stroke="black" points="127.5,-0.5 127.5,-19.5 204.5,-19.5 204.5,-0.5 127.5,-0.5"/>
<text text-anchor="middle" x="166" y="-7.5" font-family="Helvetica,sans-Serif" font-size="10.00">declare_types</text>
</a>
</g>
</g>
<!-- Node1&#45;&gt;Node5 -->
<g id="edge4" class="edge"><title>Node1&#45;&gt;Node5</title>
<path fill="none" stroke="midnightblue" d="M98.3621,-20.551C108.12,-19.0059 118.116,-17.4233 127.299,-15.9694"/>
<polygon fill="midnightblue" stroke="midnightblue" points="97.6523,-17.1197 88.3228,-22.1406 98.7471,-24.0336 97.6523,-17.1197"/>
</g>
<!-- Node3 -->
<g id="node3" class="node"><title>Node3</title>
<g id="a_node3"><a xlink:href="reader_8c.html#a07addfee5457e48ddb310769dd0e39af" target="_top" xlink:title="read_declarations">
<polygon fill="white" stroke="black" points="244.5,-19.5 244.5,-38.5 337.5,-38.5 337.5,-19.5 244.5,-19.5"/>
<text text-anchor="middle" x="291" y="-26.5" font-family="Helvetica,sans-Serif" font-size="10.00">read_declarations</text>
</a>
</g>
</g>
<!-- Node2&#45;&gt;Node3 -->
<g id="edge2" class="edge"><title>Node2&#45;&gt;Node3</title>
<path fill="none" stroke="midnightblue" d="M217.764,-40.1584C226.565,-38.7989 235.669,-37.3925 244.325,-36.0555"/>
<polygon fill="midnightblue" stroke="midnightblue" points="216.964,-36.7404 207.616,-41.726 218.033,-43.6583 216.964,-36.7404"/>
</g>
<!-- Node4 -->
<g id="node4" class="node"><title>Node4</title>
<g id="a_node4"><a xlink:href="reader_8c.html#a3351a985e2d992eea6ed332cc837ad5b" target="_top" xlink:title="reader">
<polygon fill="white" stroke="red" points="374,-19.5 374,-38.5 418,-38.5 418,-19.5 374,-19.5"/>
<text text-anchor="middle" x="396" y="-26.5" font-family="Helvetica,sans-Serif" font-size="10.00">reader</text>
</a>
</g>
</g>
<!-- Node3&#45;&gt;Node4 -->
<g id="edge3" class="edge"><title>Node3&#45;&gt;Node4</title>
<path fill="none" stroke="midnightblue" d="M347.836,-29C357.091,-29 366.157,-29 373.829,-29"/>
<polygon fill="midnightblue" stroke="midnightblue" points="347.777,-25.5001 337.777,-29 347.777,-32.5001 347.777,-25.5001"/>
</g>
<!-- Node5&#45;&gt;Node3 -->
<g id="edge5" class="edge"><title>Node5&#45;&gt;Node3</title>
<path fill="none" stroke="midnightblue" d="M214.569,-17.3481C224.378,-18.8633 234.687,-20.4557 244.423,-21.9597"/>
<polygon fill="midnightblue" stroke="midnightblue" points="214.99,-13.8716 204.572,-15.8039 213.921,-20.7895 214.99,-13.8716"/>
</g>
</g>
</svg>
