<?xml version="1.0" encoding="UTF-8" standalone="no"?>
<!DOCTYPE svg PUBLIC "-//W3C//DTD SVG 1.1//EN"
 "http://www.w3.org/Graphics/SVG/1.1/DTD/svg11.dtd">
<!-- Generated by graphviz version 2.36.0 (20140111.2315)
 -->
<!-- Title: pack_symbols Pages: 1 -->
<svg width="258pt" height="28pt"
 viewBox="0.00 0.00 258.00 28.00" xmlns="http://www.w3.org/2000/svg" xmlns:xlink="http://www.w3.org/1999/xlink">
<g id="graph0" class="graph" transform="scale(1 1) rotate(0) translate(4 24)">
<title>pack_symbols</title>
<polygon fill="white" stroke="none" points="-4,4 -4,-24 254,-24 254,4 -4,4"/>
<!-- Node1 -->
<g id="node1" class="node"><title>Node1</title>
<polygon fill="#bfbfbf" stroke="black" points="0,-0.5 0,-19.5 80,-19.5 80,-0.5 0,-0.5"/>
<text text-anchor="middle" x="40" y="-7.5" font-family="Helvetica,sans-Serif" font-size="10.00">pack_symbols</text>
</g>
<!-- Node2 -->
<g id="node2" class="node"><title>Node2</title>
<g id="a_node2"><a xlink:href="group__eh.html#ga03b3d711852aa32c4076f12ea7bb93a4" target="_top" xlink:title="no_space">
<polygon fill="white" stroke="black" points="116.5,-0.5 116.5,-19.5 175.5,-19.5 175.5,-0.5 116.5,-0.5"/>
<text text-anchor="middle" x="146" y="-7.5" font-family="Helvetica,sans-Serif" font-size="10.00">no_space</text>
</a>
</g>
</g>
<!-- Node1&#45;&gt;Node2 -->
<g id="edge1" class="edge"><title>Node1&#45;&gt;Node2</title>
<path fill="none" stroke="midnightblue" d="M80.0217,-10C88.6268,-10 97.7384,-10 106.33,-10"/>
<polygon fill="midnightblue" stroke="midnightblue" points="106.482,-13.5001 116.482,-10 106.482,-6.5001 106.482,-13.5001"/>
</g>
<!-- Node3 -->
<g id="node3" class="node"><title>Node3</title>
<g id="a_node3"><a xlink:href="group__eh.html#ga67b6b9fd02aac96bef4297b1e6a1789a" target="_top" xlink:title="Shutdown function. ">
<polygon fill="white" stroke="black" points="212,-0.5 212,-19.5 250,-19.5 250,-0.5 212,-0.5"/>
<text text-anchor="middle" x="231" y="-7.5" font-family="Helvetica,sans-Serif" font-size="10.00">done</text>
</a>
</g>
</g>
<!-- Node2&#45;&gt;Node3 -->
<g id="edge2" class="edge"><title>Node2&#45;&gt;Node3</title>
<path fill="none" stroke="midnightblue" d="M175.564,-10C184.005,-10 193.238,-10 201.665,-10"/>
<polygon fill="midnightblue" stroke="midnightblue" points="201.785,-13.5001 211.785,-10 201.785,-6.5001 201.785,-13.5001"/>
</g>
</g>
</svg>
