<?xml version="1.0" encoding="UTF-8" standalone="no"?>
<!DOCTYPE svg PUBLIC "-//W3C//DTD SVG 1.1//EN"
 "http://www.w3.org/Graphics/SVG/1.1/DTD/svg11.dtd">
<!-- Generated by graphviz version 2.36.0 (20140111.2315)
 -->
<!-- Title: restarted_warning Pages: 1 -->
<svg width="550pt" height="66pt"
 viewBox="0.00 0.00 550.00 66.00" xmlns="http://www.w3.org/2000/svg" xmlns:xlink="http://www.w3.org/1999/xlink">
<g id="graph0" class="graph" transform="scale(1 1) rotate(0) translate(4 62)">
<title>restarted_warning</title>
<polygon fill="white" stroke="none" points="-4,4 -4,-62 546,-62 546,4 -4,4"/>
<!-- Node1 -->
<g id="node1" class="node"><title>Node1</title>
<polygon fill="#bfbfbf" stroke="black" points="0,-19.5 0,-38.5 94,-38.5 94,-19.5 0,-19.5"/>
<text text-anchor="middle" x="47" y="-26.5" font-family="Helvetica,sans-Serif" font-size="10.00">restarted_warning</text>
</g>
<!-- Node2 -->
<g id="node2" class="node"><title>Node2</title>
<g id="a_node2"><a xlink:href="reader_8c.html#a279a8d9eb5a5ad8dce6c95b2647b9c98" target="_top" xlink:title="declare_start">
<polygon fill="white" stroke="black" points="130.5,-19.5 130.5,-38.5 203.5,-38.5 203.5,-19.5 130.5,-19.5"/>
<text text-anchor="middle" x="167" y="-26.5" font-family="Helvetica,sans-Serif" font-size="10.00">declare_start</text>
</a>
</g>
</g>
<!-- Node1&#45;&gt;Node2 -->
<g id="edge1" class="edge"><title>Node1&#45;&gt;Node2</title>
<path fill="none" stroke="midnightblue" d="M104.559,-29C113.368,-29 122.25,-29 130.417,-29"/>
<polygon fill="midnightblue" stroke="midnightblue" points="104.298,-25.5001 94.298,-29 104.298,-32.5001 104.298,-25.5001"/>
</g>
<!-- Node3 -->
<g id="node3" class="node"><title>Node3</title>
<g id="a_node3"><a xlink:href="reader_8c.html#ac910677446efcb4dbebc9a6d3d90a9ff" target="_top" xlink:title="advance_to_start">
<polygon fill="white" stroke="black" points="240,-38.5 240,-57.5 332,-57.5 332,-38.5 240,-38.5"/>
<text text-anchor="middle" x="286" y="-45.5" font-family="Helvetica,sans-Serif" font-size="10.00">advance_to_start</text>
</a>
</g>
</g>
<!-- Node2&#45;&gt;Node3 -->
<g id="edge2" class="edge"><title>Node2&#45;&gt;Node3</title>
<path fill="none" stroke="midnightblue" d="M213.656,-36.4143C222.299,-37.8178 231.335,-39.2851 239.958,-40.6855"/>
<polygon fill="midnightblue" stroke="midnightblue" points="214.171,-32.9521 203.74,-34.8039 213.049,-39.8616 214.171,-32.9521"/>
</g>
<!-- Node6 -->
<g id="node6" class="node"><title>Node6</title>
<g id="a_node6"><a xlink:href="reader_8c.html#a07addfee5457e48ddb310769dd0e39af" target="_top" xlink:title="read_declarations">
<polygon fill="white" stroke="black" points="368.5,-0.5 368.5,-19.5 461.5,-19.5 461.5,-0.5 368.5,-0.5"/>
<text text-anchor="middle" x="415" y="-7.5" font-family="Helvetica,sans-Serif" font-size="10.00">read_declarations</text>
</a>
</g>
</g>
<!-- Node2&#45;&gt;Node6 -->
<g id="edge5" class="edge"><title>Node2&#45;&gt;Node6</title>
<path fill="none" stroke="midnightblue" d="M213.673,-25.4724C257.827,-22.0621 324.347,-16.9244 368.457,-13.5176"/>
<polygon fill="midnightblue" stroke="midnightblue" points="213.209,-21.9978 203.508,-26.2575 213.748,-28.977 213.209,-21.9978"/>
</g>
<!-- Node4 -->
<g id="node4" class="node"><title>Node4</title>
<g id="a_node4"><a xlink:href="reader_8c.html#af6d4fba61bb761ca9fe92fef83e8ee94" target="_top" xlink:title="read_grammar">
<polygon fill="white" stroke="black" points="375.5,-38.5 375.5,-57.5 454.5,-57.5 454.5,-38.5 375.5,-38.5"/>
<text text-anchor="middle" x="415" y="-45.5" font-family="Helvetica,sans-Serif" font-size="10.00">read_grammar</text>
</a>
</g>
</g>
<!-- Node3&#45;&gt;Node4 -->
<g id="edge3" class="edge"><title>Node3&#45;&gt;Node4</title>
<path fill="none" stroke="midnightblue" d="M342.237,-48C353.388,-48 364.886,-48 375.322,-48"/>
<polygon fill="midnightblue" stroke="midnightblue" points="342.133,-44.5001 332.133,-48 342.133,-51.5001 342.133,-44.5001"/>
</g>
<!-- Node5 -->
<g id="node5" class="node"><title>Node5</title>
<g id="a_node5"><a xlink:href="reader_8c.html#a3351a985e2d992eea6ed332cc837ad5b" target="_top" xlink:title="reader">
<polygon fill="white" stroke="red" points="498,-19.5 498,-38.5 542,-38.5 542,-19.5 498,-19.5"/>
<text text-anchor="middle" x="520" y="-26.5" font-family="Helvetica,sans-Serif" font-size="10.00">reader</text>
</a>
</g>
</g>
<!-- Node4&#45;&gt;Node5 -->
<g id="edge4" class="edge"><title>Node4&#45;&gt;Node5</title>
<path fill="none" stroke="midnightblue" d="M464.746,-39.0079C476.362,-36.8652 488.165,-34.6879 497.783,-32.9138"/>
<polygon fill="midnightblue" stroke="midnightblue" points="463.846,-35.615 454.646,-40.871 465.115,-42.4988 463.846,-35.615"/>
</g>
<!-- Node6&#45;&gt;Node5 -->
<g id="edge6" class="edge"><title>Node6&#45;&gt;Node5</title>
<path fill="none" stroke="midnightblue" d="M471.836,-20.2999C481.091,-22.007 490.157,-23.6795 497.829,-25.0947"/>
<polygon fill="midnightblue" stroke="midnightblue" points="472.246,-16.8165 461.777,-18.4443 470.976,-23.7004 472.246,-16.8165"/>
</g>
</g>
</svg>
