<?xml version="1.0" encoding="UTF-8" standalone="no"?>
<!DOCTYPE svg PUBLIC "-//W3C//DTD SVG 1.1//EN"
 "http://www.w3.org/Graphics/SVG/1.1/DTD/svg11.dtd">
<!-- Generated by graphviz version 2.36.0 (20140111.2315)
 -->
<!-- Title: open_error Pages: 1 -->
<svg width="404pt" height="132pt"
 viewBox="0.00 0.00 404.00 132.00" xmlns="http://www.w3.org/2000/svg" xmlns:xlink="http://www.w3.org/1999/xlink">
<g id="graph0" class="graph" transform="scale(1 1) rotate(0) translate(4 128)">
<title>open_error</title>
<polygon fill="white" stroke="none" points="-4,4 -4,-128 400,-128 400,4 -4,4"/>
<!-- Node1 -->
<g id="node1" class="node"><title>Node1</title>
<polygon fill="#bfbfbf" stroke="black" points="0,-57.5 0,-76.5 62,-76.5 62,-57.5 0,-57.5"/>
<text text-anchor="middle" x="31" y="-64.5" font-family="Helvetica,sans-Serif" font-size="10.00">open_error</text>
</g>
<!-- Node2 -->
<g id="node2" class="node"><title>Node2</title>
<g id="a_node2"><a xlink:href="main_8c.html#a2a2d365d086e7a890bc2770b6a9c0f0f" target="_top" xlink:title="open_files">
<polygon fill="white" stroke="black" points="260.5,-104.5 260.5,-123.5 321.5,-123.5 321.5,-104.5 260.5,-104.5"/>
<text text-anchor="middle" x="291" y="-111.5" font-family="Helvetica,sans-Serif" font-size="10.00">open_files</text>
</a>
</g>
</g>
<!-- Node1&#45;&gt;Node2 -->
<g id="edge1" class="edge"><title>Node1&#45;&gt;Node2</title>
<path fill="none" stroke="midnightblue" d="M52.5995,-82.2899C65.0636,-90.6364 81.6618,-100.22 98,-105 153.568,-121.257 222.005,-119.612 260.344,-116.864"/>
<polygon fill="midnightblue" stroke="midnightblue" points="54.5224,-79.3639 44.3171,-76.5174 50.5199,-85.1068 54.5224,-79.3639"/>
</g>
<!-- Node4 -->
<g id="node4" class="node"><title>Node4</title>
<g id="a_node4"><a xlink:href="output_8c.html#ad5c78e4eb26c46733f81ca9723ecef22" target="_top" xlink:title="output_defines">
<polygon fill="white" stroke="black" points="121,-76.5 121,-95.5 201,-95.5 201,-76.5 121,-76.5"/>
<text text-anchor="middle" x="161" y="-83.5" font-family="Helvetica,sans-Serif" font-size="10.00">output_defines</text>
</a>
</g>
</g>
<!-- Node1&#45;&gt;Node4 -->
<g id="edge3" class="edge"><title>Node1&#45;&gt;Node4</title>
<path fill="none" stroke="midnightblue" d="M71.9097,-72.9241C87.5386,-75.244 105.412,-77.8971 120.956,-80.2044"/>
<polygon fill="midnightblue" stroke="midnightblue" points="72.4159,-69.461 62.0103,-71.4547 71.388,-76.3851 72.4159,-69.461"/>
</g>
<!-- Node6 -->
<g id="node6" class="node"><title>Node6</title>
<g id="a_node6"><a xlink:href="output_8c.html#af387dfcebcd4b98964c1bcbd6c635401" target="_top" xlink:title="output_semantic_actions">
<polygon fill="white" stroke="black" points="98.5,-38.5 98.5,-57.5 223.5,-57.5 223.5,-38.5 98.5,-38.5"/>
<text text-anchor="middle" x="161" y="-45.5" font-family="Helvetica,sans-Serif" font-size="10.00">output_semantic_actions</text>
</a>
</g>
</g>
<!-- Node1&#45;&gt;Node6 -->
<g id="edge6" class="edge"><title>Node1&#45;&gt;Node6</title>
<path fill="none" stroke="midnightblue" d="M71.9134,-61.0754C80.3366,-59.825 89.4115,-58.478 98.4223,-57.1404"/>
<polygon fill="midnightblue" stroke="midnightblue" points="71.388,-57.6149 62.0103,-62.5453 72.4159,-64.539 71.388,-57.6149"/>
</g>
<!-- Node7 -->
<g id="node7" class="node"><title>Node7</title>
<g id="a_node7"><a xlink:href="output_8c.html#aa172b05ccd1e6469debaca283975f2bd" target="_top" xlink:title="output_stored_text">
<polygon fill="white" stroke="black" points="112,-0.5 112,-19.5 210,-19.5 210,-0.5 112,-0.5"/>
<text text-anchor="middle" x="161" y="-7.5" font-family="Helvetica,sans-Serif" font-size="10.00">output_stored_text</text>
</a>
</g>
</g>
<!-- Node1&#45;&gt;Node7 -->
<g id="edge8" class="edge"><title>Node1&#45;&gt;Node7</title>
<path fill="none" stroke="midnightblue" d="M55.1819,-51.9341C67.5427,-44.3482 83.215,-35.424 98,-29 106.26,-25.4109 115.413,-22.2096 124.093,-19.5041"/>
<polygon fill="midnightblue" stroke="midnightblue" points="53.0589,-49.1341 46.4445,-57.4106 56.7765,-55.0653 53.0589,-49.1341"/>
</g>
<!-- Node3 -->
<g id="node3" class="node"><title>Node3</title>
<g id="a_node3"><a xlink:href="main_8c.html#afced8478b91af5c169926dfa4426333d" target="_top" xlink:title="main">
<polygon fill="white" stroke="black" points="358,-75.5 358,-94.5 396,-94.5 396,-75.5 358,-75.5"/>
<text text-anchor="middle" x="377" y="-82.5" font-family="Helvetica,sans-Serif" font-size="10.00">main</text>
</a>
</g>
</g>
<!-- Node2&#45;&gt;Node3 -->
<g id="edge2" class="edge"><title>Node2&#45;&gt;Node3</title>
<path fill="none" stroke="midnightblue" d="M329.619,-101.012C339.457,-97.6161 349.619,-94.1079 357.914,-91.244"/>
<polygon fill="midnightblue" stroke="midnightblue" points="328.281,-97.7716 319.971,-104.343 330.566,-104.388 328.281,-97.7716"/>
</g>
<!-- Node5 -->
<g id="node5" class="node"><title>Node5</title>
<g id="a_node5"><a xlink:href="output_8c.html#a3939045b11b9aaefdf692feb963f0dfc" target="_top" xlink:title="output">
<polygon fill="white" stroke="black" points="269,-47.5 269,-66.5 313,-66.5 313,-47.5 269,-47.5"/>
<text text-anchor="middle" x="291" y="-54.5" font-family="Helvetica,sans-Serif" font-size="10.00">output</text>
</a>
</g>
</g>
<!-- Node4&#45;&gt;Node5 -->
<g id="edge4" class="edge"><title>Node4&#45;&gt;Node5</title>
<path fill="none" stroke="midnightblue" d="M211.05,-74.887C231.115,-70.3412 253.255,-65.325 268.971,-61.7644"/>
<polygon fill="midnightblue" stroke="midnightblue" points="210.079,-71.5183 201.1,-77.1415 211.626,-78.3453 210.079,-71.5183"/>
</g>
<!-- Node5&#45;&gt;Node3 -->
<g id="edge5" class="edge"><title>Node5&#45;&gt;Node3</title>
<path fill="none" stroke="midnightblue" d="M322.74,-67.2466C334.569,-71.1897 347.685,-75.5617 357.941,-78.9804"/>
<polygon fill="midnightblue" stroke="midnightblue" points="323.79,-63.9075 313.197,-64.0656 321.577,-70.5483 323.79,-63.9075"/>
</g>
<!-- Node6&#45;&gt;Node5 -->
<g id="edge7" class="edge"><title>Node6&#45;&gt;Node5</title>
<path fill="none" stroke="midnightblue" d="M234.013,-53.0634C246.743,-53.9585 259.043,-54.8234 268.857,-55.5134"/>
<polygon fill="midnightblue" stroke="midnightblue" points="233.971,-49.5519 223.75,-52.3418 233.48,-56.5347 233.971,-49.5519"/>
</g>
<!-- Node7&#45;&gt;Node5 -->
<g id="edge9" class="edge"><title>Node7&#45;&gt;Node5</title>
<path fill="none" stroke="midnightblue" d="M205.186,-22.6024C211.531,-24.6366 217.961,-26.8002 224,-29 239.321,-34.5803 256.244,-41.7815 269.118,-47.4834"/>
<polygon fill="midnightblue" stroke="midnightblue" points="205.942,-19.1717 195.353,-19.5258 203.852,-25.8523 205.942,-19.1717"/>
</g>
</g>
</svg>
