<?xml version="1.0" encoding="UTF-8" standalone="no"?>
<!DOCTYPE svg PUBLIC "-//W3C//DTD SVG 1.1//EN"
 "http://www.w3.org/Graphics/SVG/1.1/DTD/svg11.dtd">
<!-- Generated by graphviz version 2.36.0 (20140111.2315)
 -->
<!-- Title: set_signals Pages: 1 -->
<svg width="226pt" height="28pt"
 viewBox="0.00 0.00 226.00 28.00" xmlns="http://www.w3.org/2000/svg" xmlns:xlink="http://www.w3.org/1999/xlink">
<g id="graph0" class="graph" transform="scale(1 1) rotate(0) translate(4 24)">
<title>set_signals</title>
<polygon fill="white" stroke="none" points="-4,4 -4,-24 222,-24 222,4 -4,4"/>
<!-- Node1 -->
<g id="node1" class="node"><title>Node1</title>
<polygon fill="#bfbfbf" stroke="black" points="0,-0.5 0,-19.5 66,-19.5 66,-0.5 0,-0.5"/>
<text text-anchor="middle" x="33" y="-7.5" font-family="Helvetica,sans-Serif" font-size="10.00">set_signals</text>
</g>
<!-- Node2 -->
<g id="node2" class="node"><title>Node2</title>
<g id="a_node2"><a xlink:href="group__eh.html#ga9fdf94a8dff4664e9d01c43536ca3af4" target="_top" xlink:title="Signal handler callback. ">
<polygon fill="white" stroke="black" points="102.5,-0.5 102.5,-19.5 143.5,-19.5 143.5,-0.5 102.5,-0.5"/>
<text text-anchor="middle" x="123" y="-7.5" font-family="Helvetica,sans-Serif" font-size="10.00">onintr</text>
</a>
</g>
</g>
<!-- Node1&#45;&gt;Node2 -->
<g id="edge1" class="edge"><title>Node1&#45;&gt;Node2</title>
<path fill="none" stroke="midnightblue" d="M66.2683,-10C74.7529,-10 83.8654,-10 92.2132,-10"/>
<polygon fill="midnightblue" stroke="midnightblue" points="92.2734,-13.5001 102.273,-10 92.2733,-6.5001 92.2734,-13.5001"/>
</g>
<!-- Node3 -->
<g id="node3" class="node"><title>Node3</title>
<g id="a_node3"><a xlink:href="group__eh.html#ga67b6b9fd02aac96bef4297b1e6a1789a" target="_top" xlink:title="Shutdown function. ">
<polygon fill="white" stroke="black" points="180,-0.5 180,-19.5 218,-19.5 218,-0.5 180,-0.5"/>
<text text-anchor="middle" x="199" y="-7.5" font-family="Helvetica,sans-Serif" font-size="10.00">done</text>
</a>
</g>
</g>
<!-- Node2&#45;&gt;Node3 -->
<g id="edge2" class="edge"><title>Node2&#45;&gt;Node3</title>
<path fill="none" stroke="midnightblue" d="M143.831,-10C151.805,-10 161.147,-10 169.805,-10"/>
<polygon fill="midnightblue" stroke="midnightblue" points="169.89,-13.5001 179.89,-10 169.89,-6.5001 169.89,-13.5001"/>
</g>
</g>
</svg>
