<?xml version="1.0" encoding="UTF-8" standalone="no"?>
<!DOCTYPE svg PUBLIC "-//W3C//DTD SVG 1.1//EN"
 "http://www.w3.org/Graphics/SVG/1.1/DTD/svg11.dtd">
<!-- Generated by graphviz version 2.36.0 (20140111.2315)
 -->
<!-- Title: digraph Pages: 1 -->
<svg width="340pt" height="66pt"
 viewBox="0.00 0.00 340.00 66.00" xmlns="http://www.w3.org/2000/svg" xmlns:xlink="http://www.w3.org/1999/xlink">
<g id="graph0" class="graph" transform="scale(1 1) rotate(0) translate(4 62)">
<title>digraph</title>
<polygon fill="white" stroke="none" points="-4,4 -4,-62 336,-62 336,4 -4,4"/>
<!-- Node1 -->
<g id="node1" class="node"><title>Node1</title>
<polygon fill="#bfbfbf" stroke="black" points="0,-19.5 0,-38.5 48,-38.5 48,-19.5 0,-19.5"/>
<text text-anchor="middle" x="24" y="-26.5" font-family="Helvetica,sans-Serif" font-size="10.00">digraph</text>
</g>
<!-- Node2 -->
<g id="node2" class="node"><title>Node2</title>
<g id="a_node2"><a xlink:href="lalr_8c.html#a549587ac9636a2e338da2df1df852802" target="_top" xlink:title="compute_FOLLOWS">
<polygon fill="white" stroke="black" points="84.5,-38.5 84.5,-57.5 191.5,-57.5 191.5,-38.5 84.5,-38.5"/>
<text text-anchor="middle" x="138" y="-45.5" font-family="Helvetica,sans-Serif" font-size="10.00">compute_FOLLOWS</text>
</a>
</g>
</g>
<!-- Node1&#45;&gt;Node2 -->
<g id="edge1" class="edge"><title>Node1&#45;&gt;Node2</title>
<path fill="none" stroke="midnightblue" d="M58.126,-34.6196C66.3462,-36.0141 75.3604,-37.5433 84.2642,-39.0538"/>
<polygon fill="midnightblue" stroke="midnightblue" points="58.651,-31.1587 48.2065,-32.9368 57.4802,-38.0601 58.651,-31.1587"/>
</g>
<!-- Node5 -->
<g id="node5" class="node"><title>Node5</title>
<g id="a_node5"><a xlink:href="lalr_8c.html#a6c91f5faa72becd25b25708e2ca97649" target="_top" xlink:title="initialize_F">
<polygon fill="white" stroke="black" points="106.5,-0.5 106.5,-19.5 169.5,-19.5 169.5,-0.5 106.5,-0.5"/>
<text text-anchor="middle" x="138" y="-7.5" font-family="Helvetica,sans-Serif" font-size="10.00">initialize_F</text>
</a>
</g>
</g>
<!-- Node1&#45;&gt;Node5 -->
<g id="edge4" class="edge"><title>Node1&#45;&gt;Node5</title>
<path fill="none" stroke="midnightblue" d="M58.2196,-23.3645C73.4057,-20.7883 91.2863,-17.755 106.171,-15.2299"/>
<polygon fill="midnightblue" stroke="midnightblue" points="57.4802,-19.9399 48.2065,-25.0632 58.651,-26.8413 57.4802,-19.9399"/>
</g>
<!-- Node3 -->
<g id="node3" class="node"><title>Node3</title>
<g id="a_node3"><a xlink:href="lalr_8c.html#aa70d90188d9b76b70e29c8f7e19dc92f" target="_top" xlink:title="lalr">
<polygon fill="white" stroke="black" points="228.5,-19.5 228.5,-38.5 257.5,-38.5 257.5,-19.5 228.5,-19.5"/>
<text text-anchor="middle" x="243" y="-26.5" font-family="Helvetica,sans-Serif" font-size="10.00">lalr</text>
</a>
</g>
</g>
<!-- Node2&#45;&gt;Node3 -->
<g id="edge2" class="edge"><title>Node2&#45;&gt;Node3</title>
<path fill="none" stroke="midnightblue" d="M200.786,-36.6026C211.076,-34.7045 220.795,-32.9117 228.207,-31.5442"/>
<polygon fill="midnightblue" stroke="midnightblue" points="200.001,-33.1883 190.802,-38.4443 201.271,-40.0721 200.001,-33.1883"/>
</g>
<!-- Node4 -->
<g id="node4" class="node"><title>Node4</title>
<g id="a_node4"><a xlink:href="main_8c.html#afced8478b91af5c169926dfa4426333d" target="_top" xlink:title="main">
<polygon fill="white" stroke="black" points="294,-19.5 294,-38.5 332,-38.5 332,-19.5 294,-19.5"/>
<text text-anchor="middle" x="313" y="-26.5" font-family="Helvetica,sans-Serif" font-size="10.00">main</text>
</a>
</g>
</g>
<!-- Node3&#45;&gt;Node4 -->
<g id="edge3" class="edge"><title>Node3&#45;&gt;Node4</title>
<path fill="none" stroke="midnightblue" d="M267.891,-29C276.428,-29 285.901,-29 293.872,-29"/>
<polygon fill="midnightblue" stroke="midnightblue" points="267.761,-25.5001 257.761,-29 267.761,-32.5001 267.761,-25.5001"/>
</g>
<!-- Node5&#45;&gt;Node3 -->
<g id="edge5" class="edge"><title>Node5&#45;&gt;Node3</title>
<path fill="none" stroke="midnightblue" d="M179.584,-17.4863C196.946,-20.6891 216.045,-24.2121 228.484,-26.5068"/>
<polygon fill="midnightblue" stroke="midnightblue" points="180.094,-14.0214 169.625,-15.6492 178.824,-20.9052 180.094,-14.0214"/>
</g>
</g>
</svg>
