<?xml version="1.0" encoding="UTF-8" standalone="no"?>
<!DOCTYPE svg PUBLIC "-//W3C//DTD SVG 1.1//EN"
 "http://www.w3.org/Graphics/SVG/1.1/DTD/svg11.dtd">
<!-- Generated by graphviz version 2.36.0 (20140111.2315)
 -->
<!-- Title: map_goto Pages: 1 -->
<svg width="324pt" height="66pt"
 viewBox="0.00 0.00 324.00 66.00" xmlns="http://www.w3.org/2000/svg" xmlns:xlink="http://www.w3.org/1999/xlink">
<g id="graph0" class="graph" transform="scale(1 1) rotate(0) translate(4 62)">
<title>map_goto</title>
<polygon fill="white" stroke="none" points="-4,4 -4,-62 320,-62 320,4 -4,4"/>
<!-- Node1 -->
<g id="node1" class="node"><title>Node1</title>
<polygon fill="#bfbfbf" stroke="black" points="0.5,-19.5 0.5,-38.5 59.5,-38.5 59.5,-19.5 0.5,-19.5"/>
<text text-anchor="middle" x="30" y="-26.5" font-family="Helvetica,sans-Serif" font-size="10.00">map_goto</text>
</g>
<!-- Node2 -->
<g id="node2" class="node"><title>Node2</title>
<g id="a_node2"><a xlink:href="lalr_8c.html#a0a930e748b6863b16e0521247533842e" target="_top" xlink:title="build_relations">
<polygon fill="white" stroke="black" points="96.5,-38.5 96.5,-57.5 175.5,-57.5 175.5,-38.5 96.5,-38.5"/>
<text text-anchor="middle" x="136" y="-45.5" font-family="Helvetica,sans-Serif" font-size="10.00">build_relations</text>
</a>
</g>
</g>
<!-- Node1&#45;&gt;Node2 -->
<g id="edge1" class="edge"><title>Node1&#45;&gt;Node2</title>
<path fill="none" stroke="midnightblue" d="M69.6063,-36.0531C78.3155,-37.6442 87.5626,-39.3335 96.2765,-40.9255"/>
<polygon fill="midnightblue" stroke="midnightblue" points="70.16,-32.5964 59.6938,-34.2421 68.9019,-39.4824 70.16,-32.5964"/>
</g>
<!-- Node5 -->
<g id="node5" class="node"><title>Node5</title>
<g id="a_node5"><a xlink:href="lalr_8c.html#a6c91f5faa72becd25b25708e2ca97649" target="_top" xlink:title="initialize_F">
<polygon fill="white" stroke="black" points="104.5,-0.5 104.5,-19.5 167.5,-19.5 167.5,-0.5 104.5,-0.5"/>
<text text-anchor="middle" x="136" y="-7.5" font-family="Helvetica,sans-Serif" font-size="10.00">initialize_F</text>
</a>
</g>
</g>
<!-- Node1&#45;&gt;Node5 -->
<g id="edge4" class="edge"><title>Node1&#45;&gt;Node5</title>
<path fill="none" stroke="midnightblue" d="M69.8058,-21.9105C81.1662,-19.835 93.4261,-17.5952 104.215,-15.6241"/>
<polygon fill="midnightblue" stroke="midnightblue" points="68.9019,-18.5176 59.6938,-23.7579 70.16,-25.4036 68.9019,-18.5176"/>
</g>
<!-- Node3 -->
<g id="node3" class="node"><title>Node3</title>
<g id="a_node3"><a xlink:href="lalr_8c.html#aa70d90188d9b76b70e29c8f7e19dc92f" target="_top" xlink:title="lalr">
<polygon fill="white" stroke="black" points="212.5,-19.5 212.5,-38.5 241.5,-38.5 241.5,-19.5 212.5,-19.5"/>
<text text-anchor="middle" x="227" y="-26.5" font-family="Helvetica,sans-Serif" font-size="10.00">lalr</text>
</a>
</g>
</g>
<!-- Node2&#45;&gt;Node3 -->
<g id="edge2" class="edge"><title>Node2&#45;&gt;Node3</title>
<path fill="none" stroke="midnightblue" d="M185.444,-37.658C195.355,-35.5421 205.003,-33.4824 212.401,-31.9031"/>
<polygon fill="midnightblue" stroke="midnightblue" points="184.568,-34.2661 175.519,-39.7768 186.029,-41.1118 184.568,-34.2661"/>
</g>
<!-- Node4 -->
<g id="node4" class="node"><title>Node4</title>
<g id="a_node4"><a xlink:href="main_8c.html#afced8478b91af5c169926dfa4426333d" target="_top" xlink:title="main">
<polygon fill="white" stroke="black" points="278,-19.5 278,-38.5 316,-38.5 316,-19.5 278,-19.5"/>
<text text-anchor="middle" x="297" y="-26.5" font-family="Helvetica,sans-Serif" font-size="10.00">main</text>
</a>
</g>
</g>
<!-- Node3&#45;&gt;Node4 -->
<g id="edge3" class="edge"><title>Node3&#45;&gt;Node4</title>
<path fill="none" stroke="midnightblue" d="M251.891,-29C260.428,-29 269.901,-29 277.872,-29"/>
<polygon fill="midnightblue" stroke="midnightblue" points="251.761,-25.5001 241.761,-29 251.761,-32.5001 251.761,-25.5001"/>
</g>
<!-- Node5&#45;&gt;Node3 -->
<g id="edge5" class="edge"><title>Node5&#45;&gt;Node3</title>
<path fill="none" stroke="midnightblue" d="M177.548,-18.6563C190.127,-21.3417 203.13,-24.1177 212.495,-26.1169"/>
<polygon fill="midnightblue" stroke="midnightblue" points="178.139,-15.2037 167.629,-16.5387 176.678,-22.0495 178.139,-15.2037"/>
</g>
</g>
</svg>
