<?xml version="1.0" encoding="UTF-8" standalone="no"?>
<!DOCTYPE svg PUBLIC "-//W3C//DTD SVG 1.1//EN"
 "http://www.w3.org/Graphics/SVG/1.1/DTD/svg11.dtd">
<!-- Generated by graphviz version 2.36.0 (20140111.2315)
 -->
<!-- Title: transpose Pages: 1 -->
<svg width="324pt" height="28pt"
 viewBox="0.00 0.00 324.00 28.00" xmlns="http://www.w3.org/2000/svg" xmlns:xlink="http://www.w3.org/1999/xlink">
<g id="graph0" class="graph" transform="scale(1 1) rotate(0) translate(4 24)">
<title>transpose</title>
<polygon fill="white" stroke="none" points="-4,4 -4,-24 320,-24 320,4 -4,4"/>
<!-- Node1 -->
<g id="node1" class="node"><title>Node1</title>
<polygon fill="#bfbfbf" stroke="black" points="0.5,-0.5 0.5,-19.5 59.5,-19.5 59.5,-0.5 0.5,-0.5"/>
<text text-anchor="middle" x="30" y="-7.5" font-family="Helvetica,sans-Serif" font-size="10.00">transpose</text>
</g>
<!-- Node2 -->
<g id="node2" class="node"><title>Node2</title>
<g id="a_node2"><a xlink:href="lalr_8c.html#a0a930e748b6863b16e0521247533842e" target="_top" xlink:title="build_relations">
<polygon fill="white" stroke="black" points="96.5,-0.5 96.5,-19.5 175.5,-19.5 175.5,-0.5 96.5,-0.5"/>
<text text-anchor="middle" x="136" y="-7.5" font-family="Helvetica,sans-Serif" font-size="10.00">build_relations</text>
</a>
</g>
</g>
<!-- Node1&#45;&gt;Node2 -->
<g id="edge1" class="edge"><title>Node1&#45;&gt;Node2</title>
<path fill="none" stroke="midnightblue" d="M69.8905,-10C78.5165,-10 87.6573,-10 96.2765,-10"/>
<polygon fill="midnightblue" stroke="midnightblue" points="69.6938,-6.5001 59.6938,-10 69.6937,-13.5001 69.6938,-6.5001"/>
</g>
<!-- Node3 -->
<g id="node3" class="node"><title>Node3</title>
<g id="a_node3"><a xlink:href="lalr_8c.html#aa70d90188d9b76b70e29c8f7e19dc92f" target="_top" xlink:title="lalr">
<polygon fill="white" stroke="black" points="212.5,-0.5 212.5,-19.5 241.5,-19.5 241.5,-0.5 212.5,-0.5"/>
<text text-anchor="middle" x="227" y="-7.5" font-family="Helvetica,sans-Serif" font-size="10.00">lalr</text>
</a>
</g>
</g>
<!-- Node2&#45;&gt;Node3 -->
<g id="edge2" class="edge"><title>Node2&#45;&gt;Node3</title>
<path fill="none" stroke="midnightblue" d="M185.754,-10C195.556,-10 205.08,-10 212.401,-10"/>
<polygon fill="midnightblue" stroke="midnightblue" points="185.519,-6.5001 175.519,-10 185.519,-13.5001 185.519,-6.5001"/>
</g>
<!-- Node4 -->
<g id="node4" class="node"><title>Node4</title>
<g id="a_node4"><a xlink:href="main_8c.html#afced8478b91af5c169926dfa4426333d" target="_top" xlink:title="main">
<polygon fill="white" stroke="black" points="278,-0.5 278,-19.5 316,-19.5 316,-0.5 278,-0.5"/>
<text text-anchor="middle" x="297" y="-7.5" font-family="Helvetica,sans-Serif" font-size="10.00">main</text>
</a>
</g>
</g>
<!-- Node3&#45;&gt;Node4 -->
<g id="edge3" class="edge"><title>Node3&#45;&gt;Node4</title>
<path fill="none" stroke="midnightblue" d="M251.891,-10C260.428,-10 269.901,-10 277.872,-10"/>
<polygon fill="midnightblue" stroke="midnightblue" points="251.761,-6.5001 241.761,-10 251.761,-13.5001 251.761,-6.5001"/>
</g>
</g>
</svg>
