<?xml version="1.0" encoding="UTF-8" standalone="no"?>
<!DOCTYPE svg PUBLIC "-//W3C//DTD SVG 1.1//EN"
 "http://www.w3.org/Graphics/SVG/1.1/DTD/svg11.dtd">
<!-- Generated by graphviz version 2.36.0 (20140111.2315)
 -->
<!-- Title: initialize_F Pages: 1 -->
<svg width="212pt" height="28pt"
 viewBox="0.00 0.00 212.00 28.00" xmlns="http://www.w3.org/2000/svg" xmlns:xlink="http://www.w3.org/1999/xlink">
<g id="graph0" class="graph" transform="scale(1 1) rotate(0) translate(4 24)">
<title>initialize_F</title>
<polygon fill="white" stroke="none" points="-4,4 -4,-24 208,-24 208,4 -4,4"/>
<!-- Node1 -->
<g id="node1" class="node"><title>Node1</title>
<polygon fill="#bfbfbf" stroke="black" points="0.5,-0.5 0.5,-19.5 63.5,-19.5 63.5,-0.5 0.5,-0.5"/>
<text text-anchor="middle" x="32" y="-7.5" font-family="Helvetica,sans-Serif" font-size="10.00">initialize_F</text>
</g>
<!-- Node2 -->
<g id="node2" class="node"><title>Node2</title>
<g id="a_node2"><a xlink:href="lalr_8c.html#aa70d90188d9b76b70e29c8f7e19dc92f" target="_top" xlink:title="lalr">
<polygon fill="white" stroke="black" points="100.5,-0.5 100.5,-19.5 129.5,-19.5 129.5,-0.5 100.5,-0.5"/>
<text text-anchor="middle" x="115" y="-7.5" font-family="Helvetica,sans-Serif" font-size="10.00">lalr</text>
</a>
</g>
</g>
<!-- Node1&#45;&gt;Node2 -->
<g id="edge1" class="edge"><title>Node1&#45;&gt;Node2</title>
<path fill="none" stroke="midnightblue" d="M73.6461,-10C83.3503,-10 93.0434,-10 100.497,-10"/>
<polygon fill="midnightblue" stroke="midnightblue" points="73.6227,-6.5001 63.6226,-10 73.6226,-13.5001 73.6227,-6.5001"/>
</g>
<!-- Node3 -->
<g id="node3" class="node"><title>Node3</title>
<g id="a_node3"><a xlink:href="main_8c.html#afced8478b91af5c169926dfa4426333d" target="_top" xlink:title="main">
<polygon fill="white" stroke="black" points="166,-0.5 166,-19.5 204,-19.5 204,-0.5 166,-0.5"/>
<text text-anchor="middle" x="185" y="-7.5" font-family="Helvetica,sans-Serif" font-size="10.00">main</text>
</a>
</g>
</g>
<!-- Node2&#45;&gt;Node3 -->
<g id="edge2" class="edge"><title>Node2&#45;&gt;Node3</title>
<path fill="none" stroke="midnightblue" d="M139.891,-10C148.428,-10 157.901,-10 165.872,-10"/>
<polygon fill="midnightblue" stroke="midnightblue" points="139.761,-6.5001 129.761,-10 139.761,-13.5001 139.761,-6.5001"/>
</g>
</g>
</svg>
