<?xml version="1.0" encoding="UTF-8" standalone="no"?>
<!DOCTYPE svg PUBLIC "-//W3C//DTD SVG 1.1//EN"
 "http://www.w3.org/Graphics/SVG/1.1/DTD/svg11.dtd">
<!-- Generated by graphviz version 2.36.0 (20140111.2315)
 -->
<!-- Title: compute_FOLLOWS Pages: 1 -->
<svg width="256pt" height="28pt"
 viewBox="0.00 0.00 256.00 28.00" xmlns="http://www.w3.org/2000/svg" xmlns:xlink="http://www.w3.org/1999/xlink">
<g id="graph0" class="graph" transform="scale(1 1) rotate(0) translate(4 24)">
<title>compute_FOLLOWS</title>
<polygon fill="white" stroke="none" points="-4,4 -4,-24 252,-24 252,4 -4,4"/>
<!-- Node1 -->
<g id="node1" class="node"><title>Node1</title>
<polygon fill="#bfbfbf" stroke="black" points="0.5,-0.5 0.5,-19.5 107.5,-19.5 107.5,-0.5 0.5,-0.5"/>
<text text-anchor="middle" x="54" y="-7.5" font-family="Helvetica,sans-Serif" font-size="10.00">compute_FOLLOWS</text>
</g>
<!-- Node2 -->
<g id="node2" class="node"><title>Node2</title>
<g id="a_node2"><a xlink:href="lalr_8c.html#aa70d90188d9b76b70e29c8f7e19dc92f" target="_top" xlink:title="lalr">
<polygon fill="white" stroke="black" points="144.5,-0.5 144.5,-19.5 173.5,-19.5 173.5,-0.5 144.5,-0.5"/>
<text text-anchor="middle" x="159" y="-7.5" font-family="Helvetica,sans-Serif" font-size="10.00">lalr</text>
</a>
</g>
</g>
<!-- Node1&#45;&gt;Node2 -->
<g id="edge1" class="edge"><title>Node1&#45;&gt;Node2</title>
<path fill="none" stroke="midnightblue" d="M117.726,-10C127.609,-10 136.912,-10 144.082,-10"/>
<polygon fill="midnightblue" stroke="midnightblue" points="117.707,-6.5001 107.707,-10 117.707,-13.5001 117.707,-6.5001"/>
</g>
<!-- Node3 -->
<g id="node3" class="node"><title>Node3</title>
<g id="a_node3"><a xlink:href="main_8c.html#afced8478b91af5c169926dfa4426333d" target="_top" xlink:title="main">
<polygon fill="white" stroke="black" points="210,-0.5 210,-19.5 248,-19.5 248,-0.5 210,-0.5"/>
<text text-anchor="middle" x="229" y="-7.5" font-family="Helvetica,sans-Serif" font-size="10.00">main</text>
</a>
</g>
</g>
<!-- Node2&#45;&gt;Node3 -->
<g id="edge2" class="edge"><title>Node2&#45;&gt;Node3</title>
<path fill="none" stroke="midnightblue" d="M183.891,-10C192.428,-10 201.901,-10 209.872,-10"/>
<polygon fill="midnightblue" stroke="midnightblue" points="183.761,-6.5001 173.761,-10 183.761,-13.5001 183.761,-6.5001"/>
</g>
</g>
</svg>
