<?xml version="1.0" encoding="UTF-8" standalone="no"?>
<!DOCTYPE svg PUBLIC "-//W3C//DTD SVG 1.1//EN"
 "http://www.w3.org/Graphics/SVG/1.1/DTD/svg11.dtd">
<!-- Generated by graphviz version 2.36.0 (20140111.2315)
 -->
<!-- Title: lalr Pages: 1 -->
<svg width="418pt" height="484pt"
 viewBox="0.00 0.00 418.00 484.00" xmlns="http://www.w3.org/2000/svg" xmlns:xlink="http://www.w3.org/1999/xlink">
<g id="graph0" class="graph" transform="scale(1 1) rotate(0) translate(4 480)">
<title>lalr</title>
<polygon fill="white" stroke="none" points="-4,4 -4,-480 414,-480 414,4 -4,4"/>
<!-- Node1 -->
<g id="node1" class="node"><title>Node1</title>
<polygon fill="#bfbfbf" stroke="black" points="0.5,-190.5 0.5,-209.5 29.5,-209.5 29.5,-190.5 0.5,-190.5"/>
<text text-anchor="middle" x="15" y="-197.5" font-family="Helvetica,sans-Serif" font-size="10.00">lalr</text>
</g>
<!-- Node2 -->
<g id="node2" class="node"><title>Node2</title>
<g id="a_node2"><a xlink:href="lalr_8c.html#a0a930e748b6863b16e0521247533842e" target="_top" xlink:title="build_relations">
<polygon fill="white" stroke="black" points="84.5,-380.5 84.5,-399.5 163.5,-399.5 163.5,-380.5 84.5,-380.5"/>
<text text-anchor="middle" x="124" y="-387.5" font-family="Helvetica,sans-Serif" font-size="10.00">build_relations</text>
</a>
</g>
</g>
<!-- Node1&#45;&gt;Node2 -->
<g id="edge1" class="edge"><title>Node1&#45;&gt;Node2</title>
<path fill="none" stroke="midnightblue" d="M15.8944,-209.637C16.1144,-238.31 20.72,-324 66,-371 68.7705,-373.876 71.987,-376.316 75.4541,-378.387"/>
<polygon fill="midnightblue" stroke="midnightblue" points="73.958,-381.552 84.4776,-382.813 77.0402,-375.267 73.958,-381.552"/>
</g>
<!-- Node7 -->
<g id="node7" class="node"><title>Node7</title>
<g id="a_node7"><a xlink:href="lalr_8c.html#a549587ac9636a2e338da2df1df852802" target="_top" xlink:title="compute_FOLLOWS">
<polygon fill="white" stroke="black" points="70.5,-266.5 70.5,-285.5 177.5,-285.5 177.5,-266.5 70.5,-266.5"/>
<text text-anchor="middle" x="124" y="-273.5" font-family="Helvetica,sans-Serif" font-size="10.00">compute_FOLLOWS</text>
</a>
</g>
</g>
<!-- Node1&#45;&gt;Node7 -->
<g id="edge6" class="edge"><title>Node1&#45;&gt;Node7</title>
<path fill="none" stroke="midnightblue" d="M22.2307,-209.898C30.678,-222.55 46.9198,-244.328 66,-257 68.9571,-258.964 72.1353,-260.741 75.4235,-262.347"/>
<polygon fill="midnightblue" stroke="midnightblue" points="74.3212,-265.684 84.8897,-266.432 77.0943,-259.256 74.3212,-265.684"/>
</g>
<!-- Node10 -->
<g id="node10" class="node"><title>Node10</title>
<g id="a_node10"><a xlink:href="lalr_8c.html#a103fc18951240fa5978060b77c7a04bb" target="_top" xlink:title="compute_lookaheads">
<polygon fill="white" stroke="black" points="69.5,-228.5 69.5,-247.5 178.5,-247.5 178.5,-228.5 69.5,-228.5"/>
<text text-anchor="middle" x="124" y="-235.5" font-family="Helvetica,sans-Serif" font-size="10.00">compute_lookaheads</text>
</a>
</g>
</g>
<!-- Node1&#45;&gt;Node10 -->
<g id="edge9" class="edge"><title>Node1&#45;&gt;Node10</title>
<path fill="none" stroke="midnightblue" d="M29.5256,-205.313C39.5539,-209.211 53.5793,-214.572 66,-219 71.7279,-221.042 77.803,-223.139 83.77,-225.161"/>
<polygon fill="midnightblue" stroke="midnightblue" points="83.0358,-228.606 93.6298,-228.468 85.262,-221.969 83.0358,-228.606"/>
</g>
<!-- Node11 -->
<g id="node11" class="node"><title>Node11</title>
<g id="a_node11"><a xlink:href="lalr_8c.html#a6c91f5faa72becd25b25708e2ca97649" target="_top" xlink:title="initialize_F">
<polygon fill="white" stroke="black" points="92.5,-342.5 92.5,-361.5 155.5,-361.5 155.5,-342.5 92.5,-342.5"/>
<text text-anchor="middle" x="124" y="-349.5" font-family="Helvetica,sans-Serif" font-size="10.00">initialize_F</text>
</a>
</g>
</g>
<!-- Node1&#45;&gt;Node11 -->
<g id="edge10" class="edge"><title>Node1&#45;&gt;Node11</title>
<path fill="none" stroke="midnightblue" d="M16.8253,-209.556C19.4231,-233.738 29.5718,-297.925 66,-333 70.7339,-337.558 76.5899,-341.023 82.729,-343.658"/>
<polygon fill="midnightblue" stroke="midnightblue" points="81.894,-347.076 92.4886,-347.151 84.2531,-340.486 81.894,-347.076"/>
</g>
<!-- Node12 -->
<g id="node12" class="node"><title>Node12</title>
<g id="a_node12"><a xlink:href="lalr_8c.html#a8d038bf14a91cab7082013e7b046a023" target="_top" xlink:title="initialize_LA">
<polygon fill="white" stroke="black" points="89.5,-190.5 89.5,-209.5 158.5,-209.5 158.5,-190.5 89.5,-190.5"/>
<text text-anchor="middle" x="124" y="-197.5" font-family="Helvetica,sans-Serif" font-size="10.00">initialize_LA</text>
</a>
</g>
</g>
<!-- Node1&#45;&gt;Node12 -->
<g id="edge13" class="edge"><title>Node1&#45;&gt;Node12</title>
<path fill="none" stroke="midnightblue" d="M29.5516,-200C42.056,-200 61.3247,-200 79.1238,-200"/>
<polygon fill="midnightblue" stroke="midnightblue" points="79.3717,-203.5 89.3716,-200 79.3716,-196.5 79.3717,-203.5"/>
</g>
<!-- Node13 -->
<g id="node13" class="node"><title>Node13</title>
<g id="a_node13"><a xlink:href="lalr_8c.html#af40b4ca0e2ac0c861650887f53cd8473" target="_top" xlink:title="set_accessing_symbol">
<polygon fill="white" stroke="black" points="66,-152.5 66,-171.5 182,-171.5 182,-152.5 66,-152.5"/>
<text text-anchor="middle" x="124" y="-159.5" font-family="Helvetica,sans-Serif" font-size="10.00">set_accessing_symbol</text>
</a>
</g>
</g>
<!-- Node1&#45;&gt;Node13 -->
<g id="edge14" class="edge"><title>Node1&#45;&gt;Node13</title>
<path fill="none" stroke="midnightblue" d="M29.5256,-194.687C39.5539,-190.789 53.5793,-185.428 66,-181 71.7279,-178.958 77.803,-176.861 83.77,-174.839"/>
<polygon fill="midnightblue" stroke="midnightblue" points="85.262,-178.031 93.6298,-171.532 83.0358,-171.394 85.262,-178.031"/>
</g>
<!-- Node14 -->
<g id="node14" class="node"><title>Node14</title>
<g id="a_node14"><a xlink:href="lalr_8c.html#ae8c3ccdf05c8529dad837c3a51a13fbd" target="_top" xlink:title="set_goto_map">
<polygon fill="white" stroke="black" points="85,-304.5 85,-323.5 163,-323.5 163,-304.5 85,-304.5"/>
<text text-anchor="middle" x="124" y="-311.5" font-family="Helvetica,sans-Serif" font-size="10.00">set_goto_map</text>
</a>
</g>
</g>
<!-- Node1&#45;&gt;Node14 -->
<g id="edge15" class="edge"><title>Node1&#45;&gt;Node14</title>
<path fill="none" stroke="midnightblue" d="M18.4451,-209.604C23.7871,-228.668 38.2973,-271.475 66,-295 68.9145,-297.475 72.1631,-299.631 75.5902,-301.508"/>
<polygon fill="midnightblue" stroke="midnightblue" points="74.4276,-304.827 84.9725,-305.855 77.3701,-298.475 74.4276,-304.827"/>
</g>
<!-- Node16 -->
<g id="node16" class="node"><title>Node16</title>
<g id="a_node16"><a xlink:href="lalr_8c.html#a107978079d3d88b0053b49ec52927803" target="_top" xlink:title="set_maxrhs">
<polygon fill="white" stroke="black" points="90,-114.5 90,-133.5 158,-133.5 158,-114.5 90,-114.5"/>
<text text-anchor="middle" x="124" y="-121.5" font-family="Helvetica,sans-Serif" font-size="10.00">set_maxrhs</text>
</a>
</g>
</g>
<!-- Node1&#45;&gt;Node16 -->
<g id="edge18" class="edge"><title>Node1&#45;&gt;Node16</title>
<path fill="none" stroke="midnightblue" d="M22.2307,-190.102C30.678,-177.45 46.9198,-155.672 66,-143 70.3949,-140.081 75.2782,-137.574 80.2853,-135.43"/>
<polygon fill="midnightblue" stroke="midnightblue" points="81.8715,-138.571 89.9709,-131.741 79.38,-132.03 81.8715,-138.571"/>
</g>
<!-- Node17 -->
<g id="node17" class="node"><title>Node17</title>
<g id="a_node17"><a xlink:href="lalr_8c.html#abfd5c21537a4f473773c2d25803bc919" target="_top" xlink:title="set_reduction_table">
<polygon fill="white" stroke="black" points="73.5,-76.5 73.5,-95.5 174.5,-95.5 174.5,-76.5 73.5,-76.5"/>
<text text-anchor="middle" x="124" y="-83.5" font-family="Helvetica,sans-Serif" font-size="10.00">set_reduction_table</text>
</a>
</g>
</g>
<!-- Node1&#45;&gt;Node17 -->
<g id="edge19" class="edge"><title>Node1&#45;&gt;Node17</title>
<path fill="none" stroke="midnightblue" d="M18.4451,-190.396C23.7871,-171.332 38.2973,-128.525 66,-105 67.9828,-103.316 70.1201,-101.78 72.3632,-100.379"/>
<polygon fill="midnightblue" stroke="midnightblue" points="74.2075,-103.364 81.4348,-95.6168 70.9538,-97.166 74.2075,-103.364"/>
</g>
<!-- Node18 -->
<g id="node18" class="node"><title>Node18</title>
<g id="a_node18"><a xlink:href="lalr_8c.html#a6613d689596e2f81d6093379459a29c7" target="_top" xlink:title="set_shift_table">
<polygon fill="white" stroke="black" points="84,-38.5 84,-57.5 164,-57.5 164,-38.5 84,-38.5"/>
<text text-anchor="middle" x="124" y="-45.5" font-family="Helvetica,sans-Serif" font-size="10.00">set_shift_table</text>
</a>
</g>
</g>
<!-- Node1&#45;&gt;Node18 -->
<g id="edge20" class="edge"><title>Node1&#45;&gt;Node18</title>
<path fill="none" stroke="midnightblue" d="M16.8253,-190.444C19.4231,-166.262 29.5718,-102.075 66,-67 68.5959,-64.5005 71.5292,-62.3296 74.6616,-60.4442"/>
<polygon fill="midnightblue" stroke="midnightblue" points="76.5053,-63.4363 83.9015,-55.8504 73.389,-57.1682 76.5053,-63.4363"/>
</g>
<!-- Node19 -->
<g id="node19" class="node"><title>Node19</title>
<g id="a_node19"><a xlink:href="lalr_8c.html#a273192077c200e39adede06c9ab36310" target="_top" xlink:title="set_state_table">
<polygon fill="white" stroke="black" points="82.5,-0.5 82.5,-19.5 165.5,-19.5 165.5,-0.5 82.5,-0.5"/>
<text text-anchor="middle" x="124" y="-7.5" font-family="Helvetica,sans-Serif" font-size="10.00">set_state_table</text>
</a>
</g>
</g>
<!-- Node1&#45;&gt;Node19 -->
<g id="edge21" class="edge"><title>Node1&#45;&gt;Node19</title>
<path fill="none" stroke="midnightblue" d="M15.8944,-190.363C16.1144,-161.69 20.72,-76.0005 66,-29 68.2085,-26.7076 70.7003,-24.6918 73.3767,-22.9191"/>
<polygon fill="midnightblue" stroke="midnightblue" points="75.2853,-25.8666 82.4314,-18.0446 71.9672,-19.703 75.2853,-25.8666"/>
</g>
<!-- Node3 -->
<g id="node3" class="node"><title>Node3</title>
<g id="a_node3"><a xlink:href="lalr_8c.html#ad69de49348a1b41b5f75d588240538d3" target="_top" xlink:title="add_lookback_edge">
<polygon fill="white" stroke="black" points="218.5,-456.5 218.5,-475.5 321.5,-475.5 321.5,-456.5 218.5,-456.5"/>
<text text-anchor="middle" x="270" y="-463.5" font-family="Helvetica,sans-Serif" font-size="10.00">add_lookback_edge</text>
</a>
</g>
</g>
<!-- Node2&#45;&gt;Node3 -->
<g id="edge2" class="edge"><title>Node2&#45;&gt;Node3</title>
<path fill="none" stroke="midnightblue" d="M141.275,-399.556C159.694,-410.264 190.69,-427.961 218,-442 224.491,-445.337 231.528,-448.766 238.242,-451.951"/>
<polygon fill="midnightblue" stroke="midnightblue" points="237.207,-455.331 247.747,-456.403 240.176,-448.992 237.207,-455.331"/>
</g>
<!-- Node4 -->
<g id="node4" class="node"><title>Node4</title>
<g id="a_node4"><a xlink:href="main_8c.html#a67b6b9fd02aac96bef4297b1e6a1789a" target="_top" xlink:title="done">
<polygon fill="white" stroke="black" points="365,-361.5 365,-380.5 403,-380.5 403,-361.5 365,-361.5"/>
<text text-anchor="middle" x="384" y="-368.5" font-family="Helvetica,sans-Serif" font-size="10.00">done</text>
</a>
</g>
</g>
<!-- Node2&#45;&gt;Node4 -->
<g id="edge3" class="edge"><title>Node2&#45;&gt;Node4</title>
<path fill="none" stroke="midnightblue" d="M154.658,-399.564C193.762,-410.67 264.353,-425.487 322,-409 337.145,-404.669 352.188,-395.367 363.546,-387.052"/>
<polygon fill="midnightblue" stroke="midnightblue" points="366.003,-389.578 371.797,-380.708 361.736,-384.029 366.003,-389.578"/>
</g>
<!-- Node5 -->
<g id="node5" class="node"><title>Node5</title>
<g id="a_node5"><a xlink:href="lalr_8c.html#a910e5adae7c283da210c508e39d7dff6" target="_top" xlink:title="map_goto">
<polygon fill="white" stroke="black" points="240.5,-342.5 240.5,-361.5 299.5,-361.5 299.5,-342.5 240.5,-342.5"/>
<text text-anchor="middle" x="270" y="-349.5" font-family="Helvetica,sans-Serif" font-size="10.00">map_goto</text>
</a>
</g>
</g>
<!-- Node2&#45;&gt;Node5 -->
<g id="edge4" class="edge"><title>Node2&#45;&gt;Node5</title>
<path fill="none" stroke="midnightblue" d="M161.337,-380.411C182.484,-374.831 209.121,-367.801 230.609,-362.131"/>
<polygon fill="midnightblue" stroke="midnightblue" points="231.613,-365.486 240.389,-359.55 229.827,-358.718 231.613,-365.486"/>
</g>
<!-- Node6 -->
<g id="node6" class="node"><title>Node6</title>
<g id="a_node6"><a xlink:href="lalr_8c.html#a23d78f0bc8b4f380978adbb6c3bf9299" target="_top" xlink:title="transpose">
<polygon fill="white" stroke="black" points="240.5,-380.5 240.5,-399.5 299.5,-399.5 299.5,-380.5 240.5,-380.5"/>
<text text-anchor="middle" x="270" y="-387.5" font-family="Helvetica,sans-Serif" font-size="10.00">transpose</text>
</a>
</g>
</g>
<!-- Node2&#45;&gt;Node6 -->
<g id="edge5" class="edge"><title>Node2&#45;&gt;Node6</title>
<path fill="none" stroke="midnightblue" d="M163.589,-390C184.257,-390 209.645,-390 230.326,-390"/>
<polygon fill="midnightblue" stroke="midnightblue" points="230.359,-393.5 240.359,-390 230.359,-386.5 230.359,-393.5"/>
</g>
<!-- Node8 -->
<g id="node8" class="node"><title>Node8</title>
<g id="a_node8"><a xlink:href="lalr_8c.html#a34974a0ef462a2a48b9a48cc5c7ac509" target="_top" xlink:title="digraph">
<polygon fill="white" stroke="black" points="246,-266.5 246,-285.5 294,-285.5 294,-266.5 246,-266.5"/>
<text text-anchor="middle" x="270" y="-273.5" font-family="Helvetica,sans-Serif" font-size="10.00">digraph</text>
</a>
</g>
</g>
<!-- Node7&#45;&gt;Node8 -->
<g id="edge7" class="edge"><title>Node7&#45;&gt;Node8</title>
<path fill="none" stroke="midnightblue" d="M177.803,-276C197.213,-276 218.631,-276 235.83,-276"/>
<polygon fill="midnightblue" stroke="midnightblue" points="235.939,-279.5 245.939,-276 235.939,-272.5 235.939,-279.5"/>
</g>
<!-- Node9 -->
<g id="node9" class="node"><title>Node9</title>
<g id="a_node9"><a xlink:href="lalr_8c.html#a79d482cb00a7dc76578918993ba7a597" target="_top" xlink:title="traverse">
<polygon fill="white" stroke="black" points="358,-266.5 358,-285.5 410,-285.5 410,-266.5 358,-266.5"/>
<text text-anchor="middle" x="384" y="-273.5" font-family="Helvetica,sans-Serif" font-size="10.00">traverse</text>
</a>
</g>
</g>
<!-- Node8&#45;&gt;Node9 -->
<g id="edge8" class="edge"><title>Node8&#45;&gt;Node9</title>
<path fill="none" stroke="midnightblue" d="M294.206,-276C309.594,-276 330.082,-276 347.5,-276"/>
<polygon fill="midnightblue" stroke="midnightblue" points="347.876,-279.5 357.876,-276 347.876,-272.5 347.876,-279.5"/>
</g>
<!-- Node11&#45;&gt;Node5 -->
<g id="edge12" class="edge"><title>Node11&#45;&gt;Node5</title>
<path fill="none" stroke="midnightblue" d="M155.539,-352C177.303,-352 206.735,-352 230.169,-352"/>
<polygon fill="midnightblue" stroke="midnightblue" points="230.464,-355.5 240.464,-352 230.464,-348.5 230.464,-355.5"/>
</g>
<!-- Node11&#45;&gt;Node8 -->
<g id="edge11" class="edge"><title>Node11&#45;&gt;Node8</title>
<path fill="none" stroke="midnightblue" d="M155.535,-344.85C164.477,-341.974 173.994,-338.099 182,-333 201.623,-320.503 198.598,-307.837 218,-295 223.533,-291.339 229.868,-288.257 236.148,-285.711"/>
<polygon fill="midnightblue" stroke="midnightblue" points="237.67,-288.881 245.85,-282.147 235.256,-282.311 237.67,-288.881"/>
</g>
<!-- Node15 -->
<g id="node15" class="node"><title>Node15</title>
<g id="a_node15"><a xlink:href="error_8c.html#ae558ad59d93f53e83fc2d8e29afdffb9" target="_top" xlink:title="fatal">
<polygon fill="white" stroke="black" points="252.5,-304.5 252.5,-323.5 287.5,-323.5 287.5,-304.5 252.5,-304.5"/>
<text text-anchor="middle" x="270" y="-311.5" font-family="Helvetica,sans-Serif" font-size="10.00">fatal</text>
</a>
</g>
</g>
<!-- Node14&#45;&gt;Node15 -->
<g id="edge16" class="edge"><title>Node14&#45;&gt;Node15</title>
<path fill="none" stroke="midnightblue" d="M163.211,-314C188.13,-314 220.031,-314 242.256,-314"/>
<polygon fill="midnightblue" stroke="midnightblue" points="242.317,-317.5 252.316,-314 242.316,-310.5 242.317,-317.5"/>
</g>
<!-- Node15&#45;&gt;Node4 -->
<g id="edge17" class="edge"><title>Node15&#45;&gt;Node4</title>
<path fill="none" stroke="midnightblue" d="M287.891,-319.339C297.997,-322.766 310.977,-327.581 322,-333 335.43,-339.602 349.665,-348.358 361.003,-355.802"/>
<polygon fill="midnightblue" stroke="midnightblue" points="359.147,-358.771 369.405,-361.423 363.04,-352.953 359.147,-358.771"/>
</g>
</g>
</svg>
