<?xml version="1.0" encoding="UTF-8" standalone="no"?>
<!DOCTYPE svg PUBLIC "-//W3C//DTD SVG 1.1//EN"
 "http://www.w3.org/Graphics/SVG/1.1/DTD/svg11.dtd">
<!-- Generated by graphviz version 2.36.0 (20140111.2315)
 -->
<!-- Title: set_goto_map Pages: 1 -->
<svg width="226pt" height="28pt"
 viewBox="0.00 0.00 226.00 28.00" xmlns="http://www.w3.org/2000/svg" xmlns:xlink="http://www.w3.org/1999/xlink">
<g id="graph0" class="graph" transform="scale(1 1) rotate(0) translate(4 24)">
<title>set_goto_map</title>
<polygon fill="white" stroke="none" points="-4,4 -4,-24 222,-24 222,4 -4,4"/>
<!-- Node1 -->
<g id="node1" class="node"><title>Node1</title>
<polygon fill="#bfbfbf" stroke="black" points="0,-0.5 0,-19.5 78,-19.5 78,-0.5 0,-0.5"/>
<text text-anchor="middle" x="39" y="-7.5" font-family="Helvetica,sans-Serif" font-size="10.00">set_goto_map</text>
</g>
<!-- Node2 -->
<g id="node2" class="node"><title>Node2</title>
<g id="a_node2"><a xlink:href="lalr_8c.html#aa70d90188d9b76b70e29c8f7e19dc92f" target="_top" xlink:title="lalr">
<polygon fill="white" stroke="black" points="114.5,-0.5 114.5,-19.5 143.5,-19.5 143.5,-0.5 114.5,-0.5"/>
<text text-anchor="middle" x="129" y="-7.5" font-family="Helvetica,sans-Serif" font-size="10.00">lalr</text>
</a>
</g>
</g>
<!-- Node1&#45;&gt;Node2 -->
<g id="edge1" class="edge"><title>Node1&#45;&gt;Node2</title>
<path fill="none" stroke="midnightblue" d="M88.3634,-10C97.8135,-10 106.992,-10 114.134,-10"/>
<polygon fill="midnightblue" stroke="midnightblue" points="88.0863,-6.5001 78.0863,-10 88.0862,-13.5001 88.0863,-6.5001"/>
</g>
<!-- Node3 -->
<g id="node3" class="node"><title>Node3</title>
<g id="a_node3"><a xlink:href="main_8c.html#afced8478b91af5c169926dfa4426333d" target="_top" xlink:title="main">
<polygon fill="white" stroke="black" points="180,-0.5 180,-19.5 218,-19.5 218,-0.5 180,-0.5"/>
<text text-anchor="middle" x="199" y="-7.5" font-family="Helvetica,sans-Serif" font-size="10.00">main</text>
</a>
</g>
</g>
<!-- Node2&#45;&gt;Node3 -->
<g id="edge2" class="edge"><title>Node2&#45;&gt;Node3</title>
<path fill="none" stroke="midnightblue" d="M153.891,-10C162.428,-10 171.901,-10 179.872,-10"/>
<polygon fill="midnightblue" stroke="midnightblue" points="153.761,-6.5001 143.761,-10 153.761,-13.5001 153.761,-6.5001"/>
</g>
</g>
</svg>
