<?xml version="1.0" encoding="UTF-8" standalone="no"?>
<!DOCTYPE svg PUBLIC "-//W3C//DTD SVG 1.1//EN"
 "http://www.w3.org/Graphics/SVG/1.1/DTD/svg11.dtd">
<!-- Generated by graphviz version 2.36.0 (20140111.2315)
 -->
<!-- Title: traverse Pages: 1 -->
<svg width="354pt" height="66pt"
 viewBox="0.00 0.00 354.00 66.00" xmlns="http://www.w3.org/2000/svg" xmlns:xlink="http://www.w3.org/1999/xlink">
<g id="graph0" class="graph" transform="scale(1 1) rotate(0) translate(4 62)">
<title>traverse</title>
<polygon fill="white" stroke="none" points="-4,4 -4,-62 350,-62 350,4 -4,4"/>
<!-- Node1 -->
<g id="node1" class="node"><title>Node1</title>
<polygon fill="#bfbfbf" stroke="black" points="0,-19.5 0,-38.5 52,-38.5 52,-19.5 0,-19.5"/>
<text text-anchor="middle" x="26" y="-26.5" font-family="Helvetica,sans-Serif" font-size="10.00">traverse</text>
</g>
<!-- Node2 -->
<g id="node2" class="node"><title>Node2</title>
<g id="a_node2"><a xlink:href="lalr_8c.html#a34974a0ef462a2a48b9a48cc5c7ac509" target="_top" xlink:title="digraph">
<polygon fill="white" stroke="black" points="88,-19.5 88,-38.5 136,-38.5 136,-19.5 88,-19.5"/>
<text text-anchor="middle" x="112" y="-26.5" font-family="Helvetica,sans-Serif" font-size="10.00">digraph</text>
</a>
</g>
</g>
<!-- Node1&#45;&gt;Node2 -->
<g id="edge1" class="edge"><title>Node1&#45;&gt;Node2</title>
<path fill="none" stroke="midnightblue" d="M62.3967,-29C70.9896,-29 79.9607,-29 87.8225,-29"/>
<polygon fill="midnightblue" stroke="midnightblue" points="62.2028,-25.5001 52.2028,-29 62.2027,-32.5001 62.2028,-25.5001"/>
</g>
<!-- Node3 -->
<g id="node3" class="node"><title>Node3</title>
<g id="a_node3"><a xlink:href="lalr_8c.html#a549587ac9636a2e338da2df1df852802" target="_top" xlink:title="compute_FOLLOWS">
<polygon fill="white" stroke="black" points="172.5,-38.5 172.5,-57.5 279.5,-57.5 279.5,-38.5 172.5,-38.5"/>
<text text-anchor="middle" x="226" y="-45.5" font-family="Helvetica,sans-Serif" font-size="10.00">compute_FOLLOWS</text>
</a>
</g>
</g>
<!-- Node2&#45;&gt;Node3 -->
<g id="edge2" class="edge"><title>Node2&#45;&gt;Node3</title>
<path fill="none" stroke="midnightblue" d="M146.126,-34.6196C154.346,-36.0141 163.36,-37.5433 172.264,-39.0538"/>
<polygon fill="midnightblue" stroke="midnightblue" points="146.651,-31.1587 136.206,-32.9368 145.48,-38.0601 146.651,-31.1587"/>
</g>
<!-- Node5 -->
<g id="node5" class="node"><title>Node5</title>
<g id="a_node5"><a xlink:href="lalr_8c.html#a6c91f5faa72becd25b25708e2ca97649" target="_top" xlink:title="initialize_F">
<polygon fill="white" stroke="black" points="194.5,-0.5 194.5,-19.5 257.5,-19.5 257.5,-0.5 194.5,-0.5"/>
<text text-anchor="middle" x="226" y="-7.5" font-family="Helvetica,sans-Serif" font-size="10.00">initialize_F</text>
</a>
</g>
</g>
<!-- Node2&#45;&gt;Node5 -->
<g id="edge4" class="edge"><title>Node2&#45;&gt;Node5</title>
<path fill="none" stroke="midnightblue" d="M146.22,-23.3645C161.406,-20.7883 179.286,-17.755 194.171,-15.2299"/>
<polygon fill="midnightblue" stroke="midnightblue" points="145.48,-19.9399 136.206,-25.0632 146.651,-26.8413 145.48,-19.9399"/>
</g>
<!-- Node4 -->
<g id="node4" class="node"><title>Node4</title>
<g id="a_node4"><a xlink:href="lalr_8c.html#aa70d90188d9b76b70e29c8f7e19dc92f" target="_top" xlink:title="lalr">
<polygon fill="white" stroke="red" points="316.5,-19.5 316.5,-38.5 345.5,-38.5 345.5,-19.5 316.5,-19.5"/>
<text text-anchor="middle" x="331" y="-26.5" font-family="Helvetica,sans-Serif" font-size="10.00">lalr</text>
</a>
</g>
</g>
<!-- Node3&#45;&gt;Node4 -->
<g id="edge3" class="edge"><title>Node3&#45;&gt;Node4</title>
<path fill="none" stroke="midnightblue" d="M288.786,-36.6026C299.076,-34.7045 308.795,-32.9117 316.207,-31.5442"/>
<polygon fill="midnightblue" stroke="midnightblue" points="288.001,-33.1883 278.802,-38.4443 289.271,-40.0721 288.001,-33.1883"/>
</g>
<!-- Node5&#45;&gt;Node4 -->
<g id="edge5" class="edge"><title>Node5&#45;&gt;Node4</title>
<path fill="none" stroke="midnightblue" d="M267.584,-17.4863C284.946,-20.6891 304.045,-24.2121 316.484,-26.5068"/>
<polygon fill="midnightblue" stroke="midnightblue" points="268.094,-14.0214 257.625,-15.6492 266.824,-20.9052 268.094,-14.0214"/>
</g>
</g>
</svg>
