<?xml version="1.0" encoding="UTF-8" standalone="no"?>
<!DOCTYPE svg PUBLIC "-//W3C//DTD SVG 1.1//EN"
 "http://www.w3.org/Graphics/SVG/1.1/DTD/svg11.dtd">
<!-- Generated by graphviz version 2.36.0 (20140111.2315)
 -->
<!-- Title: build_relations Pages: 1 -->
<svg width="228pt" height="142pt"
 viewBox="0.00 0.00 228.00 142.00" xmlns="http://www.w3.org/2000/svg" xmlns:xlink="http://www.w3.org/1999/xlink">
<g id="graph0" class="graph" transform="scale(1 1) rotate(0) translate(4 138)">
<title>build_relations</title>
<polygon fill="white" stroke="none" points="-4,4 -4,-138 224,-138 224,4 -4,4"/>
<!-- Node1 -->
<g id="node1" class="node"><title>Node1</title>
<polygon fill="#bfbfbf" stroke="black" points="0.5,-57.5 0.5,-76.5 79.5,-76.5 79.5,-57.5 0.5,-57.5"/>
<text text-anchor="middle" x="40" y="-64.5" font-family="Helvetica,sans-Serif" font-size="10.00">build_relations</text>
</g>
<!-- Node2 -->
<g id="node2" class="node"><title>Node2</title>
<g id="a_node2"><a xlink:href="lalr_8c.html#ad69de49348a1b41b5f75d588240538d3" target="_top" xlink:title="add_lookback_edge">
<polygon fill="white" stroke="black" points="116.5,-114.5 116.5,-133.5 219.5,-133.5 219.5,-114.5 116.5,-114.5"/>
<text text-anchor="middle" x="168" y="-121.5" font-family="Helvetica,sans-Serif" font-size="10.00">add_lookback_edge</text>
</a>
</g>
</g>
<!-- Node1&#45;&gt;Node2 -->
<g id="edge1" class="edge"><title>Node1&#45;&gt;Node2</title>
<path fill="none" stroke="midnightblue" d="M58.6115,-76.632C73.6419,-84.6798 95.944,-96.2163 116,-105 120.471,-106.958 125.214,-108.899 129.937,-110.751"/>
<polygon fill="midnightblue" stroke="midnightblue" points="128.921,-114.11 139.512,-114.403 131.416,-107.569 128.921,-114.11"/>
</g>
<!-- Node3 -->
<g id="node3" class="node"><title>Node3</title>
<g id="a_node3"><a xlink:href="group__eh.html#ga67b6b9fd02aac96bef4297b1e6a1789a" target="_top" xlink:title="Shutdown function. ">
<polygon fill="white" stroke="black" points="149,-76.5 149,-95.5 187,-95.5 187,-76.5 149,-76.5"/>
<text text-anchor="middle" x="168" y="-83.5" font-family="Helvetica,sans-Serif" font-size="10.00">done</text>
</a>
</g>
</g>
<!-- Node1&#45;&gt;Node3 -->
<g id="edge2" class="edge"><title>Node1&#45;&gt;Node3</title>
<path fill="none" stroke="midnightblue" d="M79.8323,-72.8557C98.8742,-75.7271 121.388,-79.122 138.765,-81.7423"/>
<polygon fill="midnightblue" stroke="midnightblue" points="138.433,-85.2318 148.844,-83.2621 139.477,-78.3101 138.433,-85.2318"/>
</g>
<!-- Node4 -->
<g id="node4" class="node"><title>Node4</title>
<g id="a_node4"><a xlink:href="lalr_8c.html#a910e5adae7c283da210c508e39d7dff6" target="_top" xlink:title="map_goto">
<polygon fill="white" stroke="black" points="138.5,-38.5 138.5,-57.5 197.5,-57.5 197.5,-38.5 138.5,-38.5"/>
<text text-anchor="middle" x="168" y="-45.5" font-family="Helvetica,sans-Serif" font-size="10.00">map_goto</text>
</a>
</g>
</g>
<!-- Node1&#45;&gt;Node4 -->
<g id="edge3" class="edge"><title>Node1&#45;&gt;Node4</title>
<path fill="none" stroke="midnightblue" d="M79.8323,-61.1443C95.2249,-58.8232 112.886,-56.16 128.269,-53.8404"/>
<polygon fill="midnightblue" stroke="midnightblue" points="129.132,-57.2499 138.498,-52.2979 128.088,-50.3281 129.132,-57.2499"/>
</g>
<!-- Node5 -->
<g id="node5" class="node"><title>Node5</title>
<g id="a_node5"><a xlink:href="lalr_8c.html#a23d78f0bc8b4f380978adbb6c3bf9299" target="_top" xlink:title="transpose">
<polygon fill="white" stroke="black" points="138.5,-0.5 138.5,-19.5 197.5,-19.5 197.5,-0.5 138.5,-0.5"/>
<text text-anchor="middle" x="168" y="-7.5" font-family="Helvetica,sans-Serif" font-size="10.00">transpose</text>
</a>
</g>
</g>
<!-- Node1&#45;&gt;Node5 -->
<g id="edge4" class="edge"><title>Node1&#45;&gt;Node5</title>
<path fill="none" stroke="midnightblue" d="M58.6115,-57.368C73.6419,-49.3202 95.944,-37.7837 116,-29 120.471,-27.042 125.214,-25.1005 129.937,-23.2487"/>
<polygon fill="midnightblue" stroke="midnightblue" points="131.416,-26.4309 139.512,-19.5968 128.921,-19.8905 131.416,-26.4309"/>
</g>
</g>
</svg>
