<?xml version="1.0" encoding="UTF-8" standalone="no"?>
<!DOCTYPE svg PUBLIC "-//W3C//DTD SVG 1.1//EN"
 "http://www.w3.org/Graphics/SVG/1.1/DTD/svg11.dtd">
<!-- Generated by graphviz version 2.36.0 (20140111.2315)
 -->
<!-- Title: initialize_F Pages: 1 -->
<svg width="256pt" height="66pt"
 viewBox="0.00 0.00 256.00 66.00" xmlns="http://www.w3.org/2000/svg" xmlns:xlink="http://www.w3.org/1999/xlink">
<g id="graph0" class="graph" transform="scale(1 1) rotate(0) translate(4 62)">
<title>initialize_F</title>
<polygon fill="white" stroke="none" points="-4,4 -4,-62 252,-62 252,4 -4,4"/>
<!-- Node1 -->
<g id="node1" class="node"><title>Node1</title>
<polygon fill="#bfbfbf" stroke="black" points="0.5,-19.5 0.5,-38.5 63.5,-38.5 63.5,-19.5 0.5,-19.5"/>
<text text-anchor="middle" x="32" y="-26.5" font-family="Helvetica,sans-Serif" font-size="10.00">initialize_F</text>
</g>
<!-- Node2 -->
<g id="node2" class="node"><title>Node2</title>
<g id="a_node2"><a xlink:href="lalr_8c.html#a34974a0ef462a2a48b9a48cc5c7ac509" target="_top" xlink:title="digraph">
<polygon fill="white" stroke="black" points="106,-38.5 106,-57.5 154,-57.5 154,-38.5 106,-38.5"/>
<text text-anchor="middle" x="130" y="-45.5" font-family="Helvetica,sans-Serif" font-size="10.00">digraph</text>
</a>
</g>
</g>
<!-- Node1&#45;&gt;Node2 -->
<g id="edge1" class="edge"><title>Node1&#45;&gt;Node2</title>
<path fill="none" stroke="midnightblue" d="M63.6389,-35.064C73.9277,-37.1003 85.4463,-39.38 95.9142,-41.4518"/>
<polygon fill="midnightblue" stroke="midnightblue" points="95.4581,-44.9293 105.947,-43.4375 96.8172,-38.0625 95.4581,-44.9293"/>
</g>
<!-- Node4 -->
<g id="node4" class="node"><title>Node4</title>
<g id="a_node4"><a xlink:href="lalr_8c.html#a910e5adae7c283da210c508e39d7dff6" target="_top" xlink:title="map_goto">
<polygon fill="white" stroke="black" points="100.5,-0.5 100.5,-19.5 159.5,-19.5 159.5,-0.5 100.5,-0.5"/>
<text text-anchor="middle" x="130" y="-7.5" font-family="Helvetica,sans-Serif" font-size="10.00">map_goto</text>
</a>
</g>
</g>
<!-- Node1&#45;&gt;Node4 -->
<g id="edge3" class="edge"><title>Node1&#45;&gt;Node4</title>
<path fill="none" stroke="midnightblue" d="M63.6389,-22.936C72.1709,-21.2474 81.5485,-19.3914 90.4715,-17.6254"/>
<polygon fill="midnightblue" stroke="midnightblue" points="91.153,-21.0585 100.283,-15.6835 89.7939,-14.1917 91.153,-21.0585"/>
</g>
<!-- Node3 -->
<g id="node3" class="node"><title>Node3</title>
<g id="a_node3"><a xlink:href="lalr_8c.html#a79d482cb00a7dc76578918993ba7a597" target="_top" xlink:title="traverse">
<polygon fill="white" stroke="black" points="196,-38.5 196,-57.5 248,-57.5 248,-38.5 196,-38.5"/>
<text text-anchor="middle" x="222" y="-45.5" font-family="Helvetica,sans-Serif" font-size="10.00">traverse</text>
</a>
</g>
</g>
<!-- Node2&#45;&gt;Node3 -->
<g id="edge2" class="edge"><title>Node2&#45;&gt;Node3</title>
<path fill="none" stroke="midnightblue" d="M154.177,-48C163.708,-48 174.963,-48 185.491,-48"/>
<polygon fill="midnightblue" stroke="midnightblue" points="185.687,-51.5001 195.687,-48 185.687,-44.5001 185.687,-51.5001"/>
</g>
</g>
</svg>
