<?xml version="1.0" encoding="UTF-8" standalone="no"?>
<!DOCTYPE svg PUBLIC "-//W3C//DTD SVG 1.1//EN"
 "http://www.w3.org/Graphics/SVG/1.1/DTD/svg11.dtd">
<!-- Generated by graphviz version 2.36.0 (20140111.2315)
 -->
<!-- Title: set_goto_map Pages: 1 -->
<svg width="232pt" height="28pt"
 viewBox="0.00 0.00 232.00 28.00" xmlns="http://www.w3.org/2000/svg" xmlns:xlink="http://www.w3.org/1999/xlink">
<g id="graph0" class="graph" transform="scale(1 1) rotate(0) translate(4 24)">
<title>set_goto_map</title>
<polygon fill="white" stroke="none" points="-4,4 -4,-24 228,-24 228,4 -4,4"/>
<!-- Node1 -->
<g id="node1" class="node"><title>Node1</title>
<polygon fill="#bfbfbf" stroke="black" points="0,-0.5 0,-19.5 78,-19.5 78,-0.5 0,-0.5"/>
<text text-anchor="middle" x="39" y="-7.5" font-family="Helvetica,sans-Serif" font-size="10.00">set_goto_map</text>
</g>
<!-- Node2 -->
<g id="node2" class="node"><title>Node2</title>
<g id="a_node2"><a xlink:href="group__eh.html#gae558ad59d93f53e83fc2d8e29afdffb9" target="_top" xlink:title="fatal">
<polygon fill="white" stroke="black" points="114.5,-0.5 114.5,-19.5 149.5,-19.5 149.5,-0.5 114.5,-0.5"/>
<text text-anchor="middle" x="132" y="-7.5" font-family="Helvetica,sans-Serif" font-size="10.00">fatal</text>
</a>
</g>
</g>
<!-- Node1&#45;&gt;Node2 -->
<g id="edge1" class="edge"><title>Node1&#45;&gt;Node2</title>
<path fill="none" stroke="midnightblue" d="M78.0649,-10C86.8697,-10 96.0562,-10 104.257,-10"/>
<polygon fill="midnightblue" stroke="midnightblue" points="104.356,-13.5001 114.356,-10 104.355,-6.5001 104.356,-13.5001"/>
</g>
<!-- Node3 -->
<g id="node3" class="node"><title>Node3</title>
<g id="a_node3"><a xlink:href="group__eh.html#ga67b6b9fd02aac96bef4297b1e6a1789a" target="_top" xlink:title="Shutdown function. ">
<polygon fill="white" stroke="black" points="186,-0.5 186,-19.5 224,-19.5 224,-0.5 186,-0.5"/>
<text text-anchor="middle" x="205" y="-7.5" font-family="Helvetica,sans-Serif" font-size="10.00">done</text>
</a>
</g>
</g>
<!-- Node2&#45;&gt;Node3 -->
<g id="edge2" class="edge"><title>Node2&#45;&gt;Node3</title>
<path fill="none" stroke="midnightblue" d="M149.826,-10C157.523,-10 166.856,-10 175.592,-10"/>
<polygon fill="midnightblue" stroke="midnightblue" points="175.802,-13.5001 185.802,-10 175.802,-6.5001 175.802,-13.5001"/>
</g>
</g>
</svg>
