<?xml version="1.0" encoding="UTF-8" standalone="no"?>
<!DOCTYPE svg PUBLIC "-//W3C//DTD SVG 1.1//EN"
 "http://www.w3.org/Graphics/SVG/1.1/DTD/svg11.dtd">
<!-- Generated by graphviz version 2.36.0 (20140111.2315)
 -->
<!-- Title: new_itemsets Pages: 1 -->
<svg width="348pt" height="28pt"
 viewBox="0.00 0.00 348.00 28.00" xmlns="http://www.w3.org/2000/svg" xmlns:xlink="http://www.w3.org/1999/xlink">
<g id="graph0" class="graph" transform="scale(1 1) rotate(0) translate(4 24)">
<title>new_itemsets</title>
<polygon fill="white" stroke="none" points="-4,4 -4,-24 344,-24 344,4 -4,4"/>
<!-- Node1 -->
<g id="node1" class="node"><title>Node1</title>
<polygon fill="#bfbfbf" stroke="black" points="0.5,-0.5 0.5,-19.5 77.5,-19.5 77.5,-0.5 0.5,-0.5"/>
<text text-anchor="middle" x="39" y="-7.5" font-family="Helvetica,sans-Serif" font-size="10.00">new_itemsets</text>
</g>
<!-- Node2 -->
<g id="node2" class="node"><title>Node2</title>
<g id="a_node2"><a xlink:href="lr0_8c.html#a81209dc209ca0c6fb2a5e74bd98c02c7" target="_top" xlink:title="generate_states">
<polygon fill="white" stroke="black" points="114,-0.5 114,-19.5 200,-19.5 200,-0.5 114,-0.5"/>
<text text-anchor="middle" x="157" y="-7.5" font-family="Helvetica,sans-Serif" font-size="10.00">generate_states</text>
</a>
</g>
</g>
<!-- Node1&#45;&gt;Node2 -->
<g id="edge1" class="edge"><title>Node1&#45;&gt;Node2</title>
<path fill="none" stroke="midnightblue" d="M87.8986,-10C96.4567,-10 105.318,-10 113.705,-10"/>
<polygon fill="midnightblue" stroke="midnightblue" points="87.6619,-6.5001 77.6619,-10 87.6618,-13.5001 87.6619,-6.5001"/>
</g>
<!-- Node3 -->
<g id="node3" class="node"><title>Node3</title>
<g id="a_node3"><a xlink:href="lr0_8c.html#aec6ecb962126ab8e37fed166e9416bce" target="_top" xlink:title="lr0">
<polygon fill="white" stroke="black" points="236.5,-0.5 236.5,-19.5 265.5,-19.5 265.5,-0.5 236.5,-0.5"/>
<text text-anchor="middle" x="251" y="-7.5" font-family="Helvetica,sans-Serif" font-size="10.00">lr0</text>
</a>
</g>
</g>
<!-- Node2&#45;&gt;Node3 -->
<g id="edge2" class="edge"><title>Node2&#45;&gt;Node3</title>
<path fill="none" stroke="midnightblue" d="M210.323,-10C219.946,-10 229.193,-10 236.335,-10"/>
<polygon fill="midnightblue" stroke="midnightblue" points="210.23,-6.5001 200.23,-10 210.23,-13.5001 210.23,-6.5001"/>
</g>
<!-- Node4 -->
<g id="node4" class="node"><title>Node4</title>
<g id="a_node4"><a xlink:href="main_8c.html#afced8478b91af5c169926dfa4426333d" target="_top" xlink:title="main">
<polygon fill="white" stroke="black" points="302,-0.5 302,-19.5 340,-19.5 340,-0.5 302,-0.5"/>
<text text-anchor="middle" x="321" y="-7.5" font-family="Helvetica,sans-Serif" font-size="10.00">main</text>
</a>
</g>
</g>
<!-- Node3&#45;&gt;Node4 -->
<g id="edge3" class="edge"><title>Node3&#45;&gt;Node4</title>
<path fill="none" stroke="midnightblue" d="M275.891,-10C284.428,-10 293.901,-10 301.872,-10"/>
<polygon fill="midnightblue" stroke="midnightblue" points="275.761,-6.5001 265.761,-10 275.761,-13.5001 275.761,-6.5001"/>
</g>
</g>
</svg>
