<?xml version="1.0" encoding="UTF-8" standalone="no"?>
<!DOCTYPE svg PUBLIC "-//W3C//DTD SVG 1.1//EN"
 "http://www.w3.org/Graphics/SVG/1.1/DTD/svg11.dtd">
<!-- Generated by graphviz version 2.36.0 (20140111.2315)
 -->
<!-- Title: set_nullable Pages: 1 -->
<svg width="246pt" height="47pt"
 viewBox="0.00 0.00 246.00 47.00" xmlns="http://www.w3.org/2000/svg" xmlns:xlink="http://www.w3.org/1999/xlink">
<g id="graph0" class="graph" transform="scale(1 1) rotate(0) translate(4 43)">
<title>set_nullable</title>
<polygon fill="white" stroke="none" points="-4,4 -4,-43 242,-43 242,4 -4,4"/>
<!-- Node1 -->
<g id="node1" class="node"><title>Node1</title>
<polygon fill="#bfbfbf" stroke="black" points="0,-19.5 0,-38.5 68,-38.5 68,-19.5 0,-19.5"/>
<text text-anchor="middle" x="34" y="-26.5" font-family="Helvetica,sans-Serif" font-size="10.00">set_nullable</text>
</g>
<!-- Node2 -->
<g id="node2" class="node"><title>Node2</title>
<g id="a_node2"><a xlink:href="main_8c.html#a67b6b9fd02aac96bef4297b1e6a1789a" target="_top" xlink:title="done">
<polygon fill="white" stroke="black" points="200,-19.5 200,-38.5 238,-38.5 238,-19.5 200,-19.5"/>
<text text-anchor="middle" x="219" y="-26.5" font-family="Helvetica,sans-Serif" font-size="10.00">done</text>
</a>
</g>
</g>
<!-- Node1&#45;&gt;Node2 -->
<g id="edge1" class="edge"><title>Node1&#45;&gt;Node2</title>
<path fill="none" stroke="midnightblue" d="M68.1399,-29C102.749,-29 156.477,-29 189.323,-29"/>
<polygon fill="midnightblue" stroke="midnightblue" points="189.604,-32.5001 199.603,-29 189.603,-25.5001 189.604,-32.5001"/>
</g>
<!-- Node3 -->
<g id="node3" class="node"><title>Node3</title>
<g id="a_node3"><a xlink:href="error_8c.html#a03b3d711852aa32c4076f12ea7bb93a4" target="_top" xlink:title="no_space">
<polygon fill="white" stroke="black" points="104.5,-0.5 104.5,-19.5 163.5,-19.5 163.5,-0.5 104.5,-0.5"/>
<text text-anchor="middle" x="134" y="-7.5" font-family="Helvetica,sans-Serif" font-size="10.00">no_space</text>
</a>
</g>
</g>
<!-- Node1&#45;&gt;Node3 -->
<g id="edge2" class="edge"><title>Node1&#45;&gt;Node3</title>
<path fill="none" stroke="midnightblue" d="M68.1783,-22.5675C76.6395,-20.927 85.8057,-19.1499 94.5079,-17.4628"/>
<polygon fill="midnightblue" stroke="midnightblue" points="95.2893,-20.8765 104.44,-15.5371 93.957,-14.0045 95.2893,-20.8765"/>
</g>
<!-- Node3&#45;&gt;Node2 -->
<g id="edge3" class="edge"><title>Node3&#45;&gt;Node2</title>
<path fill="none" stroke="midnightblue" d="M163.564,-16.5387C172.098,-18.4924 181.444,-20.6317 189.945,-22.5778"/>
<polygon fill="midnightblue" stroke="midnightblue" points="189.256,-26.0106 199.785,-24.8304 190.818,-19.1871 189.256,-26.0106"/>
</g>
</g>
</svg>
