<?xml version="1.0" encoding="UTF-8" standalone="no"?>
<!DOCTYPE svg PUBLIC "-//W3C//DTD SVG 1.1//EN"
 "http://www.w3.org/Graphics/SVG/1.1/DTD/svg11.dtd">
<!-- Generated by graphviz version 2.36.0 (20140111.2315)
 -->
<!-- Title: free_storage Pages: 1 -->
<svg width="342pt" height="28pt"
 viewBox="0.00 0.00 342.00 28.00" xmlns="http://www.w3.org/2000/svg" xmlns:xlink="http://www.w3.org/1999/xlink">
<g id="graph0" class="graph" transform="scale(1 1) rotate(0) translate(4 24)">
<title>free_storage</title>
<polygon fill="white" stroke="none" points="-4,4 -4,-24 338,-24 338,4 -4,4"/>
<!-- Node1 -->
<g id="node1" class="node"><title>Node1</title>
<polygon fill="#bfbfbf" stroke="black" points="0.5,-0.5 0.5,-19.5 71.5,-19.5 71.5,-0.5 0.5,-0.5"/>
<text text-anchor="middle" x="36" y="-7.5" font-family="Helvetica,sans-Serif" font-size="10.00">free_storage</text>
</g>
<!-- Node2 -->
<g id="node2" class="node"><title>Node2</title>
<g id="a_node2"><a xlink:href="lr0_8c.html#a81209dc209ca0c6fb2a5e74bd98c02c7" target="_top" xlink:title="generate_states">
<polygon fill="white" stroke="black" points="108,-0.5 108,-19.5 194,-19.5 194,-0.5 108,-0.5"/>
<text text-anchor="middle" x="151" y="-7.5" font-family="Helvetica,sans-Serif" font-size="10.00">generate_states</text>
</a>
</g>
</g>
<!-- Node1&#45;&gt;Node2 -->
<g id="edge1" class="edge"><title>Node1&#45;&gt;Node2</title>
<path fill="none" stroke="midnightblue" d="M81.7237,-10C90.2904,-10 99.2352,-10 107.722,-10"/>
<polygon fill="midnightblue" stroke="midnightblue" points="81.5178,-6.5001 71.5177,-10 81.5177,-13.5001 81.5178,-6.5001"/>
</g>
<!-- Node3 -->
<g id="node3" class="node"><title>Node3</title>
<g id="a_node3"><a xlink:href="lr0_8c.html#aec6ecb962126ab8e37fed166e9416bce" target="_top" xlink:title="lr0">
<polygon fill="white" stroke="black" points="230.5,-0.5 230.5,-19.5 259.5,-19.5 259.5,-0.5 230.5,-0.5"/>
<text text-anchor="middle" x="245" y="-7.5" font-family="Helvetica,sans-Serif" font-size="10.00">lr0</text>
</a>
</g>
</g>
<!-- Node2&#45;&gt;Node3 -->
<g id="edge2" class="edge"><title>Node2&#45;&gt;Node3</title>
<path fill="none" stroke="midnightblue" d="M204.323,-10C213.946,-10 223.193,-10 230.335,-10"/>
<polygon fill="midnightblue" stroke="midnightblue" points="204.23,-6.5001 194.23,-10 204.23,-13.5001 204.23,-6.5001"/>
</g>
<!-- Node4 -->
<g id="node4" class="node"><title>Node4</title>
<g id="a_node4"><a xlink:href="main_8c.html#afced8478b91af5c169926dfa4426333d" target="_top" xlink:title="main">
<polygon fill="white" stroke="black" points="296,-0.5 296,-19.5 334,-19.5 334,-0.5 296,-0.5"/>
<text text-anchor="middle" x="315" y="-7.5" font-family="Helvetica,sans-Serif" font-size="10.00">main</text>
</a>
</g>
</g>
<!-- Node3&#45;&gt;Node4 -->
<g id="edge3" class="edge"><title>Node3&#45;&gt;Node4</title>
<path fill="none" stroke="midnightblue" d="M269.891,-10C278.428,-10 287.901,-10 295.872,-10"/>
<polygon fill="midnightblue" stroke="midnightblue" points="269.761,-6.5001 259.761,-10 269.761,-13.5001 269.761,-6.5001"/>
</g>
</g>
</svg>
