<?xml version="1.0" encoding="UTF-8" standalone="no"?>
<!DOCTYPE svg PUBLIC "-//W3C//DTD SVG 1.1//EN"
 "http://www.w3.org/Graphics/SVG/1.1/DTD/svg11.dtd">
<!-- Generated by graphviz version 2.36.0 (20140111.2315)
 -->
<!-- Title: save_shifts Pages: 1 -->
<svg width="338pt" height="28pt"
 viewBox="0.00 0.00 338.00 28.00" xmlns="http://www.w3.org/2000/svg" xmlns:xlink="http://www.w3.org/1999/xlink">
<g id="graph0" class="graph" transform="scale(1 1) rotate(0) translate(4 24)">
<title>save_shifts</title>
<polygon fill="white" stroke="none" points="-4,4 -4,-24 334,-24 334,4 -4,4"/>
<!-- Node1 -->
<g id="node1" class="node"><title>Node1</title>
<polygon fill="#bfbfbf" stroke="black" points="0.5,-0.5 0.5,-19.5 67.5,-19.5 67.5,-0.5 0.5,-0.5"/>
<text text-anchor="middle" x="34" y="-7.5" font-family="Helvetica,sans-Serif" font-size="10.00">save_shifts</text>
</g>
<!-- Node2 -->
<g id="node2" class="node"><title>Node2</title>
<g id="a_node2"><a xlink:href="lr0_8c.html#a81209dc209ca0c6fb2a5e74bd98c02c7" target="_top" xlink:title="generate_states">
<polygon fill="white" stroke="black" points="104,-0.5 104,-19.5 190,-19.5 190,-0.5 104,-0.5"/>
<text text-anchor="middle" x="147" y="-7.5" font-family="Helvetica,sans-Serif" font-size="10.00">generate_states</text>
</a>
</g>
</g>
<!-- Node1&#45;&gt;Node2 -->
<g id="edge1" class="edge"><title>Node1&#45;&gt;Node2</title>
<path fill="none" stroke="midnightblue" d="M77.7859,-10C86.269,-10 95.1709,-10 103.64,-10"/>
<polygon fill="midnightblue" stroke="midnightblue" points="77.7033,-6.5001 67.7033,-10 77.7033,-13.5001 77.7033,-6.5001"/>
</g>
<!-- Node3 -->
<g id="node3" class="node"><title>Node3</title>
<g id="a_node3"><a xlink:href="lr0_8c.html#aec6ecb962126ab8e37fed166e9416bce" target="_top" xlink:title="lr0">
<polygon fill="white" stroke="black" points="226.5,-0.5 226.5,-19.5 255.5,-19.5 255.5,-0.5 226.5,-0.5"/>
<text text-anchor="middle" x="241" y="-7.5" font-family="Helvetica,sans-Serif" font-size="10.00">lr0</text>
</a>
</g>
</g>
<!-- Node2&#45;&gt;Node3 -->
<g id="edge2" class="edge"><title>Node2&#45;&gt;Node3</title>
<path fill="none" stroke="midnightblue" d="M200.323,-10C209.946,-10 219.193,-10 226.335,-10"/>
<polygon fill="midnightblue" stroke="midnightblue" points="200.23,-6.5001 190.23,-10 200.23,-13.5001 200.23,-6.5001"/>
</g>
<!-- Node4 -->
<g id="node4" class="node"><title>Node4</title>
<g id="a_node4"><a xlink:href="main_8c.html#afced8478b91af5c169926dfa4426333d" target="_top" xlink:title="main">
<polygon fill="white" stroke="black" points="292,-0.5 292,-19.5 330,-19.5 330,-0.5 292,-0.5"/>
<text text-anchor="middle" x="311" y="-7.5" font-family="Helvetica,sans-Serif" font-size="10.00">main</text>
</a>
</g>
</g>
<!-- Node3&#45;&gt;Node4 -->
<g id="edge3" class="edge"><title>Node3&#45;&gt;Node4</title>
<path fill="none" stroke="midnightblue" d="M265.891,-10C274.428,-10 283.901,-10 291.872,-10"/>
<polygon fill="midnightblue" stroke="midnightblue" points="265.761,-6.5001 255.761,-10 265.761,-13.5001 265.761,-6.5001"/>
</g>
</g>
</svg>
