<?xml version="1.0" encoding="UTF-8" standalone="no"?>
<!DOCTYPE svg PUBLIC "-//W3C//DTD SVG 1.1//EN"
 "http://www.w3.org/Graphics/SVG/1.1/DTD/svg11.dtd">
<!-- Generated by graphviz version 2.36.0 (20140111.2315)
 -->
<!-- Title: new_state Pages: 1 -->
<svg width="230pt" height="66pt"
 viewBox="0.00 0.00 230.00 66.00" xmlns="http://www.w3.org/2000/svg" xmlns:xlink="http://www.w3.org/1999/xlink">
<g id="graph0" class="graph" transform="scale(1 1) rotate(0) translate(4 62)">
<title>new_state</title>
<polygon fill="white" stroke="none" points="-4,4 -4,-62 226,-62 226,4 -4,4"/>
<!-- Node1 -->
<g id="node1" class="node"><title>Node1</title>
<polygon fill="#bfbfbf" stroke="black" points="0,-19.5 0,-38.5 62,-38.5 62,-19.5 0,-19.5"/>
<text text-anchor="middle" x="31" y="-26.5" font-family="Helvetica,sans-Serif" font-size="10.00">new_state</text>
</g>
<!-- Node2 -->
<g id="node2" class="node"><title>Node2</title>
<g id="a_node2"><a xlink:href="defs_8h.html#a5a2da8a4ba34f568d590a5b13640e6e8" target="_top" xlink:title="allocate">
<polygon fill="white" stroke="black" points="98,-38.5 98,-57.5 148,-57.5 148,-38.5 98,-38.5"/>
<text text-anchor="middle" x="123" y="-45.5" font-family="Helvetica,sans-Serif" font-size="10.00">allocate</text>
</a>
</g>
</g>
<!-- Node1&#45;&gt;Node2 -->
<g id="edge1" class="edge"><title>Node1&#45;&gt;Node2</title>
<path fill="none" stroke="midnightblue" d="M62.4699,-35.4325C70.6634,-37.1623 79.5769,-39.044 87.9516,-40.812"/>
<polygon fill="midnightblue" stroke="midnightblue" points="87.3077,-44.2532 97.8151,-42.8943 88.7537,-37.4041 87.3077,-44.2532"/>
</g>
<!-- Node3 -->
<g id="node3" class="node"><title>Node3</title>
<g id="a_node3"><a xlink:href="error_8c.html#ae558ad59d93f53e83fc2d8e29afdffb9" target="_top" xlink:title="fatal">
<polygon fill="white" stroke="black" points="105.5,-0.5 105.5,-19.5 140.5,-19.5 140.5,-0.5 105.5,-0.5"/>
<text text-anchor="middle" x="123" y="-7.5" font-family="Helvetica,sans-Serif" font-size="10.00">fatal</text>
</a>
</g>
</g>
<!-- Node1&#45;&gt;Node3 -->
<g id="edge2" class="edge"><title>Node1&#45;&gt;Node3</title>
<path fill="none" stroke="midnightblue" d="M62.4699,-22.5675C73.1431,-20.3142 85.0379,-17.8031 95.3721,-15.6214"/>
<polygon fill="midnightblue" stroke="midnightblue" points="96.3985,-18.982 105.46,-13.4918 94.9525,-12.1329 96.3985,-18.982"/>
</g>
<!-- Node4 -->
<g id="node4" class="node"><title>Node4</title>
<g id="a_node4"><a xlink:href="main_8c.html#a67b6b9fd02aac96bef4297b1e6a1789a" target="_top" xlink:title="done">
<polygon fill="white" stroke="black" points="184,-0.5 184,-19.5 222,-19.5 222,-0.5 184,-0.5"/>
<text text-anchor="middle" x="203" y="-7.5" font-family="Helvetica,sans-Serif" font-size="10.00">done</text>
</a>
</g>
</g>
<!-- Node3&#45;&gt;Node4 -->
<g id="edge3" class="edge"><title>Node3&#45;&gt;Node4</title>
<path fill="none" stroke="midnightblue" d="M140.542,-10C150.166,-10 162.559,-10 173.691,-10"/>
<polygon fill="midnightblue" stroke="midnightblue" points="173.848,-13.5001 183.848,-10 173.848,-6.5001 173.848,-13.5001"/>
</g>
</g>
</svg>
