<?xml version="1.0" encoding="UTF-8" standalone="no"?>
<!DOCTYPE svg PUBLIC "-//W3C//DTD SVG 1.1//EN"
 "http://www.w3.org/Graphics/SVG/1.1/DTD/svg11.dtd">
<!-- Generated by graphviz version 2.36.0 (20140111.2315)
 -->
<!-- Title: lr0 Pages: 1 -->
<svg width="490pt" height="408pt"
 viewBox="0.00 0.00 490.00 408.00" xmlns="http://www.w3.org/2000/svg" xmlns:xlink="http://www.w3.org/1999/xlink">
<g id="graph0" class="graph" transform="scale(1 1) rotate(0) translate(4 404)">
<title>lr0</title>
<polygon fill="white" stroke="none" points="-4,4 -4,-404 486,-404 486,4 -4,4"/>
<!-- Node1 -->
<g id="node1" class="node"><title>Node1</title>
<polygon fill="#bfbfbf" stroke="black" points="0.5,-123.5 0.5,-142.5 29.5,-142.5 29.5,-123.5 0.5,-123.5"/>
<text text-anchor="middle" x="15" y="-130.5" font-family="Helvetica,sans-Serif" font-size="10.00">lr0</text>
</g>
<!-- Node2 -->
<g id="node2" class="node"><title>Node2</title>
<g id="a_node2"><a xlink:href="lr0_8c.html#a81209dc209ca0c6fb2a5e74bd98c02c7" target="_top" xlink:title="generate_states">
<polygon fill="white" stroke="black" points="66,-190.5 66,-209.5 152,-209.5 152,-190.5 66,-190.5"/>
<text text-anchor="middle" x="109" y="-197.5" font-family="Helvetica,sans-Serif" font-size="10.00">generate_states</text>
</a>
</g>
</g>
<!-- Node1&#45;&gt;Node2 -->
<g id="edge1" class="edge"><title>Node1&#45;&gt;Node2</title>
<path fill="none" stroke="midnightblue" d="M29.1814,-142.599C44.2111,-153.545 68.9942,-171.594 86.7593,-184.531"/>
<polygon fill="midnightblue" stroke="midnightblue" points="84.6991,-187.361 94.8431,-190.418 88.82,-181.702 84.6991,-187.361"/>
</g>
<!-- Node19 -->
<g id="node19" class="node"><title>Node19</title>
<g id="a_node19"><a xlink:href="lr0_8c.html#a14abbd74cb1252df41fb49de4993b79e" target="_top" xlink:title="set_derives">
<polygon fill="white" stroke="black" points="75.5,-123.5 75.5,-142.5 142.5,-142.5 142.5,-123.5 75.5,-123.5"/>
<text text-anchor="middle" x="109" y="-130.5" font-family="Helvetica,sans-Serif" font-size="10.00">set_derives</text>
</a>
</g>
</g>
<!-- Node1&#45;&gt;Node19 -->
<g id="edge19" class="edge"><title>Node1&#45;&gt;Node19</title>
<path fill="none" stroke="midnightblue" d="M29.5749,-133C39.0405,-133 52.2329,-133 65.1004,-133"/>
<polygon fill="midnightblue" stroke="midnightblue" points="65.2728,-136.5 75.2728,-133 65.2728,-129.5 65.2728,-136.5"/>
</g>
<!-- Node20 -->
<g id="node20" class="node"><title>Node20</title>
<g id="a_node20"><a xlink:href="lr0_8c.html#a13b7dc617c6f314880ce2338dac35568" target="_top" xlink:title="set_nullable">
<polygon fill="white" stroke="black" points="199,-0.5 199,-19.5 267,-19.5 267,-0.5 199,-0.5"/>
<text text-anchor="middle" x="233" y="-7.5" font-family="Helvetica,sans-Serif" font-size="10.00">set_nullable</text>
</a>
</g>
</g>
<!-- Node1&#45;&gt;Node20 -->
<g id="edge20" class="edge"><title>Node1&#45;&gt;Node20</title>
<path fill="none" stroke="midnightblue" d="M29.8963,-123.701C58.6766,-104.646 127.2,-60.3242 188,-29 191.379,-27.259 194.954,-25.5342 198.546,-23.8753"/>
<polygon fill="midnightblue" stroke="midnightblue" points="200.267,-26.9404 207.976,-19.6724 197.417,-20.5468 200.267,-26.9404"/>
</g>
<!-- Node3 -->
<g id="node3" class="node"><title>Node3</title>
<g id="a_node3"><a xlink:href="lr0_8c.html#a74852fe10496d43f32c0ca73562d344f" target="_top" xlink:title="allocate_storage">
<polygon fill="white" stroke="black" points="189,-342.5 189,-361.5 277,-361.5 277,-342.5 189,-342.5"/>
<text text-anchor="middle" x="233" y="-349.5" font-family="Helvetica,sans-Serif" font-size="10.00">allocate_storage</text>
</a>
</g>
</g>
<!-- Node2&#45;&gt;Node3 -->
<g id="edge2" class="edge"><title>Node2&#45;&gt;Node3</title>
<path fill="none" stroke="midnightblue" d="M113.284,-209.756C121.85,-233.849 147.091,-296.829 188,-333 189.722,-334.523 191.585,-335.938 193.538,-337.251"/>
<polygon fill="midnightblue" stroke="midnightblue" points="192.101,-340.461 202.522,-342.373 195.568,-334.38 192.101,-340.461"/>
</g>
<!-- Node5 -->
<g id="node5" class="node"><title>Node5</title>
<g id="a_node5"><a xlink:href="lr0_8c.html#a19f361cfe7c2c93d294b2c268b1845e2" target="_top" xlink:title="append_states">
<polygon fill="white" stroke="black" points="193,-304.5 193,-323.5 273,-323.5 273,-304.5 193,-304.5"/>
<text text-anchor="middle" x="233" y="-311.5" font-family="Helvetica,sans-Serif" font-size="10.00">append_states</text>
</a>
</g>
</g>
<!-- Node2&#45;&gt;Node5 -->
<g id="edge4" class="edge"><title>Node2&#45;&gt;Node5</title>
<path fill="none" stroke="midnightblue" d="M115.69,-209.635C127.188,-228.38 154.93,-270.094 188,-295 190.306,-296.736 192.794,-298.351 195.374,-299.845"/>
<polygon fill="midnightblue" stroke="midnightblue" points="193.868,-303.006 204.362,-304.462 197.066,-296.779 193.868,-303.006"/>
</g>
<!-- Node7 -->
<g id="node7" class="node"><title>Node7</title>
<g id="a_node7"><a xlink:href="closure_8c.html#a7a2fb16739113cef8b9ef80769258a43" target="_top" xlink:title="closure">
<polygon fill="white" stroke="black" points="209,-266.5 209,-285.5 257,-285.5 257,-266.5 209,-266.5"/>
<text text-anchor="middle" x="233" y="-273.5" font-family="Helvetica,sans-Serif" font-size="10.00">closure</text>
</a>
</g>
</g>
<!-- Node2&#45;&gt;Node7 -->
<g id="edge6" class="edge"><title>Node2&#45;&gt;Node7</title>
<path fill="none" stroke="midnightblue" d="M121.337,-209.548C136.045,-221.631 162.81,-242.599 188,-257 191.657,-259.091 195.588,-261.097 199.542,-262.972"/>
<polygon fill="midnightblue" stroke="midnightblue" points="198.135,-266.177 208.692,-267.082 201.004,-259.792 198.135,-266.177"/>
</g>
<!-- Node8 -->
<g id="node8" class="node"><title>Node8</title>
<g id="a_node8"><a xlink:href="closure_8c.html#aaa34c5655f10410e4baf705089e3de69" target="_top" xlink:title="finalize_closure">
<polygon fill="white" stroke="black" points="191,-228.5 191,-247.5 275,-247.5 275,-228.5 191,-228.5"/>
<text text-anchor="middle" x="233" y="-235.5" font-family="Helvetica,sans-Serif" font-size="10.00">finalize_closure</text>
</a>
</g>
</g>
<!-- Node2&#45;&gt;Node8 -->
<g id="edge7" class="edge"><title>Node2&#45;&gt;Node8</title>
<path fill="none" stroke="midnightblue" d="M140.786,-209.589C156.101,-214.359 174.817,-220.189 191.3,-225.323"/>
<polygon fill="midnightblue" stroke="midnightblue" points="190.636,-228.782 201.224,-228.414 192.717,-222.099 190.636,-228.782"/>
</g>
<!-- Node9 -->
<g id="node9" class="node"><title>Node9</title>
<g id="a_node9"><a xlink:href="lr0_8c.html#a724455cee2c99e35b6663d1e4875f7a0" target="_top" xlink:title="free_storage">
<polygon fill="white" stroke="black" points="197.5,-190.5 197.5,-209.5 268.5,-209.5 268.5,-190.5 197.5,-190.5"/>
<text text-anchor="middle" x="233" y="-197.5" font-family="Helvetica,sans-Serif" font-size="10.00">free_storage</text>
</a>
</g>
</g>
<!-- Node2&#45;&gt;Node9 -->
<g id="edge8" class="edge"><title>Node2&#45;&gt;Node9</title>
<path fill="none" stroke="midnightblue" d="M152.327,-200C163.603,-200 175.821,-200 187.224,-200"/>
<polygon fill="midnightblue" stroke="midnightblue" points="187.416,-203.5 197.416,-200 187.416,-196.5 187.416,-203.5"/>
</g>
<!-- Node10 -->
<g id="node10" class="node"><title>Node10</title>
<g id="a_node10"><a xlink:href="lr0_8c.html#a4a4e3e94f2e9df0df4826edfaa275d47" target="_top" xlink:title="initialize_states">
<polygon fill="white" stroke="black" points="191,-38.5 191,-57.5 275,-57.5 275,-38.5 191,-38.5"/>
<text text-anchor="middle" x="233" y="-45.5" font-family="Helvetica,sans-Serif" font-size="10.00">initialize_states</text>
</a>
</g>
</g>
<!-- Node2&#45;&gt;Node10 -->
<g id="edge9" class="edge"><title>Node2&#45;&gt;Node10</title>
<path fill="none" stroke="midnightblue" d="M120.021,-190.45C129.238,-181.26 142.828,-166.638 152,-152 173.783,-117.234 159.092,-96.1115 188,-67 189.407,-65.583 190.937,-64.2647 192.555,-63.039"/>
<polygon fill="midnightblue" stroke="midnightblue" points="194.566,-65.9098 201.207,-57.6547 190.867,-59.9666 194.566,-65.9098"/>
</g>
<!-- Node13 -->
<g id="node13" class="node"><title>Node13</title>
<g id="a_node13"><a xlink:href="lr0_8c.html#a5c9a3400f7917d3c7b04448f229556e6" target="_top" xlink:title="new_itemsets">
<polygon fill="white" stroke="black" points="194.5,-114.5 194.5,-133.5 271.5,-133.5 271.5,-114.5 194.5,-114.5"/>
<text text-anchor="middle" x="233" y="-121.5" font-family="Helvetica,sans-Serif" font-size="10.00">new_itemsets</text>
</a>
</g>
</g>
<!-- Node2&#45;&gt;Node13 -->
<g id="edge12" class="edge"><title>Node2&#45;&gt;Node13</title>
<path fill="none" stroke="midnightblue" d="M121.337,-190.452C136.045,-178.369 162.81,-157.401 188,-143 191.223,-141.157 194.66,-139.379 198.138,-137.7"/>
<polygon fill="midnightblue" stroke="midnightblue" points="199.677,-140.845 207.32,-133.508 196.77,-134.477 199.677,-140.845"/>
</g>
<!-- Node14 -->
<g id="node14" class="node"><title>Node14</title>
<g id="a_node14"><a xlink:href="lr0_8c.html#ab38dfd7acc43af0b0c19728b7d22aeec" target="_top" xlink:title="save_reductions">
<polygon fill="white" stroke="black" points="189,-76.5 189,-95.5 277,-95.5 277,-76.5 189,-76.5"/>
<text text-anchor="middle" x="233" y="-83.5" font-family="Helvetica,sans-Serif" font-size="10.00">save_reductions</text>
</a>
</g>
</g>
<!-- Node2&#45;&gt;Node14 -->
<g id="edge13" class="edge"><title>Node2&#45;&gt;Node14</title>
<path fill="none" stroke="midnightblue" d="M118.879,-190.234C127.514,-180.647 140.914,-165.535 152,-152 168.672,-131.644 167.252,-121.182 188,-105 190.067,-103.388 192.291,-101.885 194.603,-100.489"/>
<polygon fill="midnightblue" stroke="midnightblue" points="196.598,-103.393 203.805,-95.6265 193.328,-97.2039 196.598,-103.393"/>
</g>
<!-- Node16 -->
<g id="node16" class="node"><title>Node16</title>
<g id="a_node16"><a xlink:href="lr0_8c.html#a1908887fd7a9309bb55050cf523e0181" target="_top" xlink:title="save_shifts">
<polygon fill="white" stroke="black" points="199.5,-152.5 199.5,-171.5 266.5,-171.5 266.5,-152.5 199.5,-152.5"/>
<text text-anchor="middle" x="233" y="-159.5" font-family="Helvetica,sans-Serif" font-size="10.00">save_shifts</text>
</a>
</g>
</g>
<!-- Node2&#45;&gt;Node16 -->
<g id="edge15" class="edge"><title>Node2&#45;&gt;Node16</title>
<path fill="none" stroke="midnightblue" d="M140.786,-190.411C156.101,-185.641 174.817,-179.811 191.3,-174.677"/>
<polygon fill="midnightblue" stroke="midnightblue" points="192.717,-177.901 201.224,-171.586 190.636,-171.218 192.717,-177.901"/>
</g>
<!-- Node17 -->
<g id="node17" class="node"><title>Node17</title>
<g id="a_node17"><a xlink:href="closure_8c.html#ab7198901ee6f38f5ed229dce745ceaa6" target="_top" xlink:title="set_first_derives">
<polygon fill="white" stroke="black" points="188.5,-380.5 188.5,-399.5 277.5,-399.5 277.5,-380.5 188.5,-380.5"/>
<text text-anchor="middle" x="233" y="-387.5" font-family="Helvetica,sans-Serif" font-size="10.00">set_first_derives</text>
</a>
</g>
</g>
<!-- Node2&#45;&gt;Node17 -->
<g id="edge17" class="edge"><title>Node2&#45;&gt;Node17</title>
<path fill="none" stroke="midnightblue" d="M111.825,-209.527C117.723,-237.893 138.824,-322.813 188,-371 189.471,-372.441 191.069,-373.782 192.755,-375.027"/>
<polygon fill="midnightblue" stroke="midnightblue" points="191.384,-378.289 201.748,-380.489 195.018,-372.306 191.384,-378.289"/>
</g>
<!-- Node4 -->
<g id="node4" class="node"><title>Node4</title>
<g id="a_node4"><a xlink:href="lr0_8c.html#aa479aeec6857bbd2e4af25cdce71210f" target="_top" xlink:title="allocate_itemsets">
<polygon fill="white" stroke="black" points="314.5,-342.5 314.5,-361.5 407.5,-361.5 407.5,-342.5 314.5,-342.5"/>
<text text-anchor="middle" x="361" y="-349.5" font-family="Helvetica,sans-Serif" font-size="10.00">allocate_itemsets</text>
</a>
</g>
</g>
<!-- Node3&#45;&gt;Node4 -->
<g id="edge3" class="edge"><title>Node3&#45;&gt;Node4</title>
<path fill="none" stroke="midnightblue" d="M277.01,-352C285.712,-352 294.981,-352 304.053,-352"/>
<polygon fill="midnightblue" stroke="midnightblue" points="304.171,-355.5 314.171,-352 304.171,-348.5 304.171,-355.5"/>
</g>
<!-- Node6 -->
<g id="node6" class="node"><title>Node6</title>
<g id="a_node6"><a xlink:href="lr0_8c.html#a92ebb11dc8ea206c073a3509f413f513" target="_top" xlink:title="get_state">
<polygon fill="white" stroke="black" points="332.5,-304.5 332.5,-323.5 389.5,-323.5 389.5,-304.5 332.5,-304.5"/>
<text text-anchor="middle" x="361" y="-311.5" font-family="Helvetica,sans-Serif" font-size="10.00">get_state</text>
</a>
</g>
</g>
<!-- Node5&#45;&gt;Node6 -->
<g id="edge5" class="edge"><title>Node5&#45;&gt;Node6</title>
<path fill="none" stroke="midnightblue" d="M273.177,-314C288.79,-314 306.692,-314 322.169,-314"/>
<polygon fill="midnightblue" stroke="midnightblue" points="322.439,-317.5 332.439,-314 322.439,-310.5 322.439,-317.5"/>
</g>
<!-- Node11 -->
<g id="node11" class="node"><title>Node11</title>
<g id="a_node11"><a xlink:href="error_8c.html#a03b3d711852aa32c4076f12ea7bb93a4" target="_top" xlink:title="no_space">
<polygon fill="white" stroke="black" points="331.5,-38.5 331.5,-57.5 390.5,-57.5 390.5,-38.5 331.5,-38.5"/>
<text text-anchor="middle" x="361" y="-45.5" font-family="Helvetica,sans-Serif" font-size="10.00">no_space</text>
</a>
</g>
</g>
<!-- Node10&#45;&gt;Node11 -->
<g id="edge10" class="edge"><title>Node10&#45;&gt;Node11</title>
<path fill="none" stroke="midnightblue" d="M275.257,-48C290.042,-48 306.648,-48 321.216,-48"/>
<polygon fill="midnightblue" stroke="midnightblue" points="321.409,-51.5001 331.409,-48 321.409,-44.5001 321.409,-51.5001"/>
</g>
<!-- Node12 -->
<g id="node12" class="node"><title>Node12</title>
<g id="a_node12"><a xlink:href="main_8c.html#a67b6b9fd02aac96bef4297b1e6a1789a" target="_top" xlink:title="done">
<polygon fill="white" stroke="black" points="444,-19.5 444,-38.5 482,-38.5 482,-19.5 444,-19.5"/>
<text text-anchor="middle" x="463" y="-26.5" font-family="Helvetica,sans-Serif" font-size="10.00">done</text>
</a>
</g>
</g>
<!-- Node11&#45;&gt;Node12 -->
<g id="edge11" class="edge"><title>Node11&#45;&gt;Node12</title>
<path fill="none" stroke="midnightblue" d="M390.656,-42.5554C404.136,-39.9942 420.164,-36.9489 433.61,-34.3941"/>
<polygon fill="midnightblue" stroke="midnightblue" points="434.571,-37.7742 443.742,-32.469 433.264,-30.8972 434.571,-37.7742"/>
</g>
<!-- Node15 -->
<g id="node15" class="node"><title>Node15</title>
<g id="a_node15"><a xlink:href="defs_8h.html#a5a2da8a4ba34f568d590a5b13640e6e8" target="_top" xlink:title="allocate">
<polygon fill="white" stroke="black" points="336,-114.5 336,-133.5 386,-133.5 386,-114.5 336,-114.5"/>
<text text-anchor="middle" x="361" y="-121.5" font-family="Helvetica,sans-Serif" font-size="10.00">allocate</text>
</a>
</g>
</g>
<!-- Node14&#45;&gt;Node15 -->
<g id="edge14" class="edge"><title>Node14&#45;&gt;Node15</title>
<path fill="none" stroke="midnightblue" d="M265.795,-95.589C284.211,-101.143 307.385,-108.132 326.14,-113.788"/>
<polygon fill="midnightblue" stroke="midnightblue" points="325.187,-117.156 335.771,-116.693 327.208,-110.454 325.187,-117.156"/>
</g>
<!-- Node16&#45;&gt;Node15 -->
<g id="edge16" class="edge"><title>Node16&#45;&gt;Node15</title>
<path fill="none" stroke="midnightblue" d="M265.795,-152.411C284.211,-146.857 307.385,-139.868 326.14,-134.212"/>
<polygon fill="midnightblue" stroke="midnightblue" points="327.208,-137.546 335.771,-131.307 325.187,-130.844 327.208,-137.546"/>
</g>
<!-- Node18 -->
<g id="node18" class="node"><title>Node18</title>
<g id="a_node18"><a xlink:href="closure_8c.html#a8771690f7fd06e6be291505119de2fcb" target="_top" xlink:title="set_EFF">
<polygon fill="white" stroke="red" points="334,-380.5 334,-399.5 388,-399.5 388,-380.5 334,-380.5"/>
<text text-anchor="middle" x="361" y="-387.5" font-family="Helvetica,sans-Serif" font-size="10.00">set_EFF</text>
</a>
</g>
</g>
<!-- Node17&#45;&gt;Node18 -->
<g id="edge18" class="edge"><title>Node17&#45;&gt;Node18</title>
<path fill="none" stroke="midnightblue" d="M277.715,-390C292.815,-390 309.55,-390 323.964,-390"/>
<polygon fill="midnightblue" stroke="midnightblue" points="323.993,-393.5 333.993,-390 323.993,-386.5 323.993,-393.5"/>
</g>
<!-- Node20&#45;&gt;Node11 -->
<g id="edge22" class="edge"><title>Node20&#45;&gt;Node11</title>
<path fill="none" stroke="midnightblue" d="M265.795,-19.589C282.615,-24.6617 303.406,-30.9319 321.173,-36.2901"/>
<polygon fill="midnightblue" stroke="midnightblue" points="320.647,-39.7872 331.231,-39.3237 322.668,-33.0853 320.647,-39.7872"/>
</g>
<!-- Node20&#45;&gt;Node12 -->
<g id="edge21" class="edge"><title>Node20&#45;&gt;Node12</title>
<path fill="none" stroke="midnightblue" d="M267.153,-12.7628C312.032,-16.5026 391.35,-23.1125 433.619,-26.6349"/>
<polygon fill="midnightblue" stroke="midnightblue" points="433.512,-30.1381 443.768,-27.4807 434.094,-23.1622 433.512,-30.1381"/>
</g>
</g>
</svg>
