<?xml version="1.0" encoding="UTF-8" standalone="no"?>
<!DOCTYPE svg PUBLIC "-//W3C//DTD SVG 1.1//EN"
 "http://www.w3.org/Graphics/SVG/1.1/DTD/svg11.dtd">
<!-- Generated by graphviz version 2.36.0 (20140111.2315)
 -->
<!-- Title: generate_states Pages: 1 -->
<svg width="484pt" height="375pt"
 viewBox="0.00 0.00 484.00 375.00" xmlns="http://www.w3.org/2000/svg" xmlns:xlink="http://www.w3.org/1999/xlink">
<g id="graph0" class="graph" transform="scale(1 1) rotate(0) translate(4 371)">
<title>generate_states</title>
<polygon fill="white" stroke="none" points="-4,4 -4,-371 480,-371 480,4 -4,4"/>
<!-- Node1 -->
<g id="node1" class="node"><title>Node1</title>
<polygon fill="#bfbfbf" stroke="black" points="0,-176.5 0,-195.5 86,-195.5 86,-176.5 0,-176.5"/>
<text text-anchor="middle" x="43" y="-183.5" font-family="Helvetica,sans-Serif" font-size="10.00">generate_states</text>
</g>
<!-- Node2 -->
<g id="node2" class="node"><title>Node2</title>
<g id="a_node2"><a xlink:href="lr0_8c.html#a74852fe10496d43f32c0ca73562d344f" target="_top" xlink:title="allocate_storage">
<polygon fill="white" stroke="black" points="123,-347.5 123,-366.5 211,-366.5 211,-347.5 123,-347.5"/>
<text text-anchor="middle" x="167" y="-354.5" font-family="Helvetica,sans-Serif" font-size="10.00">allocate_storage</text>
</a>
</g>
</g>
<!-- Node1&#45;&gt;Node2 -->
<g id="edge1" class="edge"><title>Node1&#45;&gt;Node2</title>
<path fill="none" stroke="midnightblue" d="M46.4469,-195.582C53.614,-221.85 76.9499,-295.85 122,-338 123.629,-339.524 125.4,-340.938 127.264,-342.247"/>
<polygon fill="midnightblue" stroke="midnightblue" points="125.501,-345.27 135.892,-347.338 129.059,-339.242 125.501,-345.27"/>
</g>
<!-- Node4 -->
<g id="node4" class="node"><title>Node4</title>
<g id="a_node4"><a xlink:href="lr0_8c.html#a19f361cfe7c2c93d294b2c268b1845e2" target="_top" xlink:title="append_states">
<polygon fill="white" stroke="black" points="127,-309.5 127,-328.5 207,-328.5 207,-309.5 127,-309.5"/>
<text text-anchor="middle" x="167" y="-316.5" font-family="Helvetica,sans-Serif" font-size="10.00">append_states</text>
</a>
</g>
</g>
<!-- Node1&#45;&gt;Node4 -->
<g id="edge3" class="edge"><title>Node1&#45;&gt;Node4</title>
<path fill="none" stroke="midnightblue" d="M48.2506,-195.6C58.1984,-217.076 84.9848,-269.5 122,-300 123.967,-301.62 126.092,-303.125 128.311,-304.518"/>
<polygon fill="midnightblue" stroke="midnightblue" points="126.733,-307.644 137.189,-309.351 130.079,-301.496 126.733,-307.644"/>
</g>
<!-- Node6 -->
<g id="node6" class="node"><title>Node6</title>
<g id="a_node6"><a xlink:href="closure_8c.html#a7a2fb16739113cef8b9ef80769258a43" target="_top" xlink:title="closure">
<polygon fill="white" stroke="black" points="143,-271.5 143,-290.5 191,-290.5 191,-271.5 143,-271.5"/>
<text text-anchor="middle" x="167" y="-278.5" font-family="Helvetica,sans-Serif" font-size="10.00">closure</text>
</a>
</g>
</g>
<!-- Node1&#45;&gt;Node6 -->
<g id="edge5" class="edge"><title>Node1&#45;&gt;Node6</title>
<path fill="none" stroke="midnightblue" d="M51.752,-195.551C64.8441,-211.18 92.7789,-242.434 122,-262 125.578,-264.396 129.507,-266.599 133.5,-268.59"/>
<polygon fill="midnightblue" stroke="midnightblue" points="132.245,-271.865 142.795,-272.842 135.157,-265.499 132.245,-271.865"/>
</g>
<!-- Node7 -->
<g id="node7" class="node"><title>Node7</title>
<g id="a_node7"><a xlink:href="closure_8c.html#aaa34c5655f10410e4baf705089e3de69" target="_top" xlink:title="finalize_closure">
<polygon fill="white" stroke="black" points="125,-233.5 125,-252.5 209,-252.5 209,-233.5 125,-233.5"/>
<text text-anchor="middle" x="167" y="-240.5" font-family="Helvetica,sans-Serif" font-size="10.00">finalize_closure</text>
</a>
</g>
</g>
<!-- Node1&#45;&gt;Node7 -->
<g id="edge6" class="edge"><title>Node1&#45;&gt;Node7</title>
<path fill="none" stroke="midnightblue" d="M63.1165,-195.616C78.8362,-203.45 101.74,-214.697 122,-224 125.828,-225.758 129.863,-227.563 133.873,-229.329"/>
<polygon fill="midnightblue" stroke="midnightblue" points="132.509,-232.553 143.075,-233.336 135.304,-226.135 132.509,-232.553"/>
</g>
<!-- Node8 -->
<g id="node8" class="node"><title>Node8</title>
<g id="a_node8"><a xlink:href="lr0_8c.html#a724455cee2c99e35b6663d1e4875f7a0" target="_top" xlink:title="free_storage">
<polygon fill="white" stroke="black" points="131.5,-195.5 131.5,-214.5 202.5,-214.5 202.5,-195.5 131.5,-195.5"/>
<text text-anchor="middle" x="167" y="-202.5" font-family="Helvetica,sans-Serif" font-size="10.00">free_storage</text>
</a>
</g>
</g>
<!-- Node1&#45;&gt;Node8 -->
<g id="edge7" class="edge"><title>Node1&#45;&gt;Node8</title>
<path fill="none" stroke="midnightblue" d="M86.3273,-192.592C97.6032,-194.348 109.821,-196.251 121.224,-198.027"/>
<polygon fill="midnightblue" stroke="midnightblue" points="120.996,-201.533 131.416,-199.614 122.073,-194.617 120.996,-201.533"/>
</g>
<!-- Node9 -->
<g id="node9" class="node"><title>Node9</title>
<g id="a_node9"><a xlink:href="lr0_8c.html#a4a4e3e94f2e9df0df4826edfaa275d47" target="_top" xlink:title="initialize_states">
<polygon fill="white" stroke="black" points="125,-157.5 125,-176.5 209,-176.5 209,-157.5 125,-157.5"/>
<text text-anchor="middle" x="167" y="-164.5" font-family="Helvetica,sans-Serif" font-size="10.00">initialize_states</text>
</a>
</g>
</g>
<!-- Node1&#45;&gt;Node9 -->
<g id="edge8" class="edge"><title>Node1&#45;&gt;Node9</title>
<path fill="none" stroke="midnightblue" d="M86.3273,-179.408C95.5257,-177.976 105.351,-176.445 114.849,-174.966"/>
<polygon fill="midnightblue" stroke="midnightblue" points="115.64,-178.385 124.982,-173.388 114.562,-171.469 115.64,-178.385"/>
</g>
<!-- Node12 -->
<g id="node12" class="node"><title>Node12</title>
<g id="a_node12"><a xlink:href="lr0_8c.html#a5c9a3400f7917d3c7b04448f229556e6" target="_top" xlink:title="new_itemsets">
<polygon fill="white" stroke="black" points="128.5,-119.5 128.5,-138.5 205.5,-138.5 205.5,-119.5 128.5,-119.5"/>
<text text-anchor="middle" x="167" y="-126.5" font-family="Helvetica,sans-Serif" font-size="10.00">new_itemsets</text>
</a>
</g>
</g>
<!-- Node1&#45;&gt;Node12 -->
<g id="edge11" class="edge"><title>Node1&#45;&gt;Node12</title>
<path fill="none" stroke="midnightblue" d="M63.1165,-176.384C78.8362,-168.55 101.74,-157.303 122,-148 125.828,-146.242 129.863,-144.437 133.873,-142.671"/>
<polygon fill="midnightblue" stroke="midnightblue" points="135.304,-145.865 143.075,-138.664 132.509,-139.447 135.304,-145.865"/>
</g>
<!-- Node13 -->
<g id="node13" class="node"><title>Node13</title>
<g id="a_node13"><a xlink:href="lr0_8c.html#ab38dfd7acc43af0b0c19728b7d22aeec" target="_top" xlink:title="save_reductions">
<polygon fill="white" stroke="black" points="123,-81.5 123,-100.5 211,-100.5 211,-81.5 123,-81.5"/>
<text text-anchor="middle" x="167" y="-88.5" font-family="Helvetica,sans-Serif" font-size="10.00">save_reductions</text>
</a>
</g>
</g>
<!-- Node1&#45;&gt;Node13 -->
<g id="edge12" class="edge"><title>Node1&#45;&gt;Node13</title>
<path fill="none" stroke="midnightblue" d="M51.752,-176.449C64.8441,-160.82 92.7789,-129.566 122,-110 124.696,-108.195 127.592,-106.498 130.565,-104.92"/>
<polygon fill="midnightblue" stroke="midnightblue" points="132.115,-108.058 139.587,-100.546 129.061,-101.759 132.115,-108.058"/>
</g>
<!-- Node15 -->
<g id="node15" class="node"><title>Node15</title>
<g id="a_node15"><a xlink:href="lr0_8c.html#a1908887fd7a9309bb55050cf523e0181" target="_top" xlink:title="save_shifts">
<polygon fill="white" stroke="black" points="133.5,-43.5 133.5,-62.5 200.5,-62.5 200.5,-43.5 133.5,-43.5"/>
<text text-anchor="middle" x="167" y="-50.5" font-family="Helvetica,sans-Serif" font-size="10.00">save_shifts</text>
</a>
</g>
</g>
<!-- Node1&#45;&gt;Node15 -->
<g id="edge14" class="edge"><title>Node1&#45;&gt;Node15</title>
<path fill="none" stroke="midnightblue" d="M48.2506,-176.4C58.1984,-154.924 84.9848,-102.5 122,-72 123.967,-70.3796 126.092,-68.8749 128.311,-67.4816"/>
<polygon fill="midnightblue" stroke="midnightblue" points="130.079,-70.5042 137.189,-62.6494 126.733,-64.3559 130.079,-70.5042"/>
</g>
<!-- Node16 -->
<g id="node16" class="node"><title>Node16</title>
<g id="a_node16"><a xlink:href="closure_8c.html#ab7198901ee6f38f5ed229dce745ceaa6" target="_top" xlink:title="set_first_derives">
<polygon fill="white" stroke="black" points="122.5,-5.5 122.5,-24.5 211.5,-24.5 211.5,-5.5 122.5,-5.5"/>
<text text-anchor="middle" x="167" y="-12.5" font-family="Helvetica,sans-Serif" font-size="10.00">set_first_derives</text>
</a>
</g>
</g>
<!-- Node1&#45;&gt;Node16 -->
<g id="edge16" class="edge"><title>Node1&#45;&gt;Node16</title>
<path fill="none" stroke="midnightblue" d="M46.4469,-176.418C53.614,-150.15 76.9499,-76.1502 122,-34 123.629,-32.4758 125.4,-31.0624 127.264,-29.7534"/>
<polygon fill="midnightblue" stroke="midnightblue" points="129.059,-32.7585 135.892,-24.6623 125.501,-26.7297 129.059,-32.7585"/>
</g>
<!-- Node3 -->
<g id="node3" class="node"><title>Node3</title>
<g id="a_node3"><a xlink:href="lr0_8c.html#aa479aeec6857bbd2e4af25cdce71210f" target="_top" xlink:title="allocate_itemsets">
<polygon fill="white" stroke="black" points="248.5,-347.5 248.5,-366.5 341.5,-366.5 341.5,-347.5 248.5,-347.5"/>
<text text-anchor="middle" x="295" y="-354.5" font-family="Helvetica,sans-Serif" font-size="10.00">allocate_itemsets</text>
</a>
</g>
</g>
<!-- Node2&#45;&gt;Node3 -->
<g id="edge2" class="edge"><title>Node2&#45;&gt;Node3</title>
<path fill="none" stroke="midnightblue" d="M211.01,-357C219.712,-357 228.981,-357 238.053,-357"/>
<polygon fill="midnightblue" stroke="midnightblue" points="238.171,-360.5 248.171,-357 238.171,-353.5 238.171,-360.5"/>
</g>
<!-- Node5 -->
<g id="node5" class="node"><title>Node5</title>
<g id="a_node5"><a xlink:href="lr0_8c.html#a92ebb11dc8ea206c073a3509f413f513" target="_top" xlink:title="get_state">
<polygon fill="white" stroke="black" points="266.5,-309.5 266.5,-328.5 323.5,-328.5 323.5,-309.5 266.5,-309.5"/>
<text text-anchor="middle" x="295" y="-316.5" font-family="Helvetica,sans-Serif" font-size="10.00">get_state</text>
</a>
</g>
</g>
<!-- Node4&#45;&gt;Node5 -->
<g id="edge4" class="edge"><title>Node4&#45;&gt;Node5</title>
<path fill="none" stroke="midnightblue" d="M207.177,-319C222.79,-319 240.692,-319 256.169,-319"/>
<polygon fill="midnightblue" stroke="midnightblue" points="256.439,-322.5 266.439,-319 256.439,-315.5 256.439,-322.5"/>
</g>
<!-- Node10 -->
<g id="node10" class="node"><title>Node10</title>
<g id="a_node10"><a xlink:href="error_8c.html#a03b3d711852aa32c4076f12ea7bb93a4" target="_top" xlink:title="no_space">
<polygon fill="white" stroke="black" points="265.5,-157.5 265.5,-176.5 324.5,-176.5 324.5,-157.5 265.5,-157.5"/>
<text text-anchor="middle" x="295" y="-164.5" font-family="Helvetica,sans-Serif" font-size="10.00">no_space</text>
</a>
</g>
</g>
<!-- Node9&#45;&gt;Node10 -->
<g id="edge9" class="edge"><title>Node9&#45;&gt;Node10</title>
<path fill="none" stroke="midnightblue" d="M209.257,-167C224.042,-167 240.648,-167 255.216,-167"/>
<polygon fill="midnightblue" stroke="midnightblue" points="255.409,-170.5 265.409,-167 255.409,-163.5 255.409,-170.5"/>
</g>
<!-- Node11 -->
<g id="node11" class="node"><title>Node11</title>
<g id="a_node11"><a xlink:href="main_8c.html#a67b6b9fd02aac96bef4297b1e6a1789a" target="_top" xlink:title="done">
<polygon fill="white" stroke="black" points="408,-157.5 408,-176.5 446,-176.5 446,-157.5 408,-157.5"/>
<text text-anchor="middle" x="427" y="-164.5" font-family="Helvetica,sans-Serif" font-size="10.00">done</text>
</a>
</g>
</g>
<!-- Node10&#45;&gt;Node11 -->
<g id="edge10" class="edge"><title>Node10&#45;&gt;Node11</title>
<path fill="none" stroke="midnightblue" d="M324.529,-167C346.268,-167 376.055,-167 397.73,-167"/>
<polygon fill="midnightblue" stroke="midnightblue" points="397.943,-170.5 407.943,-167 397.943,-163.5 397.943,-170.5"/>
</g>
<!-- Node14 -->
<g id="node14" class="node"><title>Node14</title>
<g id="a_node14"><a xlink:href="defs_8h.html#a5a2da8a4ba34f568d590a5b13640e6e8" target="_top" xlink:title="allocate">
<polygon fill="white" stroke="black" points="270,-62.5 270,-81.5 320,-81.5 320,-62.5 270,-62.5"/>
<text text-anchor="middle" x="295" y="-69.5" font-family="Helvetica,sans-Serif" font-size="10.00">allocate</text>
</a>
</g>
</g>
<!-- Node13&#45;&gt;Node14 -->
<g id="edge13" class="edge"><title>Node13&#45;&gt;Node14</title>
<path fill="none" stroke="midnightblue" d="M211.01,-84.5144C226.997,-82.1037 244.9,-79.404 259.974,-77.1309"/>
<polygon fill="midnightblue" stroke="midnightblue" points="260.533,-80.5863 269.899,-75.6342 259.489,-73.6645 260.533,-80.5863"/>
</g>
<!-- Node15&#45;&gt;Node14 -->
<g id="edge15" class="edge"><title>Node15&#45;&gt;Node14</title>
<path fill="none" stroke="midnightblue" d="M200.776,-57.9424C218.903,-60.6758 241.404,-64.0689 259.759,-66.8366"/>
<polygon fill="midnightblue" stroke="midnightblue" points="259.338,-70.3126 269.748,-68.3429 260.382,-63.3909 259.338,-70.3126"/>
</g>
<!-- Node17 -->
<g id="node17" class="node"><title>Node17</title>
<g id="a_node17"><a xlink:href="closure_8c.html#a8771690f7fd06e6be291505119de2fcb" target="_top" xlink:title="set_EFF">
<polygon fill="white" stroke="black" points="268,-5.5 268,-24.5 322,-24.5 322,-5.5 268,-5.5"/>
<text text-anchor="middle" x="295" y="-12.5" font-family="Helvetica,sans-Serif" font-size="10.00">set_EFF</text>
</a>
</g>
</g>
<!-- Node16&#45;&gt;Node17 -->
<g id="edge17" class="edge"><title>Node16&#45;&gt;Node17</title>
<path fill="none" stroke="midnightblue" d="M211.715,-15C226.815,-15 243.55,-15 257.964,-15"/>
<polygon fill="midnightblue" stroke="midnightblue" points="257.993,-18.5001 267.993,-15 257.993,-11.5001 257.993,-18.5001"/>
</g>
<!-- Node18 -->
<g id="node18" class="node"><title>Node18</title>
<g id="a_node18"><a xlink:href="warshall_8c.html#a5b17363d658cbdfeba8682ae963937dc" target="_top" xlink:title="reflexive_transitive\l_closure">
<polygon fill="white" stroke="red" points="378,-0 378,-30 476,-30 476,-0 378,-0"/>
<text text-anchor="start" x="386" y="-18" font-family="Helvetica,sans-Serif" font-size="10.00">reflexive_transitive</text>
<text text-anchor="middle" x="427" y="-7" font-family="Helvetica,sans-Serif" font-size="10.00">_closure</text>
</a>
</g>
</g>
<!-- Node17&#45;&gt;Node18 -->
<g id="edge18" class="edge"><title>Node17&#45;&gt;Node18</title>
<path fill="none" stroke="midnightblue" d="M322.307,-15C335.393,-15 351.767,-15 367.611,-15"/>
<polygon fill="midnightblue" stroke="midnightblue" points="367.907,-18.5001 377.907,-15 367.907,-11.5001 367.907,-18.5001"/>
</g>
</g>
</svg>
