<?xml version="1.0" encoding="UTF-8" standalone="no"?>
<!DOCTYPE svg PUBLIC "-//W3C//DTD SVG 1.1//EN"
 "http://www.w3.org/Graphics/SVG/1.1/DTD/svg11.dtd">
<!-- Generated by graphviz version 2.36.0 (20140111.2315)
 -->
<!-- Title: create_file_names Pages: 1 -->
<svg width="274pt" height="142pt"
 viewBox="0.00 0.00 274.00 142.00" xmlns="http://www.w3.org/2000/svg" xmlns:xlink="http://www.w3.org/1999/xlink">
<g id="graph0" class="graph" transform="scale(1 1) rotate(0) translate(4 138)">
<title>create_file_names</title>
<polygon fill="white" stroke="none" points="-4,4 -4,-138 270,-138 270,4 -4,4"/>
<!-- Node1 -->
<g id="node1" class="node"><title>Node1</title>
<polygon fill="#bfbfbf" stroke="black" points="0,-57.5 0,-76.5 96,-76.5 96,-57.5 0,-57.5"/>
<text text-anchor="middle" x="48" y="-64.5" font-family="Helvetica,sans-Serif" font-size="10.00">create_file_names</text>
</g>
<!-- Node2 -->
<g id="node2" class="node"><title>Node2</title>
<g id="a_node2"><a xlink:href="main_8c.html#aee28fd8a0e40b6d958f7d20348e45368" target="_top" xlink:title="getenv">
<polygon fill="white" stroke="black" points="139,-114.5 139,-133.5 185,-133.5 185,-114.5 139,-114.5"/>
<text text-anchor="middle" x="162" y="-121.5" font-family="Helvetica,sans-Serif" font-size="10.00">getenv</text>
</a>
</g>
</g>
<!-- Node1&#45;&gt;Node2 -->
<g id="edge1" class="edge"><title>Node1&#45;&gt;Node2</title>
<path fill="none" stroke="midnightblue" d="M67.7463,-76.5405C85.5942,-85.6239 112.682,-99.4096 133.072,-109.787"/>
<polygon fill="midnightblue" stroke="midnightblue" points="131.693,-113.012 142.193,-114.428 134.868,-106.773 131.693,-113.012"/>
</g>
<!-- Node3 -->
<g id="node3" class="node"><title>Node3</title>
<g id="a_node3"><a xlink:href="main_8c.html#ac31a368bfe3ea363e428c0a5b6f88c6d" target="_top" xlink:title="mktemp">
<polygon fill="white" stroke="black" points="136,-76.5 136,-95.5 188,-95.5 188,-76.5 136,-76.5"/>
<text text-anchor="middle" x="162" y="-83.5" font-family="Helvetica,sans-Serif" font-size="10.00">mktemp</text>
</a>
</g>
</g>
<!-- Node1&#45;&gt;Node3 -->
<g id="edge2" class="edge"><title>Node1&#45;&gt;Node3</title>
<path fill="none" stroke="midnightblue" d="M96.1735,-75.0026C106.077,-76.6827 116.358,-78.4268 125.736,-80.0177"/>
<polygon fill="midnightblue" stroke="midnightblue" points="125.427,-83.5152 135.872,-81.7371 126.598,-76.6138 125.427,-83.5152"/>
</g>
<!-- Node4 -->
<g id="node4" class="node"><title>Node4</title>
<g id="a_node4"><a xlink:href="error_8c.html#a03b3d711852aa32c4076f12ea7bb93a4" target="_top" xlink:title="no_space">
<polygon fill="white" stroke="black" points="132.5,-38.5 132.5,-57.5 191.5,-57.5 191.5,-38.5 132.5,-38.5"/>
<text text-anchor="middle" x="162" y="-45.5" font-family="Helvetica,sans-Serif" font-size="10.00">no_space</text>
</a>
</g>
</g>
<!-- Node1&#45;&gt;Node4 -->
<g id="edge3" class="edge"><title>Node1&#45;&gt;Node4</title>
<path fill="none" stroke="midnightblue" d="M96.1735,-58.9974C104.929,-57.5121 113.98,-55.9767 122.44,-54.5414"/>
<polygon fill="midnightblue" stroke="midnightblue" points="123.134,-57.9737 132.408,-52.8504 121.964,-51.0723 123.134,-57.9737"/>
</g>
<!-- Node6 -->
<g id="node6" class="node"><title>Node6</title>
<g id="a_node6"><a xlink:href="defs_8h.html#add539a5755e4c4070b0c8ca97477fe47" target="_top" xlink:title="strcpy">
<polygon fill="white" stroke="black" points="140,-0.5 140,-19.5 184,-19.5 184,-0.5 140,-0.5"/>
<text text-anchor="middle" x="162" y="-7.5" font-family="Helvetica,sans-Serif" font-size="10.00">strcpy</text>
</a>
</g>
</g>
<!-- Node1&#45;&gt;Node6 -->
<g id="edge5" class="edge"><title>Node1&#45;&gt;Node6</title>
<path fill="none" stroke="midnightblue" d="M67.7463,-57.4595C85.5942,-48.3761 112.682,-34.5904 133.072,-24.2133"/>
<polygon fill="midnightblue" stroke="midnightblue" points="134.868,-27.2267 142.193,-19.5716 131.693,-20.9881 134.868,-27.2267"/>
</g>
<!-- Node5 -->
<g id="node5" class="node"><title>Node5</title>
<g id="a_node5"><a xlink:href="main_8c.html#a67b6b9fd02aac96bef4297b1e6a1789a" target="_top" xlink:title="done">
<polygon fill="white" stroke="black" points="228,-38.5 228,-57.5 266,-57.5 266,-38.5 228,-38.5"/>
<text text-anchor="middle" x="247" y="-45.5" font-family="Helvetica,sans-Serif" font-size="10.00">done</text>
</a>
</g>
</g>
<!-- Node4&#45;&gt;Node5 -->
<g id="edge4" class="edge"><title>Node4&#45;&gt;Node5</title>
<path fill="none" stroke="midnightblue" d="M191.564,-48C200.005,-48 209.238,-48 217.665,-48"/>
<polygon fill="midnightblue" stroke="midnightblue" points="217.785,-51.5001 227.785,-48 217.785,-44.5001 217.785,-51.5001"/>
</g>
</g>
</svg>
