<?xml version="1.0" encoding="UTF-8" standalone="no"?>
<!DOCTYPE svg PUBLIC "-//W3C//DTD SVG 1.1//EN"
 "http://www.w3.org/Graphics/SVG/1.1/DTD/svg11.dtd">
<!-- Generated by graphviz version 2.36.0 (20140111.2315)
 -->
<!-- Title: open_files Pages: 1 -->
<svg width="372pt" height="161pt"
 viewBox="0.00 0.00 372.00 161.00" xmlns="http://www.w3.org/2000/svg" xmlns:xlink="http://www.w3.org/1999/xlink">
<g id="graph0" class="graph" transform="scale(1 1) rotate(0) translate(4 157)">
<title>open_files</title>
<polygon fill="white" stroke="none" points="-4,4 -4,-157 368,-157 368,4 -4,4"/>
<!-- Node1 -->
<g id="node1" class="node"><title>Node1</title>
<polygon fill="#bfbfbf" stroke="black" points="0.5,-28.5 0.5,-47.5 61.5,-47.5 61.5,-28.5 0.5,-28.5"/>
<text text-anchor="middle" x="31" y="-35.5" font-family="Helvetica,sans-Serif" font-size="10.00">open_files</text>
</g>
<!-- Node2 -->
<g id="node2" class="node"><title>Node2</title>
<g id="a_node2"><a xlink:href="main_8c.html#a8424435403fe377f38d43b7bdda78ac3" target="_top" xlink:title="create_file_names">
<polygon fill="white" stroke="black" points="98,-57.5 98,-76.5 194,-76.5 194,-57.5 98,-57.5"/>
<text text-anchor="middle" x="146" y="-64.5" font-family="Helvetica,sans-Serif" font-size="10.00">create_file_names</text>
</a>
</g>
</g>
<!-- Node1&#45;&gt;Node2 -->
<g id="edge1" class="edge"><title>Node1&#45;&gt;Node2</title>
<path fill="none" stroke="midnightblue" d="M61.6894,-45.6194C72.8344,-48.4796 85.7913,-51.8048 98.1187,-54.9685"/>
<polygon fill="midnightblue" stroke="midnightblue" points="97.2673,-58.3634 107.823,-57.4591 99.0074,-51.5831 97.2673,-58.3634"/>
</g>
<!-- Node8 -->
<g id="node8" class="node"><title>Node8</title>
<g id="a_node8"><a xlink:href="group__eh.html#gafc759b2ea54a7db6fc62cf4f4cb1856e" target="_top" xlink:title="open_error">
<polygon fill="white" stroke="black" points="115,-0.5 115,-19.5 177,-19.5 177,-0.5 115,-0.5"/>
<text text-anchor="middle" x="146" y="-7.5" font-family="Helvetica,sans-Serif" font-size="10.00">open_error</text>
</a>
</g>
</g>
<!-- Node1&#45;&gt;Node8 -->
<g id="edge7" class="edge"><title>Node1&#45;&gt;Node8</title>
<path fill="none" stroke="midnightblue" d="M61.6894,-30.6433C74.8442,-27.3837 90.5231,-23.4987 104.712,-19.9829"/>
<polygon fill="midnightblue" stroke="midnightblue" points="105.858,-23.3048 114.723,-17.5023 104.174,-16.5103 105.858,-23.3048"/>
</g>
<!-- Node3 -->
<g id="node3" class="node"><title>Node3</title>
<g id="a_node3"><a xlink:href="main_8c.html#aee28fd8a0e40b6d958f7d20348e45368" target="_top" xlink:title="getenv">
<polygon fill="white" stroke="black" points="237,-133.5 237,-152.5 283,-152.5 283,-133.5 237,-133.5"/>
<text text-anchor="middle" x="260" y="-140.5" font-family="Helvetica,sans-Serif" font-size="10.00">getenv</text>
</a>
</g>
</g>
<!-- Node2&#45;&gt;Node3 -->
<g id="edge2" class="edge"><title>Node2&#45;&gt;Node3</title>
<path fill="none" stroke="midnightblue" d="M160.742,-76.5726C177.153,-87.9728 205.467,-107.542 230,-124 231.868,-125.253 233.809,-126.546 235.761,-127.839"/>
<polygon fill="midnightblue" stroke="midnightblue" points="233.928,-130.822 244.206,-133.396 237.777,-124.975 233.928,-130.822"/>
</g>
<!-- Node4 -->
<g id="node4" class="node"><title>Node4</title>
<g id="a_node4"><a xlink:href="main_8c.html#ac31a368bfe3ea363e428c0a5b6f88c6d" target="_top" xlink:title="mktemp">
<polygon fill="white" stroke="black" points="234,-95.5 234,-114.5 286,-114.5 286,-95.5 234,-95.5"/>
<text text-anchor="middle" x="260" y="-102.5" font-family="Helvetica,sans-Serif" font-size="10.00">mktemp</text>
</a>
</g>
</g>
<!-- Node2&#45;&gt;Node4 -->
<g id="edge3" class="edge"><title>Node2&#45;&gt;Node4</title>
<path fill="none" stroke="midnightblue" d="M175.262,-76.589C190.04,-81.603 208.266,-87.7868 223.937,-93.1036"/>
<polygon fill="midnightblue" stroke="midnightblue" points="223.21,-96.5527 233.804,-96.4513 225.459,-89.9239 223.21,-96.5527"/>
</g>
<!-- Node5 -->
<g id="node5" class="node"><title>Node5</title>
<g id="a_node5"><a xlink:href="group__eh.html#ga03b3d711852aa32c4076f12ea7bb93a4" target="_top" xlink:title="no_space">
<polygon fill="white" stroke="black" points="230.5,-57.5 230.5,-76.5 289.5,-76.5 289.5,-57.5 230.5,-57.5"/>
<text text-anchor="middle" x="260" y="-64.5" font-family="Helvetica,sans-Serif" font-size="10.00">no_space</text>
</a>
</g>
</g>
<!-- Node2&#45;&gt;Node5 -->
<g id="edge4" class="edge"><title>Node2&#45;&gt;Node5</title>
<path fill="none" stroke="midnightblue" d="M194.173,-67C202.833,-67 211.781,-67 220.161,-67"/>
<polygon fill="midnightblue" stroke="midnightblue" points="220.408,-70.5001 230.408,-67 220.408,-63.5001 220.408,-70.5001"/>
</g>
<!-- Node7 -->
<g id="node7" class="node"><title>Node7</title>
<g id="a_node7"><a xlink:href="defs_8h.html#add539a5755e4c4070b0c8ca97477fe47" target="_top" xlink:title="strcpy">
<polygon fill="white" stroke="black" points="238,-19.5 238,-38.5 282,-38.5 282,-19.5 238,-19.5"/>
<text text-anchor="middle" x="260" y="-26.5" font-family="Helvetica,sans-Serif" font-size="10.00">strcpy</text>
</a>
</g>
</g>
<!-- Node2&#45;&gt;Node7 -->
<g id="edge6" class="edge"><title>Node2&#45;&gt;Node7</title>
<path fill="none" stroke="midnightblue" d="M175.262,-57.411C191.362,-51.9487 211.553,-45.098 228.075,-39.4924"/>
<polygon fill="midnightblue" stroke="midnightblue" points="229.473,-42.7141 237.818,-36.1866 227.224,-36.0852 229.473,-42.7141"/>
</g>
<!-- Node6 -->
<g id="node6" class="node"><title>Node6</title>
<g id="a_node6"><a xlink:href="group__eh.html#ga67b6b9fd02aac96bef4297b1e6a1789a" target="_top" xlink:title="Shutdown function. ">
<polygon fill="white" stroke="black" points="326,-19.5 326,-38.5 364,-38.5 364,-19.5 326,-19.5"/>
<text text-anchor="middle" x="345" y="-26.5" font-family="Helvetica,sans-Serif" font-size="10.00">done</text>
</a>
</g>
</g>
<!-- Node5&#45;&gt;Node6 -->
<g id="edge5" class="edge"><title>Node5&#45;&gt;Node6</title>
<path fill="none" stroke="midnightblue" d="M281.944,-57.411C292.419,-52.6155 305.23,-46.7499 316.487,-41.5962"/>
<polygon fill="midnightblue" stroke="midnightblue" points="318.246,-44.6404 325.881,-37.2952 315.332,-38.2757 318.246,-44.6404"/>
</g>
<!-- Node8&#45;&gt;Node6 -->
<g id="edge8" class="edge"><title>Node8&#45;&gt;Node6</title>
<path fill="none" stroke="midnightblue" d="M177.101,-7.07627C206.212,-4.93418 251.457,-3.41701 290,-10 298.776,-11.4988 308.021,-14.2751 316.334,-17.2513"/>
<polygon fill="midnightblue" stroke="midnightblue" points="315.326,-20.6126 325.917,-20.9083 317.822,-14.0727 315.326,-20.6126"/>
</g>
</g>
</svg>
