<?xml version="1.0" encoding="UTF-8" standalone="no"?>
<!DOCTYPE svg PUBLIC "-//W3C//DTD SVG 1.1//EN"
 "http://www.w3.org/Graphics/SVG/1.1/DTD/svg11.dtd">
<!-- Generated by graphviz version 2.36.0 (20140111.2315)
 -->
<!-- Title: main Pages: 1 -->
<svg width="382pt" height="542pt"
 viewBox="0.00 0.00 382.00 541.58" xmlns="http://www.w3.org/2000/svg" xmlns:xlink="http://www.w3.org/1999/xlink">
<g id="graph0" class="graph" transform="scale(1 1) rotate(0) translate(4 537.577)">
<title>main</title>
<polygon fill="white" stroke="none" points="-4,4 -4,-537.577 378,-537.577 378,4 -4,4"/>
<!-- Node1 -->
<g id="node1" class="node"><title>Node1</title>
<polygon fill="#bfbfbf" stroke="black" points="0,-171.5 0,-190.5 38,-190.5 38,-171.5 0,-171.5"/>
<text text-anchor="middle" x="19" y="-178.5" font-family="Helvetica,sans-Serif" font-size="10.00">main</text>
</g>
<!-- Node2 -->
<g id="node2" class="node"><title>Node2</title>
<g id="a_node2"><a xlink:href="main_8c.html#a67b6b9fd02aac96bef4297b1e6a1789a" target="_top" xlink:title="done">
<polygon fill="white" stroke="black" points="336,-494.5 336,-513.5 374,-513.5 374,-494.5 336,-494.5"/>
<text text-anchor="middle" x="355" y="-501.5" font-family="Helvetica,sans-Serif" font-size="10.00">done</text>
</a>
</g>
</g>
<!-- Node1&#45;&gt;Node2 -->
<g id="edge1" class="edge"><title>Node1&#45;&gt;Node2</title>
<path fill="none" stroke="midnightblue" d="M19.9862,-190.752C20.3574,-225.586 25.2863,-346.147 74,-428 107.037,-483.511 123.457,-500.475 184,-523 232.32,-540.977 249.18,-531.68 300,-523 308.776,-521.501 318.021,-518.725 326.334,-515.749"/>
<polygon fill="midnightblue" stroke="midnightblue" points="327.822,-518.927 335.917,-512.092 325.326,-512.387 327.822,-518.927"/>
</g>
<!-- Node3 -->
<g id="node3" class="node"><title>Node3</title>
<g id="a_node3"><a xlink:href="main_8c.html#a37677b66995b6ad88eb083f3b9be8e6a" target="_top" xlink:title="getargs">
<polygon fill="white" stroke="black" points="86.5,-399.5 86.5,-418.5 135.5,-418.5 135.5,-399.5 86.5,-399.5"/>
<text text-anchor="middle" x="111" y="-406.5" font-family="Helvetica,sans-Serif" font-size="10.00">getargs</text>
</a>
</g>
</g>
<!-- Node1&#45;&gt;Node3 -->
<g id="edge2" class="edge"><title>Node1&#45;&gt;Node3</title>
<path fill="none" stroke="midnightblue" d="M23.7526,-190.507C37.3327,-224.909 84.0812,-343.339 102.478,-389.943"/>
<polygon fill="midnightblue" stroke="midnightblue" points="99.3041,-391.436 106.231,-399.453 105.815,-388.866 99.3041,-391.436"/>
</g>
<!-- Node5 -->
<g id="node5" class="node"><title>Node5</title>
<g id="a_node5"><a xlink:href="lalr_8c.html#aa70d90188d9b76b70e29c8f7e19dc92f" target="_top" xlink:title="lalr">
<polygon fill="white" stroke="black" points="96.5,-266.5 96.5,-285.5 125.5,-285.5 125.5,-266.5 96.5,-266.5"/>
<text text-anchor="middle" x="111" y="-273.5" font-family="Helvetica,sans-Serif" font-size="10.00">lalr</text>
</a>
</g>
</g>
<!-- Node1&#45;&gt;Node5 -->
<g id="edge4" class="edge"><title>Node1&#45;&gt;Node5</title>
<path fill="none" stroke="midnightblue" d="M25.0953,-190.997C33.5016,-206.7 51.5965,-237.377 74,-257 77.914,-260.428 82.5544,-263.456 87.1795,-266.03"/>
<polygon fill="midnightblue" stroke="midnightblue" points="85.9063,-269.307 96.4144,-270.66 89.0435,-263.05 85.9063,-269.307"/>
</g>
<!-- Node17 -->
<g id="node17" class="node"><title>Node17</title>
<g id="a_node17"><a xlink:href="lr0_8c.html#aec6ecb962126ab8e37fed166e9416bce" target="_top" xlink:title="lr0">
<polygon fill="white" stroke="red" points="96.5,-228.5 96.5,-247.5 125.5,-247.5 125.5,-228.5 96.5,-228.5"/>
<text text-anchor="middle" x="111" y="-235.5" font-family="Helvetica,sans-Serif" font-size="10.00">lr0</text>
</a>
</g>
</g>
<!-- Node1&#45;&gt;Node17 -->
<g id="edge17" class="edge"><title>Node1&#45;&gt;Node17</title>
<path fill="none" stroke="midnightblue" d="M32.5649,-190.531C43.3163,-198.518 59.3353,-210.021 74,-219 78.2942,-221.629 82.9868,-224.267 87.5232,-226.704"/>
<polygon fill="midnightblue" stroke="midnightblue" points="85.9539,-229.833 96.4382,-231.36 89.1943,-223.628 85.9539,-229.833"/>
</g>
<!-- Node20 -->
<g id="node20" class="node"><title>Node20</title>
<g id="a_node20"><a xlink:href="mkpar_8c.html#aec5c0fa32d9eede6064bd671c30777f5" target="_top" xlink:title="make_parser">
<polygon fill="white" stroke="red" points="74.5,-190.5 74.5,-209.5 147.5,-209.5 147.5,-190.5 74.5,-190.5"/>
<text text-anchor="middle" x="111" y="-197.5" font-family="Helvetica,sans-Serif" font-size="10.00">make_parser</text>
</a>
</g>
</g>
<!-- Node1&#45;&gt;Node20 -->
<g id="edge20" class="edge"><title>Node1&#45;&gt;Node20</title>
<path fill="none" stroke="midnightblue" d="M38.2128,-184.845C45.8323,-186.453 55.0628,-188.402 64.3311,-190.359"/>
<polygon fill="midnightblue" stroke="midnightblue" points="63.8213,-193.828 74.3286,-192.469 65.2673,-186.979 63.8213,-193.828"/>
</g>
<!-- Node21 -->
<g id="node21" class="node"><title>Node21</title>
<g id="a_node21"><a xlink:href="main_8c.html#a2a2d365d086e7a890bc2770b6a9c0f0f" target="_top" xlink:title="open_files">
<polygon fill="white" stroke="red" points="80.5,-152.5 80.5,-171.5 141.5,-171.5 141.5,-152.5 80.5,-152.5"/>
<text text-anchor="middle" x="111" y="-159.5" font-family="Helvetica,sans-Serif" font-size="10.00">open_files</text>
</a>
</g>
</g>
<!-- Node1&#45;&gt;Node21 -->
<g id="edge21" class="edge"><title>Node1&#45;&gt;Node21</title>
<path fill="none" stroke="midnightblue" d="M38.2128,-177.155C47.4936,-175.196 59.1645,-172.732 70.3826,-170.364"/>
<polygon fill="midnightblue" stroke="midnightblue" points="71.4147,-173.723 80.4761,-168.233 69.9688,-166.874 71.4147,-173.723"/>
</g>
<!-- Node22 -->
<g id="node22" class="node"><title>Node22</title>
<g id="a_node22"><a xlink:href="output_8c.html#a3939045b11b9aaefdf692feb963f0dfc" target="_top" xlink:title="output">
<polygon fill="white" stroke="red" points="89,-114.5 89,-133.5 133,-133.5 133,-114.5 89,-114.5"/>
<text text-anchor="middle" x="111" y="-121.5" font-family="Helvetica,sans-Serif" font-size="10.00">output</text>
</a>
</g>
</g>
<!-- Node1&#45;&gt;Node22 -->
<g id="edge22" class="edge"><title>Node1&#45;&gt;Node22</title>
<path fill="none" stroke="midnightblue" d="M32.5649,-171.469C43.3163,-163.482 59.3353,-151.979 74,-143 76.4861,-141.478 79.1058,-139.953 81.7513,-138.465"/>
<polygon fill="midnightblue" stroke="midnightblue" points="83.5714,-141.46 90.6896,-133.612 80.2313,-135.308 83.5714,-141.46"/>
</g>
<!-- Node23 -->
<g id="node23" class="node"><title>Node23</title>
<g id="a_node23"><a xlink:href="reader_8c.html#a3351a985e2d992eea6ed332cc837ad5b" target="_top" xlink:title="reader">
<polygon fill="white" stroke="red" points="89,-76.5 89,-95.5 133,-95.5 133,-76.5 89,-76.5"/>
<text text-anchor="middle" x="111" y="-83.5" font-family="Helvetica,sans-Serif" font-size="10.00">reader</text>
</a>
</g>
</g>
<!-- Node1&#45;&gt;Node23 -->
<g id="edge23" class="edge"><title>Node1&#45;&gt;Node23</title>
<path fill="none" stroke="midnightblue" d="M25.0953,-171.003C33.5016,-155.3 51.5965,-124.623 74,-105 75.9072,-103.33 77.9868,-101.754 80.1531,-100.28"/>
<polygon fill="midnightblue" stroke="midnightblue" points="81.9884,-103.26 88.7562,-95.1089 78.3822,-97.2608 81.9884,-103.26"/>
</g>
<!-- Node24 -->
<g id="node24" class="node"><title>Node24</title>
<g id="a_node24"><a xlink:href="main_8c.html#ac769b3ff8cee5f62e69fb29097d21158" target="_top" xlink:title="set_signals">
<polygon fill="white" stroke="red" points="78,-38.5 78,-57.5 144,-57.5 144,-38.5 78,-38.5"/>
<text text-anchor="middle" x="111" y="-45.5" font-family="Helvetica,sans-Serif" font-size="10.00">set_signals</text>
</a>
</g>
</g>
<!-- Node1&#45;&gt;Node24 -->
<g id="edge24" class="edge"><title>Node1&#45;&gt;Node24</title>
<path fill="none" stroke="midnightblue" d="M22.3561,-171.243C27.9469,-149.902 43.8574,-98.4752 74,-67 75.2098,-65.7367 76.5221,-64.5402 77.9059,-63.4092"/>
<polygon fill="midnightblue" stroke="midnightblue" points="80.0909,-66.1561 86.3954,-57.6412 76.157,-60.366 80.0909,-66.1561"/>
</g>
<!-- Node25 -->
<g id="node25" class="node"><title>Node25</title>
<g id="a_node25"><a xlink:href="verbose_8c.html#a51c39b5f33bea9632e037e0b94fa0db8" target="_top" xlink:title="verbose">
<polygon fill="white" stroke="red" points="85.5,-0.5 85.5,-19.5 136.5,-19.5 136.5,-0.5 85.5,-0.5"/>
<text text-anchor="middle" x="111" y="-7.5" font-family="Helvetica,sans-Serif" font-size="10.00">verbose</text>
</a>
</g>
</g>
<!-- Node1&#45;&gt;Node25 -->
<g id="edge25" class="edge"><title>Node1&#45;&gt;Node25</title>
<path fill="none" stroke="midnightblue" d="M21.0089,-171.244C24.1734,-145.163 36.07,-72.8384 74,-29 75.0115,-27.8309 76.113,-26.7229 77.2817,-25.6741"/>
<polygon fill="midnightblue" stroke="midnightblue" points="79.6598,-28.2747 85.729,-19.5905 75.5689,-22.5944 79.6598,-28.2747"/>
</g>
<!-- Node4 -->
<g id="node4" class="node"><title>Node4</title>
<g id="a_node4"><a xlink:href="main_8c.html#afe55eae96aed06d16232a3b56fcf1ad3" target="_top" xlink:title="usage">
<polygon fill="white" stroke="black" points="220.5,-494.5 220.5,-513.5 263.5,-513.5 263.5,-494.5 220.5,-494.5"/>
<text text-anchor="middle" x="242" y="-501.5" font-family="Helvetica,sans-Serif" font-size="10.00">usage</text>
</a>
</g>
</g>
<!-- Node3&#45;&gt;Node4 -->
<g id="edge3" class="edge"><title>Node3&#45;&gt;Node4</title>
<path fill="none" stroke="midnightblue" d="M118.624,-418.608C130.128,-434.606 155.332,-466.743 184,-485 192.055,-490.13 201.638,-494.02 210.626,-496.902"/>
<polygon fill="midnightblue" stroke="midnightblue" points="209.829,-500.315 220.408,-499.739 211.779,-493.592 209.829,-500.315"/>
</g>
<!-- Node6 -->
<g id="node6" class="node"><title>Node6</title>
<g id="a_node6"><a xlink:href="lalr_8c.html#a0a930e748b6863b16e0521247533842e" target="_top" xlink:title="build_relations">
<polygon fill="white" stroke="red" points="202.5,-456.5 202.5,-475.5 281.5,-475.5 281.5,-456.5 202.5,-456.5"/>
<text text-anchor="middle" x="242" y="-463.5" font-family="Helvetica,sans-Serif" font-size="10.00">build_relations</text>
</a>
</g>
</g>
<!-- Node5&#45;&gt;Node6 -->
<g id="edge5" class="edge"><title>Node5&#45;&gt;Node6</title>
<path fill="none" stroke="midnightblue" d="M114.994,-285.943C125.077,-318.851 158.593,-423.472 184,-447 186.765,-449.56 189.884,-451.776 193.204,-453.694"/>
<polygon fill="midnightblue" stroke="midnightblue" points="191.822,-456.914 202.349,-458.107 194.863,-450.609 191.822,-456.914"/>
</g>
<!-- Node7 -->
<g id="node7" class="node"><title>Node7</title>
<g id="a_node7"><a xlink:href="lalr_8c.html#a549587ac9636a2e338da2df1df852802" target="_top" xlink:title="compute_FOLLOWS">
<polygon fill="white" stroke="red" points="188.5,-418.5 188.5,-437.5 295.5,-437.5 295.5,-418.5 188.5,-418.5"/>
<text text-anchor="middle" x="242" y="-425.5" font-family="Helvetica,sans-Serif" font-size="10.00">compute_FOLLOWS</text>
</a>
</g>
</g>
<!-- Node5&#45;&gt;Node7 -->
<g id="edge7" class="edge"><title>Node5&#45;&gt;Node7</title>
<path fill="none" stroke="midnightblue" d="M114.525,-285.613C121.402,-309.927 142.769,-374.399 184,-409 186.028,-410.701 188.213,-412.252 190.506,-413.666"/>
<polygon fill="midnightblue" stroke="midnightblue" points="189.279,-416.972 199.769,-418.463 192.499,-410.756 189.279,-416.972"/>
</g>
<!-- Node8 -->
<g id="node8" class="node"><title>Node8</title>
<g id="a_node8"><a xlink:href="lalr_8c.html#a103fc18951240fa5978060b77c7a04bb" target="_top" xlink:title="compute_lookaheads">
<polygon fill="white" stroke="black" points="187.5,-380.5 187.5,-399.5 296.5,-399.5 296.5,-380.5 187.5,-380.5"/>
<text text-anchor="middle" x="242" y="-387.5" font-family="Helvetica,sans-Serif" font-size="10.00">compute_lookaheads</text>
</a>
</g>
</g>
<!-- Node5&#45;&gt;Node8 -->
<g id="edge8" class="edge"><title>Node5&#45;&gt;Node8</title>
<path fill="none" stroke="midnightblue" d="M116.729,-285.606C126.595,-304.674 151.203,-347.487 184,-371 186.67,-372.915 189.547,-374.646 192.538,-376.209"/>
<polygon fill="midnightblue" stroke="midnightblue" points="191.213,-379.452 201.764,-380.415 194.116,-373.082 191.213,-379.452"/>
</g>
<!-- Node9 -->
<g id="node9" class="node"><title>Node9</title>
<g id="a_node9"><a xlink:href="lalr_8c.html#a6c91f5faa72becd25b25708e2ca97649" target="_top" xlink:title="initialize_F">
<polygon fill="white" stroke="red" points="210.5,-342.5 210.5,-361.5 273.5,-361.5 273.5,-342.5 210.5,-342.5"/>
<text text-anchor="middle" x="242" y="-349.5" font-family="Helvetica,sans-Serif" font-size="10.00">initialize_F</text>
</a>
</g>
</g>
<!-- Node5&#45;&gt;Node9 -->
<g id="edge9" class="edge"><title>Node5&#45;&gt;Node9</title>
<path fill="none" stroke="midnightblue" d="M121.918,-285.737C135.105,-298.215 159.598,-319.805 184,-333 189.232,-335.829 194.96,-338.34 200.705,-340.535"/>
<polygon fill="midnightblue" stroke="midnightblue" points="199.708,-343.895 210.303,-343.93 202.043,-337.295 199.708,-343.895"/>
</g>
<!-- Node10 -->
<g id="node10" class="node"><title>Node10</title>
<g id="a_node10"><a xlink:href="lalr_8c.html#a8d038bf14a91cab7082013e7b046a023" target="_top" xlink:title="initialize_LA">
<polygon fill="white" stroke="black" points="207.5,-304.5 207.5,-323.5 276.5,-323.5 276.5,-304.5 207.5,-304.5"/>
<text text-anchor="middle" x="242" y="-311.5" font-family="Helvetica,sans-Serif" font-size="10.00">initialize_LA</text>
</a>
</g>
</g>
<!-- Node5&#45;&gt;Node10 -->
<g id="edge10" class="edge"><title>Node5&#45;&gt;Node10</title>
<path fill="none" stroke="midnightblue" d="M125.805,-280.067C143.134,-285.171 173.651,-294.161 198.923,-301.605"/>
<polygon fill="midnightblue" stroke="midnightblue" points="198.085,-305.007 208.666,-304.475 200.063,-298.292 198.085,-305.007"/>
</g>
<!-- Node11 -->
<g id="node11" class="node"><title>Node11</title>
<g id="a_node11"><a xlink:href="lalr_8c.html#af40b4ca0e2ac0c861650887f53cd8473" target="_top" xlink:title="set_accessing_symbol">
<polygon fill="white" stroke="black" points="184,-266.5 184,-285.5 300,-285.5 300,-266.5 184,-266.5"/>
<text text-anchor="middle" x="242" y="-273.5" font-family="Helvetica,sans-Serif" font-size="10.00">set_accessing_symbol</text>
</a>
</g>
</g>
<!-- Node5&#45;&gt;Node11 -->
<g id="edge11" class="edge"><title>Node5&#45;&gt;Node11</title>
<path fill="none" stroke="midnightblue" d="M125.805,-276C137.596,-276 155.493,-276 173.688,-276"/>
<polygon fill="midnightblue" stroke="midnightblue" points="173.791,-279.5 183.791,-276 173.791,-272.5 173.791,-279.5"/>
</g>
<!-- Node12 -->
<g id="node12" class="node"><title>Node12</title>
<g id="a_node12"><a xlink:href="lalr_8c.html#ae8c3ccdf05c8529dad837c3a51a13fbd" target="_top" xlink:title="set_goto_map">
<polygon fill="white" stroke="red" points="203,-228.5 203,-247.5 281,-247.5 281,-228.5 203,-228.5"/>
<text text-anchor="middle" x="242" y="-235.5" font-family="Helvetica,sans-Serif" font-size="10.00">set_goto_map</text>
</a>
</g>
</g>
<!-- Node5&#45;&gt;Node12 -->
<g id="edge12" class="edge"><title>Node5&#45;&gt;Node12</title>
<path fill="none" stroke="midnightblue" d="M125.805,-271.933C143.134,-266.829 173.651,-257.839 198.923,-250.395"/>
<polygon fill="midnightblue" stroke="midnightblue" points="200.063,-253.708 208.666,-247.525 198.085,-246.993 200.063,-253.708"/>
</g>
<!-- Node13 -->
<g id="node13" class="node"><title>Node13</title>
<g id="a_node13"><a xlink:href="lalr_8c.html#a107978079d3d88b0053b49ec52927803" target="_top" xlink:title="set_maxrhs">
<polygon fill="white" stroke="black" points="208,-190.5 208,-209.5 276,-209.5 276,-190.5 208,-190.5"/>
<text text-anchor="middle" x="242" y="-197.5" font-family="Helvetica,sans-Serif" font-size="10.00">set_maxrhs</text>
</a>
</g>
</g>
<!-- Node5&#45;&gt;Node13 -->
<g id="edge13" class="edge"><title>Node5&#45;&gt;Node13</title>
<path fill="none" stroke="midnightblue" d="M125.619,-270.116C132.633,-266.77 141.131,-262.211 148,-257 166.534,-242.939 164.377,-231.497 184,-219 188.396,-216.2 193.248,-213.769 198.21,-211.67"/>
<polygon fill="midnightblue" stroke="midnightblue" points="199.689,-214.853 207.797,-208.033 197.206,-208.308 199.689,-214.853"/>
</g>
<!-- Node14 -->
<g id="node14" class="node"><title>Node14</title>
<g id="a_node14"><a xlink:href="lalr_8c.html#abfd5c21537a4f473773c2d25803bc919" target="_top" xlink:title="set_reduction_table">
<polygon fill="white" stroke="black" points="191.5,-152.5 191.5,-171.5 292.5,-171.5 292.5,-152.5 191.5,-152.5"/>
<text text-anchor="middle" x="242" y="-159.5" font-family="Helvetica,sans-Serif" font-size="10.00">set_reduction_table</text>
</a>
</g>
</g>
<!-- Node5&#45;&gt;Node14 -->
<g id="edge14" class="edge"><title>Node5&#45;&gt;Node14</title>
<path fill="none" stroke="midnightblue" d="M125.657,-271.253C133.024,-268.134 141.841,-263.431 148,-257 173.851,-230.006 156.026,-205.788 184,-181 185.913,-179.305 187.981,-177.761 190.159,-176.353"/>
<polygon fill="midnightblue" stroke="midnightblue" points="191.862,-179.411 198.995,-171.577 188.533,-173.253 191.862,-179.411"/>
</g>
<!-- Node15 -->
<g id="node15" class="node"><title>Node15</title>
<g id="a_node15"><a xlink:href="lalr_8c.html#a6613d689596e2f81d6093379459a29c7" target="_top" xlink:title="set_shift_table">
<polygon fill="white" stroke="black" points="202,-114.5 202,-133.5 282,-133.5 282,-114.5 202,-114.5"/>
<text text-anchor="middle" x="242" y="-121.5" font-family="Helvetica,sans-Serif" font-size="10.00">set_shift_table</text>
</a>
</g>
</g>
<!-- Node5&#45;&gt;Node15 -->
<g id="edge15" class="edge"><title>Node5&#45;&gt;Node15</title>
<path fill="none" stroke="midnightblue" d="M125.653,-271.708C133.204,-268.695 142.204,-263.945 148,-257 182.047,-216.209 146.729,-180.868 184,-143 186.643,-140.314 189.676,-138.008 192.935,-136.028"/>
<polygon fill="midnightblue" stroke="midnightblue" points="194.596,-139.111 201.979,-131.511 191.469,-132.848 194.596,-139.111"/>
</g>
<!-- Node16 -->
<g id="node16" class="node"><title>Node16</title>
<g id="a_node16"><a xlink:href="lalr_8c.html#a273192077c200e39adede06c9ab36310" target="_top" xlink:title="set_state_table">
<polygon fill="white" stroke="black" points="200.5,-76.5 200.5,-95.5 283.5,-95.5 283.5,-76.5 200.5,-76.5"/>
<text text-anchor="middle" x="242" y="-83.5" font-family="Helvetica,sans-Serif" font-size="10.00">set_state_table</text>
</a>
</g>
</g>
<!-- Node5&#45;&gt;Node16 -->
<g id="edge16" class="edge"><title>Node5&#45;&gt;Node16</title>
<path fill="none" stroke="midnightblue" d="M125.846,-271.864C133.462,-268.902 142.462,-264.152 148,-257 190.503,-202.107 137.147,-156.23 184,-105 186.148,-102.651 188.594,-100.592 191.236,-98.7875"/>
<polygon fill="midnightblue" stroke="midnightblue" points="193.145,-101.732 200.219,-93.8455 189.771,-95.5993 193.145,-101.732"/>
</g>
<!-- Node6&#45;&gt;Node2 -->
<g id="edge6" class="edge"><title>Node6&#45;&gt;Node2</title>
<path fill="none" stroke="midnightblue" d="M272.029,-475.573C281.006,-478.561 290.921,-481.89 300,-485 308.422,-487.885 317.562,-491.078 325.886,-494.009"/>
<polygon fill="midnightblue" stroke="midnightblue" points="324.937,-497.386 335.532,-497.417 327.269,-490.785 324.937,-497.386"/>
</g>
<!-- Node18 -->
<g id="node18" class="node"><title>Node18</title>
<g id="a_node18"><a xlink:href="lr0_8c.html#a81209dc209ca0c6fb2a5e74bd98c02c7" target="_top" xlink:title="generate_states">
<polygon fill="white" stroke="red" points="199,-38.5 199,-57.5 285,-57.5 285,-38.5 199,-38.5"/>
<text text-anchor="middle" x="242" y="-45.5" font-family="Helvetica,sans-Serif" font-size="10.00">generate_states</text>
</a>
</g>
</g>
<!-- Node17&#45;&gt;Node18 -->
<g id="edge18" class="edge"><title>Node17&#45;&gt;Node18</title>
<path fill="none" stroke="midnightblue" d="M125.846,-233.864C133.462,-230.902 142.462,-226.152 148,-219 190.503,-164.107 137.147,-118.23 184,-67 185.786,-65.0468 187.779,-63.2941 189.918,-61.7214"/>
<polygon fill="midnightblue" stroke="midnightblue" points="191.938,-64.5939 198.779,-56.504 188.386,-58.5619 191.938,-64.5939"/>
</g>
<!-- Node19 -->
<g id="node19" class="node"><title>Node19</title>
<g id="a_node19"><a xlink:href="lr0_8c.html#a14abbd74cb1252df41fb49de4993b79e" target="_top" xlink:title="set_derives">
<polygon fill="white" stroke="black" points="208.5,-0.5 208.5,-19.5 275.5,-19.5 275.5,-0.5 208.5,-0.5"/>
<text text-anchor="middle" x="242" y="-7.5" font-family="Helvetica,sans-Serif" font-size="10.00">set_derives</text>
</a>
</g>
</g>
<!-- Node17&#45;&gt;Node19 -->
<g id="edge19" class="edge"><title>Node17&#45;&gt;Node19</title>
<path fill="none" stroke="midnightblue" d="M125.611,-234.093C133.343,-231.174 142.541,-226.39 148,-219 199.066,-149.869 127.448,-93.7201 184,-29 188.001,-24.4208 193.136,-20.9419 198.681,-18.2997"/>
<polygon fill="midnightblue" stroke="midnightblue" points="200.203,-21.4637 208.271,-14.5962 197.681,-14.9337 200.203,-21.4637"/>
</g>
</g>
</svg>
