<?xml version="1.0" encoding="UTF-8" standalone="no"?>
<!DOCTYPE svg PUBLIC "-//W3C//DTD SVG 1.1//EN"
 "http://www.w3.org/Graphics/SVG/1.1/DTD/svg11.dtd">
<!-- Generated by graphviz version 2.36.0 (20140111.2315)
 -->
<!-- Title: getenv Pages: 1 -->
<svg width="358pt" height="28pt"
 viewBox="0.00 0.00 358.00 28.00" xmlns="http://www.w3.org/2000/svg" xmlns:xlink="http://www.w3.org/1999/xlink">
<g id="graph0" class="graph" transform="scale(1 1) rotate(0) translate(4 24)">
<title>getenv</title>
<polygon fill="white" stroke="none" points="-4,4 -4,-24 354,-24 354,4 -4,4"/>
<!-- Node1 -->
<g id="node1" class="node"><title>Node1</title>
<polygon fill="#bfbfbf" stroke="black" points="0,-0.5 0,-19.5 46,-19.5 46,-0.5 0,-0.5"/>
<text text-anchor="middle" x="23" y="-7.5" font-family="Helvetica,sans-Serif" font-size="10.00">getenv</text>
</g>
<!-- Node2 -->
<g id="node2" class="node"><title>Node2</title>
<g id="a_node2"><a xlink:href="main_8c.html#a8424435403fe377f38d43b7bdda78ac3" target="_top" xlink:title="create_file_names">
<polygon fill="white" stroke="black" points="82,-0.5 82,-19.5 178,-19.5 178,-0.5 82,-0.5"/>
<text text-anchor="middle" x="130" y="-7.5" font-family="Helvetica,sans-Serif" font-size="10.00">create_file_names</text>
</a>
</g>
</g>
<!-- Node1&#45;&gt;Node2 -->
<g id="edge1" class="edge"><title>Node1&#45;&gt;Node2</title>
<path fill="none" stroke="midnightblue" d="M56.1827,-10C64.3194,-10 73.2259,-10 81.9311,-10"/>
<polygon fill="midnightblue" stroke="midnightblue" points="56.0115,-6.5001 46.0114,-10 56.0114,-13.5001 56.0115,-6.5001"/>
</g>
<!-- Node3 -->
<g id="node3" class="node"><title>Node3</title>
<g id="a_node3"><a xlink:href="main_8c.html#a2a2d365d086e7a890bc2770b6a9c0f0f" target="_top" xlink:title="open_files">
<polygon fill="white" stroke="black" points="214.5,-0.5 214.5,-19.5 275.5,-19.5 275.5,-0.5 214.5,-0.5"/>
<text text-anchor="middle" x="245" y="-7.5" font-family="Helvetica,sans-Serif" font-size="10.00">open_files</text>
</a>
</g>
</g>
<!-- Node2&#45;&gt;Node3 -->
<g id="edge2" class="edge"><title>Node2&#45;&gt;Node3</title>
<path fill="none" stroke="midnightblue" d="M188.373,-10C197.356,-10 206.309,-10 214.324,-10"/>
<polygon fill="midnightblue" stroke="midnightblue" points="188.267,-6.5001 178.267,-10 188.267,-13.5001 188.267,-6.5001"/>
</g>
<!-- Node4 -->
<g id="node4" class="node"><title>Node4</title>
<g id="a_node4"><a xlink:href="main_8c.html#afced8478b91af5c169926dfa4426333d" target="_top" xlink:title="main">
<polygon fill="white" stroke="black" points="312,-0.5 312,-19.5 350,-19.5 350,-0.5 312,-0.5"/>
<text text-anchor="middle" x="331" y="-7.5" font-family="Helvetica,sans-Serif" font-size="10.00">main</text>
</a>
</g>
</g>
<!-- Node3&#45;&gt;Node4 -->
<g id="edge3" class="edge"><title>Node3&#45;&gt;Node4</title>
<path fill="none" stroke="midnightblue" d="M285.992,-10C295.101,-10 304.337,-10 311.98,-10"/>
<polygon fill="midnightblue" stroke="midnightblue" points="285.852,-6.5001 275.852,-10 285.852,-13.5001 285.852,-6.5001"/>
</g>
</g>
</svg>
