<?xml version="1.0" encoding="UTF-8" standalone="no"?>
<!DOCTYPE svg PUBLIC "-//W3C//DTD SVG 1.1//EN"
 "http://www.w3.org/Graphics/SVG/1.1/DTD/svg11.dtd">
<!-- Generated by graphviz version 2.36.0 (20140111.2315)
 -->
<!-- Title: sole_reduction Pages: 1 -->
<svg width="358pt" height="28pt"
 viewBox="0.00 0.00 358.00 28.00" xmlns="http://www.w3.org/2000/svg" xmlns:xlink="http://www.w3.org/1999/xlink">
<g id="graph0" class="graph" transform="scale(1 1) rotate(0) translate(4 24)">
<title>sole_reduction</title>
<polygon fill="white" stroke="none" points="-4,4 -4,-24 354,-24 354,4 -4,4"/>
<!-- Node1 -->
<g id="node1" class="node"><title>Node1</title>
<polygon fill="#bfbfbf" stroke="black" points="0,-0.5 0,-19.5 80,-19.5 80,-0.5 0,-0.5"/>
<text text-anchor="middle" x="40" y="-7.5" font-family="Helvetica,sans-Serif" font-size="10.00">sole_reduction</text>
</g>
<!-- Node2 -->
<g id="node2" class="node"><title>Node2</title>
<g id="a_node2"><a xlink:href="mkpar_8c.html#a3f253df6f106f6a619f439956ecce462" target="_top" xlink:title="defreds">
<polygon fill="white" stroke="black" points="116.5,-0.5 116.5,-19.5 165.5,-19.5 165.5,-0.5 116.5,-0.5"/>
<text text-anchor="middle" x="141" y="-7.5" font-family="Helvetica,sans-Serif" font-size="10.00">defreds</text>
</a>
</g>
</g>
<!-- Node1&#45;&gt;Node2 -->
<g id="edge1" class="edge"><title>Node1&#45;&gt;Node2</title>
<path fill="none" stroke="midnightblue" d="M90.2806,-10C99.3343,-10 108.398,-10 116.259,-10"/>
<polygon fill="midnightblue" stroke="midnightblue" points="90.1275,-6.5001 80.1274,-10 90.1274,-13.5001 90.1275,-6.5001"/>
</g>
<!-- Node3 -->
<g id="node3" class="node"><title>Node3</title>
<g id="a_node3"><a xlink:href="mkpar_8c.html#aec5c0fa32d9eede6064bd671c30777f5" target="_top" xlink:title="make_parser">
<polygon fill="white" stroke="black" points="202.5,-0.5 202.5,-19.5 275.5,-19.5 275.5,-0.5 202.5,-0.5"/>
<text text-anchor="middle" x="239" y="-7.5" font-family="Helvetica,sans-Serif" font-size="10.00">make_parser</text>
</a>
</g>
</g>
<!-- Node2&#45;&gt;Node3 -->
<g id="edge2" class="edge"><title>Node2&#45;&gt;Node3</title>
<path fill="none" stroke="midnightblue" d="M175.759,-10C184.319,-10 193.543,-10 202.2,-10"/>
<polygon fill="midnightblue" stroke="midnightblue" points="175.73,-6.5001 165.73,-10 175.73,-13.5001 175.73,-6.5001"/>
</g>
<!-- Node4 -->
<g id="node4" class="node"><title>Node4</title>
<g id="a_node4"><a xlink:href="main_8c.html#afced8478b91af5c169926dfa4426333d" target="_top" xlink:title="main">
<polygon fill="white" stroke="black" points="312,-0.5 312,-19.5 350,-19.5 350,-0.5 312,-0.5"/>
<text text-anchor="middle" x="331" y="-7.5" font-family="Helvetica,sans-Serif" font-size="10.00">main</text>
</a>
</g>
</g>
<!-- Node3&#45;&gt;Node4 -->
<g id="edge3" class="edge"><title>Node3&#45;&gt;Node4</title>
<path fill="none" stroke="midnightblue" d="M285.574,-10C294.849,-10 304.092,-10 311.726,-10"/>
<polygon fill="midnightblue" stroke="midnightblue" points="285.57,-6.5001 275.57,-10 285.57,-13.5001 285.57,-6.5001"/>
</g>
</g>
</svg>
