<?xml version="1.0" encoding="UTF-8" standalone="no"?>
<!DOCTYPE svg PUBLIC "-//W3C//DTD SVG 1.1//EN"
 "http://www.w3.org/Graphics/SVG/1.1/DTD/svg11.dtd">
<!-- Generated by graphviz version 2.36.0 (20140111.2315)
 -->
<!-- Title: parse_actions Pages: 1 -->
<svg width="206pt" height="66pt"
 viewBox="0.00 0.00 206.00 66.00" xmlns="http://www.w3.org/2000/svg" xmlns:xlink="http://www.w3.org/1999/xlink">
<g id="graph0" class="graph" transform="scale(1 1) rotate(0) translate(4 62)">
<title>parse_actions</title>
<polygon fill="white" stroke="none" points="-4,4 -4,-62 202,-62 202,4 -4,4"/>
<!-- Node1 -->
<g id="node1" class="node"><title>Node1</title>
<polygon fill="#bfbfbf" stroke="black" points="0.5,-19.5 0.5,-38.5 77.5,-38.5 77.5,-19.5 0.5,-19.5"/>
<text text-anchor="middle" x="39" y="-26.5" font-family="Helvetica,sans-Serif" font-size="10.00">parse_actions</text>
</g>
<!-- Node2 -->
<g id="node2" class="node"><title>Node2</title>
<g id="a_node2"><a xlink:href="mkpar_8c.html#ac4fd29fce9eb1c6f3668060a5cde270b" target="_top" xlink:title="add_reductions">
<polygon fill="white" stroke="black" points="114.5,-38.5 114.5,-57.5 197.5,-57.5 197.5,-38.5 114.5,-38.5"/>
<text text-anchor="middle" x="156" y="-45.5" font-family="Helvetica,sans-Serif" font-size="10.00">add_reductions</text>
</a>
</g>
</g>
<!-- Node1&#45;&gt;Node2 -->
<g id="edge1" class="edge"><title>Node1&#45;&gt;Node2</title>
<path fill="none" stroke="midnightblue" d="M77.6553,-35.2213C86.2222,-36.6367 95.459,-38.1628 104.464,-39.6507"/>
<polygon fill="midnightblue" stroke="midnightblue" points="104.049,-43.1294 114.486,-41.3063 105.19,-36.223 104.049,-43.1294"/>
</g>
<!-- Node3 -->
<g id="node3" class="node"><title>Node3</title>
<g id="a_node3"><a xlink:href="mkpar_8c.html#a839f2d4fe3eae6fc24d58a78fecaa11a" target="_top" xlink:title="get_shifts">
<polygon fill="white" stroke="black" points="126.5,-0.5 126.5,-19.5 185.5,-19.5 185.5,-0.5 126.5,-0.5"/>
<text text-anchor="middle" x="156" y="-7.5" font-family="Helvetica,sans-Serif" font-size="10.00">get_shifts</text>
</a>
</g>
</g>
<!-- Node1&#45;&gt;Node3 -->
<g id="edge2" class="edge"><title>Node1&#45;&gt;Node3</title>
<path fill="none" stroke="midnightblue" d="M77.6553,-22.7787C90.0399,-20.7325 103.825,-18.4551 116.286,-16.3961"/>
<polygon fill="midnightblue" stroke="midnightblue" points="117.088,-19.8113 126.384,-14.7279 115.947,-12.9049 117.088,-19.8113"/>
</g>
</g>
</svg>
