<?xml version="1.0" encoding="UTF-8" standalone="no"?>
<!DOCTYPE svg PUBLIC "-//W3C//DTD SVG 1.1//EN"
 "http://www.w3.org/Graphics/SVG/1.1/DTD/svg11.dtd">
<!-- Generated by graphviz version 2.36.0 (20140111.2315)
 -->
<!-- Title: make_parser Pages: 1 -->
<svg width="400pt" height="218pt"
 viewBox="0.00 0.00 400.00 218.00" xmlns="http://www.w3.org/2000/svg" xmlns:xlink="http://www.w3.org/1999/xlink">
<g id="graph0" class="graph" transform="scale(1 1) rotate(0) translate(4 214)">
<title>make_parser</title>
<polygon fill="white" stroke="none" points="-4,4 -4,-214 396,-214 396,4 -4,4"/>
<!-- Node1 -->
<g id="node1" class="node"><title>Node1</title>
<polygon fill="#bfbfbf" stroke="black" points="0.5,-95.5 0.5,-114.5 73.5,-114.5 73.5,-95.5 0.5,-95.5"/>
<text text-anchor="middle" x="37" y="-102.5" font-family="Helvetica,sans-Serif" font-size="10.00">make_parser</text>
</g>
<!-- Node2 -->
<g id="node2" class="node"><title>Node2</title>
<g id="a_node2"><a xlink:href="mkpar_8c.html#a3f253df6f106f6a619f439956ecce462" target="_top" xlink:title="defreds">
<polygon fill="white" stroke="black" points="131.5,-190.5 131.5,-209.5 180.5,-209.5 180.5,-190.5 131.5,-190.5"/>
<text text-anchor="middle" x="156" y="-197.5" font-family="Helvetica,sans-Serif" font-size="10.00">defreds</text>
</a>
</g>
</g>
<!-- Node1&#45;&gt;Node2 -->
<g id="edge1" class="edge"><title>Node1&#45;&gt;Node2</title>
<path fill="none" stroke="midnightblue" d="M44.9732,-114.621C56.7957,-130.35 82.213,-161.745 110,-181 113.707,-183.569 117.817,-185.891 122.001,-187.957"/>
<polygon fill="midnightblue" stroke="midnightblue" points="120.597,-191.163 131.154,-192.069 123.466,-184.778 120.597,-191.163"/>
</g>
<!-- Node4 -->
<g id="node4" class="node"><title>Node4</title>
<g id="a_node4"><a xlink:href="mkpar_8c.html#a7423356b0dcd3ec8c86b94cfad426e11" target="_top" xlink:title="find_final_state">
<polygon fill="white" stroke="black" points="114.5,-152.5 114.5,-171.5 197.5,-171.5 197.5,-152.5 114.5,-152.5"/>
<text text-anchor="middle" x="156" y="-159.5" font-family="Helvetica,sans-Serif" font-size="10.00">find_final_state</text>
</a>
</g>
</g>
<!-- Node1&#45;&gt;Node4 -->
<g id="edge3" class="edge"><title>Node1&#45;&gt;Node4</title>
<path fill="none" stroke="midnightblue" d="M55.2462,-114.639C69.7007,-122.588 90.9692,-133.981 110,-143 113.793,-144.798 117.802,-146.611 121.801,-148.366"/>
<polygon fill="midnightblue" stroke="midnightblue" points="120.44,-151.59 131.009,-152.321 123.203,-145.158 120.44,-151.59"/>
</g>
<!-- Node5 -->
<g id="node5" class="node"><title>Node5</title>
<g id="a_node5"><a xlink:href="mkpar_8c.html#acec1ac11401096ceec7870ea7416dda5" target="_top" xlink:title="parse_actions">
<polygon fill="white" stroke="black" points="117.5,-114.5 117.5,-133.5 194.5,-133.5 194.5,-114.5 117.5,-114.5"/>
<text text-anchor="middle" x="156" y="-121.5" font-family="Helvetica,sans-Serif" font-size="10.00">parse_actions</text>
</a>
</g>
</g>
<!-- Node1&#45;&gt;Node5 -->
<g id="edge4" class="edge"><title>Node1&#45;&gt;Node5</title>
<path fill="none" stroke="midnightblue" d="M73.7396,-110.804C84.3387,-112.525 96.1187,-114.438 107.346,-116.261"/>
<polygon fill="midnightblue" stroke="midnightblue" points="107.021,-119.754 117.452,-117.903 108.143,-112.845 107.021,-119.754"/>
</g>
<!-- Node6 -->
<g id="node6" class="node"><title>Node6</title>
<g id="a_node6"><a xlink:href="mkpar_8c.html#acc6262918280d450ced9ab943349fa86" target="_top" xlink:title="remove_conflicts">
<polygon fill="white" stroke="black" points="110.5,-76.5 110.5,-95.5 201.5,-95.5 201.5,-76.5 110.5,-76.5"/>
<text text-anchor="middle" x="156" y="-83.5" font-family="Helvetica,sans-Serif" font-size="10.00">remove_conflicts</text>
</a>
</g>
</g>
<!-- Node1&#45;&gt;Node6 -->
<g id="edge5" class="edge"><title>Node1&#45;&gt;Node6</title>
<path fill="none" stroke="midnightblue" d="M73.7396,-99.1961C82.1378,-97.8323 91.2774,-96.3481 100.296,-94.8835"/>
<polygon fill="midnightblue" stroke="midnightblue" points="101.072,-98.3035 110.381,-93.2458 99.9496,-91.394 101.072,-98.3035"/>
</g>
<!-- Node7 -->
<g id="node7" class="node"><title>Node7</title>
<g id="a_node7"><a xlink:href="mkpar_8c.html#acbfd668c89aecf8182694bd8f052ed47" target="_top" xlink:title="total_conflicts">
<polygon fill="white" stroke="black" points="117.5,-38.5 117.5,-57.5 194.5,-57.5 194.5,-38.5 117.5,-38.5"/>
<text text-anchor="middle" x="156" y="-45.5" font-family="Helvetica,sans-Serif" font-size="10.00">total_conflicts</text>
</a>
</g>
</g>
<!-- Node1&#45;&gt;Node7 -->
<g id="edge6" class="edge"><title>Node1&#45;&gt;Node7</title>
<path fill="none" stroke="midnightblue" d="M55.2462,-95.3607C69.7007,-87.4123 90.9692,-76.0191 110,-67 113.793,-65.2023 117.802,-63.3894 121.801,-61.6344"/>
<polygon fill="midnightblue" stroke="midnightblue" points="123.203,-64.8418 131.009,-57.679 120.44,-58.4101 123.203,-64.8418"/>
</g>
<!-- Node8 -->
<g id="node8" class="node"><title>Node8</title>
<g id="a_node8"><a xlink:href="mkpar_8c.html#a00b425b13b9daa8d3e647ea34588b411" target="_top" xlink:title="unused_rules">
<polygon fill="white" stroke="black" points="119,-0.5 119,-19.5 193,-19.5 193,-0.5 119,-0.5"/>
<text text-anchor="middle" x="156" y="-7.5" font-family="Helvetica,sans-Serif" font-size="10.00">unused_rules</text>
</a>
</g>
</g>
<!-- Node1&#45;&gt;Node8 -->
<g id="edge7" class="edge"><title>Node1&#45;&gt;Node8</title>
<path fill="none" stroke="midnightblue" d="M44.9732,-95.3793C56.7957,-79.6497 82.213,-48.2545 110,-29 112.566,-27.2219 115.325,-25.5624 118.167,-24.024"/>
<polygon fill="midnightblue" stroke="midnightblue" points="119.943,-27.0521 127.4,-19.5262 116.878,-20.759 119.943,-27.0521"/>
</g>
<!-- Node3 -->
<g id="node3" class="node"><title>Node3</title>
<g id="a_node3"><a xlink:href="mkpar_8c.html#a812d637aeb844aefdb3c63b7af18894a" target="_top" xlink:title="sole_reduction">
<polygon fill="white" stroke="black" points="238,-190.5 238,-209.5 318,-209.5 318,-190.5 238,-190.5"/>
<text text-anchor="middle" x="278" y="-197.5" font-family="Helvetica,sans-Serif" font-size="10.00">sole_reduction</text>
</a>
</g>
</g>
<!-- Node2&#45;&gt;Node3 -->
<g id="edge2" class="edge"><title>Node2&#45;&gt;Node3</title>
<path fill="none" stroke="midnightblue" d="M180.708,-200C194.043,-200 211.21,-200 227.347,-200"/>
<polygon fill="midnightblue" stroke="midnightblue" points="227.752,-203.5 237.752,-200 227.752,-196.5 227.752,-203.5"/>
</g>
<!-- Node9 -->
<g id="node9" class="node"><title>Node9</title>
<g id="a_node9"><a xlink:href="group__eh.html#ga03b3d711852aa32c4076f12ea7bb93a4" target="_top" xlink:title="no_space">
<polygon fill="white" stroke="black" points="248.5,-0.5 248.5,-19.5 307.5,-19.5 307.5,-0.5 248.5,-0.5"/>
<text text-anchor="middle" x="278" y="-7.5" font-family="Helvetica,sans-Serif" font-size="10.00">no_space</text>
</a>
</g>
</g>
<!-- Node8&#45;&gt;Node9 -->
<g id="edge8" class="edge"><title>Node8&#45;&gt;Node9</title>
<path fill="none" stroke="midnightblue" d="M193.004,-10C207.226,-10 223.6,-10 238.094,-10"/>
<polygon fill="midnightblue" stroke="midnightblue" points="238.257,-13.5001 248.257,-10 238.257,-6.5001 238.257,-13.5001"/>
</g>
<!-- Node10 -->
<g id="node10" class="node"><title>Node10</title>
<g id="a_node10"><a xlink:href="group__eh.html#ga67b6b9fd02aac96bef4297b1e6a1789a" target="_top" xlink:title="Shutdown function. ">
<polygon fill="white" stroke="black" points="354,-0.5 354,-19.5 392,-19.5 392,-0.5 354,-0.5"/>
<text text-anchor="middle" x="373" y="-7.5" font-family="Helvetica,sans-Serif" font-size="10.00">done</text>
</a>
</g>
</g>
<!-- Node9&#45;&gt;Node10 -->
<g id="edge9" class="edge"><title>Node9&#45;&gt;Node10</title>
<path fill="none" stroke="midnightblue" d="M307.662,-10C319.067,-10 332.16,-10 343.545,-10"/>
<polygon fill="midnightblue" stroke="midnightblue" points="343.826,-13.5001 353.826,-10 343.826,-6.5001 343.826,-13.5001"/>
</g>
</g>
</svg>
