<?xml version="1.0" encoding="UTF-8" standalone="no"?>
<!DOCTYPE svg PUBLIC "-//W3C//DTD SVG 1.1//EN"
 "http://www.w3.org/Graphics/SVG/1.1/DTD/svg11.dtd">
<!-- Generated by graphviz version 2.36.0 (20140111.2315)
 -->
<!-- Title: remove_conflicts Pages: 1 -->
<svg width="284pt" height="28pt"
 viewBox="0.00 0.00 284.00 28.00" xmlns="http://www.w3.org/2000/svg" xmlns:xlink="http://www.w3.org/1999/xlink">
<g id="graph0" class="graph" transform="scale(1 1) rotate(0) translate(4 24)">
<title>remove_conflicts</title>
<polygon fill="white" stroke="none" points="-4,4 -4,-24 280,-24 280,4 -4,4"/>
<!-- Node1 -->
<g id="node1" class="node"><title>Node1</title>
<polygon fill="#bfbfbf" stroke="black" points="0.5,-0.5 0.5,-19.5 91.5,-19.5 91.5,-0.5 0.5,-0.5"/>
<text text-anchor="middle" x="46" y="-7.5" font-family="Helvetica,sans-Serif" font-size="10.00">remove_conflicts</text>
</g>
<!-- Node2 -->
<g id="node2" class="node"><title>Node2</title>
<g id="a_node2"><a xlink:href="mkpar_8c.html#aec5c0fa32d9eede6064bd671c30777f5" target="_top" xlink:title="make_parser">
<polygon fill="white" stroke="black" points="128.5,-0.5 128.5,-19.5 201.5,-19.5 201.5,-0.5 128.5,-0.5"/>
<text text-anchor="middle" x="165" y="-7.5" font-family="Helvetica,sans-Serif" font-size="10.00">make_parser</text>
</a>
</g>
</g>
<!-- Node1&#45;&gt;Node2 -->
<g id="edge1" class="edge"><title>Node1&#45;&gt;Node2</title>
<path fill="none" stroke="midnightblue" d="M101.67,-10C110.706,-10 119.864,-10 128.278,-10"/>
<polygon fill="midnightblue" stroke="midnightblue" points="101.566,-6.5001 91.5664,-10 101.566,-13.5001 101.566,-6.5001"/>
</g>
<!-- Node3 -->
<g id="node3" class="node"><title>Node3</title>
<g id="a_node3"><a xlink:href="main_8c.html#afced8478b91af5c169926dfa4426333d" target="_top" xlink:title="main">
<polygon fill="white" stroke="black" points="238,-0.5 238,-19.5 276,-19.5 276,-0.5 238,-0.5"/>
<text text-anchor="middle" x="257" y="-7.5" font-family="Helvetica,sans-Serif" font-size="10.00">main</text>
</a>
</g>
</g>
<!-- Node2&#45;&gt;Node3 -->
<g id="edge2" class="edge"><title>Node2&#45;&gt;Node3</title>
<path fill="none" stroke="midnightblue" d="M211.574,-10C220.849,-10 230.092,-10 237.726,-10"/>
<polygon fill="midnightblue" stroke="midnightblue" points="211.57,-6.5001 201.57,-10 211.57,-13.5001 211.57,-6.5001"/>
</g>
</g>
</svg>
