<?xml version="1.0" encoding="UTF-8" standalone="no"?>
<!DOCTYPE svg PUBLIC "-//W3C//DTD SVG 1.1//EN"
 "http://www.w3.org/Graphics/SVG/1.1/DTD/svg11.dtd">
<!-- Generated by graphviz version 2.36.0 (20140111.2315)
 -->
<!-- Title: defreds Pages: 1 -->
<svg width="242pt" height="28pt"
 viewBox="0.00 0.00 242.00 28.00" xmlns="http://www.w3.org/2000/svg" xmlns:xlink="http://www.w3.org/1999/xlink">
<g id="graph0" class="graph" transform="scale(1 1) rotate(0) translate(4 24)">
<title>defreds</title>
<polygon fill="white" stroke="none" points="-4,4 -4,-24 238,-24 238,4 -4,4"/>
<!-- Node1 -->
<g id="node1" class="node"><title>Node1</title>
<polygon fill="#bfbfbf" stroke="black" points="0.5,-0.5 0.5,-19.5 49.5,-19.5 49.5,-0.5 0.5,-0.5"/>
<text text-anchor="middle" x="25" y="-7.5" font-family="Helvetica,sans-Serif" font-size="10.00">defreds</text>
</g>
<!-- Node2 -->
<g id="node2" class="node"><title>Node2</title>
<g id="a_node2"><a xlink:href="mkpar_8c.html#aec5c0fa32d9eede6064bd671c30777f5" target="_top" xlink:title="make_parser">
<polygon fill="white" stroke="black" points="86.5,-0.5 86.5,-19.5 159.5,-19.5 159.5,-0.5 86.5,-0.5"/>
<text text-anchor="middle" x="123" y="-7.5" font-family="Helvetica,sans-Serif" font-size="10.00">make_parser</text>
</a>
</g>
</g>
<!-- Node1&#45;&gt;Node2 -->
<g id="edge1" class="edge"><title>Node1&#45;&gt;Node2</title>
<path fill="none" stroke="midnightblue" d="M59.759,-10C68.3187,-10 77.5428,-10 86.1998,-10"/>
<polygon fill="midnightblue" stroke="midnightblue" points="59.7304,-6.5001 49.7303,-10 59.7303,-13.5001 59.7304,-6.5001"/>
</g>
<!-- Node3 -->
<g id="node3" class="node"><title>Node3</title>
<g id="a_node3"><a xlink:href="main_8c.html#afced8478b91af5c169926dfa4426333d" target="_top" xlink:title="main">
<polygon fill="white" stroke="black" points="196,-0.5 196,-19.5 234,-19.5 234,-0.5 196,-0.5"/>
<text text-anchor="middle" x="215" y="-7.5" font-family="Helvetica,sans-Serif" font-size="10.00">main</text>
</a>
</g>
</g>
<!-- Node2&#45;&gt;Node3 -->
<g id="edge2" class="edge"><title>Node2&#45;&gt;Node3</title>
<path fill="none" stroke="midnightblue" d="M169.574,-10C178.849,-10 188.092,-10 195.726,-10"/>
<polygon fill="midnightblue" stroke="midnightblue" points="169.57,-6.5001 159.57,-10 169.57,-13.5001 169.57,-6.5001"/>
</g>
</g>
</svg>
