<?xml version="1.0" encoding="UTF-8" standalone="no"?>
<!DOCTYPE svg PUBLIC "-//W3C//DTD SVG 1.1//EN"
 "http://www.w3.org/Graphics/SVG/1.1/DTD/svg11.dtd">
<!-- Generated by graphviz version 2.36.0 (20140111.2315)
 -->
<!-- Title: output_actions Pages: 1 -->
<svg width="424pt" height="275pt"
 viewBox="0.00 0.00 424.00 275.00" xmlns="http://www.w3.org/2000/svg" xmlns:xlink="http://www.w3.org/1999/xlink">
<g id="graph0" class="graph" transform="scale(1 1) rotate(0) translate(4 271)">
<title>output_actions</title>
<polygon fill="white" stroke="none" points="-4,4 -4,-271 420,-271 420,4 -4,4"/>
<!-- Node1 -->
<g id="node1" class="node"><title>Node1</title>
<polygon fill="#bfbfbf" stroke="black" points="0,-114.5 0,-133.5 80,-133.5 80,-114.5 0,-114.5"/>
<text text-anchor="middle" x="40" y="-121.5" font-family="Helvetica,sans-Serif" font-size="10.00">output_actions</text>
</g>
<!-- Node2 -->
<g id="node2" class="node"><title>Node2</title>
<g id="a_node2"><a xlink:href="output_8c.html#a53bca3db4b0c090a61bcf39ed497ed9b" target="_top" xlink:title="goto_actions">
<polygon fill="white" stroke="black" points="119,-228.5 119,-247.5 191,-247.5 191,-228.5 119,-228.5"/>
<text text-anchor="middle" x="155" y="-235.5" font-family="Helvetica,sans-Serif" font-size="10.00">goto_actions</text>
</a>
</g>
</g>
<!-- Node1&#45;&gt;Node2 -->
<g id="edge1" class="edge"><title>Node1&#45;&gt;Node2</title>
<path fill="none" stroke="midnightblue" d="M46.6757,-133.778C57.8894,-152.405 84.5435,-193.402 116,-219 117.813,-220.475 119.759,-221.876 121.778,-223.199"/>
<polygon fill="midnightblue" stroke="midnightblue" points="120.498,-226.502 130.906,-228.484 124.005,-220.444 120.498,-226.502"/>
</g>
<!-- Node5 -->
<g id="node5" class="node"><title>Node5</title>
<g id="a_node5"><a xlink:href="output_8c.html#af9a9f362a43f6aae454f9d8392df8bff" target="_top" xlink:title="output_base">
<polygon fill="white" stroke="black" points="120,-190.5 120,-209.5 190,-209.5 190,-190.5 120,-190.5"/>
<text text-anchor="middle" x="155" y="-197.5" font-family="Helvetica,sans-Serif" font-size="10.00">output_base</text>
</a>
</g>
</g>
<!-- Node1&#45;&gt;Node5 -->
<g id="edge4" class="edge"><title>Node1&#45;&gt;Node5</title>
<path fill="none" stroke="midnightblue" d="M52.212,-133.582C66.4717,-145.514 92.1186,-166.135 116,-181 118.608,-182.624 121.374,-184.222 124.177,-185.76"/>
<polygon fill="midnightblue" stroke="midnightblue" points="122.624,-188.898 133.108,-190.427 125.866,-182.694 122.624,-188.898"/>
</g>
<!-- Node6 -->
<g id="node6" class="node"><title>Node6</title>
<g id="a_node6"><a xlink:href="output_8c.html#a59ab3aa65212364238c0a7ebbff3f3ca" target="_top" xlink:title="output_check">
<polygon fill="white" stroke="black" points="117.5,-152.5 117.5,-171.5 192.5,-171.5 192.5,-152.5 117.5,-152.5"/>
<text text-anchor="middle" x="155" y="-159.5" font-family="Helvetica,sans-Serif" font-size="10.00">output_check</text>
</a>
</g>
</g>
<!-- Node1&#45;&gt;Node6 -->
<g id="edge5" class="edge"><title>Node1&#45;&gt;Node6</title>
<path fill="none" stroke="midnightblue" d="M69.5147,-133.589C83.5666,-138.314 100.708,-144.079 115.87,-149.177"/>
<polygon fill="midnightblue" stroke="midnightblue" points="114.9,-152.544 125.494,-152.414 117.132,-145.909 114.9,-152.544"/>
</g>
<!-- Node7 -->
<g id="node7" class="node"><title>Node7</title>
<g id="a_node7"><a xlink:href="output_8c.html#acfb3ce60f3a184ec23c054a2caa4a474" target="_top" xlink:title="output_table">
<polygon fill="white" stroke="black" points="120,-114.5 120,-133.5 190,-133.5 190,-114.5 120,-114.5"/>
<text text-anchor="middle" x="155" y="-121.5" font-family="Helvetica,sans-Serif" font-size="10.00">output_table</text>
</a>
</g>
</g>
<!-- Node1&#45;&gt;Node7 -->
<g id="edge6" class="edge"><title>Node1&#45;&gt;Node7</title>
<path fill="none" stroke="midnightblue" d="M80.2048,-124C89.6609,-124 99.8322,-124 109.511,-124"/>
<polygon fill="midnightblue" stroke="midnightblue" points="109.762,-127.5 119.762,-124 109.762,-120.5 109.762,-127.5"/>
</g>
<!-- Node8 -->
<g id="node8" class="node"><title>Node8</title>
<g id="a_node8"><a xlink:href="output_8c.html#a54964cb539071e5e6280a37aea70ca3d" target="_top" xlink:title="pack_table">
<polygon fill="white" stroke="black" points="123,-76.5 123,-95.5 187,-95.5 187,-76.5 123,-76.5"/>
<text text-anchor="middle" x="155" y="-83.5" font-family="Helvetica,sans-Serif" font-size="10.00">pack_table</text>
</a>
</g>
</g>
<!-- Node1&#45;&gt;Node8 -->
<g id="edge7" class="edge"><title>Node1&#45;&gt;Node8</title>
<path fill="none" stroke="midnightblue" d="M69.5147,-114.411C83.5666,-109.686 100.708,-103.921 115.87,-98.8226"/>
<polygon fill="midnightblue" stroke="midnightblue" points="117.132,-102.091 125.494,-95.5859 114.9,-95.456 117.132,-102.091"/>
</g>
<!-- Node13 -->
<g id="node13" class="node"><title>Node13</title>
<g id="a_node13"><a xlink:href="output_8c.html#aa982e43c118d100a4b3c0c0ba6de3290" target="_top" xlink:title="sort_actions">
<polygon fill="white" stroke="black" points="120,-38.5 120,-57.5 190,-57.5 190,-38.5 120,-38.5"/>
<text text-anchor="middle" x="155" y="-45.5" font-family="Helvetica,sans-Serif" font-size="10.00">sort_actions</text>
</a>
</g>
</g>
<!-- Node1&#45;&gt;Node13 -->
<g id="edge12" class="edge"><title>Node1&#45;&gt;Node13</title>
<path fill="none" stroke="midnightblue" d="M52.212,-114.418C66.4717,-102.486 92.1186,-81.8648 116,-67 118.608,-65.3764 121.374,-63.778 124.177,-62.2398"/>
<polygon fill="midnightblue" stroke="midnightblue" points="125.866,-65.3063 133.108,-57.5734 122.624,-59.1021 125.866,-65.3063"/>
</g>
<!-- Node14 -->
<g id="node14" class="node"><title>Node14</title>
<g id="a_node14"><a xlink:href="output_8c.html#a24893b46da9c3c12db2dc362e52e61dc" target="_top" xlink:title="token_actions">
<polygon fill="white" stroke="black" points="116.5,-0.5 116.5,-19.5 193.5,-19.5 193.5,-0.5 116.5,-0.5"/>
<text text-anchor="middle" x="155" y="-7.5" font-family="Helvetica,sans-Serif" font-size="10.00">token_actions</text>
</a>
</g>
</g>
<!-- Node1&#45;&gt;Node14 -->
<g id="edge13" class="edge"><title>Node1&#45;&gt;Node14</title>
<path fill="none" stroke="midnightblue" d="M46.6757,-114.222C57.8894,-95.5947 84.5435,-54.5982 116,-29 117.813,-27.5248 119.759,-26.1236 121.778,-24.8009"/>
<polygon fill="midnightblue" stroke="midnightblue" points="124.005,-27.5559 130.906,-19.5165 120.498,-21.4979 124.005,-27.5559"/>
</g>
<!-- Node3 -->
<g id="node3" class="node"><title>Node3</title>
<g id="a_node3"><a xlink:href="output_8c.html#ad878b7f8437824b96a20cb1940e47b15" target="_top" xlink:title="default_goto">
<polygon fill="white" stroke="black" points="240,-247.5 240,-266.5 310,-266.5 310,-247.5 240,-247.5"/>
<text text-anchor="middle" x="275" y="-254.5" font-family="Helvetica,sans-Serif" font-size="10.00">default_goto</text>
</a>
</g>
</g>
<!-- Node2&#45;&gt;Node3 -->
<g id="edge2" class="edge"><title>Node2&#45;&gt;Node3</title>
<path fill="none" stroke="midnightblue" d="M191.084,-243.649C203.199,-245.6 216.934,-247.811 229.69,-249.865"/>
<polygon fill="midnightblue" stroke="midnightblue" points="229.231,-253.336 239.66,-251.471 230.344,-246.425 229.231,-253.336"/>
</g>
<!-- Node4 -->
<g id="node4" class="node"><title>Node4</title>
<g id="a_node4"><a xlink:href="output_8c.html#acc69157560996ca656abbc998eb56647" target="_top" xlink:title="save_column">
<polygon fill="white" stroke="black" points="238,-209.5 238,-228.5 312,-228.5 312,-209.5 238,-209.5"/>
<text text-anchor="middle" x="275" y="-216.5" font-family="Helvetica,sans-Serif" font-size="10.00">save_column</text>
</a>
</g>
</g>
<!-- Node2&#45;&gt;Node4 -->
<g id="edge3" class="edge"><title>Node2&#45;&gt;Node4</title>
<path fill="none" stroke="midnightblue" d="M191.084,-232.351C202.549,-230.505 215.463,-228.425 227.626,-226.467"/>
<polygon fill="midnightblue" stroke="midnightblue" points="228.302,-229.903 237.618,-224.858 227.189,-222.992 228.302,-229.903"/>
</g>
<!-- Node9 -->
<g id="node9" class="node"><title>Node9</title>
<g id="a_node9"><a xlink:href="output_8c.html#afafba03261414603a490c338453ae953" target="_top" xlink:title="matching_vector">
<polygon fill="white" stroke="black" points="230.5,-95.5 230.5,-114.5 319.5,-114.5 319.5,-95.5 230.5,-95.5"/>
<text text-anchor="middle" x="275" y="-102.5" font-family="Helvetica,sans-Serif" font-size="10.00">matching_vector</text>
</a>
</g>
</g>
<!-- Node8&#45;&gt;Node9 -->
<g id="edge8" class="edge"><title>Node8&#45;&gt;Node9</title>
<path fill="none" stroke="midnightblue" d="M187.003,-90.992C197.249,-92.6418 208.961,-94.5276 220.4,-96.3695"/>
<polygon fill="midnightblue" stroke="midnightblue" points="219.91,-99.8355 230.339,-97.9698 221.022,-92.9245 219.91,-99.8355"/>
</g>
<!-- Node10 -->
<g id="node10" class="node"><title>Node10</title>
<g id="a_node10"><a xlink:href="output_8c.html#a0bb10d48c7349f5223563cafe2d47cee" target="_top" xlink:title="pack_vector">
<polygon fill="white" stroke="black" points="240,-57.5 240,-76.5 310,-76.5 310,-57.5 240,-57.5"/>
<text text-anchor="middle" x="275" y="-64.5" font-family="Helvetica,sans-Serif" font-size="10.00">pack_vector</text>
</a>
</g>
</g>
<!-- Node8&#45;&gt;Node10 -->
<g id="edge9" class="edge"><title>Node8&#45;&gt;Node10</title>
<path fill="none" stroke="midnightblue" d="M187.003,-81.008C200.081,-78.9023 215.547,-76.4119 229.785,-74.1193"/>
<polygon fill="midnightblue" stroke="midnightblue" points="230.568,-77.5385 239.884,-72.4932 229.455,-70.6275 230.568,-77.5385"/>
</g>
<!-- Node11 -->
<g id="node11" class="node"><title>Node11</title>
<g id="a_node11"><a xlink:href="group__eh.html#gae558ad59d93f53e83fc2d8e29afdffb9" target="_top" xlink:title="fatal">
<polygon fill="white" stroke="red" points="368.5,-76.5 368.5,-95.5 403.5,-95.5 403.5,-76.5 368.5,-76.5"/>
<text text-anchor="middle" x="386" y="-83.5" font-family="Helvetica,sans-Serif" font-size="10.00">fatal</text>
</a>
</g>
</g>
<!-- Node10&#45;&gt;Node11 -->
<g id="edge10" class="edge"><title>Node10&#45;&gt;Node11</title>
<path fill="none" stroke="midnightblue" d="M310.189,-72.9596C325.612,-75.648 343.568,-78.7779 358.022,-81.2974"/>
<polygon fill="midnightblue" stroke="midnightblue" points="357.84,-84.8183 368.292,-83.0876 359.042,-77.9223 357.84,-84.8183"/>
</g>
<!-- Node12 -->
<g id="node12" class="node"><title>Node12</title>
<g id="a_node12"><a xlink:href="group__eh.html#ga03b3d711852aa32c4076f12ea7bb93a4" target="_top" xlink:title="no_space">
<polygon fill="white" stroke="red" points="356.5,-38.5 356.5,-57.5 415.5,-57.5 415.5,-38.5 356.5,-38.5"/>
<text text-anchor="middle" x="386" y="-45.5" font-family="Helvetica,sans-Serif" font-size="10.00">no_space</text>
</a>
</g>
</g>
<!-- Node10&#45;&gt;Node12 -->
<g id="edge11" class="edge"><title>Node10&#45;&gt;Node12</title>
<path fill="none" stroke="midnightblue" d="M310.189,-61.0404C321.682,-59.0371 334.581,-56.7887 346.389,-54.7303"/>
<polygon fill="midnightblue" stroke="midnightblue" points="347.172,-58.1467 356.423,-52.9814 345.97,-51.2507 347.172,-58.1467"/>
</g>
</g>
</svg>
