<?xml version="1.0" encoding="UTF-8" standalone="no"?>
<!DOCTYPE svg PUBLIC "-//W3C//DTD SVG 1.1//EN"
 "http://www.w3.org/Graphics/SVG/1.1/DTD/svg11.dtd">
<!-- Generated by graphviz version 2.36.0 (20140111.2315)
 -->
<!-- Title: default_goto Pages: 1 -->
<svg width="382pt" height="28pt"
 viewBox="0.00 0.00 382.00 28.00" xmlns="http://www.w3.org/2000/svg" xmlns:xlink="http://www.w3.org/1999/xlink">
<g id="graph0" class="graph" transform="scale(1 1) rotate(0) translate(4 24)">
<title>default_goto</title>
<polygon fill="white" stroke="none" points="-4,4 -4,-24 378,-24 378,4 -4,4"/>
<!-- Node1 -->
<g id="node1" class="node"><title>Node1</title>
<polygon fill="#bfbfbf" stroke="black" points="0,-0.5 0,-19.5 70,-19.5 70,-0.5 0,-0.5"/>
<text text-anchor="middle" x="35" y="-7.5" font-family="Helvetica,sans-Serif" font-size="10.00">default_goto</text>
</g>
<!-- Node2 -->
<g id="node2" class="node"><title>Node2</title>
<g id="a_node2"><a xlink:href="output_8c.html#a53bca3db4b0c090a61bcf39ed497ed9b" target="_top" xlink:title="goto_actions">
<polygon fill="white" stroke="black" points="106,-0.5 106,-19.5 178,-19.5 178,-0.5 106,-0.5"/>
<text text-anchor="middle" x="142" y="-7.5" font-family="Helvetica,sans-Serif" font-size="10.00">goto_actions</text>
</a>
</g>
</g>
<!-- Node1&#45;&gt;Node2 -->
<g id="edge1" class="edge"><title>Node1&#45;&gt;Node2</title>
<path fill="none" stroke="midnightblue" d="M80.2265,-10C88.7067,-10 97.4823,-10 105.638,-10"/>
<polygon fill="midnightblue" stroke="midnightblue" points="80.0905,-6.5001 70.0905,-10 80.0905,-13.5001 80.0905,-6.5001"/>
</g>
<!-- Node3 -->
<g id="node3" class="node"><title>Node3</title>
<g id="a_node3"><a xlink:href="output_8c.html#aeefacc88e584337cfc3508c372fb453e" target="_top" xlink:title="output_actions">
<polygon fill="white" stroke="black" points="214,-0.5 214,-19.5 294,-19.5 294,-0.5 214,-0.5"/>
<text text-anchor="middle" x="254" y="-7.5" font-family="Helvetica,sans-Serif" font-size="10.00">output_actions</text>
</a>
</g>
</g>
<!-- Node2&#45;&gt;Node3 -->
<g id="edge2" class="edge"><title>Node2&#45;&gt;Node3</title>
<path fill="none" stroke="midnightblue" d="M188.191,-10C196.634,-10 205.395,-10 213.644,-10"/>
<polygon fill="midnightblue" stroke="midnightblue" points="188.107,-6.5001 178.107,-10 188.107,-13.5001 188.107,-6.5001"/>
</g>
<!-- Node4 -->
<g id="node4" class="node"><title>Node4</title>
<g id="a_node4"><a xlink:href="output_8c.html#a3939045b11b9aaefdf692feb963f0dfc" target="_top" xlink:title="output">
<polygon fill="white" stroke="red" points="330,-0.5 330,-19.5 374,-19.5 374,-0.5 330,-0.5"/>
<text text-anchor="middle" x="352" y="-7.5" font-family="Helvetica,sans-Serif" font-size="10.00">output</text>
</a>
</g>
</g>
<!-- Node3&#45;&gt;Node4 -->
<g id="edge3" class="edge"><title>Node3&#45;&gt;Node4</title>
<path fill="none" stroke="midnightblue" d="M304.209,-10C313.249,-10 322.231,-10 329.873,-10"/>
<polygon fill="midnightblue" stroke="midnightblue" points="304.047,-6.5001 294.047,-10 304.047,-13.5001 304.047,-6.5001"/>
</g>
</g>
</svg>
