<?xml version="1.0" encoding="UTF-8" standalone="no"?>
<!DOCTYPE svg PUBLIC "-//W3C//DTD SVG 1.1//EN"
 "http://www.w3.org/Graphics/SVG/1.1/DTD/svg11.dtd">
<!-- Generated by graphviz version 2.36.0 (20140111.2315)
 -->
<!-- Title: output_defines Pages: 1 -->
<svg width="278pt" height="66pt"
 viewBox="0.00 0.00 278.00 66.00" xmlns="http://www.w3.org/2000/svg" xmlns:xlink="http://www.w3.org/1999/xlink">
<g id="graph0" class="graph" transform="scale(1 1) rotate(0) translate(4 62)">
<title>output_defines</title>
<polygon fill="white" stroke="none" points="-4,4 -4,-62 274,-62 274,4 -4,4"/>
<!-- Node1 -->
<g id="node1" class="node"><title>Node1</title>
<polygon fill="#bfbfbf" stroke="black" points="0,-19.5 0,-38.5 80,-38.5 80,-19.5 0,-19.5"/>
<text text-anchor="middle" x="40" y="-26.5" font-family="Helvetica,sans-Serif" font-size="10.00">output_defines</text>
</g>
<!-- Node2 -->
<g id="node2" class="node"><title>Node2</title>
<g id="a_node2"><a xlink:href="output_8c.html#aaed7e5e831f512119903e131653f88bc" target="_top" xlink:title="is_C_identifier">
<polygon fill="white" stroke="black" points="116.5,-38.5 116.5,-57.5 195.5,-57.5 195.5,-38.5 116.5,-38.5"/>
<text text-anchor="middle" x="156" y="-45.5" font-family="Helvetica,sans-Serif" font-size="10.00">is_C_identifier</text>
</a>
</g>
</g>
<!-- Node1&#45;&gt;Node2 -->
<g id="edge1" class="edge"><title>Node1&#45;&gt;Node2</title>
<path fill="none" stroke="midnightblue" d="M80.2323,-35.5387C88.6575,-36.9429 97.6581,-38.443 106.39,-39.8984"/>
<polygon fill="midnightblue" stroke="midnightblue" points="106.028,-43.3861 116.467,-41.5778 107.178,-36.4814 106.028,-43.3861"/>
</g>
<!-- Node3 -->
<g id="node3" class="node"><title>Node3</title>
<g id="a_node3"><a xlink:href="group__eh.html#gafc759b2ea54a7db6fc62cf4f4cb1856e" target="_top" xlink:title="open_error">
<polygon fill="white" stroke="black" points="125,-0.5 125,-19.5 187,-19.5 187,-0.5 125,-0.5"/>
<text text-anchor="middle" x="156" y="-7.5" font-family="Helvetica,sans-Serif" font-size="10.00">open_error</text>
</a>
</g>
</g>
<!-- Node1&#45;&gt;Node3 -->
<g id="edge2" class="edge"><title>Node1&#45;&gt;Node3</title>
<path fill="none" stroke="midnightblue" d="M80.2323,-22.4613C91.3767,-20.6039 103.528,-18.5787 114.732,-16.7113"/>
<polygon fill="midnightblue" stroke="midnightblue" points="115.412,-20.1464 124.7,-15.0499 114.261,-13.2416 115.412,-20.1464"/>
</g>
<!-- Node4 -->
<g id="node4" class="node"><title>Node4</title>
<g id="a_node4"><a xlink:href="group__eh.html#ga67b6b9fd02aac96bef4297b1e6a1789a" target="_top" xlink:title="Shutdown function. ">
<polygon fill="white" stroke="black" points="232,-0.5 232,-19.5 270,-19.5 270,-0.5 232,-0.5"/>
<text text-anchor="middle" x="251" y="-7.5" font-family="Helvetica,sans-Serif" font-size="10.00">done</text>
</a>
</g>
</g>
<!-- Node3&#45;&gt;Node4 -->
<g id="edge3" class="edge"><title>Node3&#45;&gt;Node4</title>
<path fill="none" stroke="midnightblue" d="M187.194,-10C198.253,-10 210.72,-10 221.615,-10"/>
<polygon fill="midnightblue" stroke="midnightblue" points="221.875,-13.5001 231.875,-10 221.875,-6.5001 221.875,-13.5001"/>
</g>
</g>
</svg>
