<?xml version="1.0" encoding="UTF-8" standalone="no"?>
<!DOCTYPE svg PUBLIC "-//W3C//DTD SVG 1.1//EN"
 "http://www.w3.org/Graphics/SVG/1.1/DTD/svg11.dtd">
<!-- Generated by graphviz version 2.36.0 (20140111.2315)
 -->
<!-- Title: pack_table Pages: 1 -->
<svg width="368pt" height="85pt"
 viewBox="0.00 0.00 368.00 85.00" xmlns="http://www.w3.org/2000/svg" xmlns:xlink="http://www.w3.org/1999/xlink">
<g id="graph0" class="graph" transform="scale(1 1) rotate(0) translate(4 81)">
<title>pack_table</title>
<polygon fill="white" stroke="none" points="-4,4 -4,-81 364,-81 364,4 -4,4"/>
<!-- Node1 -->
<g id="node1" class="node"><title>Node1</title>
<polygon fill="#bfbfbf" stroke="black" points="0,-38.5 0,-57.5 64,-57.5 64,-38.5 0,-38.5"/>
<text text-anchor="middle" x="32" y="-45.5" font-family="Helvetica,sans-Serif" font-size="10.00">pack_table</text>
</g>
<!-- Node2 -->
<g id="node2" class="node"><title>Node2</title>
<g id="a_node2"><a xlink:href="output_8c.html#afafba03261414603a490c338453ae953" target="_top" xlink:title="matching_vector">
<polygon fill="white" stroke="black" points="100.5,-57.5 100.5,-76.5 189.5,-76.5 189.5,-57.5 100.5,-57.5"/>
<text text-anchor="middle" x="145" y="-64.5" font-family="Helvetica,sans-Serif" font-size="10.00">matching_vector</text>
</a>
</g>
</g>
<!-- Node1&#45;&gt;Node2 -->
<g id="edge1" class="edge"><title>Node1&#45;&gt;Node2</title>
<path fill="none" stroke="midnightblue" d="M64.2151,-53.3431C72.3216,-54.7307 81.2893,-56.2657 90.1985,-57.7907"/>
<polygon fill="midnightblue" stroke="midnightblue" points="89.7362,-61.2624 100.183,-59.4999 90.9173,-54.3628 89.7362,-61.2624"/>
</g>
<!-- Node3 -->
<g id="node3" class="node"><title>Node3</title>
<g id="a_node3"><a xlink:href="output_8c.html#a0bb10d48c7349f5223563cafe2d47cee" target="_top" xlink:title="pack_vector">
<polygon fill="white" stroke="black" points="110,-19.5 110,-38.5 180,-38.5 180,-19.5 110,-19.5"/>
<text text-anchor="middle" x="145" y="-26.5" font-family="Helvetica,sans-Serif" font-size="10.00">pack_vector</text>
</a>
</g>
</g>
<!-- Node1&#45;&gt;Node3 -->
<g id="edge2" class="edge"><title>Node1&#45;&gt;Node3</title>
<path fill="none" stroke="midnightblue" d="M64.2151,-42.6569C75.2252,-40.7723 87.8237,-38.6158 99.7069,-36.5817"/>
<polygon fill="midnightblue" stroke="midnightblue" points="100.642,-39.9727 109.908,-34.8356 99.4605,-33.073 100.642,-39.9727"/>
</g>
<!-- Node4 -->
<g id="node4" class="node"><title>Node4</title>
<g id="a_node4"><a xlink:href="group__eh.html#gae558ad59d93f53e83fc2d8e29afdffb9" target="_top" xlink:title="fatal">
<polygon fill="white" stroke="black" points="238.5,-38.5 238.5,-57.5 273.5,-57.5 273.5,-38.5 238.5,-38.5"/>
<text text-anchor="middle" x="256" y="-45.5" font-family="Helvetica,sans-Serif" font-size="10.00">fatal</text>
</a>
</g>
</g>
<!-- Node3&#45;&gt;Node4 -->
<g id="edge3" class="edge"><title>Node3&#45;&gt;Node4</title>
<path fill="none" stroke="midnightblue" d="M180.189,-34.9596C195.612,-37.648 213.568,-40.7779 228.022,-43.2974"/>
<polygon fill="midnightblue" stroke="midnightblue" points="227.84,-46.8183 238.292,-45.0876 229.042,-39.9223 227.84,-46.8183"/>
</g>
<!-- Node6 -->
<g id="node6" class="node"><title>Node6</title>
<g id="a_node6"><a xlink:href="group__eh.html#ga03b3d711852aa32c4076f12ea7bb93a4" target="_top" xlink:title="no_space">
<polygon fill="white" stroke="black" points="226.5,-0.5 226.5,-19.5 285.5,-19.5 285.5,-0.5 226.5,-0.5"/>
<text text-anchor="middle" x="256" y="-7.5" font-family="Helvetica,sans-Serif" font-size="10.00">no_space</text>
</a>
</g>
</g>
<!-- Node3&#45;&gt;Node6 -->
<g id="edge5" class="edge"><title>Node3&#45;&gt;Node6</title>
<path fill="none" stroke="midnightblue" d="M180.189,-23.0404C191.682,-21.0371 204.581,-18.7887 216.389,-16.7303"/>
<polygon fill="midnightblue" stroke="midnightblue" points="217.172,-20.1467 226.423,-14.9814 215.97,-13.2507 217.172,-20.1467"/>
</g>
<!-- Node5 -->
<g id="node5" class="node"><title>Node5</title>
<g id="a_node5"><a xlink:href="group__eh.html#ga67b6b9fd02aac96bef4297b1e6a1789a" target="_top" xlink:title="Shutdown function. ">
<polygon fill="white" stroke="black" points="322,-19.5 322,-38.5 360,-38.5 360,-19.5 322,-19.5"/>
<text text-anchor="middle" x="341" y="-26.5" font-family="Helvetica,sans-Serif" font-size="10.00">done</text>
</a>
</g>
</g>
<!-- Node4&#45;&gt;Node5 -->
<g id="edge4" class="edge"><title>Node4&#45;&gt;Node5</title>
<path fill="none" stroke="midnightblue" d="M273.796,-44.1551C284.676,-41.6645 299.118,-38.3585 311.736,-35.47"/>
<polygon fill="midnightblue" stroke="midnightblue" points="312.822,-38.8122 321.789,-33.1689 311.26,-31.9887 312.822,-38.8122"/>
</g>
<!-- Node6&#45;&gt;Node5 -->
<g id="edge6" class="edge"><title>Node6&#45;&gt;Node5</title>
<path fill="none" stroke="midnightblue" d="M285.564,-16.5387C294.098,-18.4924 303.444,-20.6317 311.945,-22.5778"/>
<polygon fill="midnightblue" stroke="midnightblue" points="311.256,-26.0106 321.785,-24.8304 312.818,-19.1871 311.256,-26.0106"/>
</g>
</g>
</svg>
