<?xml version="1.0" encoding="UTF-8" standalone="no"?>
<!DOCTYPE svg PUBLIC "-//W3C//DTD SVG 1.1//EN"
 "http://www.w3.org/Graphics/SVG/1.1/DTD/svg11.dtd">
<!-- Generated by graphviz version 2.36.0 (20140111.2315)
 -->
<!-- Title: token_actions Pages: 1 -->
<svg width="356pt" height="28pt"
 viewBox="0.00 0.00 356.00 28.00" xmlns="http://www.w3.org/2000/svg" xmlns:xlink="http://www.w3.org/1999/xlink">
<g id="graph0" class="graph" transform="scale(1 1) rotate(0) translate(4 24)">
<title>token_actions</title>
<polygon fill="white" stroke="none" points="-4,4 -4,-24 352,-24 352,4 -4,4"/>
<!-- Node1 -->
<g id="node1" class="node"><title>Node1</title>
<polygon fill="#bfbfbf" stroke="black" points="0.5,-0.5 0.5,-19.5 77.5,-19.5 77.5,-0.5 0.5,-0.5"/>
<text text-anchor="middle" x="39" y="-7.5" font-family="Helvetica,sans-Serif" font-size="10.00">token_actions</text>
</g>
<!-- Node2 -->
<g id="node2" class="node"><title>Node2</title>
<g id="a_node2"><a xlink:href="output_8c.html#aeefacc88e584337cfc3508c372fb453e" target="_top" xlink:title="output_actions">
<polygon fill="white" stroke="black" points="114,-0.5 114,-19.5 194,-19.5 194,-0.5 114,-0.5"/>
<text text-anchor="middle" x="154" y="-7.5" font-family="Helvetica,sans-Serif" font-size="10.00">output_actions</text>
</a>
</g>
</g>
<!-- Node1&#45;&gt;Node2 -->
<g id="edge1" class="edge"><title>Node1&#45;&gt;Node2</title>
<path fill="none" stroke="midnightblue" d="M87.7231,-10C96.4804,-10 105.526,-10 113.991,-10"/>
<polygon fill="midnightblue" stroke="midnightblue" points="87.6274,-6.5001 77.6274,-10 87.6273,-13.5001 87.6274,-6.5001"/>
</g>
<!-- Node3 -->
<g id="node3" class="node"><title>Node3</title>
<g id="a_node3"><a xlink:href="output_8c.html#a3939045b11b9aaefdf692feb963f0dfc" target="_top" xlink:title="output">
<polygon fill="white" stroke="black" points="230,-0.5 230,-19.5 274,-19.5 274,-0.5 230,-0.5"/>
<text text-anchor="middle" x="252" y="-7.5" font-family="Helvetica,sans-Serif" font-size="10.00">output</text>
</a>
</g>
</g>
<!-- Node2&#45;&gt;Node3 -->
<g id="edge2" class="edge"><title>Node2&#45;&gt;Node3</title>
<path fill="none" stroke="midnightblue" d="M204.209,-10C213.249,-10 222.231,-10 229.873,-10"/>
<polygon fill="midnightblue" stroke="midnightblue" points="204.047,-6.5001 194.047,-10 204.047,-13.5001 204.047,-6.5001"/>
</g>
<!-- Node4 -->
<g id="node4" class="node"><title>Node4</title>
<g id="a_node4"><a xlink:href="main_8c.html#afced8478b91af5c169926dfa4426333d" target="_top" xlink:title="main">
<polygon fill="white" stroke="black" points="310,-0.5 310,-19.5 348,-19.5 348,-0.5 310,-0.5"/>
<text text-anchor="middle" x="329" y="-7.5" font-family="Helvetica,sans-Serif" font-size="10.00">main</text>
</a>
</g>
</g>
<!-- Node3&#45;&gt;Node4 -->
<g id="edge3" class="edge"><title>Node3&#45;&gt;Node4</title>
<path fill="none" stroke="midnightblue" d="M284.532,-10C293.211,-10 302.328,-10 309.958,-10"/>
<polygon fill="midnightblue" stroke="midnightblue" points="284.291,-6.5001 274.291,-10 284.291,-13.5001 284.291,-6.5001"/>
</g>
</g>
</svg>
