<?xml version="1.0" encoding="UTF-8" standalone="no"?>
<!DOCTYPE svg PUBLIC "-//W3C//DTD SVG 1.1//EN"
 "http://www.w3.org/Graphics/SVG/1.1/DTD/svg11.dtd">
<!-- Generated by graphviz version 2.36.0 (20140111.2315)
 -->
<!-- Title: free_shifts Pages: 1 -->
<svg width="224pt" height="28pt"
 viewBox="0.00 0.00 224.00 28.00" xmlns="http://www.w3.org/2000/svg" xmlns:xlink="http://www.w3.org/1999/xlink">
<g id="graph0" class="graph" transform="scale(1 1) rotate(0) translate(4 24)">
<title>free_shifts</title>
<polygon fill="white" stroke="none" points="-4,4 -4,-24 220,-24 220,4 -4,4"/>
<!-- Node1 -->
<g id="node1" class="node"><title>Node1</title>
<polygon fill="#bfbfbf" stroke="black" points="0,-0.5 0,-19.5 62,-19.5 62,-0.5 0,-0.5"/>
<text text-anchor="middle" x="31" y="-7.5" font-family="Helvetica,sans-Serif" font-size="10.00">free_shifts</text>
</g>
<!-- Node2 -->
<g id="node2" class="node"><title>Node2</title>
<g id="a_node2"><a xlink:href="output_8c.html#a3939045b11b9aaefdf692feb963f0dfc" target="_top" xlink:title="output">
<polygon fill="white" stroke="black" points="98,-0.5 98,-19.5 142,-19.5 142,-0.5 98,-0.5"/>
<text text-anchor="middle" x="120" y="-7.5" font-family="Helvetica,sans-Serif" font-size="10.00">output</text>
</a>
</g>
</g>
<!-- Node1&#45;&gt;Node2 -->
<g id="edge1" class="edge"><title>Node1&#45;&gt;Node2</title>
<path fill="none" stroke="midnightblue" d="M72.5116,-10C81.2361,-10 90.1217,-10 97.7557,-10"/>
<polygon fill="midnightblue" stroke="midnightblue" points="72.4284,-6.5001 62.4284,-10 72.4283,-13.5001 72.4284,-6.5001"/>
</g>
<!-- Node3 -->
<g id="node3" class="node"><title>Node3</title>
<g id="a_node3"><a xlink:href="main_8c.html#afced8478b91af5c169926dfa4426333d" target="_top" xlink:title="main">
<polygon fill="white" stroke="black" points="178,-0.5 178,-19.5 216,-19.5 216,-0.5 178,-0.5"/>
<text text-anchor="middle" x="197" y="-7.5" font-family="Helvetica,sans-Serif" font-size="10.00">main</text>
</a>
</g>
</g>
<!-- Node2&#45;&gt;Node3 -->
<g id="edge2" class="edge"><title>Node2&#45;&gt;Node3</title>
<path fill="none" stroke="midnightblue" d="M152.532,-10C161.211,-10 170.328,-10 177.958,-10"/>
<polygon fill="midnightblue" stroke="midnightblue" points="152.291,-6.5001 142.291,-10 152.291,-13.5001 152.291,-6.5001"/>
</g>
</g>
</svg>
