<?xml version="1.0" encoding="UTF-8" standalone="no"?>
<!DOCTYPE svg PUBLIC "-//W3C//DTD SVG 1.1//EN"
 "http://www.w3.org/Graphics/SVG/1.1/DTD/svg11.dtd">
<!-- Generated by graphviz version 2.36.0 (20140111.2315)
 -->
<!-- Title: output Pages: 1 -->
<!--zoomable 560 -->
<svg id="main" version="1.1" xmlns="http://www.w3.org/2000/svg" xmlns:xlink="http://www.w3.org/1999/xlink" xml:space="preserve" onload="init(evt)">
<style type="text/css"><![CDATA[
.edge:hover path { stroke: red; }
.edge:hover polygon { stroke: red; fill: red; }
]]></style>
<script type="text/javascript"><![CDATA[
var edges = document.getElementsByTagName('g');
if (edges && edges.length) {
  for (var i=0;i<edges.length;i++) {
    if (edges[i].id.substr(0,4)=='edge') {
      edges[i].setAttribute('class','edge');
    }
  }
}
]]></script>
        <defs>
                <circle id="rim" cx="0" cy="0" r="7"/>
                <circle id="rim2" cx="0" cy="0" r="3.5"/>
                <g id="zoomPlus">
                        <use xlink:href="#rim" fill="#404040">
                                <set attributeName="fill" to="#808080" begin="zoomplus.mouseover" end="zoomplus.mouseout"/>
                        </use>
                        <path d="M-4,0h8M0,-4v8" fill="none" stroke="white" stroke-width="1.5" pointer-events="none"/>
                </g>
                <g id="zoomMin">
                        <use xlink:href="#rim" fill="#404040">
                                <set attributeName="fill" to="#808080" begin="zoomminus.mouseover" end="zoomminus.mouseout"/>
                        </use>
                        <path d="M-4,0h8" fill="none" stroke="white" stroke-width="1.5" pointer-events="none"/>
                </g>
                <g id="dirArrow">
                        <path fill="none" stroke="white" stroke-width="1.5" d="M0,-3.0v7 M-2.5,-0.5L0,-3.0L2.5,-0.5"/>
                </g>
               <g id="resetDef">
                       <use xlink:href="#rim2" fill="#404040">
                               <set attributeName="fill" to="#808080" begin="reset.mouseover" end="reset.mouseout"/>
                       </use>
               </g>
        </defs>

<script type="text/javascript">
var viewWidth = 336;
var viewHeight = 560;
var sectionId = 'dynsection-9';
</script>
<script xlink:href="svgpan.js"/>
<svg id="graph" class="graph">
<g id="viewport">
<title>output</title>
<polygon fill="white" stroke="none" points="-4,4 -4,-556 332,-556 332,4 -4,4"/>
<!-- Node1 -->
<g id="node1" class="node"><title>Node1</title>
<polygon fill="#bfbfbf" stroke="black" points="0,-266.5 0,-285.5 44,-285.5 44,-266.5 0,-266.5"/>
<text text-anchor="middle" x="22" y="-273.5" font-family="Helvetica,sans-Serif" font-size="10.00">output</text>
</g>
<!-- Node2 -->
<g id="node2" class="node"><title>Node2</title>
<g id="a_node2"><a xlink:href="output_8c.html#ac43b4028b2aea7d5803f43eb2ee58056" target="_top" xlink:title="free_itemsets">
<polygon fill="white" stroke="black" points="105,-532.5 105,-551.5 181,-551.5 181,-532.5 105,-532.5"/>
<text text-anchor="middle" x="143" y="-539.5" font-family="Helvetica,sans-Serif" font-size="10.00">free_itemsets</text>
</a>
</g>
</g>
<!-- Node1&#45;&gt;Node2 -->
<g id="edge1" class="edge"><title>Node1&#45;&gt;Node2</title>
<path fill="none" stroke="midnightblue" d="M23.9581,-285.742C28.2065,-327.04 46.6229,-487.18 80,-523 84.1792,-527.485 89.3856,-530.922 94.9933,-533.553"/>
<polygon fill="midnightblue" stroke="midnightblue" points="94.1082,-536.962 104.699,-537.264 96.6083,-530.423 94.1082,-536.962"/>
</g>
<!-- Node3 -->
<g id="node3" class="node"><title>Node3</title>
<g id="a_node3"><a xlink:href="mkpar_8c.html#a7db614525f029e4de3958af54eb88808" target="_top" xlink:title="free_parser">
<polygon fill="white" stroke="black" points="110.5,-494.5 110.5,-513.5 175.5,-513.5 175.5,-494.5 110.5,-494.5"/>
<text text-anchor="middle" x="143" y="-501.5" font-family="Helvetica,sans-Serif" font-size="10.00">free_parser</text>
</a>
</g>
</g>
<!-- Node1&#45;&gt;Node3 -->
<g id="edge2" class="edge"><title>Node1&#45;&gt;Node3</title>
<path fill="none" stroke="midnightblue" d="M22.587,-285.898C21.7682,-318.987 23.7187,-426.94 80,-485 85.6197,-490.797 92.9568,-494.838 100.608,-497.65"/>
<polygon fill="midnightblue" stroke="midnightblue" points="99.7766,-501.055 110.362,-500.596 101.801,-494.354 99.7766,-501.055"/>
</g>
<!-- Node5 -->
<g id="node5" class="node"><title>Node5</title>
<g id="a_node5"><a xlink:href="output_8c.html#a212159182ed127eaa4097353a62aaacb" target="_top" xlink:title="free_reductions">
<polygon fill="white" stroke="black" points="101.5,-456.5 101.5,-475.5 184.5,-475.5 184.5,-456.5 101.5,-456.5"/>
<text text-anchor="middle" x="143" y="-463.5" font-family="Helvetica,sans-Serif" font-size="10.00">free_reductions</text>
</a>
</g>
</g>
<!-- Node1&#45;&gt;Node5 -->
<g id="edge4" class="edge"><title>Node1&#45;&gt;Node5</title>
<path fill="none" stroke="midnightblue" d="M23.2841,-285.719C24.6646,-314.62 32.7446,-400.883 80,-447 83.4922,-450.408 87.5792,-453.207 91.9595,-455.505"/>
<polygon fill="midnightblue" stroke="midnightblue" points="90.6997,-458.774 101.266,-459.553 93.4921,-452.355 90.6997,-458.774"/>
</g>
<!-- Node6 -->
<g id="node6" class="node"><title>Node6</title>
<g id="a_node6"><a xlink:href="output_8c.html#ae9f79fbf40b3ab2e0a8e14708dfc2491" target="_top" xlink:title="free_shifts">
<polygon fill="white" stroke="black" points="112,-418.5 112,-437.5 174,-437.5 174,-418.5 112,-418.5"/>
<text text-anchor="middle" x="143" y="-425.5" font-family="Helvetica,sans-Serif" font-size="10.00">free_shifts</text>
</a>
</g>
</g>
<!-- Node1&#45;&gt;Node6 -->
<g id="edge5" class="edge"><title>Node1&#45;&gt;Node6</title>
<path fill="none" stroke="midnightblue" d="M24.3228,-285.636C28.1808,-310.005 41.6804,-374.594 80,-409 86.2532,-414.615 94.1313,-418.57 102.155,-421.357"/>
<polygon fill="midnightblue" stroke="midnightblue" points="101.335,-424.764 111.915,-424.21 103.299,-418.045 101.335,-424.764"/>
</g>
<!-- Node7 -->
<g id="node7" class="node"><title>Node7</title>
<g id="a_node7"><a xlink:href="output_8c.html#aeefacc88e584337cfc3508c372fb453e" target="_top" xlink:title="output_actions">
<polygon fill="white" stroke="black" points="103,-380.5 103,-399.5 183,-399.5 183,-380.5 103,-380.5"/>
<text text-anchor="middle" x="143" y="-387.5" font-family="Helvetica,sans-Serif" font-size="10.00">output_actions</text>
</a>
</g>
</g>
<!-- Node1&#45;&gt;Node7 -->
<g id="edge6" class="edge"><title>Node1&#45;&gt;Node7</title>
<path fill="none" stroke="midnightblue" d="M26.135,-285.675C32.8498,-304.866 50.4595,-347.89 80,-371 84.0525,-374.17 88.634,-376.814 93.4267,-379.019"/>
<polygon fill="midnightblue" stroke="midnightblue" points="92.2334,-382.311 102.82,-382.739 94.8112,-375.802 92.2334,-382.311"/>
</g>
<!-- Node15 -->
<g id="node15" class="node"><title>Node15</title>
<g id="a_node15"><a xlink:href="output_8c.html#a47dee73a8684c92137c4358133450a88" target="_top" xlink:title="output_debug">
<polygon fill="white" stroke="black" points="105.5,-342.5 105.5,-361.5 180.5,-361.5 180.5,-342.5 105.5,-342.5"/>
<text text-anchor="middle" x="143" y="-349.5" font-family="Helvetica,sans-Serif" font-size="10.00">output_debug</text>
</a>
</g>
</g>
<!-- Node1&#45;&gt;Node15 -->
<g id="edge14" class="edge"><title>Node1&#45;&gt;Node15</title>
<path fill="none" stroke="midnightblue" d="M30.0361,-285.502C39.8657,-298.126 58.8914,-320.307 80,-333 84.824,-335.901 90.1288,-338.393 95.5425,-340.526"/>
<polygon fill="midnightblue" stroke="midnightblue" points="94.7296,-343.951 105.324,-343.988 97.0649,-337.352 94.7296,-343.951"/>
</g>
<!-- Node17 -->
<g id="node17" class="node"><title>Node17</title>
<g id="a_node17"><a xlink:href="output_8c.html#ad5c78e4eb26c46733f81ca9723ecef22" target="_top" xlink:title="output_defines">
<polygon fill="white" stroke="red" points="103,-304.5 103,-323.5 183,-323.5 183,-304.5 103,-304.5"/>
<text text-anchor="middle" x="143" y="-311.5" font-family="Helvetica,sans-Serif" font-size="10.00">output_defines</text>
</a>
</g>
</g>
<!-- Node1&#45;&gt;Node17 -->
<g id="edge16" class="edge"><title>Node1&#45;&gt;Node17</title>
<path fill="none" stroke="midnightblue" d="M44.074,-283.161C54.8081,-286.774 68.0776,-291.187 80,-295 86.6281,-297.12 93.67,-299.324 100.54,-301.448"/>
<polygon fill="midnightblue" stroke="midnightblue" points="99.8255,-304.89 110.413,-304.483 101.882,-298.199 99.8255,-304.89"/>
</g>
<!-- Node18 -->
<g id="node18" class="node"><title>Node18</title>
<g id="a_node18"><a xlink:href="output_8c.html#a929583bbb0de3cadfeae7574c43324c4" target="_top" xlink:title="output_prefix">
<polygon fill="white" stroke="black" points="106.5,-266.5 106.5,-285.5 179.5,-285.5 179.5,-266.5 106.5,-266.5"/>
<text text-anchor="middle" x="143" y="-273.5" font-family="Helvetica,sans-Serif" font-size="10.00">output_prefix</text>
</a>
</g>
</g>
<!-- Node1&#45;&gt;Node18 -->
<g id="edge17" class="edge"><title>Node1&#45;&gt;Node18</title>
<path fill="none" stroke="midnightblue" d="M44.0009,-276C58.4586,-276 78.2309,-276 96.2301,-276"/>
<polygon fill="midnightblue" stroke="midnightblue" points="96.2848,-279.5 106.285,-276 96.2847,-272.5 96.2848,-279.5"/>
</g>
<!-- Node19 -->
<g id="node19" class="node"><title>Node19</title>
<g id="a_node19"><a xlink:href="output_8c.html#a93e9c82d8f3b601a879143eb4dad6646" target="_top" xlink:title="output_rule_data">
<polygon fill="white" stroke="black" points="98.5,-228.5 98.5,-247.5 187.5,-247.5 187.5,-228.5 98.5,-228.5"/>
<text text-anchor="middle" x="143" y="-235.5" font-family="Helvetica,sans-Serif" font-size="10.00">output_rule_data</text>
</a>
</g>
</g>
<!-- Node1&#45;&gt;Node19 -->
<g id="edge18" class="edge"><title>Node1&#45;&gt;Node19</title>
<path fill="none" stroke="midnightblue" d="M44.074,-268.839C54.8081,-265.226 68.0776,-260.813 80,-257 86.6281,-254.88 93.67,-252.676 100.54,-250.552"/>
<polygon fill="midnightblue" stroke="midnightblue" points="101.882,-253.801 110.413,-247.517 99.8255,-247.11 101.882,-253.801"/>
</g>
<!-- Node20 -->
<g id="node20" class="node"><title>Node20</title>
<g id="a_node20"><a xlink:href="output_8c.html#af387dfcebcd4b98964c1bcbd6c635401" target="_top" xlink:title="output_semantic_actions">
<polygon fill="white" stroke="red" points="80.5,-190.5 80.5,-209.5 205.5,-209.5 205.5,-190.5 80.5,-190.5"/>
<text text-anchor="middle" x="143" y="-197.5" font-family="Helvetica,sans-Serif" font-size="10.00">output_semantic_actions</text>
</a>
</g>
</g>
<!-- Node1&#45;&gt;Node20 -->
<g id="edge19" class="edge"><title>Node1&#45;&gt;Node20</title>
<path fill="none" stroke="midnightblue" d="M30.0361,-266.498C39.8657,-253.874 58.8914,-231.693 80,-219 83.5818,-216.846 87.4287,-214.918 91.3884,-213.194"/>
<polygon fill="midnightblue" stroke="midnightblue" points="92.7184,-216.432 100.761,-209.535 90.1727,-209.911 92.7184,-216.432"/>
</g>
<!-- Node21 -->
<g id="node21" class="node"><title>Node21</title>
<g id="a_node21"><a xlink:href="output_8c.html#aa172b05ccd1e6469debaca283975f2bd" target="_top" xlink:title="output_stored_text">
<polygon fill="white" stroke="red" points="94,-152.5 94,-171.5 192,-171.5 192,-152.5 94,-152.5"/>
<text text-anchor="middle" x="143" y="-159.5" font-family="Helvetica,sans-Serif" font-size="10.00">output_stored_text</text>
</a>
</g>
</g>
<!-- Node1&#45;&gt;Node21 -->
<g id="edge20" class="edge"><title>Node1&#45;&gt;Node21</title>
<path fill="none" stroke="midnightblue" d="M26.135,-266.325C32.8498,-247.134 50.4595,-204.11 80,-181 82.3276,-179.179 84.8297,-177.532 87.4461,-176.042"/>
<polygon fill="midnightblue" stroke="midnightblue" points="89.2236,-179.07 96.6945,-171.557 86.1694,-172.771 89.2236,-179.07"/>
</g>
<!-- Node22 -->
<g id="node22" class="node"><title>Node22</title>
<g id="a_node22"><a xlink:href="output_8c.html#a0d36ee01405964e10cb550eb95c4984c" target="_top" xlink:title="output_stype">
<polygon fill="white" stroke="black" points="106.5,-114.5 106.5,-133.5 179.5,-133.5 179.5,-114.5 106.5,-114.5"/>
<text text-anchor="middle" x="143" y="-121.5" font-family="Helvetica,sans-Serif" font-size="10.00">output_stype</text>
</a>
</g>
</g>
<!-- Node1&#45;&gt;Node22 -->
<g id="edge21" class="edge"><title>Node1&#45;&gt;Node22</title>
<path fill="none" stroke="midnightblue" d="M24.3228,-266.364C28.1808,-241.995 41.6804,-177.406 80,-143 84.8376,-138.656 90.6478,-135.306 96.7455,-132.721"/>
<polygon fill="midnightblue" stroke="midnightblue" points="98.2211,-135.911 106.466,-129.257 95.8712,-129.317 98.2211,-135.911"/>
</g>
<!-- Node23 -->
<g id="node23" class="node"><title>Node23</title>
<g id="a_node23"><a xlink:href="output_8c.html#a52e9f90e598f55cefb9c21122bc8e25f" target="_top" xlink:title="output_trailing_text">
<polygon fill="white" stroke="black" points="93.5,-76.5 93.5,-95.5 192.5,-95.5 192.5,-76.5 93.5,-76.5"/>
<text text-anchor="middle" x="143" y="-83.5" font-family="Helvetica,sans-Serif" font-size="10.00">output_trailing_text</text>
</a>
</g>
</g>
<!-- Node1&#45;&gt;Node23 -->
<g id="edge22" class="edge"><title>Node1&#45;&gt;Node23</title>
<path fill="none" stroke="midnightblue" d="M23.2841,-266.281C24.6646,-237.38 32.7446,-151.117 80,-105 81.4805,-103.555 83.0679,-102.22 84.7392,-100.986"/>
<polygon fill="midnightblue" stroke="midnightblue" points="86.9112,-103.765 93.6886,-95.621 83.3121,-97.7606 86.9112,-103.765"/>
</g>
<!-- Node24 -->
<g id="node24" class="node"><title>Node24</title>
<g id="a_node24"><a xlink:href="output_8c.html#a08bab69ca7ac3d7afe5db83343383ccc" target="_top" xlink:title="output_yydefred">
<polygon fill="white" stroke="black" points="100,-38.5 100,-57.5 186,-57.5 186,-38.5 100,-38.5"/>
<text text-anchor="middle" x="143" y="-45.5" font-family="Helvetica,sans-Serif" font-size="10.00">output_yydefred</text>
</a>
</g>
</g>
<!-- Node1&#45;&gt;Node24 -->
<g id="edge23" class="edge"><title>Node1&#45;&gt;Node24</title>
<path fill="none" stroke="midnightblue" d="M22.587,-266.102C21.7682,-233.013 23.7187,-125.06 80,-67 83.0413,-63.8626 86.5855,-61.2398 90.4102,-59.0477"/>
<polygon fill="midnightblue" stroke="midnightblue" points="92.17,-62.0883 99.7392,-54.6748 89.199,-55.75 92.17,-62.0883"/>
</g>
<!-- Node25 -->
<g id="node25" class="node"><title>Node25</title>
<g id="a_node25"><a xlink:href="skeleton_8c.html#abac8d941eb63d23dccd28ed36b2050ff" target="_top" xlink:title="write_section">
<polygon fill="white" stroke="black" points="106,-0.5 106,-19.5 180,-19.5 180,-0.5 106,-0.5"/>
<text text-anchor="middle" x="143" y="-7.5" font-family="Helvetica,sans-Serif" font-size="10.00">write_section</text>
</a>
</g>
</g>
<!-- Node1&#45;&gt;Node25 -->
<g id="edge24" class="edge"><title>Node1&#45;&gt;Node25</title>
<path fill="none" stroke="midnightblue" d="M23.9581,-266.258C28.2065,-224.96 46.6229,-64.8196 80,-29 84.4826,-24.1894 90.147,-20.5849 96.2206,-17.8865"/>
<polygon fill="midnightblue" stroke="midnightblue" points="97.7797,-21.0444 105.991,-14.349 95.3966,-14.4626 97.7797,-21.0444"/>
</g>
<!-- Node4 -->
<g id="node4" class="node"><title>Node4</title>
<g id="a_node4"><a xlink:href="mkpar_8c.html#a9d1a605494e3b13da79257155ebeb3c1" target="_top" xlink:title="free_action_row">
<polygon fill="white" stroke="black" points="242,-532.5 242,-551.5 328,-551.5 328,-532.5 242,-532.5"/>
<text text-anchor="middle" x="285" y="-539.5" font-family="Helvetica,sans-Serif" font-size="10.00">free_action_row</text>
</a>
</g>
</g>
<!-- Node3&#45;&gt;Node4 -->
<g id="edge3" class="edge"><title>Node3&#45;&gt;Node4</title>
<path fill="none" stroke="midnightblue" d="M175.768,-512.623C194.487,-517.704 218.468,-524.213 239.098,-529.812"/>
<polygon fill="midnightblue" stroke="midnightblue" points="238.35,-533.236 248.918,-532.478 240.184,-526.48 238.35,-533.236"/>
</g>
<!-- Node8 -->
<g id="node8" class="node"><title>Node8</title>
<g id="a_node8"><a xlink:href="output_8c.html#a24893b46da9c3c12db2dc362e52e61dc" target="_top" xlink:title="token_actions">
<polygon fill="white" stroke="black" points="246.5,-494.5 246.5,-513.5 323.5,-513.5 323.5,-494.5 246.5,-494.5"/>
<text text-anchor="middle" x="285" y="-501.5" font-family="Helvetica,sans-Serif" font-size="10.00">token_actions</text>
</a>
</g>
</g>
<!-- Node7&#45;&gt;Node8 -->
<g id="edge7" class="edge"><title>Node7&#45;&gt;Node8</title>
<path fill="none" stroke="midnightblue" d="M183.252,-396.671C191.434,-399.456 199.528,-403.404 206,-409 234.274,-433.445 215.341,-458.804 242,-485 243.456,-486.43 245.038,-487.764 246.707,-489.007"/>
<polygon fill="midnightblue" stroke="midnightblue" points="245.246,-492.217 255.596,-494.481 248.917,-486.257 245.246,-492.217"/>
</g>
<!-- Node9 -->
<g id="node9" class="node"><title>Node9</title>
<g id="a_node9"><a xlink:href="output_8c.html#a53bca3db4b0c090a61bcf39ed497ed9b" target="_top" xlink:title="goto_actions">
<polygon fill="white" stroke="red" points="249,-456.5 249,-475.5 321,-475.5 321,-456.5 249,-456.5"/>
<text text-anchor="middle" x="285" y="-463.5" font-family="Helvetica,sans-Serif" font-size="10.00">goto_actions</text>
</a>
</g>
</g>
<!-- Node7&#45;&gt;Node9 -->
<g id="edge8" class="edge"><title>Node7&#45;&gt;Node9</title>
<path fill="none" stroke="midnightblue" d="M183.042,-398.609C190.972,-401.265 199.015,-404.67 206,-409 225.774,-421.257 223.047,-433.509 242,-447 244.384,-448.697 246.943,-450.297 249.58,-451.792"/>
<polygon fill="midnightblue" stroke="midnightblue" points="248.202,-455.019 258.697,-456.467 251.396,-448.79 248.202,-455.019"/>
</g>
<!-- Node10 -->
<g id="node10" class="node"><title>Node10</title>
<g id="a_node10"><a xlink:href="output_8c.html#aa982e43c118d100a4b3c0c0ba6de3290" target="_top" xlink:title="sort_actions">
<polygon fill="white" stroke="black" points="250,-418.5 250,-437.5 320,-437.5 320,-418.5 250,-418.5"/>
<text text-anchor="middle" x="285" y="-425.5" font-family="Helvetica,sans-Serif" font-size="10.00">sort_actions</text>
</a>
</g>
</g>
<!-- Node7&#45;&gt;Node10 -->
<g id="edge9" class="edge"><title>Node7&#45;&gt;Node10</title>
<path fill="none" stroke="midnightblue" d="M179.328,-399.589C197.676,-404.569 220.277,-410.704 239.776,-415.996"/>
<polygon fill="midnightblue" stroke="midnightblue" points="239.084,-419.435 249.651,-418.677 240.917,-412.679 239.084,-419.435"/>
</g>
<!-- Node11 -->
<g id="node11" class="node"><title>Node11</title>
<g id="a_node11"><a xlink:href="output_8c.html#a54964cb539071e5e6280a37aea70ca3d" target="_top" xlink:title="pack_table">
<polygon fill="white" stroke="red" points="253,-380.5 253,-399.5 317,-399.5 317,-380.5 253,-380.5"/>
<text text-anchor="middle" x="285" y="-387.5" font-family="Helvetica,sans-Serif" font-size="10.00">pack_table</text>
</a>
</g>
</g>
<!-- Node7&#45;&gt;Node11 -->
<g id="edge10" class="edge"><title>Node7&#45;&gt;Node11</title>
<path fill="none" stroke="midnightblue" d="M183.37,-390C201.931,-390 224.071,-390 242.853,-390"/>
<polygon fill="midnightblue" stroke="midnightblue" points="242.897,-393.5 252.897,-390 242.897,-386.5 242.897,-393.5"/>
</g>
<!-- Node12 -->
<g id="node12" class="node"><title>Node12</title>
<g id="a_node12"><a xlink:href="output_8c.html#af9a9f362a43f6aae454f9d8392df8bff" target="_top" xlink:title="output_base">
<polygon fill="white" stroke="black" points="250,-342.5 250,-361.5 320,-361.5 320,-342.5 250,-342.5"/>
<text text-anchor="middle" x="285" y="-349.5" font-family="Helvetica,sans-Serif" font-size="10.00">output_base</text>
</a>
</g>
</g>
<!-- Node7&#45;&gt;Node12 -->
<g id="edge11" class="edge"><title>Node7&#45;&gt;Node12</title>
<path fill="none" stroke="midnightblue" d="M179.328,-380.411C197.676,-375.431 220.277,-369.296 239.776,-364.004"/>
<polygon fill="midnightblue" stroke="midnightblue" points="240.917,-367.321 249.651,-361.323 239.084,-360.565 240.917,-367.321"/>
</g>
<!-- Node13 -->
<g id="node13" class="node"><title>Node13</title>
<g id="a_node13"><a xlink:href="output_8c.html#acfb3ce60f3a184ec23c054a2caa4a474" target="_top" xlink:title="output_table">
<polygon fill="white" stroke="black" points="250,-304.5 250,-323.5 320,-323.5 320,-304.5 250,-304.5"/>
<text text-anchor="middle" x="285" y="-311.5" font-family="Helvetica,sans-Serif" font-size="10.00">output_table</text>
</a>
</g>
</g>
<!-- Node7&#45;&gt;Node13 -->
<g id="edge12" class="edge"><title>Node7&#45;&gt;Node13</title>
<path fill="none" stroke="midnightblue" d="M183.042,-381.391C190.972,-378.735 199.015,-375.33 206,-371 225.774,-358.743 223.047,-346.491 242,-333 244.384,-331.303 246.943,-329.703 249.58,-328.208"/>
<polygon fill="midnightblue" stroke="midnightblue" points="251.396,-331.21 258.697,-323.533 248.202,-324.981 251.396,-331.21"/>
</g>
<!-- Node14 -->
<g id="node14" class="node"><title>Node14</title>
<g id="a_node14"><a xlink:href="output_8c.html#a59ab3aa65212364238c0a7ebbff3f3ca" target="_top" xlink:title="output_check">
<polygon fill="white" stroke="black" points="247.5,-266.5 247.5,-285.5 322.5,-285.5 322.5,-266.5 247.5,-266.5"/>
<text text-anchor="middle" x="285" y="-273.5" font-family="Helvetica,sans-Serif" font-size="10.00">output_check</text>
</a>
</g>
</g>
<!-- Node7&#45;&gt;Node14 -->
<g id="edge13" class="edge"><title>Node7&#45;&gt;Node14</title>
<path fill="none" stroke="midnightblue" d="M183.252,-383.329C191.434,-380.544 199.528,-376.596 206,-371 234.274,-346.555 215.341,-321.196 242,-295 243.456,-293.57 245.038,-292.236 246.707,-290.993"/>
<polygon fill="midnightblue" stroke="midnightblue" points="248.917,-293.743 255.596,-285.519 245.246,-287.783 248.917,-293.743"/>
</g>
<!-- Node16 -->
<g id="node16" class="node"><title>Node16</title>
<g id="a_node16"><a xlink:href="error_8c.html#a03b3d711852aa32c4076f12ea7bb93a4" target="_top" xlink:title="no_space">
<polygon fill="white" stroke="red" points="255.5,-228.5 255.5,-247.5 314.5,-247.5 314.5,-228.5 255.5,-228.5"/>
<text text-anchor="middle" x="285" y="-235.5" font-family="Helvetica,sans-Serif" font-size="10.00">no_space</text>
</a>
</g>
</g>
<!-- Node15&#45;&gt;Node16 -->
<g id="edge15" class="edge"><title>Node15&#45;&gt;Node16</title>
<path fill="none" stroke="midnightblue" d="M180.667,-346.17C189.712,-343.357 198.846,-339.185 206,-333 234.274,-308.555 215.341,-283.196 242,-257 243.456,-255.57 245.038,-254.236 246.707,-252.993"/>
<polygon fill="midnightblue" stroke="midnightblue" points="248.917,-255.743 255.596,-247.519 245.246,-249.783 248.917,-255.743"/>
</g>
</g>
</svg>
        <g id="navigator" transform="translate(0 0)" fill="#404254">
                <rect fill="#f2f5e9" fill-opacity="0.5" stroke="#606060" stroke-width=".5" x="0" y="0" width="60" height="60"/>
                <use id="zoomplus" xlink:href="#zoomPlus" x="17" y="9" onmousedown="handleZoom(evt,'in')"/>
                <use id="zoomminus" xlink:href="#zoomMin" x="42" y="9" onmousedown="handleZoom(evt,'out')"/>
                <use id="reset" xlink:href="#resetDef" x="30" y="36" onmousedown="handleReset()"/>
                <g id="arrowUp" xlink:href="#dirArrow" transform="translate(30 24)" onmousedown="handlePan(0,-1)">
                  <use xlink:href="#rim" fill="#404040">
                        <set attributeName="fill" to="#808080" begin="arrowUp.mouseover" end="arrowUp.mouseout"/>
                  </use>
                  <path fill="none" stroke="white" stroke-width="1.5" d="M0,-3.0v7 M-2.5,-0.5L0,-3.0L2.5,-0.5"/>
                </g>
                <g id="arrowRight" xlink:href="#dirArrow" transform="rotate(90) translate(36 -43)" onmousedown="handlePan(1,0)">
                  <use xlink:href="#rim" fill="#404040">
                        <set attributeName="fill" to="#808080" begin="arrowRight.mouseover" end="arrowRight.mouseout"/>
                  </use>
                  <path fill="none" stroke="white" stroke-width="1.5" d="M0,-3.0v7 M-2.5,-0.5L0,-3.0L2.5,-0.5"/>
                </g>
                <g id="arrowDown" xlink:href="#dirArrow" transform="rotate(180) translate(-30 -48)" onmousedown="handlePan(0,1)">
                  <use xlink:href="#rim" fill="#404040">
                        <set attributeName="fill" to="#808080" begin="arrowDown.mouseover" end="arrowDown.mouseout"/>
                  </use>
                  <path fill="none" stroke="white" stroke-width="1.5" d="M0,-3.0v7 M-2.5,-0.5L0,-3.0L2.5,-0.5"/>
                </g>
                <g id="arrowLeft" xlink:href="#dirArrow" transform="rotate(270) translate(-36 17)" onmousedown="handlePan(-1,0)">
                  <use xlink:href="#rim" fill="#404040">
                        <set attributeName="fill" to="#808080" begin="arrowLeft.mouseover" end="arrowLeft.mouseout"/>
                  </use>
                  <path fill="none" stroke="white" stroke-width="1.5" d="M0,-3.0v7 M-2.5,-0.5L0,-3.0L2.5,-0.5"/>
                </g>
        </g>
        <svg viewBox="0 0 15 15" width="100%" height="30px" preserveAspectRatio="xMaxYMin meet">
         <g id="arrow_out" transform="scale(0.3 0.3)">
          <a xlink:href="output_8c_a3939045b11b9aaefdf692feb963f0dfc_cgraph_org.svg" target="_base">
           <rect id="button" ry="5" rx="5" y="6" x="6" height="38" width="38"
                fill="#f2f5e9" fill-opacity="0.5" stroke="#606060" stroke-width="1.0"/>
           <path id="arrow"
             d="M 11.500037,31.436501 C 11.940474,20.09759 22.043105,11.32322 32.158766,21.979434 L 37.068811,17.246167 C 37.068811,17.246167 37.088388,32 37.088388,32 L 22.160133,31.978069 C 22.160133,31.978069 26.997745,27.140456 26.997745,27.140456 C 18.528582,18.264221 13.291696,25.230495 11.500037,31.436501 z"
             style="fill:#404040;"/>
          </a>
         </g>
        </svg>
</svg>
