<?xml version="1.0" encoding="UTF-8" standalone="no"?>
<!DOCTYPE svg PUBLIC "-//W3C//DTD SVG 1.1//EN"
 "http://www.w3.org/Graphics/SVG/1.1/DTD/svg11.dtd">
<!-- Generated by graphviz version 2.36.0 (20140111.2315)
 -->
<!-- Title: goto_actions Pages: 1 -->
<svg width="190pt" height="66pt"
 viewBox="0.00 0.00 190.00 66.00" xmlns="http://www.w3.org/2000/svg" xmlns:xlink="http://www.w3.org/1999/xlink">
<g id="graph0" class="graph" transform="scale(1 1) rotate(0) translate(4 62)">
<title>goto_actions</title>
<polygon fill="white" stroke="none" points="-4,4 -4,-62 186,-62 186,4 -4,4"/>
<!-- Node1 -->
<g id="node1" class="node"><title>Node1</title>
<polygon fill="#bfbfbf" stroke="black" points="0,-19.5 0,-38.5 72,-38.5 72,-19.5 0,-19.5"/>
<text text-anchor="middle" x="36" y="-26.5" font-family="Helvetica,sans-Serif" font-size="10.00">goto_actions</text>
</g>
<!-- Node2 -->
<g id="node2" class="node"><title>Node2</title>
<g id="a_node2"><a xlink:href="output_8c.html#ad878b7f8437824b96a20cb1940e47b15" target="_top" xlink:title="default_goto">
<polygon fill="white" stroke="black" points="110,-38.5 110,-57.5 180,-57.5 180,-38.5 110,-38.5"/>
<text text-anchor="middle" x="145" y="-45.5" font-family="Helvetica,sans-Serif" font-size="10.00">default_goto</text>
</a>
</g>
</g>
<!-- Node1&#45;&gt;Node2 -->
<g id="edge1" class="edge"><title>Node1&#45;&gt;Node2</title>
<path fill="none" stroke="midnightblue" d="M72.0358,-35.2213C80.9876,-36.8109 90.7256,-38.5401 100.062,-40.1979"/>
<polygon fill="midnightblue" stroke="midnightblue" points="99.5212,-43.6566 109.979,-41.9589 100.745,-36.7644 99.5212,-43.6566"/>
</g>
<!-- Node3 -->
<g id="node3" class="node"><title>Node3</title>
<g id="a_node3"><a xlink:href="output_8c.html#acc69157560996ca656abbc998eb56647" target="_top" xlink:title="save_column">
<polygon fill="white" stroke="black" points="108,-0.5 108,-19.5 182,-19.5 182,-0.5 108,-0.5"/>
<text text-anchor="middle" x="145" y="-7.5" font-family="Helvetica,sans-Serif" font-size="10.00">save_column</text>
</a>
</g>
</g>
<!-- Node1&#45;&gt;Node3 -->
<g id="edge2" class="edge"><title>Node1&#45;&gt;Node3</title>
<path fill="none" stroke="midnightblue" d="M72.0358,-22.7787C80.2715,-21.3163 89.1725,-19.7357 97.8141,-18.2012"/>
<polygon fill="midnightblue" stroke="midnightblue" points="98.55,-21.6254 107.784,-16.4309 97.3261,-14.7332 98.55,-21.6254"/>
</g>
</g>
</svg>
