<?xml version="1.0" encoding="UTF-8" standalone="no"?>
<!DOCTYPE svg PUBLIC "-//W3C//DTD SVG 1.1//EN"
 "http://www.w3.org/Graphics/SVG/1.1/DTD/svg11.dtd">
<!-- Generated by graphviz version 2.36.0 (20140111.2315)
 -->
<!-- Title: matching_vector Pages: 1 -->
<svg width="394pt" height="28pt"
 viewBox="0.00 0.00 394.00 28.00" xmlns="http://www.w3.org/2000/svg" xmlns:xlink="http://www.w3.org/1999/xlink">
<g id="graph0" class="graph" transform="scale(1 1) rotate(0) translate(4 24)">
<title>matching_vector</title>
<polygon fill="white" stroke="none" points="-4,4 -4,-24 390,-24 390,4 -4,4"/>
<!-- Node1 -->
<g id="node1" class="node"><title>Node1</title>
<polygon fill="#bfbfbf" stroke="black" points="0.5,-0.5 0.5,-19.5 89.5,-19.5 89.5,-0.5 0.5,-0.5"/>
<text text-anchor="middle" x="45" y="-7.5" font-family="Helvetica,sans-Serif" font-size="10.00">matching_vector</text>
</g>
<!-- Node2 -->
<g id="node2" class="node"><title>Node2</title>
<g id="a_node2"><a xlink:href="output_8c.html#a54964cb539071e5e6280a37aea70ca3d" target="_top" xlink:title="pack_table">
<polygon fill="white" stroke="black" points="126,-0.5 126,-19.5 190,-19.5 190,-0.5 126,-0.5"/>
<text text-anchor="middle" x="158" y="-7.5" font-family="Helvetica,sans-Serif" font-size="10.00">pack_table</text>
</a>
</g>
</g>
<!-- Node1&#45;&gt;Node2 -->
<g id="edge1" class="edge"><title>Node1&#45;&gt;Node2</title>
<path fill="none" stroke="midnightblue" d="M99.6453,-10C108.655,-10 117.73,-10 125.919,-10"/>
<polygon fill="midnightblue" stroke="midnightblue" points="99.5516,-6.5001 89.5516,-10 99.5515,-13.5001 99.5516,-6.5001"/>
</g>
<!-- Node3 -->
<g id="node3" class="node"><title>Node3</title>
<g id="a_node3"><a xlink:href="output_8c.html#aeefacc88e584337cfc3508c372fb453e" target="_top" xlink:title="output_actions">
<polygon fill="white" stroke="black" points="226,-0.5 226,-19.5 306,-19.5 306,-0.5 226,-0.5"/>
<text text-anchor="middle" x="266" y="-7.5" font-family="Helvetica,sans-Serif" font-size="10.00">output_actions</text>
</a>
</g>
</g>
<!-- Node2&#45;&gt;Node3 -->
<g id="edge2" class="edge"><title>Node2&#45;&gt;Node3</title>
<path fill="none" stroke="midnightblue" d="M200.472,-10C208.778,-10 217.48,-10 225.708,-10"/>
<polygon fill="midnightblue" stroke="midnightblue" points="200.23,-6.5001 190.23,-10 200.23,-13.5001 200.23,-6.5001"/>
</g>
<!-- Node4 -->
<g id="node4" class="node"><title>Node4</title>
<g id="a_node4"><a xlink:href="output_8c.html#a3939045b11b9aaefdf692feb963f0dfc" target="_top" xlink:title="output">
<polygon fill="white" stroke="red" points="342,-0.5 342,-19.5 386,-19.5 386,-0.5 342,-0.5"/>
<text text-anchor="middle" x="364" y="-7.5" font-family="Helvetica,sans-Serif" font-size="10.00">output</text>
</a>
</g>
</g>
<!-- Node3&#45;&gt;Node4 -->
<g id="edge3" class="edge"><title>Node3&#45;&gt;Node4</title>
<path fill="none" stroke="midnightblue" d="M316.209,-10C325.249,-10 334.231,-10 341.873,-10"/>
<polygon fill="midnightblue" stroke="midnightblue" points="316.047,-6.5001 306.047,-10 316.047,-13.5001 316.047,-6.5001"/>
</g>
</g>
</svg>
