<?xml version="1.0" encoding="UTF-8" standalone="no"?>
<!DOCTYPE svg PUBLIC "-//W3C//DTD SVG 1.1//EN"
 "http://www.w3.org/Graphics/SVG/1.1/DTD/svg11.dtd">
<!-- Generated by graphviz version 2.36.0 (20140111.2315)
 -->
<!-- Title: keyword Pages: 1 -->
<svg width="340pt" height="104pt"
 viewBox="0.00 0.00 340.00 104.00" xmlns="http://www.w3.org/2000/svg" xmlns:xlink="http://www.w3.org/1999/xlink">
<g id="graph0" class="graph" transform="scale(1 1) rotate(0) translate(4 100)">
<title>keyword</title>
<polygon fill="white" stroke="none" points="-4,4 -4,-100 336,-100 336,4 -4,4"/>
<!-- Node1 -->
<g id="node1" class="node"><title>Node1</title>
<polygon fill="#bfbfbf" stroke="black" points="0.5,-57.5 0.5,-76.5 53.5,-76.5 53.5,-57.5 0.5,-57.5"/>
<text text-anchor="middle" x="27" y="-64.5" font-family="Helvetica,sans-Serif" font-size="10.00">keyword</text>
</g>
<!-- Node2 -->
<g id="node2" class="node"><title>Node2</title>
<g id="a_node2"><a xlink:href="reader_8c.html#a04707e6fc9527eaf37d68dafdc9483a9" target="_top" xlink:title="cachec">
<polygon fill="white" stroke="black" points="102,-76.5 102,-95.5 150,-95.5 150,-76.5 102,-76.5"/>
<text text-anchor="middle" x="126" y="-83.5" font-family="Helvetica,sans-Serif" font-size="10.00">cachec</text>
</a>
</g>
</g>
<!-- Node1&#45;&gt;Node2 -->
<g id="edge1" class="edge"><title>Node1&#45;&gt;Node2</title>
<path fill="none" stroke="midnightblue" d="M53.7396,-72.0418C65.4033,-74.3264 79.3384,-77.056 91.7795,-79.4929"/>
<polygon fill="midnightblue" stroke="midnightblue" points="91.3096,-82.9673 101.796,-81.4549 92.6552,-76.0978 91.3096,-82.9673"/>
</g>
<!-- Node5 -->
<g id="node5" class="node"><title>Node5</title>
<g id="a_node5"><a xlink:href="group__eh.html#gae2027917ace8b6f808a14b5cd4085eaf" target="_top" xlink:title="syntax_error">
<polygon fill="white" stroke="black" points="90.5,-38.5 90.5,-57.5 161.5,-57.5 161.5,-38.5 90.5,-38.5"/>
<text text-anchor="middle" x="126" y="-45.5" font-family="Helvetica,sans-Serif" font-size="10.00">syntax_error</text>
</a>
</g>
</g>
<!-- Node1&#45;&gt;Node5 -->
<g id="edge4" class="edge"><title>Node1&#45;&gt;Node5</title>
<path fill="none" stroke="midnightblue" d="M53.7396,-61.9582C61.9831,-60.3435 71.3612,-58.5066 80.5446,-56.7078"/>
<polygon fill="midnightblue" stroke="midnightblue" points="81.2295,-60.1402 90.3702,-54.7832 79.8839,-53.2707 81.2295,-60.1402"/>
</g>
<!-- Node3 -->
<g id="node3" class="node"><title>Node3</title>
<g id="a_node3"><a xlink:href="group__eh.html#ga03b3d711852aa32c4076f12ea7bb93a4" target="_top" xlink:title="no_space">
<polygon fill="white" stroke="black" points="198.5,-76.5 198.5,-95.5 257.5,-95.5 257.5,-76.5 198.5,-76.5"/>
<text text-anchor="middle" x="228" y="-83.5" font-family="Helvetica,sans-Serif" font-size="10.00">no_space</text>
</a>
</g>
</g>
<!-- Node2&#45;&gt;Node3 -->
<g id="edge2" class="edge"><title>Node2&#45;&gt;Node3</title>
<path fill="none" stroke="midnightblue" d="M150.193,-86C161.484,-86 175.364,-86 188.204,-86"/>
<polygon fill="midnightblue" stroke="midnightblue" points="188.21,-89.5001 198.21,-86 188.21,-82.5001 188.21,-89.5001"/>
</g>
<!-- Node4 -->
<g id="node4" class="node"><title>Node4</title>
<g id="a_node4"><a xlink:href="group__eh.html#ga67b6b9fd02aac96bef4297b1e6a1789a" target="_top" xlink:title="Shutdown function. ">
<polygon fill="white" stroke="black" points="294,-57.5 294,-76.5 332,-76.5 332,-57.5 294,-57.5"/>
<text text-anchor="middle" x="313" y="-64.5" font-family="Helvetica,sans-Serif" font-size="10.00">done</text>
</a>
</g>
</g>
<!-- Node3&#45;&gt;Node4 -->
<g id="edge3" class="edge"><title>Node3&#45;&gt;Node4</title>
<path fill="none" stroke="midnightblue" d="M257.564,-79.4613C266.098,-77.5076 275.444,-75.3683 283.945,-73.4222"/>
<polygon fill="midnightblue" stroke="midnightblue" points="284.818,-76.8129 293.785,-71.1696 283.256,-69.9894 284.818,-76.8129"/>
</g>
<!-- Node5&#45;&gt;Node4 -->
<g id="edge6" class="edge"><title>Node5&#45;&gt;Node4</title>
<path fill="none" stroke="midnightblue" d="M161.797,-51.5738C196.967,-55.1858 250.667,-60.701 283.428,-64.0656"/>
<polygon fill="midnightblue" stroke="midnightblue" points="283.373,-67.5782 293.678,-65.1183 284.088,-60.6149 283.373,-67.5782"/>
</g>
<!-- Node6 -->
<g id="node6" class="node"><title>Node6</title>
<g id="a_node6"><a xlink:href="group__eh.html#ga3c01cc3498c6cb3655588b53da0e8f7e" target="_top" xlink:title="print_pos">
<polygon fill="white" stroke="black" points="200,-0.5 200,-19.5 256,-19.5 256,-0.5 200,-0.5"/>
<text text-anchor="middle" x="228" y="-7.5" font-family="Helvetica,sans-Serif" font-size="10.00">print_pos</text>
</a>
</g>
</g>
<!-- Node5&#45;&gt;Node6 -->
<g id="edge5" class="edge"><title>Node5&#45;&gt;Node6</title>
<path fill="none" stroke="midnightblue" d="M152.234,-38.411C164.314,-33.8206 178.975,-28.2497 192.102,-23.2612"/>
<polygon fill="midnightblue" stroke="midnightblue" points="193.669,-26.4099 201.774,-19.5859 191.183,-19.8664 193.669,-26.4099"/>
</g>
</g>
</svg>
