<?xml version="1.0" encoding="UTF-8" standalone="no"?>
<!DOCTYPE svg PUBLIC "-//W3C//DTD SVG 1.1//EN"
 "http://www.w3.org/Graphics/SVG/1.1/DTD/svg11.dtd">
<!-- Generated by graphviz version 2.36.0 (20140111.2315)
 -->
<!-- Title: get_tag Pages: 1 -->
<svg width="388pt" height="104pt"
 viewBox="0.00 0.00 388.00 104.00" xmlns="http://www.w3.org/2000/svg" xmlns:xlink="http://www.w3.org/1999/xlink">
<g id="graph0" class="graph" transform="scale(1 1) rotate(0) translate(4 100)">
<title>get_tag</title>
<polygon fill="white" stroke="none" points="-4,4 -4,-100 384,-100 384,4 -4,4"/>
<!-- Node1 -->
<g id="node1" class="node"><title>Node1</title>
<polygon fill="#bfbfbf" stroke="black" points="0.5,-38.5 0.5,-57.5 49.5,-57.5 49.5,-38.5 0.5,-38.5"/>
<text text-anchor="middle" x="25" y="-45.5" font-family="Helvetica,sans-Serif" font-size="10.00">get_tag</text>
</g>
<!-- Node2 -->
<g id="node2" class="node"><title>Node2</title>
<g id="a_node2"><a xlink:href="reader_8c.html#abb83807b1bba8d346650d3e4ae4e7425" target="_top" xlink:title="copy_action">
<polygon fill="white" stroke="black" points="93.5,-76.5 93.5,-95.5 162.5,-95.5 162.5,-76.5 93.5,-76.5"/>
<text text-anchor="middle" x="128" y="-83.5" font-family="Helvetica,sans-Serif" font-size="10.00">copy_action</text>
</a>
</g>
</g>
<!-- Node1&#45;&gt;Node2 -->
<g id="edge1" class="edge"><title>Node1&#45;&gt;Node2</title>
<path fill="none" stroke="midnightblue" d="M59.3186,-60.5357C73.1232,-65.7295 88.8723,-71.6549 101.703,-76.4822"/>
<polygon fill="midnightblue" stroke="midnightblue" points="60.272,-57.1549 49.68,-56.9093 57.807,-63.7066 60.272,-57.1549"/>
</g>
<!-- Node5 -->
<g id="node5" class="node"><title>Node5</title>
<g id="a_node5"><a xlink:href="reader_8c.html#a0b749a023a959fabb8ed2778b46ec217" target="_top" xlink:title="declare_tokens">
<polygon fill="white" stroke="black" points="86.5,-38.5 86.5,-57.5 169.5,-57.5 169.5,-38.5 86.5,-38.5"/>
<text text-anchor="middle" x="128" y="-45.5" font-family="Helvetica,sans-Serif" font-size="10.00">declare_tokens</text>
</a>
</g>
</g>
<!-- Node1&#45;&gt;Node5 -->
<g id="edge4" class="edge"><title>Node1&#45;&gt;Node5</title>
<path fill="none" stroke="midnightblue" d="M59.7032,-48C68.2809,-48 77.5882,-48 86.4673,-48"/>
<polygon fill="midnightblue" stroke="midnightblue" points="59.68,-44.5001 49.68,-48 59.68,-51.5001 59.68,-44.5001"/>
</g>
<!-- Node7 -->
<g id="node7" class="node"><title>Node7</title>
<g id="a_node7"><a xlink:href="reader_8c.html#a860dbc8da656fd831b19668da20207c7" target="_top" xlink:title="declare_types">
<polygon fill="white" stroke="black" points="89.5,-0.5 89.5,-19.5 166.5,-19.5 166.5,-0.5 89.5,-0.5"/>
<text text-anchor="middle" x="128" y="-7.5" font-family="Helvetica,sans-Serif" font-size="10.00">declare_types</text>
</a>
</g>
</g>
<!-- Node1&#45;&gt;Node7 -->
<g id="edge7" class="edge"><title>Node1&#45;&gt;Node7</title>
<path fill="none" stroke="midnightblue" d="M59.3186,-35.4643C73.1232,-30.2705 88.8723,-24.3451 101.703,-19.5178"/>
<polygon fill="midnightblue" stroke="midnightblue" points="57.807,-32.2934 49.68,-39.0907 60.272,-38.8451 57.807,-32.2934"/>
</g>
<!-- Node3 -->
<g id="node3" class="node"><title>Node3</title>
<g id="a_node3"><a xlink:href="reader_8c.html#af6d4fba61bb761ca9fe92fef83e8ee94" target="_top" xlink:title="read_grammar">
<polygon fill="white" stroke="black" points="213.5,-76.5 213.5,-95.5 292.5,-95.5 292.5,-76.5 213.5,-76.5"/>
<text text-anchor="middle" x="253" y="-83.5" font-family="Helvetica,sans-Serif" font-size="10.00">read_grammar</text>
</a>
</g>
</g>
<!-- Node2&#45;&gt;Node3 -->
<g id="edge2" class="edge"><title>Node2&#45;&gt;Node3</title>
<path fill="none" stroke="midnightblue" d="M172.869,-86C186.04,-86 200.39,-86 213.209,-86"/>
<polygon fill="midnightblue" stroke="midnightblue" points="172.61,-82.5001 162.61,-86 172.61,-89.5001 172.61,-82.5001"/>
</g>
<!-- Node4 -->
<g id="node4" class="node"><title>Node4</title>
<g id="a_node4"><a xlink:href="reader_8c.html#a3351a985e2d992eea6ed332cc837ad5b" target="_top" xlink:title="reader">
<polygon fill="white" stroke="red" points="336,-57.5 336,-76.5 380,-76.5 380,-57.5 336,-57.5"/>
<text text-anchor="middle" x="358" y="-64.5" font-family="Helvetica,sans-Serif" font-size="10.00">reader</text>
</a>
</g>
</g>
<!-- Node3&#45;&gt;Node4 -->
<g id="edge3" class="edge"><title>Node3&#45;&gt;Node4</title>
<path fill="none" stroke="midnightblue" d="M302.746,-77.0079C314.362,-74.8652 326.165,-72.6879 335.783,-70.9138"/>
<polygon fill="midnightblue" stroke="midnightblue" points="301.846,-73.615 292.646,-78.871 303.115,-80.4988 301.846,-73.615"/>
</g>
<!-- Node6 -->
<g id="node6" class="node"><title>Node6</title>
<g id="a_node6"><a xlink:href="reader_8c.html#a07addfee5457e48ddb310769dd0e39af" target="_top" xlink:title="read_declarations">
<polygon fill="white" stroke="black" points="206.5,-38.5 206.5,-57.5 299.5,-57.5 299.5,-38.5 206.5,-38.5"/>
<text text-anchor="middle" x="253" y="-45.5" font-family="Helvetica,sans-Serif" font-size="10.00">read_declarations</text>
</a>
</g>
</g>
<!-- Node5&#45;&gt;Node6 -->
<g id="edge5" class="edge"><title>Node5&#45;&gt;Node6</title>
<path fill="none" stroke="midnightblue" d="M179.764,-48C188.565,-48 197.669,-48 206.325,-48"/>
<polygon fill="midnightblue" stroke="midnightblue" points="179.616,-44.5001 169.616,-48 179.616,-51.5001 179.616,-44.5001"/>
</g>
<!-- Node6&#45;&gt;Node4 -->
<g id="edge6" class="edge"><title>Node6&#45;&gt;Node4</title>
<path fill="none" stroke="midnightblue" d="M309.836,-58.2999C319.091,-60.007 328.157,-61.6795 335.829,-63.0947"/>
<polygon fill="midnightblue" stroke="midnightblue" points="310.246,-54.8165 299.777,-56.4443 308.976,-61.7004 310.246,-54.8165"/>
</g>
<!-- Node7&#45;&gt;Node6 -->
<g id="edge8" class="edge"><title>Node7&#45;&gt;Node6</title>
<path fill="none" stroke="midnightblue" d="M170.045,-22.6804C186.664,-27.8148 205.532,-33.6441 220.972,-38.4141"/>
<polygon fill="midnightblue" stroke="midnightblue" points="170.626,-19.1968 160.038,-19.589 168.559,-25.8849 170.626,-19.1968"/>
</g>
</g>
</svg>
