<?xml version="1.0" encoding="UTF-8" standalone="no"?>
<!DOCTYPE svg PUBLIC "-//W3C//DTD SVG 1.1//EN"
 "http://www.w3.org/Graphics/SVG/1.1/DTD/svg11.dtd">
<!-- Generated by graphviz version 2.36.0 (20140111.2315)
 -->
<!-- Title: copy_action Pages: 1 -->
<!--zoomable 674 -->
<svg id="main" version="1.1" xmlns="http://www.w3.org/2000/svg" xmlns:xlink="http://www.w3.org/1999/xlink" xml:space="preserve" onload="init(evt)">
<style type="text/css"><![CDATA[
.edge:hover path { stroke: red; }
.edge:hover polygon { stroke: red; fill: red; }
]]></style>
<script type="text/javascript"><![CDATA[
var edges = document.getElementsByTagName('g');
if (edges && edges.length) {
  for (var i=0;i<edges.length;i++) {
    if (edges[i].id.substr(0,4)=='edge') {
      edges[i].setAttribute('class','edge');
    }
  }
}
]]></script>
        <defs>
                <circle id="rim" cx="0" cy="0" r="7"/>
                <circle id="rim2" cx="0" cy="0" r="3.5"/>
                <g id="zoomPlus">
                        <use xlink:href="#rim" fill="#404040">
                                <set attributeName="fill" to="#808080" begin="zoomplus.mouseover" end="zoomplus.mouseout"/>
                        </use>
                        <path d="M-4,0h8M0,-4v8" fill="none" stroke="white" stroke-width="1.5" pointer-events="none"/>
                </g>
                <g id="zoomMin">
                        <use xlink:href="#rim" fill="#404040">
                                <set attributeName="fill" to="#808080" begin="zoomminus.mouseover" end="zoomminus.mouseout"/>
                        </use>
                        <path d="M-4,0h8" fill="none" stroke="white" stroke-width="1.5" pointer-events="none"/>
                </g>
                <g id="dirArrow">
                        <path fill="none" stroke="white" stroke-width="1.5" d="M0,-3.0v7 M-2.5,-0.5L0,-3.0L2.5,-0.5"/>
                </g>
               <g id="resetDef">
                       <use xlink:href="#rim2" fill="#404040">
                               <set attributeName="fill" to="#808080" begin="reset.mouseover" end="reset.mouseout"/>
                       </use>
               </g>
        </defs>

<script type="text/javascript">
var viewWidth = 666;
var viewHeight = 674;
var sectionId = 'dynsection-9';
</script>
<script xlink:href="svgpan.js"/>
<svg id="graph" class="graph">
<g id="viewport">
<title>copy_action</title>
<polygon fill="white" stroke="none" points="-4,4 -4,-670 662,-670 662,4 -4,4"/>
<!-- Node1 -->
<g id="node1" class="node"><title>Node1</title>
<polygon fill="#bfbfbf" stroke="black" points="0.5,-266.5 0.5,-285.5 69.5,-285.5 69.5,-266.5 0.5,-266.5"/>
<text text-anchor="middle" x="35" y="-273.5" font-family="Helvetica,sans-Serif" font-size="10.00">copy_action</text>
</g>
<!-- Node2 -->
<g id="node2" class="node"><title>Node2</title>
<g id="a_node2"><a xlink:href="group__eh.html#gaa7751e4500f0f24aba5df3a1da874632" target="_top" xlink:title="dollar_error">
<polygon fill="white" stroke="black" points="249.5,-646.5 249.5,-665.5 314.5,-665.5 314.5,-646.5 249.5,-646.5"/>
<text text-anchor="middle" x="282" y="-653.5" font-family="Helvetica,sans-Serif" font-size="10.00">dollar_error</text>
</a>
</g>
</g>
<!-- Node1&#45;&gt;Node2 -->
<g id="edge1" class="edge"><title>Node1&#45;&gt;Node2</title>
<path fill="none" stroke="midnightblue" d="M36.9575,-285.588C41.849,-332.857 65.412,-540.738 106,-589 139.324,-628.625 198.847,-644.876 239.117,-651.501"/>
<polygon fill="midnightblue" stroke="midnightblue" points="238.754,-654.986 249.165,-653.022 239.801,-648.065 238.754,-654.986"/>
</g>
<!-- Node5 -->
<g id="node5" class="node"><title>Node5</title>
<g id="a_node5"><a xlink:href="group__eh.html#gae78233a24912be6e0e72a1446c3058cd" target="_top" xlink:title="dollar_warning">
<polygon fill="white" stroke="black" points="106.5,-38.5 106.5,-57.5 185.5,-57.5 185.5,-38.5 106.5,-38.5"/>
<text text-anchor="middle" x="146" y="-45.5" font-family="Helvetica,sans-Serif" font-size="10.00">dollar_warning</text>
</a>
</g>
</g>
<!-- Node1&#45;&gt;Node5 -->
<g id="edge4" class="edge"><title>Node1&#45;&gt;Node5</title>
<path fill="none" stroke="midnightblue" d="M36.6354,-266.393C39.2435,-234.222 51.7316,-128.835 106,-67 107.025,-65.8325 108.137,-64.7298 109.317,-63.689"/>
<polygon fill="midnightblue" stroke="midnightblue" points="111.688,-66.301 117.859,-57.6886 107.664,-60.5731 111.688,-66.301"/>
</g>
<!-- Node6 -->
<g id="node6" class="node"><title>Node6</title>
<g id="a_node6"><a xlink:href="reader_8c.html#a416a4e795e86e5666f1a734793f9636e" target="_top" xlink:title="dup_line">
<polygon fill="white" stroke="black" points="255.5,-228.5 255.5,-247.5 308.5,-247.5 308.5,-228.5 255.5,-228.5"/>
<text text-anchor="middle" x="282" y="-235.5" font-family="Helvetica,sans-Serif" font-size="10.00">dup_line</text>
</a>
</g>
</g>
<!-- Node1&#45;&gt;Node6 -->
<g id="edge5" class="edge"><title>Node1&#45;&gt;Node6</title>
<path fill="none" stroke="midnightblue" d="M69.5525,-270.796C115.608,-263.653 198.055,-250.865 245.241,-243.546"/>
<polygon fill="midnightblue" stroke="midnightblue" points="245.965,-246.976 255.31,-241.985 244.892,-240.059 245.965,-246.976"/>
</g>
<!-- Node8 -->
<g id="node8" class="node"><title>Node8</title>
<g id="a_node8"><a xlink:href="reader_8c.html#a204317aa3b6d154f1abff12df35953df" target="_top" xlink:title="get_line">
<polygon fill="white" stroke="black" points="392,-456.5 392,-475.5 442,-475.5 442,-456.5 392,-456.5"/>
<text text-anchor="middle" x="417" y="-463.5" font-family="Helvetica,sans-Serif" font-size="10.00">get_line</text>
</a>
</g>
</g>
<!-- Node1&#45;&gt;Node8 -->
<g id="edge8" class="edge"><title>Node1&#45;&gt;Node8</title>
<path fill="none" stroke="midnightblue" d="M42.6717,-285.832C64.2293,-316.632 135.652,-411.313 222,-447 274.683,-468.774 342.03,-470.12 381.933,-468.493"/>
<polygon fill="midnightblue" stroke="midnightblue" points="382.128,-471.988 391.943,-467.999 381.783,-464.997 382.128,-471.988"/>
</g>
<!-- Node9 -->
<g id="node9" class="node"><title>Node9</title>
<g id="a_node9"><a xlink:href="reader_8c.html#aceeb8c6c5418f8ac9c9b5666f4047ae3" target="_top" xlink:title="get_number">
<polygon fill="white" stroke="black" points="112,-0.5 112,-19.5 180,-19.5 180,-0.5 112,-0.5"/>
<text text-anchor="middle" x="146" y="-7.5" font-family="Helvetica,sans-Serif" font-size="10.00">get_number</text>
</a>
</g>
</g>
<!-- Node1&#45;&gt;Node9 -->
<g id="edge10" class="edge"><title>Node1&#45;&gt;Node9</title>
<path fill="none" stroke="midnightblue" d="M36.0473,-266.214C36.7265,-230.236 43.6426,-103.515 106,-29 106.997,-27.8087 108.086,-26.6861 109.247,-25.6287"/>
<polygon fill="midnightblue" stroke="midnightblue" points="111.622,-28.2326 117.712,-19.5629 107.545,-22.5427 111.622,-28.2326"/>
</g>
<!-- Node10 -->
<g id="node10" class="node"><title>Node10</title>
<g id="a_node10"><a xlink:href="reader_8c.html#a0d5a7fe7641edf38078ba5e99536772d" target="_top" xlink:title="get_tag">
<polygon fill="white" stroke="black" points="121.5,-323.5 121.5,-342.5 170.5,-342.5 170.5,-323.5 121.5,-323.5"/>
<text text-anchor="middle" x="146" y="-330.5" font-family="Helvetica,sans-Serif" font-size="10.00">get_tag</text>
</a>
</g>
</g>
<!-- Node1&#45;&gt;Node10 -->
<g id="edge11" class="edge"><title>Node1&#45;&gt;Node10</title>
<path fill="none" stroke="midnightblue" d="M54.4904,-285.669C71.8199,-294.731 97.9414,-308.391 117.675,-318.711"/>
<polygon fill="midnightblue" stroke="midnightblue" points="116.299,-321.941 126.783,-323.474 119.543,-315.738 116.299,-321.941"/>
</g>
<!-- Node16 -->
<g id="node16" class="node"><title>Node16</title>
<g id="a_node16"><a xlink:href="reader_8c.html#ac59b5c8d9dca9fc4b2614fd186ec6c55" target="_top" xlink:title="insert_empty_rule">
<polygon fill="white" stroke="black" points="235,-266.5 235,-285.5 329,-285.5 329,-266.5 235,-266.5"/>
<text text-anchor="middle" x="282" y="-273.5" font-family="Helvetica,sans-Serif" font-size="10.00">insert_empty_rule</text>
</a>
</g>
</g>
<!-- Node1&#45;&gt;Node16 -->
<g id="edge24" class="edge"><title>Node1&#45;&gt;Node16</title>
<path fill="none" stroke="midnightblue" d="M69.5525,-276C109.477,-276 176.752,-276 224.694,-276"/>
<polygon fill="midnightblue" stroke="midnightblue" points="224.916,-279.5 234.916,-276 224.916,-272.5 224.916,-279.5"/>
</g>
<!-- Node20 -->
<g id="node20" class="node"><title>Node20</title>
<g id="a_node20"><a xlink:href="group__eh.html#ga69399ed8e91ea487b50fb9ce29d9dfe7" target="_top" xlink:title="unknown_rhs">
<polygon fill="white" stroke="black" points="501,-190.5 501,-209.5 575,-209.5 575,-190.5 501,-190.5"/>
<text text-anchor="middle" x="538" y="-197.5" font-family="Helvetica,sans-Serif" font-size="10.00">unknown_rhs</text>
</a>
</g>
</g>
<!-- Node1&#45;&gt;Node20 -->
<g id="edge30" class="edge"><title>Node1&#45;&gt;Node20</title>
<path fill="none" stroke="midnightblue" d="M50.6044,-266.293C80.9473,-246.777 153.684,-203.345 222,-188 315.575,-166.981 428.647,-180.362 490.674,-190.896"/>
<polygon fill="midnightblue" stroke="midnightblue" points="490.093,-194.348 500.546,-192.623 491.299,-187.452 490.093,-194.348"/>
</g>
<!-- Node21 -->
<g id="node21" class="node"><title>Node21</title>
<g id="a_node21"><a xlink:href="group__eh.html#ga150e9a905e4ecaf20109c91b6de62383" target="_top" xlink:title="unterminated_action">
<polygon fill="white" stroke="black" points="230,-608.5 230,-627.5 334,-627.5 334,-608.5 230,-608.5"/>
<text text-anchor="middle" x="282" y="-615.5" font-family="Helvetica,sans-Serif" font-size="10.00">unterminated_action</text>
</a>
</g>
</g>
<!-- Node1&#45;&gt;Node21 -->
<g id="edge32" class="edge"><title>Node1&#45;&gt;Node21</title>
<path fill="none" stroke="midnightblue" d="M35.5322,-285.711C34.1999,-324.454 34.3631,-469.845 106,-552 134.797,-585.025 181.859,-601.572 219.929,-609.837"/>
<polygon fill="midnightblue" stroke="midnightblue" points="219.404,-613.302 229.901,-611.86 220.796,-606.441 219.404,-613.302"/>
</g>
<!-- Node22 -->
<g id="node22" class="node"><title>Node22</title>
<g id="a_node22"><a xlink:href="group__eh.html#ga81c4e76cf37319065a21afcaec1b8ab1" target="_top" xlink:title="unterminated_comment">
<polygon fill="white" stroke="black" points="222.5,-570.5 222.5,-589.5 341.5,-589.5 341.5,-570.5 222.5,-570.5"/>
<text text-anchor="middle" x="282" y="-577.5" font-family="Helvetica,sans-Serif" font-size="10.00">unterminated_comment</text>
</a>
</g>
</g>
<!-- Node1&#45;&gt;Node22 -->
<g id="edge35" class="edge"><title>Node1&#45;&gt;Node22</title>
<path fill="none" stroke="midnightblue" d="M35.9415,-285.685C36.2514,-321.261 42.042,-446.272 106,-516 133.384,-545.854 175.852,-561.815 212.094,-570.331"/>
<polygon fill="midnightblue" stroke="midnightblue" points="211.615,-573.81 222.133,-572.541 213.12,-566.973 211.615,-573.81"/>
</g>
<!-- Node23 -->
<g id="node23" class="node"><title>Node23</title>
<g id="a_node23"><a xlink:href="group__eh.html#ga1be74faa1a912de2fd380aa9a4de6eb2" target="_top" xlink:title="unterminated_string">
<polygon fill="white" stroke="black" points="231,-532.5 231,-551.5 333,-551.5 333,-532.5 231,-532.5"/>
<text text-anchor="middle" x="282" y="-539.5" font-family="Helvetica,sans-Serif" font-size="10.00">unterminated_string</text>
</a>
</g>
</g>
<!-- Node1&#45;&gt;Node23 -->
<g id="edge38" class="edge"><title>Node1&#45;&gt;Node23</title>
<path fill="none" stroke="midnightblue" d="M36.4849,-285.588C38.6168,-317.656 49.7749,-422.384 106,-480 136.377,-511.129 183.354,-526.668 220.99,-534.402"/>
<polygon fill="midnightblue" stroke="midnightblue" points="220.356,-537.845 230.837,-536.295 221.677,-530.97 220.356,-537.845"/>
</g>
<!-- Node24 -->
<g id="node24" class="node"><title>Node24</title>
<g id="a_node24"><a xlink:href="group__eh.html#gaf3c15789267651b6cf6063963c3e1a47" target="_top" xlink:title="untyped_lhs">
<polygon fill="white" stroke="black" points="503.5,-152.5 503.5,-171.5 572.5,-171.5 572.5,-152.5 503.5,-152.5"/>
<text text-anchor="middle" x="538" y="-159.5" font-family="Helvetica,sans-Serif" font-size="10.00">untyped_lhs</text>
</a>
</g>
</g>
<!-- Node1&#45;&gt;Node24 -->
<g id="edge41" class="edge"><title>Node1&#45;&gt;Node24</title>
<path fill="none" stroke="midnightblue" d="M41.3122,-266.439C51.4523,-249.155 75.3158,-212.852 106,-195 230.722,-122.437 411.228,-140.259 493.363,-153.628"/>
<polygon fill="midnightblue" stroke="midnightblue" points="492.907,-157.1 503.35,-155.311 494.071,-150.198 492.907,-157.1"/>
</g>
<!-- Node25 -->
<g id="node25" class="node"><title>Node25</title>
<g id="a_node25"><a xlink:href="group__eh.html#ga379bc1d52c8597f3914fc3937a6fecda" target="_top" xlink:title="untyped_rhs">
<polygon fill="white" stroke="black" points="111,-76.5 111,-95.5 181,-95.5 181,-76.5 111,-76.5"/>
<text text-anchor="middle" x="146" y="-83.5" font-family="Helvetica,sans-Serif" font-size="10.00">untyped_rhs</text>
</a>
</g>
</g>
<!-- Node1&#45;&gt;Node25 -->
<g id="edge43" class="edge"><title>Node1&#45;&gt;Node25</title>
<path fill="none" stroke="midnightblue" d="M37.9079,-266.285C43.7143,-238.859 63.4349,-159.612 106,-110 108.795,-106.742 112.147,-103.79 115.695,-101.161"/>
<polygon fill="midnightblue" stroke="midnightblue" points="117.713,-104.023 124.164,-95.6183 113.88,-98.1662 117.713,-104.023"/>
</g>
<!-- Node3 -->
<g id="node3" class="node"><title>Node3</title>
<g id="a_node3"><a xlink:href="group__eh.html#ga3c01cc3498c6cb3655588b53da0e8f7e" target="_top" xlink:title="print_pos">
<polygon fill="white" stroke="black" points="389,-570.5 389,-589.5 445,-589.5 445,-570.5 389,-570.5"/>
<text text-anchor="middle" x="417" y="-577.5" font-family="Helvetica,sans-Serif" font-size="10.00">print_pos</text>
</a>
</g>
</g>
<!-- Node2&#45;&gt;Node3 -->
<g id="edge2" class="edge"><title>Node2&#45;&gt;Node3</title>
<path fill="none" stroke="midnightblue" d="M314.742,-647.982C323.808,-645.11 333.522,-641.456 342,-637 362.879,-626.025 383.921,-609.121 398.201,-596.568"/>
<polygon fill="midnightblue" stroke="midnightblue" points="400.679,-599.046 405.774,-589.757 395.998,-593.841 400.679,-599.046"/>
</g>
<!-- Node4 -->
<g id="node4" class="node"><title>Node4</title>
<g id="a_node4"><a xlink:href="group__eh.html#ga67b6b9fd02aac96bef4297b1e6a1789a" target="_top" xlink:title="Shutdown function. ">
<polygon fill="white" stroke="black" points="620,-437.5 620,-456.5 658,-456.5 658,-437.5 620,-437.5"/>
<text text-anchor="middle" x="639" y="-444.5" font-family="Helvetica,sans-Serif" font-size="10.00">done</text>
</a>
</g>
</g>
<!-- Node2&#45;&gt;Node4 -->
<g id="edge3" class="edge"><title>Node2&#45;&gt;Node4</title>
<path fill="none" stroke="midnightblue" d="M314.642,-660.191C375.383,-666.331 508.943,-670.321 584,-600 622.431,-563.994 633.53,-498.977 636.721,-466.527"/>
<polygon fill="midnightblue" stroke="midnightblue" points="640.214,-466.763 637.552,-456.508 633.238,-466.184 640.214,-466.763"/>
</g>
<!-- Node7 -->
<g id="node7" class="node"><title>Node7</title>
<g id="a_node7"><a xlink:href="group__eh.html#ga03b3d711852aa32c4076f12ea7bb93a4" target="_top" xlink:title="no_space">
<polygon fill="white" stroke="black" points="508.5,-380.5 508.5,-399.5 567.5,-399.5 567.5,-380.5 508.5,-380.5"/>
<text text-anchor="middle" x="538" y="-387.5" font-family="Helvetica,sans-Serif" font-size="10.00">no_space</text>
</a>
</g>
</g>
<!-- Node6&#45;&gt;Node7 -->
<g id="edge6" class="edge"><title>Node6&#45;&gt;Node7</title>
<path fill="none" stroke="midnightblue" d="M308.756,-234.177C344.709,-230.223 410.621,-228.132 456,-257 477.706,-270.808 511.904,-337.589 528.025,-370.951"/>
<polygon fill="midnightblue" stroke="midnightblue" points="524.945,-372.622 532.414,-380.136 531.261,-369.604 524.945,-372.622"/>
</g>
<!-- Node7&#45;&gt;Node4 -->
<g id="edge7" class="edge"><title>Node7&#45;&gt;Node4</title>
<path fill="none" stroke="midnightblue" d="M555.794,-399.669C571.391,-408.649 594.828,-422.143 612.692,-432.429"/>
<polygon fill="midnightblue" stroke="midnightblue" points="611.041,-435.517 621.454,-437.474 614.534,-429.451 611.041,-435.517"/>
</g>
<!-- Node8&#45;&gt;Node7 -->
<g id="edge9" class="edge"><title>Node8&#45;&gt;Node7</title>
<path fill="none" stroke="midnightblue" d="M433.179,-456.449C440.141,-452.06 448.497,-446.778 456,-442 475.324,-429.695 497.181,-415.656 513.316,-405.27"/>
<polygon fill="midnightblue" stroke="midnightblue" points="515.58,-407.975 522.092,-399.617 511.79,-402.09 515.58,-407.975"/>
</g>
<!-- Node10&#45;&gt;Node6 -->
<g id="edge12" class="edge"><title>Node10&#45;&gt;Node6</title>
<path fill="none" stroke="midnightblue" d="M153.975,-323.373C166.068,-307.348 192.48,-275.172 222,-257 229.232,-252.548 237.611,-249.036 245.744,-246.306"/>
<polygon fill="midnightblue" stroke="midnightblue" points="246.899,-249.614 255.448,-243.355 244.862,-242.916 246.899,-249.614"/>
</g>
<!-- Node10&#45;&gt;Node7 -->
<g id="edge22" class="edge"><title>Node10&#45;&gt;Node7</title>
<path fill="none" stroke="midnightblue" d="M170.613,-335.772C215.813,-341.373 312.679,-354.889 342,-371 362.389,-382.203 356.629,-399.808 378,-409 409.846,-422.698 421.563,-412.985 456,-409 470.064,-407.373 485.232,-404.206 498.598,-400.918"/>
<polygon fill="midnightblue" stroke="midnightblue" points="499.6,-404.274 508.419,-398.403 497.863,-397.493 499.6,-404.274"/>
</g>
<!-- Node11 -->
<g id="node11" class="node"><title>Node11</title>
<g id="a_node11"><a xlink:href="reader_8c.html#a11446424d65669df0f3a9e3b1cca57fa" target="_top" xlink:title="nextc">
<polygon fill="white" stroke="red" points="261.5,-418.5 261.5,-437.5 302.5,-437.5 302.5,-418.5 261.5,-418.5"/>
<text text-anchor="middle" x="282" y="-425.5" font-family="Helvetica,sans-Serif" font-size="10.00">nextc</text>
</a>
</g>
</g>
<!-- Node10&#45;&gt;Node11 -->
<g id="edge13" class="edge"><title>Node10&#45;&gt;Node11</title>
<path fill="none" stroke="midnightblue" d="M153.975,-342.627C166.068,-358.652 192.48,-390.828 222,-409 230.978,-414.526 241.725,-418.606 251.572,-421.536"/>
<polygon fill="midnightblue" stroke="midnightblue" points="250.83,-424.961 261.397,-424.186 252.653,-418.202 250.83,-424.961"/>
</g>
<!-- Node12 -->
<g id="node12" class="node"><title>Node12</title>
<g id="a_node12"><a xlink:href="group__eh.html#ga65962bc9ddf21cd2dc0b5f6b7dcb35fc" target="_top" xlink:title="unexpected_EOF">
<polygon fill="white" stroke="black" points="492,-266.5 492,-285.5 584,-285.5 584,-266.5 492,-266.5"/>
<text text-anchor="middle" x="538" y="-273.5" font-family="Helvetica,sans-Serif" font-size="10.00">unexpected_EOF</text>
</a>
</g>
</g>
<!-- Node10&#45;&gt;Node12 -->
<g id="edge15" class="edge"><title>Node10&#45;&gt;Node12</title>
<path fill="none" stroke="midnightblue" d="M149.87,-323.299C157.312,-300.133 179.668,-241.822 222,-219 313.628,-169.602 356.761,-197.579 456,-229 478.027,-235.974 500.559,-249.689 516.248,-260.511"/>
<polygon fill="midnightblue" stroke="midnightblue" points="514.461,-263.535 524.639,-266.476 518.517,-257.829 514.461,-263.535"/>
</g>
<!-- Node13 -->
<g id="node13" class="node"><title>Node13</title>
<g id="a_node13"><a xlink:href="group__eh.html#ga3abdd7162e1bf8338bfc5c31c590ffe1" target="_top" xlink:title="illegal_tag">
<polygon fill="white" stroke="black" points="252,-494.5 252,-513.5 312,-513.5 312,-494.5 252,-494.5"/>
<text text-anchor="middle" x="282" y="-501.5" font-family="Helvetica,sans-Serif" font-size="10.00">illegal_tag</text>
</a>
</g>
</g>
<!-- Node10&#45;&gt;Node13 -->
<g id="edge17" class="edge"><title>Node10&#45;&gt;Node13</title>
<path fill="none" stroke="midnightblue" d="M152.368,-342.65C163.856,-362.932 192.211,-411.073 222,-447 234.113,-461.609 249.601,-476.453 261.669,-487.329"/>
<polygon fill="midnightblue" stroke="midnightblue" points="259.588,-490.161 269.394,-494.173 264.23,-484.922 259.588,-490.161"/>
</g>
<!-- Node14 -->
<g id="node14" class="node"><title>Node14</title>
<g id="a_node14"><a xlink:href="reader_8c.html#a04707e6fc9527eaf37d68dafdc9483a9" target="_top" xlink:title="cachec">
<polygon fill="white" stroke="black" points="393,-380.5 393,-399.5 441,-399.5 441,-380.5 393,-380.5"/>
<text text-anchor="middle" x="417" y="-387.5" font-family="Helvetica,sans-Serif" font-size="10.00">cachec</text>
</a>
</g>
</g>
<!-- Node10&#45;&gt;Node14 -->
<g id="edge20" class="edge"><title>Node10&#45;&gt;Node14</title>
<path fill="none" stroke="midnightblue" d="M170.579,-328.477C208.352,-322.334 284.064,-314.605 342,-338 362.126,-346.127 360.12,-358.694 378,-371 380.258,-372.554 382.66,-374.057 385.119,-375.491"/>
<polygon fill="midnightblue" stroke="midnightblue" points="383.643,-378.672 394.104,-380.352 386.974,-372.515 383.643,-378.672"/>
</g>
<!-- Node15 -->
<g id="node15" class="node"><title>Node15</title>
<g id="a_node15"><a xlink:href="defs_8h.html#add539a5755e4c4070b0c8ca97477fe47" target="_top" xlink:title="strcpy">
<polygon fill="white" stroke="black" points="260,-380.5 260,-399.5 304,-399.5 304,-380.5 260,-380.5"/>
<text text-anchor="middle" x="282" y="-387.5" font-family="Helvetica,sans-Serif" font-size="10.00">strcpy</text>
</a>
</g>
</g>
<!-- Node10&#45;&gt;Node15 -->
<g id="edge23" class="edge"><title>Node10&#45;&gt;Node15</title>
<path fill="none" stroke="midnightblue" d="M168.267,-342.548C183.244,-349.226 203.791,-358.292 222,-366 231.198,-369.894 241.251,-374.028 250.41,-377.747"/>
<polygon fill="midnightblue" stroke="midnightblue" points="249.332,-381.087 259.915,-381.59 251.956,-374.597 249.332,-381.087"/>
</g>
<!-- Node11&#45;&gt;Node8 -->
<g id="edge14" class="edge"><title>Node11&#45;&gt;Node8</title>
<path fill="none" stroke="midnightblue" d="M302.625,-433.607C323.455,-439.559 356.771,-449.078 381.909,-456.26"/>
<polygon fill="midnightblue" stroke="midnightblue" points="381.203,-459.698 391.78,-459.08 383.126,-452.967 381.203,-459.698"/>
</g>
<!-- Node12&#45;&gt;Node4 -->
<g id="edge16" class="edge"><title>Node12&#45;&gt;Node4</title>
<path fill="none" stroke="midnightblue" d="M544.606,-285.684C560.534,-313.195 606.254,-392.166 627.238,-428.411"/>
<polygon fill="midnightblue" stroke="midnightblue" points="624.416,-430.522 632.455,-437.423 630.474,-427.015 624.416,-430.522"/>
</g>
<!-- Node13&#45;&gt;Node3 -->
<g id="edge18" class="edge"><title>Node13&#45;&gt;Node3</title>
<path fill="none" stroke="midnightblue" d="M312.014,-511.171C321.831,-514.159 332.665,-518.093 342,-523 362.879,-533.975 383.921,-550.879 398.201,-563.432"/>
<polygon fill="midnightblue" stroke="midnightblue" points="395.998,-566.159 405.774,-570.243 400.679,-560.954 395.998,-566.159"/>
</g>
<!-- Node13&#45;&gt;Node4 -->
<g id="edge19" class="edge"><title>Node13&#45;&gt;Node4</title>
<path fill="none" stroke="midnightblue" d="M312.194,-501.659C346.679,-498.694 405.718,-492.991 456,-485 510.746,-476.299 573.945,-462.171 609.619,-453.813"/>
<polygon fill="midnightblue" stroke="midnightblue" points="610.838,-457.121 619.766,-451.417 609.23,-450.309 610.838,-457.121"/>
</g>
<!-- Node14&#45;&gt;Node7 -->
<g id="edge21" class="edge"><title>Node14&#45;&gt;Node7</title>
<path fill="none" stroke="midnightblue" d="M441.227,-390C457.435,-390 479.45,-390 498.286,-390"/>
<polygon fill="midnightblue" stroke="midnightblue" points="498.366,-393.5 508.366,-390 498.366,-386.5 498.366,-393.5"/>
</g>
<!-- Node17 -->
<g id="node17" class="node"><title>Node17</title>
<g id="a_node17"><a xlink:href="defs_8h.html#ae2d24c742f22bea84ba3c02349ca8e9b" target="_top" xlink:title="make_bucket">
<polygon fill="white" stroke="black" points="379.5,-266.5 379.5,-285.5 454.5,-285.5 454.5,-266.5 379.5,-266.5"/>
<text text-anchor="middle" x="417" y="-273.5" font-family="Helvetica,sans-Serif" font-size="10.00">make_bucket</text>
</a>
</g>
</g>
<!-- Node16&#45;&gt;Node17 -->
<g id="edge25" class="edge"><title>Node16&#45;&gt;Node17</title>
<path fill="none" stroke="midnightblue" d="M329.144,-276C342.049,-276 356.087,-276 369.04,-276"/>
<polygon fill="midnightblue" stroke="midnightblue" points="369.152,-279.5 379.152,-276 369.152,-272.5 369.152,-279.5"/>
</g>
<!-- Node18 -->
<g id="node18" class="node"><title>Node18</title>
<g id="a_node18"><a xlink:href="reader_8c.html#a2d5a55a1a526ac853c3234ea51ee18f8" target="_top" xlink:title="expand_items">
<polygon fill="white" stroke="black" points="378.5,-342.5 378.5,-361.5 455.5,-361.5 455.5,-342.5 378.5,-342.5"/>
<text text-anchor="middle" x="417" y="-349.5" font-family="Helvetica,sans-Serif" font-size="10.00">expand_items</text>
</a>
</g>
</g>
<!-- Node16&#45;&gt;Node18 -->
<g id="edge26" class="edge"><title>Node16&#45;&gt;Node18</title>
<path fill="none" stroke="midnightblue" d="M312.216,-285.52C322.05,-289.33 332.842,-294.206 342,-300 360.342,-311.606 360.12,-320.694 378,-333 380.258,-334.554 382.66,-336.057 385.119,-337.491"/>
<polygon fill="midnightblue" stroke="midnightblue" points="383.643,-340.672 394.104,-342.352 386.974,-334.515 383.643,-340.672"/>
</g>
<!-- Node19 -->
<g id="node19" class="node"><title>Node19</title>
<g id="a_node19"><a xlink:href="reader_8c.html#a26f803a6175f255b34b89151133c51f6" target="_top" xlink:title="expand_rules">
<polygon fill="white" stroke="black" points="380,-304.5 380,-323.5 454,-323.5 454,-304.5 380,-304.5"/>
<text text-anchor="middle" x="417" y="-311.5" font-family="Helvetica,sans-Serif" font-size="10.00">expand_rules</text>
</a>
</g>
</g>
<!-- Node16&#45;&gt;Node19 -->
<g id="edge28" class="edge"><title>Node16&#45;&gt;Node19</title>
<path fill="none" stroke="midnightblue" d="M316.562,-285.589C333.573,-290.449 354.432,-296.409 372.645,-301.613"/>
<polygon fill="midnightblue" stroke="midnightblue" points="371.872,-305.032 382.449,-304.414 373.796,-298.301 371.872,-305.032"/>
</g>
<!-- Node18&#45;&gt;Node7 -->
<g id="edge27" class="edge"><title>Node18&#45;&gt;Node7</title>
<path fill="none" stroke="midnightblue" d="M448.029,-361.589C463.31,-366.469 482.061,-372.456 498.402,-377.674"/>
<polygon fill="midnightblue" stroke="midnightblue" points="497.622,-381.099 508.212,-380.807 499.751,-374.431 497.622,-381.099"/>
</g>
<!-- Node19&#45;&gt;Node7 -->
<g id="edge29" class="edge"><title>Node19&#45;&gt;Node7</title>
<path fill="none" stroke="midnightblue" d="M438.417,-323.508C444.196,-326.386 450.428,-329.672 456,-333 477.3,-345.722 500.319,-362.21 516.355,-374.177"/>
<polygon fill="midnightblue" stroke="midnightblue" points="514.397,-377.084 524.49,-380.308 518.61,-371.494 514.397,-377.084"/>
</g>
<!-- Node20&#45;&gt;Node4 -->
<g id="edge31" class="edge"><title>Node20&#45;&gt;Node4</title>
<path fill="none" stroke="midnightblue" d="M548.611,-209.66C558.767,-220.374 574.588,-238.589 584,-257 613.721,-315.134 629.102,-391.891 635.034,-427.415"/>
<polygon fill="midnightblue" stroke="midnightblue" points="631.599,-428.102 636.634,-437.424 638.512,-426.996 631.599,-428.102"/>
</g>
<!-- Node21&#45;&gt;Node3 -->
<g id="edge33" class="edge"><title>Node21&#45;&gt;Node3</title>
<path fill="none" stroke="midnightblue" d="M316.562,-608.411C335.565,-602.981 359.371,-596.18 378.924,-590.593"/>
<polygon fill="midnightblue" stroke="midnightblue" points="380.061,-593.909 388.714,-587.796 378.137,-587.178 380.061,-593.909"/>
</g>
<!-- Node21&#45;&gt;Node4 -->
<g id="edge34" class="edge"><title>Node21&#45;&gt;Node4</title>
<path fill="none" stroke="midnightblue" d="M334.189,-624.087C400.9,-628.955 516.93,-626.453 584,-562 611.707,-535.374 626.712,-491.727 633.471,-466.558"/>
<polygon fill="midnightblue" stroke="midnightblue" points="636.902,-467.265 635.945,-456.713 630.113,-465.559 636.902,-467.265"/>
</g>
<!-- Node22&#45;&gt;Node3 -->
<g id="edge36" class="edge"><title>Node22&#45;&gt;Node3</title>
<path fill="none" stroke="midnightblue" d="M341.723,-580C354.296,-580 367.246,-580 378.74,-580"/>
<polygon fill="midnightblue" stroke="midnightblue" points="378.835,-583.5 388.835,-580 378.835,-576.5 378.835,-583.5"/>
</g>
<!-- Node22&#45;&gt;Node4 -->
<g id="edge37" class="edge"><title>Node22&#45;&gt;Node4</title>
<path fill="none" stroke="midnightblue" d="M309.735,-589.534C344.295,-600.38 405.977,-614.682 456,-599 532.447,-575.035 597.842,-499.666 624.81,-464.896"/>
<polygon fill="midnightblue" stroke="midnightblue" points="627.839,-466.694 631.099,-456.613 622.264,-462.461 627.839,-466.694"/>
</g>
<!-- Node23&#45;&gt;Node3 -->
<g id="edge39" class="edge"><title>Node23&#45;&gt;Node3</title>
<path fill="none" stroke="midnightblue" d="M316.562,-551.589C335.565,-557.019 359.371,-563.82 378.924,-569.407"/>
<polygon fill="midnightblue" stroke="midnightblue" points="378.137,-572.822 388.714,-572.204 380.061,-566.091 378.137,-572.822"/>
</g>
<!-- Node23&#45;&gt;Node4 -->
<g id="edge40" class="edge"><title>Node23&#45;&gt;Node4</title>
<path fill="none" stroke="midnightblue" d="M333.132,-537.836C394.261,-531.457 499.831,-516.197 584,-482 595.887,-477.171 607.976,-469.63 617.694,-462.784"/>
<polygon fill="midnightblue" stroke="midnightblue" points="619.879,-465.521 625.878,-456.788 615.742,-459.875 619.879,-465.521"/>
</g>
<!-- Node24&#45;&gt;Node4 -->
<g id="edge42" class="edge"><title>Node24&#45;&gt;Node4</title>
<path fill="none" stroke="midnightblue" d="M572.527,-171.685C576.872,-174.136 580.885,-177.193 584,-181 615.203,-219.133 631.462,-372.471 636.37,-427.347"/>
<polygon fill="midnightblue" stroke="midnightblue" points="632.898,-427.824 637.246,-437.485 639.872,-427.221 632.898,-427.824"/>
</g>
<!-- Node25&#45;&gt;Node4 -->
<g id="edge44" class="edge"><title>Node25&#45;&gt;Node4</title>
<path fill="none" stroke="midnightblue" d="M181.295,-78.4666C263.219,-62.6775 471.811,-35.8667 584,-143 625.246,-182.387 635.233,-366.327 637.429,-427.304"/>
<polygon fill="midnightblue" stroke="midnightblue" points="633.937,-427.61 637.763,-437.49 640.933,-427.381 633.937,-427.61"/>
</g>
</g>
</svg>
        <g id="navigator" transform="translate(0 0)" fill="#404254">
                <rect fill="#f2f5e9" fill-opacity="0.5" stroke="#606060" stroke-width=".5" x="0" y="0" width="60" height="60"/>
                <use id="zoomplus" xlink:href="#zoomPlus" x="17" y="9" onmousedown="handleZoom(evt,'in')"/>
                <use id="zoomminus" xlink:href="#zoomMin" x="42" y="9" onmousedown="handleZoom(evt,'out')"/>
                <use id="reset" xlink:href="#resetDef" x="30" y="36" onmousedown="handleReset()"/>
                <g id="arrowUp" xlink:href="#dirArrow" transform="translate(30 24)" onmousedown="handlePan(0,-1)">
                  <use xlink:href="#rim" fill="#404040">
                        <set attributeName="fill" to="#808080" begin="arrowUp.mouseover" end="arrowUp.mouseout"/>
                  </use>
                  <path fill="none" stroke="white" stroke-width="1.5" d="M0,-3.0v7 M-2.5,-0.5L0,-3.0L2.5,-0.5"/>
                </g>
                <g id="arrowRight" xlink:href="#dirArrow" transform="rotate(90) translate(36 -43)" onmousedown="handlePan(1,0)">
                  <use xlink:href="#rim" fill="#404040">
                        <set attributeName="fill" to="#808080" begin="arrowRight.mouseover" end="arrowRight.mouseout"/>
                  </use>
                  <path fill="none" stroke="white" stroke-width="1.5" d="M0,-3.0v7 M-2.5,-0.5L0,-3.0L2.5,-0.5"/>
                </g>
                <g id="arrowDown" xlink:href="#dirArrow" transform="rotate(180) translate(-30 -48)" onmousedown="handlePan(0,1)">
                  <use xlink:href="#rim" fill="#404040">
                        <set attributeName="fill" to="#808080" begin="arrowDown.mouseover" end="arrowDown.mouseout"/>
                  </use>
                  <path fill="none" stroke="white" stroke-width="1.5" d="M0,-3.0v7 M-2.5,-0.5L0,-3.0L2.5,-0.5"/>
                </g>
                <g id="arrowLeft" xlink:href="#dirArrow" transform="rotate(270) translate(-36 17)" onmousedown="handlePan(-1,0)">
                  <use xlink:href="#rim" fill="#404040">
                        <set attributeName="fill" to="#808080" begin="arrowLeft.mouseover" end="arrowLeft.mouseout"/>
                  </use>
                  <path fill="none" stroke="white" stroke-width="1.5" d="M0,-3.0v7 M-2.5,-0.5L0,-3.0L2.5,-0.5"/>
                </g>
        </g>
        <svg viewBox="0 0 15 15" width="100%" height="30px" preserveAspectRatio="xMaxYMin meet">
         <g id="arrow_out" transform="scale(0.3 0.3)">
          <a xlink:href="reader_8c_abb83807b1bba8d346650d3e4ae4e7425_cgraph_org.svg" target="_base">
           <rect id="button" ry="5" rx="5" y="6" x="6" height="38" width="38"
                fill="#f2f5e9" fill-opacity="0.5" stroke="#606060" stroke-width="1.0"/>
           <path id="arrow"
             d="M 11.500037,31.436501 C 11.940474,20.09759 22.043105,11.32322 32.158766,21.979434 L 37.068811,17.246167 C 37.068811,17.246167 37.088388,32 37.088388,32 L 22.160133,31.978069 C 22.160133,31.978069 26.997745,27.140456 26.997745,27.140456 C 18.528582,18.264221 13.291696,25.230495 11.500037,31.436501 z"
             style="fill:#404040;"/>
          </a>
         </g>
        </svg>
</svg>
