<?xml version="1.0" encoding="UTF-8" standalone="no"?>
<!DOCTYPE svg PUBLIC "-//W3C//DTD SVG 1.1//EN"
 "http://www.w3.org/Graphics/SVG/1.1/DTD/svg11.dtd">
<!-- Generated by graphviz version 2.36.0 (20140111.2315)
 -->
<!-- Title: nextc Pages: 1 -->
<svg width="492pt" height="123pt"
 viewBox="0.00 0.00 492.00 123.00" xmlns="http://www.w3.org/2000/svg" xmlns:xlink="http://www.w3.org/1999/xlink">
<g id="graph0" class="graph" transform="scale(1 1) rotate(0) translate(4 119)">
<title>nextc</title>
<polygon fill="white" stroke="none" points="-4,4 -4,-119 488,-119 488,4 -4,4"/>
<!-- Node1 -->
<g id="node1" class="node"><title>Node1</title>
<polygon fill="#bfbfbf" stroke="black" points="0.5,-76.5 0.5,-95.5 41.5,-95.5 41.5,-76.5 0.5,-76.5"/>
<text text-anchor="middle" x="21" y="-83.5" font-family="Helvetica,sans-Serif" font-size="10.00">nextc</text>
</g>
<!-- Node2 -->
<g id="node2" class="node"><title>Node2</title>
<g id="a_node2"><a xlink:href="reader_8c.html#a204317aa3b6d154f1abff12df35953df" target="_top" xlink:title="get_line">
<polygon fill="white" stroke="black" points="229,-95.5 229,-114.5 279,-114.5 279,-95.5 229,-95.5"/>
<text text-anchor="middle" x="254" y="-102.5" font-family="Helvetica,sans-Serif" font-size="10.00">get_line</text>
</a>
</g>
</g>
<!-- Node1&#45;&gt;Node2 -->
<g id="edge1" class="edge"><title>Node1&#45;&gt;Node2</title>
<path fill="none" stroke="midnightblue" d="M41.6949,-87.6199C81.0325,-90.8555 169.75,-98.1526 218.796,-102.187"/>
<polygon fill="midnightblue" stroke="midnightblue" points="218.662,-105.687 228.916,-103.019 219.236,-98.711 218.662,-105.687"/>
</g>
<!-- Node5 -->
<g id="node5" class="node"><title>Node5</title>
<g id="a_node5"><a xlink:href="reader_8c.html#ac812a775973bb1eb24e86256b2de6b8b" target="_top" xlink:title="skip_comment">
<polygon fill="white" stroke="black" points="78,-57.5 78,-76.5 158,-76.5 158,-57.5 78,-57.5"/>
<text text-anchor="middle" x="118" y="-64.5" font-family="Helvetica,sans-Serif" font-size="10.00">skip_comment</text>
</a>
</g>
</g>
<!-- Node1&#45;&gt;Node5 -->
<g id="edge4" class="edge"><title>Node1&#45;&gt;Node5</title>
<path fill="none" stroke="midnightblue" d="M41.6841,-82.0632C49.3471,-80.5306 58.5014,-78.6997 67.7445,-76.8511"/>
<polygon fill="midnightblue" stroke="midnightblue" points="68.6234,-80.2447 77.7428,-74.8514 67.2505,-73.3807 68.6234,-80.2447"/>
</g>
<!-- Node3 -->
<g id="node3" class="node"><title>Node3</title>
<g id="a_node3"><a xlink:href="group__eh.html#ga03b3d711852aa32c4076f12ea7bb93a4" target="_top" xlink:title="no_space">
<polygon fill="white" stroke="black" points="350.5,-76.5 350.5,-95.5 409.5,-95.5 409.5,-76.5 350.5,-76.5"/>
<text text-anchor="middle" x="380" y="-83.5" font-family="Helvetica,sans-Serif" font-size="10.00">no_space</text>
</a>
</g>
</g>
<!-- Node2&#45;&gt;Node3 -->
<g id="edge2" class="edge"><title>Node2&#45;&gt;Node3</title>
<path fill="none" stroke="midnightblue" d="M279.203,-101.292C296.488,-98.6429 320.112,-95.0232 340.036,-91.9703"/>
<polygon fill="midnightblue" stroke="midnightblue" points="340.71,-95.408 350.064,-90.4337 339.65,-88.4887 340.71,-95.408"/>
</g>
<!-- Node4 -->
<g id="node4" class="node"><title>Node4</title>
<g id="a_node4"><a xlink:href="group__eh.html#ga67b6b9fd02aac96bef4297b1e6a1789a" target="_top" xlink:title="Shutdown function. ">
<polygon fill="white" stroke="black" points="446,-57.5 446,-76.5 484,-76.5 484,-57.5 446,-57.5"/>
<text text-anchor="middle" x="465" y="-64.5" font-family="Helvetica,sans-Serif" font-size="10.00">done</text>
</a>
</g>
</g>
<!-- Node3&#45;&gt;Node4 -->
<g id="edge3" class="edge"><title>Node3&#45;&gt;Node4</title>
<path fill="none" stroke="midnightblue" d="M409.564,-79.4613C418.098,-77.5076 427.444,-75.3683 435.945,-73.4222"/>
<polygon fill="midnightblue" stroke="midnightblue" points="436.818,-76.8129 445.785,-71.1696 435.256,-69.9894 436.818,-76.8129"/>
</g>
<!-- Node5&#45;&gt;Node2 -->
<g id="edge7" class="edge"><title>Node5&#45;&gt;Node2</title>
<path fill="none" stroke="midnightblue" d="M152.814,-76.589C173.11,-82.3445 198.841,-89.6415 219.144,-95.3991"/>
<polygon fill="midnightblue" stroke="midnightblue" points="218.342,-98.8096 228.918,-98.1707 220.252,-92.0752 218.342,-98.8096"/>
</g>
<!-- Node6 -->
<g id="node6" class="node"><title>Node6</title>
<g id="a_node6"><a xlink:href="reader_8c.html#a416a4e795e86e5666f1a734793f9636e" target="_top" xlink:title="dup_line">
<polygon fill="white" stroke="black" points="227.5,-57.5 227.5,-76.5 280.5,-76.5 280.5,-57.5 227.5,-57.5"/>
<text text-anchor="middle" x="254" y="-64.5" font-family="Helvetica,sans-Serif" font-size="10.00">dup_line</text>
</a>
</g>
</g>
<!-- Node5&#45;&gt;Node6 -->
<g id="edge5" class="edge"><title>Node5&#45;&gt;Node6</title>
<path fill="none" stroke="midnightblue" d="M158.119,-67C176.716,-67 198.803,-67 216.985,-67"/>
<polygon fill="midnightblue" stroke="midnightblue" points="217.183,-70.5001 227.183,-67 217.183,-63.5001 217.183,-70.5001"/>
</g>
<!-- Node7 -->
<g id="node7" class="node"><title>Node7</title>
<g id="a_node7"><a xlink:href="group__eh.html#ga81c4e76cf37319065a21afcaec1b8ab1" target="_top" xlink:title="unterminated_comment">
<polygon fill="white" stroke="black" points="194.5,-19.5 194.5,-38.5 313.5,-38.5 313.5,-19.5 194.5,-19.5"/>
<text text-anchor="middle" x="254" y="-26.5" font-family="Helvetica,sans-Serif" font-size="10.00">unterminated_comment</text>
</a>
</g>
</g>
<!-- Node5&#45;&gt;Node7 -->
<g id="edge8" class="edge"><title>Node5&#45;&gt;Node7</title>
<path fill="none" stroke="midnightblue" d="M152.814,-57.411C170.033,-52.5281 191.164,-46.5357 209.573,-41.315"/>
<polygon fill="midnightblue" stroke="midnightblue" points="210.531,-44.6815 219.197,-38.5859 208.621,-37.947 210.531,-44.6815"/>
</g>
<!-- Node6&#45;&gt;Node3 -->
<g id="edge6" class="edge"><title>Node6&#45;&gt;Node3</title>
<path fill="none" stroke="midnightblue" d="M280.693,-70.9368C297.89,-73.5719 320.842,-77.0887 340.244,-80.0615"/>
<polygon fill="midnightblue" stroke="midnightblue" points="339.891,-83.5483 350.306,-81.6033 340.952,-76.6291 339.891,-83.5483"/>
</g>
<!-- Node7&#45;&gt;Node4 -->
<g id="edge10" class="edge"><title>Node7&#45;&gt;Node4</title>
<path fill="none" stroke="midnightblue" d="M307.47,-38.54C348.1,-45.9273 402.819,-55.8761 435.634,-61.8426"/>
<polygon fill="midnightblue" stroke="midnightblue" points="435.407,-65.3585 445.872,-63.7039 436.659,-58.4714 435.407,-65.3585"/>
</g>
<!-- Node8 -->
<g id="node8" class="node"><title>Node8</title>
<g id="a_node8"><a xlink:href="group__eh.html#ga3c01cc3498c6cb3655588b53da0e8f7e" target="_top" xlink:title="print_pos">
<polygon fill="white" stroke="black" points="352,-0.5 352,-19.5 408,-19.5 408,-0.5 352,-0.5"/>
<text text-anchor="middle" x="380" y="-7.5" font-family="Helvetica,sans-Serif" font-size="10.00">print_pos</text>
</a>
</g>
</g>
<!-- Node7&#45;&gt;Node8 -->
<g id="edge9" class="edge"><title>Node7&#45;&gt;Node8</title>
<path fill="none" stroke="midnightblue" d="M313.732,-20.0008C323.27,-18.5392 332.912,-17.0619 341.751,-15.7075"/>
<polygon fill="midnightblue" stroke="midnightblue" points="342.349,-19.1568 351.704,-14.1825 341.289,-12.2375 342.349,-19.1568"/>
</g>
</g>
</svg>
