<?xml version="1.0" encoding="UTF-8" standalone="no"?>
<!DOCTYPE svg PUBLIC "-//W3C//DTD SVG 1.1//EN"
 "http://www.w3.org/Graphics/SVG/1.1/DTD/svg11.dtd">
<!-- Generated by graphviz version 2.36.0 (20140111.2315)
 -->
<!-- Title: copy_ident Pages: 1 -->
<!--zoomable 180 -->
<svg id="main" version="1.1" xmlns="http://www.w3.org/2000/svg" xmlns:xlink="http://www.w3.org/1999/xlink" xml:space="preserve" onload="init(evt)">
<style type="text/css"><![CDATA[
.edge:hover path { stroke: red; }
.edge:hover polygon { stroke: red; fill: red; }
]]></style>
<script type="text/javascript"><![CDATA[
var edges = document.getElementsByTagName('g');
if (edges && edges.length) {
  for (var i=0;i<edges.length;i++) {
    if (edges[i].id.substr(0,4)=='edge') {
      edges[i].setAttribute('class','edge');
    }
  }
}
]]></script>
        <defs>
                <circle id="rim" cx="0" cy="0" r="7"/>
                <circle id="rim2" cx="0" cy="0" r="3.5"/>
                <g id="zoomPlus">
                        <use xlink:href="#rim" fill="#404040">
                                <set attributeName="fill" to="#808080" begin="zoomplus.mouseover" end="zoomplus.mouseout"/>
                        </use>
                        <path d="M-4,0h8M0,-4v8" fill="none" stroke="white" stroke-width="1.5" pointer-events="none"/>
                </g>
                <g id="zoomMin">
                        <use xlink:href="#rim" fill="#404040">
                                <set attributeName="fill" to="#808080" begin="zoomminus.mouseover" end="zoomminus.mouseout"/>
                        </use>
                        <path d="M-4,0h8" fill="none" stroke="white" stroke-width="1.5" pointer-events="none"/>
                </g>
                <g id="dirArrow">
                        <path fill="none" stroke="white" stroke-width="1.5" d="M0,-3.0v7 M-2.5,-0.5L0,-3.0L2.5,-0.5"/>
                </g>
               <g id="resetDef">
                       <use xlink:href="#rim2" fill="#404040">
                               <set attributeName="fill" to="#808080" begin="reset.mouseover" end="reset.mouseout"/>
                       </use>
               </g>
        </defs>

<script type="text/javascript">
var viewWidth = 604;
var viewHeight = 180;
var sectionId = 'dynsection-11';
</script>
<script xlink:href="svgpan.js"/>
<svg id="graph" class="graph">
<g id="viewport">
<title>copy_ident</title>
<polygon fill="white" stroke="none" points="-4,4 -4,-176 600,-176 600,4 -4,4"/>
<!-- Node1 -->
<g id="node1" class="node"><title>Node1</title>
<polygon fill="#bfbfbf" stroke="black" points="0,-38.5 0,-57.5 64,-57.5 64,-38.5 0,-38.5"/>
<text text-anchor="middle" x="32" y="-45.5" font-family="Helvetica,sans-Serif" font-size="10.00">copy_ident</text>
</g>
<!-- Node2 -->
<g id="node2" class="node"><title>Node2</title>
<g id="a_node2"><a xlink:href="reader_8c.html#a11446424d65669df0f3a9e3b1cca57fa" target="_top" xlink:title="nextc">
<polygon fill="white" stroke="black" points="100.5,-114.5 100.5,-133.5 141.5,-133.5 141.5,-114.5 100.5,-114.5"/>
<text text-anchor="middle" x="121" y="-121.5" font-family="Helvetica,sans-Serif" font-size="10.00">nextc</text>
</a>
</g>
</g>
<!-- Node1&#45;&gt;Node2 -->
<g id="edge1" class="edge"><title>Node1&#45;&gt;Node2</title>
<path fill="none" stroke="midnightblue" d="M44.0186,-57.6255C58.4001,-70.1886 83.7864,-92.3651 101.229,-107.602"/>
<polygon fill="midnightblue" stroke="midnightblue" points="99.2371,-110.51 109.071,-114.453 103.842,-105.238 99.2371,-110.51"/>
</g>
<!-- Node10 -->
<g id="node10" class="node"><title>Node10</title>
<g id="a_node10"><a xlink:href="error_8c.html#ae2027917ace8b6f808a14b5cd4085eaf" target="_top" xlink:title="syntax_error">
<polygon fill="white" stroke="black" points="330.5,-38.5 330.5,-57.5 401.5,-57.5 401.5,-38.5 330.5,-38.5"/>
<text text-anchor="middle" x="366" y="-45.5" font-family="Helvetica,sans-Serif" font-size="10.00">syntax_error</text>
</a>
</g>
</g>
<!-- Node1&#45;&gt;Node10 -->
<g id="edge12" class="edge"><title>Node1&#45;&gt;Node10</title>
<path fill="none" stroke="midnightblue" d="M64.2338,-48C123.423,-48 252.094,-48 320.369,-48"/>
<polygon fill="midnightblue" stroke="midnightblue" points="320.388,-51.5001 330.388,-48 320.388,-44.5001 320.388,-51.5001"/>
</g>
<!-- Node11 -->
<g id="node11" class="node"><title>Node11</title>
<g id="a_node11"><a xlink:href="error_8c.html#a65962bc9ddf21cd2dc0b5f6b7dcb35fc" target="_top" xlink:title="unexpected_EOF">
<polygon fill="white" stroke="black" points="178,-0.5 178,-19.5 270,-19.5 270,-0.5 178,-0.5"/>
<text text-anchor="middle" x="224" y="-7.5" font-family="Helvetica,sans-Serif" font-size="10.00">unexpected_EOF</text>
</a>
</g>
</g>
<!-- Node1&#45;&gt;Node11 -->
<g id="edge15" class="edge"><title>Node1&#45;&gt;Node11</title>
<path fill="none" stroke="midnightblue" d="M64.0043,-41.4319C75.3253,-39.0572 88.2357,-36.3767 100,-34 122.277,-29.4995 146.852,-24.6759 168.142,-20.5422"/>
<polygon fill="midnightblue" stroke="midnightblue" points="168.837,-23.9728 177.988,-18.6341 167.505,-17.1007 168.837,-23.9728"/>
</g>
<!-- Node3 -->
<g id="node3" class="node"><title>Node3</title>
<g id="a_node3"><a xlink:href="reader_8c.html#a204317aa3b6d154f1abff12df35953df" target="_top" xlink:title="get_line">
<polygon fill="white" stroke="black" points="341,-152.5 341,-171.5 391,-171.5 391,-152.5 341,-152.5"/>
<text text-anchor="middle" x="366" y="-159.5" font-family="Helvetica,sans-Serif" font-size="10.00">get_line</text>
</a>
</g>
</g>
<!-- Node2&#45;&gt;Node3 -->
<g id="edge2" class="edge"><title>Node2&#45;&gt;Node3</title>
<path fill="none" stroke="midnightblue" d="M141.648,-131.883C152.251,-135.825 165.661,-140.316 178,-143 230.385,-154.394 292.546,-158.989 330.363,-160.819"/>
<polygon fill="midnightblue" stroke="midnightblue" points="330.671,-164.336 340.817,-161.284 330.982,-157.343 330.671,-164.336"/>
</g>
<!-- Node6 -->
<g id="node6" class="node"><title>Node6</title>
<g id="a_node6"><a xlink:href="reader_8c.html#ac812a775973bb1eb24e86256b2de6b8b" target="_top" xlink:title="skip_comment">
<polygon fill="white" stroke="black" points="184,-114.5 184,-133.5 264,-133.5 264,-114.5 184,-114.5"/>
<text text-anchor="middle" x="224" y="-121.5" font-family="Helvetica,sans-Serif" font-size="10.00">skip_comment</text>
</a>
</g>
</g>
<!-- Node2&#45;&gt;Node6 -->
<g id="edge5" class="edge"><title>Node2&#45;&gt;Node6</title>
<path fill="none" stroke="midnightblue" d="M141.954,-124C151.11,-124 162.41,-124 173.636,-124"/>
<polygon fill="midnightblue" stroke="midnightblue" points="173.86,-127.5 183.86,-124 173.86,-120.5 173.86,-127.5"/>
</g>
<!-- Node4 -->
<g id="node4" class="node"><title>Node4</title>
<g id="a_node4"><a xlink:href="error_8c.html#a03b3d711852aa32c4076f12ea7bb93a4" target="_top" xlink:title="no_space">
<polygon fill="white" stroke="black" points="462.5,-152.5 462.5,-171.5 521.5,-171.5 521.5,-152.5 462.5,-152.5"/>
<text text-anchor="middle" x="492" y="-159.5" font-family="Helvetica,sans-Serif" font-size="10.00">no_space</text>
</a>
</g>
</g>
<!-- Node3&#45;&gt;Node4 -->
<g id="edge3" class="edge"><title>Node3&#45;&gt;Node4</title>
<path fill="none" stroke="midnightblue" d="M391.203,-162C408.488,-162 432.112,-162 452.036,-162"/>
<polygon fill="midnightblue" stroke="midnightblue" points="452.064,-165.5 462.064,-162 452.064,-158.5 452.064,-165.5"/>
</g>
<!-- Node5 -->
<g id="node5" class="node"><title>Node5</title>
<g id="a_node5"><a xlink:href="main_8c.html#a67b6b9fd02aac96bef4297b1e6a1789a" target="_top" xlink:title="done">
<polygon fill="white" stroke="black" points="558,-76.5 558,-95.5 596,-95.5 596,-76.5 558,-76.5"/>
<text text-anchor="middle" x="577" y="-83.5" font-family="Helvetica,sans-Serif" font-size="10.00">done</text>
</a>
</g>
</g>
<!-- Node4&#45;&gt;Node5 -->
<g id="edge4" class="edge"><title>Node4&#45;&gt;Node5</title>
<path fill="none" stroke="midnightblue" d="M505.022,-152.389C510.307,-148.078 516.541,-142.875 522,-138 534.687,-126.671 548.493,-113.357 558.97,-103.037"/>
<polygon fill="midnightblue" stroke="midnightblue" points="561.621,-105.338 566.259,-95.812 556.693,-100.366 561.621,-105.338"/>
</g>
<!-- Node6&#45;&gt;Node3 -->
<g id="edge8" class="edge"><title>Node6&#45;&gt;Node3</title>
<path fill="none" stroke="midnightblue" d="M260.328,-133.589C282.006,-139.473 309.619,-146.968 331.04,-152.782"/>
<polygon fill="midnightblue" stroke="midnightblue" points="330.136,-156.164 340.704,-155.405 331.97,-149.408 330.136,-156.164"/>
</g>
<!-- Node7 -->
<g id="node7" class="node"><title>Node7</title>
<g id="a_node7"><a xlink:href="reader_8c.html#a416a4e795e86e5666f1a734793f9636e" target="_top" xlink:title="dup_line">
<polygon fill="white" stroke="black" points="339.5,-114.5 339.5,-133.5 392.5,-133.5 392.5,-114.5 339.5,-114.5"/>
<text text-anchor="middle" x="366" y="-121.5" font-family="Helvetica,sans-Serif" font-size="10.00">dup_line</text>
</a>
</g>
</g>
<!-- Node6&#45;&gt;Node7 -->
<g id="edge6" class="edge"><title>Node6&#45;&gt;Node7</title>
<path fill="none" stroke="midnightblue" d="M264.37,-124C284.663,-124 309.233,-124 329.015,-124"/>
<polygon fill="midnightblue" stroke="midnightblue" points="329.164,-127.5 339.164,-124 329.164,-120.5 329.164,-127.5"/>
</g>
<!-- Node8 -->
<g id="node8" class="node"><title>Node8</title>
<g id="a_node8"><a xlink:href="error_8c.html#a81c4e76cf37319065a21afcaec1b8ab1" target="_top" xlink:title="unterminated_comment">
<polygon fill="white" stroke="black" points="306.5,-76.5 306.5,-95.5 425.5,-95.5 425.5,-76.5 306.5,-76.5"/>
<text text-anchor="middle" x="366" y="-83.5" font-family="Helvetica,sans-Serif" font-size="10.00">unterminated_comment</text>
</a>
</g>
</g>
<!-- Node6&#45;&gt;Node8 -->
<g id="edge9" class="edge"><title>Node6&#45;&gt;Node8</title>
<path fill="none" stroke="midnightblue" d="M260.328,-114.411C278.401,-109.506 300.598,-103.48 319.895,-98.2429"/>
<polygon fill="midnightblue" stroke="midnightblue" points="320.949,-101.583 329.683,-95.5859 319.116,-94.8277 320.949,-101.583"/>
</g>
<!-- Node7&#45;&gt;Node4 -->
<g id="edge7" class="edge"><title>Node7&#45;&gt;Node4</title>
<path fill="none" stroke="midnightblue" d="M392.693,-131.874C409.97,-137.168 433.054,-144.242 452.512,-150.205"/>
<polygon fill="midnightblue" stroke="midnightblue" points="451.719,-153.623 462.306,-153.207 453.77,-146.93 451.719,-153.623"/>
</g>
<!-- Node8&#45;&gt;Node5 -->
<g id="edge10" class="edge"><title>Node8&#45;&gt;Node5</title>
<path fill="none" stroke="midnightblue" d="M399.789,-95.5418C431.251,-103.396 480.043,-112.166 522,-105 530.776,-103.501 540.021,-100.725 548.334,-97.7487"/>
<polygon fill="midnightblue" stroke="midnightblue" points="549.822,-100.927 557.917,-94.0917 547.326,-94.3874 549.822,-100.927"/>
</g>
<!-- Node9 -->
<g id="node9" class="node"><title>Node9</title>
<g id="a_node9"><a xlink:href="error_8c.html#a3c01cc3498c6cb3655588b53da0e8f7e" target="_top" xlink:title="print_pos">
<polygon fill="white" stroke="black" points="464,-76.5 464,-95.5 520,-95.5 520,-76.5 464,-76.5"/>
<text text-anchor="middle" x="492" y="-83.5" font-family="Helvetica,sans-Serif" font-size="10.00">print_pos</text>
</a>
</g>
</g>
<!-- Node8&#45;&gt;Node9 -->
<g id="edge11" class="edge"><title>Node8&#45;&gt;Node9</title>
<path fill="none" stroke="midnightblue" d="M425.732,-86C435.167,-86 444.702,-86 453.462,-86"/>
<polygon fill="midnightblue" stroke="midnightblue" points="453.704,-89.5001 463.704,-86 453.704,-82.5001 453.704,-89.5001"/>
</g>
<!-- Node10&#45;&gt;Node5 -->
<g id="edge13" class="edge"><title>Node10&#45;&gt;Node5</title>
<path fill="none" stroke="midnightblue" d="M401.544,-50.0857C433.205,-52.5026 481.218,-57.4447 522,-67 530.668,-69.0309 539.881,-71.9669 548.198,-74.9258"/>
<polygon fill="midnightblue" stroke="midnightblue" points="547.206,-78.2911 557.799,-78.4873 549.641,-71.728 547.206,-78.2911"/>
</g>
<!-- Node10&#45;&gt;Node9 -->
<g id="edge14" class="edge"><title>Node10&#45;&gt;Node9</title>
<path fill="none" stroke="midnightblue" d="M398.29,-57.589C415.203,-62.772 436.195,-69.205 453.925,-74.6383"/>
<polygon fill="midnightblue" stroke="midnightblue" points="453.345,-78.1211 463.931,-77.7048 455.396,-71.4283 453.345,-78.1211"/>
</g>
<!-- Node11&#45;&gt;Node5 -->
<g id="edge16" class="edge"><title>Node11&#45;&gt;Node5</title>
<path fill="none" stroke="midnightblue" d="M270.159,-9.33174C330.062,-9.99357 438.01,-16.6344 522,-52 533.451,-56.8219 545.234,-63.9447 554.859,-70.4268"/>
<polygon fill="midnightblue" stroke="midnightblue" points="553.142,-73.4963 563.345,-76.3493 557.148,-67.7561 553.142,-73.4963"/>
</g>
</g>
</svg>
        <g id="navigator" transform="translate(0 0)" fill="#404254">
                <rect fill="#f2f5e9" fill-opacity="0.5" stroke="#606060" stroke-width=".5" x="0" y="0" width="60" height="60"/>
                <use id="zoomplus" xlink:href="#zoomPlus" x="17" y="9" onmousedown="handleZoom(evt,'in')"/>
                <use id="zoomminus" xlink:href="#zoomMin" x="42" y="9" onmousedown="handleZoom(evt,'out')"/>
                <use id="reset" xlink:href="#resetDef" x="30" y="36" onmousedown="handleReset()"/>
                <g id="arrowUp" xlink:href="#dirArrow" transform="translate(30 24)" onmousedown="handlePan(0,-1)">
                  <use xlink:href="#rim" fill="#404040">
                        <set attributeName="fill" to="#808080" begin="arrowUp.mouseover" end="arrowUp.mouseout"/>
                  </use>
                  <path fill="none" stroke="white" stroke-width="1.5" d="M0,-3.0v7 M-2.5,-0.5L0,-3.0L2.5,-0.5"/>
                </g>
                <g id="arrowRight" xlink:href="#dirArrow" transform="rotate(90) translate(36 -43)" onmousedown="handlePan(1,0)">
                  <use xlink:href="#rim" fill="#404040">
                        <set attributeName="fill" to="#808080" begin="arrowRight.mouseover" end="arrowRight.mouseout"/>
                  </use>
                  <path fill="none" stroke="white" stroke-width="1.5" d="M0,-3.0v7 M-2.5,-0.5L0,-3.0L2.5,-0.5"/>
                </g>
                <g id="arrowDown" xlink:href="#dirArrow" transform="rotate(180) translate(-30 -48)" onmousedown="handlePan(0,1)">
                  <use xlink:href="#rim" fill="#404040">
                        <set attributeName="fill" to="#808080" begin="arrowDown.mouseover" end="arrowDown.mouseout"/>
                  </use>
                  <path fill="none" stroke="white" stroke-width="1.5" d="M0,-3.0v7 M-2.5,-0.5L0,-3.0L2.5,-0.5"/>
                </g>
                <g id="arrowLeft" xlink:href="#dirArrow" transform="rotate(270) translate(-36 17)" onmousedown="handlePan(-1,0)">
                  <use xlink:href="#rim" fill="#404040">
                        <set attributeName="fill" to="#808080" begin="arrowLeft.mouseover" end="arrowLeft.mouseout"/>
                  </use>
                  <path fill="none" stroke="white" stroke-width="1.5" d="M0,-3.0v7 M-2.5,-0.5L0,-3.0L2.5,-0.5"/>
                </g>
        </g>
        <svg viewBox="0 0 15 15" width="100%" height="30px" preserveAspectRatio="xMaxYMin meet">
         <g id="arrow_out" transform="scale(0.3 0.3)">
          <a xlink:href="reader_8c_a475e9b3fc05ea753aeeb760cea34a511_cgraph_org.svg" target="_base">
           <rect id="button" ry="5" rx="5" y="6" x="6" height="38" width="38"
                fill="#f2f5e9" fill-opacity="0.5" stroke="#606060" stroke-width="1.0"/>
           <path id="arrow"
             d="M 11.500037,31.436501 C 11.940474,20.09759 22.043105,11.32322 32.158766,21.979434 L 37.068811,17.246167 C 37.068811,17.246167 37.088388,32 37.088388,32 L 22.160133,31.978069 C 22.160133,31.978069 26.997745,27.140456 26.997745,27.140456 C 18.528582,18.264221 13.291696,25.230495 11.500037,31.436501 z"
             style="fill:#404040;"/>
          </a>
         </g>
        </svg>
</svg>
