<?xml version="1.0" encoding="UTF-8" standalone="no"?>
<!DOCTYPE svg PUBLIC "-//W3C//DTD SVG 1.1//EN"
 "http://www.w3.org/Graphics/SVG/1.1/DTD/svg11.dtd">
<!-- Generated by graphviz version 2.36.0 (20140111.2315)
 -->
<!-- Title: start_rule Pages: 1 -->
<svg width="356pt" height="66pt"
 viewBox="0.00 0.00 356.00 66.00" xmlns="http://www.w3.org/2000/svg" xmlns:xlink="http://www.w3.org/1999/xlink">
<g id="graph0" class="graph" transform="scale(1 1) rotate(0) translate(4 62)">
<title>start_rule</title>
<polygon fill="white" stroke="none" points="-4,4 -4,-62 352,-62 352,4 -4,4"/>
<!-- Node1 -->
<g id="node1" class="node"><title>Node1</title>
<polygon fill="#bfbfbf" stroke="black" points="0.5,-19.5 0.5,-38.5 57.5,-38.5 57.5,-19.5 0.5,-19.5"/>
<text text-anchor="middle" x="29" y="-26.5" font-family="Helvetica,sans-Serif" font-size="10.00">start_rule</text>
</g>
<!-- Node2 -->
<g id="node2" class="node"><title>Node2</title>
<g id="a_node2"><a xlink:href="reader_8c.html#a26f803a6175f255b34b89151133c51f6" target="_top" xlink:title="expand_rules">
<polygon fill="white" stroke="black" points="94,-38.5 94,-57.5 168,-57.5 168,-38.5 94,-38.5"/>
<text text-anchor="middle" x="131" y="-45.5" font-family="Helvetica,sans-Serif" font-size="10.00">expand_rules</text>
</a>
</g>
</g>
<!-- Node1&#45;&gt;Node2 -->
<g id="edge1" class="edge"><title>Node1&#45;&gt;Node2</title>
<path fill="none" stroke="midnightblue" d="M57.5902,-34.2421C65.7388,-35.7904 74.8888,-37.5289 83.8711,-39.2355"/>
<polygon fill="midnightblue" stroke="midnightblue" points="83.4013,-42.7088 93.8789,-41.137 84.708,-35.8318 83.4013,-42.7088"/>
</g>
<!-- Node5 -->
<g id="node5" class="node"><title>Node5</title>
<g id="a_node5"><a xlink:href="group__eh.html#gab2b1e22a832ff68240af1b58df86bee3" target="_top" xlink:title="terminal_lhs">
<polygon fill="white" stroke="black" points="204.5,-0.5 204.5,-19.5 273.5,-19.5 273.5,-0.5 204.5,-0.5"/>
<text text-anchor="middle" x="239" y="-7.5" font-family="Helvetica,sans-Serif" font-size="10.00">terminal_lhs</text>
</a>
</g>
</g>
<!-- Node1&#45;&gt;Node5 -->
<g id="edge4" class="edge"><title>Node1&#45;&gt;Node5</title>
<path fill="none" stroke="midnightblue" d="M57.6208,-26.4769C92.5638,-23.285 153.145,-17.7512 194.369,-13.9855"/>
<polygon fill="midnightblue" stroke="midnightblue" points="194.765,-17.464 204.405,-13.0688 194.128,-10.493 194.765,-17.464"/>
</g>
<!-- Node3 -->
<g id="node3" class="node"><title>Node3</title>
<g id="a_node3"><a xlink:href="group__eh.html#ga03b3d711852aa32c4076f12ea7bb93a4" target="_top" xlink:title="no_space">
<polygon fill="white" stroke="black" points="209.5,-38.5 209.5,-57.5 268.5,-57.5 268.5,-38.5 209.5,-38.5"/>
<text text-anchor="middle" x="239" y="-45.5" font-family="Helvetica,sans-Serif" font-size="10.00">no_space</text>
</a>
</g>
</g>
<!-- Node2&#45;&gt;Node3 -->
<g id="edge2" class="edge"><title>Node2&#45;&gt;Node3</title>
<path fill="none" stroke="midnightblue" d="M168.183,-48C178.154,-48 189.01,-48 199.127,-48"/>
<polygon fill="midnightblue" stroke="midnightblue" points="199.332,-51.5001 209.332,-48 199.332,-44.5001 199.332,-51.5001"/>
</g>
<!-- Node4 -->
<g id="node4" class="node"><title>Node4</title>
<g id="a_node4"><a xlink:href="group__eh.html#ga67b6b9fd02aac96bef4297b1e6a1789a" target="_top" xlink:title="Shutdown function. ">
<polygon fill="white" stroke="black" points="310,-19.5 310,-38.5 348,-38.5 348,-19.5 310,-19.5"/>
<text text-anchor="middle" x="329" y="-26.5" font-family="Helvetica,sans-Serif" font-size="10.00">done</text>
</a>
</g>
</g>
<!-- Node3&#45;&gt;Node4 -->
<g id="edge3" class="edge"><title>Node3&#45;&gt;Node4</title>
<path fill="none" stroke="midnightblue" d="M268.814,-41.7787C278.859,-39.6099 290.108,-37.1813 300.079,-35.0285"/>
<polygon fill="midnightblue" stroke="midnightblue" points="300.867,-38.439 309.903,-32.9073 299.39,-31.5967 300.867,-38.439"/>
</g>
<!-- Node5&#45;&gt;Node4 -->
<g id="edge5" class="edge"><title>Node5&#45;&gt;Node4</title>
<path fill="none" stroke="midnightblue" d="M273.52,-17.2373C282.126,-19.0955 291.301,-21.0763 299.619,-22.8723"/>
<polygon fill="midnightblue" stroke="midnightblue" points="299.077,-26.3359 309.591,-25.0253 300.555,-19.4936 299.077,-26.3359"/>
</g>
</g>
</svg>
