<?xml version="1.0" encoding="UTF-8" standalone="no"?>
<!DOCTYPE svg PUBLIC "-//W3C//DTD SVG 1.1//EN"
 "http://www.w3.org/Graphics/SVG/1.1/DTD/svg11.dtd">
<!-- Generated by graphviz version 2.36.0 (20140111.2315)
 -->
<!-- Title: get_literal Pages: 1 -->
<svg width="376pt" height="294pt"
 viewBox="0.00 0.00 376.00 294.00" xmlns="http://www.w3.org/2000/svg" xmlns:xlink="http://www.w3.org/1999/xlink">
<g id="graph0" class="graph" transform="scale(1 1) rotate(0) translate(4 290)">
<title>get_literal</title>
<polygon fill="white" stroke="none" points="-4,4 -4,-290 372,-290 372,4 -4,4"/>
<!-- Node1 -->
<g id="node1" class="node"><title>Node1</title>
<polygon fill="#bfbfbf" stroke="black" points="0.5,-133.5 0.5,-152.5 59.5,-152.5 59.5,-133.5 0.5,-133.5"/>
<text text-anchor="middle" x="30" y="-140.5" font-family="Helvetica,sans-Serif" font-size="10.00">get_literal</text>
</g>
<!-- Node2 -->
<g id="node2" class="node"><title>Node2</title>
<g id="a_node2"><a xlink:href="reader_8c.html#a04707e6fc9527eaf37d68dafdc9483a9" target="_top" xlink:title="cachec">
<polygon fill="white" stroke="black" points="123,-266.5 123,-285.5 171,-285.5 171,-266.5 123,-266.5"/>
<text text-anchor="middle" x="147" y="-273.5" font-family="Helvetica,sans-Serif" font-size="10.00">cachec</text>
</a>
</g>
</g>
<!-- Node1&#45;&gt;Node2 -->
<g id="edge1" class="edge"><title>Node1&#45;&gt;Node2</title>
<path fill="none" stroke="midnightblue" d="M34.538,-152.719C42.5229,-173.462 63.793,-222.574 96,-252 101.158,-256.713 107.409,-260.682 113.719,-263.951"/>
<polygon fill="midnightblue" stroke="midnightblue" points="112.346,-267.172 122.886,-268.243 115.314,-260.833 112.346,-267.172"/>
</g>
<!-- Node3 -->
<g id="node3" class="node"><title>Node3</title>
<g id="a_node3"><a xlink:href="error_8c.html#a03b3d711852aa32c4076f12ea7bb93a4" target="_top" xlink:title="no_space">
<polygon fill="white" stroke="black" points="234.5,-190.5 234.5,-209.5 293.5,-209.5 293.5,-190.5 234.5,-190.5"/>
<text text-anchor="middle" x="264" y="-197.5" font-family="Helvetica,sans-Serif" font-size="10.00">no_space</text>
</a>
</g>
</g>
<!-- Node1&#45;&gt;Node3 -->
<g id="edge13" class="edge"><title>Node1&#45;&gt;Node3</title>
<path fill="none" stroke="midnightblue" d="M35.618,-152.528C44.522,-169.649 65.88,-205.127 96,-219 139.783,-239.166 196.599,-225.395 231.396,-213.088"/>
<polygon fill="midnightblue" stroke="midnightblue" points="232.863,-216.277 241.024,-209.52 230.431,-209.713 232.863,-216.277"/>
</g>
<!-- Node5 -->
<g id="node5" class="node"><title>Node5</title>
<g id="a_node5"><a xlink:href="reader_8c.html#a416a4e795e86e5666f1a734793f9636e" target="_top" xlink:title="dup_line">
<polygon fill="white" stroke="black" points="120.5,-190.5 120.5,-209.5 173.5,-209.5 173.5,-190.5 120.5,-190.5"/>
<text text-anchor="middle" x="147" y="-197.5" font-family="Helvetica,sans-Serif" font-size="10.00">dup_line</text>
</a>
</g>
</g>
<!-- Node1&#45;&gt;Node5 -->
<g id="edge4" class="edge"><title>Node1&#45;&gt;Node5</title>
<path fill="none" stroke="midnightblue" d="M45.8478,-152.636C58.7785,-160.794 78.1933,-172.484 96,-181 100.748,-183.271 105.844,-185.467 110.901,-187.511"/>
<polygon fill="midnightblue" stroke="midnightblue" points="109.889,-190.872 120.477,-191.232 112.424,-184.348 109.889,-190.872"/>
</g>
<!-- Node6 -->
<g id="node6" class="node"><title>Node6</title>
<g id="a_node6"><a xlink:href="reader_8c.html#a204317aa3b6d154f1abff12df35953df" target="_top" xlink:title="get_line">
<polygon fill="white" stroke="black" points="122,-152.5 122,-171.5 172,-171.5 172,-152.5 122,-152.5"/>
<text text-anchor="middle" x="147" y="-159.5" font-family="Helvetica,sans-Serif" font-size="10.00">get_line</text>
</a>
</g>
</g>
<!-- Node1&#45;&gt;Node6 -->
<g id="edge6" class="edge"><title>Node1&#45;&gt;Node6</title>
<path fill="none" stroke="midnightblue" d="M59.7227,-147.745C75.5896,-150.367 95.3954,-153.639 112.028,-156.387"/>
<polygon fill="midnightblue" stroke="midnightblue" points="111.473,-159.843 121.91,-158.02 112.614,-152.937 111.473,-159.843"/>
</g>
<!-- Node7 -->
<g id="node7" class="node"><title>Node7</title>
<g id="a_node7"><a xlink:href="reader_8c.html#a9ce1e6abd7c2eac7e850297b7e1bbc6e" target="_top" xlink:title="hexval">
<polygon fill="white" stroke="black" points="124.5,-114.5 124.5,-133.5 169.5,-133.5 169.5,-114.5 124.5,-114.5"/>
<text text-anchor="middle" x="147" y="-121.5" font-family="Helvetica,sans-Serif" font-size="10.00">hexval</text>
</a>
</g>
</g>
<!-- Node1&#45;&gt;Node7 -->
<g id="edge8" class="edge"><title>Node1&#45;&gt;Node7</title>
<path fill="none" stroke="midnightblue" d="M59.7227,-138.255C76.2507,-135.524 97.0527,-132.087 114.09,-129.272"/>
<polygon fill="midnightblue" stroke="midnightblue" points="114.843,-132.695 124.139,-127.612 113.702,-125.789 114.843,-132.695"/>
</g>
<!-- Node8 -->
<g id="node8" class="node"><title>Node8</title>
<g id="a_node8"><a xlink:href="error_8c.html#aad64de11ac1b5b04da452109e0c6e55a" target="_top" xlink:title="illegal_character">
<polygon fill="white" stroke="black" points="103.5,-76.5 103.5,-95.5 190.5,-95.5 190.5,-76.5 103.5,-76.5"/>
<text text-anchor="middle" x="147" y="-83.5" font-family="Helvetica,sans-Serif" font-size="10.00">illegal_character</text>
</a>
</g>
</g>
<!-- Node1&#45;&gt;Node8 -->
<g id="edge9" class="edge"><title>Node1&#45;&gt;Node8</title>
<path fill="none" stroke="midnightblue" d="M45.8478,-133.364C58.7785,-125.206 78.1933,-113.516 96,-105 100.117,-103.031 104.495,-101.118 108.884,-99.312"/>
<polygon fill="midnightblue" stroke="midnightblue" points="110.394,-102.479 118.408,-95.5487 107.821,-95.9685 110.394,-102.479"/>
</g>
<!-- Node10 -->
<g id="node10" class="node"><title>Node10</title>
<g id="a_node10"><a xlink:href="defs_8h.html#aeb8facfda1fb8dcf16a3120589eb90e0" target="_top" xlink:title="lookup">
<polygon fill="white" stroke="black" points="124.5,-38.5 124.5,-57.5 169.5,-57.5 169.5,-38.5 124.5,-38.5"/>
<text text-anchor="middle" x="147" y="-45.5" font-family="Helvetica,sans-Serif" font-size="10.00">lookup</text>
</a>
</g>
</g>
<!-- Node1&#45;&gt;Node10 -->
<g id="edge12" class="edge"><title>Node1&#45;&gt;Node10</title>
<path fill="none" stroke="midnightblue" d="M36.834,-133.485C47.0039,-117.624 69.4482,-85.6843 96,-67 101.715,-62.9786 108.39,-59.6796 114.967,-57.0259"/>
<polygon fill="midnightblue" stroke="midnightblue" points="116.21,-60.2984 124.411,-53.5905 113.817,-53.7202 116.21,-60.2984"/>
</g>
<!-- Node11 -->
<g id="node11" class="node"><title>Node11</title>
<g id="a_node11"><a xlink:href="error_8c.html#a1be74faa1a912de2fd380aa9a4de6eb2" target="_top" xlink:title="unterminated_string">
<polygon fill="white" stroke="black" points="96,-0.5 96,-19.5 198,-19.5 198,-0.5 96,-0.5"/>
<text text-anchor="middle" x="147" y="-7.5" font-family="Helvetica,sans-Serif" font-size="10.00">unterminated_string</text>
</a>
</g>
</g>
<!-- Node1&#45;&gt;Node11 -->
<g id="edge14" class="edge"><title>Node1&#45;&gt;Node11</title>
<path fill="none" stroke="midnightblue" d="M34.0007,-133.275C41.1816,-111.542 61.3817,-58.6275 96,-29 97.9754,-27.3094 100.117,-25.7612 102.364,-24.3447"/>
<polygon fill="midnightblue" stroke="midnightblue" points="104.255,-27.3034 111.432,-19.5102 100.961,-21.1265 104.255,-27.3034"/>
</g>
<!-- Node2&#45;&gt;Node3 -->
<g id="edge2" class="edge"><title>Node2&#45;&gt;Node3</title>
<path fill="none" stroke="midnightblue" d="M170.982,-266.3C179.68,-262.289 189.522,-257.329 198,-252 214.862,-241.402 232.406,-227.145 245.012,-216.239"/>
<polygon fill="midnightblue" stroke="midnightblue" points="247.329,-218.862 252.525,-209.629 242.705,-213.607 247.329,-218.862"/>
</g>
<!-- Node4 -->
<g id="node4" class="node"><title>Node4</title>
<g id="a_node4"><a xlink:href="main_8c.html#a67b6b9fd02aac96bef4297b1e6a1789a" target="_top" xlink:title="done">
<polygon fill="white" stroke="black" points="330,-76.5 330,-95.5 368,-95.5 368,-76.5 330,-76.5"/>
<text text-anchor="middle" x="349" y="-83.5" font-family="Helvetica,sans-Serif" font-size="10.00">done</text>
</a>
</g>
</g>
<!-- Node3&#45;&gt;Node4 -->
<g id="edge3" class="edge"><title>Node3&#45;&gt;Node4</title>
<path fill="none" stroke="midnightblue" d="M272.077,-190.28C285.981,-171.182 317.057,-128.5 334.84,-104.075"/>
<polygon fill="midnightblue" stroke="midnightblue" points="337.885,-105.839 340.941,-95.695 332.226,-101.719 337.885,-105.839"/>
</g>
<!-- Node5&#45;&gt;Node3 -->
<g id="edge5" class="edge"><title>Node5&#45;&gt;Node3</title>
<path fill="none" stroke="midnightblue" d="M173.522,-200C188.427,-200 207.536,-200 224.265,-200"/>
<polygon fill="midnightblue" stroke="midnightblue" points="224.314,-203.5 234.314,-200 224.314,-196.5 224.314,-203.5"/>
</g>
<!-- Node6&#45;&gt;Node3 -->
<g id="edge7" class="edge"><title>Node6&#45;&gt;Node3</title>
<path fill="none" stroke="midnightblue" d="M172.108,-169.966C187.304,-174.987 207.261,-181.582 224.603,-187.312"/>
<polygon fill="midnightblue" stroke="midnightblue" points="223.862,-190.754 234.455,-190.568 226.058,-184.107 223.862,-190.754"/>
</g>
<!-- Node8&#45;&gt;Node4 -->
<g id="edge10" class="edge"><title>Node8&#45;&gt;Node4</title>
<path fill="none" stroke="midnightblue" d="M190.905,-86C229.847,-86 286.162,-86 319.724,-86"/>
<polygon fill="midnightblue" stroke="midnightblue" points="319.771,-89.5001 329.771,-86 319.771,-82.5001 319.771,-89.5001"/>
</g>
<!-- Node9 -->
<g id="node9" class="node"><title>Node9</title>
<g id="a_node9"><a xlink:href="error_8c.html#a3c01cc3498c6cb3655588b53da0e8f7e" target="_top" xlink:title="print_pos">
<polygon fill="white" stroke="black" points="236,-38.5 236,-57.5 292,-57.5 292,-38.5 236,-38.5"/>
<text text-anchor="middle" x="264" y="-45.5" font-family="Helvetica,sans-Serif" font-size="10.00">print_pos</text>
</a>
</g>
</g>
<!-- Node8&#45;&gt;Node9 -->
<g id="edge11" class="edge"><title>Node8&#45;&gt;Node9</title>
<path fill="none" stroke="midnightblue" d="M177.019,-76.411C192.007,-71.4585 210.449,-65.3647 226.405,-60.0924"/>
<polygon fill="midnightblue" stroke="midnightblue" points="227.568,-63.3942 235.965,-56.9333 225.372,-56.7476 227.568,-63.3942"/>
</g>
<!-- Node11&#45;&gt;Node4 -->
<g id="edge15" class="edge"><title>Node11&#45;&gt;Node4</title>
<path fill="none" stroke="midnightblue" d="M198.108,-8.33184C227.487,-9.29585 264.502,-13.9818 294,-29 311.569,-37.9445 326.521,-54.9748 336.207,-68.1002"/>
<polygon fill="midnightblue" stroke="midnightblue" points="333.431,-70.2376 342.038,-76.4158 339.162,-66.2187 333.431,-70.2376"/>
</g>
<!-- Node11&#45;&gt;Node9 -->
<g id="edge16" class="edge"><title>Node11&#45;&gt;Node9</title>
<path fill="none" stroke="midnightblue" d="M177.019,-19.589C192.007,-24.5415 210.449,-30.6353 226.405,-35.9076"/>
<polygon fill="midnightblue" stroke="midnightblue" points="225.372,-39.2524 235.965,-39.0667 227.568,-32.6058 225.372,-39.2524"/>
</g>
</g>
</svg>
