<?xml version="1.0" encoding="UTF-8" standalone="no"?>
<!DOCTYPE svg PUBLIC "-//W3C//DTD SVG 1.1//EN"
 "http://www.w3.org/Graphics/SVG/1.1/DTD/svg11.dtd">
<!-- Generated by graphviz version 2.36.0 (20140111.2315)
 -->
<!-- Title: pack_names Pages: 1 -->
<svg width="234pt" height="28pt"
 viewBox="0.00 0.00 234.00 28.00" xmlns="http://www.w3.org/2000/svg" xmlns:xlink="http://www.w3.org/1999/xlink">
<g id="graph0" class="graph" transform="scale(1 1) rotate(0) translate(4 24)">
<title>pack_names</title>
<polygon fill="white" stroke="none" points="-4,4 -4,-24 230,-24 230,4 -4,4"/>
<!-- Node1 -->
<g id="node1" class="node"><title>Node1</title>
<polygon fill="#bfbfbf" stroke="black" points="0,-0.5 0,-19.5 72,-19.5 72,-0.5 0,-0.5"/>
<text text-anchor="middle" x="36" y="-7.5" font-family="Helvetica,sans-Serif" font-size="10.00">pack_names</text>
</g>
<!-- Node2 -->
<g id="node2" class="node"><title>Node2</title>
<g id="a_node2"><a xlink:href="reader_8c.html#a3351a985e2d992eea6ed332cc837ad5b" target="_top" xlink:title="reader">
<polygon fill="white" stroke="black" points="108,-0.5 108,-19.5 152,-19.5 152,-0.5 108,-0.5"/>
<text text-anchor="middle" x="130" y="-7.5" font-family="Helvetica,sans-Serif" font-size="10.00">reader</text>
</a>
</g>
</g>
<!-- Node1&#45;&gt;Node2 -->
<g id="edge1" class="edge"><title>Node1&#45;&gt;Node2</title>
<path fill="none" stroke="midnightblue" d="M82.1242,-10C91.1348,-10 100.19,-10 107.907,-10"/>
<polygon fill="midnightblue" stroke="midnightblue" points="82.0437,-6.5001 72.0437,-10 82.0437,-13.5001 82.0437,-6.5001"/>
</g>
<!-- Node3 -->
<g id="node3" class="node"><title>Node3</title>
<g id="a_node3"><a xlink:href="main_8c.html#afced8478b91af5c169926dfa4426333d" target="_top" xlink:title="main">
<polygon fill="white" stroke="black" points="188,-0.5 188,-19.5 226,-19.5 226,-0.5 188,-0.5"/>
<text text-anchor="middle" x="207" y="-7.5" font-family="Helvetica,sans-Serif" font-size="10.00">main</text>
</a>
</g>
</g>
<!-- Node2&#45;&gt;Node3 -->
<g id="edge2" class="edge"><title>Node2&#45;&gt;Node3</title>
<path fill="none" stroke="midnightblue" d="M162.532,-10C171.211,-10 180.328,-10 187.958,-10"/>
<polygon fill="midnightblue" stroke="midnightblue" points="162.291,-6.5001 152.291,-10 162.291,-13.5001 162.291,-6.5001"/>
</g>
</g>
</svg>
