<?xml version="1.0" encoding="UTF-8" standalone="no"?>
<!DOCTYPE svg PUBLIC "-//W3C//DTD SVG 1.1//EN"
 "http://www.w3.org/Graphics/SVG/1.1/DTD/svg11.dtd">
<!-- Generated by graphviz version 2.36.0 (20140111.2315)
 -->
<!-- Title: insert_empty_rule Pages: 1 -->
<svg width="404pt" height="66pt"
 viewBox="0.00 0.00 404.00 66.00" xmlns="http://www.w3.org/2000/svg" xmlns:xlink="http://www.w3.org/1999/xlink">
<g id="graph0" class="graph" transform="scale(1 1) rotate(0) translate(4 62)">
<title>insert_empty_rule</title>
<polygon fill="white" stroke="none" points="-4,4 -4,-62 400,-62 400,4 -4,4"/>
<!-- Node1 -->
<g id="node1" class="node"><title>Node1</title>
<polygon fill="#bfbfbf" stroke="black" points="0,-19.5 0,-38.5 94,-38.5 94,-19.5 0,-19.5"/>
<text text-anchor="middle" x="47" y="-26.5" font-family="Helvetica,sans-Serif" font-size="10.00">insert_empty_rule</text>
</g>
<!-- Node2 -->
<g id="node2" class="node"><title>Node2</title>
<g id="a_node2"><a xlink:href="reader_8c.html#a34bf32e056d8bc6f1fb490f4efc7ce90" target="_top" xlink:title="add_symbol">
<polygon fill="white" stroke="black" points="130.5,-38.5 130.5,-57.5 199.5,-57.5 199.5,-38.5 130.5,-38.5"/>
<text text-anchor="middle" x="165" y="-45.5" font-family="Helvetica,sans-Serif" font-size="10.00">add_symbol</text>
</a>
</g>
</g>
<!-- Node1&#45;&gt;Node2 -->
<g id="edge1" class="edge"><title>Node1&#45;&gt;Node2</title>
<path fill="none" stroke="midnightblue" d="M104.246,-38.2127C113.224,-39.6833 122.258,-41.163 130.487,-42.5108"/>
<polygon fill="midnightblue" stroke="midnightblue" points="104.614,-34.7264 94.1796,-36.5639 103.482,-41.6343 104.614,-34.7264"/>
</g>
<!-- Node5 -->
<g id="node5" class="node"><title>Node5</title>
<g id="a_node5"><a xlink:href="reader_8c.html#abb83807b1bba8d346650d3e4ae4e7425" target="_top" xlink:title="copy_action">
<polygon fill="white" stroke="black" points="130.5,-0.5 130.5,-19.5 199.5,-19.5 199.5,-0.5 130.5,-0.5"/>
<text text-anchor="middle" x="165" y="-7.5" font-family="Helvetica,sans-Serif" font-size="10.00">copy_action</text>
</a>
</g>
</g>
<!-- Node1&#45;&gt;Node5 -->
<g id="edge4" class="edge"><title>Node1&#45;&gt;Node5</title>
<path fill="none" stroke="midnightblue" d="M104.246,-19.7873C113.224,-18.3167 122.258,-16.837 130.487,-15.4892"/>
<polygon fill="midnightblue" stroke="midnightblue" points="103.482,-16.3657 94.1796,-21.4361 104.614,-23.2736 103.482,-16.3657"/>
</g>
<!-- Node3 -->
<g id="node3" class="node"><title>Node3</title>
<g id="a_node3"><a xlink:href="reader_8c.html#af6d4fba61bb761ca9fe92fef83e8ee94" target="_top" xlink:title="read_grammar">
<polygon fill="white" stroke="black" points="236.5,-19.5 236.5,-38.5 315.5,-38.5 315.5,-19.5 236.5,-19.5"/>
<text text-anchor="middle" x="276" y="-26.5" font-family="Helvetica,sans-Serif" font-size="10.00">read_grammar</text>
</a>
</g>
</g>
<!-- Node2&#45;&gt;Node3 -->
<g id="edge2" class="edge"><title>Node2&#45;&gt;Node3</title>
<path fill="none" stroke="midnightblue" d="M209.707,-40.3814C218.526,-38.8441 227.738,-37.2384 236.368,-35.734"/>
<polygon fill="midnightblue" stroke="midnightblue" points="208.843,-36.979 199.593,-42.1443 210.046,-43.875 208.843,-36.979"/>
</g>
<!-- Node4 -->
<g id="node4" class="node"><title>Node4</title>
<g id="a_node4"><a xlink:href="reader_8c.html#a3351a985e2d992eea6ed332cc837ad5b" target="_top" xlink:title="reader">
<polygon fill="white" stroke="red" points="352,-19.5 352,-38.5 396,-38.5 396,-19.5 352,-19.5"/>
<text text-anchor="middle" x="374" y="-26.5" font-family="Helvetica,sans-Serif" font-size="10.00">reader</text>
</a>
</g>
</g>
<!-- Node3&#45;&gt;Node4 -->
<g id="edge3" class="edge"><title>Node3&#45;&gt;Node4</title>
<path fill="none" stroke="midnightblue" d="M325.963,-29C335.035,-29 344.061,-29 351.745,-29"/>
<polygon fill="midnightblue" stroke="midnightblue" points="325.77,-25.5001 315.77,-29 325.77,-32.5001 325.77,-25.5001"/>
</g>
<!-- Node5&#45;&gt;Node3 -->
<g id="edge5" class="edge"><title>Node5&#45;&gt;Node3</title>
<path fill="none" stroke="midnightblue" d="M209.707,-17.6186C218.526,-19.1559 227.738,-20.7616 236.368,-22.266"/>
<polygon fill="midnightblue" stroke="midnightblue" points="210.046,-14.125 199.593,-15.8557 208.843,-21.021 210.046,-14.125"/>
</g>
</g>
</svg>
