<?xml version="1.0" encoding="UTF-8" standalone="no"?>
<!DOCTYPE svg PUBLIC "-//W3C//DTD SVG 1.1//EN"
 "http://www.w3.org/Graphics/SVG/1.1/DTD/svg11.dtd">
<!-- Generated by graphviz version 2.36.0 (20140111.2315)
 -->
<!-- Title: read_declarations Pages: 1 -->
<svg width="690pt" height="832pt"
 viewBox="0.00 0.00 690.00 831.56" xmlns="http://www.w3.org/2000/svg" xmlns:xlink="http://www.w3.org/1999/xlink">
<g id="graph0" class="graph" transform="scale(1 1) rotate(0) translate(4 827.561)">
<title>read_declarations</title>
<polygon fill="white" stroke="none" points="-4,4 -4,-827.561 686,-827.561 686,4 -4,4"/>
<!-- Node1 -->
<g id="node1" class="node"><title>Node1</title>
<polygon fill="#bfbfbf" stroke="black" points="0.5,-263.061 0.5,-282.061 93.5,-282.061 93.5,-263.061 0.5,-263.061"/>
<text text-anchor="middle" x="47" y="-270.061" font-family="Helvetica,sans-Serif" font-size="10.00">read_declarations</text>
</g>
<!-- Node2 -->
<g id="node2" class="node"><title>Node2</title>
<g id="a_node2"><a xlink:href="reader_8c.html#a475e9b3fc05ea753aeeb760cea34a511" target="_top" xlink:title="copy_ident">
<polygon fill="white" stroke="black" points="140,-35.0615 140,-54.0615 204,-54.0615 204,-35.0615 140,-35.0615"/>
<text text-anchor="middle" x="172" y="-42.0615" font-family="Helvetica,sans-Serif" font-size="10.00">copy_ident</text>
</a>
</g>
</g>
<!-- Node1&#45;&gt;Node2 -->
<g id="edge1" class="edge"><title>Node1&#45;&gt;Node2</title>
<path fill="none" stroke="midnightblue" d="M49.9073,-262.788C56.3412,-231.89 79.7163,-134.697 130,-72.5615 133.821,-67.8398 138.645,-63.5959 143.631,-59.9246"/>
<polygon fill="midnightblue" stroke="midnightblue" points="145.663,-62.7759 152.024,-54.3033 141.768,-56.9597 145.663,-62.7759"/>
</g>
<!-- Node3 -->
<g id="node3" class="node"><title>Node3</title>
<g id="a_node3"><a xlink:href="reader_8c.html#a11446424d65669df0f3a9e3b1cca57fa" target="_top" xlink:title="nextc">
<polygon fill="white" stroke="red" points="419.5,-358.061 419.5,-377.061 460.5,-377.061 460.5,-358.061 419.5,-358.061"/>
<text text-anchor="middle" x="440" y="-365.061" font-family="Helvetica,sans-Serif" font-size="10.00">nextc</text>
</a>
</g>
</g>
<!-- Node1&#45;&gt;Node3 -->
<g id="edge52" class="edge"><title>Node1&#45;&gt;Node3</title>
<path fill="none" stroke="midnightblue" d="M93.5181,-278.578C152.187,-286.954 257,-304.037 344,-329.561 366.684,-336.216 391.457,-346.222 410.016,-354.295"/>
<polygon fill="midnightblue" stroke="midnightblue" points="408.811,-357.589 419.373,-358.43 411.641,-351.187 408.811,-357.589"/>
</g>
<!-- Node5 -->
<g id="node5" class="node"><title>Node5</title>
<g id="a_node5"><a xlink:href="error_8c.html#a03b3d711852aa32c4076f12ea7bb93a4" target="_top" xlink:title="no_space">
<polygon fill="white" stroke="red" points="622.5,-472.061 622.5,-491.061 681.5,-491.061 681.5,-472.061 622.5,-472.061"/>
<text text-anchor="middle" x="652" y="-479.061" font-family="Helvetica,sans-Serif" font-size="10.00">no_space</text>
</a>
</g>
</g>
<!-- Node1&#45;&gt;Node5 -->
<g id="edge53" class="edge"><title>Node1&#45;&gt;Node5</title>
<path fill="none" stroke="midnightblue" d="M47.7714,-282.125C46.5535,-355.292 48.4298,-823.561 296,-823.561 296,-823.561 296,-823.561 441,-823.561 593.445,-823.561 638.706,-573.745 648.642,-501.132"/>
<polygon fill="midnightblue" stroke="midnightblue" points="652.133,-501.432 649.945,-491.065 645.191,-500.534 652.133,-501.432"/>
</g>
<!-- Node6 -->
<g id="node6" class="node"><title>Node6</title>
<g id="a_node6"><a xlink:href="error_8c.html#ae2027917ace8b6f808a14b5cd4085eaf" target="_top" xlink:title="syntax_error">
<polygon fill="white" stroke="red" points="261.5,-73.0615 261.5,-92.0615 332.5,-92.0615 332.5,-73.0615 261.5,-73.0615"/>
<text text-anchor="middle" x="297" y="-80.0615" font-family="Helvetica,sans-Serif" font-size="10.00">syntax_error</text>
</a>
</g>
</g>
<!-- Node1&#45;&gt;Node6 -->
<g id="edge54" class="edge"><title>Node1&#45;&gt;Node6</title>
<path fill="none" stroke="midnightblue" d="M54.8727,-262.84C68.0356,-244.659 98.3212,-204.881 130,-177.561 177.808,-136.333 193.95,-130.609 250,-101.561 253.524,-99.7351 257.265,-97.9524 261.031,-96.2565"/>
<polygon fill="midnightblue" stroke="midnightblue" points="262.538,-99.4181 270.335,-92.2443 259.766,-92.9903 262.538,-99.4181"/>
</g>
<!-- Node7 -->
<g id="node7" class="node"><title>Node7</title>
<g id="a_node7"><a xlink:href="error_8c.html#a65962bc9ddf21cd2dc0b5f6b7dcb35fc" target="_top" xlink:title="unexpected_EOF">
<polygon fill="white" stroke="red" points="394,-244.061 394,-263.061 486,-263.061 486,-244.061 394,-244.061"/>
<text text-anchor="middle" x="440" y="-251.061" font-family="Helvetica,sans-Serif" font-size="10.00">unexpected_EOF</text>
</a>
</g>
</g>
<!-- Node1&#45;&gt;Node7 -->
<g id="edge55" class="edge"><title>Node1&#45;&gt;Node7</title>
<path fill="none" stroke="midnightblue" d="M47.8351,-263.004C47.7586,-225.626 52.9073,-88.3126 130,-25.5615 171.644,8.33512 196.395,-14.6778 250,-11.5615 291.707,-9.13675 309.481,11.9714 344,-11.5615 419.956,-63.3432 435.184,-185.909 438.236,-233.852"/>
<polygon fill="midnightblue" stroke="midnightblue" points="434.742,-234.065 438.76,-243.869 441.732,-233.699 434.742,-234.065"/>
</g>
<!-- Node8 -->
<g id="node8" class="node"><title>Node8</title>
<g id="a_node8"><a xlink:href="reader_8c.html#a5719a5118a10bc1e96786f599eeb516f" target="_top" xlink:title="copy_text">
<polygon fill="white" stroke="black" points="267.5,-681.061 267.5,-700.061 326.5,-700.061 326.5,-681.061 267.5,-681.061"/>
<text text-anchor="middle" x="297" y="-688.061" font-family="Helvetica,sans-Serif" font-size="10.00">copy_text</text>
</a>
</g>
</g>
<!-- Node1&#45;&gt;Node8 -->
<g id="edge7" class="edge"><title>Node1&#45;&gt;Node8</title>
<path fill="none" stroke="midnightblue" d="M49.0786,-282.062C53.546,-318.243 73.1121,-449.889 130,-539.561 168.094,-599.61 236.257,-650.794 272.244,-675.227"/>
<polygon fill="midnightblue" stroke="midnightblue" points="270.402,-678.206 280.662,-680.851 274.291,-672.386 270.402,-678.206"/>
</g>
<!-- Node13 -->
<g id="node13" class="node"><title>Node13</title>
<g id="a_node13"><a xlink:href="reader_8c.html#a7ee403ea2ff911fb368d38ab6ef937c3" target="_top" xlink:title="copy_union">
<polygon fill="white" stroke="black" points="264,-605.061 264,-624.061 330,-624.061 330,-605.061 264,-605.061"/>
<text text-anchor="middle" x="297" y="-612.061" font-family="Helvetica,sans-Serif" font-size="10.00">copy_union</text>
</a>
</g>
</g>
<!-- Node1&#45;&gt;Node13 -->
<g id="edge14" class="edge"><title>Node1&#45;&gt;Node13</title>
<path fill="none" stroke="midnightblue" d="M50.2394,-282.441C57.6593,-313.739 83.64,-412.689 130,-481.561 171.078,-542.587 188.296,-555.51 250,-595.561 252.754,-597.349 255.704,-599.025 258.731,-600.582"/>
<polygon fill="midnightblue" stroke="midnightblue" points="257.385,-603.816 267.925,-604.894 260.357,-597.479 257.385,-603.816"/>
</g>
<!-- Node16 -->
<g id="node16" class="node"><title>Node16</title>
<g id="a_node16"><a xlink:href="reader_8c.html#a279a8d9eb5a5ad8dce6c95b2647b9c98" target="_top" xlink:title="declare_start">
<polygon fill="white" stroke="black" points="135.5,-187.061 135.5,-206.061 208.5,-206.061 208.5,-187.061 135.5,-187.061"/>
<text text-anchor="middle" x="172" y="-194.061" font-family="Helvetica,sans-Serif" font-size="10.00">declare_start</text>
</a>
</g>
</g>
<!-- Node1&#45;&gt;Node16 -->
<g id="edge21" class="edge"><title>Node1&#45;&gt;Node16</title>
<path fill="none" stroke="midnightblue" d="M63.578,-262.936C84.5574,-249.973 122.101,-226.775 146.781,-211.526"/>
<polygon fill="midnightblue" stroke="midnightblue" points="148.881,-214.343 155.548,-206.109 145.202,-208.388 148.881,-214.343"/>
</g>
<!-- Node20 -->
<g id="node20" class="node"><title>Node20</title>
<g id="a_node20"><a xlink:href="reader_8c.html#a0b749a023a959fabb8ed2778b46ec217" target="_top" xlink:title="declare_tokens">
<polygon fill="white" stroke="red" points="130.5,-453.061 130.5,-472.061 213.5,-472.061 213.5,-453.061 130.5,-453.061"/>
<text text-anchor="middle" x="172" y="-460.061" font-family="Helvetica,sans-Serif" font-size="10.00">declare_tokens</text>
</a>
</g>
</g>
<!-- Node1&#45;&gt;Node20 -->
<g id="edge28" class="edge"><title>Node1&#45;&gt;Node20</title>
<path fill="none" stroke="midnightblue" d="M54.2687,-282.245C73.757,-312.349 133.507,-404.646 159.13,-444.226"/>
<polygon fill="midnightblue" stroke="midnightblue" points="156.224,-446.177 164.596,-452.67 162.1,-442.373 156.224,-446.177"/>
</g>
<!-- Node24 -->
<g id="node24" class="node"><title>Node24</title>
<g id="a_node24"><a xlink:href="reader_8c.html#a860dbc8da656fd831b19668da20207c7" target="_top" xlink:title="declare_types">
<polygon fill="white" stroke="red" points="133.5,-339.061 133.5,-358.061 210.5,-358.061 210.5,-339.061 133.5,-339.061"/>
<text text-anchor="middle" x="172" y="-346.061" font-family="Helvetica,sans-Serif" font-size="10.00">declare_types</text>
</a>
</g>
</g>
<!-- Node1&#45;&gt;Node24 -->
<g id="edge43" class="edge"><title>Node1&#45;&gt;Node24</title>
<path fill="none" stroke="midnightblue" d="M63.578,-282.187C84.5574,-295.15 122.101,-318.348 146.781,-333.597"/>
<polygon fill="midnightblue" stroke="midnightblue" points="145.202,-336.735 155.548,-339.014 148.881,-330.78 145.202,-336.735"/>
</g>
<!-- Node25 -->
<g id="node25" class="node"><title>Node25</title>
<g id="a_node25"><a xlink:href="reader_8c.html#a7b9f905e2f933d429fa1b479fd058f03" target="_top" xlink:title="keyword">
<polygon fill="white" stroke="red" points="145.5,-82.0615 145.5,-101.061 198.5,-101.061 198.5,-82.0615 145.5,-82.0615"/>
<text text-anchor="middle" x="172" y="-89.0615" font-family="Helvetica,sans-Serif" font-size="10.00">keyword</text>
</a>
</g>
</g>
<!-- Node1&#45;&gt;Node25 -->
<g id="edge50" class="edge"><title>Node1&#45;&gt;Node25</title>
<path fill="none" stroke="midnightblue" d="M51.9063,-262.868C62.1568,-238.179 91.6988,-171.625 130,-125.561 135.487,-118.962 142.385,-112.679 148.949,-107.35"/>
<polygon fill="midnightblue" stroke="midnightblue" points="151.185,-110.045 156.954,-101.159 146.902,-104.508 151.185,-110.045"/>
</g>
<!-- Node2&#45;&gt;Node3 -->
<g id="edge2" class="edge"><title>Node2&#45;&gt;Node3</title>
<path fill="none" stroke="midnightblue" d="M204.07,-37.9786C242.264,-31.8686 306.599,-28.3371 344,-63.5615 412.616,-128.185 346.517,-184.452 380,-272.561 391.083,-301.727 411.502,-331.712 425.167,-349.994"/>
<polygon fill="midnightblue" stroke="midnightblue" points="422.411,-352.152 431.263,-357.974 427.974,-347.902 422.411,-352.152"/>
</g>
<!-- Node2&#45;&gt;Node6 -->
<g id="edge5" class="edge"><title>Node2&#45;&gt;Node6</title>
<path fill="none" stroke="midnightblue" d="M204.038,-54.1505C219.479,-58.9209 238.348,-64.7502 254.966,-69.8843"/>
<polygon fill="midnightblue" stroke="midnightblue" points="254.384,-73.3677 264.972,-72.9755 256.451,-66.6796 254.384,-73.3677"/>
</g>
<!-- Node2&#45;&gt;Node7 -->
<g id="edge6" class="edge"><title>Node2&#45;&gt;Node7</title>
<path fill="none" stroke="midnightblue" d="M194.275,-35.0291C228.826,-21.1316 297.904,-0.0943486 344,-30.5615 414.553,-77.1938 432.88,-188.04 437.498,-233.542"/>
<polygon fill="midnightblue" stroke="midnightblue" points="434.023,-233.975 438.401,-243.623 440.995,-233.351 434.023,-233.975"/>
</g>
<!-- Node4 -->
<g id="node4" class="node"><title>Node4</title>
<g id="a_node4"><a xlink:href="reader_8c.html#a204317aa3b6d154f1abff12df35953df" target="_top" xlink:title="get_line">
<polygon fill="white" stroke="black" points="536,-472.061 536,-491.061 586,-491.061 586,-472.061 536,-472.061"/>
<text text-anchor="middle" x="561" y="-479.061" font-family="Helvetica,sans-Serif" font-size="10.00">get_line</text>
</a>
</g>
</g>
<!-- Node3&#45;&gt;Node4 -->
<g id="edge3" class="edge"><title>Node3&#45;&gt;Node4</title>
<path fill="none" stroke="midnightblue" d="M451.146,-377.281C471.433,-396.716 517.213,-440.573 542.462,-464.76"/>
<polygon fill="midnightblue" stroke="midnightblue" points="540.237,-467.476 549.88,-471.866 545.08,-462.421 540.237,-467.476"/>
</g>
<!-- Node4&#45;&gt;Node5 -->
<g id="edge4" class="edge"><title>Node4&#45;&gt;Node5</title>
<path fill="none" stroke="midnightblue" d="M586.32,-481.561C594.31,-481.561 603.402,-481.561 612.192,-481.561"/>
<polygon fill="midnightblue" stroke="midnightblue" points="612.289,-485.062 622.289,-481.561 612.289,-478.062 612.289,-485.062"/>
</g>
<!-- Node8&#45;&gt;Node4 -->
<g id="edge10" class="edge"><title>Node8&#45;&gt;Node4</title>
<path fill="none" stroke="midnightblue" d="M312.534,-700.197C348.479,-722.709 442.771,-773.553 500,-728.561 536.037,-700.23 553.099,-555.207 558.25,-501.553"/>
<polygon fill="midnightblue" stroke="midnightblue" points="561.762,-501.579 559.194,-491.3 554.792,-500.937 561.762,-501.579"/>
</g>
<!-- Node9 -->
<g id="node9" class="node"><title>Node9</title>
<g id="a_node9"><a xlink:href="reader_8c.html#a416a4e795e86e5666f1a734793f9636e" target="_top" xlink:title="dup_line">
<polygon fill="white" stroke="black" points="413.5,-510.061 413.5,-529.061 466.5,-529.061 466.5,-510.061 413.5,-510.061"/>
<text text-anchor="middle" x="440" y="-517.061" font-family="Helvetica,sans-Serif" font-size="10.00">dup_line</text>
</a>
</g>
</g>
<!-- Node8&#45;&gt;Node9 -->
<g id="edge8" class="edge"><title>Node8&#45;&gt;Node9</title>
<path fill="none" stroke="midnightblue" d="M306.504,-680.745C316.02,-669.598 331.715,-650.727 344,-633.561 361.438,-609.195 361.09,-599.804 380,-576.561 391.977,-561.84 407.471,-547.001 419.575,-536.155"/>
<polygon fill="midnightblue" stroke="midnightblue" points="422.132,-538.568 427.329,-529.335 417.508,-533.312 422.132,-538.568"/>
</g>
<!-- Node10 -->
<g id="node10" class="node"><title>Node10</title>
<g id="a_node10"><a xlink:href="error_8c.html#a81c4e76cf37319065a21afcaec1b8ab1" target="_top" xlink:title="unterminated_comment">
<polygon fill="white" stroke="red" points="380.5,-700.061 380.5,-719.061 499.5,-719.061 499.5,-700.061 380.5,-700.061"/>
<text text-anchor="middle" x="440" y="-707.061" font-family="Helvetica,sans-Serif" font-size="10.00">unterminated_comment</text>
</a>
</g>
</g>
<!-- Node8&#45;&gt;Node10 -->
<g id="edge11" class="edge"><title>Node8&#45;&gt;Node10</title>
<path fill="none" stroke="midnightblue" d="M326.533,-694.406C339.207,-696.114 354.727,-698.205 370.141,-700.283"/>
<polygon fill="midnightblue" stroke="midnightblue" points="369.846,-703.774 380.224,-701.641 370.781,-696.837 369.846,-703.774"/>
</g>
<!-- Node11 -->
<g id="node11" class="node"><title>Node11</title>
<g id="a_node11"><a xlink:href="error_8c.html#a1be74faa1a912de2fd380aa9a4de6eb2" target="_top" xlink:title="unterminated_string">
<polygon fill="white" stroke="red" points="389,-662.061 389,-681.061 491,-681.061 491,-662.061 389,-662.061"/>
<text text-anchor="middle" x="440" y="-669.061" font-family="Helvetica,sans-Serif" font-size="10.00">unterminated_string</text>
</a>
</g>
</g>
<!-- Node8&#45;&gt;Node11 -->
<g id="edge12" class="edge"><title>Node8&#45;&gt;Node11</title>
<path fill="none" stroke="midnightblue" d="M326.533,-686.717C341.606,-684.685 360.704,-682.112 378.863,-679.665"/>
<polygon fill="midnightblue" stroke="midnightblue" points="379.38,-683.127 388.823,-678.323 378.445,-676.19 379.38,-683.127"/>
</g>
<!-- Node12 -->
<g id="node12" class="node"><title>Node12</title>
<g id="a_node12"><a xlink:href="error_8c.html#a60e968f02480372518e9cce97e70ef5b" target="_top" xlink:title="unterminated_text">
<polygon fill="white" stroke="red" points="392.5,-776.061 392.5,-795.061 487.5,-795.061 487.5,-776.061 392.5,-776.061"/>
<text text-anchor="middle" x="440" y="-783.061" font-family="Helvetica,sans-Serif" font-size="10.00">unterminated_text</text>
</a>
</g>
</g>
<!-- Node8&#45;&gt;Node12 -->
<g id="edge13" class="edge"><title>Node8&#45;&gt;Node12</title>
<path fill="none" stroke="midnightblue" d="M307.27,-700.439C321.663,-715.32 350.782,-743.648 380,-761.561 386.417,-765.495 393.592,-769.034 400.668,-772.109"/>
<polygon fill="midnightblue" stroke="midnightblue" points="399.597,-775.453 410.177,-776.009 402.253,-768.976 399.597,-775.453"/>
</g>
<!-- Node9&#45;&gt;Node5 -->
<g id="edge9" class="edge"><title>Node9&#45;&gt;Node5</title>
<path fill="none" stroke="midnightblue" d="M466.608,-517.409C495.739,-514.683 544.633,-509.263 586,-500.561 594.777,-498.715 604.095,-496.282 612.853,-493.775"/>
<polygon fill="midnightblue" stroke="midnightblue" points="613.845,-497.132 622.443,-490.942 611.861,-490.419 613.845,-497.132"/>
</g>
<!-- Node13&#45;&gt;Node4 -->
<g id="edge16" class="edge"><title>Node13&#45;&gt;Node4</title>
<path fill="none" stroke="midnightblue" d="M322.537,-604.926C329.53,-602.045 337.116,-598.791 344,-595.561 360.379,-587.877 363.309,-583.542 380,-576.561 431.611,-554.975 451.823,-566.998 500,-538.561 517.661,-528.137 534.28,-511.618 545.529,-499.04"/>
<polygon fill="midnightblue" stroke="midnightblue" points="548.203,-501.299 552.102,-491.448 542.911,-496.717 548.203,-501.299"/>
</g>
<!-- Node13&#45;&gt;Node9 -->
<g id="edge15" class="edge"><title>Node13&#45;&gt;Node9</title>
<path fill="none" stroke="midnightblue" d="M328.106,-605.058C333.718,-602.498 339.291,-599.357 344,-595.561 365.884,-577.92 358.069,-561.144 380,-543.561 387.007,-537.944 395.507,-533.475 403.847,-529.991"/>
<polygon fill="midnightblue" stroke="midnightblue" points="405.355,-533.162 413.464,-526.345 402.873,-526.617 405.355,-533.162"/>
</g>
<!-- Node13&#45;&gt;Node10 -->
<g id="edge18" class="edge"><title>Node13&#45;&gt;Node10</title>
<path fill="none" stroke="midnightblue" d="M305.833,-624.153C319.359,-640.126 348.673,-672.228 380,-690.561 383.605,-692.671 387.473,-694.578 391.441,-696.294"/>
<polygon fill="midnightblue" stroke="midnightblue" points="390.218,-699.575 400.806,-699.962 392.771,-693.056 390.218,-699.575"/>
</g>
<!-- Node13&#45;&gt;Node11 -->
<g id="edge19" class="edge"><title>Node13&#45;&gt;Node11</title>
<path fill="none" stroke="midnightblue" d="M316.932,-624.141C333.37,-632.263 357.934,-643.933 380,-652.561 385.522,-654.721 391.399,-656.83 397.224,-658.812"/>
<polygon fill="midnightblue" stroke="midnightblue" points="396.311,-662.196 406.904,-662.012 398.508,-655.55 396.311,-662.196"/>
</g>
<!-- Node14 -->
<g id="node14" class="node"><title>Node14</title>
<g id="a_node14"><a xlink:href="error_8c.html#aa9bb2f4291d5b51cee6f8dc4156e0fd5" target="_top" xlink:title="over_unionized">
<polygon fill="white" stroke="red" points="399,-586.061 399,-605.061 481,-605.061 481,-586.061 399,-586.061"/>
<text text-anchor="middle" x="440" y="-593.061" font-family="Helvetica,sans-Serif" font-size="10.00">over_unionized</text>
</a>
</g>
</g>
<!-- Node13&#45;&gt;Node14 -->
<g id="edge17" class="edge"><title>Node13&#45;&gt;Node14</title>
<path fill="none" stroke="midnightblue" d="M330.348,-610.202C347.726,-607.861 369.531,-604.923 389.037,-602.294"/>
<polygon fill="midnightblue" stroke="midnightblue" points="389.549,-605.757 398.992,-600.953 388.614,-598.819 389.549,-605.757"/>
</g>
<!-- Node15 -->
<g id="node15" class="node"><title>Node15</title>
<g id="a_node15"><a xlink:href="error_8c.html#a81dd9930c4155592c10afdb2b0e34588" target="_top" xlink:title="unterminated_union">
<polygon fill="white" stroke="red" points="389.5,-624.061 389.5,-643.061 490.5,-643.061 490.5,-624.061 389.5,-624.061"/>
<text text-anchor="middle" x="440" y="-631.061" font-family="Helvetica,sans-Serif" font-size="10.00">unterminated_union</text>
</a>
</g>
</g>
<!-- Node13&#45;&gt;Node15 -->
<g id="edge20" class="edge"><title>Node13&#45;&gt;Node15</title>
<path fill="none" stroke="midnightblue" d="M330.348,-618.92C344.824,-620.871 362.371,-623.236 379.103,-625.49"/>
<polygon fill="midnightblue" stroke="midnightblue" points="379.003,-629.008 389.381,-626.875 379.938,-622.071 379.003,-629.008"/>
</g>
<!-- Node16&#45;&gt;Node3 -->
<g id="edge23" class="edge"><title>Node16&#45;&gt;Node3</title>
<path fill="none" stroke="midnightblue" d="M201.647,-206.071C247.107,-221.292 331.888,-250.26 344,-258.561 380.375,-283.494 411.565,-325.539 427.555,-349.468"/>
<polygon fill="midnightblue" stroke="midnightblue" points="424.699,-351.496 433.096,-357.957 430.561,-347.67 424.699,-351.496"/>
</g>
<!-- Node16&#45;&gt;Node6 -->
<g id="edge25" class="edge"><title>Node16&#45;&gt;Node6</title>
<path fill="none" stroke="midnightblue" d="M182.899,-187.056C191.5,-178.597 204.098,-165.717 214,-153.561 231.753,-131.768 228.116,-119.203 250,-101.561 252.06,-99.9007 254.286,-98.3654 256.608,-96.9493"/>
<polygon fill="midnightblue" stroke="midnightblue" points="258.673,-99.8175 265.894,-92.0649 255.415,-93.6221 258.673,-99.8175"/>
</g>
<!-- Node16&#45;&gt;Node7 -->
<g id="edge27" class="edge"><title>Node16&#45;&gt;Node7</title>
<path fill="none" stroke="midnightblue" d="M208.75,-199.533C243.611,-202.909 297.957,-209.446 344,-220.561 365.051,-225.643 388.004,-233.547 406.074,-240.346"/>
<polygon fill="midnightblue" stroke="midnightblue" points="404.977,-243.674 415.568,-243.984 407.482,-237.137 404.977,-243.674"/>
</g>
<!-- Node17 -->
<g id="node17" class="node"><title>Node17</title>
<g id="a_node17"><a xlink:href="reader_8c.html#a47f6ab5db224a190b33568ed55a03eaf" target="_top" xlink:title="get_name">
<polygon fill="white" stroke="red" points="267.5,-339.061 267.5,-358.061 326.5,-358.061 326.5,-339.061 267.5,-339.061"/>
<text text-anchor="middle" x="297" y="-346.061" font-family="Helvetica,sans-Serif" font-size="10.00">get_name</text>
</a>
</g>
</g>
<!-- Node16&#45;&gt;Node17 -->
<g id="edge22" class="edge"><title>Node16&#45;&gt;Node17</title>
<path fill="none" stroke="midnightblue" d="M180.694,-206.07C200.885,-231.021 255.625,-298.667 281.751,-330.953"/>
<polygon fill="midnightblue" stroke="midnightblue" points="279.297,-333.485 288.309,-339.057 284.739,-329.081 279.297,-333.485"/>
</g>
<!-- Node18 -->
<g id="node18" class="node"><title>Node18</title>
<g id="a_node18"><a xlink:href="error_8c.html#a23e15c296f3057431e3c58bb151b44bd" target="_top" xlink:title="restarted_warning">
<polygon fill="white" stroke="black" points="250,-111.061 250,-130.061 344,-130.061 344,-111.061 250,-111.061"/>
<text text-anchor="middle" x="297" y="-118.061" font-family="Helvetica,sans-Serif" font-size="10.00">restarted_warning</text>
</a>
</g>
</g>
<!-- Node16&#45;&gt;Node18 -->
<g id="edge24" class="edge"><title>Node16&#45;&gt;Node18</title>
<path fill="none" stroke="midnightblue" d="M184.134,-186.937C198.593,-174.773 224.951,-153.72 250,-139.561 253.277,-137.709 256.77,-135.937 260.312,-134.272"/>
<polygon fill="midnightblue" stroke="midnightblue" points="261.952,-137.374 269.684,-130.13 259.122,-130.971 261.952,-137.374"/>
</g>
<!-- Node19 -->
<g id="node19" class="node"><title>Node19</title>
<g id="a_node19"><a xlink:href="error_8c.html#a6859daa9b91716c6fbe56b822641877c" target="_top" xlink:title="terminal_start">
<polygon fill="white" stroke="red" points="259,-149.061 259,-168.061 335,-168.061 335,-149.061 259,-149.061"/>
<text text-anchor="middle" x="297" y="-156.061" font-family="Helvetica,sans-Serif" font-size="10.00">terminal_start</text>
</a>
</g>
</g>
<!-- Node16&#45;&gt;Node19 -->
<g id="edge26" class="edge"><title>Node16&#45;&gt;Node19</title>
<path fill="none" stroke="midnightblue" d="M204.038,-186.972C219.479,-182.202 238.348,-176.373 254.966,-171.239"/>
<polygon fill="midnightblue" stroke="midnightblue" points="256.451,-174.443 264.972,-168.147 254.384,-167.755 256.451,-174.443"/>
</g>
<!-- Node20&#45;&gt;Node3 -->
<g id="edge41" class="edge"><title>Node20&#45;&gt;Node3</title>
<path fill="none" stroke="midnightblue" d="M213.818,-465.25C250.345,-465.791 304.127,-461.833 344,-438.561 366.725,-425.298 359.081,-407.522 380,-391.561 388.769,-384.871 399.663,-379.75 409.693,-375.992"/>
<polygon fill="midnightblue" stroke="midnightblue" points="411.007,-379.242 419.325,-372.68 408.731,-372.622 411.007,-379.242"/>
</g>
<!-- Node20&#45;&gt;Node7 -->
<g id="edge42" class="edge"><title>Node20&#45;&gt;Node7</title>
<path fill="none" stroke="midnightblue" d="M196.24,-452.972C230.776,-438.022 296.653,-406.764 344,-367.561 378.861,-338.697 410.615,-295.762 427.108,-271.662"/>
<polygon fill="midnightblue" stroke="midnightblue" points="430.165,-273.388 432.841,-263.137 424.356,-269.482 430.165,-273.388"/>
</g>
<!-- Node20&#45;&gt;Node17 -->
<g id="edge34" class="edge"><title>Node20&#45;&gt;Node17</title>
<path fill="none" stroke="midnightblue" d="M183.487,-452.842C204.456,-433.407 251.775,-389.55 277.872,-365.363"/>
<polygon fill="midnightblue" stroke="midnightblue" points="280.584,-367.621 285.54,-358.256 275.826,-362.487 280.584,-367.621"/>
</g>
<!-- Node21 -->
<g id="node21" class="node"><title>Node21</title>
<g id="a_node21"><a xlink:href="reader_8c.html#acfb64f081b0d9c4536e90c5352ce9c2c" target="_top" xlink:title="get_literal">
<polygon fill="white" stroke="red" points="267.5,-529.061 267.5,-548.061 326.5,-548.061 326.5,-529.061 267.5,-529.061"/>
<text text-anchor="middle" x="297" y="-536.061" font-family="Helvetica,sans-Serif" font-size="10.00">get_literal</text>
</a>
</g>
</g>
<!-- Node20&#45;&gt;Node21 -->
<g id="edge29" class="edge"><title>Node20&#45;&gt;Node21</title>
<path fill="none" stroke="midnightblue" d="M184.134,-472.186C198.593,-484.35 224.951,-505.403 250,-519.561 253.277,-521.414 256.77,-523.186 260.312,-524.851"/>
<polygon fill="midnightblue" stroke="midnightblue" points="259.122,-528.152 269.684,-528.993 261.952,-521.749 259.122,-528.152"/>
</g>
<!-- Node22 -->
<g id="node22" class="node"><title>Node22</title>
<g id="a_node22"><a xlink:href="reader_8c.html#aceeb8c6c5418f8ac9c9b5666f4047ae3" target="_top" xlink:title="get_number">
<polygon fill="white" stroke="black" points="263,-567.061 263,-586.061 331,-586.061 331,-567.061 263,-567.061"/>
<text text-anchor="middle" x="297" y="-574.061" font-family="Helvetica,sans-Serif" font-size="10.00">get_number</text>
</a>
</g>
</g>
<!-- Node20&#45;&gt;Node22 -->
<g id="edge35" class="edge"><title>Node20&#45;&gt;Node22</title>
<path fill="none" stroke="midnightblue" d="M178.551,-472.247C189.787,-491.08 216.981,-532.942 250,-557.561 252.338,-559.305 254.859,-560.918 257.474,-562.407"/>
<polygon fill="midnightblue" stroke="midnightblue" points="256.092,-565.629 266.599,-566.988 259.233,-559.373 256.092,-565.629"/>
</g>
<!-- Node23 -->
<g id="node23" class="node"><title>Node23</title>
<g id="a_node23"><a xlink:href="reader_8c.html#a0d5a7fe7641edf38078ba5e99536772d" target="_top" xlink:title="get_tag">
<polygon fill="white" stroke="red" points="272.5,-491.061 272.5,-510.061 321.5,-510.061 321.5,-491.061 272.5,-491.061"/>
<text text-anchor="middle" x="297" y="-498.061" font-family="Helvetica,sans-Serif" font-size="10.00">get_tag</text>
</a>
</g>
</g>
<!-- Node20&#45;&gt;Node23 -->
<g id="edge36" class="edge"><title>Node20&#45;&gt;Node23</title>
<path fill="none" stroke="midnightblue" d="M204.038,-472.15C221.932,-477.679 244.429,-484.629 262.693,-490.272"/>
<polygon fill="midnightblue" stroke="midnightblue" points="261.76,-493.647 272.348,-493.254 263.827,-486.958 261.76,-493.647"/>
</g>
<!-- Node21&#45;&gt;Node4 -->
<g id="edge31" class="edge"><title>Node21&#45;&gt;Node4</title>
<path fill="none" stroke="midnightblue" d="M322.537,-528.926C329.53,-526.045 337.116,-522.791 344,-519.561 360.379,-511.877 362.692,-505.828 380,-500.561 429.114,-485.616 488.85,-482.008 525.647,-481.354"/>
<polygon fill="midnightblue" stroke="midnightblue" points="525.882,-484.852 535.842,-481.238 525.803,-477.852 525.882,-484.852"/>
</g>
<!-- Node21&#45;&gt;Node5 -->
<g id="edge32" class="edge"><title>Node21&#45;&gt;Node5</title>
<path fill="none" stroke="midnightblue" d="M326.84,-529.094C332.794,-526.483 338.822,-523.313 344,-519.561 363.91,-505.138 358.182,-488.893 380,-477.561 461.466,-435.251 495.129,-449.552 586,-462.561 595.572,-463.932 605.704,-466.383 615.046,-469.079"/>
<polygon fill="midnightblue" stroke="midnightblue" points="614.225,-472.487 624.811,-472.061 616.269,-465.793 614.225,-472.487"/>
</g>
<!-- Node21&#45;&gt;Node9 -->
<g id="edge30" class="edge"><title>Node21&#45;&gt;Node9</title>
<path fill="none" stroke="midnightblue" d="M326.533,-534.717C348.684,-531.732 379.525,-527.576 403.309,-524.371"/>
<polygon fill="midnightblue" stroke="midnightblue" points="403.911,-527.822 413.354,-523.017 402.976,-520.884 403.911,-527.822"/>
</g>
<!-- Node21&#45;&gt;Node11 -->
<g id="edge33" class="edge"><title>Node21&#45;&gt;Node11</title>
<path fill="none" stroke="midnightblue" d="M326.503,-546.123C332.887,-548.887 339.185,-552.602 344,-557.561 375.453,-589.956 347.274,-621.453 380,-652.561 381.648,-654.128 383.425,-655.565 385.3,-656.883"/>
<polygon fill="midnightblue" stroke="midnightblue" points="383.632,-659.962 394.04,-661.939 387.137,-653.902 383.632,-659.962"/>
</g>
<!-- Node23&#45;&gt;Node3 -->
<g id="edge38" class="edge"><title>Node23&#45;&gt;Node3</title>
<path fill="none" stroke="midnightblue" d="M321.621,-492.061C329.536,-488.291 337.891,-483.181 344,-476.561 371.823,-446.411 350.784,-420.363 380,-391.561 388.116,-383.561 399.26,-378.112 409.678,-374.457"/>
<polygon fill="midnightblue" stroke="midnightblue" points="410.8,-377.774 419.322,-371.478 408.734,-371.086 410.8,-377.774"/>
</g>
<!-- Node23&#45;&gt;Node5 -->
<g id="edge39" class="edge"><title>Node23&#45;&gt;Node5</title>
<path fill="none" stroke="midnightblue" d="M311.187,-490.836C320.55,-483.79 333.305,-473.898 344,-464.561 360.811,-449.886 359.324,-437.956 380,-429.561 464.831,-395.121 499.606,-399.256 586,-429.561 605.688,-436.468 623.843,-452.123 635.932,-464.463"/>
<polygon fill="midnightblue" stroke="midnightblue" points="633.567,-467.058 642.956,-471.967 638.678,-462.275 633.567,-467.058"/>
</g>
<!-- Node23&#45;&gt;Node7 -->
<g id="edge40" class="edge"><title>Node23&#45;&gt;Node7</title>
<path fill="none" stroke="midnightblue" d="M306.324,-491.006C316.249,-479.267 332.889,-458.453 344,-438.561 365.009,-400.95 360.561,-387.008 380,-348.561 394.089,-320.696 413.762,-290.348 426.442,-271.635"/>
<polygon fill="midnightblue" stroke="midnightblue" points="429.446,-273.443 432.209,-263.214 423.671,-269.487 429.446,-273.443"/>
</g>
<!-- Node23&#45;&gt;Node9 -->
<g id="edge37" class="edge"><title>Node23&#45;&gt;Node9</title>
<path fill="none" stroke="midnightblue" d="M321.6,-503.742C343.925,-506.75 377.733,-511.306 403.344,-514.757"/>
<polygon fill="midnightblue" stroke="midnightblue" points="403.034,-518.247 413.412,-516.113 403.969,-511.309 403.034,-518.247"/>
</g>
<!-- Node24&#45;&gt;Node3 -->
<g id="edge47" class="edge"><title>Node24&#45;&gt;Node3</title>
<path fill="none" stroke="midnightblue" d="M204.15,-358.067C218.04,-361.831 234.691,-365.701 250,-367.561 305.883,-374.354 371.75,-372.042 409.119,-369.778"/>
<polygon fill="midnightblue" stroke="midnightblue" points="409.563,-373.257 419.316,-369.118 409.11,-366.272 409.563,-373.257"/>
</g>
<!-- Node24&#45;&gt;Node6 -->
<g id="edge48" class="edge"><title>Node24&#45;&gt;Node6</title>
<path fill="none" stroke="midnightblue" d="M175.973,-338.928C190,-293.49 248.932,-102.729 250,-101.561 251.203,-100.246 252.51,-99.0195 253.897,-97.8758"/>
<polygon fill="midnightblue" stroke="midnightblue" points="256.113,-100.608 262.548,-92.191 252.269,-94.7579 256.113,-100.608"/>
</g>
<!-- Node24&#45;&gt;Node7 -->
<g id="edge49" class="edge"><title>Node24&#45;&gt;Node7</title>
<path fill="none" stroke="midnightblue" d="M199.969,-338.93C248.089,-321.744 348.757,-285.791 402.825,-266.481"/>
<polygon fill="midnightblue" stroke="midnightblue" points="404.115,-269.737 412.355,-263.078 401.76,-263.145 404.115,-269.737"/>
</g>
<!-- Node24&#45;&gt;Node17 -->
<g id="edge45" class="edge"><title>Node24&#45;&gt;Node17</title>
<path fill="none" stroke="midnightblue" d="M210.572,-348.561C225.24,-348.561 242.058,-348.561 256.872,-348.561"/>
<polygon fill="midnightblue" stroke="midnightblue" points="257.244,-352.062 267.244,-348.561 257.244,-345.062 257.244,-352.062"/>
</g>
<!-- Node24&#45;&gt;Node21 -->
<g id="edge44" class="edge"><title>Node24&#45;&gt;Node21</title>
<path fill="none" stroke="midnightblue" d="M177.165,-358.338C192.271,-393.726 243.629,-513.387 250,-519.561 252.42,-521.907 255.17,-523.978 258.094,-525.805"/>
<polygon fill="midnightblue" stroke="midnightblue" points="256.745,-529.049 267.229,-530.581 259.988,-522.846 256.745,-529.049"/>
</g>
<!-- Node24&#45;&gt;Node23 -->
<g id="edge46" class="edge"><title>Node24&#45;&gt;Node23</title>
<path fill="none" stroke="midnightblue" d="M180.694,-358.07C200.885,-383.021 255.625,-450.667 281.751,-482.953"/>
<polygon fill="midnightblue" stroke="midnightblue" points="279.297,-485.485 288.309,-491.057 284.739,-481.081 279.297,-485.485"/>
</g>
<!-- Node25&#45;&gt;Node6 -->
<g id="edge51" class="edge"><title>Node25&#45;&gt;Node6</title>
<path fill="none" stroke="midnightblue" d="M198.785,-89.6748C213.978,-88.5631 233.621,-87.1258 251.269,-85.8344"/>
<polygon fill="midnightblue" stroke="midnightblue" points="251.663,-89.3151 261.381,-85.0946 251.152,-82.3337 251.663,-89.3151"/>
</g>
</g>
</svg>
