<?xml version="1.0" encoding="UTF-8" standalone="no"?>
<!DOCTYPE svg PUBLIC "-//W3C//DTD SVG 1.1//EN"
 "http://www.w3.org/Graphics/SVG/1.1/DTD/svg11.dtd">
<!-- Generated by graphviz version 2.36.0 (20140111.2315)
 -->
<!-- Title: dup_line Pages: 1 -->
<svg width="728pt" height="436pt"
 viewBox="0.00 0.00 728.00 435.95" xmlns="http://www.w3.org/2000/svg" xmlns:xlink="http://www.w3.org/1999/xlink">
<g id="graph0" class="graph" transform="scale(1 1) rotate(0) translate(4 431.953)">
<title>dup_line</title>
<polygon fill="white" stroke="none" points="-4,4 -4,-431.953 724,-431.953 724,4 -4,4"/>
<!-- Node1 -->
<g id="node1" class="node"><title>Node1</title>
<polygon fill="#bfbfbf" stroke="black" points="0.5,-127.76 0.5,-146.76 53.5,-146.76 53.5,-127.76 0.5,-127.76"/>
<text text-anchor="middle" x="27" y="-134.76" font-family="Helvetica,sans-Serif" font-size="10.00">dup_line</text>
</g>
<!-- Node2 -->
<g id="node2" class="node"><title>Node2</title>
<g id="a_node2"><a xlink:href="reader_8c.html#abb83807b1bba8d346650d3e4ae4e7425" target="_top" xlink:title="copy_action">
<polygon fill="white" stroke="black" points="429.5,-42.7602 429.5,-61.7602 498.5,-61.7602 498.5,-42.7602 429.5,-42.7602"/>
<text text-anchor="middle" x="464" y="-49.7602" font-family="Helvetica,sans-Serif" font-size="10.00">copy_action</text>
</a>
</g>
</g>
<!-- Node1&#45;&gt;Node2 -->
<g id="edge1" class="edge"><title>Node1&#45;&gt;Node2</title>
<path fill="none" stroke="midnightblue" d="M44.5566,-120.6C56.3533,-109.534 73.0627,-95.4113 90,-86.2602 179.293,-38.0156 207.665,-33.5456 308,-18.2602 340.514,-13.3069 349.758,-11.7678 382,-18.2602 382.776,-18.4164 416.603,-32.666 440.293,-42.666"/>
<polygon fill="midnightblue" stroke="midnightblue" points="41.9939,-118.209 37.2321,-127.674 46.8567,-123.244 41.9939,-118.209"/>
</g>
<!-- Node5 -->
<g id="node5" class="node"><title>Node5</title>
<g id="a_node5"><a xlink:href="reader_8c.html#a5719a5118a10bc1e96786f599eeb516f" target="_top" xlink:title="copy_text">
<polygon fill="white" stroke="black" points="315.5,-384.76 315.5,-403.76 374.5,-403.76 374.5,-384.76 315.5,-384.76"/>
<text text-anchor="middle" x="345" y="-391.76" font-family="Helvetica,sans-Serif" font-size="10.00">copy_text</text>
</a>
</g>
</g>
<!-- Node1&#45;&gt;Node5 -->
<g id="edge4" class="edge"><title>Node1&#45;&gt;Node5</title>
<path fill="none" stroke="midnightblue" d="M47.9462,-153.482C107.731,-202.105 284.256,-345.671 331.986,-384.49"/>
<polygon fill="midnightblue" stroke="midnightblue" points="49.9682,-150.615 40.0017,-147.021 45.5515,-156.046 49.9682,-150.615"/>
</g>
<!-- Node8 -->
<g id="node8" class="node"><title>Node8</title>
<g id="a_node8"><a xlink:href="reader_8c.html#a7ee403ea2ff911fb368d38ab6ef937c3" target="_top" xlink:title="copy_union">
<polygon fill="white" stroke="black" points="206,-374.76 206,-393.76 272,-393.76 272,-374.76 206,-374.76"/>
<text text-anchor="middle" x="239" y="-381.76" font-family="Helvetica,sans-Serif" font-size="10.00">copy_union</text>
</a>
</g>
</g>
<!-- Node1&#45;&gt;Node8 -->
<g id="edge9" class="edge"><title>Node1&#45;&gt;Node8</title>
<path fill="none" stroke="midnightblue" d="M30.0145,-156.965C34.5977,-192.374 48.8169,-267.343 90,-313.26 121.015,-347.841 172.535,-367.169 205.875,-376.649"/>
<polygon fill="midnightblue" stroke="midnightblue" points="33.4807,-156.472 28.843,-146.946 26.528,-157.285 33.4807,-156.472"/>
</g>
<!-- Node9 -->
<g id="node9" class="node"><title>Node9</title>
<g id="a_node9"><a xlink:href="reader_8c.html#acfb64f081b0d9c4536e90c5352ce9c2c" target="_top" xlink:title="get_literal">
<polygon fill="white" stroke="black" points="315.5,-42.7602 315.5,-61.7602 374.5,-61.7602 374.5,-42.7602 315.5,-42.7602"/>
<text text-anchor="middle" x="345" y="-49.7602" font-family="Helvetica,sans-Serif" font-size="10.00">get_literal</text>
</a>
</g>
</g>
<!-- Node1&#45;&gt;Node9 -->
<g id="edge11" class="edge"><title>Node1&#45;&gt;Node9</title>
<path fill="none" stroke="midnightblue" d="M58.8867,-123.736C68.718,-119.721 79.7131,-115.528 90,-112.26 170.322,-86.741 268.011,-66.6308 315.429,-57.541"/>
<polygon fill="midnightblue" stroke="midnightblue" points="57.392,-120.567 49.5128,-127.65 60.0893,-127.027 57.392,-120.567"/>
</g>
<!-- Node14 -->
<g id="node14" class="node"><title>Node14</title>
<g id="a_node14"><a xlink:href="reader_8c.html#a0d5a7fe7641edf38078ba5e99536772d" target="_top" xlink:title="get_tag">
<polygon fill="white" stroke="black" points="320.5,-80.7602 320.5,-99.7602 369.5,-99.7602 369.5,-80.7602 320.5,-80.7602"/>
<text text-anchor="middle" x="345" y="-87.7602" font-family="Helvetica,sans-Serif" font-size="10.00">get_tag</text>
</a>
</g>
</g>
<!-- Node1&#45;&gt;Node14 -->
<g id="edge20" class="edge"><title>Node1&#45;&gt;Node14</title>
<path fill="none" stroke="midnightblue" d="M63.7909,-131.937C128.983,-122.241 265.415,-101.948 320.342,-93.779"/>
<polygon fill="midnightblue" stroke="midnightblue" points="62.9682,-128.521 53.5919,-133.454 63.9981,-135.444 62.9682,-128.521"/>
</g>
<!-- Node15 -->
<g id="node15" class="node"><title>Node15</title>
<g id="a_node15"><a xlink:href="reader_8c.html#ac812a775973bb1eb24e86256b2de6b8b" target="_top" xlink:title="skip_comment">
<polygon fill="white" stroke="black" points="90,-137.76 90,-156.76 170,-156.76 170,-137.76 90,-137.76"/>
<text text-anchor="middle" x="130" y="-144.76" font-family="Helvetica,sans-Serif" font-size="10.00">skip_comment</text>
</a>
</g>
</g>
<!-- Node1&#45;&gt;Node15 -->
<g id="edge24" class="edge"><title>Node1&#45;&gt;Node15</title>
<path fill="none" stroke="midnightblue" d="M63.7242,-140.797C72.2108,-141.637 81.3078,-142.538 89.935,-143.392"/>
<polygon fill="midnightblue" stroke="midnightblue" points="64.0441,-137.312 53.7479,-139.809 63.3544,-144.278 64.0441,-137.312"/>
</g>
<!-- Node3 -->
<g id="node3" class="node"><title>Node3</title>
<g id="a_node3"><a xlink:href="reader_8c.html#af6d4fba61bb761ca9fe92fef83e8ee94" target="_top" xlink:title="read_grammar">
<polygon fill="white" stroke="black" points="553.5,-132.76 553.5,-151.76 632.5,-151.76 632.5,-132.76 553.5,-132.76"/>
<text text-anchor="middle" x="593" y="-139.76" font-family="Helvetica,sans-Serif" font-size="10.00">read_grammar</text>
</a>
</g>
</g>
<!-- Node2&#45;&gt;Node3 -->
<g id="edge2" class="edge"><title>Node2&#45;&gt;Node3</title>
<path fill="none" stroke="midnightblue" d="M500.601,-66.0379C503.848,-67.6664 507.03,-69.4122 510,-71.2602 539.1,-89.3655 568.269,-117.613 582.701,-132.431"/>
<polygon fill="midnightblue" stroke="midnightblue" points="501.94,-62.8008 491.395,-61.7715 498.996,-69.1519 501.94,-62.8008"/>
</g>
<!-- Node4 -->
<g id="node4" class="node"><title>Node4</title>
<g id="a_node4"><a xlink:href="reader_8c.html#a3351a985e2d992eea6ed332cc837ad5b" target="_top" xlink:title="reader">
<polygon fill="white" stroke="red" points="676,-236.76 676,-255.76 720,-255.76 720,-236.76 676,-236.76"/>
<text text-anchor="middle" x="698" y="-243.76" font-family="Helvetica,sans-Serif" font-size="10.00">reader</text>
</a>
</g>
</g>
<!-- Node3&#45;&gt;Node4 -->
<g id="edge3" class="edge"><title>Node3&#45;&gt;Node4</title>
<path fill="none" stroke="midnightblue" d="M610.781,-159.204C632.623,-181.259 670.059,-219.058 687.518,-236.686"/>
<polygon fill="midnightblue" stroke="midnightblue" points="613.029,-156.5 603.505,-151.858 608.055,-161.426 613.029,-156.5"/>
</g>
<!-- Node6 -->
<g id="node6" class="node"><title>Node6</title>
<g id="a_node6"><a xlink:href="reader_8c.html#ac910677446efcb4dbebc9a6d3d90a9ff" target="_top" xlink:title="advance_to_start">
<polygon fill="white" stroke="black" points="418,-232.76 418,-251.76 510,-251.76 510,-232.76 418,-232.76"/>
<text text-anchor="middle" x="464" y="-239.76" font-family="Helvetica,sans-Serif" font-size="10.00">advance_to_start</text>
</a>
</g>
</g>
<!-- Node5&#45;&gt;Node6 -->
<g id="edge5" class="edge"><title>Node5&#45;&gt;Node6</title>
<path fill="none" stroke="midnightblue" d="M359.557,-376.647C384.412,-344.358 436.481,-276.712 455.684,-251.765"/>
<polygon fill="midnightblue" stroke="midnightblue" points="356.645,-374.693 353.319,-384.752 362.192,-378.962 356.645,-374.693"/>
</g>
<!-- Node7 -->
<g id="node7" class="node"><title>Node7</title>
<g id="a_node7"><a xlink:href="reader_8c.html#a07addfee5457e48ddb310769dd0e39af" target="_top" xlink:title="read_declarations">
<polygon fill="white" stroke="black" points="546.5,-289.76 546.5,-308.76 639.5,-308.76 639.5,-289.76 546.5,-289.76"/>
<text text-anchor="middle" x="593" y="-296.76" font-family="Helvetica,sans-Serif" font-size="10.00">read_declarations</text>
</a>
</g>
</g>
<!-- Node5&#45;&gt;Node7 -->
<g id="edge7" class="edge"><title>Node5&#45;&gt;Node7</title>
<path fill="none" stroke="midnightblue" d="M384.737,-394.637C419.106,-393.595 469.931,-388.611 510,-370.26 541.845,-355.676 570.702,-324.804 584.103,-309.011"/>
<polygon fill="midnightblue" stroke="midnightblue" points="384.556,-391.14 374.63,-394.845 384.699,-398.139 384.556,-391.14"/>
</g>
<!-- Node6&#45;&gt;Node3 -->
<g id="edge6" class="edge"><title>Node6&#45;&gt;Node3</title>
<path fill="none" stroke="midnightblue" d="M494.941,-227.69C500.103,-224.788 505.312,-221.598 510,-218.26 539.095,-197.546 568.727,-167.347 583.094,-151.998"/>
<polygon fill="midnightblue" stroke="midnightblue" points="492.984,-224.768 485.82,-232.573 496.288,-230.939 492.984,-224.768"/>
</g>
<!-- Node7&#45;&gt;Node4 -->
<g id="edge8" class="edge"><title>Node7&#45;&gt;Node4</title>
<path fill="none" stroke="midnightblue" d="M622.235,-284.732C640.056,-275.562 662.582,-263.97 678.228,-255.92"/>
<polygon fill="midnightblue" stroke="midnightblue" points="620.182,-281.852 612.892,-289.539 623.385,-288.076 620.182,-281.852"/>
</g>
<!-- Node8&#45;&gt;Node7 -->
<g id="edge10" class="edge"><title>Node8&#45;&gt;Node7</title>
<path fill="none" stroke="midnightblue" d="M266.19,-398.362C278.503,-404.216 293.613,-410.32 308,-413.26 396.309,-431.305 430.978,-438.615 510,-395.26 547.857,-374.49 576.008,-328.837 586.974,-308.898"/>
<polygon fill="midnightblue" stroke="midnightblue" points="267.496,-395.103 256.983,-393.787 264.381,-401.371 267.496,-395.103"/>
</g>
<!-- Node10 -->
<g id="node10" class="node"><title>Node10</title>
<g id="a_node10"><a xlink:href="reader_8c.html#a0b749a023a959fabb8ed2778b46ec217" target="_top" xlink:title="declare_tokens">
<polygon fill="white" stroke="black" points="422.5,-156.76 422.5,-175.76 505.5,-175.76 505.5,-156.76 422.5,-156.76"/>
<text text-anchor="middle" x="464" y="-163.76" font-family="Helvetica,sans-Serif" font-size="10.00">declare_tokens</text>
</a>
</g>
</g>
<!-- Node9&#45;&gt;Node10 -->
<g id="edge12" class="edge"><title>Node9&#45;&gt;Node10</title>
<path fill="none" stroke="midnightblue" d="M378.094,-67.6693C379.478,-68.8003 380.79,-69.9969 382,-71.2602 407.851,-98.254 391.011,-121.404 418,-147.26 421.919,-151.015 426.691,-154.08 431.645,-156.565"/>
<polygon fill="midnightblue" stroke="midnightblue" points="379.843,-64.6262 369.605,-61.9014 375.909,-70.4163 379.843,-64.6262"/>
</g>
<!-- Node11 -->
<g id="node11" class="node"><title>Node11</title>
<g id="a_node11"><a xlink:href="reader_8c.html#a860dbc8da656fd831b19668da20207c7" target="_top" xlink:title="declare_types">
<polygon fill="white" stroke="black" points="425.5,-118.76 425.5,-137.76 502.5,-137.76 502.5,-118.76 425.5,-118.76"/>
<text text-anchor="middle" x="464" y="-125.76" font-family="Helvetica,sans-Serif" font-size="10.00">declare_types</text>
</a>
</g>
</g>
<!-- Node9&#45;&gt;Node11 -->
<g id="edge14" class="edge"><title>Node9&#45;&gt;Node11</title>
<path fill="none" stroke="midnightblue" d="M375.597,-66.8465C377.819,-68.2518 379.98,-69.7278 382,-71.2602 400.534,-85.3214 398.878,-96.0097 418,-109.26 423.298,-112.931 429.416,-116.097 435.4,-118.734"/>
<polygon fill="midnightblue" stroke="midnightblue" points="377.295,-63.7855 366.887,-61.8066 373.79,-69.8443 377.295,-63.7855"/>
</g>
<!-- Node12 -->
<g id="node12" class="node"><title>Node12</title>
<g id="a_node12"><a xlink:href="reader_8c.html#a34bf32e056d8bc6f1fb490f4efc7ce90" target="_top" xlink:title="add_symbol">
<polygon fill="white" stroke="black" points="429.5,-4.76018 429.5,-23.7602 498.5,-23.7602 498.5,-4.76018 429.5,-4.76018"/>
<text text-anchor="middle" x="464" y="-11.7602" font-family="Helvetica,sans-Serif" font-size="10.00">add_symbol</text>
</a>
</g>
</g>
<!-- Node9&#45;&gt;Node12 -->
<g id="edge16" class="edge"><title>Node9&#45;&gt;Node12</title>
<path fill="none" stroke="midnightblue" d="M384.23,-39.8436C400.222,-34.6497 418.52,-28.7068 433.452,-23.8569"/>
<polygon fill="midnightblue" stroke="midnightblue" points="383.051,-36.5464 374.621,-42.9643 385.214,-43.2041 383.051,-36.5464"/>
</g>
<!-- Node13 -->
<g id="node13" class="node"><title>Node13</title>
<g id="a_node13"><a xlink:href="reader_8c.html#aae3985d515e47c03afc20f92c0292531" target="_top" xlink:title="mark_symbol">
<polygon fill="white" stroke="black" points="426.5,-80.7602 426.5,-99.7602 501.5,-99.7602 501.5,-80.7602 426.5,-80.7602"/>
<text text-anchor="middle" x="464" y="-87.7602" font-family="Helvetica,sans-Serif" font-size="10.00">mark_symbol</text>
</a>
</g>
</g>
<!-- Node9&#45;&gt;Node13 -->
<g id="edge18" class="edge"><title>Node9&#45;&gt;Node13</title>
<path fill="none" stroke="midnightblue" d="M384.23,-64.6767C400.222,-69.8707 418.52,-75.8136 433.452,-80.6635"/>
<polygon fill="midnightblue" stroke="midnightblue" points="385.214,-61.3163 374.621,-61.556 383.051,-67.9739 385.214,-61.3163"/>
</g>
<!-- Node10&#45;&gt;Node7 -->
<g id="edge13" class="edge"><title>Node10&#45;&gt;Node7</title>
<path fill="none" stroke="midnightblue" d="M481.289,-183.319C508.206,-211.508 561.127,-266.928 582.607,-289.423"/>
<polygon fill="midnightblue" stroke="midnightblue" points="483.571,-180.64 474.134,-175.825 478.508,-185.475 483.571,-180.64"/>
</g>
<!-- Node11&#45;&gt;Node7 -->
<g id="edge15" class="edge"><title>Node11&#45;&gt;Node7</title>
<path fill="none" stroke="midnightblue" d="M504.577,-143.001C506.494,-144.313 508.317,-145.731 510,-147.26 556.149,-189.212 581.439,-263.336 589.3,-289.657"/>
<polygon fill="midnightblue" stroke="midnightblue" points="506.137,-139.861 495.725,-137.901 502.643,-145.926 506.137,-139.861"/>
</g>
<!-- Node12&#45;&gt;Node3 -->
<g id="edge17" class="edge"><title>Node12&#45;&gt;Node3</title>
<path fill="none" stroke="midnightblue" d="M502.758,-28.3751C505.3,-29.8725 507.744,-31.4993 510,-33.2602 546.964,-62.1066 575.802,-111.536 586.972,-132.452"/>
<polygon fill="midnightblue" stroke="midnightblue" points="504.354,-25.26 493.863,-23.775 501.138,-31.4777 504.354,-25.26"/>
</g>
<!-- Node13&#45;&gt;Node3 -->
<g id="edge19" class="edge"><title>Node13&#45;&gt;Node3</title>
<path fill="none" stroke="midnightblue" d="M497.634,-103.622C519.764,-112.683 548.504,-124.451 568.424,-132.607"/>
<polygon fill="midnightblue" stroke="midnightblue" points="498.874,-100.348 488.294,-99.7978 496.222,-106.826 498.874,-100.348"/>
</g>
<!-- Node14&#45;&gt;Node2 -->
<g id="edge23" class="edge"><title>Node14&#45;&gt;Node2</title>
<path fill="none" stroke="midnightblue" d="M379.275,-79.453C396.373,-73.8999 417.026,-67.1918 433.542,-61.8277"/>
<polygon fill="midnightblue" stroke="midnightblue" points="378.106,-76.1524 369.677,-82.5703 380.269,-82.8101 378.106,-76.1524"/>
</g>
<!-- Node14&#45;&gt;Node10 -->
<g id="edge21" class="edge"><title>Node14&#45;&gt;Node10</title>
<path fill="none" stroke="midnightblue" d="M364.399,-107.129C378.374,-119.35 398.459,-135.691 418,-147.26 423.838,-150.717 430.421,-153.868 436.715,-156.568"/>
<polygon fill="midnightblue" stroke="midnightblue" points="366.341,-104.171 356.547,-100.131 361.684,-109.397 366.341,-104.171"/>
</g>
<!-- Node14&#45;&gt;Node11 -->
<g id="edge22" class="edge"><title>Node14&#45;&gt;Node11</title>
<path fill="none" stroke="midnightblue" d="M379.275,-101.067C396.373,-106.62 417.026,-113.329 433.542,-118.693"/>
<polygon fill="midnightblue" stroke="midnightblue" points="380.269,-97.7103 369.677,-97.95 378.106,-104.368 380.269,-97.7103"/>
</g>
<!-- Node16 -->
<g id="node16" class="node"><title>Node16</title>
<g id="a_node16"><a xlink:href="reader_8c.html#a11446424d65669df0f3a9e3b1cca57fa" target="_top" xlink:title="nextc">
<polygon fill="white" stroke="black" points="218.5,-156.76 218.5,-175.76 259.5,-175.76 259.5,-156.76 218.5,-156.76"/>
<text text-anchor="middle" x="239" y="-163.76" font-family="Helvetica,sans-Serif" font-size="10.00">nextc</text>
</a>
</g>
</g>
<!-- Node15&#45;&gt;Node16 -->
<g id="edge25" class="edge"><title>Node15&#45;&gt;Node16</title>
<path fill="none" stroke="midnightblue" d="M180.375,-156.028C193.796,-158.411 207.567,-160.856 218.279,-162.758"/>
<polygon fill="midnightblue" stroke="midnightblue" points="180.693,-152.53 170.235,-154.227 179.469,-159.422 180.693,-152.53"/>
</g>
<!-- Node16&#45;&gt;Node3 -->
<g id="edge38" class="edge"><title>Node16&#45;&gt;Node3</title>
<path fill="none" stroke="midnightblue" d="M269.526,-174.201C319.73,-186.411 424.592,-206.295 510,-185.26 536.066,-178.84 563.019,-162.498 578.61,-151.91"/>
<polygon fill="midnightblue" stroke="midnightblue" points="270.22,-170.766 259.669,-171.729 268.517,-177.556 270.22,-170.766"/>
</g>
<!-- Node16&#45;&gt;Node6 -->
<g id="edge35" class="edge"><title>Node16&#45;&gt;Node6</title>
<path fill="none" stroke="midnightblue" d="M257.144,-183.311C270.03,-195.078 288.713,-210.032 308,-218.26 343.065,-233.219 386.134,-238.995 417.965,-241.157"/>
<polygon fill="midnightblue" stroke="midnightblue" points="259.235,-180.472 249.565,-176.142 254.424,-185.557 259.235,-180.472"/>
</g>
<!-- Node16&#45;&gt;Node7 -->
<g id="edge34" class="edge"><title>Node16&#45;&gt;Node7</title>
<path fill="none" stroke="midnightblue" d="M244.882,-185.968C255.5,-227.052 281.845,-319.514 308,-337.26 393.621,-395.355 527.592,-333.96 574.821,-308.894"/>
<polygon fill="midnightblue" stroke="midnightblue" points="248.221,-184.894 242.37,-176.061 241.435,-186.615 248.221,-184.894"/>
</g>
<!-- Node16&#45;&gt;Node10 -->
<g id="edge29" class="edge"><title>Node16&#45;&gt;Node10</title>
<path fill="none" stroke="midnightblue" d="M270.04,-166.26C309.336,-166.26 378.342,-166.26 422.303,-166.26"/>
<polygon fill="midnightblue" stroke="midnightblue" points="269.79,-162.76 259.79,-166.26 269.79,-169.76 269.79,-162.76"/>
</g>
<!-- Node16&#45;&gt;Node11 -->
<g id="edge30" class="edge"><title>Node16&#45;&gt;Node11</title>
<path fill="none" stroke="midnightblue" d="M269.754,-161.19C309.879,-154.353 381.352,-142.173 425.226,-134.697"/>
<polygon fill="midnightblue" stroke="midnightblue" points="269.06,-157.758 259.79,-162.888 270.236,-164.658 269.06,-157.758"/>
</g>
<!-- Node16&#45;&gt;Node12 -->
<g id="edge36" class="edge"><title>Node16&#45;&gt;Node12</title>
<path fill="none" stroke="midnightblue" d="M242.54,-146.122C247.927,-112.892 263.866,-47.3621 308,-18.2602 344.069,5.5235 395.837,1.05696 429.441,-5.58534"/>
<polygon fill="midnightblue" stroke="midnightblue" points="239.019,-146.017 241.046,-156.416 245.946,-147.022 239.019,-146.017"/>
</g>
<!-- Node16&#45;&gt;Node13 -->
<g id="edge37" class="edge"><title>Node16&#45;&gt;Node13</title>
<path fill="none" stroke="midnightblue" d="M243.414,-146.705C249.908,-116.203 267.218,-58.2127 308,-33.2602 336.054,-16.0953 351.787,-20.2648 382,-33.2602 403.371,-42.4527 398.878,-58.0097 418,-71.2602 423.298,-74.931 429.416,-78.0968 435.4,-80.734"/>
<polygon fill="midnightblue" stroke="midnightblue" points="239.966,-146.102 241.487,-156.587 246.836,-147.442 239.966,-146.102"/>
</g>
<!-- Node16&#45;&gt;Node14 -->
<g id="edge28" class="edge"><title>Node16&#45;&gt;Node14</title>
<path fill="none" stroke="midnightblue" d="M260.413,-150.099C273.783,-139.652 291.732,-125.884 308,-114.26 314.845,-109.369 322.591,-104.164 329.14,-99.8557"/>
<polygon fill="midnightblue" stroke="midnightblue" points="258.054,-147.501 252.351,-156.43 262.378,-153.007 258.054,-147.501"/>
</g>
<!-- Node17 -->
<g id="node17" class="node"><title>Node17</title>
<g id="a_node17"><a xlink:href="reader_8c.html#a475e9b3fc05ea753aeeb760cea34a511" target="_top" xlink:title="copy_ident">
<polygon fill="white" stroke="black" points="313,-308.76 313,-327.76 377,-327.76 377,-308.76 313,-308.76"/>
<text text-anchor="middle" x="345" y="-315.76" font-family="Helvetica,sans-Serif" font-size="10.00">copy_ident</text>
</a>
</g>
</g>
<!-- Node16&#45;&gt;Node17 -->
<g id="edge26" class="edge"><title>Node16&#45;&gt;Node17</title>
<path fill="none" stroke="midnightblue" d="M245.736,-185.638C254.89,-213.727 275.19,-266.022 308,-299.26 311.674,-302.982 316.232,-306.14 320.856,-308.749"/>
<polygon fill="midnightblue" stroke="midnightblue" points="248.997,-184.337 242.677,-175.833 242.314,-186.422 248.997,-184.337"/>
</g>
<!-- Node18 -->
<g id="node18" class="node"><title>Node18</title>
<g id="a_node18"><a xlink:href="reader_8c.html#a279a8d9eb5a5ad8dce6c95b2647b9c98" target="_top" xlink:title="declare_start">
<polygon fill="white" stroke="black" points="308.5,-270.76 308.5,-289.76 381.5,-289.76 381.5,-270.76 308.5,-270.76"/>
<text text-anchor="middle" x="345" y="-277.76" font-family="Helvetica,sans-Serif" font-size="10.00">declare_start</text>
</a>
</g>
</g>
<!-- Node16&#45;&gt;Node18 -->
<g id="edge31" class="edge"><title>Node16&#45;&gt;Node18</title>
<path fill="none" stroke="midnightblue" d="M251.311,-184.758C263.675,-204.037 284.838,-234.427 308,-256.26 313.685,-261.619 320.692,-266.584 327.009,-270.592"/>
<polygon fill="midnightblue" stroke="midnightblue" points="254.113,-182.639 245.83,-176.033 248.185,-186.362 254.113,-182.639"/>
</g>
<!-- Node17&#45;&gt;Node7 -->
<g id="edge27" class="edge"><title>Node17&#45;&gt;Node7</title>
<path fill="none" stroke="midnightblue" d="M387.228,-315.076C431.264,-311.675 500.862,-306.299 546.479,-302.776"/>
<polygon fill="midnightblue" stroke="midnightblue" points="386.857,-311.594 377.156,-315.854 387.396,-318.573 386.857,-311.594"/>
</g>
<!-- Node18&#45;&gt;Node6 -->
<g id="edge32" class="edge"><title>Node18&#45;&gt;Node6</title>
<path fill="none" stroke="midnightblue" d="M385.042,-267.58C400.851,-262.445 418.799,-256.616 433.485,-251.846"/>
<polygon fill="midnightblue" stroke="midnightblue" points="383.954,-264.253 375.524,-270.671 386.116,-270.911 383.954,-264.253"/>
</g>
<!-- Node18&#45;&gt;Node7 -->
<g id="edge33" class="edge"><title>Node18&#45;&gt;Node7</title>
<path fill="none" stroke="midnightblue" d="M391.673,-283.788C435.827,-287.198 502.347,-292.336 546.457,-295.743"/>
<polygon fill="midnightblue" stroke="midnightblue" points="391.748,-280.283 381.508,-283.003 391.209,-287.262 391.748,-280.283"/>
</g>
</g>
</svg>
