<?xml version="1.0" encoding="UTF-8" standalone="no"?>
<!DOCTYPE svg PUBLIC "-//W3C//DTD SVG 1.1//EN"
 "http://www.w3.org/Graphics/SVG/1.1/DTD/svg11.dtd">
<!-- Generated by graphviz version 2.36.0 (20140111.2315)
 -->
<!-- Title: advance_to_start Pages: 1 -->
<svg width="686pt" height="501pt"
 viewBox="0.00 0.00 686.00 500.62" xmlns="http://www.w3.org/2000/svg" xmlns:xlink="http://www.w3.org/1999/xlink">
<g id="graph0" class="graph" transform="scale(1 1) rotate(0) translate(4 496.622)">
<title>advance_to_start</title>
<polygon fill="white" stroke="none" points="-4,4 -4,-496.622 682,-496.622 682,4 -4,4"/>
<!-- Node1 -->
<g id="node1" class="node"><title>Node1</title>
<polygon fill="#bfbfbf" stroke="black" points="0,-187.763 0,-206.763 92,-206.763 92,-187.763 0,-187.763"/>
<text text-anchor="middle" x="46" y="-194.763" font-family="Helvetica,sans-Serif" font-size="10.00">advance_to_start</text>
</g>
<!-- Node2 -->
<g id="node2" class="node"><title>Node2</title>
<g id="a_node2"><a xlink:href="reader_8c.html#a5719a5118a10bc1e96786f599eeb516f" target="_top" xlink:title="copy_text">
<polygon fill="white" stroke="black" points="378.5,-320.763 378.5,-339.763 437.5,-339.763 437.5,-320.763 378.5,-320.763"/>
<text text-anchor="middle" x="408" y="-327.763" font-family="Helvetica,sans-Serif" font-size="10.00">copy_text</text>
</a>
</g>
</g>
<!-- Node1&#45;&gt;Node2 -->
<g id="edge1" class="edge"><title>Node1&#45;&gt;Node2</title>
<path fill="none" stroke="midnightblue" d="M62.0599,-206.843C77.9832,-216.679 104.061,-231.963 128,-242.263 211.058,-278 313.521,-306.59 368.234,-320.691"/>
<polygon fill="midnightblue" stroke="midnightblue" points="367.644,-324.152 378.199,-323.235 369.375,-317.37 367.644,-324.152"/>
</g>
<!-- Node9 -->
<g id="node9" class="node"><title>Node9</title>
<g id="a_node9"><a xlink:href="reader_8c.html#a279a8d9eb5a5ad8dce6c95b2647b9c98" target="_top" xlink:title="declare_start">
<polygon fill="white" stroke="black" points="128.5,-168.763 128.5,-187.763 201.5,-187.763 201.5,-168.763 128.5,-168.763"/>
<text text-anchor="middle" x="165" y="-175.763" font-family="Helvetica,sans-Serif" font-size="10.00">declare_start</text>
</a>
</g>
</g>
<!-- Node1&#45;&gt;Node9 -->
<g id="edge10" class="edge"><title>Node1&#45;&gt;Node9</title>
<path fill="none" stroke="midnightblue" d="M92.2353,-189.917C100.832,-188.521 109.832,-187.06 118.439,-185.662"/>
<polygon fill="midnightblue" stroke="midnightblue" points="119.004,-189.116 128.314,-184.058 117.882,-182.207 119.004,-189.116"/>
</g>
<!-- Node10 -->
<g id="node10" class="node"><title>Node10</title>
<g id="a_node10"><a xlink:href="reader_8c.html#a11446424d65669df0f3a9e3b1cca57fa" target="_top" xlink:title="nextc">
<polygon fill="white" stroke="black" points="264.5,-244.763 264.5,-263.763 305.5,-263.763 305.5,-244.763 264.5,-244.763"/>
<text text-anchor="middle" x="285" y="-251.763" font-family="Helvetica,sans-Serif" font-size="10.00">nextc</text>
</a>
</g>
</g>
<!-- Node1&#45;&gt;Node10 -->
<g id="edge34" class="edge"><title>Node1&#45;&gt;Node10</title>
<path fill="none" stroke="midnightblue" d="M78.8084,-206.789C93.6917,-211.119 111.693,-216.175 128,-220.263 171.723,-231.224 222.846,-241.979 254.324,-248.367"/>
<polygon fill="midnightblue" stroke="midnightblue" points="253.713,-251.814 264.208,-250.36 255.097,-244.952 253.713,-251.814"/>
</g>
<!-- Node12 -->
<g id="node12" class="node"><title>Node12</title>
<g id="a_node12"><a xlink:href="error_8c.html#a65962bc9ddf21cd2dc0b5f6b7dcb35fc" target="_top" xlink:title="unexpected_EOF">
<polygon fill="white" stroke="black" points="239,-206.763 239,-225.763 331,-225.763 331,-206.763 239,-206.763"/>
<text text-anchor="middle" x="285" y="-213.763" font-family="Helvetica,sans-Serif" font-size="10.00">unexpected_EOF</text>
</a>
</g>
</g>
<!-- Node1&#45;&gt;Node12 -->
<g id="edge43" class="edge"><title>Node1&#45;&gt;Node12</title>
<path fill="none" stroke="midnightblue" d="M92.1357,-200.882C130.889,-203.989 186.9,-208.479 228.408,-211.807"/>
<polygon fill="midnightblue" stroke="midnightblue" points="228.382,-215.316 238.629,-212.626 228.941,-208.338 228.382,-215.316"/>
</g>
<!-- Node13 -->
<g id="node13" class="node"><title>Node13</title>
<g id="a_node13"><a xlink:href="error_8c.html#ae2027917ace8b6f808a14b5cd4085eaf" target="_top" xlink:title="syntax_error">
<polygon fill="white" stroke="red" points="249.5,-92.7633 249.5,-111.763 320.5,-111.763 320.5,-92.7633 249.5,-92.7633"/>
<text text-anchor="middle" x="285" y="-99.7633" font-family="Helvetica,sans-Serif" font-size="10.00">syntax_error</text>
</a>
</g>
</g>
<!-- Node1&#45;&gt;Node13 -->
<g id="edge41" class="edge"><title>Node1&#45;&gt;Node13</title>
<path fill="none" stroke="midnightblue" d="M58.0094,-187.696C72.8999,-175.237 100.743,-153.598 128,-141.263 163.802,-125.062 207.399,-114.886 239.393,-109.008"/>
<polygon fill="midnightblue" stroke="midnightblue" points="240.11,-112.435 249.348,-107.248 238.892,-105.542 240.11,-112.435"/>
</g>
<!-- Node14 -->
<g id="node14" class="node"><title>Node14</title>
<g id="a_node14"><a xlink:href="reader_8c.html#a47f6ab5db224a190b33568ed55a03eaf" target="_top" xlink:title="get_name">
<polygon fill="white" stroke="black" points="255.5,-130.763 255.5,-149.763 314.5,-149.763 314.5,-130.763 255.5,-130.763"/>
<text text-anchor="middle" x="285" y="-137.763" font-family="Helvetica,sans-Serif" font-size="10.00">get_name</text>
</a>
</g>
</g>
<!-- Node1&#45;&gt;Node14 -->
<g id="edge30" class="edge"><title>Node1&#45;&gt;Node14</title>
<path fill="none" stroke="midnightblue" d="M63.4564,-187.633C79.4072,-178.767 104.562,-166.001 128,-159.263 166.871,-148.089 213.035,-143.485 245.01,-141.589"/>
<polygon fill="midnightblue" stroke="midnightblue" points="245.479,-145.069 255.279,-141.044 245.108,-138.079 245.479,-145.069"/>
</g>
<!-- Node19 -->
<g id="node19" class="node"><title>Node19</title>
<g id="a_node19"><a xlink:href="error_8c.html#a6859daa9b91716c6fbe56b822641877c" target="_top" xlink:title="terminal_start">
<polygon fill="white" stroke="black" points="247,-16.7633 247,-35.7633 323,-35.7633 323,-16.7633 247,-16.7633"/>
<text text-anchor="middle" x="285" y="-23.7633" font-family="Helvetica,sans-Serif" font-size="10.00">terminal_start</text>
</a>
</g>
</g>
<!-- Node1&#45;&gt;Node19 -->
<g id="edge42" class="edge"><title>Node1&#45;&gt;Node19</title>
<path fill="none" stroke="midnightblue" d="M48.8901,-187.744C54.8842,-160.31 76.216,-80.7811 128,-45.2633 159.57,-23.6097 203.398,-19.985 236.562,-21.1309"/>
<polygon fill="midnightblue" stroke="midnightblue" points="236.763,-24.6453 246.926,-21.6537 237.115,-17.6542 236.763,-24.6453"/>
</g>
<!-- Node21 -->
<g id="node21" class="node"><title>Node21</title>
<g id="a_node21"><a xlink:href="reader_8c.html#a7b9f905e2f933d429fa1b479fd058f03" target="_top" xlink:title="keyword">
<polygon fill="white" stroke="black" points="138.5,-54.7633 138.5,-73.7633 191.5,-73.7633 191.5,-54.7633 138.5,-54.7633"/>
<text text-anchor="middle" x="165" y="-61.7633" font-family="Helvetica,sans-Serif" font-size="10.00">keyword</text>
</a>
</g>
</g>
<!-- Node1&#45;&gt;Node21 -->
<g id="edge31" class="edge"><title>Node1&#45;&gt;Node21</title>
<path fill="none" stroke="midnightblue" d="M52.5588,-187.661C64.5137,-167.557 94.3298,-120.256 128,-88.2633 131.186,-85.2364 134.795,-82.3397 138.469,-79.6716"/>
<polygon fill="midnightblue" stroke="midnightblue" points="140.666,-82.4107 146.986,-73.9076 136.743,-76.6134 140.666,-82.4107"/>
</g>
<!-- Node22 -->
<g id="node22" class="node"><title>Node22</title>
<g id="a_node22"><a xlink:href="error_8c.html#aa247f6f1a935ef2a5bffb181f2a9f48d" target="_top" xlink:title="no_grammar">
<polygon fill="white" stroke="black" points="129.5,-434.763 129.5,-453.763 200.5,-453.763 200.5,-434.763 129.5,-434.763"/>
<text text-anchor="middle" x="165" y="-441.763" font-family="Helvetica,sans-Serif" font-size="10.00">no_grammar</text>
</a>
</g>
</g>
<!-- Node1&#45;&gt;Node22 -->
<g id="edge35" class="edge"><title>Node1&#45;&gt;Node22</title>
<path fill="none" stroke="midnightblue" d="M50.5174,-207.003C60.9218,-235.445 93.0164,-320.58 128,-387.263 135.052,-400.705 144.198,-415.156 151.506,-426.144"/>
<polygon fill="midnightblue" stroke="midnightblue" points="148.628,-428.136 157.127,-434.461 154.428,-424.216 148.628,-428.136"/>
</g>
<!-- Node23 -->
<g id="node23" class="node"><title>Node23</title>
<g id="a_node23"><a xlink:href="reader_8c.html#a7691871ff8cdc7f1f7bdaf2443070ff1" target="_top" xlink:title="start_rule">
<polygon fill="white" stroke="black" points="136.5,-358.763 136.5,-377.763 193.5,-377.763 193.5,-358.763 136.5,-358.763"/>
<text text-anchor="middle" x="165" y="-365.763" font-family="Helvetica,sans-Serif" font-size="10.00">start_rule</text>
</a>
</g>
</g>
<!-- Node1&#45;&gt;Node23 -->
<g id="edge37" class="edge"><title>Node1&#45;&gt;Node23</title>
<path fill="none" stroke="midnightblue" d="M52.4802,-206.86C64.9936,-228.553 96.9875,-282.783 128,-325.263 134.408,-334.041 142.073,-343.339 148.679,-351.035"/>
<polygon fill="midnightblue" stroke="midnightblue" points="146.114,-353.419 155.324,-358.657 151.391,-348.819 146.114,-353.419"/>
</g>
<!-- Node3 -->
<g id="node3" class="node"><title>Node3</title>
<g id="a_node3"><a xlink:href="reader_8c.html#a416a4e795e86e5666f1a734793f9636e" target="_top" xlink:title="dup_line">
<polygon fill="white" stroke="red" points="517.5,-282.763 517.5,-301.763 570.5,-301.763 570.5,-282.763 517.5,-282.763"/>
<text text-anchor="middle" x="544" y="-289.763" font-family="Helvetica,sans-Serif" font-size="10.00">dup_line</text>
</a>
</g>
</g>
<!-- Node2&#45;&gt;Node3 -->
<g id="edge2" class="edge"><title>Node2&#45;&gt;Node3</title>
<path fill="none" stroke="midnightblue" d="M437.746,-322.111C458.194,-316.313 485.79,-308.487 507.595,-302.303"/>
<polygon fill="midnightblue" stroke="midnightblue" points="508.802,-305.599 517.468,-299.504 506.892,-298.865 508.802,-305.599"/>
</g>
<!-- Node4 -->
<g id="node4" class="node"><title>Node4</title>
<g id="a_node4"><a xlink:href="reader_8c.html#a204317aa3b6d154f1abff12df35953df" target="_top" xlink:title="get_line">
<polygon fill="white" stroke="red" points="519,-244.763 519,-263.763 569,-263.763 569,-244.763 519,-244.763"/>
<text text-anchor="middle" x="544" y="-251.763" font-family="Helvetica,sans-Serif" font-size="10.00">get_line</text>
</a>
</g>
</g>
<!-- Node2&#45;&gt;Node4 -->
<g id="edge3" class="edge"><title>Node2&#45;&gt;Node4</title>
<path fill="none" stroke="midnightblue" d="M432.066,-320.723C437.511,-318.019 443.142,-314.827 448,-311.263 466.759,-297.503 464.314,-285.66 484,-273.263 491.592,-268.482 500.497,-264.8 509.055,-262.008"/>
<polygon fill="midnightblue" stroke="midnightblue" points="510.237,-265.309 518.841,-259.127 508.26,-258.594 510.237,-265.309"/>
</g>
<!-- Node5 -->
<g id="node5" class="node"><title>Node5</title>
<g id="a_node5"><a xlink:href="error_8c.html#a60e968f02480372518e9cce97e70ef5b" target="_top" xlink:title="unterminated_text">
<polygon fill="white" stroke="red" points="496.5,-396.763 496.5,-415.763 591.5,-415.763 591.5,-396.763 496.5,-396.763"/>
<text text-anchor="middle" x="544" y="-403.763" font-family="Helvetica,sans-Serif" font-size="10.00">unterminated_text</text>
</a>
</g>
</g>
<!-- Node2&#45;&gt;Node5 -->
<g id="edge4" class="edge"><title>Node2&#45;&gt;Node5</title>
<path fill="none" stroke="midnightblue" d="M419.389,-340.011C433.188,-352.501 458.768,-374.105 484,-387.263 488.192,-389.45 492.684,-391.445 497.248,-393.251"/>
<polygon fill="midnightblue" stroke="midnightblue" points="496.052,-396.54 506.646,-396.692 498.458,-389.967 496.052,-396.54"/>
</g>
<!-- Node7 -->
<g id="node7" class="node"><title>Node7</title>
<g id="a_node7"><a xlink:href="error_8c.html#a1be74faa1a912de2fd380aa9a4de6eb2" target="_top" xlink:title="unterminated_string">
<polygon fill="white" stroke="red" points="493,-358.763 493,-377.763 595,-377.763 595,-358.763 493,-358.763"/>
<text text-anchor="middle" x="544" y="-365.763" font-family="Helvetica,sans-Serif" font-size="10.00">unterminated_string</text>
</a>
</g>
</g>
<!-- Node2&#45;&gt;Node7 -->
<g id="edge6" class="edge"><title>Node2&#45;&gt;Node7</title>
<path fill="none" stroke="midnightblue" d="M437.746,-338.415C455.722,-343.513 479.223,-350.177 499.457,-355.915"/>
<polygon fill="midnightblue" stroke="midnightblue" points="498.513,-359.286 509.089,-358.647 500.423,-352.551 498.513,-359.286"/>
</g>
<!-- Node8 -->
<g id="node8" class="node"><title>Node8</title>
<g id="a_node8"><a xlink:href="error_8c.html#a81c4e76cf37319065a21afcaec1b8ab1" target="_top" xlink:title="unterminated_comment">
<polygon fill="white" stroke="red" points="484.5,-320.763 484.5,-339.763 603.5,-339.763 603.5,-320.763 484.5,-320.763"/>
<text text-anchor="middle" x="544" y="-327.763" font-family="Helvetica,sans-Serif" font-size="10.00">unterminated_comment</text>
</a>
</g>
</g>
<!-- Node2&#45;&gt;Node8 -->
<g id="edge8" class="edge"><title>Node2&#45;&gt;Node8</title>
<path fill="none" stroke="midnightblue" d="M437.746,-330.263C448.487,-330.263 461.199,-330.263 474.009,-330.263"/>
<polygon fill="midnightblue" stroke="midnightblue" points="474.268,-333.763 484.268,-330.263 474.268,-326.763 474.268,-333.763"/>
</g>
<!-- Node6 -->
<g id="node6" class="node"><title>Node6</title>
<g id="a_node6"><a xlink:href="main_8c.html#a67b6b9fd02aac96bef4297b1e6a1789a" target="_top" xlink:title="done">
<polygon fill="white" stroke="black" points="640,-320.763 640,-339.763 678,-339.763 678,-320.763 640,-320.763"/>
<text text-anchor="middle" x="659" y="-327.763" font-family="Helvetica,sans-Serif" font-size="10.00">done</text>
</a>
</g>
</g>
<!-- Node5&#45;&gt;Node6 -->
<g id="edge5" class="edge"><title>Node5&#45;&gt;Node6</title>
<path fill="none" stroke="midnightblue" d="M584.326,-396.655C591.157,-394.144 597.99,-391.048 604,-387.263 620.308,-376.994 635.072,-360.684 645.025,-348.136"/>
<polygon fill="midnightblue" stroke="midnightblue" points="647.819,-350.243 651.106,-340.171 642.256,-345.995 647.819,-350.243"/>
</g>
<!-- Node7&#45;&gt;Node6 -->
<g id="edge7" class="edge"><title>Node7&#45;&gt;Node6</title>
<path fill="none" stroke="midnightblue" d="M575.066,-358.752C584.359,-355.767 594.618,-352.424 604,-349.263 612.437,-346.421 621.581,-343.242 629.905,-340.309"/>
<polygon fill="midnightblue" stroke="midnightblue" points="631.29,-343.531 639.548,-336.893 628.953,-336.933 631.29,-343.531"/>
</g>
<!-- Node8&#45;&gt;Node6 -->
<g id="edge9" class="edge"><title>Node8&#45;&gt;Node6</title>
<path fill="none" stroke="midnightblue" d="M603.817,-330.263C612.813,-330.263 621.73,-330.263 629.655,-330.263"/>
<polygon fill="midnightblue" stroke="midnightblue" points="629.76,-333.763 639.76,-330.263 629.76,-326.763 629.76,-333.763"/>
</g>
<!-- Node9&#45;&gt;Node10 -->
<g id="edge11" class="edge"><title>Node9&#45;&gt;Node10</title>
<path fill="none" stroke="midnightblue" d="M176.53,-188.164C189.977,-200.425 214.35,-221.385 238,-235.263 243.251,-238.345 249.097,-241.17 254.812,-243.645"/>
<polygon fill="midnightblue" stroke="midnightblue" points="253.598,-246.93 264.179,-247.466 256.242,-240.449 253.598,-246.93"/>
</g>
<!-- Node9&#45;&gt;Node12 -->
<g id="edge17" class="edge"><title>Node9&#45;&gt;Node12</title>
<path fill="none" stroke="midnightblue" d="M195.776,-187.852C210.59,-192.623 228.691,-198.452 244.634,-203.586"/>
<polygon fill="midnightblue" stroke="midnightblue" points="243.642,-206.943 254.233,-206.677 245.787,-200.28 243.642,-206.943"/>
</g>
<!-- Node9&#45;&gt;Node13 -->
<g id="edge19" class="edge"><title>Node9&#45;&gt;Node13</title>
<path fill="none" stroke="midnightblue" d="M176.53,-168.362C189.977,-156.102 214.35,-135.142 238,-121.263 241.167,-119.405 244.551,-117.64 247.991,-115.988"/>
<polygon fill="midnightblue" stroke="midnightblue" points="249.428,-119.179 257.123,-111.896 246.566,-112.792 249.428,-119.179"/>
</g>
<!-- Node9&#45;&gt;Node14 -->
<g id="edge21" class="edge"><title>Node9&#45;&gt;Node14</title>
<path fill="none" stroke="midnightblue" d="M195.776,-168.674C210.929,-163.795 229.522,-157.807 245.726,-152.589"/>
<polygon fill="midnightblue" stroke="midnightblue" points="247.009,-155.853 255.454,-149.456 244.863,-149.19 247.009,-155.853"/>
</g>
<!-- Node9&#45;&gt;Node19 -->
<g id="edge27" class="edge"><title>Node9&#45;&gt;Node19</title>
<path fill="none" stroke="midnightblue" d="M173.059,-168.752C185.849,-151.563 213.775,-114.235 238,-83.2633 248.488,-69.8539 260.587,-54.8812 269.743,-43.6475"/>
<polygon fill="midnightblue" stroke="midnightblue" points="272.478,-45.8316 276.096,-35.8736 267.058,-41.402 272.478,-45.8316"/>
</g>
<!-- Node20 -->
<g id="node20" class="node"><title>Node20</title>
<g id="a_node20"><a xlink:href="error_8c.html#a23e15c296f3057431e3c58bb151b44bd" target="_top" xlink:title="restarted_warning">
<polygon fill="white" stroke="black" points="238,-168.763 238,-187.763 332,-187.763 332,-168.763 238,-168.763"/>
<text text-anchor="middle" x="285" y="-175.763" font-family="Helvetica,sans-Serif" font-size="10.00">restarted_warning</text>
</a>
</g>
</g>
<!-- Node9&#45;&gt;Node20 -->
<g id="edge29" class="edge"><title>Node9&#45;&gt;Node20</title>
<path fill="none" stroke="midnightblue" d="M201.724,-178.263C209.915,-178.263 218.819,-178.263 227.643,-178.263"/>
<polygon fill="midnightblue" stroke="midnightblue" points="227.919,-181.763 237.919,-178.263 227.919,-174.763 227.919,-181.763"/>
</g>
<!-- Node10&#45;&gt;Node4 -->
<g id="edge12" class="edge"><title>Node10&#45;&gt;Node4</title>
<path fill="none" stroke="midnightblue" d="M305.74,-254.263C349.266,-254.263 453.944,-254.263 508.547,-254.263"/>
<polygon fill="midnightblue" stroke="midnightblue" points="508.767,-257.763 518.767,-254.263 508.767,-250.763 508.767,-257.763"/>
</g>
<!-- Node11 -->
<g id="node11" class="node"><title>Node11</title>
<g id="a_node11"><a xlink:href="reader_8c.html#ac812a775973bb1eb24e86256b2de6b8b" target="_top" xlink:title="skip_comment">
<polygon fill="white" stroke="black" points="368,-282.763 368,-301.763 448,-301.763 448,-282.763 368,-282.763"/>
<text text-anchor="middle" x="408" y="-289.763" font-family="Helvetica,sans-Serif" font-size="10.00">skip_comment</text>
</a>
</g>
</g>
<!-- Node10&#45;&gt;Node11 -->
<g id="edge13" class="edge"><title>Node10&#45;&gt;Node11</title>
<path fill="none" stroke="midnightblue" d="M305.71,-260.453C322.169,-265.622 346.167,-273.159 366.674,-279.599"/>
<polygon fill="midnightblue" stroke="midnightblue" points="365.822,-283 376.412,-282.657 367.92,-276.322 365.822,-283"/>
</g>
<!-- Node11&#45;&gt;Node3 -->
<g id="edge14" class="edge"><title>Node11&#45;&gt;Node3</title>
<path fill="none" stroke="midnightblue" d="M448.119,-292.263C466.716,-292.263 488.803,-292.263 506.985,-292.263"/>
<polygon fill="midnightblue" stroke="midnightblue" points="507.183,-295.763 517.183,-292.263 507.183,-288.763 507.183,-295.763"/>
</g>
<!-- Node11&#45;&gt;Node4 -->
<g id="edge15" class="edge"><title>Node11&#45;&gt;Node4</title>
<path fill="none" stroke="midnightblue" d="M442.814,-282.674C463.11,-276.919 488.841,-269.622 509.144,-263.864"/>
<polygon fill="midnightblue" stroke="midnightblue" points="510.252,-267.188 518.918,-261.093 508.342,-260.454 510.252,-267.188"/>
</g>
<!-- Node11&#45;&gt;Node8 -->
<g id="edge16" class="edge"><title>Node11&#45;&gt;Node8</title>
<path fill="none" stroke="midnightblue" d="M442.814,-301.852C460.033,-306.735 481.164,-312.728 499.573,-317.948"/>
<polygon fill="midnightblue" stroke="midnightblue" points="498.621,-321.316 509.197,-320.677 500.531,-314.582 498.621,-321.316"/>
</g>
<!-- Node12&#45;&gt;Node6 -->
<g id="edge18" class="edge"><title>Node12&#45;&gt;Node6</title>
<path fill="none" stroke="midnightblue" d="M331.131,-213.797C407.848,-210.442 559.688,-207.679 604,-235.263 631.267,-252.237 646.086,-288.308 652.996,-310.794"/>
<polygon fill="midnightblue" stroke="midnightblue" points="649.68,-311.931 655.773,-320.598 656.415,-310.023 649.68,-311.931"/>
</g>
<!-- Node13&#45;&gt;Node6 -->
<g id="edge20" class="edge"><title>Node13&#45;&gt;Node6</title>
<path fill="none" stroke="midnightblue" d="M319.82,-92.6994C383.418,-76.9484 521.809,-53.5913 604,-121.263 633.401,-145.47 650.154,-262.973 655.811,-310.377"/>
<polygon fill="midnightblue" stroke="midnightblue" points="652.365,-311.047 656.985,-320.581 659.319,-310.247 652.365,-311.047"/>
</g>
<!-- Node15 -->
<g id="node15" class="node"><title>Node15</title>
<g id="a_node15"><a xlink:href="reader_8c.html#a04707e6fc9527eaf37d68dafdc9483a9" target="_top" xlink:title="cachec">
<polygon fill="white" stroke="red" points="384,-16.7633 384,-35.7633 432,-35.7633 432,-16.7633 384,-16.7633"/>
<text text-anchor="middle" x="408" y="-23.7633" font-family="Helvetica,sans-Serif" font-size="10.00">cachec</text>
</a>
</g>
</g>
<!-- Node14&#45;&gt;Node15 -->
<g id="edge22" class="edge"><title>Node14&#45;&gt;Node15</title>
<path fill="none" stroke="midnightblue" d="M314.956,-130.953C320.903,-128.332 326.899,-125.118 332,-121.263 360.205,-99.9505 383.729,-65.6224 396.544,-44.5898"/>
<polygon fill="midnightblue" stroke="midnightblue" points="399.573,-46.3441 401.657,-35.9562 393.55,-42.7772 399.573,-46.3441"/>
</g>
<!-- Node16 -->
<g id="node16" class="node"><title>Node16</title>
<g id="a_node16"><a xlink:href="reader_8c.html#a205d802dd9de1b8e85d44a321f33365c" target="_top" xlink:title="is_reserved">
<polygon fill="white" stroke="black" points="374.5,-168.763 374.5,-187.763 441.5,-187.763 441.5,-168.763 374.5,-168.763"/>
<text text-anchor="middle" x="408" y="-175.763" font-family="Helvetica,sans-Serif" font-size="10.00">is_reserved</text>
</a>
</g>
</g>
<!-- Node14&#45;&gt;Node16 -->
<g id="edge23" class="edge"><title>Node14&#45;&gt;Node16</title>
<path fill="none" stroke="midnightblue" d="M314.675,-149.269C330.215,-154.149 349.671,-160.259 366.71,-165.61"/>
<polygon fill="midnightblue" stroke="midnightblue" points="365.826,-169.001 376.415,-168.658 367.923,-162.323 365.826,-169.001"/>
</g>
<!-- Node17 -->
<g id="node17" class="node"><title>Node17</title>
<g id="a_node17"><a xlink:href="error_8c.html#a28ccf9e0cd69034b61cd32e13e9a9e00" target="_top" xlink:title="used_reserved">
<polygon fill="white" stroke="black" points="504,-130.763 504,-149.763 584,-149.763 584,-130.763 504,-130.763"/>
<text text-anchor="middle" x="544" y="-137.763" font-family="Helvetica,sans-Serif" font-size="10.00">used_reserved</text>
</a>
</g>
</g>
<!-- Node14&#45;&gt;Node17 -->
<g id="edge24" class="edge"><title>Node14&#45;&gt;Node17</title>
<path fill="none" stroke="midnightblue" d="M314.562,-131.96C330.195,-127.844 349.997,-123.322 368,-121.263 403.325,-117.224 412.617,-117.76 448,-121.263 463.231,-122.771 479.638,-125.608 494.46,-128.638"/>
<polygon fill="midnightblue" stroke="midnightblue" points="493.926,-132.103 504.435,-130.753 495.378,-125.255 493.926,-132.103"/>
</g>
<!-- Node18 -->
<g id="node18" class="node"><title>Node18</title>
<g id="a_node18"><a xlink:href="defs_8h.html#aeb8facfda1fb8dcf16a3120589eb90e0" target="_top" xlink:title="lookup">
<polygon fill="white" stroke="black" points="385.5,-130.763 385.5,-149.763 430.5,-149.763 430.5,-130.763 385.5,-130.763"/>
<text text-anchor="middle" x="408" y="-137.763" font-family="Helvetica,sans-Serif" font-size="10.00">lookup</text>
</a>
</g>
</g>
<!-- Node14&#45;&gt;Node18 -->
<g id="edge26" class="edge"><title>Node14&#45;&gt;Node18</title>
<path fill="none" stroke="midnightblue" d="M314.675,-140.263C332.87,-140.263 356.433,-140.263 375.201,-140.263"/>
<polygon fill="midnightblue" stroke="midnightblue" points="375.344,-143.763 385.344,-140.263 375.344,-136.763 375.344,-143.763"/>
</g>
<!-- Node17&#45;&gt;Node6 -->
<g id="edge25" class="edge"><title>Node17&#45;&gt;Node6</title>
<path fill="none" stroke="midnightblue" d="M556.273,-149.803C569.187,-161.206 590.322,-181.382 604,-202.263 627.244,-237.747 644.037,-284.889 652.273,-310.923"/>
<polygon fill="midnightblue" stroke="midnightblue" points="648.991,-312.16 655.272,-320.693 655.683,-310.106 648.991,-312.16"/>
</g>
<!-- Node19&#45;&gt;Node6 -->
<g id="edge28" class="edge"><title>Node19&#45;&gt;Node6</title>
<path fill="none" stroke="midnightblue" d="M319.212,-16.7561C334.011,-12.9916 351.739,-9.12252 368,-7.26326 476.208,5.10918 534.771,10.8168 604,-73.2633 634.104,-109.825 650.911,-256.306 656.177,-310.217"/>
<polygon fill="midnightblue" stroke="midnightblue" points="652.724,-310.883 657.15,-320.509 659.693,-310.224 652.724,-310.883"/>
</g>
<!-- Node21&#45;&gt;Node13 -->
<g id="edge33" class="edge"><title>Node21&#45;&gt;Node13</title>
<path fill="none" stroke="midnightblue" d="M191.604,-72.5087C207.016,-77.4719 226.962,-83.895 244.374,-89.5025"/>
<polygon fill="midnightblue" stroke="midnightblue" points="243.689,-92.9588 254.281,-92.6927 245.835,-86.2958 243.689,-92.9588"/>
</g>
<!-- Node21&#45;&gt;Node15 -->
<g id="edge32" class="edge"><title>Node21&#45;&gt;Node15</title>
<path fill="none" stroke="midnightblue" d="M191.751,-62.3932C224.52,-59.7673 282.78,-54.2726 332,-45.2633 345.866,-42.7252 360.968,-39.075 373.961,-35.6511"/>
<polygon fill="midnightblue" stroke="midnightblue" points="375.123,-38.963 383.866,-32.9793 373.3,-32.2045 375.123,-38.963"/>
</g>
<!-- Node22&#45;&gt;Node6 -->
<g id="edge36" class="edge"><title>Node22&#45;&gt;Node6</title>
<path fill="none" stroke="midnightblue" d="M193.676,-453.841C267.309,-477.478 471.431,-530.779 604,-446.263 637.42,-424.957 650.486,-377.004 655.336,-349.897"/>
<polygon fill="midnightblue" stroke="midnightblue" points="658.795,-350.428 656.904,-340.003 651.881,-349.332 658.795,-350.428"/>
</g>
<!-- Node24 -->
<g id="node24" class="node"><title>Node24</title>
<g id="a_node24"><a xlink:href="error_8c.html#ab2b1e22a832ff68240af1b58df86bee3" target="_top" xlink:title="terminal_lhs">
<polygon fill="white" stroke="black" points="373.5,-396.763 373.5,-415.763 442.5,-415.763 442.5,-396.763 373.5,-396.763"/>
<text text-anchor="middle" x="408" y="-403.763" font-family="Helvetica,sans-Serif" font-size="10.00">terminal_lhs</text>
</a>
</g>
</g>
<!-- Node23&#45;&gt;Node24 -->
<g id="edge38" class="edge"><title>Node23&#45;&gt;Node24</title>
<path fill="none" stroke="midnightblue" d="M193.777,-370.297C226.88,-372.984 283.778,-378.437 332,-387.263 342.207,-389.132 353.083,-391.602 363.295,-394.142"/>
<polygon fill="midnightblue" stroke="midnightblue" points="362.681,-397.598 373.237,-396.685 364.416,-390.816 362.681,-397.598"/>
</g>
<!-- Node25 -->
<g id="node25" class="node"><title>Node25</title>
<g id="a_node25"><a xlink:href="reader_8c.html#a26f803a6175f255b34b89151133c51f6" target="_top" xlink:title="expand_rules">
<polygon fill="white" stroke="red" points="248,-396.763 248,-415.763 322,-415.763 322,-396.763 248,-396.763"/>
<text text-anchor="middle" x="285" y="-403.763" font-family="Helvetica,sans-Serif" font-size="10.00">expand_rules</text>
</a>
</g>
</g>
<!-- Node23&#45;&gt;Node25 -->
<g id="edge40" class="edge"><title>Node23&#45;&gt;Node25</title>
<path fill="none" stroke="midnightblue" d="M193.666,-377.173C208.927,-382.087 228.128,-388.271 244.899,-393.671"/>
<polygon fill="midnightblue" stroke="midnightblue" points="243.853,-397.012 254.445,-396.746 245.999,-390.349 243.853,-397.012"/>
</g>
<!-- Node24&#45;&gt;Node6 -->
<g id="edge39" class="edge"><title>Node24&#45;&gt;Node6</title>
<path fill="none" stroke="midnightblue" d="M430.062,-415.882C467.783,-431.556 548.14,-457.765 604,-425.263 631.902,-409.029 646.569,-372.406 653.268,-349.669"/>
<polygon fill="midnightblue" stroke="midnightblue" points="656.712,-350.34 655.94,-339.774 649.954,-348.516 656.712,-350.34"/>
</g>
</g>
</svg>
