<?xml version="1.0" encoding="UTF-8" standalone="no"?>
<!DOCTYPE svg PUBLIC "-//W3C//DTD SVG 1.1//EN"
 "http://www.w3.org/Graphics/SVG/1.1/DTD/svg11.dtd">
<!-- Generated by graphviz version 2.36.0 (20140111.2315)
 -->
<!-- Title: end_rule Pages: 1 -->
<svg width="364pt" height="47pt"
 viewBox="0.00 0.00 364.00 47.00" xmlns="http://www.w3.org/2000/svg" xmlns:xlink="http://www.w3.org/1999/xlink">
<g id="graph0" class="graph" transform="scale(1 1) rotate(0) translate(4 43)">
<title>end_rule</title>
<polygon fill="white" stroke="none" points="-4,4 -4,-43 360,-43 360,4 -4,4"/>
<!-- Node1 -->
<g id="node1" class="node"><title>Node1</title>
<polygon fill="#bfbfbf" stroke="black" points="0.5,-0.5 0.5,-19.5 53.5,-19.5 53.5,-0.5 0.5,-0.5"/>
<text text-anchor="middle" x="27" y="-7.5" font-family="Helvetica,sans-Serif" font-size="10.00">end_rule</text>
</g>
<!-- Node2 -->
<g id="node2" class="node"><title>Node2</title>
<g id="a_node2"><a xlink:href="reader_8c.html#a34bf32e056d8bc6f1fb490f4efc7ce90" target="_top" xlink:title="add_symbol">
<polygon fill="white" stroke="black" points="90.5,-19.5 90.5,-38.5 159.5,-38.5 159.5,-19.5 90.5,-19.5"/>
<text text-anchor="middle" x="125" y="-26.5" font-family="Helvetica,sans-Serif" font-size="10.00">add_symbol</text>
</a>
</g>
</g>
<!-- Node1&#45;&gt;Node2 -->
<g id="edge1" class="edge"><title>Node1&#45;&gt;Node2</title>
<path fill="none" stroke="midnightblue" d="M63.6118,-17.0482C72.326,-18.7729 81.6249,-20.6133 90.2489,-22.3201"/>
<polygon fill="midnightblue" stroke="midnightblue" points="64.2155,-13.5998 53.7262,-15.0917 62.8564,-20.4666 64.2155,-13.5998"/>
</g>
<!-- Node3 -->
<g id="node3" class="node"><title>Node3</title>
<g id="a_node3"><a xlink:href="reader_8c.html#af6d4fba61bb761ca9fe92fef83e8ee94" target="_top" xlink:title="read_grammar">
<polygon fill="white" stroke="black" points="196.5,-0.5 196.5,-19.5 275.5,-19.5 275.5,-0.5 196.5,-0.5"/>
<text text-anchor="middle" x="236" y="-7.5" font-family="Helvetica,sans-Serif" font-size="10.00">read_grammar</text>
</a>
</g>
</g>
<!-- Node1&#45;&gt;Node3 -->
<g id="edge4" class="edge"><title>Node1&#45;&gt;Node3</title>
<path fill="none" stroke="midnightblue" d="M64.1063,-10C101.043,-10 158.242,-10 196.147,-10"/>
<polygon fill="midnightblue" stroke="midnightblue" points="63.7982,-6.5001 53.7982,-10 63.7981,-13.5001 63.7982,-6.5001"/>
</g>
<!-- Node2&#45;&gt;Node3 -->
<g id="edge2" class="edge"><title>Node2&#45;&gt;Node3</title>
<path fill="none" stroke="midnightblue" d="M169.707,-21.3814C178.526,-19.8441 187.738,-18.2384 196.368,-16.734"/>
<polygon fill="midnightblue" stroke="midnightblue" points="168.843,-17.979 159.593,-23.1443 170.046,-24.875 168.843,-17.979"/>
</g>
<!-- Node4 -->
<g id="node4" class="node"><title>Node4</title>
<g id="a_node4"><a xlink:href="reader_8c.html#a3351a985e2d992eea6ed332cc837ad5b" target="_top" xlink:title="reader">
<polygon fill="white" stroke="red" points="312,-0.5 312,-19.5 356,-19.5 356,-0.5 312,-0.5"/>
<text text-anchor="middle" x="334" y="-7.5" font-family="Helvetica,sans-Serif" font-size="10.00">reader</text>
</a>
</g>
</g>
<!-- Node3&#45;&gt;Node4 -->
<g id="edge3" class="edge"><title>Node3&#45;&gt;Node4</title>
<path fill="none" stroke="midnightblue" d="M285.963,-10C295.035,-10 304.061,-10 311.745,-10"/>
<polygon fill="midnightblue" stroke="midnightblue" points="285.77,-6.5001 275.77,-10 285.77,-13.5001 285.77,-6.5001"/>
</g>
</g>
</svg>
