<?xml version="1.0" encoding="UTF-8" standalone="no"?>
<!DOCTYPE svg PUBLIC "-//W3C//DTD SVG 1.1//EN"
 "http://www.w3.org/Graphics/SVG/1.1/DTD/svg11.dtd">
<!-- Generated by graphviz version 2.36.0 (20140111.2315)
 -->
<!-- Title: declare_types Pages: 1 -->
<!--zoomable 506 -->
<svg id="main" version="1.1" xmlns="http://www.w3.org/2000/svg" xmlns:xlink="http://www.w3.org/1999/xlink" xml:space="preserve" onload="init(evt)">
<style type="text/css"><![CDATA[
.edge:hover path { stroke: red; }
.edge:hover polygon { stroke: red; fill: red; }
]]></style>
<script type="text/javascript"><![CDATA[
var edges = document.getElementsByTagName('g');
if (edges && edges.length) {
  for (var i=0;i<edges.length;i++) {
    if (edges[i].id.substr(0,4)=='edge') {
      edges[i].setAttribute('class','edge');
    }
  }
}
]]></script>
        <defs>
                <circle id="rim" cx="0" cy="0" r="7"/>
                <circle id="rim2" cx="0" cy="0" r="3.5"/>
                <g id="zoomPlus">
                        <use xlink:href="#rim" fill="#404040">
                                <set attributeName="fill" to="#808080" begin="zoomplus.mouseover" end="zoomplus.mouseout"/>
                        </use>
                        <path d="M-4,0h8M0,-4v8" fill="none" stroke="white" stroke-width="1.5" pointer-events="none"/>
                </g>
                <g id="zoomMin">
                        <use xlink:href="#rim" fill="#404040">
                                <set attributeName="fill" to="#808080" begin="zoomminus.mouseover" end="zoomminus.mouseout"/>
                        </use>
                        <path d="M-4,0h8" fill="none" stroke="white" stroke-width="1.5" pointer-events="none"/>
                </g>
                <g id="dirArrow">
                        <path fill="none" stroke="white" stroke-width="1.5" d="M0,-3.0v7 M-2.5,-0.5L0,-3.0L2.5,-0.5"/>
                </g>
               <g id="resetDef">
                       <use xlink:href="#rim2" fill="#404040">
                               <set attributeName="fill" to="#808080" begin="reset.mouseover" end="reset.mouseout"/>
                       </use>
               </g>
        </defs>

<script type="text/javascript">
var viewWidth = 782;
var viewHeight = 506;
var sectionId = 'dynsection-21';
</script>
<script xlink:href="svgpan.js"/>
<svg id="graph" class="graph">
<g id="viewport">
<title>declare_types</title>
<polygon fill="white" stroke="none" points="-4,4 -4,-502.342 778,-502.342 778,4 -4,4"/>
<!-- Node1 -->
<g id="node1" class="node"><title>Node1</title>
<polygon fill="#bfbfbf" stroke="black" points="0.5,-228.5 0.5,-247.5 77.5,-247.5 77.5,-228.5 0.5,-228.5"/>
<text text-anchor="middle" x="39" y="-235.5" font-family="Helvetica,sans-Serif" font-size="10.00">declare_types</text>
</g>
<!-- Node2 -->
<g id="node2" class="node"><title>Node2</title>
<g id="a_node2"><a xlink:href="reader_8c.html#acfb64f081b0d9c4536e90c5352ce9c2c" target="_top" xlink:title="get_literal">
<polygon fill="white" stroke="black" points="376.5,-266.5 376.5,-285.5 435.5,-285.5 435.5,-266.5 376.5,-266.5"/>
<text text-anchor="middle" x="406" y="-273.5" font-family="Helvetica,sans-Serif" font-size="10.00">get_literal</text>
</a>
</g>
</g>
<!-- Node1&#45;&gt;Node2 -->
<g id="edge1" class="edge"><title>Node1&#45;&gt;Node2</title>
<path fill="none" stroke="midnightblue" d="M77.5216,-245.887C89.17,-248.123 102.08,-250.385 114,-252 203.901,-264.177 310.323,-271.058 366.23,-274.096"/>
<polygon fill="midnightblue" stroke="midnightblue" points="366.22,-277.601 376.392,-274.636 366.592,-270.61 366.22,-277.601"/>
</g>
<!-- Node13 -->
<g id="node13" class="node"><title>Node13</title>
<g id="a_node13"><a xlink:href="reader_8c.html#a47f6ab5db224a190b33568ed55a03eaf" target="_top" xlink:title="get_name">
<polygon fill="white" stroke="black" points="376.5,-380.5 376.5,-399.5 435.5,-399.5 435.5,-380.5 376.5,-380.5"/>
<text text-anchor="middle" x="406" y="-387.5" font-family="Helvetica,sans-Serif" font-size="10.00">get_name</text>
</a>
</g>
</g>
<!-- Node1&#45;&gt;Node13 -->
<g id="edge18" class="edge"><title>Node1&#45;&gt;Node13</title>
<path fill="none" stroke="midnightblue" d="M43.3874,-247.547C51.6498,-269.302 75.0616,-322.558 114,-347 192.956,-396.561 307.268,-397.306 366.371,-393.653"/>
<polygon fill="midnightblue" stroke="midnightblue" points="366.667,-397.141 376.401,-392.957 366.182,-390.158 366.667,-397.141"/>
</g>
<!-- Node16 -->
<g id="node16" class="node"><title>Node16</title>
<g id="a_node16"><a xlink:href="reader_8c.html#a0d5a7fe7641edf38078ba5e99536772d" target="_top" xlink:title="get_tag">
<polygon fill="white" stroke="black" points="133.5,-152.5 133.5,-171.5 182.5,-171.5 182.5,-152.5 133.5,-152.5"/>
<text text-anchor="middle" x="158" y="-159.5" font-family="Helvetica,sans-Serif" font-size="10.00">get_tag</text>
</a>
</g>
</g>
<!-- Node1&#45;&gt;Node16 -->
<g id="edge24" class="edge"><title>Node1&#45;&gt;Node16</title>
<path fill="none" stroke="midnightblue" d="M54.8181,-228.375C74.6862,-215.469 110.172,-192.418 133.651,-177.167"/>
<polygon fill="midnightblue" stroke="midnightblue" points="135.823,-179.93 142.302,-171.547 132.01,-174.06 135.823,-179.93"/>
</g>
<!-- Node17 -->
<g id="node17" class="node"><title>Node17</title>
<g id="a_node17"><a xlink:href="reader_8c.html#a11446424d65669df0f3a9e3b1cca57fa" target="_top" xlink:title="nextc">
<polygon fill="white" stroke="black" points="263.5,-228.5 263.5,-247.5 304.5,-247.5 304.5,-228.5 263.5,-228.5"/>
<text text-anchor="middle" x="284" y="-235.5" font-family="Helvetica,sans-Serif" font-size="10.00">nextc</text>
</a>
</g>
</g>
<!-- Node1&#45;&gt;Node17 -->
<g id="edge39" class="edge"><title>Node1&#45;&gt;Node17</title>
<path fill="none" stroke="midnightblue" d="M77.7021,-238C126.102,-238 209.092,-238 253.278,-238"/>
<polygon fill="midnightblue" stroke="midnightblue" points="253.375,-241.5 263.375,-238 253.375,-234.5 253.375,-241.5"/>
</g>
<!-- Node19 -->
<g id="node19" class="node"><title>Node19</title>
<g id="a_node19"><a xlink:href="group__eh.html#ga65962bc9ddf21cd2dc0b5f6b7dcb35fc" target="_top" xlink:title="unexpected_EOF">
<polygon fill="white" stroke="black" points="238,-0.5 238,-19.5 330,-19.5 330,-0.5 238,-0.5"/>
<text text-anchor="middle" x="284" y="-7.5" font-family="Helvetica,sans-Serif" font-size="10.00">unexpected_EOF</text>
</a>
</g>
</g>
<!-- Node1&#45;&gt;Node19 -->
<g id="edge44" class="edge"><title>Node1&#45;&gt;Node19</title>
<path fill="none" stroke="midnightblue" d="M43.3549,-228.166C51.8605,-204.432 76.3043,-143.161 114,-105 152.324,-66.203 209.832,-38.462 246.89,-23.3228"/>
<polygon fill="midnightblue" stroke="midnightblue" points="248.315,-26.5228 256.306,-19.5672 245.721,-20.0208 248.315,-26.5228"/>
</g>
<!-- Node22 -->
<g id="node22" class="node"><title>Node22</title>
<g id="a_node22"><a xlink:href="group__eh.html#ga3d339813f1a66f2c299cbb4a23b4729d" target="_top" xlink:title="retyped_warning">
<polygon fill="white" stroke="black" points="114,-114.5 114,-133.5 202,-133.5 202,-114.5 114,-114.5"/>
<text text-anchor="middle" x="158" y="-121.5" font-family="Helvetica,sans-Serif" font-size="10.00">retyped_warning</text>
</a>
</g>
</g>
<!-- Node1&#45;&gt;Node22 -->
<g id="edge40" class="edge"><title>Node1&#45;&gt;Node22</title>
<path fill="none" stroke="midnightblue" d="M45.2921,-228.372C56.0143,-209.641 82.0228,-167.948 114,-143 116.158,-141.317 118.488,-139.748 120.908,-138.294"/>
<polygon fill="midnightblue" stroke="midnightblue" points="122.722,-141.294 129.922,-133.522 119.446,-135.107 122.722,-141.294"/>
</g>
<!-- Node23 -->
<g id="node23" class="node"><title>Node23</title>
<g id="a_node23"><a xlink:href="group__eh.html#gae2027917ace8b6f808a14b5cd4085eaf" target="_top" xlink:title="syntax_error">
<polygon fill="white" stroke="black" points="497.5,-418.5 497.5,-437.5 568.5,-437.5 568.5,-418.5 497.5,-418.5"/>
<text text-anchor="middle" x="533" y="-425.5" font-family="Helvetica,sans-Serif" font-size="10.00">syntax_error</text>
</a>
</g>
</g>
<!-- Node1&#45;&gt;Node23 -->
<g id="edge41" class="edge"><title>Node1&#45;&gt;Node23</title>
<path fill="none" stroke="midnightblue" d="M60.4808,-247.598C75.1972,-254.311 95.604,-263.249 114,-270 258.79,-323.137 314.826,-289.876 446,-371 465.786,-383.237 462.64,-396.099 482,-409 484.869,-410.912 487.957,-412.669 491.141,-414.275"/>
<polygon fill="midnightblue" stroke="midnightblue" points="489.71,-417.469 500.264,-418.409 492.6,-411.094 489.71,-417.469"/>
</g>
<!-- Node3 -->
<g id="node3" class="node"><title>Node3</title>
<g id="a_node3"><a xlink:href="reader_8c.html#a416a4e795e86e5666f1a734793f9636e" target="_top" xlink:title="dup_line">
<polygon fill="white" stroke="black" points="506.5,-114.5 506.5,-133.5 559.5,-133.5 559.5,-114.5 506.5,-114.5"/>
<text text-anchor="middle" x="533" y="-121.5" font-family="Helvetica,sans-Serif" font-size="10.00">dup_line</text>
</a>
</g>
</g>
<!-- Node2&#45;&gt;Node3 -->
<g id="edge2" class="edge"><title>Node2&#45;&gt;Node3</title>
<path fill="none" stroke="midnightblue" d="M409.838,-266.486C417.489,-242.404 440.797,-178.432 482,-143 486.312,-139.291 491.424,-136.27 496.704,-133.819"/>
<polygon fill="midnightblue" stroke="midnightblue" points="498.272,-136.961 506.257,-129.998 495.672,-130.462 498.272,-136.961"/>
</g>
<!-- Node4 -->
<g id="node4" class="node"><title>Node4</title>
<g id="a_node4"><a xlink:href="group__eh.html#ga03b3d711852aa32c4076f12ea7bb93a4" target="_top" xlink:title="no_space">
<polygon fill="white" stroke="black" points="630.5,-190.5 630.5,-209.5 689.5,-209.5 689.5,-190.5 630.5,-190.5"/>
<text text-anchor="middle" x="660" y="-197.5" font-family="Helvetica,sans-Serif" font-size="10.00">no_space</text>
</a>
</g>
</g>
<!-- Node2&#45;&gt;Node4 -->
<g id="edge16" class="edge"><title>Node2&#45;&gt;Node4</title>
<path fill="none" stroke="midnightblue" d="M435.908,-267.282C481.479,-253.538 570.047,-226.827 620.806,-211.519"/>
<polygon fill="midnightblue" stroke="midnightblue" points="621.866,-214.855 630.43,-208.616 619.845,-208.153 621.866,-214.855"/>
</g>
<!-- Node6 -->
<g id="node6" class="node"><title>Node6</title>
<g id="a_node6"><a xlink:href="group__eh.html#ga1be74faa1a912de2fd380aa9a4de6eb2" target="_top" xlink:title="unterminated_string">
<polygon fill="white" stroke="black" points="482,-304.5 482,-323.5 584,-323.5 584,-304.5 482,-304.5"/>
<text text-anchor="middle" x="533" y="-311.5" font-family="Helvetica,sans-Serif" font-size="10.00">unterminated_string</text>
</a>
</g>
</g>
<!-- Node2&#45;&gt;Node6 -->
<g id="edge5" class="edge"><title>Node2&#45;&gt;Node6</title>
<path fill="none" stroke="midnightblue" d="M435.678,-284.718C451.976,-289.673 472.667,-295.963 490.69,-301.442"/>
<polygon fill="midnightblue" stroke="midnightblue" points="489.798,-304.829 500.384,-304.389 491.834,-298.131 489.798,-304.829"/>
</g>
<!-- Node8 -->
<g id="node8" class="node"><title>Node8</title>
<g id="a_node8"><a xlink:href="reader_8c.html#a204317aa3b6d154f1abff12df35953df" target="_top" xlink:title="get_line">
<polygon fill="white" stroke="black" points="508,-152.5 508,-171.5 558,-171.5 558,-152.5 508,-152.5"/>
<text text-anchor="middle" x="533" y="-159.5" font-family="Helvetica,sans-Serif" font-size="10.00">get_line</text>
</a>
</g>
</g>
<!-- Node2&#45;&gt;Node8 -->
<g id="edge8" class="edge"><title>Node2&#45;&gt;Node8</title>
<path fill="none" stroke="midnightblue" d="M427.199,-266.408C433.77,-262.592 440.722,-257.731 446,-252 469.966,-225.973 455.691,-204.656 482,-181 486.758,-176.722 492.577,-173.37 498.542,-170.756"/>
<polygon fill="midnightblue" stroke="midnightblue" points="499.779,-174.03 507.902,-167.229 497.31,-167.48 499.779,-174.03"/>
</g>
<!-- Node9 -->
<g id="node9" class="node"><title>Node9</title>
<g id="a_node9"><a xlink:href="group__eh.html#gaad64de11ac1b5b04da452109e0c6e55a" target="_top" xlink:title="illegal_character">
<polygon fill="white" stroke="black" points="489.5,-342.5 489.5,-361.5 576.5,-361.5 576.5,-342.5 489.5,-342.5"/>
<text text-anchor="middle" x="533" y="-349.5" font-family="Helvetica,sans-Serif" font-size="10.00">illegal_character</text>
</a>
</g>
</g>
<!-- Node2&#45;&gt;Node9 -->
<g id="edge10" class="edge"><title>Node2&#45;&gt;Node9</title>
<path fill="none" stroke="midnightblue" d="M417.496,-285.549C431.411,-297.823 457.116,-319.195 482,-333 485.508,-334.946 489.256,-336.777 493.063,-338.475"/>
<polygon fill="midnightblue" stroke="midnightblue" points="491.968,-341.81 502.546,-342.415 494.654,-335.346 491.968,-341.81"/>
</g>
<!-- Node10 -->
<g id="node10" class="node"><title>Node10</title>
<g id="a_node10"><a xlink:href="reader_8c.html#a9ce1e6abd7c2eac7e850297b7e1bbc6e" target="_top" xlink:title="hexval">
<polygon fill="white" stroke="black" points="510.5,-190.5 510.5,-209.5 555.5,-209.5 555.5,-190.5 510.5,-190.5"/>
<text text-anchor="middle" x="533" y="-197.5" font-family="Helvetica,sans-Serif" font-size="10.00">hexval</text>
</a>
</g>
</g>
<!-- Node2&#45;&gt;Node10 -->
<g id="edge13" class="edge"><title>Node2&#45;&gt;Node10</title>
<path fill="none" stroke="midnightblue" d="M423.574,-266.348C430.603,-262.116 438.814,-256.984 446,-252 462.656,-240.449 464.765,-234.669 482,-224 487.941,-220.323 494.531,-216.802 500.925,-213.644"/>
<polygon fill="midnightblue" stroke="midnightblue" points="502.527,-216.758 510.054,-209.302 499.52,-210.436 502.527,-216.758"/>
</g>
<!-- Node11 -->
<g id="node11" class="node"><title>Node11</title>
<g id="a_node11"><a xlink:href="reader_8c.html#a04707e6fc9527eaf37d68dafdc9483a9" target="_top" xlink:title="cachec">
<polygon fill="white" stroke="black" points="509,-266.5 509,-285.5 557,-285.5 557,-266.5 509,-266.5"/>
<text text-anchor="middle" x="533" y="-273.5" font-family="Helvetica,sans-Serif" font-size="10.00">cachec</text>
</a>
</g>
</g>
<!-- Node2&#45;&gt;Node11 -->
<g id="edge14" class="edge"><title>Node2&#45;&gt;Node11</title>
<path fill="none" stroke="midnightblue" d="M435.678,-276C454.496,-276 479.168,-276 498.831,-276"/>
<polygon fill="midnightblue" stroke="midnightblue" points="498.884,-279.5 508.884,-276 498.884,-272.5 498.884,-279.5"/>
</g>
<!-- Node12 -->
<g id="node12" class="node"><title>Node12</title>
<g id="a_node12"><a xlink:href="defs_8h.html#aeb8facfda1fb8dcf16a3120589eb90e0" target="_top" xlink:title="lookup">
<polygon fill="white" stroke="black" points="510.5,-380.5 510.5,-399.5 555.5,-399.5 555.5,-380.5 510.5,-380.5"/>
<text text-anchor="middle" x="533" y="-387.5" font-family="Helvetica,sans-Serif" font-size="10.00">lookup</text>
</a>
</g>
</g>
<!-- Node2&#45;&gt;Node12 -->
<g id="edge17" class="edge"><title>Node2&#45;&gt;Node12</title>
<path fill="none" stroke="midnightblue" d="M416.363,-285.584C424.511,-294.093 436.474,-307.003 446,-319 463.48,-341.013 459.867,-353.673 482,-371 487.502,-375.308 494.09,-378.724 500.65,-381.402"/>
<polygon fill="midnightblue" stroke="midnightblue" points="499.516,-384.714 510.111,-384.814 501.891,-378.129 499.516,-384.714"/>
</g>
<!-- Node3&#45;&gt;Node4 -->
<g id="edge3" class="edge"><title>Node3&#45;&gt;Node4</title>
<path fill="none" stroke="midnightblue" d="M559.557,-132.109C567.598,-135.079 576.367,-138.765 584,-143 604.801,-154.54 626.177,-171.368 640.759,-183.749"/>
<polygon fill="midnightblue" stroke="midnightblue" points="638.652,-186.554 648.504,-190.451 643.232,-181.261 638.652,-186.554"/>
</g>
<!-- Node5 -->
<g id="node5" class="node"><title>Node5</title>
<g id="a_node5"><a xlink:href="group__eh.html#ga67b6b9fd02aac96bef4297b1e6a1789a" target="_top" xlink:title="Shutdown function. ">
<polygon fill="white" stroke="black" points="736,-266.5 736,-285.5 774,-285.5 774,-266.5 736,-266.5"/>
<text text-anchor="middle" x="755" y="-273.5" font-family="Helvetica,sans-Serif" font-size="10.00">done</text>
</a>
</g>
</g>
<!-- Node4&#45;&gt;Node5 -->
<g id="edge4" class="edge"><title>Node4&#45;&gt;Node5</title>
<path fill="none" stroke="midnightblue" d="M672.779,-209.625C688.292,-222.303 715.783,-244.769 734.441,-260.016"/>
<polygon fill="midnightblue" stroke="midnightblue" points="732.359,-262.835 742.317,-266.453 736.789,-257.415 732.359,-262.835"/>
</g>
<!-- Node6&#45;&gt;Node5 -->
<g id="edge7" class="edge"><title>Node6&#45;&gt;Node5</title>
<path fill="none" stroke="midnightblue" d="M574.123,-304.468C588.54,-301.22 604.954,-297.725 620,-295 656.332,-288.421 698.55,-282.76 725.739,-279.368"/>
<polygon fill="midnightblue" stroke="midnightblue" points="726.225,-282.835 735.723,-278.141 725.37,-275.888 726.225,-282.835"/>
</g>
<!-- Node7 -->
<g id="node7" class="node"><title>Node7</title>
<g id="a_node7"><a xlink:href="group__eh.html#ga3c01cc3498c6cb3655588b53da0e8f7e" target="_top" xlink:title="print_pos">
<polygon fill="white" stroke="black" points="632,-304.5 632,-323.5 688,-323.5 688,-304.5 632,-304.5"/>
<text text-anchor="middle" x="660" y="-311.5" font-family="Helvetica,sans-Serif" font-size="10.00">print_pos</text>
</a>
</g>
</g>
<!-- Node6&#45;&gt;Node7 -->
<g id="edge6" class="edge"><title>Node6&#45;&gt;Node7</title>
<path fill="none" stroke="midnightblue" d="M584.122,-314C596.603,-314 609.769,-314 621.522,-314"/>
<polygon fill="midnightblue" stroke="midnightblue" points="621.858,-317.5 631.858,-314 621.858,-310.5 621.858,-317.5"/>
</g>
<!-- Node8&#45;&gt;Node4 -->
<g id="edge9" class="edge"><title>Node8&#45;&gt;Node4</title>
<path fill="none" stroke="midnightblue" d="M558.101,-169.327C575.782,-174.702 600.156,-182.112 620.519,-188.302"/>
<polygon fill="midnightblue" stroke="midnightblue" points="619.56,-191.668 630.146,-191.228 621.596,-184.971 619.56,-191.668"/>
</g>
<!-- Node9&#45;&gt;Node5 -->
<g id="edge12" class="edge"><title>Node9&#45;&gt;Node5</title>
<path fill="none" stroke="midnightblue" d="M576.845,-354.944C611.777,-355.558 661.463,-352.247 700,-333 717.637,-324.191 732.581,-307.143 742.246,-293.977"/>
<polygon fill="midnightblue" stroke="midnightblue" points="745.216,-295.836 748.061,-285.631 739.473,-291.834 745.216,-295.836"/>
</g>
<!-- Node9&#45;&gt;Node7 -->
<g id="edge11" class="edge"><title>Node9&#45;&gt;Node7</title>
<path fill="none" stroke="midnightblue" d="M565.543,-342.411C582.752,-337.18 604.149,-330.675 622.126,-325.21"/>
<polygon fill="midnightblue" stroke="midnightblue" points="623.163,-328.553 631.713,-322.295 621.127,-321.855 623.163,-328.553"/>
</g>
<!-- Node11&#45;&gt;Node4 -->
<g id="edge15" class="edge"><title>Node11&#45;&gt;Node4</title>
<path fill="none" stroke="midnightblue" d="M555.799,-266.453C564.708,-262.318 575.011,-257.229 584,-252 602.94,-240.982 623.305,-226.692 638.027,-215.882"/>
<polygon fill="midnightblue" stroke="midnightblue" points="640.461,-218.434 646.401,-209.661 636.287,-212.814 640.461,-218.434"/>
</g>
<!-- Node13&#45;&gt;Node11 -->
<g id="edge19" class="edge"><title>Node13&#45;&gt;Node11</title>
<path fill="none" stroke="midnightblue" d="M412.282,-380.225C423.007,-361.235 449.128,-319.11 482,-295 487.209,-291.18 493.279,-288.032 499.357,-285.475"/>
<polygon fill="midnightblue" stroke="midnightblue" points="500.664,-288.723 508.793,-281.929 498.201,-282.17 500.664,-288.723"/>
</g>
<!-- Node13&#45;&gt;Node12 -->
<g id="edge23" class="edge"><title>Node13&#45;&gt;Node12</title>
<path fill="none" stroke="midnightblue" d="M435.678,-390C454.984,-390 480.453,-390 500.353,-390"/>
<polygon fill="midnightblue" stroke="midnightblue" points="500.474,-393.5 510.474,-390 500.474,-386.5 500.474,-393.5"/>
</g>
<!-- Node14 -->
<g id="node14" class="node"><title>Node14</title>
<g id="a_node14"><a xlink:href="reader_8c.html#a205d802dd9de1b8e85d44a321f33365c" target="_top" xlink:title="is_reserved">
<polygon fill="white" stroke="black" points="499.5,-456.5 499.5,-475.5 566.5,-475.5 566.5,-456.5 499.5,-456.5"/>
<text text-anchor="middle" x="533" y="-463.5" font-family="Helvetica,sans-Serif" font-size="10.00">is_reserved</text>
</a>
</g>
</g>
<!-- Node13&#45;&gt;Node14 -->
<g id="edge20" class="edge"><title>Node13&#45;&gt;Node14</title>
<path fill="none" stroke="midnightblue" d="M417.496,-399.549C431.411,-411.823 457.116,-433.195 482,-447 485.508,-448.946 489.256,-450.777 493.063,-452.475"/>
<polygon fill="midnightblue" stroke="midnightblue" points="491.968,-455.81 502.546,-456.415 494.654,-449.346 491.968,-455.81"/>
</g>
<!-- Node15 -->
<g id="node15" class="node"><title>Node15</title>
<g id="a_node15"><a xlink:href="group__eh.html#ga28ccf9e0cd69034b61cd32e13e9a9e00" target="_top" xlink:title="used_reserved">
<polygon fill="white" stroke="black" points="620,-465.5 620,-484.5 700,-484.5 700,-465.5 620,-465.5"/>
<text text-anchor="middle" x="660" y="-472.5" font-family="Helvetica,sans-Serif" font-size="10.00">used_reserved</text>
</a>
</g>
</g>
<!-- Node13&#45;&gt;Node15 -->
<g id="edge21" class="edge"><title>Node13&#45;&gt;Node15</title>
<path fill="none" stroke="midnightblue" d="M411.039,-399.626C420.169,-419.949 444.558,-466.856 482,-485 526.178,-506.409 584.017,-497.258 621.344,-487.317"/>
<polygon fill="midnightblue" stroke="midnightblue" points="622.621,-490.594 631.3,-484.517 620.726,-483.855 622.621,-490.594"/>
</g>
<!-- Node15&#45;&gt;Node5 -->
<g id="edge22" class="edge"><title>Node15&#45;&gt;Node5</title>
<path fill="none" stroke="midnightblue" d="M669.703,-465.24C678.3,-455.211 691.379,-438.864 700,-423 723.482,-379.787 740.741,-324.248 748.847,-295.377"/>
<polygon fill="midnightblue" stroke="midnightblue" points="752.231,-296.269 751.499,-285.699 745.48,-294.419 752.231,-296.269"/>
</g>
<!-- Node16&#45;&gt;Node3 -->
<g id="edge25" class="edge"><title>Node16&#45;&gt;Node3</title>
<path fill="none" stroke="midnightblue" d="M182.667,-153.54C189.215,-150.678 196.131,-147.139 202,-143 221.012,-129.592 216.629,-114.192 238,-105 324.876,-67.6317 439.626,-94.1542 496.665,-111.769"/>
<polygon fill="midnightblue" stroke="midnightblue" points="495.707,-115.137 506.297,-114.83 497.827,-108.466 495.707,-115.137"/>
</g>
<!-- Node16&#45;&gt;Node4 -->
<g id="edge37" class="edge"><title>Node16&#45;&gt;Node4</title>
<path fill="none" stroke="midnightblue" d="M182.656,-160.381C215.789,-157.886 277.816,-152.378 330,-143 442.345,-122.81 482.159,-53.4496 584,-105 608.111,-117.204 603.252,-132.792 620,-154 627.592,-163.614 636.391,-174.048 643.707,-182.545"/>
<polygon fill="midnightblue" stroke="midnightblue" points="641.233,-185.034 650.43,-190.294 646.521,-180.447 641.233,-185.034"/>
</g>
<!-- Node16&#45;&gt;Node11 -->
<g id="edge36" class="edge"><title>Node16&#45;&gt;Node11</title>
<path fill="none" stroke="midnightblue" d="M182.616,-169.218C246.854,-188.851 424.893,-243.265 498.985,-265.909"/>
<polygon fill="midnightblue" stroke="midnightblue" points="498.14,-269.311 508.727,-268.887 500.186,-262.617 498.14,-269.311"/>
</g>
<!-- Node16&#45;&gt;Node17 -->
<g id="edge26" class="edge"><title>Node16&#45;&gt;Node17</title>
<path fill="none" stroke="midnightblue" d="M172.738,-171.6C188.306,-182.347 214.566,-200.079 238,-214 243.364,-217.187 249.185,-220.438 254.805,-223.476"/>
<polygon fill="midnightblue" stroke="midnightblue" points="253.483,-226.737 263.956,-228.339 256.768,-220.556 253.483,-226.737"/>
</g>
<!-- Node16&#45;&gt;Node19 -->
<g id="edge31" class="edge"><title>Node16&#45;&gt;Node19</title>
<path fill="none" stroke="midnightblue" d="M182.672,-155.63C189.678,-152.753 196.845,-148.682 202,-143 236.283,-105.217 205.136,-73.0236 238,-34 240.823,-30.6476 244.237,-27.6943 247.908,-25.1112"/>
<polygon fill="midnightblue" stroke="midnightblue" points="250.037,-27.9134 256.781,-19.7419 246.413,-21.9245 250.037,-27.9134"/>
</g>
<!-- Node20 -->
<g id="node20" class="node"><title>Node20</title>
<g id="a_node20"><a xlink:href="group__eh.html#ga3abdd7162e1bf8338bfc5c31c590ffe1" target="_top" xlink:title="illegal_tag">
<polygon fill="white" stroke="black" points="503,-38.5 503,-57.5 563,-57.5 563,-38.5 503,-38.5"/>
<text text-anchor="middle" x="533" y="-45.5" font-family="Helvetica,sans-Serif" font-size="10.00">illegal_tag</text>
</a>
</g>
</g>
<!-- Node16&#45;&gt;Node20 -->
<g id="edge33" class="edge"><title>Node16&#45;&gt;Node20</title>
<path fill="none" stroke="midnightblue" d="M182.847,-154.526C189.544,-151.653 196.493,-147.861 202,-143 225.314,-122.419 211.893,-99.8976 238,-83 316.77,-32.0169 432.687,-35.9453 492.726,-42.3978"/>
<polygon fill="midnightblue" stroke="midnightblue" points="492.58,-45.9042 502.916,-43.576 493.384,-38.9505 492.58,-45.9042"/>
</g>
<!-- Node21 -->
<g id="node21" class="node"><title>Node21</title>
<g id="a_node21"><a xlink:href="defs_8h.html#add539a5755e4c4070b0c8ca97477fe47" target="_top" xlink:title="strcpy">
<polygon fill="white" stroke="black" points="262,-114.5 262,-133.5 306,-133.5 306,-114.5 262,-114.5"/>
<text text-anchor="middle" x="284" y="-121.5" font-family="Helvetica,sans-Serif" font-size="10.00">strcpy</text>
</a>
</g>
</g>
<!-- Node16&#45;&gt;Node21 -->
<g id="edge38" class="edge"><title>Node16&#45;&gt;Node21</title>
<path fill="none" stroke="midnightblue" d="M182.615,-154.763C202.391,-148.703 230.756,-140.01 252.293,-133.41"/>
<polygon fill="midnightblue" stroke="midnightblue" points="253.415,-136.727 261.951,-130.451 251.364,-130.034 253.415,-136.727"/>
</g>
<!-- Node17&#45;&gt;Node8 -->
<g id="edge27" class="edge"><title>Node17&#45;&gt;Node8</title>
<path fill="none" stroke="midnightblue" d="M304.796,-231.909C346.866,-218.964 445.598,-188.585 497.976,-172.469"/>
<polygon fill="midnightblue" stroke="midnightblue" points="499.275,-175.731 507.803,-169.445 497.216,-169.041 499.275,-175.731"/>
</g>
<!-- Node18 -->
<g id="node18" class="node"><title>Node18</title>
<g id="a_node18"><a xlink:href="reader_8c.html#ac812a775973bb1eb24e86256b2de6b8b" target="_top" xlink:title="skip_comment">
<polygon fill="white" stroke="red" points="366,-152.5 366,-171.5 446,-171.5 446,-152.5 366,-152.5"/>
<text text-anchor="middle" x="406" y="-159.5" font-family="Helvetica,sans-Serif" font-size="10.00">skip_comment</text>
</a>
</g>
</g>
<!-- Node17&#45;&gt;Node18 -->
<g id="edge28" class="edge"><title>Node17&#45;&gt;Node18</title>
<path fill="none" stroke="midnightblue" d="M300.198,-228.375C320.666,-215.412 357.294,-192.214 381.372,-176.965"/>
<polygon fill="midnightblue" stroke="midnightblue" points="383.35,-179.855 389.925,-171.547 379.604,-173.941 383.35,-179.855"/>
</g>
<!-- Node18&#45;&gt;Node3 -->
<g id="edge29" class="edge"><title>Node18&#45;&gt;Node3</title>
<path fill="none" stroke="midnightblue" d="M438.543,-152.411C456.24,-147.031 478.367,-140.305 496.648,-134.747"/>
<polygon fill="midnightblue" stroke="midnightblue" points="497.806,-138.053 506.356,-131.796 495.77,-131.356 497.806,-138.053"/>
</g>
<!-- Node18&#45;&gt;Node8 -->
<g id="edge30" class="edge"><title>Node18&#45;&gt;Node8</title>
<path fill="none" stroke="midnightblue" d="M446.208,-162C462.613,-162 481.516,-162 497.396,-162"/>
<polygon fill="midnightblue" stroke="midnightblue" points="497.84,-165.5 507.84,-162 497.84,-158.5 497.84,-165.5"/>
</g>
<!-- Node19&#45;&gt;Node5 -->
<g id="edge32" class="edge"><title>Node19&#45;&gt;Node5</title>
<path fill="none" stroke="midnightblue" d="M330.201,-6.56368C389.756,-3.446 497.119,-2.73101 584,-29 640.989,-46.2311 663.064,-49.3052 700,-96 738.537,-144.719 749.621,-220.534 752.771,-256.193"/>
<polygon fill="midnightblue" stroke="midnightblue" points="749.29,-256.57 753.54,-266.275 756.269,-256.038 749.29,-256.57"/>
</g>
<!-- Node20&#45;&gt;Node5 -->
<g id="edge35" class="edge"><title>Node20&#45;&gt;Node5</title>
<path fill="none" stroke="midnightblue" d="M557.718,-57.5775C566.316,-61.5091 575.899,-66.4471 584,-72 642.352,-111.999 656.252,-125.403 700,-181 719.081,-205.249 735.714,-237.033 745.307,-256.989"/>
<polygon fill="midnightblue" stroke="midnightblue" points="742.236,-258.683 749.658,-266.244 748.571,-255.705 742.236,-258.683"/>
</g>
<!-- Node20&#45;&gt;Node7 -->
<g id="edge34" class="edge"><title>Node20&#45;&gt;Node7</title>
<path fill="none" stroke="midnightblue" d="M544.626,-57.5058C555.865,-68.0878 573.405,-86.1904 584,-105 610.076,-151.294 601.895,-169.047 620,-219 629.688,-245.73 642.44,-276.022 650.679,-295.066"/>
<polygon fill="midnightblue" stroke="midnightblue" points="647.54,-296.625 654.744,-304.394 653.958,-293.829 647.54,-296.625"/>
</g>
<!-- Node23&#45;&gt;Node5 -->
<g id="edge43" class="edge"><title>Node23&#45;&gt;Node5</title>
<path fill="none" stroke="midnightblue" d="M568.693,-419.669C604.707,-409.637 661.112,-389.895 700,-357 720.482,-339.674 736.325,-312.693 745.407,-294.691"/>
<polygon fill="midnightblue" stroke="midnightblue" points="748.649,-296.028 749.851,-285.501 742.347,-292.981 748.649,-296.028"/>
</g>
<!-- Node23&#45;&gt;Node7 -->
<g id="edge42" class="edge"><title>Node23&#45;&gt;Node7</title>
<path fill="none" stroke="midnightblue" d="M566.79,-418.463C572.819,-415.917 578.833,-412.79 584,-409 612.506,-388.092 635.936,-353.637 648.65,-332.469"/>
<polygon fill="midnightblue" stroke="midnightblue" points="651.706,-334.177 653.718,-323.775 645.658,-330.652 651.706,-334.177"/>
</g>
</g>
</svg>
        <g id="navigator" transform="translate(0 0)" fill="#404254">
                <rect fill="#f2f5e9" fill-opacity="0.5" stroke="#606060" stroke-width=".5" x="0" y="0" width="60" height="60"/>
                <use id="zoomplus" xlink:href="#zoomPlus" x="17" y="9" onmousedown="handleZoom(evt,'in')"/>
                <use id="zoomminus" xlink:href="#zoomMin" x="42" y="9" onmousedown="handleZoom(evt,'out')"/>
                <use id="reset" xlink:href="#resetDef" x="30" y="36" onmousedown="handleReset()"/>
                <g id="arrowUp" xlink:href="#dirArrow" transform="translate(30 24)" onmousedown="handlePan(0,-1)">
                  <use xlink:href="#rim" fill="#404040">
                        <set attributeName="fill" to="#808080" begin="arrowUp.mouseover" end="arrowUp.mouseout"/>
                  </use>
                  <path fill="none" stroke="white" stroke-width="1.5" d="M0,-3.0v7 M-2.5,-0.5L0,-3.0L2.5,-0.5"/>
                </g>
                <g id="arrowRight" xlink:href="#dirArrow" transform="rotate(90) translate(36 -43)" onmousedown="handlePan(1,0)">
                  <use xlink:href="#rim" fill="#404040">
                        <set attributeName="fill" to="#808080" begin="arrowRight.mouseover" end="arrowRight.mouseout"/>
                  </use>
                  <path fill="none" stroke="white" stroke-width="1.5" d="M0,-3.0v7 M-2.5,-0.5L0,-3.0L2.5,-0.5"/>
                </g>
                <g id="arrowDown" xlink:href="#dirArrow" transform="rotate(180) translate(-30 -48)" onmousedown="handlePan(0,1)">
                  <use xlink:href="#rim" fill="#404040">
                        <set attributeName="fill" to="#808080" begin="arrowDown.mouseover" end="arrowDown.mouseout"/>
                  </use>
                  <path fill="none" stroke="white" stroke-width="1.5" d="M0,-3.0v7 M-2.5,-0.5L0,-3.0L2.5,-0.5"/>
                </g>
                <g id="arrowLeft" xlink:href="#dirArrow" transform="rotate(270) translate(-36 17)" onmousedown="handlePan(-1,0)">
                  <use xlink:href="#rim" fill="#404040">
                        <set attributeName="fill" to="#808080" begin="arrowLeft.mouseover" end="arrowLeft.mouseout"/>
                  </use>
                  <path fill="none" stroke="white" stroke-width="1.5" d="M0,-3.0v7 M-2.5,-0.5L0,-3.0L2.5,-0.5"/>
                </g>
        </g>
        <svg viewBox="0 0 15 15" width="100%" height="30px" preserveAspectRatio="xMaxYMin meet">
         <g id="arrow_out" transform="scale(0.3 0.3)">
          <a xlink:href="reader_8c_a860dbc8da656fd831b19668da20207c7_cgraph_org.svg" target="_base">
           <rect id="button" ry="5" rx="5" y="6" x="6" height="38" width="38"
                fill="#f2f5e9" fill-opacity="0.5" stroke="#606060" stroke-width="1.0"/>
           <path id="arrow"
             d="M 11.500037,31.436501 C 11.940474,20.09759 22.043105,11.32322 32.158766,21.979434 L 37.068811,17.246167 C 37.068811,17.246167 37.088388,32 37.088388,32 L 22.160133,31.978069 C 22.160133,31.978069 26.997745,27.140456 26.997745,27.140456 C 18.528582,18.264221 13.291696,25.230495 11.500037,31.436501 z"
             style="fill:#404040;"/>
          </a>
         </g>
        </svg>
</svg>
