<?xml version="1.0" encoding="UTF-8" standalone="no"?>
<!DOCTYPE svg PUBLIC "-//W3C//DTD SVG 1.1//EN"
 "http://www.w3.org/Graphics/SVG/1.1/DTD/svg11.dtd">
<!-- Generated by graphviz version 2.36.0 (20140111.2315)
 -->
<!-- Title: pack_names Pages: 1 -->
<svg width="250pt" height="66pt"
 viewBox="0.00 0.00 250.00 66.00" xmlns="http://www.w3.org/2000/svg" xmlns:xlink="http://www.w3.org/1999/xlink">
<g id="graph0" class="graph" transform="scale(1 1) rotate(0) translate(4 62)">
<title>pack_names</title>
<polygon fill="white" stroke="none" points="-4,4 -4,-62 246,-62 246,4 -4,4"/>
<!-- Node1 -->
<g id="node1" class="node"><title>Node1</title>
<polygon fill="#bfbfbf" stroke="black" points="0,-19.5 0,-38.5 72,-38.5 72,-19.5 0,-19.5"/>
<text text-anchor="middle" x="36" y="-26.5" font-family="Helvetica,sans-Serif" font-size="10.00">pack_names</text>
</g>
<!-- Node2 -->
<g id="node2" class="node"><title>Node2</title>
<g id="a_node2"><a xlink:href="error_8c.html#a03b3d711852aa32c4076f12ea7bb93a4" target="_top" xlink:title="no_space">
<polygon fill="white" stroke="black" points="108.5,-38.5 108.5,-57.5 167.5,-57.5 167.5,-38.5 108.5,-38.5"/>
<text text-anchor="middle" x="138" y="-45.5" font-family="Helvetica,sans-Serif" font-size="10.00">no_space</text>
</a>
</g>
</g>
<!-- Node1&#45;&gt;Node2 -->
<g id="edge1" class="edge"><title>Node1&#45;&gt;Node2</title>
<path fill="none" stroke="midnightblue" d="M72.2563,-35.6987C80.7437,-37.3113 89.8537,-39.0422 98.4814,-40.6815"/>
<polygon fill="midnightblue" stroke="midnightblue" points="97.8445,-44.123 108.322,-42.5512 99.1511,-37.246 97.8445,-44.123"/>
</g>
<!-- Node4 -->
<g id="node4" class="node"><title>Node4</title>
<g id="a_node4"><a xlink:href="defs_8h.html#add539a5755e4c4070b0c8ca97477fe47" target="_top" xlink:title="strcpy">
<polygon fill="white" stroke="black" points="116,-0.5 116,-19.5 160,-19.5 160,-0.5 116,-0.5"/>
<text text-anchor="middle" x="138" y="-7.5" font-family="Helvetica,sans-Serif" font-size="10.00">strcpy</text>
</a>
</g>
</g>
<!-- Node1&#45;&gt;Node4 -->
<g id="edge3" class="edge"><title>Node1&#45;&gt;Node4</title>
<path fill="none" stroke="midnightblue" d="M72.2563,-22.3013C83.1371,-20.234 95.0409,-17.9722 105.64,-15.9583"/>
<polygon fill="midnightblue" stroke="midnightblue" points="106.548,-19.3486 115.719,-14.0434 105.241,-12.4716 106.548,-19.3486"/>
</g>
<!-- Node3 -->
<g id="node3" class="node"><title>Node3</title>
<g id="a_node3"><a xlink:href="main_8c.html#a67b6b9fd02aac96bef4297b1e6a1789a" target="_top" xlink:title="done">
<polygon fill="white" stroke="black" points="204,-38.5 204,-57.5 242,-57.5 242,-38.5 204,-38.5"/>
<text text-anchor="middle" x="223" y="-45.5" font-family="Helvetica,sans-Serif" font-size="10.00">done</text>
</a>
</g>
</g>
<!-- Node2&#45;&gt;Node3 -->
<g id="edge2" class="edge"><title>Node2&#45;&gt;Node3</title>
<path fill="none" stroke="midnightblue" d="M167.564,-48C176.005,-48 185.238,-48 193.665,-48"/>
<polygon fill="midnightblue" stroke="midnightblue" points="193.785,-51.5001 203.785,-48 193.785,-44.5001 193.785,-51.5001"/>
</g>
</g>
</svg>
