<?xml version="1.0" encoding="UTF-8" standalone="no"?>
<!DOCTYPE svg PUBLIC "-//W3C//DTD SVG 1.1//EN"
 "http://www.w3.org/Graphics/SVG/1.1/DTD/svg11.dtd">
<!-- Generated by graphviz version 2.36.0 (20140111.2315)
 -->
<!-- Title: is_reserved Pages: 1 -->
<!--zoomable 193 -->
<svg id="main" version="1.1" xmlns="http://www.w3.org/2000/svg" xmlns:xlink="http://www.w3.org/1999/xlink" xml:space="preserve" onload="init(evt)">
<style type="text/css"><![CDATA[
.edge:hover path { stroke: red; }
.edge:hover polygon { stroke: red; fill: red; }
]]></style>
<script type="text/javascript"><![CDATA[
var edges = document.getElementsByTagName('g');
if (edges && edges.length) {
  for (var i=0;i<edges.length;i++) {
    if (edges[i].id.substr(0,4)=='edge') {
      edges[i].setAttribute('class','edge');
    }
  }
}
]]></script>
        <defs>
                <circle id="rim" cx="0" cy="0" r="7"/>
                <circle id="rim2" cx="0" cy="0" r="3.5"/>
                <g id="zoomPlus">
                        <use xlink:href="#rim" fill="#404040">
                                <set attributeName="fill" to="#808080" begin="zoomplus.mouseover" end="zoomplus.mouseout"/>
                        </use>
                        <path d="M-4,0h8M0,-4v8" fill="none" stroke="white" stroke-width="1.5" pointer-events="none"/>
                </g>
                <g id="zoomMin">
                        <use xlink:href="#rim" fill="#404040">
                                <set attributeName="fill" to="#808080" begin="zoomminus.mouseover" end="zoomminus.mouseout"/>
                        </use>
                        <path d="M-4,0h8" fill="none" stroke="white" stroke-width="1.5" pointer-events="none"/>
                </g>
                <g id="dirArrow">
                        <path fill="none" stroke="white" stroke-width="1.5" d="M0,-3.0v7 M-2.5,-0.5L0,-3.0L2.5,-0.5"/>
                </g>
               <g id="resetDef">
                       <use xlink:href="#rim2" fill="#404040">
                               <set attributeName="fill" to="#808080" begin="reset.mouseover" end="reset.mouseout"/>
                       </use>
               </g>
        </defs>

<script type="text/javascript">
var viewWidth = 538;
var viewHeight = 193;
var sectionId = 'dynsection-46';
</script>
<script xlink:href="svgpan.js"/>
<svg id="graph" class="graph">
<g id="viewport">
<title>is_reserved</title>
<polygon fill="white" stroke="none" points="-4,4 -4,-188.909 534,-188.909 534,4 -4,4"/>
<!-- Node1 -->
<g id="node1" class="node"><title>Node1</title>
<polygon fill="#bfbfbf" stroke="black" points="0.5,-80.4085 0.5,-99.4085 67.5,-99.4085 67.5,-80.4085 0.5,-80.4085"/>
<text text-anchor="middle" x="34" y="-87.4085" font-family="Helvetica,sans-Serif" font-size="10.00">is_reserved</text>
</g>
<!-- Node2 -->
<g id="node2" class="node"><title>Node2</title>
<g id="a_node2"><a xlink:href="reader_8c.html#a47f6ab5db224a190b33568ed55a03eaf" target="_top" xlink:title="get_name">
<polygon fill="white" stroke="black" points="104.5,-80.4085 104.5,-99.4085 163.5,-99.4085 163.5,-80.4085 104.5,-80.4085"/>
<text text-anchor="middle" x="134" y="-87.4085" font-family="Helvetica,sans-Serif" font-size="10.00">get_name</text>
</a>
</g>
</g>
<!-- Node1&#45;&gt;Node2 -->
<g id="edge1" class="edge"><title>Node1&#45;&gt;Node2</title>
<path fill="none" stroke="midnightblue" d="M77.6668,-89.9085C86.7245,-89.9085 96.0759,-89.9085 104.455,-89.9085"/>
<polygon fill="midnightblue" stroke="midnightblue" points="77.6326,-86.4086 67.6326,-89.9085 77.6325,-93.4086 77.6326,-86.4086"/>
</g>
<!-- Node3 -->
<g id="node3" class="node"><title>Node3</title>
<g id="a_node3"><a xlink:href="reader_8c.html#a34bf32e056d8bc6f1fb490f4efc7ce90" target="_top" xlink:title="add_symbol">
<polygon fill="white" stroke="black" points="332.5,-165.409 332.5,-184.409 401.5,-184.409 401.5,-165.409 332.5,-165.409"/>
<text text-anchor="middle" x="367" y="-172.409" font-family="Helvetica,sans-Serif" font-size="10.00">add_symbol</text>
</a>
</g>
</g>
<!-- Node2&#45;&gt;Node3 -->
<g id="edge2" class="edge"><title>Node2&#45;&gt;Node3</title>
<path fill="none" stroke="midnightblue" d="M150.211,-107.317C162.375,-120.075 180.562,-136.709 200,-145.909 242.707,-166.121 297.595,-172.373 332.298,-174.234"/>
<polygon fill="midnightblue" stroke="midnightblue" points="152.475,-104.609 143.134,-99.6112 147.32,-109.344 152.475,-104.609"/>
</g>
<!-- Node5 -->
<g id="node5" class="node"><title>Node5</title>
<g id="a_node5"><a xlink:href="reader_8c.html#ac910677446efcb4dbebc9a6d3d90a9ff" target="_top" xlink:title="advance_to_start">
<polygon fill="white" stroke="black" points="321,-118.409 321,-137.409 413,-137.409 413,-118.409 321,-118.409"/>
<text text-anchor="middle" x="367" y="-125.409" font-family="Helvetica,sans-Serif" font-size="10.00">advance_to_start</text>
</a>
</g>
</g>
<!-- Node2&#45;&gt;Node5 -->
<g id="edge4" class="edge"><title>Node2&#45;&gt;Node5</title>
<path fill="none" stroke="midnightblue" d="M155.173,-105.48C167.41,-113.923 183.756,-123.509 200,-127.909 239.778,-138.683 286.913,-137.42 320.774,-134.206"/>
<polygon fill="midnightblue" stroke="midnightblue" points="157.209,-102.633 147.05,-99.6251 153.116,-108.312 157.209,-102.633"/>
</g>
<!-- Node6 -->
<g id="node6" class="node"><title>Node6</title>
<g id="a_node6"><a xlink:href="reader_8c.html#a279a8d9eb5a5ad8dce6c95b2647b9c98" target="_top" xlink:title="declare_start">
<polygon fill="white" stroke="black" points="205.5,-99.4085 205.5,-118.409 278.5,-118.409 278.5,-99.4085 205.5,-99.4085"/>
<text text-anchor="middle" x="242" y="-106.409" font-family="Helvetica,sans-Serif" font-size="10.00">declare_start</text>
</a>
</g>
</g>
<!-- Node2&#45;&gt;Node6 -->
<g id="edge6" class="edge"><title>Node2&#45;&gt;Node6</title>
<path fill="none" stroke="midnightblue" d="M173.735,-96.8516C184.113,-98.7118 195.279,-100.713 205.474,-102.541"/>
<polygon fill="midnightblue" stroke="midnightblue" points="174.146,-93.3695 163.685,-95.0502 172.911,-100.26 174.146,-93.3695"/>
</g>
<!-- Node8 -->
<g id="node8" class="node"><title>Node8</title>
<g id="a_node8"><a xlink:href="reader_8c.html#a0b749a023a959fabb8ed2778b46ec217" target="_top" xlink:title="declare_tokens">
<polygon fill="white" stroke="black" points="200.5,-61.4085 200.5,-80.4085 283.5,-80.4085 283.5,-61.4085 200.5,-61.4085"/>
<text text-anchor="middle" x="242" y="-68.4085" font-family="Helvetica,sans-Serif" font-size="10.00">declare_tokens</text>
</a>
</g>
</g>
<!-- Node2&#45;&gt;Node8 -->
<g id="edge9" class="edge"><title>Node2&#45;&gt;Node8</title>
<path fill="none" stroke="midnightblue" d="M173.587,-82.992C182.295,-81.4311 191.564,-79.7696 200.354,-78.1941"/>
<polygon fill="midnightblue" stroke="midnightblue" points="172.911,-79.5573 163.685,-84.7668 174.146,-86.4475 172.911,-79.5573"/>
</g>
<!-- Node9 -->
<g id="node9" class="node"><title>Node9</title>
<g id="a_node9"><a xlink:href="reader_8c.html#a860dbc8da656fd831b19668da20207c7" target="_top" xlink:title="declare_types">
<polygon fill="white" stroke="black" points="203.5,-23.4085 203.5,-42.4085 280.5,-42.4085 280.5,-23.4085 203.5,-23.4085"/>
<text text-anchor="middle" x="242" y="-30.4085" font-family="Helvetica,sans-Serif" font-size="10.00">declare_types</text>
</a>
</g>
</g>
<!-- Node2&#45;&gt;Node9 -->
<g id="edge11" class="edge"><title>Node2&#45;&gt;Node9</title>
<path fill="none" stroke="midnightblue" d="M159.158,-75.0484C171.266,-67.7908 186.244,-59.0961 200,-51.9085 206.119,-48.7113 212.876,-45.4671 219.109,-42.586"/>
<polygon fill="midnightblue" stroke="midnightblue" points="157.272,-72.099 150.527,-80.2695 160.895,-78.0885 157.272,-72.099"/>
</g>
<!-- Node10 -->
<g id="node10" class="node"><title>Node10</title>
<g id="a_node10"><a xlink:href="reader_8c.html#aae3985d515e47c03afc20f92c0292531" target="_top" xlink:title="mark_symbol">
<polygon fill="white" stroke="black" points="329.5,-4.4085 329.5,-23.4085 404.5,-23.4085 404.5,-4.4085 329.5,-4.4085"/>
<text text-anchor="middle" x="367" y="-11.4085" font-family="Helvetica,sans-Serif" font-size="10.00">mark_symbol</text>
</a>
</g>
</g>
<!-- Node2&#45;&gt;Node10 -->
<g id="edge13" class="edge"><title>Node2&#45;&gt;Node10</title>
<path fill="none" stroke="midnightblue" d="M144.541,-71.419C155.233,-52.9511 174.469,-25.6681 200,-13.9085 241.228,5.08064 294.559,0.704236 329.496,-5.47478"/>
<polygon fill="midnightblue" stroke="midnightblue" points="141.366,-69.9312 139.618,-80.3809 147.501,-73.3017 141.366,-69.9312"/>
</g>
<!-- Node4 -->
<g id="node4" class="node"><title>Node4</title>
<g id="a_node4"><a xlink:href="reader_8c.html#af6d4fba61bb761ca9fe92fef83e8ee94" target="_top" xlink:title="read_grammar">
<polygon fill="white" stroke="red" points="450.5,-118.409 450.5,-137.409 529.5,-137.409 529.5,-118.409 450.5,-118.409"/>
<text text-anchor="middle" x="490" y="-125.409" font-family="Helvetica,sans-Serif" font-size="10.00">read_grammar</text>
</a>
</g>
</g>
<!-- Node3&#45;&gt;Node4 -->
<g id="edge3" class="edge"><title>Node3&#45;&gt;Node4</title>
<path fill="none" stroke="midnightblue" d="M402.037,-161.687C421.779,-154.019 446.202,-144.532 464.135,-137.567"/>
<polygon fill="midnightblue" stroke="midnightblue" points="400.54,-158.514 392.486,-165.397 403.075,-165.039 400.54,-158.514"/>
</g>
<!-- Node5&#45;&gt;Node4 -->
<g id="edge5" class="edge"><title>Node5&#45;&gt;Node4</title>
<path fill="none" stroke="midnightblue" d="M423.245,-127.909C432.37,-127.909 441.655,-127.909 450.262,-127.909"/>
<polygon fill="midnightblue" stroke="midnightblue" points="423.056,-124.409 413.056,-127.909 423.056,-131.409 423.056,-124.409"/>
</g>
<!-- Node6&#45;&gt;Node5 -->
<g id="edge7" class="edge"><title>Node6&#45;&gt;Node5</title>
<path fill="none" stroke="midnightblue" d="M288.463,-115.931C299.039,-117.565 310.295,-119.304 320.857,-120.935"/>
<polygon fill="midnightblue" stroke="midnightblue" points="288.994,-112.472 278.577,-114.404 287.925,-119.39 288.994,-112.472"/>
</g>
<!-- Node7 -->
<g id="node7" class="node"><title>Node7</title>
<g id="a_node7"><a xlink:href="reader_8c.html#a07addfee5457e48ddb310769dd0e39af" target="_top" xlink:title="read_declarations">
<polygon fill="white" stroke="red" points="320.5,-61.4085 320.5,-80.4085 413.5,-80.4085 413.5,-61.4085 320.5,-61.4085"/>
<text text-anchor="middle" x="367" y="-68.4085" font-family="Helvetica,sans-Serif" font-size="10.00">read_declarations</text>
</a>
</g>
</g>
<!-- Node6&#45;&gt;Node7 -->
<g id="edge8" class="edge"><title>Node6&#45;&gt;Node7</title>
<path fill="none" stroke="midnightblue" d="M284.045,-96.2281C300.664,-91.0937 319.532,-85.2644 334.972,-80.4944"/>
<polygon fill="midnightblue" stroke="midnightblue" points="282.559,-93.0236 274.038,-99.3195 284.626,-99.7117 282.559,-93.0236"/>
</g>
<!-- Node8&#45;&gt;Node7 -->
<g id="edge10" class="edge"><title>Node8&#45;&gt;Node7</title>
<path fill="none" stroke="midnightblue" d="M293.764,-70.9085C302.565,-70.9085 311.669,-70.9085 320.325,-70.9085"/>
<polygon fill="midnightblue" stroke="midnightblue" points="293.616,-67.4086 283.616,-70.9085 293.616,-74.4086 293.616,-67.4086"/>
</g>
<!-- Node9&#45;&gt;Node7 -->
<g id="edge12" class="edge"><title>Node9&#45;&gt;Node7</title>
<path fill="none" stroke="midnightblue" d="M284.045,-45.5889C300.664,-50.7233 319.532,-56.5526 334.972,-61.3226"/>
<polygon fill="midnightblue" stroke="midnightblue" points="284.626,-42.1053 274.038,-42.4975 282.559,-48.7934 284.626,-42.1053"/>
</g>
<!-- Node10&#45;&gt;Node4 -->
<g id="edge14" class="edge"><title>Node10&#45;&gt;Node4</title>
<path fill="none" stroke="midnightblue" d="M388.329,-29.96C396.469,-36.5768 405.834,-44.4335 414,-51.9085 438.886,-74.6884 466.295,-103.491 480.061,-118.239"/>
<polygon fill="midnightblue" stroke="midnightblue" points="390.379,-27.1174 380.392,-23.5813 385.994,-32.5738 390.379,-27.1174"/>
</g>
</g>
</svg>
        <g id="navigator" transform="translate(0 0)" fill="#404254">
                <rect fill="#f2f5e9" fill-opacity="0.5" stroke="#606060" stroke-width=".5" x="0" y="0" width="60" height="60"/>
                <use id="zoomplus" xlink:href="#zoomPlus" x="17" y="9" onmousedown="handleZoom(evt,'in')"/>
                <use id="zoomminus" xlink:href="#zoomMin" x="42" y="9" onmousedown="handleZoom(evt,'out')"/>
                <use id="reset" xlink:href="#resetDef" x="30" y="36" onmousedown="handleReset()"/>
                <g id="arrowUp" xlink:href="#dirArrow" transform="translate(30 24)" onmousedown="handlePan(0,-1)">
                  <use xlink:href="#rim" fill="#404040">
                        <set attributeName="fill" to="#808080" begin="arrowUp.mouseover" end="arrowUp.mouseout"/>
                  </use>
                  <path fill="none" stroke="white" stroke-width="1.5" d="M0,-3.0v7 M-2.5,-0.5L0,-3.0L2.5,-0.5"/>
                </g>
                <g id="arrowRight" xlink:href="#dirArrow" transform="rotate(90) translate(36 -43)" onmousedown="handlePan(1,0)">
                  <use xlink:href="#rim" fill="#404040">
                        <set attributeName="fill" to="#808080" begin="arrowRight.mouseover" end="arrowRight.mouseout"/>
                  </use>
                  <path fill="none" stroke="white" stroke-width="1.5" d="M0,-3.0v7 M-2.5,-0.5L0,-3.0L2.5,-0.5"/>
                </g>
                <g id="arrowDown" xlink:href="#dirArrow" transform="rotate(180) translate(-30 -48)" onmousedown="handlePan(0,1)">
                  <use xlink:href="#rim" fill="#404040">
                        <set attributeName="fill" to="#808080" begin="arrowDown.mouseover" end="arrowDown.mouseout"/>
                  </use>
                  <path fill="none" stroke="white" stroke-width="1.5" d="M0,-3.0v7 M-2.5,-0.5L0,-3.0L2.5,-0.5"/>
                </g>
                <g id="arrowLeft" xlink:href="#dirArrow" transform="rotate(270) translate(-36 17)" onmousedown="handlePan(-1,0)">
                  <use xlink:href="#rim" fill="#404040">
                        <set attributeName="fill" to="#808080" begin="arrowLeft.mouseover" end="arrowLeft.mouseout"/>
                  </use>
                  <path fill="none" stroke="white" stroke-width="1.5" d="M0,-3.0v7 M-2.5,-0.5L0,-3.0L2.5,-0.5"/>
                </g>
        </g>
        <svg viewBox="0 0 15 15" width="100%" height="30px" preserveAspectRatio="xMaxYMin meet">
         <g id="arrow_out" transform="scale(0.3 0.3)">
          <a xlink:href="reader_8c_a205d802dd9de1b8e85d44a321f33365c_icgraph_org.svg" target="_base">
           <rect id="button" ry="5" rx="5" y="6" x="6" height="38" width="38"
                fill="#f2f5e9" fill-opacity="0.5" stroke="#606060" stroke-width="1.0"/>
           <path id="arrow"
             d="M 11.500037,31.436501 C 11.940474,20.09759 22.043105,11.32322 32.158766,21.979434 L 37.068811,17.246167 C 37.068811,17.246167 37.088388,32 37.088388,32 L 22.160133,31.978069 C 22.160133,31.978069 26.997745,27.140456 26.997745,27.140456 C 18.528582,18.264221 13.291696,25.230495 11.500037,31.436501 z"
             style="fill:#404040;"/>
          </a>
         </g>
        </svg>
</svg>
