<?xml version="1.0" encoding="UTF-8" standalone="no"?>
<!DOCTYPE svg PUBLIC "-//W3C//DTD SVG 1.1//EN"
 "http://www.w3.org/Graphics/SVG/1.1/DTD/svg11.dtd">
<!-- Generated by graphviz version 2.36.0 (20140111.2315)
 -->
<!-- Title: pack_symbols Pages: 1 -->
<svg width="242pt" height="28pt"
 viewBox="0.00 0.00 242.00 28.00" xmlns="http://www.w3.org/2000/svg" xmlns:xlink="http://www.w3.org/1999/xlink">
<g id="graph0" class="graph" transform="scale(1 1) rotate(0) translate(4 24)">
<title>pack_symbols</title>
<polygon fill="white" stroke="none" points="-4,4 -4,-24 238,-24 238,4 -4,4"/>
<!-- Node1 -->
<g id="node1" class="node"><title>Node1</title>
<polygon fill="#bfbfbf" stroke="black" points="0,-0.5 0,-19.5 80,-19.5 80,-0.5 0,-0.5"/>
<text text-anchor="middle" x="40" y="-7.5" font-family="Helvetica,sans-Serif" font-size="10.00">pack_symbols</text>
</g>
<!-- Node2 -->
<g id="node2" class="node"><title>Node2</title>
<g id="a_node2"><a xlink:href="reader_8c.html#a3351a985e2d992eea6ed332cc837ad5b" target="_top" xlink:title="reader">
<polygon fill="white" stroke="black" points="116,-0.5 116,-19.5 160,-19.5 160,-0.5 116,-0.5"/>
<text text-anchor="middle" x="138" y="-7.5" font-family="Helvetica,sans-Serif" font-size="10.00">reader</text>
</a>
</g>
</g>
<!-- Node1&#45;&gt;Node2 -->
<g id="edge1" class="edge"><title>Node1&#45;&gt;Node2</title>
<path fill="none" stroke="midnightblue" d="M90.2089,-10C99.2487,-10 108.231,-10 115.873,-10"/>
<polygon fill="midnightblue" stroke="midnightblue" points="90.0469,-6.5001 80.0469,-10 90.0468,-13.5001 90.0469,-6.5001"/>
</g>
<!-- Node3 -->
<g id="node3" class="node"><title>Node3</title>
<g id="a_node3"><a xlink:href="main_8c.html#afced8478b91af5c169926dfa4426333d" target="_top" xlink:title="main">
<polygon fill="white" stroke="black" points="196,-0.5 196,-19.5 234,-19.5 234,-0.5 196,-0.5"/>
<text text-anchor="middle" x="215" y="-7.5" font-family="Helvetica,sans-Serif" font-size="10.00">main</text>
</a>
</g>
</g>
<!-- Node2&#45;&gt;Node3 -->
<g id="edge2" class="edge"><title>Node2&#45;&gt;Node3</title>
<path fill="none" stroke="midnightblue" d="M170.532,-10C179.211,-10 188.328,-10 195.958,-10"/>
<polygon fill="midnightblue" stroke="midnightblue" points="170.291,-6.5001 160.291,-10 170.291,-13.5001 170.291,-6.5001"/>
</g>
</g>
</svg>
