<?xml version="1.0" encoding="UTF-8" standalone="no"?>
<!DOCTYPE svg PUBLIC "-//W3C//DTD SVG 1.1//EN"
 "http://www.w3.org/Graphics/SVG/1.1/DTD/svg11.dtd">
<!-- Generated by graphviz version 2.36.0 (20140111.2315)
 -->
<!-- Title: get_literal Pages: 1 -->
<svg width="398pt" height="142pt"
 viewBox="0.00 0.00 398.00 142.00" xmlns="http://www.w3.org/2000/svg" xmlns:xlink="http://www.w3.org/1999/xlink">
<g id="graph0" class="graph" transform="scale(1 1) rotate(0) translate(4 138)">
<title>get_literal</title>
<polygon fill="white" stroke="none" points="-4,4 -4,-138 394,-138 394,4 -4,4"/>
<!-- Node1 -->
<g id="node1" class="node"><title>Node1</title>
<polygon fill="#bfbfbf" stroke="black" points="0.5,-57.5 0.5,-76.5 59.5,-76.5 59.5,-57.5 0.5,-57.5"/>
<text text-anchor="middle" x="30" y="-64.5" font-family="Helvetica,sans-Serif" font-size="10.00">get_literal</text>
</g>
<!-- Node2 -->
<g id="node2" class="node"><title>Node2</title>
<g id="a_node2"><a xlink:href="reader_8c.html#a34bf32e056d8bc6f1fb490f4efc7ce90" target="_top" xlink:title="add_symbol">
<polygon fill="white" stroke="black" points="103.5,-114.5 103.5,-133.5 172.5,-133.5 172.5,-114.5 103.5,-114.5"/>
<text text-anchor="middle" x="138" y="-121.5" font-family="Helvetica,sans-Serif" font-size="10.00">add_symbol</text>
</a>
</g>
</g>
<!-- Node1&#45;&gt;Node2 -->
<g id="edge1" class="edge"><title>Node1&#45;&gt;Node2</title>
<path fill="none" stroke="midnightblue" d="M55.1581,-81.8601C67.2657,-89.1177 82.2441,-97.8124 96,-105 102.119,-108.197 108.876,-111.441 115.109,-114.323"/>
<polygon fill="midnightblue" stroke="midnightblue" points="56.8946,-78.82 46.5266,-76.639 53.2715,-84.8095 56.8946,-78.82"/>
</g>
<!-- Node5 -->
<g id="node5" class="node"><title>Node5</title>
<g id="a_node5"><a xlink:href="reader_8c.html#a0b749a023a959fabb8ed2778b46ec217" target="_top" xlink:title="declare_tokens">
<polygon fill="white" stroke="black" points="96.5,-38.5 96.5,-57.5 179.5,-57.5 179.5,-38.5 96.5,-38.5"/>
<text text-anchor="middle" x="138" y="-45.5" font-family="Helvetica,sans-Serif" font-size="10.00">declare_tokens</text>
</a>
</g>
</g>
<!-- Node1&#45;&gt;Node5 -->
<g id="edge4" class="edge"><title>Node1&#45;&gt;Node5</title>
<path fill="none" stroke="midnightblue" d="M69.5869,-60.0835C78.2947,-58.5226 87.5644,-56.8611 96.3539,-55.2856"/>
<polygon fill="midnightblue" stroke="midnightblue" points="68.9107,-56.6488 59.6851,-61.8583 70.1458,-63.539 68.9107,-56.6488"/>
</g>
<!-- Node7 -->
<g id="node7" class="node"><title>Node7</title>
<g id="a_node7"><a xlink:href="reader_8c.html#a860dbc8da656fd831b19668da20207c7" target="_top" xlink:title="declare_types">
<polygon fill="white" stroke="black" points="99.5,-0.5 99.5,-19.5 176.5,-19.5 176.5,-0.5 99.5,-0.5"/>
<text text-anchor="middle" x="138" y="-7.5" font-family="Helvetica,sans-Serif" font-size="10.00">declare_types</text>
</a>
</g>
</g>
<!-- Node1&#45;&gt;Node7 -->
<g id="edge7" class="edge"><title>Node1&#45;&gt;Node7</title>
<path fill="none" stroke="midnightblue" d="M55.1581,-52.1399C67.2657,-44.8823 82.2441,-36.1876 96,-29 102.119,-25.8028 108.876,-22.5586 115.109,-19.6775"/>
<polygon fill="midnightblue" stroke="midnightblue" points="53.2715,-49.1905 46.5266,-57.361 56.8946,-55.18 53.2715,-49.1905"/>
</g>
<!-- Node8 -->
<g id="node8" class="node"><title>Node8</title>
<g id="a_node8"><a xlink:href="reader_8c.html#aae3985d515e47c03afc20f92c0292531" target="_top" xlink:title="mark_symbol">
<polygon fill="white" stroke="black" points="100.5,-76.5 100.5,-95.5 175.5,-95.5 175.5,-76.5 100.5,-76.5"/>
<text text-anchor="middle" x="138" y="-83.5" font-family="Helvetica,sans-Serif" font-size="10.00">mark_symbol</text>
</a>
</g>
</g>
<!-- Node1&#45;&gt;Node8 -->
<g id="edge9" class="edge"><title>Node1&#45;&gt;Node8</title>
<path fill="none" stroke="midnightblue" d="M69.7536,-73.9464C79.731,-75.7348 90.4359,-77.6536 100.305,-79.4226"/>
<polygon fill="midnightblue" stroke="midnightblue" points="70.1458,-70.461 59.6851,-72.1417 68.9107,-77.3512 70.1458,-70.461"/>
</g>
<!-- Node3 -->
<g id="node3" class="node"><title>Node3</title>
<g id="a_node3"><a xlink:href="reader_8c.html#af6d4fba61bb761ca9fe92fef83e8ee94" target="_top" xlink:title="read_grammar">
<polygon fill="white" stroke="black" points="223.5,-76.5 223.5,-95.5 302.5,-95.5 302.5,-76.5 223.5,-76.5"/>
<text text-anchor="middle" x="263" y="-83.5" font-family="Helvetica,sans-Serif" font-size="10.00">read_grammar</text>
</a>
</g>
</g>
<!-- Node2&#45;&gt;Node3 -->
<g id="edge2" class="edge"><title>Node2&#45;&gt;Node3</title>
<path fill="none" stroke="midnightblue" d="M180.045,-111.32C196.664,-106.185 215.532,-100.356 230.972,-95.5859"/>
<polygon fill="midnightblue" stroke="midnightblue" points="178.559,-108.115 170.038,-114.411 180.626,-114.803 178.559,-108.115"/>
</g>
<!-- Node4 -->
<g id="node4" class="node"><title>Node4</title>
<g id="a_node4"><a xlink:href="reader_8c.html#a3351a985e2d992eea6ed332cc837ad5b" target="_top" xlink:title="reader">
<polygon fill="white" stroke="red" points="346,-57.5 346,-76.5 390,-76.5 390,-57.5 346,-57.5"/>
<text text-anchor="middle" x="368" y="-64.5" font-family="Helvetica,sans-Serif" font-size="10.00">reader</text>
</a>
</g>
</g>
<!-- Node3&#45;&gt;Node4 -->
<g id="edge3" class="edge"><title>Node3&#45;&gt;Node4</title>
<path fill="none" stroke="midnightblue" d="M312.746,-77.0079C324.362,-74.8652 336.165,-72.6879 345.783,-70.9138"/>
<polygon fill="midnightblue" stroke="midnightblue" points="311.846,-73.615 302.646,-78.871 313.115,-80.4988 311.846,-73.615"/>
</g>
<!-- Node6 -->
<g id="node6" class="node"><title>Node6</title>
<g id="a_node6"><a xlink:href="reader_8c.html#a07addfee5457e48ddb310769dd0e39af" target="_top" xlink:title="read_declarations">
<polygon fill="white" stroke="black" points="216.5,-38.5 216.5,-57.5 309.5,-57.5 309.5,-38.5 216.5,-38.5"/>
<text text-anchor="middle" x="263" y="-45.5" font-family="Helvetica,sans-Serif" font-size="10.00">read_declarations</text>
</a>
</g>
</g>
<!-- Node5&#45;&gt;Node6 -->
<g id="edge5" class="edge"><title>Node5&#45;&gt;Node6</title>
<path fill="none" stroke="midnightblue" d="M189.764,-48C198.565,-48 207.669,-48 216.325,-48"/>
<polygon fill="midnightblue" stroke="midnightblue" points="189.616,-44.5001 179.616,-48 189.616,-51.5001 189.616,-44.5001"/>
</g>
<!-- Node6&#45;&gt;Node4 -->
<g id="edge6" class="edge"><title>Node6&#45;&gt;Node4</title>
<path fill="none" stroke="midnightblue" d="M319.836,-58.2999C329.091,-60.007 338.157,-61.6795 345.829,-63.0947"/>
<polygon fill="midnightblue" stroke="midnightblue" points="320.246,-54.8165 309.777,-56.4443 318.976,-61.7004 320.246,-54.8165"/>
</g>
<!-- Node7&#45;&gt;Node6 -->
<g id="edge8" class="edge"><title>Node7&#45;&gt;Node6</title>
<path fill="none" stroke="midnightblue" d="M180.045,-22.6804C196.664,-27.8148 215.532,-33.6441 230.972,-38.4141"/>
<polygon fill="midnightblue" stroke="midnightblue" points="180.626,-19.1968 170.038,-19.589 178.559,-25.8849 180.626,-19.1968"/>
</g>
<!-- Node8&#45;&gt;Node3 -->
<g id="edge10" class="edge"><title>Node8&#45;&gt;Node3</title>
<path fill="none" stroke="midnightblue" d="M185.718,-86C198.092,-86 211.315,-86 223.217,-86"/>
<polygon fill="midnightblue" stroke="midnightblue" points="185.571,-82.5001 175.571,-86 185.571,-89.5001 185.571,-82.5001"/>
</g>
</g>
</svg>
