<?xml version="1.0" encoding="UTF-8" standalone="no"?>
<!DOCTYPE svg PUBLIC "-//W3C//DTD SVG 1.1//EN"
 "http://www.w3.org/Graphics/SVG/1.1/DTD/svg11.dtd">
<!-- Generated by graphviz version 2.36.0 (20140111.2315)
 -->
<!-- Title: declare_start Pages: 1 -->
<svg width="674pt" height="353pt"
 viewBox="0.00 0.00 674.00 352.70" xmlns="http://www.w3.org/2000/svg" xmlns:xlink="http://www.w3.org/1999/xlink">
<g id="graph0" class="graph" transform="scale(1 1) rotate(0) translate(4 348.703)">
<title>declare_start</title>
<polygon fill="white" stroke="none" points="-4,4 -4,-348.703 670,-348.703 670,4 -4,4"/>
<!-- Node1 -->
<g id="node1" class="node"><title>Node1</title>
<polygon fill="#bfbfbf" stroke="black" points="0.5,-95.8814 0.5,-114.881 73.5,-114.881 73.5,-95.8814 0.5,-95.8814"/>
<text text-anchor="middle" x="37" y="-102.881" font-family="Helvetica,sans-Serif" font-size="10.00">declare_start</text>
</g>
<!-- Node2 -->
<g id="node2" class="node"><title>Node2</title>
<g id="a_node2"><a xlink:href="reader_8c.html#a47f6ab5db224a190b33568ed55a03eaf" target="_top" xlink:title="get_name">
<polygon fill="white" stroke="black" points="250.5,-266.881 250.5,-285.881 309.5,-285.881 309.5,-266.881 250.5,-266.881"/>
<text text-anchor="middle" x="280" y="-273.881" font-family="Helvetica,sans-Serif" font-size="10.00">get_name</text>
</a>
</g>
</g>
<!-- Node1&#45;&gt;Node2 -->
<g id="edge1" class="edge"><title>Node1&#45;&gt;Node2</title>
<path fill="none" stroke="midnightblue" d="M45.6239,-115.155C57.9699,-130.552 83.6271,-160.817 110,-181.381 154.399,-216.001 212.931,-245.939 248.17,-262.532"/>
<polygon fill="midnightblue" stroke="midnightblue" points="246.917,-265.81 257.46,-266.852 249.868,-259.462 246.917,-265.81"/>
</g>
<!-- Node9 -->
<g id="node9" class="node"><title>Node9</title>
<g id="a_node9"><a xlink:href="reader_8c.html#a11446424d65669df0f3a9e3b1cca57fa" target="_top" xlink:title="nextc">
<polygon fill="white" stroke="black" points="136.5,-152.881 136.5,-171.881 177.5,-171.881 177.5,-152.881 136.5,-152.881"/>
<text text-anchor="middle" x="157" y="-159.881" font-family="Helvetica,sans-Serif" font-size="10.00">nextc</text>
</a>
</g>
</g>
<!-- Node1&#45;&gt;Node9 -->
<g id="edge9" class="edge"><title>Node1&#45;&gt;Node9</title>
<path fill="none" stroke="midnightblue" d="M54.9379,-114.9C69.3858,-122.878 90.8061,-134.377 110,-143.381 115.28,-145.859 120.974,-148.35 126.496,-150.677"/>
<polygon fill="midnightblue" stroke="midnightblue" points="125.545,-154.07 136.124,-154.647 128.214,-147.599 125.545,-154.07"/>
</g>
<!-- Node15 -->
<g id="node15" class="node"><title>Node15</title>
<g id="a_node15"><a xlink:href="error_8c.html#a23e15c296f3057431e3c58bb151b44bd" target="_top" xlink:title="restarted_warning">
<polygon fill="white" stroke="black" points="110,-114.881 110,-133.881 204,-133.881 204,-114.881 110,-114.881"/>
<text text-anchor="middle" x="157" y="-121.881" font-family="Helvetica,sans-Serif" font-size="10.00">restarted_warning</text>
</a>
</g>
</g>
<!-- Node1&#45;&gt;Node15 -->
<g id="edge19" class="edge"><title>Node1&#45;&gt;Node15</title>
<path fill="none" stroke="midnightblue" d="M73.7241,-111.134C82.004,-112.467 91.0122,-113.917 99.9309,-115.353"/>
<polygon fill="midnightblue" stroke="midnightblue" points="99.4895,-118.827 109.919,-116.962 100.602,-111.916 99.4895,-118.827"/>
</g>
<!-- Node16 -->
<g id="node16" class="node"><title>Node16</title>
<g id="a_node16"><a xlink:href="error_8c.html#ae2027917ace8b6f808a14b5cd4085eaf" target="_top" xlink:title="syntax_error">
<polygon fill="white" stroke="black" points="380.5,-76.8814 380.5,-95.8814 451.5,-95.8814 451.5,-76.8814 380.5,-76.8814"/>
<text text-anchor="middle" x="416" y="-83.8814" font-family="Helvetica,sans-Serif" font-size="10.00">syntax_error</text>
</a>
</g>
</g>
<!-- Node1&#45;&gt;Node16 -->
<g id="edge20" class="edge"><title>Node1&#45;&gt;Node16</title>
<path fill="none" stroke="midnightblue" d="M73.8071,-103.577C142.883,-100.095 294.386,-92.4601 370.09,-88.6447"/>
<polygon fill="midnightblue" stroke="midnightblue" points="370.442,-92.1316 380.253,-88.1326 370.089,-85.1404 370.442,-92.1316"/>
</g>
<!-- Node17 -->
<g id="node17" class="node"><title>Node17</title>
<g id="a_node17"><a xlink:href="error_8c.html#a6859daa9b91716c6fbe56b822641877c" target="_top" xlink:title="terminal_start">
<polygon fill="white" stroke="black" points="242,-38.8814 242,-57.8814 318,-57.8814 318,-38.8814 242,-38.8814"/>
<text text-anchor="middle" x="280" y="-45.8814" font-family="Helvetica,sans-Serif" font-size="10.00">terminal_start</text>
</a>
</g>
</g>
<!-- Node1&#45;&gt;Node17 -->
<g id="edge23" class="edge"><title>Node1&#45;&gt;Node17</title>
<path fill="none" stroke="midnightblue" d="M55.2048,-95.7765C69.4594,-88.2455 90.4727,-78.1112 110,-72.3814 150.072,-60.6231 197.238,-54.5376 231.545,-51.4424"/>
<polygon fill="midnightblue" stroke="midnightblue" points="232.089,-54.9088 241.757,-50.5748 231.496,-47.934 232.089,-54.9088"/>
</g>
<!-- Node18 -->
<g id="node18" class="node"><title>Node18</title>
<g id="a_node18"><a xlink:href="error_8c.html#a65962bc9ddf21cd2dc0b5f6b7dcb35fc" target="_top" xlink:title="unexpected_EOF">
<polygon fill="white" stroke="black" points="111,-0.881381 111,-19.8814 203,-19.8814 203,-0.881381 111,-0.881381"/>
<text text-anchor="middle" x="157" y="-7.88138" font-family="Helvetica,sans-Serif" font-size="10.00">unexpected_EOF</text>
</a>
</g>
</g>
<!-- Node1&#45;&gt;Node18 -->
<g id="edge25" class="edge"><title>Node1&#45;&gt;Node18</title>
<path fill="none" stroke="midnightblue" d="M46.097,-95.7297C58.6796,-81.1442 84.1763,-53.1958 110,-34.3814 114.851,-30.8474 120.292,-27.5273 125.688,-24.5492"/>
<polygon fill="midnightblue" stroke="midnightblue" points="127.374,-27.6172 134.615,-19.8825 124.131,-21.4138 127.374,-27.6172"/>
</g>
<!-- Node3 -->
<g id="node3" class="node"><title>Node3</title>
<g id="a_node3"><a xlink:href="reader_8c.html#a04707e6fc9527eaf37d68dafdc9483a9" target="_top" xlink:title="cachec">
<polygon fill="white" stroke="black" points="392,-266.881 392,-285.881 440,-285.881 440,-266.881 392,-266.881"/>
<text text-anchor="middle" x="416" y="-273.881" font-family="Helvetica,sans-Serif" font-size="10.00">cachec</text>
</a>
</g>
</g>
<!-- Node2&#45;&gt;Node3 -->
<g id="edge2" class="edge"><title>Node2&#45;&gt;Node3</title>
<path fill="none" stroke="midnightblue" d="M309.746,-276.381C330.762,-276.381 359.329,-276.381 381.4,-276.381"/>
<polygon fill="midnightblue" stroke="midnightblue" points="381.651,-279.881 391.651,-276.381 381.651,-272.881 381.651,-279.881"/>
</g>
<!-- Node6 -->
<g id="node6" class="node"><title>Node6</title>
<g id="a_node6"><a xlink:href="reader_8c.html#a205d802dd9de1b8e85d44a321f33365c" target="_top" xlink:title="is_reserved">
<polygon fill="white" stroke="black" points="382.5,-228.881 382.5,-247.881 449.5,-247.881 449.5,-228.881 382.5,-228.881"/>
<text text-anchor="middle" x="416" y="-235.881" font-family="Helvetica,sans-Serif" font-size="10.00">is_reserved</text>
</a>
</g>
</g>
<!-- Node2&#45;&gt;Node6 -->
<g id="edge5" class="edge"><title>Node2&#45;&gt;Node6</title>
<path fill="none" stroke="midnightblue" d="M309.746,-268.229C327.986,-263.057 351.915,-256.271 372.347,-250.477"/>
<polygon fill="midnightblue" stroke="midnightblue" points="373.391,-253.819 382.056,-247.724 371.481,-247.085 373.391,-253.819"/>
</g>
<!-- Node7 -->
<g id="node7" class="node"><title>Node7</title>
<g id="a_node7"><a xlink:href="error_8c.html#a28ccf9e0cd69034b61cd32e13e9a9e00" target="_top" xlink:title="used_reserved">
<polygon fill="white" stroke="black" points="512,-285.881 512,-304.881 592,-304.881 592,-285.881 512,-285.881"/>
<text text-anchor="middle" x="552" y="-292.881" font-family="Helvetica,sans-Serif" font-size="10.00">used_reserved</text>
</a>
</g>
</g>
<!-- Node2&#45;&gt;Node7 -->
<g id="edge6" class="edge"><title>Node2&#45;&gt;Node7</title>
<path fill="none" stroke="midnightblue" d="M289.529,-285.985C302.357,-299.621 328.102,-323.983 356,-333.381 406.542,-350.408 424.126,-345.773 476,-333.381 494.75,-328.902 514.116,-318.931 528.471,-310.326"/>
<polygon fill="midnightblue" stroke="midnightblue" points="530.483,-313.196 537.124,-304.941 526.785,-307.253 530.483,-313.196"/>
</g>
<!-- Node8 -->
<g id="node8" class="node"><title>Node8</title>
<g id="a_node8"><a xlink:href="defs_8h.html#aeb8facfda1fb8dcf16a3120589eb90e0" target="_top" xlink:title="lookup">
<polygon fill="white" stroke="black" points="393.5,-304.881 393.5,-323.881 438.5,-323.881 438.5,-304.881 393.5,-304.881"/>
<text text-anchor="middle" x="416" y="-311.881" font-family="Helvetica,sans-Serif" font-size="10.00">lookup</text>
</a>
</g>
</g>
<!-- Node2&#45;&gt;Node8 -->
<g id="edge8" class="edge"><title>Node2&#45;&gt;Node8</title>
<path fill="none" stroke="midnightblue" d="M309.746,-284.533C331.487,-290.698 361.308,-299.155 383.659,-305.494"/>
<polygon fill="midnightblue" stroke="midnightblue" points="382.771,-308.88 393.346,-308.241 384.68,-302.145 382.771,-308.88"/>
</g>
<!-- Node4 -->
<g id="node4" class="node"><title>Node4</title>
<g id="a_node4"><a xlink:href="error_8c.html#a03b3d711852aa32c4076f12ea7bb93a4" target="_top" xlink:title="no_space">
<polygon fill="white" stroke="black" points="522.5,-190.881 522.5,-209.881 581.5,-209.881 581.5,-190.881 522.5,-190.881"/>
<text text-anchor="middle" x="552" y="-197.881" font-family="Helvetica,sans-Serif" font-size="10.00">no_space</text>
</a>
</g>
</g>
<!-- Node3&#45;&gt;Node4 -->
<g id="edge3" class="edge"><title>Node3&#45;&gt;Node4</title>
<path fill="none" stroke="midnightblue" d="M440.135,-270.889C451.326,-267.749 464.741,-263.253 476,-257.381 497.092,-246.382 518.428,-229.48 532.922,-216.935"/>
<polygon fill="midnightblue" stroke="midnightblue" points="535.442,-219.378 540.611,-210.129 530.803,-214.136 535.442,-219.378"/>
</g>
<!-- Node5 -->
<g id="node5" class="node"><title>Node5</title>
<g id="a_node5"><a xlink:href="main_8c.html#a67b6b9fd02aac96bef4297b1e6a1789a" target="_top" xlink:title="done">
<polygon fill="white" stroke="black" points="628,-114.881 628,-133.881 666,-133.881 666,-114.881 628,-114.881"/>
<text text-anchor="middle" x="647" y="-121.881" font-family="Helvetica,sans-Serif" font-size="10.00">done</text>
</a>
</g>
</g>
<!-- Node4&#45;&gt;Node5 -->
<g id="edge4" class="edge"><title>Node4&#45;&gt;Node5</title>
<path fill="none" stroke="midnightblue" d="M570.227,-190.864C577.21,-186.733 585.212,-181.64 592,-176.381 605.61,-165.838 619.573,-152.306 629.891,-141.69"/>
<polygon fill="midnightblue" stroke="midnightblue" points="632.631,-143.888 637.003,-134.238 627.567,-139.055 632.631,-143.888"/>
</g>
<!-- Node7&#45;&gt;Node5 -->
<g id="edge7" class="edge"><title>Node7&#45;&gt;Node5</title>
<path fill="none" stroke="midnightblue" d="M558.267,-285.698C573.229,-258.186 616.178,-179.215 635.89,-142.97"/>
<polygon fill="midnightblue" stroke="midnightblue" points="639.088,-144.416 640.791,-133.959 632.939,-141.071 639.088,-144.416"/>
</g>
<!-- Node10 -->
<g id="node10" class="node"><title>Node10</title>
<g id="a_node10"><a xlink:href="reader_8c.html#a204317aa3b6d154f1abff12df35953df" target="_top" xlink:title="get_line">
<polygon fill="white" stroke="black" points="391,-190.881 391,-209.881 441,-209.881 441,-190.881 391,-190.881"/>
<text text-anchor="middle" x="416" y="-197.881" font-family="Helvetica,sans-Serif" font-size="10.00">get_line</text>
</a>
</g>
</g>
<!-- Node9&#45;&gt;Node10 -->
<g id="edge10" class="edge"><title>Node9&#45;&gt;Node10</title>
<path fill="none" stroke="midnightblue" d="M177.75,-167.657C194.276,-171.903 218.532,-177.742 240,-181.381 288.468,-189.597 345.121,-194.99 380.537,-197.864"/>
<polygon fill="midnightblue" stroke="midnightblue" points="380.569,-201.377 390.813,-198.675 381.12,-194.399 380.569,-201.377"/>
</g>
<!-- Node11 -->
<g id="node11" class="node"><title>Node11</title>
<g id="a_node11"><a xlink:href="reader_8c.html#ac812a775973bb1eb24e86256b2de6b8b" target="_top" xlink:title="skip_comment">
<polygon fill="white" stroke="black" points="240,-152.881 240,-171.881 320,-171.881 320,-152.881 240,-152.881"/>
<text text-anchor="middle" x="280" y="-159.881" font-family="Helvetica,sans-Serif" font-size="10.00">skip_comment</text>
</a>
</g>
</g>
<!-- Node9&#45;&gt;Node11 -->
<g id="edge12" class="edge"><title>Node9&#45;&gt;Node11</title>
<path fill="none" stroke="midnightblue" d="M177.71,-162.381C191.77,-162.381 211.332,-162.381 229.52,-162.381"/>
<polygon fill="midnightblue" stroke="midnightblue" points="229.727,-165.881 239.727,-162.381 229.726,-158.881 229.727,-165.881"/>
</g>
<!-- Node10&#45;&gt;Node4 -->
<g id="edge11" class="edge"><title>Node10&#45;&gt;Node4</title>
<path fill="none" stroke="midnightblue" d="M441.266,-200.381C461.018,-200.381 489.274,-200.381 512.167,-200.381"/>
<polygon fill="midnightblue" stroke="midnightblue" points="512.258,-203.881 522.257,-200.381 512.257,-196.881 512.258,-203.881"/>
</g>
<!-- Node11&#45;&gt;Node10 -->
<g id="edge15" class="edge"><title>Node11&#45;&gt;Node10</title>
<path fill="none" stroke="midnightblue" d="M314.814,-171.97C335.11,-177.726 360.841,-185.023 381.144,-190.78"/>
<polygon fill="midnightblue" stroke="midnightblue" points="380.342,-194.191 390.918,-193.552 382.252,-187.457 380.342,-194.191"/>
</g>
<!-- Node12 -->
<g id="node12" class="node"><title>Node12</title>
<g id="a_node12"><a xlink:href="reader_8c.html#a416a4e795e86e5666f1a734793f9636e" target="_top" xlink:title="dup_line">
<polygon fill="white" stroke="black" points="389.5,-152.881 389.5,-171.881 442.5,-171.881 442.5,-152.881 389.5,-152.881"/>
<text text-anchor="middle" x="416" y="-159.881" font-family="Helvetica,sans-Serif" font-size="10.00">dup_line</text>
</a>
</g>
</g>
<!-- Node11&#45;&gt;Node12 -->
<g id="edge13" class="edge"><title>Node11&#45;&gt;Node12</title>
<path fill="none" stroke="midnightblue" d="M320.119,-162.381C338.716,-162.381 360.803,-162.381 378.985,-162.381"/>
<polygon fill="midnightblue" stroke="midnightblue" points="379.183,-165.881 389.183,-162.381 379.183,-158.881 379.183,-165.881"/>
</g>
<!-- Node13 -->
<g id="node13" class="node"><title>Node13</title>
<g id="a_node13"><a xlink:href="error_8c.html#a81c4e76cf37319065a21afcaec1b8ab1" target="_top" xlink:title="unterminated_comment">
<polygon fill="white" stroke="black" points="356.5,-114.881 356.5,-133.881 475.5,-133.881 475.5,-114.881 356.5,-114.881"/>
<text text-anchor="middle" x="416" y="-121.881" font-family="Helvetica,sans-Serif" font-size="10.00">unterminated_comment</text>
</a>
</g>
</g>
<!-- Node11&#45;&gt;Node13 -->
<g id="edge16" class="edge"><title>Node11&#45;&gt;Node13</title>
<path fill="none" stroke="midnightblue" d="M314.814,-152.792C332.033,-147.909 353.164,-141.917 371.573,-136.696"/>
<polygon fill="midnightblue" stroke="midnightblue" points="372.531,-140.063 381.197,-133.967 370.621,-133.328 372.531,-140.063"/>
</g>
<!-- Node12&#45;&gt;Node4 -->
<g id="edge14" class="edge"><title>Node12&#45;&gt;Node4</title>
<path fill="none" stroke="midnightblue" d="M442.52,-169.618C462.275,-175.221 489.962,-183.072 512.42,-189.441"/>
<polygon fill="midnightblue" stroke="midnightblue" points="511.747,-192.888 522.323,-192.249 513.657,-186.154 511.747,-192.888"/>
</g>
<!-- Node13&#45;&gt;Node5 -->
<g id="edge17" class="edge"><title>Node13&#45;&gt;Node5</title>
<path fill="none" stroke="midnightblue" d="M452.37,-133.944C487.843,-142.193 543.952,-151.588 592,-143.381 600.776,-141.883 610.021,-139.106 618.334,-136.13"/>
<polygon fill="midnightblue" stroke="midnightblue" points="619.822,-139.309 627.917,-132.473 617.326,-132.769 619.822,-139.309"/>
</g>
<!-- Node14 -->
<g id="node14" class="node"><title>Node14</title>
<g id="a_node14"><a xlink:href="error_8c.html#a3c01cc3498c6cb3655588b53da0e8f7e" target="_top" xlink:title="print_pos">
<polygon fill="white" stroke="black" points="524,-114.881 524,-133.881 580,-133.881 580,-114.881 524,-114.881"/>
<text text-anchor="middle" x="552" y="-121.881" font-family="Helvetica,sans-Serif" font-size="10.00">print_pos</text>
</a>
</g>
</g>
<!-- Node13&#45;&gt;Node14 -->
<g id="edge18" class="edge"><title>Node13&#45;&gt;Node14</title>
<path fill="none" stroke="midnightblue" d="M475.774,-124.381C488.588,-124.381 501.809,-124.381 513.525,-124.381"/>
<polygon fill="midnightblue" stroke="midnightblue" points="513.806,-127.881 523.806,-124.381 513.806,-120.881 513.806,-127.881"/>
</g>
<!-- Node16&#45;&gt;Node5 -->
<g id="edge21" class="edge"><title>Node16&#45;&gt;Node5</title>
<path fill="none" stroke="midnightblue" d="M451.589,-87.7888C487.172,-89.782 544.019,-94.4887 592,-105.381 600.682,-107.352 609.899,-110.27 618.215,-113.231"/>
<polygon fill="midnightblue" stroke="midnightblue" points="617.222,-116.596 627.814,-116.803 619.663,-110.035 617.222,-116.596"/>
</g>
<!-- Node16&#45;&gt;Node14 -->
<g id="edge22" class="edge"><title>Node16&#45;&gt;Node14</title>
<path fill="none" stroke="midnightblue" d="M450.814,-95.9704C470.093,-101.438 494.276,-108.295 514.053,-113.904"/>
<polygon fill="midnightblue" stroke="midnightblue" points="513.368,-117.348 523.944,-116.709 515.278,-110.613 513.368,-117.348"/>
</g>
<!-- Node17&#45;&gt;Node5 -->
<g id="edge24" class="edge"><title>Node17&#45;&gt;Node5</title>
<path fill="none" stroke="midnightblue" d="M318.432,-47.2035C378.435,-46.61 498.86,-50.7962 592,-88.3814 604.16,-93.2882 616.423,-101.173 626.183,-108.315"/>
<polygon fill="midnightblue" stroke="midnightblue" points="624.294,-111.276 634.368,-114.558 628.54,-105.71 624.294,-111.276"/>
</g>
<!-- Node18&#45;&gt;Node5 -->
<g id="edge26" class="edge"><title>Node18&#45;&gt;Node5</title>
<path fill="none" stroke="midnightblue" d="M203.244,-4.94175C286.122,2.80517 465.399,9.11137 592,-61.3814 610.79,-71.8441 626.03,-91.5304 635.47,-106.123"/>
<polygon fill="midnightblue" stroke="midnightblue" points="632.6,-108.138 640.814,-114.83 638.565,-104.476 632.6,-108.138"/>
</g>
</g>
</svg>
