<?xml version="1.0" encoding="UTF-8" standalone="no"?>
<!DOCTYPE svg PUBLIC "-//W3C//DTD SVG 1.1//EN"
 "http://www.w3.org/Graphics/SVG/1.1/DTD/svg11.dtd">
<!-- Generated by graphviz version 2.36.0 (20140111.2315)
 -->
<!-- Title: declare_tokens Pages: 1 -->
<!--zoomable 502 -->
<svg id="main" version="1.1" xmlns="http://www.w3.org/2000/svg" xmlns:xlink="http://www.w3.org/1999/xlink" xml:space="preserve" onload="init(evt)">
<style type="text/css"><![CDATA[
.edge:hover path { stroke: red; }
.edge:hover polygon { stroke: red; fill: red; }
]]></style>
<script type="text/javascript"><![CDATA[
var edges = document.getElementsByTagName('g');
if (edges && edges.length) {
  for (var i=0;i<edges.length;i++) {
    if (edges[i].id.substr(0,4)=='edge') {
      edges[i].setAttribute('class','edge');
    }
  }
}
]]></script>
        <defs>
                <circle id="rim" cx="0" cy="0" r="7"/>
                <circle id="rim2" cx="0" cy="0" r="3.5"/>
                <g id="zoomPlus">
                        <use xlink:href="#rim" fill="#404040">
                                <set attributeName="fill" to="#808080" begin="zoomplus.mouseover" end="zoomplus.mouseout"/>
                        </use>
                        <path d="M-4,0h8M0,-4v8" fill="none" stroke="white" stroke-width="1.5" pointer-events="none"/>
                </g>
                <g id="zoomMin">
                        <use xlink:href="#rim" fill="#404040">
                                <set attributeName="fill" to="#808080" begin="zoomminus.mouseover" end="zoomminus.mouseout"/>
                        </use>
                        <path d="M-4,0h8" fill="none" stroke="white" stroke-width="1.5" pointer-events="none"/>
                </g>
                <g id="dirArrow">
                        <path fill="none" stroke="white" stroke-width="1.5" d="M0,-3.0v7 M-2.5,-0.5L0,-3.0L2.5,-0.5"/>
                </g>
               <g id="resetDef">
                       <use xlink:href="#rim2" fill="#404040">
                               <set attributeName="fill" to="#808080" begin="reset.mouseover" end="reset.mouseout"/>
                       </use>
               </g>
        </defs>

<script type="text/javascript">
var viewWidth = 780;
var viewHeight = 502;
var sectionId = 'dynsection-19';
</script>
<script xlink:href="svgpan.js"/>
<svg id="graph" class="graph">
<g id="viewport">
<title>declare_tokens</title>
<polygon fill="white" stroke="none" points="-4,4 -4,-498.394 776,-498.394 776,4 -4,4"/>
<!-- Node1 -->
<g id="node1" class="node"><title>Node1</title>
<polygon fill="#bfbfbf" stroke="black" points="0.5,-174.294 0.5,-193.294 83.5,-193.294 83.5,-174.294 0.5,-174.294"/>
<text text-anchor="middle" x="42" y="-181.294" font-family="Helvetica,sans-Serif" font-size="10.00">declare_tokens</text>
</g>
<!-- Node2 -->
<g id="node2" class="node"><title>Node2</title>
<g id="a_node2"><a xlink:href="reader_8c.html#acfb64f081b0d9c4536e90c5352ce9c2c" target="_top" xlink:title="get_literal">
<polygon fill="white" stroke="black" points="386.5,-269.294 386.5,-288.294 445.5,-288.294 445.5,-269.294 386.5,-269.294"/>
<text text-anchor="middle" x="416" y="-276.294" font-family="Helvetica,sans-Serif" font-size="10.00">get_literal</text>
</a>
</g>
</g>
<!-- Node1&#45;&gt;Node2 -->
<g id="edge1" class="edge"><title>Node1&#45;&gt;Node2</title>
<path fill="none" stroke="midnightblue" d="M46.0291,-193.505C53.8542,-216.692 77.1846,-275.046 120,-297.794 205.082,-342.998 324.017,-311.688 381.402,-291.772"/>
<polygon fill="midnightblue" stroke="midnightblue" points="382.811,-294.986 391.052,-288.327 380.457,-288.393 382.811,-294.986"/>
</g>
<!-- Node12 -->
<g id="node12" class="node"><title>Node12</title>
<g id="a_node12"><a xlink:href="reader_8c.html#a47f6ab5db224a190b33568ed55a03eaf" target="_top" xlink:title="get_name">
<polygon fill="white" stroke="black" points="386.5,-421.294 386.5,-440.294 445.5,-440.294 445.5,-421.294 386.5,-421.294"/>
<text text-anchor="middle" x="416" y="-428.294" font-family="Helvetica,sans-Serif" font-size="10.00">get_name</text>
</a>
</g>
</g>
<!-- Node1&#45;&gt;Node12 -->
<g id="edge16" class="edge"><title>Node1&#45;&gt;Node12</title>
<path fill="none" stroke="midnightblue" d="M45.7237,-193.401C53.276,-218.353 76.8261,-285.84 120,-322.794 196.378,-388.169 315.717,-415.393 376.546,-425.512"/>
<polygon fill="midnightblue" stroke="midnightblue" points="376.069,-428.98 386.496,-427.1 377.173,-422.068 376.069,-428.98"/>
</g>
<!-- Node15 -->
<g id="node15" class="node"><title>Node15</title>
<g id="a_node15"><a xlink:href="reader_8c.html#aceeb8c6c5418f8ac9c9b5666f4047ae3" target="_top" xlink:title="get_number">
<polygon fill="white" stroke="black" points="132,-269.294 132,-288.294 200,-288.294 200,-269.294 132,-269.294"/>
<text text-anchor="middle" x="166" y="-276.294" font-family="Helvetica,sans-Serif" font-size="10.00">get_number</text>
</a>
</g>
</g>
<!-- Node1&#45;&gt;Node15 -->
<g id="edge22" class="edge"><title>Node1&#45;&gt;Node15</title>
<path fill="none" stroke="midnightblue" d="M51.8179,-193.36C65.4815,-207.832 93.0158,-235.635 120,-254.794 124.693,-258.126 129.903,-261.313 135.067,-264.214"/>
<polygon fill="midnightblue" stroke="midnightblue" points="133.719,-267.463 144.187,-269.097 137.023,-261.292 133.719,-267.463"/>
</g>
<!-- Node16 -->
<g id="node16" class="node"><title>Node16</title>
<g id="a_node16"><a xlink:href="reader_8c.html#a0d5a7fe7641edf38078ba5e99536772d" target="_top" xlink:title="get_tag">
<polygon fill="white" stroke="black" points="141.5,-193.294 141.5,-212.294 190.5,-212.294 190.5,-193.294 141.5,-193.294"/>
<text text-anchor="middle" x="166" y="-200.294" font-family="Helvetica,sans-Serif" font-size="10.00">get_tag</text>
</a>
</g>
</g>
<!-- Node1&#45;&gt;Node16 -->
<g id="edge23" class="edge"><title>Node1&#45;&gt;Node16</title>
<path fill="none" stroke="midnightblue" d="M83.6242,-190.121C99.0189,-192.519 116.37,-195.221 131.083,-197.512"/>
<polygon fill="midnightblue" stroke="midnightblue" points="130.845,-201.017 141.265,-199.098 131.922,-194.101 130.845,-201.017"/>
</g>
<!-- Node17 -->
<g id="node17" class="node"><title>Node17</title>
<g id="a_node17"><a xlink:href="reader_8c.html#a11446424d65669df0f3a9e3b1cca57fa" target="_top" xlink:title="nextc">
<polygon fill="white" stroke="black" points="273.5,-231.294 273.5,-250.294 314.5,-250.294 314.5,-231.294 273.5,-231.294"/>
<text text-anchor="middle" x="294" y="-238.294" font-family="Helvetica,sans-Serif" font-size="10.00">nextc</text>
</a>
</g>
</g>
<!-- Node1&#45;&gt;Node17 -->
<g id="edge37" class="edge"><title>Node1&#45;&gt;Node17</title>
<path fill="none" stroke="midnightblue" d="M58.2722,-193.336C73.3579,-202.268 97.3894,-215.197 120,-221.794 168.893,-236.061 228.404,-239.777 263.352,-240.652"/>
<polygon fill="midnightblue" stroke="midnightblue" points="263.306,-244.152 273.37,-240.841 263.438,-237.153 263.306,-244.152"/>
</g>
<!-- Node19 -->
<g id="node19" class="node"><title>Node19</title>
<g id="a_node19"><a xlink:href="group__eh.html#ga65962bc9ddf21cd2dc0b5f6b7dcb35fc" target="_top" xlink:title="unexpected_EOF">
<polygon fill="white" stroke="black" points="248,-41.2943 248,-60.2943 340,-60.2943 340,-41.2943 248,-41.2943"/>
<text text-anchor="middle" x="294" y="-48.2943" font-family="Helvetica,sans-Serif" font-size="10.00">unexpected_EOF</text>
</a>
</g>
</g>
<!-- Node1&#45;&gt;Node19 -->
<g id="edge43" class="edge"><title>Node1&#45;&gt;Node19</title>
<path fill="none" stroke="midnightblue" d="M83.6986,-183.712C120.54,-181.684 174.606,-173.623 212,-145.794 238.181,-126.31 225.995,-105.895 248,-81.7943 253.365,-75.9181 260.045,-70.5647 266.603,-66.0223"/>
<polygon fill="midnightblue" stroke="midnightblue" points="268.85,-68.7368 275.334,-60.3579 265.04,-62.8644 268.85,-68.7368"/>
</g>
<!-- Node22 -->
<g id="node22" class="node"><title>Node22</title>
<g id="a_node22"><a xlink:href="group__eh.html#ga611d57303996915e8b1cb835e81d4708" target="_top" xlink:title="reprec_warning">
<polygon fill="white" stroke="black" points="124.5,-117.294 124.5,-136.294 207.5,-136.294 207.5,-117.294 124.5,-117.294"/>
<text text-anchor="middle" x="166" y="-124.294" font-family="Helvetica,sans-Serif" font-size="10.00">reprec_warning</text>
</a>
</g>
</g>
<!-- Node1&#45;&gt;Node22 -->
<g id="edge38" class="edge"><title>Node1&#45;&gt;Node22</title>
<path fill="none" stroke="midnightblue" d="M63.4201,-174.254C83.0375,-165.088 112.903,-151.135 135.18,-140.727"/>
<polygon fill="midnightblue" stroke="midnightblue" points="136.935,-143.77 144.513,-136.366 133.972,-137.428 136.935,-143.77"/>
</g>
<!-- Node23 -->
<g id="node23" class="node"><title>Node23</title>
<g id="a_node23"><a xlink:href="group__eh.html#ga3d339813f1a66f2c299cbb4a23b4729d" target="_top" xlink:title="retyped_warning">
<polygon fill="white" stroke="black" points="122,-79.2943 122,-98.2943 210,-98.2943 210,-79.2943 122,-79.2943"/>
<text text-anchor="middle" x="166" y="-86.2943" font-family="Helvetica,sans-Serif" font-size="10.00">retyped_warning</text>
</a>
</g>
</g>
<!-- Node1&#45;&gt;Node23 -->
<g id="edge39" class="edge"><title>Node1&#45;&gt;Node23</title>
<path fill="none" stroke="midnightblue" d="M50.6079,-174.209C63.4679,-158.531 90.9543,-127.208 120,-107.794 122.595,-106.06 125.375,-104.431 128.232,-102.913"/>
<polygon fill="midnightblue" stroke="midnightblue" points="130.001,-105.946 137.491,-98.4531 126.962,-99.6401 130.001,-105.946"/>
</g>
<!-- Node24 -->
<g id="node24" class="node"><title>Node24</title>
<g id="a_node24"><a xlink:href="group__eh.html#ga770515753ea5a59ff13bcca8dadb9e48" target="_top" xlink:title="revalued_warning">
<polygon fill="white" stroke="black" points="120,-41.2943 120,-60.2943 212,-60.2943 212,-41.2943 120,-41.2943"/>
<text text-anchor="middle" x="166" y="-48.2943" font-family="Helvetica,sans-Serif" font-size="10.00">revalued_warning</text>
</a>
</g>
</g>
<!-- Node1&#45;&gt;Node24 -->
<g id="edge40" class="edge"><title>Node1&#45;&gt;Node24</title>
<path fill="none" stroke="midnightblue" d="M47.145,-174.171C56.8606,-152.647 83.1033,-100.131 120,-69.7943 122.006,-68.1449 124.176,-66.6182 126.442,-65.2085"/>
<polygon fill="midnightblue" stroke="midnightblue" points="128.359,-68.1519 135.515,-60.3388 125.049,-61.9841 128.359,-68.1519"/>
</g>
<!-- Node25 -->
<g id="node25" class="node"><title>Node25</title>
<g id="a_node25"><a xlink:href="group__eh.html#gabcb4446ca644dc3e6dd448223d8cecf3" target="_top" xlink:title="tokenized_start">
<polygon fill="white" stroke="black" points="252.5,-3.2943 252.5,-22.2943 335.5,-22.2943 335.5,-3.2943 252.5,-3.2943"/>
<text text-anchor="middle" x="294" y="-10.2943" font-family="Helvetica,sans-Serif" font-size="10.00">tokenized_start</text>
</a>
</g>
</g>
<!-- Node1&#45;&gt;Node25 -->
<g id="edge41" class="edge"><title>Node1&#45;&gt;Node25</title>
<path fill="none" stroke="midnightblue" d="M44.618,-174.26C49.8316,-146.786 68.9276,-67.1596 120,-31.7943 155.422,-7.26629 205.058,-4.16794 242.083,-6.2363"/>
<polygon fill="midnightblue" stroke="midnightblue" points="241.949,-9.73541 252.169,-6.94317 242.439,-2.75254 241.949,-9.73541"/>
</g>
<!-- Node3 -->
<g id="node3" class="node"><title>Node3</title>
<g id="a_node3"><a xlink:href="reader_8c.html#a416a4e795e86e5666f1a734793f9636e" target="_top" xlink:title="dup_line">
<polygon fill="white" stroke="black" points="499.5,-155.294 499.5,-174.294 552.5,-174.294 552.5,-155.294 499.5,-155.294"/>
<text text-anchor="middle" x="526" y="-162.294" font-family="Helvetica,sans-Serif" font-size="10.00">dup_line</text>
</a>
</g>
</g>
<!-- Node2&#45;&gt;Node3 -->
<g id="edge2" class="edge"><title>Node2&#45;&gt;Node3</title>
<path fill="none" stroke="midnightblue" d="M422.815,-269.183C434.266,-250.838 461.309,-210.305 492,-183.794 493.501,-182.498 495.103,-181.244 496.762,-180.041"/>
<polygon fill="midnightblue" stroke="midnightblue" points="498.844,-182.863 505.329,-174.485 495.035,-176.991 498.844,-182.863"/>
</g>
<!-- Node4 -->
<g id="node4" class="node"><title>Node4</title>
<g id="a_node4"><a xlink:href="group__eh.html#ga03b3d711852aa32c4076f12ea7bb93a4" target="_top" xlink:title="no_space">
<polygon fill="white" stroke="black" points="617.5,-193.294 617.5,-212.294 676.5,-212.294 676.5,-193.294 617.5,-193.294"/>
<text text-anchor="middle" x="647" y="-200.294" font-family="Helvetica,sans-Serif" font-size="10.00">no_space</text>
</a>
</g>
</g>
<!-- Node2&#45;&gt;Node4 -->
<g id="edge14" class="edge"><title>Node2&#45;&gt;Node4</title>
<path fill="none" stroke="midnightblue" d="M445.54,-269.323C486.534,-255.717 562.173,-230.615 607.903,-215.438"/>
<polygon fill="midnightblue" stroke="midnightblue" points="609.072,-218.738 617.461,-212.266 606.867,-212.094 609.072,-218.738"/>
</g>
<!-- Node6 -->
<g id="node6" class="node"><title>Node6</title>
<g id="a_node6"><a xlink:href="group__eh.html#ga1be74faa1a912de2fd380aa9a4de6eb2" target="_top" xlink:title="unterminated_string">
<polygon fill="white" stroke="red" points="596,-326.294 596,-345.294 698,-345.294 698,-326.294 596,-326.294"/>
<text text-anchor="middle" x="647" y="-333.294" font-family="Helvetica,sans-Serif" font-size="10.00">unterminated_string</text>
</a>
</g>
</g>
<!-- Node2&#45;&gt;Node6 -->
<g id="edge5" class="edge"><title>Node2&#45;&gt;Node6</title>
<path fill="none" stroke="midnightblue" d="M434.348,-288.333C449.218,-296.095 471.432,-306.725 492,-312.794 522.135,-321.686 556.65,-327.245 585.356,-330.665"/>
<polygon fill="midnightblue" stroke="midnightblue" points="585.32,-334.183 595.65,-331.83 586.108,-327.227 585.32,-334.183"/>
</g>
<!-- Node7 -->
<g id="node7" class="node"><title>Node7</title>
<g id="a_node7"><a xlink:href="reader_8c.html#a204317aa3b6d154f1abff12df35953df" target="_top" xlink:title="get_line">
<polygon fill="white" stroke="black" points="501,-193.294 501,-212.294 551,-212.294 551,-193.294 501,-193.294"/>
<text text-anchor="middle" x="526" y="-200.294" font-family="Helvetica,sans-Serif" font-size="10.00">get_line</text>
</a>
</g>
</g>
<!-- Node2&#45;&gt;Node7 -->
<g id="edge7" class="edge"><title>Node2&#45;&gt;Node7</title>
<path fill="none" stroke="midnightblue" d="M433.574,-269.143C440.603,-264.91 448.814,-259.778 456,-254.794 472.656,-243.243 475.801,-238.979 492,-226.794 495.567,-224.111 499.376,-221.296 503.093,-218.575"/>
<polygon fill="midnightblue" stroke="midnightblue" points="505.411,-221.217 511.441,-212.505 501.295,-215.555 505.411,-221.217"/>
</g>
<!-- Node8 -->
<g id="node8" class="node"><title>Node8</title>
<g id="a_node8"><a xlink:href="group__eh.html#gaad64de11ac1b5b04da452109e0c6e55a" target="_top" xlink:title="illegal_character">
<polygon fill="white" stroke="red" points="603.5,-269.294 603.5,-288.294 690.5,-288.294 690.5,-269.294 603.5,-269.294"/>
<text text-anchor="middle" x="647" y="-276.294" font-family="Helvetica,sans-Serif" font-size="10.00">illegal_character</text>
</a>
</g>
</g>
<!-- Node2&#45;&gt;Node8 -->
<g id="edge9" class="edge"><title>Node2&#45;&gt;Node8</title>
<path fill="none" stroke="midnightblue" d="M445.529,-287.796C459.399,-291.714 476.405,-295.85 492,-297.794 521.99,-301.534 529.956,-301.074 560,-297.794 573.566,-296.314 588.126,-293.556 601.338,-290.592"/>
<polygon fill="midnightblue" stroke="midnightblue" points="602.197,-293.985 611.139,-288.302 600.605,-287.169 602.197,-293.985"/>
</g>
<!-- Node9 -->
<g id="node9" class="node"><title>Node9</title>
<g id="a_node9"><a xlink:href="reader_8c.html#a9ce1e6abd7c2eac7e850297b7e1bbc6e" target="_top" xlink:title="hexval">
<polygon fill="white" stroke="black" points="503.5,-269.294 503.5,-288.294 548.5,-288.294 548.5,-269.294 503.5,-269.294"/>
<text text-anchor="middle" x="526" y="-276.294" font-family="Helvetica,sans-Serif" font-size="10.00">hexval</text>
</a>
</g>
</g>
<!-- Node2&#45;&gt;Node9 -->
<g id="edge11" class="edge"><title>Node2&#45;&gt;Node9</title>
<path fill="none" stroke="midnightblue" d="M445.658,-278.794C460.241,-278.794 478.013,-278.794 493.038,-278.794"/>
<polygon fill="midnightblue" stroke="midnightblue" points="493.407,-282.294 503.407,-278.794 493.407,-275.294 493.407,-282.294"/>
</g>
<!-- Node10 -->
<g id="node10" class="node"><title>Node10</title>
<g id="a_node10"><a xlink:href="reader_8c.html#a04707e6fc9527eaf37d68dafdc9483a9" target="_top" xlink:title="cachec">
<polygon fill="white" stroke="black" points="502,-421.294 502,-440.294 550,-440.294 550,-421.294 502,-421.294"/>
<text text-anchor="middle" x="526" y="-428.294" font-family="Helvetica,sans-Serif" font-size="10.00">cachec</text>
</a>
</g>
</g>
<!-- Node2&#45;&gt;Node10 -->
<g id="edge12" class="edge"><title>Node2&#45;&gt;Node10</title>
<path fill="none" stroke="midnightblue" d="M438.518,-288.421C444.875,-292.139 451.365,-296.932 456,-302.794 487.644,-342.813 459.774,-372.243 492,-411.794 492.94,-412.947 493.969,-414.045 495.065,-415.087"/>
<polygon fill="midnightblue" stroke="midnightblue" points="492.954,-417.879 503.022,-421.177 497.208,-412.32 492.954,-417.879"/>
</g>
<!-- Node11 -->
<g id="node11" class="node"><title>Node11</title>
<g id="a_node11"><a xlink:href="defs_8h.html#aeb8facfda1fb8dcf16a3120589eb90e0" target="_top" xlink:title="lookup">
<polygon fill="white" stroke="black" points="503.5,-383.294 503.5,-402.294 548.5,-402.294 548.5,-383.294 503.5,-383.294"/>
<text text-anchor="middle" x="526" y="-390.294" font-family="Helvetica,sans-Serif" font-size="10.00">lookup</text>
</a>
</g>
</g>
<!-- Node2&#45;&gt;Node11 -->
<g id="edge15" class="edge"><title>Node2&#45;&gt;Node11</title>
<path fill="none" stroke="midnightblue" d="M437.101,-288.478C443.664,-292.301 450.637,-297.143 456,-302.794 479.001,-327.031 469.951,-343.689 492,-368.794 494.533,-371.679 497.472,-374.417 500.532,-376.942"/>
<polygon fill="midnightblue" stroke="midnightblue" points="498.618,-379.882 508.718,-383.082 502.819,-374.282 498.618,-379.882"/>
</g>
<!-- Node3&#45;&gt;Node4 -->
<g id="edge3" class="edge"><title>Node3&#45;&gt;Node4</title>
<path fill="none" stroke="midnightblue" d="M552.528,-172.946C568.548,-178.062 589.507,-184.755 607.518,-190.506"/>
<polygon fill="midnightblue" stroke="midnightblue" points="606.58,-193.88 617.171,-193.588 608.709,-187.212 606.58,-193.88"/>
</g>
<!-- Node5 -->
<g id="node5" class="node"><title>Node5</title>
<g id="a_node5"><a xlink:href="group__eh.html#ga67b6b9fd02aac96bef4297b1e6a1789a" target="_top" xlink:title="Shutdown function. ">
<polygon fill="white" stroke="black" points="734,-193.294 734,-212.294 772,-212.294 772,-193.294 734,-193.294"/>
<text text-anchor="middle" x="753" y="-200.294" font-family="Helvetica,sans-Serif" font-size="10.00">done</text>
</a>
</g>
</g>
<!-- Node4&#45;&gt;Node5 -->
<g id="edge4" class="edge"><title>Node4&#45;&gt;Node5</title>
<path fill="none" stroke="midnightblue" d="M676.694,-202.794C691.259,-202.794 708.9,-202.794 723.445,-202.794"/>
<polygon fill="midnightblue" stroke="midnightblue" points="723.862,-206.294 733.862,-202.794 723.862,-199.294 723.862,-206.294"/>
</g>
<!-- Node6&#45;&gt;Node5 -->
<g id="edge6" class="edge"><title>Node6&#45;&gt;Node5</title>
<path fill="none" stroke="midnightblue" d="M663.761,-326.233C674.336,-319.275 688.091,-309.117 698,-297.794 718.427,-274.452 734.789,-242.175 743.945,-221.898"/>
<polygon fill="midnightblue" stroke="midnightblue" points="747.256,-223.063 748.06,-212.499 740.843,-220.255 747.256,-223.063"/>
</g>
<!-- Node7&#45;&gt;Node4 -->
<g id="edge8" class="edge"><title>Node7&#45;&gt;Node4</title>
<path fill="none" stroke="midnightblue" d="M551.081,-202.794C567.166,-202.794 588.68,-202.794 607.159,-202.794"/>
<polygon fill="midnightblue" stroke="midnightblue" points="607.34,-206.294 617.34,-202.794 607.34,-199.294 607.34,-206.294"/>
</g>
<!-- Node8&#45;&gt;Node5 -->
<g id="edge10" class="edge"><title>Node8&#45;&gt;Node5</title>
<path fill="none" stroke="midnightblue" d="M661.172,-269.169C678.676,-256.377 709.818,-233.62 730.689,-218.368"/>
<polygon fill="midnightblue" stroke="midnightblue" points="732.926,-221.068 738.935,-212.342 728.796,-215.416 732.926,-221.068"/>
</g>
<!-- Node10&#45;&gt;Node4 -->
<g id="edge13" class="edge"><title>Node10&#45;&gt;Node4</title>
<path fill="none" stroke="midnightblue" d="M549.568,-421.155C553.514,-418.607 557.235,-415.505 560,-411.794 601.486,-356.129 564.168,-321.491 596,-259.794 603.868,-244.544 616.688,-230.045 627.377,-219.487"/>
<polygon fill="midnightblue" stroke="midnightblue" points="629.847,-221.968 634.682,-212.54 625.023,-216.895 629.847,-221.968"/>
</g>
<!-- Node12&#45;&gt;Node10 -->
<g id="edge17" class="edge"><title>Node12&#45;&gt;Node10</title>
<path fill="none" stroke="midnightblue" d="M445.658,-430.794C459.739,-430.794 476.791,-430.794 491.474,-430.794"/>
<polygon fill="midnightblue" stroke="midnightblue" points="491.67,-434.294 501.67,-430.794 491.669,-427.294 491.67,-434.294"/>
</g>
<!-- Node12&#45;&gt;Node11 -->
<g id="edge21" class="edge"><title>Node12&#45;&gt;Node11</title>
<path fill="none" stroke="midnightblue" d="M444.253,-421.205C459.221,-415.939 477.857,-409.382 493.453,-403.894"/>
<polygon fill="midnightblue" stroke="midnightblue" points="494.922,-407.088 503.193,-400.467 492.599,-400.485 494.922,-407.088"/>
</g>
<!-- Node13 -->
<g id="node13" class="node"><title>Node13</title>
<g id="a_node13"><a xlink:href="reader_8c.html#a205d802dd9de1b8e85d44a321f33365c" target="_top" xlink:title="is_reserved">
<polygon fill="white" stroke="black" points="492.5,-459.294 492.5,-478.294 559.5,-478.294 559.5,-459.294 492.5,-459.294"/>
<text text-anchor="middle" x="526" y="-466.294" font-family="Helvetica,sans-Serif" font-size="10.00">is_reserved</text>
</a>
</g>
</g>
<!-- Node12&#45;&gt;Node13 -->
<g id="edge18" class="edge"><title>Node12&#45;&gt;Node13</title>
<path fill="none" stroke="midnightblue" d="M444.253,-440.383C457.555,-445.064 473.754,-450.763 488.142,-455.826"/>
<polygon fill="midnightblue" stroke="midnightblue" points="487.161,-459.191 497.756,-459.208 489.484,-452.588 487.161,-459.191"/>
</g>
<!-- Node14 -->
<g id="node14" class="node"><title>Node14</title>
<g id="a_node14"><a xlink:href="group__eh.html#ga28ccf9e0cd69034b61cd32e13e9a9e00" target="_top" xlink:title="used_reserved">
<polygon fill="white" stroke="black" points="607,-430.294 607,-449.294 687,-449.294 687,-430.294 607,-430.294"/>
<text text-anchor="middle" x="647" y="-437.294" font-family="Helvetica,sans-Serif" font-size="10.00">used_reserved</text>
</a>
</g>
</g>
<!-- Node12&#45;&gt;Node14 -->
<g id="edge19" class="edge"><title>Node12&#45;&gt;Node14</title>
<path fill="none" stroke="midnightblue" d="M425.529,-440.398C438.357,-454.034 464.102,-478.396 492,-487.794 520.641,-497.443 530.752,-495.404 560,-487.794 584.155,-481.51 608.724,-466.786 625.382,-455.291"/>
<polygon fill="midnightblue" stroke="midnightblue" points="627.659,-457.966 633.769,-449.311 623.595,-452.266 627.659,-457.966"/>
</g>
<!-- Node14&#45;&gt;Node5 -->
<g id="edge20" class="edge"><title>Node14&#45;&gt;Node5</title>
<path fill="none" stroke="midnightblue" d="M654.48,-430.18C664.678,-414.764 684.681,-383.342 698,-354.794 719.418,-308.887 737.53,-251.964 746.314,-222.514"/>
<polygon fill="midnightblue" stroke="midnightblue" points="749.75,-223.234 749.211,-212.653 743.034,-221.261 749.75,-223.234"/>
</g>
<!-- Node16&#45;&gt;Node3 -->
<g id="edge24" class="edge"><title>Node16&#45;&gt;Node3</title>
<path fill="none" stroke="midnightblue" d="M190.767,-200.272C252.092,-193.762 415.957,-176.369 488.999,-168.616"/>
<polygon fill="midnightblue" stroke="midnightblue" points="489.519,-172.08 499.094,-167.544 488.78,-165.119 489.519,-172.08"/>
</g>
<!-- Node16&#45;&gt;Node4 -->
<g id="edge35" class="edge"><title>Node16&#45;&gt;Node4</title>
<path fill="none" stroke="midnightblue" d="M184.49,-193.143C192.989,-188.243 203.235,-182.02 212,-175.794 228.98,-163.734 228.417,-152.884 248,-145.794 378.384,-98.5887 427.229,-105.789 560,-145.794 573.881,-149.977 604.593,-171.66 625.301,-187.04"/>
<polygon fill="midnightblue" stroke="midnightblue" points="623.384,-189.978 633.485,-193.176 627.583,-184.377 623.384,-189.978"/>
</g>
<!-- Node16&#45;&gt;Node10 -->
<g id="edge34" class="edge"><title>Node16&#45;&gt;Node10</title>
<path fill="none" stroke="midnightblue" d="M180.032,-212.304C195.908,-223.81 223.631,-243.648 248,-259.794 354.508,-330.364 382.399,-346.131 492,-411.794 494.364,-413.211 496.833,-414.67 499.311,-416.12"/>
<polygon fill="midnightblue" stroke="midnightblue" points="497.739,-419.254 508.146,-421.241 501.25,-413.198 497.739,-419.254"/>
</g>
<!-- Node16&#45;&gt;Node17 -->
<g id="edge25" class="edge"><title>Node16&#45;&gt;Node17</title>
<path fill="none" stroke="midnightblue" d="M190.7,-209.942C211.347,-216.169 241.372,-225.224 263.557,-231.915"/>
<polygon fill="midnightblue" stroke="midnightblue" points="262.552,-235.267 273.137,-234.804 264.574,-228.565 262.552,-235.267"/>
</g>
<!-- Node16&#45;&gt;Node19 -->
<g id="edge30" class="edge"><title>Node16&#45;&gt;Node19</title>
<path fill="none" stroke="midnightblue" d="M190.824,-194.192C198.448,-190.455 206.363,-185.391 212,-178.794 243.773,-141.606 216.227,-111.982 248,-74.7943 250.993,-71.2917 254.628,-68.2215 258.52,-65.5525"/>
<polygon fill="midnightblue" stroke="midnightblue" points="260.492,-68.4527 267.304,-60.3387 256.919,-62.4332 260.492,-68.4527"/>
</g>
<!-- Node20 -->
<g id="node20" class="node"><title>Node20</title>
<g id="a_node20"><a xlink:href="group__eh.html#ga3abdd7162e1bf8338bfc5c31c590ffe1" target="_top" xlink:title="illegal_tag">
<polygon fill="white" stroke="red" points="386,-79.2943 386,-98.2943 446,-98.2943 446,-79.2943 386,-79.2943"/>
<text text-anchor="middle" x="416" y="-86.2943" font-family="Helvetica,sans-Serif" font-size="10.00">illegal_tag</text>
</a>
</g>
</g>
<!-- Node16&#45;&gt;Node20 -->
<g id="edge32" class="edge"><title>Node16&#45;&gt;Node20</title>
<path fill="none" stroke="midnightblue" d="M190.685,-193.398C198.124,-189.647 205.961,-184.776 212,-178.794 235.737,-155.279 220.557,-131.856 248,-112.794 285.551,-86.7115 339.396,-83.5132 375.705,-84.9894"/>
<polygon fill="midnightblue" stroke="midnightblue" points="375.736,-88.4963 385.912,-85.5458 376.117,-81.5066 375.736,-88.4963"/>
</g>
<!-- Node21 -->
<g id="node21" class="node"><title>Node21</title>
<g id="a_node21"><a xlink:href="defs_8h.html#add539a5755e4c4070b0c8ca97477fe47" target="_top" xlink:title="strcpy">
<polygon fill="white" stroke="black" points="272,-155.294 272,-174.294 316,-174.294 316,-155.294 272,-155.294"/>
<text text-anchor="middle" x="294" y="-162.294" font-family="Helvetica,sans-Serif" font-size="10.00">strcpy</text>
</a>
</g>
</g>
<!-- Node16&#45;&gt;Node21 -->
<g id="edge36" class="edge"><title>Node16&#45;&gt;Node21</title>
<path fill="none" stroke="midnightblue" d="M190.7,-195.647C210.885,-189.559 240.033,-180.769 262.056,-174.127"/>
<polygon fill="midnightblue" stroke="midnightblue" points="263.356,-177.39 271.919,-171.152 261.335,-170.689 263.356,-177.39"/>
</g>
<!-- Node17&#45;&gt;Node7 -->
<g id="edge26" class="edge"><title>Node17&#45;&gt;Node7</title>
<path fill="none" stroke="midnightblue" d="M314.727,-239.432C345.231,-237.11 405.589,-231.651 456,-221.794 467.577,-219.531 480.057,-216.333 491.178,-213.205"/>
<polygon fill="midnightblue" stroke="midnightblue" points="492.31,-216.521 500.944,-210.381 490.365,-209.797 492.31,-216.521"/>
</g>
<!-- Node18 -->
<g id="node18" class="node"><title>Node18</title>
<g id="a_node18"><a xlink:href="reader_8c.html#ac812a775973bb1eb24e86256b2de6b8b" target="_top" xlink:title="skip_comment">
<polygon fill="white" stroke="red" points="376,-193.294 376,-212.294 456,-212.294 456,-193.294 376,-193.294"/>
<text text-anchor="middle" x="416" y="-200.294" font-family="Helvetica,sans-Serif" font-size="10.00">skip_comment</text>
</a>
</g>
</g>
<!-- Node17&#45;&gt;Node18 -->
<g id="edge27" class="edge"><title>Node17&#45;&gt;Node18</title>
<path fill="none" stroke="midnightblue" d="M314.547,-234.604C330.87,-229.435 354.67,-221.899 375.007,-215.459"/>
<polygon fill="midnightblue" stroke="midnightblue" points="376.188,-218.756 384.664,-212.401 374.074,-212.083 376.188,-218.756"/>
</g>
<!-- Node18&#45;&gt;Node3 -->
<g id="edge28" class="edge"><title>Node18&#45;&gt;Node3</title>
<path fill="none" stroke="midnightblue" d="M444.253,-193.205C457.961,-188.382 474.746,-182.476 489.455,-177.301"/>
<polygon fill="midnightblue" stroke="midnightblue" points="490.971,-180.478 499.243,-173.857 488.648,-173.875 490.971,-180.478"/>
</g>
<!-- Node18&#45;&gt;Node7 -->
<g id="edge29" class="edge"><title>Node18&#45;&gt;Node7</title>
<path fill="none" stroke="midnightblue" d="M456.296,-202.794C467.631,-202.794 479.902,-202.794 490.894,-202.794"/>
<polygon fill="midnightblue" stroke="midnightblue" points="490.968,-206.294 500.968,-202.794 490.968,-199.294 490.968,-206.294"/>
</g>
<!-- Node19&#45;&gt;Node5 -->
<g id="edge31" class="edge"><title>Node19&#45;&gt;Node5</title>
<path fill="none" stroke="midnightblue" d="M340.232,-47.3374C419.783,-43.5647 586.825,-46.1871 698,-121.794 720.522,-137.111 736.088,-165.243 744.53,-183.986"/>
<polygon fill="midnightblue" stroke="midnightblue" points="741.353,-185.458 748.487,-193.291 747.795,-182.719 741.353,-185.458"/>
</g>
<!-- Node20&#45;&gt;Node5 -->
<g id="edge33" class="edge"><title>Node20&#45;&gt;Node5</title>
<path fill="none" stroke="midnightblue" d="M446.024,-91.329C475.302,-94.4255 521.549,-100.803 560,-112.794 622.587,-132.313 691.011,-168.229 726.863,-188.283"/>
<polygon fill="midnightblue" stroke="midnightblue" points="725.239,-191.385 735.667,-193.256 728.682,-185.29 725.239,-191.385"/>
</g>
<!-- Node25&#45;&gt;Node5 -->
<g id="edge42" class="edge"><title>Node25&#45;&gt;Node5</title>
<path fill="none" stroke="midnightblue" d="M335.528,-6.53007C414.44,3.29562 590.386,13.2791 698,-71.7943 732.924,-99.4035 745.457,-153.446 749.803,-182.75"/>
<polygon fill="midnightblue" stroke="midnightblue" points="746.375,-183.527 751.135,-192.992 753.316,-182.624 746.375,-183.527"/>
</g>
</g>
</svg>
        <g id="navigator" transform="translate(0 0)" fill="#404254">
                <rect fill="#f2f5e9" fill-opacity="0.5" stroke="#606060" stroke-width=".5" x="0" y="0" width="60" height="60"/>
                <use id="zoomplus" xlink:href="#zoomPlus" x="17" y="9" onmousedown="handleZoom(evt,'in')"/>
                <use id="zoomminus" xlink:href="#zoomMin" x="42" y="9" onmousedown="handleZoom(evt,'out')"/>
                <use id="reset" xlink:href="#resetDef" x="30" y="36" onmousedown="handleReset()"/>
                <g id="arrowUp" xlink:href="#dirArrow" transform="translate(30 24)" onmousedown="handlePan(0,-1)">
                  <use xlink:href="#rim" fill="#404040">
                        <set attributeName="fill" to="#808080" begin="arrowUp.mouseover" end="arrowUp.mouseout"/>
                  </use>
                  <path fill="none" stroke="white" stroke-width="1.5" d="M0,-3.0v7 M-2.5,-0.5L0,-3.0L2.5,-0.5"/>
                </g>
                <g id="arrowRight" xlink:href="#dirArrow" transform="rotate(90) translate(36 -43)" onmousedown="handlePan(1,0)">
                  <use xlink:href="#rim" fill="#404040">
                        <set attributeName="fill" to="#808080" begin="arrowRight.mouseover" end="arrowRight.mouseout"/>
                  </use>
                  <path fill="none" stroke="white" stroke-width="1.5" d="M0,-3.0v7 M-2.5,-0.5L0,-3.0L2.5,-0.5"/>
                </g>
                <g id="arrowDown" xlink:href="#dirArrow" transform="rotate(180) translate(-30 -48)" onmousedown="handlePan(0,1)">
                  <use xlink:href="#rim" fill="#404040">
                        <set attributeName="fill" to="#808080" begin="arrowDown.mouseover" end="arrowDown.mouseout"/>
                  </use>
                  <path fill="none" stroke="white" stroke-width="1.5" d="M0,-3.0v7 M-2.5,-0.5L0,-3.0L2.5,-0.5"/>
                </g>
                <g id="arrowLeft" xlink:href="#dirArrow" transform="rotate(270) translate(-36 17)" onmousedown="handlePan(-1,0)">
                  <use xlink:href="#rim" fill="#404040">
                        <set attributeName="fill" to="#808080" begin="arrowLeft.mouseover" end="arrowLeft.mouseout"/>
                  </use>
                  <path fill="none" stroke="white" stroke-width="1.5" d="M0,-3.0v7 M-2.5,-0.5L0,-3.0L2.5,-0.5"/>
                </g>
        </g>
        <svg viewBox="0 0 15 15" width="100%" height="30px" preserveAspectRatio="xMaxYMin meet">
         <g id="arrow_out" transform="scale(0.3 0.3)">
          <a xlink:href="reader_8c_a0b749a023a959fabb8ed2778b46ec217_cgraph_org.svg" target="_base">
           <rect id="button" ry="5" rx="5" y="6" x="6" height="38" width="38"
                fill="#f2f5e9" fill-opacity="0.5" stroke="#606060" stroke-width="1.0"/>
           <path id="arrow"
             d="M 11.500037,31.436501 C 11.940474,20.09759 22.043105,11.32322 32.158766,21.979434 L 37.068811,17.246167 C 37.068811,17.246167 37.088388,32 37.088388,32 L 22.160133,31.978069 C 22.160133,31.978069 26.997745,27.140456 26.997745,27.140456 C 18.528582,18.264221 13.291696,25.230495 11.500037,31.436501 z"
             style="fill:#404040;"/>
          </a>
         </g>
        </svg>
</svg>
