<?xml version="1.0" encoding="UTF-8" standalone="no"?>
<!DOCTYPE svg PUBLIC "-//W3C//DTD SVG 1.1//EN"
 "http://www.w3.org/Graphics/SVG/1.1/DTD/svg11.dtd">
<!-- Generated by graphviz version 2.36.0 (20140111.2315)
 -->
<!-- Title: get_tag Pages: 1 -->
<svg width="592pt" height="276pt"
 viewBox="0.00 0.00 592.00 276.00" xmlns="http://www.w3.org/2000/svg" xmlns:xlink="http://www.w3.org/1999/xlink">
<g id="graph0" class="graph" transform="scale(1 1) rotate(0) translate(4 272.003)">
<title>get_tag</title>
<polygon fill="white" stroke="none" points="-4,4 -4,-272.003 588,-272.003 588,4 -4,4"/>
<!-- Node1 -->
<g id="node1" class="node"><title>Node1</title>
<polygon fill="#bfbfbf" stroke="black" points="0.5,-133.5 0.5,-152.5 49.5,-152.5 49.5,-133.5 0.5,-133.5"/>
<text text-anchor="middle" x="25" y="-140.5" font-family="Helvetica,sans-Serif" font-size="10.00">get_tag</text>
</g>
<!-- Node2 -->
<g id="node2" class="node"><title>Node2</title>
<g id="a_node2"><a xlink:href="reader_8c.html#a04707e6fc9527eaf37d68dafdc9483a9" target="_top" xlink:title="cachec">
<polygon fill="white" stroke="black" points="188,-228.5 188,-247.5 236,-247.5 236,-228.5 188,-228.5"/>
<text text-anchor="middle" x="212" y="-235.5" font-family="Helvetica,sans-Serif" font-size="10.00">cachec</text>
</a>
</g>
</g>
<!-- Node1&#45;&gt;Node2 -->
<g id="edge1" class="edge"><title>Node1&#45;&gt;Node2</title>
<path fill="none" stroke="midnightblue" d="M31.1937,-152.622C40.1581,-168.229 60.0922,-198.84 86,-214 113.994,-230.381 150.979,-235.867 177.442,-237.567"/>
<polygon fill="midnightblue" stroke="midnightblue" points="177.57,-241.078 187.73,-238.073 177.913,-234.086 177.57,-241.078"/>
</g>
<!-- Node3 -->
<g id="node3" class="node"><title>Node3</title>
<g id="a_node3"><a xlink:href="error_8c.html#a03b3d711852aa32c4076f12ea7bb93a4" target="_top" xlink:title="no_space">
<polygon fill="white" stroke="black" points="450.5,-190.5 450.5,-209.5 509.5,-209.5 509.5,-190.5 450.5,-190.5"/>
<text text-anchor="middle" x="480" y="-197.5" font-family="Helvetica,sans-Serif" font-size="10.00">no_space</text>
</a>
</g>
</g>
<!-- Node1&#45;&gt;Node3 -->
<g id="edge18" class="edge"><title>Node1&#45;&gt;Node3</title>
<path fill="none" stroke="midnightblue" d="M29.4294,-152.579C36.7303,-171.56 55.6645,-214.009 86,-236 115.762,-257.576 129.542,-252.295 166,-257 275.572,-271.142 309.484,-275.811 414,-240 430.139,-234.47 446.485,-224.385 458.748,-215.725"/>
<polygon fill="midnightblue" stroke="midnightblue" points="460.896,-218.49 466.895,-209.757 456.759,-212.844 460.896,-218.49"/>
</g>
<!-- Node5 -->
<g id="node5" class="node"><title>Node5</title>
<g id="a_node5"><a xlink:href="reader_8c.html#a416a4e795e86e5666f1a734793f9636e" target="_top" xlink:title="dup_line">
<polygon fill="white" stroke="black" points="327.5,-190.5 327.5,-209.5 380.5,-209.5 380.5,-190.5 327.5,-190.5"/>
<text text-anchor="middle" x="354" y="-197.5" font-family="Helvetica,sans-Serif" font-size="10.00">dup_line</text>
</a>
</g>
</g>
<!-- Node1&#45;&gt;Node5 -->
<g id="edge4" class="edge"><title>Node1&#45;&gt;Node5</title>
<path fill="none" stroke="midnightblue" d="M49.5331,-150.893C60.5517,-154.475 73.8896,-158.649 86,-162 121.221,-171.745 129.965,-174.918 166,-181 218.353,-189.837 279.695,-195.116 317.453,-197.79"/>
<polygon fill="midnightblue" stroke="midnightblue" points="317.234,-201.283 327.45,-198.476 317.713,-194.299 317.234,-201.283"/>
</g>
<!-- Node6 -->
<g id="node6" class="node"><title>Node6</title>
<g id="a_node6"><a xlink:href="error_8c.html#a3abdd7162e1bf8338bfc5c31c590ffe1" target="_top" xlink:title="illegal_tag">
<polygon fill="white" stroke="black" points="324,-76.5 324,-95.5 384,-95.5 384,-76.5 324,-76.5"/>
<text text-anchor="middle" x="354" y="-83.5" font-family="Helvetica,sans-Serif" font-size="10.00">illegal_tag</text>
</a>
</g>
</g>
<!-- Node1&#45;&gt;Node6 -->
<g id="edge6" class="edge"><title>Node1&#45;&gt;Node6</title>
<path fill="none" stroke="midnightblue" d="M49.6921,-134.502C60.6285,-130.838 73.8551,-126.767 86,-124 165.866,-105.803 261.267,-94.7303 313.671,-89.5432"/>
<polygon fill="midnightblue" stroke="midnightblue" points="314.255,-93.003 323.871,-88.5545 313.58,-86.0357 314.255,-93.003"/>
</g>
<!-- Node8 -->
<g id="node8" class="node"><title>Node8</title>
<g id="a_node8"><a xlink:href="reader_8c.html#a11446424d65669df0f3a9e3b1cca57fa" target="_top" xlink:title="nextc">
<polygon fill="white" stroke="black" points="87.5,-133.5 87.5,-152.5 128.5,-152.5 128.5,-133.5 87.5,-133.5"/>
<text text-anchor="middle" x="108" y="-140.5" font-family="Helvetica,sans-Serif" font-size="10.00">nextc</text>
</a>
</g>
</g>
<!-- Node1&#45;&gt;Node8 -->
<g id="edge9" class="edge"><title>Node1&#45;&gt;Node8</title>
<path fill="none" stroke="midnightblue" d="M49.8646,-143C58.4511,-143 68.2451,-143 77.2698,-143"/>
<polygon fill="midnightblue" stroke="midnightblue" points="77.3922,-146.5 87.3922,-143 77.3921,-139.5 77.3922,-146.5"/>
</g>
<!-- Node12 -->
<g id="node12" class="node"><title>Node12</title>
<g id="a_node12"><a xlink:href="defs_8h.html#add539a5755e4c4070b0c8ca97477fe47" target="_top" xlink:title="strcpy">
<polygon fill="white" stroke="black" points="86,-0.5 86,-19.5 130,-19.5 130,-0.5 86,-0.5"/>
<text text-anchor="middle" x="108" y="-7.5" font-family="Helvetica,sans-Serif" font-size="10.00">strcpy</text>
</a>
</g>
</g>
<!-- Node1&#45;&gt;Node12 -->
<g id="edge19" class="edge"><title>Node1&#45;&gt;Node12</title>
<path fill="none" stroke="midnightblue" d="M30.4803,-133.26C39.6707,-113.685 61.8346,-68.501 86,-34 87.5008,-31.8573 89.163,-29.688 90.8758,-27.5748"/>
<polygon fill="midnightblue" stroke="midnightblue" points="93.6288,-29.7417 97.4987,-19.8789 88.3229,-25.1756 93.6288,-29.7417"/>
</g>
<!-- Node13 -->
<g id="node13" class="node"><title>Node13</title>
<g id="a_node13"><a xlink:href="error_8c.html#a65962bc9ddf21cd2dc0b5f6b7dcb35fc" target="_top" xlink:title="unexpected_EOF">
<polygon fill="white" stroke="black" points="166,-38.5 166,-57.5 258,-57.5 258,-38.5 166,-38.5"/>
<text text-anchor="middle" x="212" y="-45.5" font-family="Helvetica,sans-Serif" font-size="10.00">unexpected_EOF</text>
</a>
</g>
</g>
<!-- Node1&#45;&gt;Node13 -->
<g id="edge20" class="edge"><title>Node1&#45;&gt;Node13</title>
<path fill="none" stroke="midnightblue" d="M31.1937,-133.378C40.1581,-117.771 60.0922,-87.16 86,-72 106.922,-59.7572 132.867,-53.5999 155.687,-50.5606"/>
<polygon fill="midnightblue" stroke="midnightblue" points="156.393,-54.0023 165.923,-49.373 155.586,-47.0489 156.393,-54.0023"/>
</g>
<!-- Node2&#45;&gt;Node3 -->
<g id="edge2" class="edge"><title>Node2&#45;&gt;Node3</title>
<path fill="none" stroke="midnightblue" d="M236.11,-237.242C273.705,-235.691 350.314,-231.203 414,-219 422.893,-217.296 432.318,-214.898 441.15,-212.377"/>
<polygon fill="midnightblue" stroke="midnightblue" points="442.22,-215.711 450.81,-209.51 440.228,-209 442.22,-215.711"/>
</g>
<!-- Node4 -->
<g id="node4" class="node"><title>Node4</title>
<g id="a_node4"><a xlink:href="main_8c.html#a67b6b9fd02aac96bef4297b1e6a1789a" target="_top" xlink:title="done">
<polygon fill="white" stroke="black" points="546,-114.5 546,-133.5 584,-133.5 584,-114.5 546,-114.5"/>
<text text-anchor="middle" x="565" y="-121.5" font-family="Helvetica,sans-Serif" font-size="10.00">done</text>
</a>
</g>
</g>
<!-- Node3&#45;&gt;Node4 -->
<g id="edge3" class="edge"><title>Node3&#45;&gt;Node4</title>
<path fill="none" stroke="midnightblue" d="M493.022,-190.389C498.307,-186.078 504.541,-180.875 510,-176 522.687,-164.671 536.493,-151.357 546.97,-141.037"/>
<polygon fill="midnightblue" stroke="midnightblue" points="549.621,-143.338 554.259,-133.812 544.693,-138.366 549.621,-143.338"/>
</g>
<!-- Node5&#45;&gt;Node3 -->
<g id="edge5" class="edge"><title>Node5&#45;&gt;Node3</title>
<path fill="none" stroke="midnightblue" d="M380.693,-200C397.89,-200 420.842,-200 440.244,-200"/>
<polygon fill="midnightblue" stroke="midnightblue" points="440.306,-203.5 450.306,-200 440.306,-196.5 440.306,-203.5"/>
</g>
<!-- Node6&#45;&gt;Node4 -->
<g id="edge7" class="edge"><title>Node6&#45;&gt;Node4</title>
<path fill="none" stroke="midnightblue" d="M384.182,-87.6886C415.587,-89.9425 466.842,-94.8881 510,-105 518.668,-107.031 527.881,-109.967 536.198,-112.926"/>
<polygon fill="midnightblue" stroke="midnightblue" points="535.206,-116.291 545.799,-116.487 537.641,-109.728 535.206,-116.291"/>
</g>
<!-- Node7 -->
<g id="node7" class="node"><title>Node7</title>
<g id="a_node7"><a xlink:href="error_8c.html#a3c01cc3498c6cb3655588b53da0e8f7e" target="_top" xlink:title="print_pos">
<polygon fill="white" stroke="black" points="452,-114.5 452,-133.5 508,-133.5 508,-114.5 452,-114.5"/>
<text text-anchor="middle" x="480" y="-121.5" font-family="Helvetica,sans-Serif" font-size="10.00">print_pos</text>
</a>
</g>
</g>
<!-- Node6&#45;&gt;Node7 -->
<g id="edge8" class="edge"><title>Node6&#45;&gt;Node7</title>
<path fill="none" stroke="midnightblue" d="M384.072,-94.9093C401.426,-100.227 423.629,-107.031 442.198,-112.722"/>
<polygon fill="midnightblue" stroke="midnightblue" points="441.221,-116.083 451.808,-115.667 443.272,-109.39 441.221,-116.083"/>
</g>
<!-- Node9 -->
<g id="node9" class="node"><title>Node9</title>
<g id="a_node9"><a xlink:href="reader_8c.html#a204317aa3b6d154f1abff12df35953df" target="_top" xlink:title="get_line">
<polygon fill="white" stroke="black" points="329,-152.5 329,-171.5 379,-171.5 379,-152.5 329,-152.5"/>
<text text-anchor="middle" x="354" y="-159.5" font-family="Helvetica,sans-Serif" font-size="10.00">get_line</text>
</a>
</g>
</g>
<!-- Node8&#45;&gt;Node9 -->
<g id="edge10" class="edge"><title>Node8&#45;&gt;Node9</title>
<path fill="none" stroke="midnightblue" d="M128.825,-141.762C157.434,-140.255 211.922,-138.437 258,-143 278.523,-145.032 301.181,-149.477 319.22,-153.556"/>
<polygon fill="midnightblue" stroke="midnightblue" points="318.456,-156.972 328.989,-155.831 320.043,-150.154 318.456,-156.972"/>
</g>
<!-- Node10 -->
<g id="node10" class="node"><title>Node10</title>
<g id="a_node10"><a xlink:href="reader_8c.html#ac812a775973bb1eb24e86256b2de6b8b" target="_top" xlink:title="skip_comment">
<polygon fill="white" stroke="black" points="172,-152.5 172,-171.5 252,-171.5 252,-152.5 172,-152.5"/>
<text text-anchor="middle" x="212" y="-159.5" font-family="Helvetica,sans-Serif" font-size="10.00">skip_comment</text>
</a>
</g>
</g>
<!-- Node8&#45;&gt;Node10 -->
<g id="edge12" class="edge"><title>Node8&#45;&gt;Node10</title>
<path fill="none" stroke="midnightblue" d="M128.667,-146.663C138.255,-148.449 150.255,-150.685 162.104,-152.892"/>
<polygon fill="midnightblue" stroke="midnightblue" points="161.493,-156.338 171.965,-154.729 162.775,-149.457 161.493,-156.338"/>
</g>
<!-- Node9&#45;&gt;Node3 -->
<g id="edge11" class="edge"><title>Node9&#45;&gt;Node3</title>
<path fill="none" stroke="midnightblue" d="M379.203,-169.417C396.568,-174.738 420.329,-182.02 440.31,-188.143"/>
<polygon fill="midnightblue" stroke="midnightblue" points="439.478,-191.549 450.064,-191.133 441.529,-184.856 439.478,-191.549"/>
</g>
<!-- Node10&#45;&gt;Node5 -->
<g id="edge13" class="edge"><title>Node10&#45;&gt;Node5</title>
<path fill="none" stroke="midnightblue" d="M248.328,-171.589C269.49,-177.333 296.308,-184.612 317.501,-190.365"/>
<polygon fill="midnightblue" stroke="midnightblue" points="316.836,-193.811 327.403,-193.052 318.669,-187.055 316.836,-193.811"/>
</g>
<!-- Node10&#45;&gt;Node9 -->
<g id="edge14" class="edge"><title>Node10&#45;&gt;Node9</title>
<path fill="none" stroke="midnightblue" d="M252.37,-162C273.211,-162 298.564,-162 318.608,-162"/>
<polygon fill="midnightblue" stroke="midnightblue" points="318.844,-165.5 328.843,-162 318.843,-158.5 318.844,-165.5"/>
</g>
<!-- Node11 -->
<g id="node11" class="node"><title>Node11</title>
<g id="a_node11"><a xlink:href="error_8c.html#a81c4e76cf37319065a21afcaec1b8ab1" target="_top" xlink:title="unterminated_comment">
<polygon fill="white" stroke="black" points="294.5,-114.5 294.5,-133.5 413.5,-133.5 413.5,-114.5 294.5,-114.5"/>
<text text-anchor="middle" x="354" y="-121.5" font-family="Helvetica,sans-Serif" font-size="10.00">unterminated_comment</text>
</a>
</g>
</g>
<!-- Node10&#45;&gt;Node11 -->
<g id="edge15" class="edge"><title>Node10&#45;&gt;Node11</title>
<path fill="none" stroke="midnightblue" d="M248.328,-152.411C266.401,-147.506 288.598,-141.48 307.895,-136.243"/>
<polygon fill="midnightblue" stroke="midnightblue" points="308.949,-139.583 317.683,-133.586 307.116,-132.828 308.949,-139.583"/>
</g>
<!-- Node11&#45;&gt;Node4 -->
<g id="edge16" class="edge"><title>Node11&#45;&gt;Node4</title>
<path fill="none" stroke="midnightblue" d="M387.789,-133.542C419.251,-141.396 468.043,-150.166 510,-143 518.776,-141.501 528.021,-138.725 536.334,-135.749"/>
<polygon fill="midnightblue" stroke="midnightblue" points="537.822,-138.927 545.917,-132.092 535.326,-132.387 537.822,-138.927"/>
</g>
<!-- Node11&#45;&gt;Node7 -->
<g id="edge17" class="edge"><title>Node11&#45;&gt;Node7</title>
<path fill="none" stroke="midnightblue" d="M413.732,-124C423.167,-124 432.702,-124 441.462,-124"/>
<polygon fill="midnightblue" stroke="midnightblue" points="441.704,-127.5 451.704,-124 441.704,-120.5 441.704,-127.5"/>
</g>
<!-- Node13&#45;&gt;Node4 -->
<g id="edge21" class="edge"><title>Node13&#45;&gt;Node4</title>
<path fill="none" stroke="midnightblue" d="M258.159,-47.3317C318.062,-47.9936 426.01,-54.6344 510,-90 521.451,-94.8219 533.234,-101.945 542.859,-108.427"/>
<polygon fill="midnightblue" stroke="midnightblue" points="541.142,-111.496 551.345,-114.349 545.148,-105.756 541.142,-111.496"/>
</g>
</g>
</svg>
