<?xml version="1.0" encoding="UTF-8" standalone="no"?>
<!DOCTYPE svg PUBLIC "-//W3C//DTD SVG 1.1//EN"
 "http://www.w3.org/Graphics/SVG/1.1/DTD/svg11.dtd">
<!-- Generated by graphviz version 2.36.0 (20140111.2315)
 -->
<!-- Title: get_name Pages: 1 -->
<svg width="514pt" height="218pt"
 viewBox="0.00 0.00 514.00 218.00" xmlns="http://www.w3.org/2000/svg" xmlns:xlink="http://www.w3.org/1999/xlink">
<g id="graph0" class="graph" transform="scale(1 1) rotate(0) translate(4 214)">
<title>get_name</title>
<polygon fill="white" stroke="none" points="-4,4 -4,-214 510,-214 510,4 -4,4"/>
<!-- Node1 -->
<g id="node1" class="node"><title>Node1</title>
<polygon fill="#bfbfbf" stroke="black" points="0.5,-95.5 0.5,-114.5 59.5,-114.5 59.5,-95.5 0.5,-95.5"/>
<text text-anchor="middle" x="30" y="-102.5" font-family="Helvetica,sans-Serif" font-size="10.00">get_name</text>
</g>
<!-- Node2 -->
<g id="node2" class="node"><title>Node2</title>
<g id="a_node2"><a xlink:href="reader_8c.html#a34bf32e056d8bc6f1fb490f4efc7ce90" target="_top" xlink:title="add_symbol">
<polygon fill="white" stroke="black" points="228.5,-152.5 228.5,-171.5 297.5,-171.5 297.5,-152.5 228.5,-152.5"/>
<text text-anchor="middle" x="263" y="-159.5" font-family="Helvetica,sans-Serif" font-size="10.00">add_symbol</text>
</a>
</g>
</g>
<!-- Node1&#45;&gt;Node2 -->
<g id="edge1" class="edge"><title>Node1&#45;&gt;Node2</title>
<path fill="none" stroke="midnightblue" d="M66.5708,-117.887C76.0637,-121.093 86.3627,-124.363 96,-127 141.312,-139.398 194.6,-149.934 228.336,-156.115"/>
<polygon fill="midnightblue" stroke="midnightblue" points="67.6264,-114.549 57.0317,-114.599 65.3452,-121.167 67.6264,-114.549"/>
</g>
<!-- Node5 -->
<g id="node5" class="node"><title>Node5</title>
<g id="a_node5"><a xlink:href="reader_8c.html#ac910677446efcb4dbebc9a6d3d90a9ff" target="_top" xlink:title="advance_to_start">
<polygon fill="white" stroke="black" points="217,-114.5 217,-133.5 309,-133.5 309,-114.5 217,-114.5"/>
<text text-anchor="middle" x="263" y="-121.5" font-family="Helvetica,sans-Serif" font-size="10.00">advance_to_start</text>
</a>
</g>
</g>
<!-- Node1&#45;&gt;Node5 -->
<g id="edge4" class="edge"><title>Node1&#45;&gt;Node5</title>
<path fill="none" stroke="midnightblue" d="M69.8434,-108.195C110.462,-111.536 174.14,-116.773 216.94,-120.294"/>
<polygon fill="midnightblue" stroke="midnightblue" points="70.0425,-104.7 59.7892,-107.368 69.4686,-111.676 70.0425,-104.7"/>
</g>
<!-- Node6 -->
<g id="node6" class="node"><title>Node6</title>
<g id="a_node6"><a xlink:href="reader_8c.html#a279a8d9eb5a5ad8dce6c95b2647b9c98" target="_top" xlink:title="declare_start">
<polygon fill="white" stroke="black" points="101.5,-76.5 101.5,-95.5 174.5,-95.5 174.5,-76.5 101.5,-76.5"/>
<text text-anchor="middle" x="138" y="-83.5" font-family="Helvetica,sans-Serif" font-size="10.00">declare_start</text>
</a>
</g>
</g>
<!-- Node1&#45;&gt;Node6 -->
<g id="edge6" class="edge"><title>Node1&#45;&gt;Node6</title>
<path fill="none" stroke="midnightblue" d="M69.7351,-98.0569C80.113,-96.1967 91.2794,-94.1952 101.474,-92.3678"/>
<polygon fill="midnightblue" stroke="midnightblue" points="68.9107,-94.6488 59.6851,-99.8583 70.1458,-101.539 68.9107,-94.6488"/>
</g>
<!-- Node8 -->
<g id="node8" class="node"><title>Node8</title>
<g id="a_node8"><a xlink:href="reader_8c.html#a0b749a023a959fabb8ed2778b46ec217" target="_top" xlink:title="declare_tokens">
<polygon fill="white" stroke="black" points="96.5,-0.5 96.5,-19.5 179.5,-19.5 179.5,-0.5 96.5,-0.5"/>
<text text-anchor="middle" x="138" y="-7.5" font-family="Helvetica,sans-Serif" font-size="10.00">declare_tokens</text>
</a>
</g>
</g>
<!-- Node1&#45;&gt;Node8 -->
<g id="edge10" class="edge"><title>Node1&#45;&gt;Node8</title>
<path fill="none" stroke="midnightblue" d="M42.9121,-87.0606C54.7668,-70.3003 74.2857,-45.4595 96,-29 100.752,-25.3983 106.295,-22.2605 111.742,-19.6287"/>
<polygon fill="midnightblue" stroke="midnightblue" points="39.9344,-85.2138 37.1494,-95.4361 45.7013,-89.1817 39.9344,-85.2138"/>
</g>
<!-- Node9 -->
<g id="node9" class="node"><title>Node9</title>
<g id="a_node9"><a xlink:href="reader_8c.html#a860dbc8da656fd831b19668da20207c7" target="_top" xlink:title="declare_types">
<polygon fill="white" stroke="black" points="99.5,-38.5 99.5,-57.5 176.5,-57.5 176.5,-38.5 99.5,-38.5"/>
<text text-anchor="middle" x="138" y="-45.5" font-family="Helvetica,sans-Serif" font-size="10.00">declare_types</text>
</a>
</g>
</g>
<!-- Node1&#45;&gt;Node9 -->
<g id="edge12" class="edge"><title>Node1&#45;&gt;Node9</title>
<path fill="none" stroke="midnightblue" d="M55.1581,-90.1399C67.2657,-82.8823 82.2441,-74.1876 96,-67 102.119,-63.8028 108.876,-60.5586 115.109,-57.6775"/>
<polygon fill="midnightblue" stroke="midnightblue" points="53.2715,-87.1905 46.5266,-95.361 56.8946,-93.18 53.2715,-87.1905"/>
</g>
<!-- Node10 -->
<g id="node10" class="node"><title>Node10</title>
<g id="a_node10"><a xlink:href="reader_8c.html#aae3985d515e47c03afc20f92c0292531" target="_top" xlink:title="mark_symbol">
<polygon fill="white" stroke="black" points="225.5,-190.5 225.5,-209.5 300.5,-209.5 300.5,-190.5 225.5,-190.5"/>
<text text-anchor="middle" x="263" y="-197.5" font-family="Helvetica,sans-Serif" font-size="10.00">mark_symbol</text>
</a>
</g>
</g>
<!-- Node1&#45;&gt;Node10 -->
<g id="edge14" class="edge"><title>Node1&#45;&gt;Node10</title>
<path fill="none" stroke="midnightblue" d="M50.9544,-121.265C63.3243,-130.707 79.8818,-142.233 96,-150 138.434,-170.448 191.024,-184.582 225.494,-192.479"/>
<polygon fill="midnightblue" stroke="midnightblue" points="52.7842,-118.253 42.7534,-114.842 48.4678,-123.764 52.7842,-118.253"/>
</g>
<!-- Node3 -->
<g id="node3" class="node"><title>Node3</title>
<g id="a_node3"><a xlink:href="reader_8c.html#af6d4fba61bb761ca9fe92fef83e8ee94" target="_top" xlink:title="read_grammar">
<polygon fill="white" stroke="black" points="346.5,-133.5 346.5,-152.5 425.5,-152.5 425.5,-133.5 346.5,-133.5"/>
<text text-anchor="middle" x="386" y="-140.5" font-family="Helvetica,sans-Serif" font-size="10.00">read_grammar</text>
</a>
</g>
</g>
<!-- Node2&#45;&gt;Node3 -->
<g id="edge2" class="edge"><title>Node2&#45;&gt;Node3</title>
<path fill="none" stroke="midnightblue" d="M307.589,-155.155C320.26,-153.166 334.006,-151.007 346.351,-149.069"/>
<polygon fill="midnightblue" stroke="midnightblue" points="307.041,-151.698 297.705,-156.707 308.127,-158.614 307.041,-151.698"/>
</g>
<!-- Node4 -->
<g id="node4" class="node"><title>Node4</title>
<g id="a_node4"><a xlink:href="reader_8c.html#a3351a985e2d992eea6ed332cc837ad5b" target="_top" xlink:title="reader">
<polygon fill="white" stroke="red" points="462,-114.5 462,-133.5 506,-133.5 506,-114.5 462,-114.5"/>
<text text-anchor="middle" x="484" y="-121.5" font-family="Helvetica,sans-Serif" font-size="10.00">reader</text>
</a>
</g>
</g>
<!-- Node3&#45;&gt;Node4 -->
<g id="edge3" class="edge"><title>Node3&#45;&gt;Node4</title>
<path fill="none" stroke="midnightblue" d="M435.671,-133.367C444.841,-131.552 453.979,-129.744 461.745,-128.207"/>
<polygon fill="midnightblue" stroke="midnightblue" points="434.9,-129.952 425.77,-135.327 436.259,-136.819 434.9,-129.952"/>
</g>
<!-- Node5&#45;&gt;Node3 -->
<g id="edge5" class="edge"><title>Node5&#45;&gt;Node3</title>
<path fill="none" stroke="midnightblue" d="M318.951,-132.629C328.17,-134.076 337.563,-135.551 346.262,-136.917"/>
<polygon fill="midnightblue" stroke="midnightblue" points="319.478,-129.169 309.056,-131.075 318.392,-136.084 319.478,-129.169"/>
</g>
<!-- Node6&#45;&gt;Node5 -->
<g id="edge7" class="edge"><title>Node6&#45;&gt;Node5</title>
<path fill="none" stroke="midnightblue" d="M180.045,-98.6804C196.664,-103.815 215.532,-109.644 230.972,-114.414"/>
<polygon fill="midnightblue" stroke="midnightblue" points="180.626,-95.1968 170.038,-95.589 178.559,-101.885 180.626,-95.1968"/>
</g>
<!-- Node7 -->
<g id="node7" class="node"><title>Node7</title>
<g id="a_node7"><a xlink:href="reader_8c.html#a07addfee5457e48ddb310769dd0e39af" target="_top" xlink:title="read_declarations">
<polygon fill="white" stroke="black" points="216.5,-57.5 216.5,-76.5 309.5,-76.5 309.5,-57.5 216.5,-57.5"/>
<text text-anchor="middle" x="263" y="-64.5" font-family="Helvetica,sans-Serif" font-size="10.00">read_declarations</text>
</a>
</g>
</g>
<!-- Node6&#45;&gt;Node7 -->
<g id="edge8" class="edge"><title>Node6&#45;&gt;Node7</title>
<path fill="none" stroke="midnightblue" d="M184.678,-78.9441C195.041,-77.3433 206.047,-75.6431 216.407,-74.0428"/>
<polygon fill="midnightblue" stroke="midnightblue" points="183.925,-75.5187 174.577,-80.5044 184.994,-82.4367 183.925,-75.5187"/>
</g>
<!-- Node7&#45;&gt;Node4 -->
<g id="edge9" class="edge"><title>Node7&#45;&gt;Node4</title>
<path fill="none" stroke="midnightblue" d="M310.54,-79.1131C357.244,-91.2691 427.095,-109.449 461.822,-118.488"/>
<polygon fill="midnightblue" stroke="midnightblue" points="311.215,-75.6723 300.656,-76.5405 309.452,-82.4466 311.215,-75.6723"/>
</g>
<!-- Node8&#45;&gt;Node7 -->
<g id="edge11" class="edge"><title>Node8&#45;&gt;Node7</title>
<path fill="none" stroke="midnightblue" d="M168.687,-23.7574C191.16,-34.1719 221.455,-48.2108 241.345,-57.4284"/>
<polygon fill="midnightblue" stroke="midnightblue" points="170.132,-20.5696 159.587,-19.5405 167.189,-26.9208 170.132,-20.5696"/>
</g>
<!-- Node9&#45;&gt;Node7 -->
<g id="edge13" class="edge"><title>Node9&#45;&gt;Node7</title>
<path fill="none" stroke="midnightblue" d="M186.569,-55.3481C196.378,-56.8633 206.687,-58.4557 216.423,-59.9597"/>
<polygon fill="midnightblue" stroke="midnightblue" points="186.99,-51.8716 176.572,-53.8039 185.921,-58.7895 186.99,-51.8716"/>
</g>
<!-- Node10&#45;&gt;Node3 -->
<g id="edge15" class="edge"><title>Node10&#45;&gt;Node3</title>
<path fill="none" stroke="midnightblue" d="M297.29,-186.607C301.589,-184.774 305.914,-182.876 310,-181 329.766,-171.927 351.93,-160.542 367.005,-152.611"/>
<polygon fill="midnightblue" stroke="midnightblue" points="295.899,-183.396 288.026,-190.486 298.602,-189.853 295.899,-183.396"/>
</g>
</g>
</svg>
