<?xml version="1.0" encoding="UTF-8" standalone="no"?>
<!DOCTYPE svg PUBLIC "-//W3C//DTD SVG 1.1//EN"
 "http://www.w3.org/Graphics/SVG/1.1/DTD/svg11.dtd">
<!-- Generated by graphviz version 2.36.0 (20140111.2315)
 -->
<!-- Title: get_name Pages: 1 -->
<svg width="362pt" height="118pt"
 viewBox="0.00 0.00 362.00 117.74" xmlns="http://www.w3.org/2000/svg" xmlns:xlink="http://www.w3.org/1999/xlink">
<g id="graph0" class="graph" transform="scale(1 1) rotate(0) translate(4 113.738)">
<title>get_name</title>
<polygon fill="white" stroke="none" points="-4,4 -4,-113.738 358,-113.738 358,4 -4,4"/>
<!-- Node1 -->
<g id="node1" class="node"><title>Node1</title>
<polygon fill="#bfbfbf" stroke="black" points="0.5,-33.2378 0.5,-52.2378 59.5,-52.2378 59.5,-33.2378 0.5,-33.2378"/>
<text text-anchor="middle" x="30" y="-40.2378" font-family="Helvetica,sans-Serif" font-size="10.00">get_name</text>
</g>
<!-- Node2 -->
<g id="node2" class="node"><title>Node2</title>
<g id="a_node2"><a xlink:href="reader_8c.html#a04707e6fc9527eaf37d68dafdc9483a9" target="_top" xlink:title="cachec">
<polygon fill="white" stroke="black" points="106,-90.2378 106,-109.238 154,-109.238 154,-90.2378 106,-90.2378"/>
<text text-anchor="middle" x="130" y="-97.2378" font-family="Helvetica,sans-Serif" font-size="10.00">cachec</text>
</a>
</g>
</g>
<!-- Node1&#45;&gt;Node2 -->
<g id="edge1" class="edge"><title>Node1&#45;&gt;Node2</title>
<path fill="none" stroke="midnightblue" d="M47.2774,-52.2939C60.4143,-59.9967 79.3794,-71.0949 96,-80.7378 98.3838,-82.1208 100.866,-83.5572 103.352,-84.993"/>
<polygon fill="midnightblue" stroke="midnightblue" points="101.788,-88.1313 112.2,-90.0935 105.284,-82.0668 101.788,-88.1313"/>
</g>
<!-- Node5 -->
<g id="node5" class="node"><title>Node5</title>
<g id="a_node5"><a xlink:href="reader_8c.html#a205d802dd9de1b8e85d44a321f33365c" target="_top" xlink:title="is_reserved">
<polygon fill="white" stroke="black" points="96.5,-52.2378 96.5,-71.2378 163.5,-71.2378 163.5,-52.2378 96.5,-52.2378"/>
<text text-anchor="middle" x="130" y="-59.2378" font-family="Helvetica,sans-Serif" font-size="10.00">is_reserved</text>
</a>
</g>
</g>
<!-- Node1&#45;&gt;Node5 -->
<g id="edge4" class="edge"><title>Node1&#45;&gt;Node5</title>
<path fill="none" stroke="midnightblue" d="M59.6091,-48.2845C67.9829,-49.908 77.3237,-51.7189 86.3699,-53.4728"/>
<polygon fill="midnightblue" stroke="midnightblue" points="85.9074,-56.9482 96.3908,-55.4156 87.2398,-50.0762 85.9074,-56.9482"/>
</g>
<!-- Node6 -->
<g id="node6" class="node"><title>Node6</title>
<g id="a_node6"><a xlink:href="defs_8h.html#aeb8facfda1fb8dcf16a3120589eb90e0" target="_top" xlink:title="lookup">
<polygon fill="white" stroke="black" points="107.5,-14.2378 107.5,-33.2378 152.5,-33.2378 152.5,-14.2378 107.5,-14.2378"/>
<text text-anchor="middle" x="130" y="-21.2378" font-family="Helvetica,sans-Serif" font-size="10.00">lookup</text>
</a>
</g>
</g>
<!-- Node1&#45;&gt;Node6 -->
<g id="edge5" class="edge"><title>Node1&#45;&gt;Node6</title>
<path fill="none" stroke="midnightblue" d="M59.6091,-37.1911C71.4071,-34.9038 85.1246,-32.2443 97.2332,-29.8967"/>
<polygon fill="midnightblue" stroke="midnightblue" points="98.2202,-33.2706 107.371,-27.9311 96.8878,-26.3985 98.2202,-33.2706"/>
</g>
<!-- Node7 -->
<g id="node7" class="node"><title>Node7</title>
<g id="a_node7"><a xlink:href="error_8c.html#a28ccf9e0cd69034b61cd32e13e9a9e00" target="_top" xlink:title="used_reserved">
<polygon fill="white" stroke="black" points="200,-14.2378 200,-33.2378 280,-33.2378 280,-14.2378 200,-14.2378"/>
<text text-anchor="middle" x="240" y="-21.2378" font-family="Helvetica,sans-Serif" font-size="10.00">used_reserved</text>
</a>
</g>
</g>
<!-- Node1&#45;&gt;Node7 -->
<g id="edge6" class="edge"><title>Node1&#45;&gt;Node7</title>
<path fill="none" stroke="midnightblue" d="M43.0499,-33.0212C55.469,-23.6825 75.8128,-10.2058 96,-4.73781 131.788,4.95571 174.007,-2.91651 203.251,-11.2797"/>
<polygon fill="midnightblue" stroke="midnightblue" points="202.437,-14.69 213.021,-14.2304 204.46,-7.98884 202.437,-14.69"/>
</g>
<!-- Node3 -->
<g id="node3" class="node"><title>Node3</title>
<g id="a_node3"><a xlink:href="error_8c.html#a03b3d711852aa32c4076f12ea7bb93a4" target="_top" xlink:title="no_space">
<polygon fill="white" stroke="black" points="210.5,-71.2378 210.5,-90.2378 269.5,-90.2378 269.5,-71.2378 210.5,-71.2378"/>
<text text-anchor="middle" x="240" y="-78.2378" font-family="Helvetica,sans-Serif" font-size="10.00">no_space</text>
</a>
</g>
</g>
<!-- Node2&#45;&gt;Node3 -->
<g id="edge2" class="edge"><title>Node2&#45;&gt;Node3</title>
<path fill="none" stroke="midnightblue" d="M154.169,-95.6618C167.693,-93.2826 185.098,-90.2207 200.619,-87.4901"/>
<polygon fill="midnightblue" stroke="midnightblue" points="201.244,-90.9339 210.486,-85.7541 200.031,-84.0398 201.244,-90.9339"/>
</g>
<!-- Node4 -->
<g id="node4" class="node"><title>Node4</title>
<g id="a_node4"><a xlink:href="main_8c.html#a67b6b9fd02aac96bef4297b1e6a1789a" target="_top" xlink:title="done">
<polygon fill="white" stroke="black" points="316,-42.2378 316,-61.2378 354,-61.2378 354,-42.2378 316,-42.2378"/>
<text text-anchor="middle" x="335" y="-49.2378" font-family="Helvetica,sans-Serif" font-size="10.00">done</text>
</a>
</g>
</g>
<!-- Node3&#45;&gt;Node4 -->
<g id="edge3" class="edge"><title>Node3&#45;&gt;Node4</title>
<path fill="none" stroke="midnightblue" d="M269.662,-71.8002C281.302,-68.1704 294.701,-63.9924 306.247,-60.3919"/>
<polygon fill="midnightblue" stroke="midnightblue" points="307.322,-63.7232 315.826,-57.4049 305.238,-57.0405 307.322,-63.7232"/>
</g>
<!-- Node7&#45;&gt;Node4 -->
<g id="edge7" class="edge"><title>Node7&#45;&gt;Node4</title>
<path fill="none" stroke="midnightblue" d="M272.745,-33.2955C283.559,-36.5512 295.56,-40.1644 306.053,-43.3236"/>
<polygon fill="midnightblue" stroke="midnightblue" points="305.359,-46.7699 315.944,-46.3015 307.377,-40.0671 305.359,-46.7699"/>
</g>
</g>
</svg>
