<?xml version="1.0" encoding="UTF-8" standalone="no"?>
<!DOCTYPE svg PUBLIC "-//W3C//DTD SVG 1.1//EN"
 "http://www.w3.org/Graphics/SVG/1.1/DTD/svg11.dtd">
<!-- Generated by graphviz version 2.36.0 (20140111.2315)
 -->
<!-- Title: get_number Pages: 1 -->
<svg width="406pt" height="66pt"
 viewBox="0.00 0.00 406.00 66.00" xmlns="http://www.w3.org/2000/svg" xmlns:xlink="http://www.w3.org/1999/xlink">
<g id="graph0" class="graph" transform="scale(1 1) rotate(0) translate(4 62)">
<title>get_number</title>
<polygon fill="white" stroke="none" points="-4,4 -4,-62 402,-62 402,4 -4,4"/>
<!-- Node1 -->
<g id="node1" class="node"><title>Node1</title>
<polygon fill="#bfbfbf" stroke="black" points="0,-19.5 0,-38.5 68,-38.5 68,-19.5 0,-19.5"/>
<text text-anchor="middle" x="34" y="-26.5" font-family="Helvetica,sans-Serif" font-size="10.00">get_number</text>
</g>
<!-- Node2 -->
<g id="node2" class="node"><title>Node2</title>
<g id="a_node2"><a xlink:href="reader_8c.html#abb83807b1bba8d346650d3e4ae4e7425" target="_top" xlink:title="copy_action">
<polygon fill="white" stroke="black" points="111.5,-38.5 111.5,-57.5 180.5,-57.5 180.5,-38.5 111.5,-38.5"/>
<text text-anchor="middle" x="146" y="-45.5" font-family="Helvetica,sans-Serif" font-size="10.00">copy_action</text>
</a>
</g>
</g>
<!-- Node1&#45;&gt;Node2 -->
<g id="edge1" class="edge"><title>Node1&#45;&gt;Node2</title>
<path fill="none" stroke="midnightblue" d="M77.9176,-36.413C88.9826,-38.3243 100.734,-40.3541 111.258,-42.1719"/>
<polygon fill="midnightblue" stroke="midnightblue" points="78.4535,-32.9538 68.0036,-34.7006 77.262,-39.8517 78.4535,-32.9538"/>
</g>
<!-- Node5 -->
<g id="node5" class="node"><title>Node5</title>
<g id="a_node5"><a xlink:href="reader_8c.html#a0b749a023a959fabb8ed2778b46ec217" target="_top" xlink:title="declare_tokens">
<polygon fill="white" stroke="black" points="104.5,-0.5 104.5,-19.5 187.5,-19.5 187.5,-0.5 104.5,-0.5"/>
<text text-anchor="middle" x="146" y="-7.5" font-family="Helvetica,sans-Serif" font-size="10.00">declare_tokens</text>
</a>
</g>
</g>
<!-- Node1&#45;&gt;Node5 -->
<g id="edge4" class="edge"><title>Node1&#45;&gt;Node5</title>
<path fill="none" stroke="midnightblue" d="M77.9176,-21.587C86.5739,-20.0918 95.6503,-18.524 104.231,-17.042"/>
<polygon fill="midnightblue" stroke="midnightblue" points="77.262,-18.1483 68.0036,-23.2994 78.4535,-25.0462 77.262,-18.1483"/>
</g>
<!-- Node3 -->
<g id="node3" class="node"><title>Node3</title>
<g id="a_node3"><a xlink:href="reader_8c.html#af6d4fba61bb761ca9fe92fef83e8ee94" target="_top" xlink:title="read_grammar">
<polygon fill="white" stroke="black" points="231.5,-38.5 231.5,-57.5 310.5,-57.5 310.5,-38.5 231.5,-38.5"/>
<text text-anchor="middle" x="271" y="-45.5" font-family="Helvetica,sans-Serif" font-size="10.00">read_grammar</text>
</a>
</g>
</g>
<!-- Node2&#45;&gt;Node3 -->
<g id="edge2" class="edge"><title>Node2&#45;&gt;Node3</title>
<path fill="none" stroke="midnightblue" d="M190.869,-48C204.04,-48 218.39,-48 231.209,-48"/>
<polygon fill="midnightblue" stroke="midnightblue" points="190.61,-44.5001 180.61,-48 190.61,-51.5001 190.61,-44.5001"/>
</g>
<!-- Node4 -->
<g id="node4" class="node"><title>Node4</title>
<g id="a_node4"><a xlink:href="reader_8c.html#a3351a985e2d992eea6ed332cc837ad5b" target="_top" xlink:title="reader">
<polygon fill="white" stroke="red" points="354,-19.5 354,-38.5 398,-38.5 398,-19.5 354,-19.5"/>
<text text-anchor="middle" x="376" y="-26.5" font-family="Helvetica,sans-Serif" font-size="10.00">reader</text>
</a>
</g>
</g>
<!-- Node3&#45;&gt;Node4 -->
<g id="edge3" class="edge"><title>Node3&#45;&gt;Node4</title>
<path fill="none" stroke="midnightblue" d="M320.746,-39.0079C332.362,-36.8652 344.165,-34.6879 353.783,-32.9138"/>
<polygon fill="midnightblue" stroke="midnightblue" points="319.846,-35.615 310.646,-40.871 321.115,-42.4988 319.846,-35.615"/>
</g>
<!-- Node6 -->
<g id="node6" class="node"><title>Node6</title>
<g id="a_node6"><a xlink:href="reader_8c.html#a07addfee5457e48ddb310769dd0e39af" target="_top" xlink:title="read_declarations">
<polygon fill="white" stroke="black" points="224.5,-0.5 224.5,-19.5 317.5,-19.5 317.5,-0.5 224.5,-0.5"/>
<text text-anchor="middle" x="271" y="-7.5" font-family="Helvetica,sans-Serif" font-size="10.00">read_declarations</text>
</a>
</g>
</g>
<!-- Node5&#45;&gt;Node6 -->
<g id="edge5" class="edge"><title>Node5&#45;&gt;Node6</title>
<path fill="none" stroke="midnightblue" d="M197.764,-10C206.565,-10 215.669,-10 224.325,-10"/>
<polygon fill="midnightblue" stroke="midnightblue" points="197.616,-6.5001 187.616,-10 197.616,-13.5001 197.616,-6.5001"/>
</g>
<!-- Node6&#45;&gt;Node4 -->
<g id="edge6" class="edge"><title>Node6&#45;&gt;Node4</title>
<path fill="none" stroke="midnightblue" d="M327.836,-20.2999C337.091,-22.007 346.157,-23.6795 353.829,-25.0947"/>
<polygon fill="midnightblue" stroke="midnightblue" points="328.246,-16.8165 317.777,-18.4443 326.976,-23.7004 328.246,-16.8165"/>
</g>
</g>
</svg>
