<?xml version="1.0" encoding="UTF-8" standalone="no"?>
<!DOCTYPE svg PUBLIC "-//W3C//DTD SVG 1.1//EN"
 "http://www.w3.org/Graphics/SVG/1.1/DTD/svg11.dtd">
<!-- Generated by graphviz version 2.36.0 (20140111.2315)
 -->
<!-- Title: declare_types Pages: 1 -->
<svg width="370pt" height="28pt"
 viewBox="0.00 0.00 370.00 28.00" xmlns="http://www.w3.org/2000/svg" xmlns:xlink="http://www.w3.org/1999/xlink">
<g id="graph0" class="graph" transform="scale(1 1) rotate(0) translate(4 24)">
<title>declare_types</title>
<polygon fill="white" stroke="none" points="-4,4 -4,-24 366,-24 366,4 -4,4"/>
<!-- Node1 -->
<g id="node1" class="node"><title>Node1</title>
<polygon fill="#bfbfbf" stroke="black" points="0.5,-0.5 0.5,-19.5 77.5,-19.5 77.5,-0.5 0.5,-0.5"/>
<text text-anchor="middle" x="39" y="-7.5" font-family="Helvetica,sans-Serif" font-size="10.00">declare_types</text>
</g>
<!-- Node2 -->
<g id="node2" class="node"><title>Node2</title>
<g id="a_node2"><a xlink:href="reader_8c.html#a07addfee5457e48ddb310769dd0e39af" target="_top" xlink:title="read_declarations">
<polygon fill="white" stroke="black" points="114.5,-0.5 114.5,-19.5 207.5,-19.5 207.5,-0.5 114.5,-0.5"/>
<text text-anchor="middle" x="161" y="-7.5" font-family="Helvetica,sans-Serif" font-size="10.00">read_declarations</text>
</a>
</g>
</g>
<!-- Node1&#45;&gt;Node2 -->
<g id="edge1" class="edge"><title>Node1&#45;&gt;Node2</title>
<path fill="none" stroke="midnightblue" d="M87.7638,-10C96.573,-10 105.75,-10 114.49,-10"/>
<polygon fill="midnightblue" stroke="midnightblue" points="87.6395,-6.5001 77.6395,-10 87.6395,-13.5001 87.6395,-6.5001"/>
</g>
<!-- Node3 -->
<g id="node3" class="node"><title>Node3</title>
<g id="a_node3"><a xlink:href="reader_8c.html#a3351a985e2d992eea6ed332cc837ad5b" target="_top" xlink:title="reader">
<polygon fill="white" stroke="black" points="244,-0.5 244,-19.5 288,-19.5 288,-0.5 244,-0.5"/>
<text text-anchor="middle" x="266" y="-7.5" font-family="Helvetica,sans-Serif" font-size="10.00">reader</text>
</a>
</g>
</g>
<!-- Node2&#45;&gt;Node3 -->
<g id="edge2" class="edge"><title>Node2&#45;&gt;Node3</title>
<path fill="none" stroke="midnightblue" d="M217.836,-10C227.091,-10 236.157,-10 243.829,-10"/>
<polygon fill="midnightblue" stroke="midnightblue" points="217.777,-6.5001 207.777,-10 217.777,-13.5001 217.777,-6.5001"/>
</g>
<!-- Node4 -->
<g id="node4" class="node"><title>Node4</title>
<g id="a_node4"><a xlink:href="main_8c.html#afced8478b91af5c169926dfa4426333d" target="_top" xlink:title="main">
<polygon fill="white" stroke="black" points="324,-0.5 324,-19.5 362,-19.5 362,-0.5 324,-0.5"/>
<text text-anchor="middle" x="343" y="-7.5" font-family="Helvetica,sans-Serif" font-size="10.00">main</text>
</a>
</g>
</g>
<!-- Node3&#45;&gt;Node4 -->
<g id="edge3" class="edge"><title>Node3&#45;&gt;Node4</title>
<path fill="none" stroke="midnightblue" d="M298.532,-10C307.211,-10 316.328,-10 323.958,-10"/>
<polygon fill="midnightblue" stroke="midnightblue" points="298.291,-6.5001 288.291,-10 298.291,-13.5001 298.291,-6.5001"/>
</g>
</g>
</svg>
