<?xml version="1.0" encoding="UTF-8" standalone="no"?>
<!DOCTYPE svg PUBLIC "-//W3C//DTD SVG 1.1//EN"
 "http://www.w3.org/Graphics/SVG/1.1/DTD/svg11.dtd">
<!-- Generated by graphviz version 2.36.0 (20140111.2315)
 -->
<!-- Title: cachec Pages: 1 -->
<!--zoomable 284 -->
<svg id="main" version="1.1" xmlns="http://www.w3.org/2000/svg" xmlns:xlink="http://www.w3.org/1999/xlink" xml:space="preserve" onload="init(evt)">
<style type="text/css"><![CDATA[
.edge:hover path { stroke: red; }
.edge:hover polygon { stroke: red; fill: red; }
]]></style>
<script type="text/javascript"><![CDATA[
var edges = document.getElementsByTagName('g');
if (edges && edges.length) {
  for (var i=0;i<edges.length;i++) {
    if (edges[i].id.substr(0,4)=='edge') {
      edges[i].setAttribute('class','edge');
    }
  }
}
]]></script>
        <defs>
                <circle id="rim" cx="0" cy="0" r="7"/>
                <circle id="rim2" cx="0" cy="0" r="3.5"/>
                <g id="zoomPlus">
                        <use xlink:href="#rim" fill="#404040">
                                <set attributeName="fill" to="#808080" begin="zoomplus.mouseover" end="zoomplus.mouseout"/>
                        </use>
                        <path d="M-4,0h8M0,-4v8" fill="none" stroke="white" stroke-width="1.5" pointer-events="none"/>
                </g>
                <g id="zoomMin">
                        <use xlink:href="#rim" fill="#404040">
                                <set attributeName="fill" to="#808080" begin="zoomminus.mouseover" end="zoomminus.mouseout"/>
                        </use>
                        <path d="M-4,0h8" fill="none" stroke="white" stroke-width="1.5" pointer-events="none"/>
                </g>
                <g id="dirArrow">
                        <path fill="none" stroke="white" stroke-width="1.5" d="M0,-3.0v7 M-2.5,-0.5L0,-3.0L2.5,-0.5"/>
                </g>
               <g id="resetDef">
                       <use xlink:href="#rim2" fill="#404040">
                               <set attributeName="fill" to="#808080" begin="reset.mouseover" end="reset.mouseout"/>
                       </use>
               </g>
        </defs>

<script type="text/javascript">
var viewWidth = 518;
var viewHeight = 284;
var sectionId = 'dynsection-6';
</script>
<script xlink:href="svgpan.js"/>
<svg id="graph" class="graph">
<g id="viewport">
<title>cachec</title>
<polygon fill="white" stroke="none" points="-4,4 -4,-280 514,-280 514,4 -4,4"/>
<!-- Node1 -->
<g id="node1" class="node"><title>Node1</title>
<polygon fill="#bfbfbf" stroke="black" points="0,-133.5 0,-152.5 48,-152.5 48,-133.5 0,-133.5"/>
<text text-anchor="middle" x="24" y="-140.5" font-family="Helvetica,sans-Serif" font-size="10.00">cachec</text>
</g>
<!-- Node2 -->
<g id="node2" class="node"><title>Node2</title>
<g id="a_node2"><a xlink:href="reader_8c.html#acfb64f081b0d9c4536e90c5352ce9c2c" target="_top" xlink:title="get_literal">
<polygon fill="white" stroke="black" points="84.5,-152.5 84.5,-171.5 143.5,-171.5 143.5,-152.5 84.5,-152.5"/>
<text text-anchor="middle" x="114" y="-159.5" font-family="Helvetica,sans-Serif" font-size="10.00">get_literal</text>
</a>
</g>
</g>
<!-- Node1&#45;&gt;Node2 -->
<g id="edge1" class="edge"><title>Node1&#45;&gt;Node2</title>
<path fill="none" stroke="midnightblue" d="M57.947,-150.114C66.6332,-151.989 75.9339,-153.997 84.3719,-155.819"/>
<polygon fill="midnightblue" stroke="midnightblue" points="58.6344,-146.681 48.121,-147.992 57.157,-153.524 58.6344,-146.681"/>
</g>
<!-- Node9 -->
<g id="node9" class="node"><title>Node9</title>
<g id="a_node9"><a xlink:href="reader_8c.html#a47f6ab5db224a190b33568ed55a03eaf" target="_top" xlink:title="get_name">
<polygon fill="white" stroke="black" points="84.5,-114.5 84.5,-133.5 143.5,-133.5 143.5,-114.5 84.5,-114.5"/>
<text text-anchor="middle" x="114" y="-121.5" font-family="Helvetica,sans-Serif" font-size="10.00">get_name</text>
</a>
</g>
</g>
<!-- Node1&#45;&gt;Node9 -->
<g id="edge10" class="edge"><title>Node1&#45;&gt;Node9</title>
<path fill="none" stroke="midnightblue" d="M57.947,-135.886C66.6332,-134.011 75.9339,-132.003 84.3719,-130.181"/>
<polygon fill="midnightblue" stroke="midnightblue" points="57.157,-132.476 48.121,-138.008 58.6344,-139.319 57.157,-132.476"/>
</g>
<!-- Node12 -->
<g id="node12" class="node"><title>Node12</title>
<g id="a_node12"><a xlink:href="reader_8c.html#a0d5a7fe7641edf38078ba5e99536772d" target="_top" xlink:title="get_tag">
<polygon fill="white" stroke="black" points="89.5,-209.5 89.5,-228.5 138.5,-228.5 138.5,-209.5 89.5,-209.5"/>
<text text-anchor="middle" x="114" y="-216.5" font-family="Helvetica,sans-Serif" font-size="10.00">get_tag</text>
</a>
</g>
</g>
<!-- Node1&#45;&gt;Node12 -->
<g id="edge20" class="edge"><title>Node1&#45;&gt;Node12</title>
<path fill="none" stroke="midnightblue" d="M44.0966,-159.493C61.7732,-174.759 87.4447,-196.93 101.945,-209.453"/>
<polygon fill="midnightblue" stroke="midnightblue" points="46.0012,-156.513 36.1453,-152.625 41.4258,-161.811 46.0012,-156.513"/>
</g>
<!-- Node14 -->
<g id="node14" class="node"><title>Node14</title>
<g id="a_node14"><a xlink:href="reader_8c.html#a7b9f905e2f933d429fa1b479fd058f03" target="_top" xlink:title="keyword">
<polygon fill="white" stroke="black" points="195.5,-0.5 195.5,-19.5 248.5,-19.5 248.5,-0.5 195.5,-0.5"/>
<text text-anchor="middle" x="222" y="-7.5" font-family="Helvetica,sans-Serif" font-size="10.00">keyword</text>
</a>
</g>
</g>
<!-- Node1&#45;&gt;Node14 -->
<g id="edge25" class="edge"><title>Node1&#45;&gt;Node14</title>
<path fill="none" stroke="midnightblue" d="M47.5439,-127.702C88.291,-100.053 173.092,-42.5092 206.769,-19.6571"/>
<polygon fill="midnightblue" stroke="midnightblue" points="45.4053,-124.924 39.0958,-133.435 49.3359,-130.716 45.4053,-124.924"/>
</g>
<!-- Node3 -->
<g id="node3" class="node"><title>Node3</title>
<g id="a_node3"><a xlink:href="reader_8c.html#a0b749a023a959fabb8ed2778b46ec217" target="_top" xlink:title="declare_tokens">
<polygon fill="white" stroke="black" points="180.5,-228.5 180.5,-247.5 263.5,-247.5 263.5,-228.5 180.5,-228.5"/>
<text text-anchor="middle" x="222" y="-235.5" font-family="Helvetica,sans-Serif" font-size="10.00">declare_tokens</text>
</a>
</g>
</g>
<!-- Node2&#45;&gt;Node3 -->
<g id="edge2" class="edge"><title>Node2&#45;&gt;Node3</title>
<path fill="none" stroke="midnightblue" d="M131.803,-179.161C144.322,-191.316 162.251,-207.449 180,-219 185.392,-222.509 191.536,-225.719 197.398,-228.463"/>
<polygon fill="midnightblue" stroke="midnightblue" points="133.979,-176.39 124.414,-171.835 129.051,-181.361 133.979,-176.39"/>
</g>
<!-- Node5 -->
<g id="node5" class="node"><title>Node5</title>
<g id="a_node5"><a xlink:href="reader_8c.html#a860dbc8da656fd831b19668da20207c7" target="_top" xlink:title="declare_types">
<polygon fill="white" stroke="black" points="183.5,-190.5 183.5,-209.5 260.5,-209.5 260.5,-190.5 183.5,-190.5"/>
<text text-anchor="middle" x="222" y="-197.5" font-family="Helvetica,sans-Serif" font-size="10.00">declare_types</text>
</a>
</g>
</g>
<!-- Node2&#45;&gt;Node5 -->
<g id="edge4" class="edge"><title>Node2&#45;&gt;Node5</title>
<path fill="none" stroke="midnightblue" d="M151.184,-174.972C165.307,-180.034 181.206,-185.734 194.26,-190.414"/>
<polygon fill="midnightblue" stroke="midnightblue" points="152.343,-171.669 141.748,-171.589 149.981,-178.258 152.343,-171.669"/>
</g>
<!-- Node6 -->
<g id="node6" class="node"><title>Node6</title>
<g id="a_node6"><a xlink:href="reader_8c.html#a34bf32e056d8bc6f1fb490f4efc7ce90" target="_top" xlink:title="add_symbol">
<polygon fill="white" stroke="black" points="187.5,-114.5 187.5,-133.5 256.5,-133.5 256.5,-114.5 187.5,-114.5"/>
<text text-anchor="middle" x="222" y="-121.5" font-family="Helvetica,sans-Serif" font-size="10.00">add_symbol</text>
</a>
</g>
</g>
<!-- Node2&#45;&gt;Node6 -->
<g id="edge6" class="edge"><title>Node2&#45;&gt;Node6</title>
<path fill="none" stroke="midnightblue" d="M151.184,-149.028C165.307,-143.966 181.206,-138.266 194.26,-133.586"/>
<polygon fill="midnightblue" stroke="midnightblue" points="149.981,-145.742 141.748,-152.411 152.343,-152.331 149.981,-145.742"/>
</g>
<!-- Node8 -->
<g id="node8" class="node"><title>Node8</title>
<g id="a_node8"><a xlink:href="reader_8c.html#aae3985d515e47c03afc20f92c0292531" target="_top" xlink:title="mark_symbol">
<polygon fill="white" stroke="black" points="184.5,-152.5 184.5,-171.5 259.5,-171.5 259.5,-152.5 184.5,-152.5"/>
<text text-anchor="middle" x="222" y="-159.5" font-family="Helvetica,sans-Serif" font-size="10.00">mark_symbol</text>
</a>
</g>
</g>
<!-- Node2&#45;&gt;Node8 -->
<g id="edge8" class="edge"><title>Node2&#45;&gt;Node8</title>
<path fill="none" stroke="midnightblue" d="M153.754,-162C163.731,-162 174.436,-162 184.305,-162"/>
<polygon fill="midnightblue" stroke="midnightblue" points="153.685,-158.5 143.685,-162 153.685,-165.5 153.685,-158.5"/>
</g>
<!-- Node4 -->
<g id="node4" class="node"><title>Node4</title>
<g id="a_node4"><a xlink:href="reader_8c.html#a07addfee5457e48ddb310769dd0e39af" target="_top" xlink:title="read_declarations">
<polygon fill="white" stroke="red" points="300.5,-142.5 300.5,-161.5 393.5,-161.5 393.5,-142.5 300.5,-142.5"/>
<text text-anchor="middle" x="347" y="-149.5" font-family="Helvetica,sans-Serif" font-size="10.00">read_declarations</text>
</a>
</g>
</g>
<!-- Node3&#45;&gt;Node4 -->
<g id="edge3" class="edge"><title>Node3&#45;&gt;Node4</title>
<path fill="none" stroke="midnightblue" d="M255.69,-223.772C258.551,-222.252 261.359,-220.654 264,-219 292.045,-201.436 321.191,-175.448 336.025,-161.565"/>
<polygon fill="midnightblue" stroke="midnightblue" points="253.915,-220.746 246.519,-228.332 257.031,-227.014 253.915,-220.746"/>
</g>
<!-- Node5&#45;&gt;Node4 -->
<g id="edge5" class="edge"><title>Node5&#45;&gt;Node4</title>
<path fill="none" stroke="midnightblue" d="M257.157,-186.671C277.567,-178.706 303.022,-168.772 321.447,-161.582"/>
<polygon fill="midnightblue" stroke="midnightblue" points="255.639,-183.506 247.595,-190.402 258.183,-190.027 255.639,-183.506"/>
</g>
<!-- Node7 -->
<g id="node7" class="node"><title>Node7</title>
<g id="a_node7"><a xlink:href="reader_8c.html#af6d4fba61bb761ca9fe92fef83e8ee94" target="_top" xlink:title="read_grammar">
<polygon fill="white" stroke="red" points="430.5,-142.5 430.5,-161.5 509.5,-161.5 509.5,-142.5 430.5,-142.5"/>
<text text-anchor="middle" x="470" y="-149.5" font-family="Helvetica,sans-Serif" font-size="10.00">read_grammar</text>
</a>
</g>
</g>
<!-- Node6&#45;&gt;Node7 -->
<g id="edge7" class="edge"><title>Node6&#45;&gt;Node7</title>
<path fill="none" stroke="midnightblue" d="M266.881,-123.957C301.566,-124.488 351.113,-126.503 394,-133 408.343,-135.173 423.933,-138.894 437.164,-142.47"/>
<polygon fill="midnightblue" stroke="midnightblue" points="266.658,-120.454 256.617,-123.837 266.576,-127.454 266.658,-120.454"/>
</g>
<!-- Node8&#45;&gt;Node7 -->
<g id="edge9" class="edge"><title>Node8&#45;&gt;Node7</title>
<path fill="none" stroke="midnightblue" d="M270.064,-168.925C304.501,-172.912 352.294,-176.201 394,-171 408.928,-169.138 425.15,-165.269 438.676,-161.505"/>
<polygon fill="midnightblue" stroke="midnightblue" points="270.177,-165.413 259.826,-167.674 269.328,-172.361 270.177,-165.413"/>
</g>
<!-- Node9&#45;&gt;Node3 -->
<g id="edge11" class="edge"><title>Node9&#45;&gt;Node3</title>
<path fill="none" stroke="midnightblue" d="M141.223,-140.108C142.201,-141.04 143.133,-142.004 144,-143 168.549,-171.183 153.46,-192.683 180,-219 183.788,-222.756 188.457,-225.858 193.27,-228.387"/>
<polygon fill="midnightblue" stroke="midnightblue" points="143.099,-137.129 133.091,-133.649 138.744,-142.61 143.099,-137.129"/>
</g>
<!-- Node9&#45;&gt;Node5 -->
<g id="edge12" class="edge"><title>Node9&#45;&gt;Node5</title>
<path fill="none" stroke="midnightblue" d="M139.725,-139.62C141.198,-140.728 142.635,-141.859 144,-143 161.85,-157.92 161.109,-167.422 180,-181 184.969,-184.571 190.716,-187.73 196.306,-190.397"/>
<polygon fill="midnightblue" stroke="midnightblue" points="141.329,-136.472 131.126,-133.616 137.322,-142.211 141.329,-136.472"/>
</g>
<!-- Node9&#45;&gt;Node6 -->
<g id="edge18" class="edge"><title>Node9&#45;&gt;Node6</title>
<path fill="none" stroke="midnightblue" d="M153.89,-124C164.883,-124 176.75,-124 187.404,-124"/>
<polygon fill="midnightblue" stroke="midnightblue" points="153.685,-120.5 143.685,-124 153.685,-127.5 153.685,-120.5"/>
</g>
<!-- Node9&#45;&gt;Node8 -->
<g id="edge19" class="edge"><title>Node9&#45;&gt;Node8</title>
<path fill="none" stroke="midnightblue" d="M151.184,-136.972C165.307,-142.034 181.206,-147.734 194.26,-152.414"/>
<polygon fill="midnightblue" stroke="midnightblue" points="152.343,-133.669 141.748,-133.589 149.981,-140.258 152.343,-133.669"/>
</g>
<!-- Node10 -->
<g id="node10" class="node"><title>Node10</title>
<g id="a_node10"><a xlink:href="reader_8c.html#a279a8d9eb5a5ad8dce6c95b2647b9c98" target="_top" xlink:title="declare_start">
<polygon fill="white" stroke="black" points="185.5,-76.5 185.5,-95.5 258.5,-95.5 258.5,-76.5 185.5,-76.5"/>
<text text-anchor="middle" x="222" y="-83.5" font-family="Helvetica,sans-Serif" font-size="10.00">declare_start</text>
</a>
</g>
</g>
<!-- Node9&#45;&gt;Node10 -->
<g id="edge13" class="edge"><title>Node9&#45;&gt;Node10</title>
<path fill="none" stroke="midnightblue" d="M151.184,-111.028C165.307,-105.966 181.206,-100.266 194.26,-95.5859"/>
<polygon fill="midnightblue" stroke="midnightblue" points="149.981,-107.742 141.748,-114.411 152.343,-114.331 149.981,-107.742"/>
</g>
<!-- Node11 -->
<g id="node11" class="node"><title>Node11</title>
<g id="a_node11"><a xlink:href="reader_8c.html#ac910677446efcb4dbebc9a6d3d90a9ff" target="_top" xlink:title="advance_to_start">
<polygon fill="white" stroke="black" points="301,-47.5 301,-66.5 393,-66.5 393,-47.5 301,-47.5"/>
<text text-anchor="middle" x="347" y="-54.5" font-family="Helvetica,sans-Serif" font-size="10.00">advance_to_start</text>
</a>
</g>
</g>
<!-- Node9&#45;&gt;Node11 -->
<g id="edge17" class="edge"><title>Node9&#45;&gt;Node11</title>
<path fill="none" stroke="midnightblue" d="M129.119,-106.473C141.089,-93.0354 159.537,-75.4123 180,-67 218.586,-51.137 266.501,-49.9958 300.919,-52.0109"/>
<polygon fill="midnightblue" stroke="midnightblue" points="126.372,-104.3 122.544,-114.179 131.697,-108.844 126.372,-104.3"/>
</g>
<!-- Node10&#45;&gt;Node4 -->
<g id="edge14" class="edge"><title>Node10&#45;&gt;Node4</title>
<path fill="none" stroke="midnightblue" d="M253.633,-99.8411C257.151,-101.535 260.668,-103.277 264,-105 287.467,-117.134 313.85,-132.595 330.199,-142.399"/>
<polygon fill="midnightblue" stroke="midnightblue" points="254.987,-96.6103 244.449,-95.5155 252.005,-102.943 254.987,-96.6103"/>
</g>
<!-- Node10&#45;&gt;Node11 -->
<g id="edge15" class="edge"><title>Node10&#45;&gt;Node11</title>
<path fill="none" stroke="midnightblue" d="M268.467,-75.2802C280.542,-72.4332 293.504,-69.3771 305.307,-66.5943"/>
<polygon fill="midnightblue" stroke="midnightblue" points="267.507,-71.9105 258.577,-77.612 269.113,-78.7237 267.507,-71.9105"/>
</g>
<!-- Node11&#45;&gt;Node7 -->
<g id="edge16" class="edge"><title>Node11&#45;&gt;Node7</title>
<path fill="none" stroke="midnightblue" d="M368.36,-72.9851C393.648,-92.8394 435.985,-126.079 456.755,-142.386"/>
<polygon fill="midnightblue" stroke="midnightblue" points="370.52,-70.2313 360.493,-66.8089 366.197,-75.7371 370.52,-70.2313"/>
</g>
<!-- Node12&#45;&gt;Node3 -->
<g id="edge21" class="edge"><title>Node12&#45;&gt;Node3</title>
<path fill="none" stroke="midnightblue" d="M148.6,-225.023C158.721,-226.837 169.937,-228.847 180.458,-230.733"/>
<polygon fill="midnightblue" stroke="midnightblue" points="148.986,-221.536 138.525,-223.217 147.75,-228.426 148.986,-221.536"/>
</g>
<!-- Node12&#45;&gt;Node5 -->
<g id="edge22" class="edge"><title>Node12&#45;&gt;Node5</title>
<path fill="none" stroke="midnightblue" d="M148.648,-212.969C159.702,-210.987 172.057,-208.773 183.386,-206.742"/>
<polygon fill="midnightblue" stroke="midnightblue" points="147.75,-209.574 138.525,-214.783 148.986,-216.464 147.75,-209.574"/>
</g>
<!-- Node13 -->
<g id="node13" class="node"><title>Node13</title>
<g id="a_node13"><a xlink:href="reader_8c.html#abb83807b1bba8d346650d3e4ae4e7425" target="_top" xlink:title="copy_action">
<polygon fill="white" stroke="black" points="312.5,-256.5 312.5,-275.5 381.5,-275.5 381.5,-256.5 312.5,-256.5"/>
<text text-anchor="middle" x="347" y="-263.5" font-family="Helvetica,sans-Serif" font-size="10.00">copy_action</text>
</a>
</g>
</g>
<!-- Node12&#45;&gt;Node13 -->
<g id="edge23" class="edge"><title>Node12&#45;&gt;Node13</title>
<path fill="none" stroke="midnightblue" d="M136.085,-234.801C148.256,-242.999 164.237,-252.269 180,-257 224.368,-270.317 278.352,-270.473 312.455,-268.737"/>
<polygon fill="midnightblue" stroke="midnightblue" points="137.782,-231.715 127.587,-228.832 133.759,-237.444 137.782,-231.715"/>
</g>
<!-- Node13&#45;&gt;Node7 -->
<g id="edge24" class="edge"><title>Node13&#45;&gt;Node7</title>
<path fill="none" stroke="midnightblue" d="M365.865,-249.168C391.556,-224.964 438.104,-181.109 458.71,-161.695"/>
<polygon fill="midnightblue" stroke="midnightblue" points="363.195,-246.876 358.316,-256.28 367.995,-251.97 363.195,-246.876"/>
</g>
<!-- Node14&#45;&gt;Node4 -->
<g id="edge26" class="edge"><title>Node14&#45;&gt;Node4</title>
<path fill="none" stroke="midnightblue" d="M238.053,-27.3779C264.129,-57.482 316.886,-118.388 337.487,-142.171"/>
<polygon fill="midnightblue" stroke="midnightblue" points="240.647,-25.0273 231.454,-19.7602 235.356,-29.6105 240.647,-25.0273"/>
</g>
<!-- Node14&#45;&gt;Node11 -->
<g id="edge27" class="edge"><title>Node14&#45;&gt;Node11</title>
<path fill="none" stroke="midnightblue" d="M257.325,-23.1162C277.441,-30.8026 302.411,-40.3442 320.724,-47.3417"/>
<polygon fill="midnightblue" stroke="midnightblue" points="258.481,-19.8112 247.891,-19.5112 255.983,-26.3501 258.481,-19.8112"/>
</g>
</g>
</svg>
        <g id="navigator" transform="translate(0 0)" fill="#404254">
                <rect fill="#f2f5e9" fill-opacity="0.5" stroke="#606060" stroke-width=".5" x="0" y="0" width="60" height="60"/>
                <use id="zoomplus" xlink:href="#zoomPlus" x="17" y="9" onmousedown="handleZoom(evt,'in')"/>
                <use id="zoomminus" xlink:href="#zoomMin" x="42" y="9" onmousedown="handleZoom(evt,'out')"/>
                <use id="reset" xlink:href="#resetDef" x="30" y="36" onmousedown="handleReset()"/>
                <g id="arrowUp" xlink:href="#dirArrow" transform="translate(30 24)" onmousedown="handlePan(0,-1)">
                  <use xlink:href="#rim" fill="#404040">
                        <set attributeName="fill" to="#808080" begin="arrowUp.mouseover" end="arrowUp.mouseout"/>
                  </use>
                  <path fill="none" stroke="white" stroke-width="1.5" d="M0,-3.0v7 M-2.5,-0.5L0,-3.0L2.5,-0.5"/>
                </g>
                <g id="arrowRight" xlink:href="#dirArrow" transform="rotate(90) translate(36 -43)" onmousedown="handlePan(1,0)">
                  <use xlink:href="#rim" fill="#404040">
                        <set attributeName="fill" to="#808080" begin="arrowRight.mouseover" end="arrowRight.mouseout"/>
                  </use>
                  <path fill="none" stroke="white" stroke-width="1.5" d="M0,-3.0v7 M-2.5,-0.5L0,-3.0L2.5,-0.5"/>
                </g>
                <g id="arrowDown" xlink:href="#dirArrow" transform="rotate(180) translate(-30 -48)" onmousedown="handlePan(0,1)">
                  <use xlink:href="#rim" fill="#404040">
                        <set attributeName="fill" to="#808080" begin="arrowDown.mouseover" end="arrowDown.mouseout"/>
                  </use>
                  <path fill="none" stroke="white" stroke-width="1.5" d="M0,-3.0v7 M-2.5,-0.5L0,-3.0L2.5,-0.5"/>
                </g>
                <g id="arrowLeft" xlink:href="#dirArrow" transform="rotate(270) translate(-36 17)" onmousedown="handlePan(-1,0)">
                  <use xlink:href="#rim" fill="#404040">
                        <set attributeName="fill" to="#808080" begin="arrowLeft.mouseover" end="arrowLeft.mouseout"/>
                  </use>
                  <path fill="none" stroke="white" stroke-width="1.5" d="M0,-3.0v7 M-2.5,-0.5L0,-3.0L2.5,-0.5"/>
                </g>
        </g>
        <svg viewBox="0 0 15 15" width="100%" height="30px" preserveAspectRatio="xMaxYMin meet">
         <g id="arrow_out" transform="scale(0.3 0.3)">
          <a xlink:href="reader_8c_a04707e6fc9527eaf37d68dafdc9483a9_icgraph_org.svg" target="_base">
           <rect id="button" ry="5" rx="5" y="6" x="6" height="38" width="38"
                fill="#f2f5e9" fill-opacity="0.5" stroke="#606060" stroke-width="1.0"/>
           <path id="arrow"
             d="M 11.500037,31.436501 C 11.940474,20.09759 22.043105,11.32322 32.158766,21.979434 L 37.068811,17.246167 C 37.068811,17.246167 37.088388,32 37.088388,32 L 22.160133,31.978069 C 22.160133,31.978069 26.997745,27.140456 26.997745,27.140456 C 18.528582,18.264221 13.291696,25.230495 11.500037,31.436501 z"
             style="fill:#404040;"/>
          </a>
         </g>
        </svg>
</svg>
