<?xml version="1.0" encoding="UTF-8" standalone="no"?>
<!DOCTYPE svg PUBLIC "-//W3C//DTD SVG 1.1//EN"
 "http://www.w3.org/Graphics/SVG/1.1/DTD/svg11.dtd">
<!-- Generated by graphviz version 2.36.0 (20140111.2315)
 -->
<!-- Title: insert_empty_rule Pages: 1 -->
<svg width="386pt" height="104pt"
 viewBox="0.00 0.00 386.00 104.00" xmlns="http://www.w3.org/2000/svg" xmlns:xlink="http://www.w3.org/1999/xlink">
<g id="graph0" class="graph" transform="scale(1 1) rotate(0) translate(4 100)">
<title>insert_empty_rule</title>
<polygon fill="white" stroke="none" points="-4,4 -4,-100 382,-100 382,4 -4,4"/>
<!-- Node1 -->
<g id="node1" class="node"><title>Node1</title>
<polygon fill="#bfbfbf" stroke="black" points="0,-38.5 0,-57.5 94,-57.5 94,-38.5 0,-38.5"/>
<text text-anchor="middle" x="47" y="-45.5" font-family="Helvetica,sans-Serif" font-size="10.00">insert_empty_rule</text>
</g>
<!-- Node2 -->
<g id="node2" class="node"><title>Node2</title>
<g id="a_node2"><a xlink:href="reader_8c.html#a2d5a55a1a526ac853c3234ea51ee18f8" target="_top" xlink:title="expand_items">
<polygon fill="white" stroke="black" points="130.5,-76.5 130.5,-95.5 207.5,-95.5 207.5,-76.5 130.5,-76.5"/>
<text text-anchor="middle" x="169" y="-83.5" font-family="Helvetica,sans-Serif" font-size="10.00">expand_items</text>
</a>
</g>
</g>
<!-- Node1&#45;&gt;Node2 -->
<g id="edge1" class="edge"><title>Node1&#45;&gt;Node2</title>
<path fill="none" stroke="midnightblue" d="M78.2811,-57.589C93.3456,-62.3594 111.754,-68.1888 127.967,-73.3229"/>
<polygon fill="midnightblue" stroke="midnightblue" points="127.139,-76.7318 137.729,-76.4141 129.252,-70.0584 127.139,-76.7318"/>
</g>
<!-- Node5 -->
<g id="node5" class="node"><title>Node5</title>
<g id="a_node5"><a xlink:href="reader_8c.html#a26f803a6175f255b34b89151133c51f6" target="_top" xlink:title="expand_rules">
<polygon fill="white" stroke="black" points="132,-38.5 132,-57.5 206,-57.5 206,-38.5 132,-38.5"/>
<text text-anchor="middle" x="169" y="-45.5" font-family="Helvetica,sans-Serif" font-size="10.00">expand_rules</text>
</a>
</g>
</g>
<!-- Node1&#45;&gt;Node5 -->
<g id="edge4" class="edge"><title>Node1&#45;&gt;Node5</title>
<path fill="none" stroke="midnightblue" d="M94.0519,-48C103.176,-48 112.756,-48 121.882,-48"/>
<polygon fill="midnightblue" stroke="midnightblue" points="121.945,-51.5001 131.945,-48 121.945,-44.5001 121.945,-51.5001"/>
</g>
<!-- Node6 -->
<g id="node6" class="node"><title>Node6</title>
<g id="a_node6"><a xlink:href="defs_8h.html#ae2d24c742f22bea84ba3c02349ca8e9b" target="_top" xlink:title="make_bucket">
<polygon fill="white" stroke="black" points="131.5,-0.5 131.5,-19.5 206.5,-19.5 206.5,-0.5 131.5,-0.5"/>
<text text-anchor="middle" x="169" y="-7.5" font-family="Helvetica,sans-Serif" font-size="10.00">make_bucket</text>
</a>
</g>
</g>
<!-- Node1&#45;&gt;Node6 -->
<g id="edge6" class="edge"><title>Node1&#45;&gt;Node6</title>
<path fill="none" stroke="midnightblue" d="M78.2811,-38.411C93.3456,-33.6406 111.754,-27.8112 127.967,-22.6771"/>
<polygon fill="midnightblue" stroke="midnightblue" points="129.252,-25.9416 137.729,-19.5859 127.139,-19.2682 129.252,-25.9416"/>
</g>
<!-- Node3 -->
<g id="node3" class="node"><title>Node3</title>
<g id="a_node3"><a xlink:href="group__eh.html#ga03b3d711852aa32c4076f12ea7bb93a4" target="_top" xlink:title="no_space">
<polygon fill="white" stroke="black" points="244.5,-57.5 244.5,-76.5 303.5,-76.5 303.5,-57.5 244.5,-57.5"/>
<text text-anchor="middle" x="274" y="-64.5" font-family="Helvetica,sans-Serif" font-size="10.00">no_space</text>
</a>
</g>
</g>
<!-- Node2&#45;&gt;Node3 -->
<g id="edge2" class="edge"><title>Node2&#45;&gt;Node3</title>
<path fill="none" stroke="midnightblue" d="M207.769,-79.033C216.435,-77.4344 225.66,-75.7326 234.362,-74.1274"/>
<polygon fill="midnightblue" stroke="midnightblue" points="235.073,-77.5553 244.272,-72.2993 233.803,-70.6715 235.073,-77.5553"/>
</g>
<!-- Node4 -->
<g id="node4" class="node"><title>Node4</title>
<g id="a_node4"><a xlink:href="group__eh.html#ga67b6b9fd02aac96bef4297b1e6a1789a" target="_top" xlink:title="Shutdown function. ">
<polygon fill="white" stroke="black" points="340,-57.5 340,-76.5 378,-76.5 378,-57.5 340,-57.5"/>
<text text-anchor="middle" x="359" y="-64.5" font-family="Helvetica,sans-Serif" font-size="10.00">done</text>
</a>
</g>
</g>
<!-- Node3&#45;&gt;Node4 -->
<g id="edge3" class="edge"><title>Node3&#45;&gt;Node4</title>
<path fill="none" stroke="midnightblue" d="M303.564,-67C312.005,-67 321.238,-67 329.665,-67"/>
<polygon fill="midnightblue" stroke="midnightblue" points="329.785,-70.5001 339.785,-67 329.785,-63.5001 329.785,-70.5001"/>
</g>
<!-- Node5&#45;&gt;Node3 -->
<g id="edge5" class="edge"><title>Node5&#45;&gt;Node3</title>
<path fill="none" stroke="midnightblue" d="M206.024,-54.6453C215.129,-56.3247 224.944,-58.1354 234.18,-59.839"/>
<polygon fill="midnightblue" stroke="midnightblue" points="233.823,-63.3321 244.292,-61.7043 235.093,-56.4482 233.823,-63.3321"/>
</g>
</g>
</svg>
