<?xml version="1.0" encoding="UTF-8" standalone="no"?>
<!DOCTYPE svg PUBLIC "-//W3C//DTD SVG 1.1//EN"
 "http://www.w3.org/Graphics/SVG/1.1/DTD/svg11.dtd">
<!-- Generated by graphviz version 2.36.0 (20140111.2315)
 -->
<!-- Title: copy_action Pages: 1 -->
<svg width="666pt" height="755pt"
 viewBox="0.00 0.00 666.00 754.77" xmlns="http://www.w3.org/2000/svg" xmlns:xlink="http://www.w3.org/1999/xlink">
<g id="graph0" class="graph" transform="scale(1 1) rotate(0) translate(4 750.768)">
<title>copy_action</title>
<polygon fill="white" stroke="none" points="-4,4 -4,-750.768 662,-750.768 662,4 -4,4"/>
<!-- Node1 -->
<g id="node1" class="node"><title>Node1</title>
<polygon fill="#bfbfbf" stroke="black" points="0.5,-296.788 0.5,-315.788 69.5,-315.788 69.5,-296.788 0.5,-296.788"/>
<text text-anchor="middle" x="35" y="-303.788" font-family="Helvetica,sans-Serif" font-size="10.00">copy_action</text>
</g>
<!-- Node2 -->
<g id="node2" class="node"><title>Node2</title>
<g id="a_node2"><a xlink:href="error_8c.html#aa7751e4500f0f24aba5df3a1da874632" target="_top" xlink:title="dollar_error">
<polygon fill="white" stroke="black" points="249.5,-258.788 249.5,-277.788 314.5,-277.788 314.5,-258.788 249.5,-258.788"/>
<text text-anchor="middle" x="282" y="-265.788" font-family="Helvetica,sans-Serif" font-size="10.00">dollar_error</text>
</a>
</g>
</g>
<!-- Node1&#45;&gt;Node2 -->
<g id="edge1" class="edge"><title>Node1&#45;&gt;Node2</title>
<path fill="none" stroke="midnightblue" d="M69.7471,-299.106C81.2243,-296.778 94.1453,-294.285 106,-292.288 151.414,-284.64 203.768,-277.706 239.292,-273.28"/>
<polygon fill="midnightblue" stroke="midnightblue" points="239.802,-276.744 249.297,-272.045 238.944,-269.797 239.802,-276.744"/>
</g>
<!-- Node5 -->
<g id="node5" class="node"><title>Node5</title>
<g id="a_node5"><a xlink:href="error_8c.html#ae78233a24912be6e0e72a1446c3058cd" target="_top" xlink:title="dollar_warning">
<polygon fill="white" stroke="black" points="106.5,-695.788 106.5,-714.788 185.5,-714.788 185.5,-695.788 106.5,-695.788"/>
<text text-anchor="middle" x="146" y="-702.788" font-family="Helvetica,sans-Serif" font-size="10.00">dollar_warning</text>
</a>
</g>
</g>
<!-- Node1&#45;&gt;Node5 -->
<g id="edge4" class="edge"><title>Node1&#45;&gt;Node5</title>
<path fill="none" stroke="midnightblue" d="M36.739,-315.837C40.9308,-368.033 63.0669,-618.781 106,-681.288 108.265,-684.586 111.145,-687.514 114.313,-690.091"/>
<polygon fill="midnightblue" stroke="midnightblue" points="112.366,-692.999 122.589,-695.782 116.333,-687.232 112.366,-692.999"/>
</g>
<!-- Node6 -->
<g id="node6" class="node"><title>Node6</title>
<g id="a_node6"><a xlink:href="reader_8c.html#a416a4e795e86e5666f1a734793f9636e" target="_top" xlink:title="dup_line">
<polygon fill="white" stroke="black" points="255.5,-714.788 255.5,-733.788 308.5,-733.788 308.5,-714.788 255.5,-714.788"/>
<text text-anchor="middle" x="282" y="-721.788" font-family="Helvetica,sans-Serif" font-size="10.00">dup_line</text>
</a>
</g>
</g>
<!-- Node1&#45;&gt;Node6 -->
<g id="edge5" class="edge"><title>Node1&#45;&gt;Node6</title>
<path fill="none" stroke="midnightblue" d="M36.0165,-315.898C36.3351,-373.219 41.1335,-669.382 106,-724.288 144.424,-756.813 206.42,-747.235 245.378,-736.43"/>
<polygon fill="midnightblue" stroke="midnightblue" points="246.629,-739.711 255.236,-733.534 244.655,-732.995 246.629,-739.711"/>
</g>
<!-- Node8 -->
<g id="node8" class="node"><title>Node8</title>
<g id="a_node8"><a xlink:href="reader_8c.html#a204317aa3b6d154f1abff12df35953df" target="_top" xlink:title="get_line">
<polygon fill="white" stroke="black" points="392,-562.788 392,-581.788 442,-581.788 442,-562.788 392,-562.788"/>
<text text-anchor="middle" x="417" y="-569.788" font-family="Helvetica,sans-Serif" font-size="10.00">get_line</text>
</a>
</g>
</g>
<!-- Node1&#45;&gt;Node8 -->
<g id="edge8" class="edge"><title>Node1&#45;&gt;Node8</title>
<path fill="none" stroke="midnightblue" d="M35.8155,-316.021C35.6116,-353.599 39.6283,-491.162 106,-572.288 174.327,-655.804 240.238,-665.178 342,-629.288 361.376,-622.455 361.726,-612.83 378,-600.288 383.282,-596.218 389.046,-591.906 394.451,-587.918"/>
<polygon fill="midnightblue" stroke="midnightblue" points="396.532,-590.731 402.529,-581.997 392.395,-585.085 396.532,-590.731"/>
</g>
<!-- Node9 -->
<g id="node9" class="node"><title>Node9</title>
<g id="a_node9"><a xlink:href="reader_8c.html#aceeb8c6c5418f8ac9c9b5666f4047ae3" target="_top" xlink:title="get_number">
<polygon fill="white" stroke="black" points="112,-372.788 112,-391.788 180,-391.788 180,-372.788 112,-372.788"/>
<text text-anchor="middle" x="146" y="-379.788" font-family="Helvetica,sans-Serif" font-size="10.00">get_number</text>
</a>
</g>
</g>
<!-- Node1&#45;&gt;Node9 -->
<g id="edge10" class="edge"><title>Node1&#45;&gt;Node9</title>
<path fill="none" stroke="midnightblue" d="M48.1566,-315.825C61.9364,-326.516 85.192,-344.197 106,-358.288 110.412,-361.277 115.188,-364.346 119.834,-367.248"/>
<polygon fill="midnightblue" stroke="midnightblue" points="118.127,-370.307 128.479,-372.559 121.791,-364.342 118.127,-370.307"/>
</g>
<!-- Node10 -->
<g id="node10" class="node"><title>Node10</title>
<g id="a_node10"><a xlink:href="reader_8c.html#a0d5a7fe7641edf38078ba5e99536772d" target="_top" xlink:title="get_tag">
<polygon fill="white" stroke="black" points="121.5,-543.788 121.5,-562.788 170.5,-562.788 170.5,-543.788 121.5,-543.788"/>
<text text-anchor="middle" x="146" y="-550.788" font-family="Helvetica,sans-Serif" font-size="10.00">get_tag</text>
</a>
</g>
</g>
<!-- Node1&#45;&gt;Node10 -->
<g id="edge11" class="edge"><title>Node1&#45;&gt;Node10</title>
<path fill="none" stroke="midnightblue" d="M40.2729,-315.971C56.5517,-352.86 114.866,-485.003 136.683,-534.442"/>
<polygon fill="midnightblue" stroke="midnightblue" points="133.517,-535.937 140.757,-543.673 139.921,-533.111 133.517,-535.937"/>
</g>
<!-- Node16 -->
<g id="node16" class="node"><title>Node16</title>
<g id="a_node16"><a xlink:href="reader_8c.html#ac59b5c8d9dca9fc4b2614fd186ec6c55" target="_top" xlink:title="insert_empty_rule">
<polygon fill="white" stroke="black" points="235,-391.788 235,-410.788 329,-410.788 329,-391.788 235,-391.788"/>
<text text-anchor="middle" x="282" y="-398.788" font-family="Helvetica,sans-Serif" font-size="10.00">insert_empty_rule</text>
</a>
</g>
</g>
<!-- Node1&#45;&gt;Node16 -->
<g id="edge24" class="edge"><title>Node1&#45;&gt;Node16</title>
<path fill="none" stroke="midnightblue" d="M61.5309,-315.836C91.4226,-327.05 142.396,-346.284 186,-363.288 206.622,-371.33 229.676,-380.546 247.908,-387.888"/>
<polygon fill="midnightblue" stroke="midnightblue" points="246.646,-391.153 257.23,-391.648 249.265,-384.661 246.646,-391.153"/>
</g>
<!-- Node20 -->
<g id="node20" class="node"><title>Node20</title>
<g id="a_node20"><a xlink:href="error_8c.html#a69399ed8e91ea487b50fb9ce29d9dfe7" target="_top" xlink:title="unknown_rhs">
<polygon fill="white" stroke="black" points="501,-296.788 501,-315.788 575,-315.788 575,-296.788 501,-296.788"/>
<text text-anchor="middle" x="538" y="-303.788" font-family="Helvetica,sans-Serif" font-size="10.00">unknown_rhs</text>
</a>
</g>
</g>
<!-- Node1&#45;&gt;Node20 -->
<g id="edge30" class="edge"><title>Node1&#45;&gt;Node20</title>
<path fill="none" stroke="midnightblue" d="M69.65,-306.288C156.951,-306.288 390.84,-306.288 490.735,-306.288"/>
<polygon fill="midnightblue" stroke="midnightblue" points="490.825,-309.789 500.825,-306.288 490.824,-302.789 490.825,-309.789"/>
</g>
<!-- Node21 -->
<g id="node21" class="node"><title>Node21</title>
<g id="a_node21"><a xlink:href="error_8c.html#a150e9a905e4ecaf20109c91b6de62383" target="_top" xlink:title="unterminated_action">
<polygon fill="white" stroke="black" points="230,-220.788 230,-239.788 334,-239.788 334,-220.788 230,-220.788"/>
<text text-anchor="middle" x="282" y="-227.788" font-family="Helvetica,sans-Serif" font-size="10.00">unterminated_action</text>
</a>
</g>
</g>
<!-- Node1&#45;&gt;Node21 -->
<g id="edge32" class="edge"><title>Node1&#45;&gt;Node21</title>
<path fill="none" stroke="midnightblue" d="M56.2098,-296.684C70.0262,-290.353 88.8692,-282.175 106,-276.288 146.154,-262.491 192.689,-250.441 227.674,-242.138"/>
<polygon fill="midnightblue" stroke="midnightblue" points="228.743,-245.482 237.679,-239.791 227.144,-238.668 228.743,-245.482"/>
</g>
<!-- Node22 -->
<g id="node22" class="node"><title>Node22</title>
<g id="a_node22"><a xlink:href="error_8c.html#a81c4e76cf37319065a21afcaec1b8ab1" target="_top" xlink:title="unterminated_comment">
<polygon fill="white" stroke="black" points="222.5,-182.788 222.5,-201.788 341.5,-201.788 341.5,-182.788 222.5,-182.788"/>
<text text-anchor="middle" x="282" y="-189.788" font-family="Helvetica,sans-Serif" font-size="10.00">unterminated_comment</text>
</a>
</g>
</g>
<!-- Node1&#45;&gt;Node22 -->
<g id="edge35" class="edge"><title>Node1&#45;&gt;Node22</title>
<path fill="none" stroke="midnightblue" d="M45.5789,-296.514C58.3306,-283.996 82.0684,-262.362 106,-249.288 144.191,-228.425 191.278,-213.628 226.985,-204.347"/>
<polygon fill="midnightblue" stroke="midnightblue" points="227.904,-207.725 236.738,-201.876 226.184,-200.94 227.904,-207.725"/>
</g>
<!-- Node23 -->
<g id="node23" class="node"><title>Node23</title>
<g id="a_node23"><a xlink:href="error_8c.html#a1be74faa1a912de2fd380aa9a4de6eb2" target="_top" xlink:title="unterminated_string">
<polygon fill="white" stroke="black" points="231,-144.788 231,-163.788 333,-163.788 333,-144.788 231,-144.788"/>
<text text-anchor="middle" x="282" y="-151.788" font-family="Helvetica,sans-Serif" font-size="10.00">unterminated_string</text>
</a>
</g>
</g>
<!-- Node1&#45;&gt;Node23 -->
<g id="edge38" class="edge"><title>Node1&#45;&gt;Node23</title>
<path fill="none" stroke="midnightblue" d="M40.7061,-296.497C50.3229,-277.497 74.0465,-235.465 106,-212.288 139.985,-187.639 185.086,-173.022 220.99,-164.628"/>
<polygon fill="midnightblue" stroke="midnightblue" points="221.861,-168.02 230.856,-162.423 220.334,-161.189 221.861,-168.02"/>
</g>
<!-- Node24 -->
<g id="node24" class="node"><title>Node24</title>
<g id="a_node24"><a xlink:href="error_8c.html#af3c15789267651b6cf6063963c3e1a47" target="_top" xlink:title="untyped_lhs">
<polygon fill="white" stroke="black" points="503.5,-68.7885 503.5,-87.7885 572.5,-87.7885 572.5,-68.7885 503.5,-68.7885"/>
<text text-anchor="middle" x="538" y="-75.7885" font-family="Helvetica,sans-Serif" font-size="10.00">untyped_lhs</text>
</a>
</g>
</g>
<!-- Node1&#45;&gt;Node24 -->
<g id="edge41" class="edge"><title>Node1&#45;&gt;Node24</title>
<path fill="none" stroke="midnightblue" d="M38.2852,-296.485C44.5733,-271.695 64.4899,-206.017 106,-171.288 219.847,-76.04 408.513,-71.7275 493.331,-75.2382"/>
<polygon fill="midnightblue" stroke="midnightblue" points="493.236,-78.7375 503.389,-75.7123 493.565,-71.7453 493.236,-78.7375"/>
</g>
<!-- Node25 -->
<g id="node25" class="node"><title>Node25</title>
<g id="a_node25"><a xlink:href="error_8c.html#a379bc1d52c8597f3914fc3937a6fecda" target="_top" xlink:title="untyped_rhs">
<polygon fill="white" stroke="black" points="111,-30.7885 111,-49.7885 181,-49.7885 181,-30.7885 111,-30.7885"/>
<text text-anchor="middle" x="146" y="-37.7885" font-family="Helvetica,sans-Serif" font-size="10.00">untyped_rhs</text>
</a>
</g>
</g>
<!-- Node1&#45;&gt;Node25 -->
<g id="edge43" class="edge"><title>Node1&#45;&gt;Node25</title>
<path fill="none" stroke="midnightblue" d="M36.3779,-296.409C38.1951,-261.185 48.5363,-139.822 106,-64.2885 108.474,-61.0359 111.528,-58.1218 114.828,-55.5414"/>
<polygon fill="midnightblue" stroke="midnightblue" points="117.003,-58.2962 123.349,-49.812 113.098,-52.4872 117.003,-58.2962"/>
</g>
<!-- Node3 -->
<g id="node3" class="node"><title>Node3</title>
<g id="a_node3"><a xlink:href="main_8c.html#a67b6b9fd02aac96bef4297b1e6a1789a" target="_top" xlink:title="done">
<polygon fill="white" stroke="black" points="620,-239.788 620,-258.788 658,-258.788 658,-239.788 620,-239.788"/>
<text text-anchor="middle" x="639" y="-246.788" font-family="Helvetica,sans-Serif" font-size="10.00">done</text>
</a>
</g>
</g>
<!-- Node2&#45;&gt;Node3 -->
<g id="edge2" class="edge"><title>Node2&#45;&gt;Node3</title>
<path fill="none" stroke="midnightblue" d="M314.504,-266.602C382.98,-262.937 544.468,-254.294 609.816,-250.797"/>
<polygon fill="midnightblue" stroke="midnightblue" points="610.005,-254.292 619.804,-250.262 609.631,-247.302 610.005,-254.292"/>
</g>
<!-- Node4 -->
<g id="node4" class="node"><title>Node4</title>
<g id="a_node4"><a xlink:href="error_8c.html#a3c01cc3498c6cb3655588b53da0e8f7e" target="_top" xlink:title="print_pos">
<polygon fill="white" stroke="black" points="389,-182.788 389,-201.788 445,-201.788 445,-182.788 389,-182.788"/>
<text text-anchor="middle" x="417" y="-189.788" font-family="Helvetica,sans-Serif" font-size="10.00">print_pos</text>
</a>
</g>
</g>
<!-- Node2&#45;&gt;Node4 -->
<g id="edge3" class="edge"><title>Node2&#45;&gt;Node4</title>
<path fill="none" stroke="midnightblue" d="M314.742,-260.27C323.808,-257.399 333.522,-253.745 342,-249.288 362.879,-238.314 383.921,-221.409 398.201,-208.856"/>
<polygon fill="midnightblue" stroke="midnightblue" points="400.679,-211.335 405.774,-202.046 395.998,-206.129 400.679,-211.335"/>
</g>
<!-- Node7 -->
<g id="node7" class="node"><title>Node7</title>
<g id="a_node7"><a xlink:href="error_8c.html#a03b3d711852aa32c4076f12ea7bb93a4" target="_top" xlink:title="no_space">
<polygon fill="white" stroke="black" points="508.5,-486.788 508.5,-505.788 567.5,-505.788 567.5,-486.788 508.5,-486.788"/>
<text text-anchor="middle" x="538" y="-493.788" font-family="Helvetica,sans-Serif" font-size="10.00">no_space</text>
</a>
</g>
</g>
<!-- Node6&#45;&gt;Node7 -->
<g id="edge6" class="edge"><title>Node6&#45;&gt;Node7</title>
<path fill="none" stroke="midnightblue" d="M308.719,-716.225C319.461,-712.261 331.79,-706.9 342,-700.288 423.856,-647.282 496.306,-553.379 524.493,-514.218"/>
<polygon fill="midnightblue" stroke="midnightblue" points="527.461,-516.083 530.401,-505.904 521.755,-512.029 527.461,-516.083"/>
</g>
<!-- Node7&#45;&gt;Node3 -->
<g id="edge7" class="edge"><title>Node7&#45;&gt;Node3</title>
<path fill="none" stroke="midnightblue" d="M542.881,-486.606C557.635,-449.794 610.409,-318.126 630.321,-268.446"/>
<polygon fill="midnightblue" stroke="midnightblue" points="633.674,-269.489 634.146,-258.904 627.177,-266.884 633.674,-269.489"/>
</g>
<!-- Node8&#45;&gt;Node7 -->
<g id="edge9" class="edge"><title>Node8&#45;&gt;Node7</title>
<path fill="none" stroke="midnightblue" d="M438.417,-562.781C444.196,-559.902 450.428,-556.617 456,-553.288 477.3,-540.566 500.319,-524.079 516.355,-512.112"/>
<polygon fill="midnightblue" stroke="midnightblue" points="518.61,-514.794 524.49,-505.981 514.397,-509.204 518.61,-514.794"/>
</g>
<!-- Node10&#45;&gt;Node6 -->
<g id="edge12" class="edge"><title>Node10&#45;&gt;Node6</title>
<path fill="none" stroke="midnightblue" d="M152.938,-562.981C165.034,-582.469 193.778,-627.505 222,-662.288 235.056,-678.379 251.395,-695.337 263.567,-707.443"/>
<polygon fill="midnightblue" stroke="midnightblue" points="261.302,-710.125 270.887,-714.64 266.21,-705.133 261.302,-710.125"/>
</g>
<!-- Node10&#45;&gt;Node7 -->
<g id="edge22" class="edge"><title>Node10&#45;&gt;Node7</title>
<path fill="none" stroke="midnightblue" d="M170.506,-546.956C185.218,-543.165 204.615,-538.479 222,-535.288 320.68,-517.176 438.328,-505.1 498.049,-499.636"/>
<polygon fill="midnightblue" stroke="midnightblue" points="498.519,-503.108 508.164,-498.723 497.89,-496.136 498.519,-503.108"/>
</g>
<!-- Node11 -->
<g id="node11" class="node"><title>Node11</title>
<g id="a_node11"><a xlink:href="reader_8c.html#a11446424d65669df0f3a9e3b1cca57fa" target="_top" xlink:title="nextc">
<polygon fill="white" stroke="red" points="261.5,-600.788 261.5,-619.788 302.5,-619.788 302.5,-600.788 261.5,-600.788"/>
<text text-anchor="middle" x="282" y="-607.788" font-family="Helvetica,sans-Serif" font-size="10.00">nextc</text>
</a>
</g>
</g>
<!-- Node10&#45;&gt;Node11 -->
<g id="edge13" class="edge"><title>Node10&#45;&gt;Node11</title>
<path fill="none" stroke="midnightblue" d="M163.917,-562.828C178.888,-571.034 201.481,-582.848 222,-591.288 231.428,-595.167 241.958,-598.777 251.483,-601.785"/>
<polygon fill="midnightblue" stroke="midnightblue" points="250.738,-605.218 261.324,-604.799 252.787,-598.524 250.738,-605.218"/>
</g>
<!-- Node12 -->
<g id="node12" class="node"><title>Node12</title>
<g id="a_node12"><a xlink:href="error_8c.html#a65962bc9ddf21cd2dc0b5f6b7dcb35fc" target="_top" xlink:title="unexpected_EOF">
<polygon fill="white" stroke="black" points="492,-581.788 492,-600.788 584,-600.788 584,-581.788 492,-581.788"/>
<text text-anchor="middle" x="538" y="-588.788" font-family="Helvetica,sans-Serif" font-size="10.00">unexpected_EOF</text>
</a>
</g>
</g>
<!-- Node10&#45;&gt;Node12 -->
<g id="edge15" class="edge"><title>Node10&#45;&gt;Node12</title>
<path fill="none" stroke="midnightblue" d="M152.732,-562.858C163.662,-580.047 189.334,-615.631 222,-629.288 319.765,-670.164 448.472,-628.15 506.413,-604.74"/>
<polygon fill="midnightblue" stroke="midnightblue" points="507.835,-607.939 515.739,-600.883 505.16,-601.47 507.835,-607.939"/>
</g>
<!-- Node13 -->
<g id="node13" class="node"><title>Node13</title>
<g id="a_node13"><a xlink:href="error_8c.html#a3abdd7162e1bf8338bfc5c31c590ffe1" target="_top" xlink:title="illegal_tag">
<polygon fill="white" stroke="black" points="252,-334.788 252,-353.788 312,-353.788 312,-334.788 252,-334.788"/>
<text text-anchor="middle" x="282" y="-341.788" font-family="Helvetica,sans-Serif" font-size="10.00">illegal_tag</text>
</a>
</g>
</g>
<!-- Node10&#45;&gt;Node13 -->
<g id="edge17" class="edge"><title>Node10&#45;&gt;Node13</title>
<path fill="none" stroke="midnightblue" d="M149.116,-543.727C155.659,-515.974 177.834,-434.094 222,-382.288 230.009,-372.894 240.92,-364.984 251.182,-358.854"/>
<polygon fill="midnightblue" stroke="midnightblue" points="252.938,-361.882 259.943,-353.933 249.51,-355.779 252.938,-361.882"/>
</g>
<!-- Node14 -->
<g id="node14" class="node"><title>Node14</title>
<g id="a_node14"><a xlink:href="reader_8c.html#a04707e6fc9527eaf37d68dafdc9483a9" target="_top" xlink:title="cachec">
<polygon fill="white" stroke="black" points="393,-524.788 393,-543.788 441,-543.788 441,-524.788 393,-524.788"/>
<text text-anchor="middle" x="417" y="-531.788" font-family="Helvetica,sans-Serif" font-size="10.00">cachec</text>
</a>
</g>
</g>
<!-- Node10&#45;&gt;Node14 -->
<g id="edge20" class="edge"><title>Node10&#45;&gt;Node14</title>
<path fill="none" stroke="midnightblue" d="M170.872,-551.602C218.97,-548.205 327.628,-540.53 382.684,-536.642"/>
<polygon fill="midnightblue" stroke="midnightblue" points="383.219,-540.113 392.947,-535.917 382.725,-533.13 383.219,-540.113"/>
</g>
<!-- Node15 -->
<g id="node15" class="node"><title>Node15</title>
<g id="a_node15"><a xlink:href="defs_8h.html#add539a5755e4c4070b0c8ca97477fe47" target="_top" xlink:title="strcpy">
<polygon fill="white" stroke="black" points="260,-562.788 260,-581.788 304,-581.788 304,-562.788 260,-562.788"/>
<text text-anchor="middle" x="282" y="-569.788" font-family="Helvetica,sans-Serif" font-size="10.00">strcpy</text>
</a>
</g>
</g>
<!-- Node10&#45;&gt;Node15 -->
<g id="edge23" class="edge"><title>Node10&#45;&gt;Node15</title>
<path fill="none" stroke="midnightblue" d="M170.648,-556.642C192.639,-559.76 225.549,-564.426 249.708,-567.852"/>
<polygon fill="midnightblue" stroke="midnightblue" points="249.403,-571.343 259.795,-569.282 250.385,-564.413 249.403,-571.343"/>
</g>
<!-- Node11&#45;&gt;Node8 -->
<g id="edge14" class="edge"><title>Node11&#45;&gt;Node8</title>
<path fill="none" stroke="midnightblue" d="M302.625,-604.681C323.455,-598.73 356.771,-589.211 381.909,-582.029"/>
<polygon fill="midnightblue" stroke="midnightblue" points="383.126,-585.321 391.78,-579.209 381.203,-578.591 383.126,-585.321"/>
</g>
<!-- Node12&#45;&gt;Node3 -->
<g id="edge16" class="edge"><title>Node12&#45;&gt;Node3</title>
<path fill="none" stroke="midnightblue" d="M546.256,-581.516C556.269,-567.554 574.195,-540.761 584,-515.288 617.947,-427.095 631.846,-313.842 636.275,-268.913"/>
<polygon fill="midnightblue" stroke="midnightblue" points="639.775,-269.077 637.223,-258.794 632.805,-268.424 639.775,-269.077"/>
</g>
<!-- Node13&#45;&gt;Node3 -->
<g id="edge18" class="edge"><title>Node13&#45;&gt;Node3</title>
<path fill="none" stroke="midnightblue" d="M312.234,-350.257C368.808,-360.21 495.478,-374.576 584,-325.288 606.566,-312.724 621.981,-286.295 630.392,-268.167"/>
<polygon fill="midnightblue" stroke="midnightblue" points="633.663,-269.421 634.441,-258.855 627.243,-266.63 633.663,-269.421"/>
</g>
<!-- Node13&#45;&gt;Node4 -->
<g id="edge19" class="edge"><title>Node13&#45;&gt;Node4</title>
<path fill="none" stroke="midnightblue" d="M293.889,-334.627C306.079,-323.618 326.195,-304.871 342,-287.288 365.045,-261.652 389.103,-229.629 403.309,-210.082"/>
<polygon fill="midnightblue" stroke="midnightblue" points="406.264,-211.967 409.273,-201.808 400.586,-207.873 406.264,-211.967"/>
</g>
<!-- Node14&#45;&gt;Node7 -->
<g id="edge21" class="edge"><title>Node14&#45;&gt;Node7</title>
<path fill="none" stroke="midnightblue" d="M441.227,-526.871C457.585,-521.648 479.858,-514.536 498.808,-508.484"/>
<polygon fill="midnightblue" stroke="midnightblue" points="499.905,-511.808 508.366,-505.432 497.776,-505.14 499.905,-511.808"/>
</g>
<!-- Node17 -->
<g id="node17" class="node"><title>Node17</title>
<g id="a_node17"><a xlink:href="defs_8h.html#ae2d24c742f22bea84ba3c02349ca8e9b" target="_top" xlink:title="make_bucket">
<polygon fill="white" stroke="black" points="379.5,-372.788 379.5,-391.788 454.5,-391.788 454.5,-372.788 379.5,-372.788"/>
<text text-anchor="middle" x="417" y="-379.788" font-family="Helvetica,sans-Serif" font-size="10.00">make_bucket</text>
</a>
</g>
</g>
<!-- Node16&#45;&gt;Node17 -->
<g id="edge25" class="edge"><title>Node16&#45;&gt;Node17</title>
<path fill="none" stroke="midnightblue" d="M329.144,-394.697C342.049,-392.853 356.087,-390.847 369.04,-388.997"/>
<polygon fill="midnightblue" stroke="midnightblue" points="369.748,-392.432 379.152,-387.552 368.758,-385.502 369.748,-392.432"/>
</g>
<!-- Node18 -->
<g id="node18" class="node"><title>Node18</title>
<g id="a_node18"><a xlink:href="reader_8c.html#a2d5a55a1a526ac853c3234ea51ee18f8" target="_top" xlink:title="expand_items">
<polygon fill="white" stroke="black" points="378.5,-410.788 378.5,-429.788 455.5,-429.788 455.5,-410.788 378.5,-410.788"/>
<text text-anchor="middle" x="417" y="-417.788" font-family="Helvetica,sans-Serif" font-size="10.00">expand_items</text>
</a>
</g>
</g>
<!-- Node16&#45;&gt;Node18 -->
<g id="edge26" class="edge"><title>Node16&#45;&gt;Node18</title>
<path fill="none" stroke="midnightblue" d="M329.144,-407.88C341.813,-409.69 355.572,-411.656 368.326,-413.478"/>
<polygon fill="midnightblue" stroke="midnightblue" points="367.903,-416.953 378.297,-414.902 368.893,-410.023 367.903,-416.953"/>
</g>
<!-- Node19 -->
<g id="node19" class="node"><title>Node19</title>
<g id="a_node19"><a xlink:href="reader_8c.html#a26f803a6175f255b34b89151133c51f6" target="_top" xlink:title="expand_rules">
<polygon fill="white" stroke="black" points="380,-448.788 380,-467.788 454,-467.788 454,-448.788 380,-448.788"/>
<text text-anchor="middle" x="417" y="-455.788" font-family="Helvetica,sans-Serif" font-size="10.00">expand_rules</text>
</a>
</g>
</g>
<!-- Node16&#45;&gt;Node19 -->
<g id="edge28" class="edge"><title>Node16&#45;&gt;Node19</title>
<path fill="none" stroke="midnightblue" d="M305.261,-410.829C326.935,-420.118 360.084,-434.324 384.467,-444.774"/>
<polygon fill="midnightblue" stroke="midnightblue" points="383.096,-447.995 393.666,-448.717 385.853,-441.561 383.096,-447.995"/>
</g>
<!-- Node18&#45;&gt;Node7 -->
<g id="edge27" class="edge"><title>Node18&#45;&gt;Node7</title>
<path fill="none" stroke="midnightblue" d="M438.417,-429.796C444.196,-432.675 450.428,-435.96 456,-439.288 477.3,-452.011 500.319,-468.498 516.355,-480.465"/>
<polygon fill="midnightblue" stroke="midnightblue" points="514.397,-483.373 524.49,-486.596 518.61,-477.783 514.397,-483.373"/>
</g>
<!-- Node19&#45;&gt;Node7 -->
<g id="edge29" class="edge"><title>Node19&#45;&gt;Node7</title>
<path fill="none" stroke="midnightblue" d="M448.029,-467.877C463.31,-472.757 482.061,-478.745 498.402,-483.963"/>
<polygon fill="midnightblue" stroke="midnightblue" points="497.622,-487.388 508.212,-487.096 499.751,-480.72 497.622,-487.388"/>
</g>
<!-- Node20&#45;&gt;Node3 -->
<g id="edge31" class="edge"><title>Node20&#45;&gt;Node3</title>
<path fill="none" stroke="midnightblue" d="M557.524,-296.721C565.701,-292.418 575.39,-287.209 584,-282.288 593.873,-276.646 604.589,-270.171 613.853,-264.461"/>
<polygon fill="midnightblue" stroke="midnightblue" points="615.898,-267.311 622.548,-259.063 612.206,-261.364 615.898,-267.311"/>
</g>
<!-- Node21&#45;&gt;Node3 -->
<g id="edge33" class="edge"><title>Node21&#45;&gt;Node3</title>
<path fill="none" stroke="midnightblue" d="M334.241,-233.031C410.161,-237.094 549.974,-244.577 609.722,-247.775"/>
<polygon fill="midnightblue" stroke="midnightblue" points="609.74,-251.281 619.913,-248.32 610.115,-244.291 609.74,-251.281"/>
</g>
<!-- Node21&#45;&gt;Node4 -->
<g id="edge34" class="edge"><title>Node21&#45;&gt;Node4</title>
<path fill="none" stroke="midnightblue" d="M316.562,-220.699C335.565,-215.27 359.371,-208.468 378.924,-202.882"/>
<polygon fill="midnightblue" stroke="midnightblue" points="380.061,-206.197 388.714,-200.084 378.137,-199.466 380.061,-206.197"/>
</g>
<!-- Node22&#45;&gt;Node3 -->
<g id="edge36" class="edge"><title>Node22&#45;&gt;Node3</title>
<path fill="none" stroke="midnightblue" d="M315.786,-182.756C350.778,-173.96 407.709,-163.611 456,-173.288 514.615,-185.035 577.929,-216.107 612.271,-234.682"/>
<polygon fill="midnightblue" stroke="midnightblue" points="610.711,-237.818 621.161,-239.563 614.08,-231.682 610.711,-237.818"/>
</g>
<!-- Node22&#45;&gt;Node4 -->
<g id="edge37" class="edge"><title>Node22&#45;&gt;Node4</title>
<path fill="none" stroke="midnightblue" d="M341.723,-192.288C354.296,-192.288 367.246,-192.288 378.74,-192.288"/>
<polygon fill="midnightblue" stroke="midnightblue" points="378.835,-195.789 388.835,-192.288 378.835,-188.789 378.835,-195.789"/>
</g>
<!-- Node23&#45;&gt;Node3 -->
<g id="edge39" class="edge"><title>Node23&#45;&gt;Node3</title>
<path fill="none" stroke="midnightblue" d="M333.002,-146.171C395.874,-138.547 505.118,-134.073 584,-178.288 604.92,-190.015 620.29,-213.535 629.17,-230.289"/>
<polygon fill="midnightblue" stroke="midnightblue" points="626.258,-232.293 633.851,-239.681 632.523,-229.17 626.258,-232.293"/>
</g>
<!-- Node23&#45;&gt;Node4 -->
<g id="edge40" class="edge"><title>Node23&#45;&gt;Node4</title>
<path fill="none" stroke="midnightblue" d="M316.562,-163.877C335.565,-169.307 359.371,-176.109 378.924,-181.695"/>
<polygon fill="midnightblue" stroke="midnightblue" points="378.137,-185.111 388.714,-184.493 380.061,-178.38 378.137,-185.111"/>
</g>
<!-- Node24&#45;&gt;Node3 -->
<g id="edge42" class="edge"><title>Node24&#45;&gt;Node3</title>
<path fill="none" stroke="midnightblue" d="M564.624,-87.8946C571.651,-91.5285 578.767,-96.2789 584,-102.288 616.614,-139.742 630.179,-198.589 635.274,-229.231"/>
<polygon fill="midnightblue" stroke="midnightblue" points="631.87,-230.13 636.834,-239.49 638.791,-229.077 631.87,-230.13"/>
</g>
<!-- Node25&#45;&gt;Node3 -->
<g id="edge44" class="edge"><title>Node25&#45;&gt;Node3</title>
<path fill="none" stroke="midnightblue" d="M177.577,-30.7593C255.104,-8.65135 461.849,37.2219 584,-59.2885 610.981,-80.6056 628.828,-185.122 635.294,-229.404"/>
<polygon fill="midnightblue" stroke="midnightblue" points="631.857,-230.093 636.722,-239.504 638.788,-229.112 631.857,-230.093"/>
</g>
</g>
</svg>
