<?xml version="1.0" encoding="UTF-8" standalone="no"?>
<!DOCTYPE svg PUBLIC "-//W3C//DTD SVG 1.1//EN"
 "http://www.w3.org/Graphics/SVG/1.1/DTD/svg11.dtd">
<!-- Generated by graphviz version 2.36.0 (20140111.2315)
 -->
<!-- Title: expand_items Pages: 1 -->
<svg width="518pt" height="104pt"
 viewBox="0.00 0.00 518.00 104.00" xmlns="http://www.w3.org/2000/svg" xmlns:xlink="http://www.w3.org/1999/xlink">
<g id="graph0" class="graph" transform="scale(1 1) rotate(0) translate(4 100)">
<title>expand_items</title>
<polygon fill="white" stroke="none" points="-4,4 -4,-100 514,-100 514,4 -4,4"/>
<!-- Node1 -->
<g id="node1" class="node"><title>Node1</title>
<polygon fill="#bfbfbf" stroke="black" points="0.5,-38.5 0.5,-57.5 77.5,-57.5 77.5,-38.5 0.5,-38.5"/>
<text text-anchor="middle" x="39" y="-45.5" font-family="Helvetica,sans-Serif" font-size="10.00">expand_items</text>
</g>
<!-- Node2 -->
<g id="node2" class="node"><title>Node2</title>
<g id="a_node2"><a xlink:href="reader_8c.html#a34bf32e056d8bc6f1fb490f4efc7ce90" target="_top" xlink:title="add_symbol">
<polygon fill="white" stroke="black" points="244.5,-38.5 244.5,-57.5 313.5,-57.5 313.5,-38.5 244.5,-38.5"/>
<text text-anchor="middle" x="279" y="-45.5" font-family="Helvetica,sans-Serif" font-size="10.00">add_symbol</text>
</a>
</g>
</g>
<!-- Node1&#45;&gt;Node2 -->
<g id="edge1" class="edge"><title>Node1&#45;&gt;Node2</title>
<path fill="none" stroke="midnightblue" d="M87.8245,-48C134.218,-48 203.429,-48 244.313,-48"/>
<polygon fill="midnightblue" stroke="midnightblue" points="87.7118,-44.5001 77.7118,-48 87.7118,-51.5001 87.7118,-44.5001"/>
</g>
<!-- Node5 -->
<g id="node5" class="node"><title>Node5</title>
<g id="a_node5"><a xlink:href="reader_8c.html#ae8594bb30d2b0297a4f533a4268c5d0a" target="_top" xlink:title="end_rule">
<polygon fill="white" stroke="black" points="134.5,-76.5 134.5,-95.5 187.5,-95.5 187.5,-76.5 134.5,-76.5"/>
<text text-anchor="middle" x="161" y="-83.5" font-family="Helvetica,sans-Serif" font-size="10.00">end_rule</text>
</a>
</g>
</g>
<!-- Node1&#45;&gt;Node5 -->
<g id="edge4" class="edge"><title>Node1&#45;&gt;Node5</title>
<path fill="none" stroke="midnightblue" d="M79.8964,-60.6339C97.7887,-66.2998 118.378,-72.8197 134.202,-77.8305"/>
<polygon fill="midnightblue" stroke="midnightblue" points="80.8711,-57.2713 70.2811,-57.589 78.7578,-63.9447 80.8711,-57.2713"/>
</g>
<!-- Node6 -->
<g id="node6" class="node"><title>Node6</title>
<g id="a_node6"><a xlink:href="reader_8c.html#ac59b5c8d9dca9fc4b2614fd186ec6c55" target="_top" xlink:title="insert_empty_rule">
<polygon fill="white" stroke="black" points="114,-0.5 114,-19.5 208,-19.5 208,-0.5 114,-0.5"/>
<text text-anchor="middle" x="161" y="-7.5" font-family="Helvetica,sans-Serif" font-size="10.00">insert_empty_rule</text>
</a>
</g>
</g>
<!-- Node1&#45;&gt;Node6 -->
<g id="edge7" class="edge"><title>Node1&#45;&gt;Node6</title>
<path fill="none" stroke="midnightblue" d="M80.0435,-35.3196C96.2574,-30.1852 114.666,-24.3559 129.729,-19.5859"/>
<polygon fill="midnightblue" stroke="midnightblue" points="78.7578,-32.0553 70.2811,-38.411 80.8711,-38.7287 78.7578,-32.0553"/>
</g>
<!-- Node3 -->
<g id="node3" class="node"><title>Node3</title>
<g id="a_node3"><a xlink:href="reader_8c.html#af6d4fba61bb761ca9fe92fef83e8ee94" target="_top" xlink:title="read_grammar">
<polygon fill="white" stroke="black" points="350.5,-38.5 350.5,-57.5 429.5,-57.5 429.5,-38.5 350.5,-38.5"/>
<text text-anchor="middle" x="390" y="-45.5" font-family="Helvetica,sans-Serif" font-size="10.00">read_grammar</text>
</a>
</g>
</g>
<!-- Node2&#45;&gt;Node3 -->
<g id="edge2" class="edge"><title>Node2&#45;&gt;Node3</title>
<path fill="none" stroke="midnightblue" d="M323.707,-48C332.526,-48 341.738,-48 350.368,-48"/>
<polygon fill="midnightblue" stroke="midnightblue" points="323.593,-44.5001 313.593,-48 323.593,-51.5001 323.593,-44.5001"/>
</g>
<!-- Node4 -->
<g id="node4" class="node"><title>Node4</title>
<g id="a_node4"><a xlink:href="reader_8c.html#a3351a985e2d992eea6ed332cc837ad5b" target="_top" xlink:title="reader">
<polygon fill="white" stroke="red" points="466,-38.5 466,-57.5 510,-57.5 510,-38.5 466,-38.5"/>
<text text-anchor="middle" x="488" y="-45.5" font-family="Helvetica,sans-Serif" font-size="10.00">reader</text>
</a>
</g>
</g>
<!-- Node3&#45;&gt;Node4 -->
<g id="edge3" class="edge"><title>Node3&#45;&gt;Node4</title>
<path fill="none" stroke="midnightblue" d="M439.963,-48C449.035,-48 458.061,-48 465.745,-48"/>
<polygon fill="midnightblue" stroke="midnightblue" points="439.77,-44.5001 429.77,-48 439.77,-51.5001 439.77,-44.5001"/>
</g>
<!-- Node5&#45;&gt;Node2 -->
<g id="edge5" class="edge"><title>Node5&#45;&gt;Node2</title>
<path fill="none" stroke="midnightblue" d="M197.518,-74.3646C213.897,-68.9992 233.106,-62.7068 248.649,-57.6151"/>
<polygon fill="midnightblue" stroke="midnightblue" points="196.158,-71.1273 187.744,-77.5666 198.337,-77.7795 196.158,-71.1273"/>
</g>
<!-- Node5&#45;&gt;Node3 -->
<g id="edge6" class="edge"><title>Node5&#45;&gt;Node3</title>
<path fill="none" stroke="midnightblue" d="M197.987,-82.769C228.91,-79.6909 274.608,-74.4221 314,-67 327.596,-64.4383 342.392,-60.8622 355.222,-57.5027"/>
<polygon fill="midnightblue" stroke="midnightblue" points="197.315,-79.3176 187.7,-83.7663 197.991,-86.2849 197.315,-79.3176"/>
</g>
<!-- Node6&#45;&gt;Node2 -->
<g id="edge8" class="edge"><title>Node6&#45;&gt;Node2</title>
<path fill="none" stroke="midnightblue" d="M201.153,-22.8259C216.718,-27.9247 234.314,-33.6891 248.738,-38.4141"/>
<polygon fill="midnightblue" stroke="midnightblue" points="201.864,-19.3761 191.272,-19.589 199.685,-26.0282 201.864,-19.3761"/>
</g>
<!-- Node7 -->
<g id="node7" class="node"><title>Node7</title>
<g id="a_node7"><a xlink:href="reader_8c.html#abb83807b1bba8d346650d3e4ae4e7425" target="_top" xlink:title="copy_action">
<polygon fill="white" stroke="black" points="244.5,-0.5 244.5,-19.5 313.5,-19.5 313.5,-0.5 244.5,-0.5"/>
<text text-anchor="middle" x="279" y="-7.5" font-family="Helvetica,sans-Serif" font-size="10.00">copy_action</text>
</a>
</g>
</g>
<!-- Node6&#45;&gt;Node7 -->
<g id="edge9" class="edge"><title>Node6&#45;&gt;Node7</title>
<path fill="none" stroke="midnightblue" d="M218.246,-10C227.224,-10 236.258,-10 244.487,-10"/>
<polygon fill="midnightblue" stroke="midnightblue" points="218.18,-6.5001 208.18,-10 218.18,-13.5001 218.18,-6.5001"/>
</g>
<!-- Node7&#45;&gt;Node3 -->
<g id="edge10" class="edge"><title>Node7&#45;&gt;Node3</title>
<path fill="none" stroke="midnightblue" d="M317.209,-22.9718C331.73,-28.0344 348.079,-33.7341 361.503,-38.4141"/>
<polygon fill="midnightblue" stroke="midnightblue" points="318.1,-19.5761 307.505,-19.589 315.796,-26.1859 318.1,-19.5761"/>
</g>
</g>
</svg>
