<?xml version="1.0" encoding="UTF-8" standalone="no"?>
<!DOCTYPE svg PUBLIC "-//W3C//DTD SVG 1.1//EN"
 "http://www.w3.org/Graphics/SVG/1.1/DTD/svg11.dtd">
<!-- Generated by graphviz version 2.36.0 (20140111.2315)
 -->
<!-- Title: skip_comment Pages: 1 -->
<!--zoomable 364 -->
<svg id="main" version="1.1" xmlns="http://www.w3.org/2000/svg" xmlns:xlink="http://www.w3.org/1999/xlink" xml:space="preserve" onload="init(evt)">
<style type="text/css"><![CDATA[
.edge:hover path { stroke: red; }
.edge:hover polygon { stroke: red; fill: red; }
]]></style>
<script type="text/javascript"><![CDATA[
var edges = document.getElementsByTagName('g');
if (edges && edges.length) {
  for (var i=0;i<edges.length;i++) {
    if (edges[i].id.substr(0,4)=='edge') {
      edges[i].setAttribute('class','edge');
    }
  }
}
]]></script>
        <defs>
                <circle id="rim" cx="0" cy="0" r="7"/>
                <circle id="rim2" cx="0" cy="0" r="3.5"/>
                <g id="zoomPlus">
                        <use xlink:href="#rim" fill="#404040">
                                <set attributeName="fill" to="#808080" begin="zoomplus.mouseover" end="zoomplus.mouseout"/>
                        </use>
                        <path d="M-4,0h8M0,-4v8" fill="none" stroke="white" stroke-width="1.5" pointer-events="none"/>
                </g>
                <g id="zoomMin">
                        <use xlink:href="#rim" fill="#404040">
                                <set attributeName="fill" to="#808080" begin="zoomminus.mouseover" end="zoomminus.mouseout"/>
                        </use>
                        <path d="M-4,0h8" fill="none" stroke="white" stroke-width="1.5" pointer-events="none"/>
                </g>
                <g id="dirArrow">
                        <path fill="none" stroke="white" stroke-width="1.5" d="M0,-3.0v7 M-2.5,-0.5L0,-3.0L2.5,-0.5"/>
                </g>
               <g id="resetDef">
                       <use xlink:href="#rim2" fill="#404040">
                               <set attributeName="fill" to="#808080" begin="reset.mouseover" end="reset.mouseout"/>
                       </use>
               </g>
        </defs>

<script type="text/javascript">
var viewWidth = 536;
var viewHeight = 364;
var sectionId = 'dynsection-67';
</script>
<script xlink:href="svgpan.js"/>
<svg id="graph" class="graph">
<g id="viewport">
<title>skip_comment</title>
<polygon fill="white" stroke="none" points="-4,4 -4,-359.987 532,-359.987 532,4 -4,4"/>
<!-- Node1 -->
<g id="node1" class="node"><title>Node1</title>
<polygon fill="#bfbfbf" stroke="black" points="0,-165.487 0,-184.487 80,-184.487 80,-165.487 0,-165.487"/>
<text text-anchor="middle" x="40" y="-172.487" font-family="Helvetica,sans-Serif" font-size="10.00">skip_comment</text>
</g>
<!-- Node2 -->
<g id="node2" class="node"><title>Node2</title>
<g id="a_node2"><a xlink:href="reader_8c.html#a11446424d65669df0f3a9e3b1cca57fa" target="_top" xlink:title="nextc">
<polygon fill="white" stroke="black" points="116.5,-165.487 116.5,-184.487 157.5,-184.487 157.5,-165.487 116.5,-165.487"/>
<text text-anchor="middle" x="137" y="-172.487" font-family="Helvetica,sans-Serif" font-size="10.00">nextc</text>
</a>
</g>
</g>
<!-- Node1&#45;&gt;Node2 -->
<g id="edge1" class="edge"><title>Node1&#45;&gt;Node2</title>
<path fill="none" stroke="midnightblue" d="M90.2263,-174.987C99.5068,-174.987 108.699,-174.987 116.384,-174.987"/>
<polygon fill="midnightblue" stroke="midnightblue" points="90.1886,-171.487 80.1886,-174.987 90.1886,-178.487 90.1886,-171.487"/>
</g>
<!-- Node3 -->
<g id="node3" class="node"><title>Node3</title>
<g id="a_node3"><a xlink:href="reader_8c.html#a34bf32e056d8bc6f1fb490f4efc7ce90" target="_top" xlink:title="add_symbol">
<polygon fill="white" stroke="black" points="317.5,-336.487 317.5,-355.487 386.5,-355.487 386.5,-336.487 317.5,-336.487"/>
<text text-anchor="middle" x="352" y="-343.487" font-family="Helvetica,sans-Serif" font-size="10.00">add_symbol</text>
</a>
</g>
</g>
<!-- Node2&#45;&gt;Node3 -->
<g id="edge2" class="edge"><title>Node2&#45;&gt;Node3</title>
<path fill="none" stroke="midnightblue" d="M139.403,-194.759C142.817,-226.893 154.465,-290.065 194,-321.987 228.862,-350.136 282.725,-352.219 317.42,-349.986"/>
<polygon fill="midnightblue" stroke="midnightblue" points="142.888,-194.436 138.507,-184.789 135.916,-195.063 142.888,-194.436"/>
</g>
<!-- Node4 -->
<g id="node4" class="node"><title>Node4</title>
<g id="a_node4"><a xlink:href="reader_8c.html#af6d4fba61bb761ca9fe92fef83e8ee94" target="_top" xlink:title="read_grammar">
<polygon fill="white" stroke="red" points="441.5,-260.487 441.5,-279.487 520.5,-279.487 520.5,-260.487 441.5,-260.487"/>
<text text-anchor="middle" x="481" y="-267.487" font-family="Helvetica,sans-Serif" font-size="10.00">read_grammar</text>
</a>
</g>
</g>
<!-- Node2&#45;&gt;Node4 -->
<g id="edge23" class="edge"><title>Node2&#45;&gt;Node4</title>
<path fill="none" stroke="midnightblue" d="M141.184,-194.677C146.684,-221.425 160.755,-268.278 194,-288.987 278.898,-341.871 406.79,-299.998 457.825,-279.564"/>
<polygon fill="midnightblue" stroke="midnightblue" points="144.578,-193.778 139.321,-184.579 137.694,-195.049 144.578,-193.778"/>
</g>
<!-- Node5 -->
<g id="node5" class="node"><title>Node5</title>
<g id="a_node5"><a xlink:href="reader_8c.html#ac910677446efcb4dbebc9a6d3d90a9ff" target="_top" xlink:title="advance_to_start">
<polygon fill="white" stroke="black" points="306,-222.487 306,-241.487 398,-241.487 398,-222.487 306,-222.487"/>
<text text-anchor="middle" x="352" y="-229.487" font-family="Helvetica,sans-Serif" font-size="10.00">advance_to_start</text>
</a>
</g>
</g>
<!-- Node2&#45;&gt;Node5 -->
<g id="edge4" class="edge"><title>Node2&#45;&gt;Node5</title>
<path fill="none" stroke="midnightblue" d="M156.571,-190.911C166.914,-198.885 180.418,-207.901 194,-212.987 229.997,-226.467 273.577,-230.886 305.68,-232.123"/>
<polygon fill="midnightblue" stroke="midnightblue" points="158.677,-188.114 148.694,-184.568 154.287,-193.566 158.677,-188.114"/>
</g>
<!-- Node6 -->
<g id="node6" class="node"><title>Node6</title>
<g id="a_node6"><a xlink:href="reader_8c.html#a475e9b3fc05ea753aeeb760cea34a511" target="_top" xlink:title="copy_ident">
<polygon fill="white" stroke="black" points="200,-32.4872 200,-51.4872 264,-51.4872 264,-32.4872 200,-32.4872"/>
<text text-anchor="middle" x="232" y="-39.4872" font-family="Helvetica,sans-Serif" font-size="10.00">copy_ident</text>
</a>
</g>
</g>
<!-- Node2&#45;&gt;Node6 -->
<g id="edge6" class="edge"><title>Node2&#45;&gt;Node6</title>
<path fill="none" stroke="midnightblue" d="M144.377,-155.776C152.846,-132.467 169.628,-92.9496 194,-65.9872 199.134,-60.3072 205.903,-55.4026 212.246,-51.5343"/>
<polygon fill="midnightblue" stroke="midnightblue" points="141.064,-154.647 141.074,-165.241 147.674,-156.953 141.064,-154.647"/>
</g>
<!-- Node7 -->
<g id="node7" class="node"><title>Node7</title>
<g id="a_node7"><a xlink:href="reader_8c.html#a07addfee5457e48ddb310769dd0e39af" target="_top" xlink:title="read_declarations">
<polygon fill="white" stroke="red" points="434.5,-70.4872 434.5,-89.4872 527.5,-89.4872 527.5,-70.4872 434.5,-70.4872"/>
<text text-anchor="middle" x="481" y="-77.4872" font-family="Helvetica,sans-Serif" font-size="10.00">read_declarations</text>
</a>
</g>
</g>
<!-- Node2&#45;&gt;Node7 -->
<g id="edge22" class="edge"><title>Node2&#45;&gt;Node7</title>
<path fill="none" stroke="midnightblue" d="M138.551,-155.274C140.689,-121.512 150.476,-53.3357 194,-22.9872 282.459,38.6941 421.708,-41.7258 465.991,-70.4822"/>
<polygon fill="midnightblue" stroke="midnightblue" points="135.054,-155.147 138.082,-165.3 142.046,-155.474 135.054,-155.147"/>
</g>
<!-- Node8 -->
<g id="node8" class="node"><title>Node8</title>
<g id="a_node8"><a xlink:href="reader_8c.html#a279a8d9eb5a5ad8dce6c95b2647b9c98" target="_top" xlink:title="declare_start">
<polygon fill="white" stroke="black" points="195.5,-184.487 195.5,-203.487 268.5,-203.487 268.5,-184.487 195.5,-184.487"/>
<text text-anchor="middle" x="232" y="-191.487" font-family="Helvetica,sans-Serif" font-size="10.00">declare_start</text>
</a>
</g>
</g>
<!-- Node2&#45;&gt;Node8 -->
<g id="edge8" class="edge"><title>Node2&#45;&gt;Node8</title>
<path fill="none" stroke="midnightblue" d="M167.8,-181.075C176.509,-182.855 186.119,-184.818 195.16,-186.665"/>
<polygon fill="midnightblue" stroke="midnightblue" points="168.221,-177.589 157.723,-179.017 166.82,-184.447 168.221,-177.589"/>
</g>
<!-- Node9 -->
<g id="node9" class="node"><title>Node9</title>
<g id="a_node9"><a xlink:href="reader_8c.html#a0b749a023a959fabb8ed2778b46ec217" target="_top" xlink:title="declare_tokens">
<polygon fill="white" stroke="black" points="310.5,-108.487 310.5,-127.487 393.5,-127.487 393.5,-108.487 310.5,-108.487"/>
<text text-anchor="middle" x="352" y="-115.487" font-family="Helvetica,sans-Serif" font-size="10.00">declare_tokens</text>
</a>
</g>
</g>
<!-- Node2&#45;&gt;Node9 -->
<g id="edge11" class="edge"><title>Node2&#45;&gt;Node9</title>
<path fill="none" stroke="midnightblue" d="M156.571,-159.063C166.914,-151.089 180.418,-142.073 194,-136.987 231.797,-122.833 277.953,-118.669 310.407,-117.689"/>
<polygon fill="midnightblue" stroke="midnightblue" points="154.287,-156.409 148.694,-165.407 158.677,-161.861 154.287,-156.409"/>
</g>
<!-- Node10 -->
<g id="node10" class="node"><title>Node10</title>
<g id="a_node10"><a xlink:href="reader_8c.html#a860dbc8da656fd831b19668da20207c7" target="_top" xlink:title="declare_types">
<polygon fill="white" stroke="black" points="313.5,-70.4872 313.5,-89.4872 390.5,-89.4872 390.5,-70.4872 313.5,-70.4872"/>
<text text-anchor="middle" x="352" y="-77.4872" font-family="Helvetica,sans-Serif" font-size="10.00">declare_types</text>
</a>
</g>
</g>
<!-- Node2&#45;&gt;Node10 -->
<g id="edge13" class="edge"><title>Node2&#45;&gt;Node10</title>
<path fill="none" stroke="midnightblue" d="M150.502,-156.949C160.691,-143.624 176.259,-126.108 194,-115.987 231.163,-94.7858 279.984,-86.0678 313.254,-82.4845"/>
<polygon fill="midnightblue" stroke="midnightblue" points="147.427,-155.225 144.347,-165.362 153.076,-159.358 147.427,-155.225"/>
</g>
<!-- Node11 -->
<g id="node11" class="node"><title>Node11</title>
<g id="a_node11"><a xlink:href="reader_8c.html#a0d5a7fe7641edf38078ba5e99536772d" target="_top" xlink:title="get_tag">
<polygon fill="white" stroke="black" points="207.5,-146.487 207.5,-165.487 256.5,-165.487 256.5,-146.487 207.5,-146.487"/>
<text text-anchor="middle" x="232" y="-153.487" font-family="Helvetica,sans-Serif" font-size="10.00">get_tag</text>
</a>
</g>
</g>
<!-- Node2&#45;&gt;Node11 -->
<g id="edge15" class="edge"><title>Node2&#45;&gt;Node11</title>
<path fill="none" stroke="midnightblue" d="M167.896,-168.879C180.665,-166.271 195.358,-163.269 207.352,-160.819"/>
<polygon fill="midnightblue" stroke="midnightblue" points="166.82,-165.527 157.723,-170.958 168.221,-172.385 166.82,-165.527"/>
</g>
<!-- Node13 -->
<g id="node13" class="node"><title>Node13</title>
<g id="a_node13"><a xlink:href="reader_8c.html#aae3985d515e47c03afc20f92c0292531" target="_top" xlink:title="mark_symbol">
<polygon fill="white" stroke="black" points="194.5,-260.487 194.5,-279.487 269.5,-279.487 269.5,-260.487 194.5,-260.487"/>
<text text-anchor="middle" x="232" y="-267.487" font-family="Helvetica,sans-Serif" font-size="10.00">mark_symbol</text>
</a>
</g>
</g>
<!-- Node2&#45;&gt;Node13 -->
<g id="edge20" class="edge"><title>Node2&#45;&gt;Node13</title>
<path fill="none" stroke="midnightblue" d="M149.751,-193.047C160.207,-208.266 176.514,-230.047 194,-245.987 199.885,-251.352 207.094,-256.318 213.582,-260.325"/>
<polygon fill="midnightblue" stroke="midnightblue" points="152.516,-190.886 144.039,-184.53 146.703,-194.785 152.516,-190.886"/>
</g>
<!-- Node3&#45;&gt;Node4 -->
<g id="edge3" class="edge"><title>Node3&#45;&gt;Node4</title>
<path fill="none" stroke="midnightblue" d="M381.153,-331.391C386.776,-328.359 392.609,-325.128 398,-321.987 422.179,-307.9 449.479,-290.218 465.687,-279.526"/>
<polygon fill="midnightblue" stroke="midnightblue" points="379.189,-328.471 372.003,-336.257 382.476,-334.652 379.189,-328.471"/>
</g>
<!-- Node5&#45;&gt;Node4 -->
<g id="edge5" class="edge"><title>Node5&#45;&gt;Node4</title>
<path fill="none" stroke="midnightblue" d="M394.894,-244.522C412.171,-249.692 431.871,-255.586 447.963,-260.401"/>
<polygon fill="midnightblue" stroke="midnightblue" points="395.631,-241.09 385.047,-241.576 393.624,-247.796 395.631,-241.09"/>
</g>
<!-- Node6&#45;&gt;Node7 -->
<g id="edge7" class="edge"><title>Node6&#45;&gt;Node7</title>
<path fill="none" stroke="midnightblue" d="M274.493,-45.4555C307.973,-48.5682 356.208,-53.7631 398,-60.9872 412.832,-63.551 429.003,-67.1274 443.034,-70.4867"/>
<polygon fill="midnightblue" stroke="midnightblue" points="274.444,-41.9367 264.169,-44.5181 273.811,-48.9081 274.444,-41.9367"/>
</g>
<!-- Node8&#45;&gt;Node5 -->
<g id="edge9" class="edge"><title>Node8&#45;&gt;Node5</title>
<path fill="none" stroke="midnightblue" d="M272.376,-206.668C288.32,-211.802 306.421,-217.631 321.233,-222.401"/>
<polygon fill="midnightblue" stroke="midnightblue" points="273.368,-203.31 262.776,-203.576 271.222,-209.973 273.368,-203.31"/>
</g>
<!-- Node8&#45;&gt;Node7 -->
<g id="edge10" class="edge"><title>Node8&#45;&gt;Node7</title>
<path fill="none" stroke="midnightblue" d="M278.97,-197.409C313.617,-197.996 361.275,-194.42 398,-174.987 435.938,-154.913 464.045,-109.477 474.986,-89.6006"/>
<polygon fill="midnightblue" stroke="midnightblue" points="278.759,-193.902 268.661,-197.106 278.554,-200.899 278.759,-193.902"/>
</g>
<!-- Node9&#45;&gt;Node7 -->
<g id="edge12" class="edge"><title>Node9&#45;&gt;Node7</title>
<path fill="none" stroke="midnightblue" d="M394.894,-105.452C412.171,-100.282 431.871,-94.3881 447.963,-89.5731"/>
<polygon fill="midnightblue" stroke="midnightblue" points="393.624,-102.178 385.047,-108.398 395.631,-108.885 393.624,-102.178"/>
</g>
<!-- Node10&#45;&gt;Node7 -->
<g id="edge14" class="edge"><title>Node10&#45;&gt;Node7</title>
<path fill="none" stroke="midnightblue" d="M400.93,-79.9872C411.791,-79.9872 423.3,-79.9872 434.076,-79.9872"/>
<polygon fill="midnightblue" stroke="midnightblue" points="400.76,-76.4873 390.76,-79.9872 400.76,-83.4873 400.76,-76.4873"/>
</g>
<!-- Node11&#45;&gt;Node9 -->
<g id="edge18" class="edge"><title>Node11&#45;&gt;Node9</title>
<path fill="none" stroke="midnightblue" d="M266.272,-145.272C283.523,-139.717 304.424,-132.986 321.15,-127.6"/>
<polygon fill="midnightblue" stroke="midnightblue" points="265.041,-141.992 256.595,-148.389 267.187,-148.655 265.041,-141.992"/>
</g>
<!-- Node11&#45;&gt;Node10 -->
<g id="edge19" class="edge"><title>Node11&#45;&gt;Node10</title>
<path fill="none" stroke="midnightblue" d="M251.293,-139.483C265.497,-127.236 286.067,-110.699 306,-98.9872 311.996,-95.4644 318.767,-92.249 325.203,-89.5055"/>
<polygon fill="midnightblue" stroke="midnightblue" points="248.927,-136.903 243.719,-146.129 253.544,-142.164 248.927,-136.903"/>
</g>
<!-- Node12 -->
<g id="node12" class="node"><title>Node12</title>
<g id="a_node12"><a xlink:href="reader_8c.html#abb83807b1bba8d346650d3e4ae4e7425" target="_top" xlink:title="copy_action">
<polygon fill="white" stroke="black" points="317.5,-146.487 317.5,-165.487 386.5,-165.487 386.5,-146.487 317.5,-146.487"/>
<text text-anchor="middle" x="352" y="-153.487" font-family="Helvetica,sans-Serif" font-size="10.00">copy_action</text>
</a>
</g>
</g>
<!-- Node11&#45;&gt;Node12 -->
<g id="edge16" class="edge"><title>Node11&#45;&gt;Node12</title>
<path fill="none" stroke="midnightblue" d="M266.968,-155.987C282.729,-155.987 301.417,-155.987 317.162,-155.987"/>
<polygon fill="midnightblue" stroke="midnightblue" points="266.595,-152.487 256.595,-155.987 266.595,-159.487 266.595,-152.487"/>
</g>
<!-- Node12&#45;&gt;Node4 -->
<g id="edge17" class="edge"><title>Node12&#45;&gt;Node4</title>
<path fill="none" stroke="midnightblue" d="M371.402,-172.506C398.292,-196.643 447.478,-240.794 469.199,-260.292"/>
<polygon fill="midnightblue" stroke="midnightblue" points="373.608,-169.782 363.828,-165.707 368.932,-174.991 373.608,-169.782"/>
</g>
<!-- Node13&#45;&gt;Node4 -->
<g id="edge21" class="edge"><title>Node13&#45;&gt;Node4</title>
<path fill="none" stroke="midnightblue" d="M279.896,-269.987C326.718,-269.987 397.818,-269.987 441.458,-269.987"/>
<polygon fill="midnightblue" stroke="midnightblue" points="279.712,-266.487 269.712,-269.987 279.712,-273.487 279.712,-266.487"/>
</g>
</g>
</svg>
        <g id="navigator" transform="translate(0 0)" fill="#404254">
                <rect fill="#f2f5e9" fill-opacity="0.5" stroke="#606060" stroke-width=".5" x="0" y="0" width="60" height="60"/>
                <use id="zoomplus" xlink:href="#zoomPlus" x="17" y="9" onmousedown="handleZoom(evt,'in')"/>
                <use id="zoomminus" xlink:href="#zoomMin" x="42" y="9" onmousedown="handleZoom(evt,'out')"/>
                <use id="reset" xlink:href="#resetDef" x="30" y="36" onmousedown="handleReset()"/>
                <g id="arrowUp" xlink:href="#dirArrow" transform="translate(30 24)" onmousedown="handlePan(0,-1)">
                  <use xlink:href="#rim" fill="#404040">
                        <set attributeName="fill" to="#808080" begin="arrowUp.mouseover" end="arrowUp.mouseout"/>
                  </use>
                  <path fill="none" stroke="white" stroke-width="1.5" d="M0,-3.0v7 M-2.5,-0.5L0,-3.0L2.5,-0.5"/>
                </g>
                <g id="arrowRight" xlink:href="#dirArrow" transform="rotate(90) translate(36 -43)" onmousedown="handlePan(1,0)">
                  <use xlink:href="#rim" fill="#404040">
                        <set attributeName="fill" to="#808080" begin="arrowRight.mouseover" end="arrowRight.mouseout"/>
                  </use>
                  <path fill="none" stroke="white" stroke-width="1.5" d="M0,-3.0v7 M-2.5,-0.5L0,-3.0L2.5,-0.5"/>
                </g>
                <g id="arrowDown" xlink:href="#dirArrow" transform="rotate(180) translate(-30 -48)" onmousedown="handlePan(0,1)">
                  <use xlink:href="#rim" fill="#404040">
                        <set attributeName="fill" to="#808080" begin="arrowDown.mouseover" end="arrowDown.mouseout"/>
                  </use>
                  <path fill="none" stroke="white" stroke-width="1.5" d="M0,-3.0v7 M-2.5,-0.5L0,-3.0L2.5,-0.5"/>
                </g>
                <g id="arrowLeft" xlink:href="#dirArrow" transform="rotate(270) translate(-36 17)" onmousedown="handlePan(-1,0)">
                  <use xlink:href="#rim" fill="#404040">
                        <set attributeName="fill" to="#808080" begin="arrowLeft.mouseover" end="arrowLeft.mouseout"/>
                  </use>
                  <path fill="none" stroke="white" stroke-width="1.5" d="M0,-3.0v7 M-2.5,-0.5L0,-3.0L2.5,-0.5"/>
                </g>
        </g>
        <svg viewBox="0 0 15 15" width="100%" height="30px" preserveAspectRatio="xMaxYMin meet">
         <g id="arrow_out" transform="scale(0.3 0.3)">
          <a xlink:href="reader_8c_ac812a775973bb1eb24e86256b2de6b8b_icgraph_org.svg" target="_base">
           <rect id="button" ry="5" rx="5" y="6" x="6" height="38" width="38"
                fill="#f2f5e9" fill-opacity="0.5" stroke="#606060" stroke-width="1.0"/>
           <path id="arrow"
             d="M 11.500037,31.436501 C 11.940474,20.09759 22.043105,11.32322 32.158766,21.979434 L 37.068811,17.246167 C 37.068811,17.246167 37.088388,32 37.088388,32 L 22.160133,31.978069 C 22.160133,31.978069 26.997745,27.140456 26.997745,27.140456 C 18.528582,18.264221 13.291696,25.230495 11.500037,31.436501 z"
             style="fill:#404040;"/>
          </a>
         </g>
        </svg>
</svg>
