<?xml version="1.0" encoding="UTF-8" standalone="no"?>
<!DOCTYPE svg PUBLIC "-//W3C//DTD SVG 1.1//EN"
 "http://www.w3.org/Graphics/SVG/1.1/DTD/svg11.dtd">
<!-- Generated by graphviz version 2.36.0 (20140111.2315)
 -->
<!-- Title: copy_text Pages: 1 -->
<svg width="406pt" height="66pt"
 viewBox="0.00 0.00 406.00 66.00" xmlns="http://www.w3.org/2000/svg" xmlns:xlink="http://www.w3.org/1999/xlink">
<g id="graph0" class="graph" transform="scale(1 1) rotate(0) translate(4 62)">
<title>copy_text</title>
<polygon fill="white" stroke="none" points="-4,4 -4,-62 402,-62 402,4 -4,4"/>
<!-- Node1 -->
<g id="node1" class="node"><title>Node1</title>
<polygon fill="#bfbfbf" stroke="black" points="0.5,-19.5 0.5,-38.5 59.5,-38.5 59.5,-19.5 0.5,-19.5"/>
<text text-anchor="middle" x="30" y="-26.5" font-family="Helvetica,sans-Serif" font-size="10.00">copy_text</text>
</g>
<!-- Node2 -->
<g id="node2" class="node"><title>Node2</title>
<g id="a_node2"><a xlink:href="reader_8c.html#ac910677446efcb4dbebc9a6d3d90a9ff" target="_top" xlink:title="advance_to_start">
<polygon fill="white" stroke="black" points="96,-38.5 96,-57.5 188,-57.5 188,-38.5 96,-38.5"/>
<text text-anchor="middle" x="142" y="-45.5" font-family="Helvetica,sans-Serif" font-size="10.00">advance_to_start</text>
</a>
</g>
</g>
<!-- Node1&#45;&gt;Node2 -->
<g id="edge1" class="edge"><title>Node1&#45;&gt;Node2</title>
<path fill="none" stroke="midnightblue" d="M69.6267,-35.6719C78.1189,-37.1387 87.184,-38.7045 95.9054,-40.2109"/>
<polygon fill="midnightblue" stroke="midnightblue" points="70.0639,-32.1956 59.6141,-33.9424 68.8724,-39.0935 70.0639,-32.1956"/>
</g>
<!-- Node5 -->
<g id="node5" class="node"><title>Node5</title>
<g id="a_node5"><a xlink:href="reader_8c.html#a07addfee5457e48ddb310769dd0e39af" target="_top" xlink:title="read_declarations">
<polygon fill="white" stroke="black" points="224.5,-0.5 224.5,-19.5 317.5,-19.5 317.5,-0.5 224.5,-0.5"/>
<text text-anchor="middle" x="271" y="-7.5" font-family="Helvetica,sans-Serif" font-size="10.00">read_declarations</text>
</a>
</g>
</g>
<!-- Node1&#45;&gt;Node5 -->
<g id="edge4" class="edge"><title>Node1&#45;&gt;Node5</title>
<path fill="none" stroke="midnightblue" d="M70.0012,-25.8995C112.253,-22.5406 179.597,-17.1868 224.299,-13.6331"/>
<polygon fill="midnightblue" stroke="midnightblue" points="69.5201,-22.4266 59.829,-26.7082 70.0749,-29.4046 69.5201,-22.4266"/>
</g>
<!-- Node3 -->
<g id="node3" class="node"><title>Node3</title>
<g id="a_node3"><a xlink:href="reader_8c.html#af6d4fba61bb761ca9fe92fef83e8ee94" target="_top" xlink:title="read_grammar">
<polygon fill="white" stroke="black" points="231.5,-38.5 231.5,-57.5 310.5,-57.5 310.5,-38.5 231.5,-38.5"/>
<text text-anchor="middle" x="271" y="-45.5" font-family="Helvetica,sans-Serif" font-size="10.00">read_grammar</text>
</a>
</g>
</g>
<!-- Node2&#45;&gt;Node3 -->
<g id="edge2" class="edge"><title>Node2&#45;&gt;Node3</title>
<path fill="none" stroke="midnightblue" d="M198.237,-48C209.388,-48 220.886,-48 231.322,-48"/>
<polygon fill="midnightblue" stroke="midnightblue" points="198.133,-44.5001 188.133,-48 198.133,-51.5001 198.133,-44.5001"/>
</g>
<!-- Node4 -->
<g id="node4" class="node"><title>Node4</title>
<g id="a_node4"><a xlink:href="reader_8c.html#a3351a985e2d992eea6ed332cc837ad5b" target="_top" xlink:title="reader">
<polygon fill="white" stroke="red" points="354,-19.5 354,-38.5 398,-38.5 398,-19.5 354,-19.5"/>
<text text-anchor="middle" x="376" y="-26.5" font-family="Helvetica,sans-Serif" font-size="10.00">reader</text>
</a>
</g>
</g>
<!-- Node3&#45;&gt;Node4 -->
<g id="edge3" class="edge"><title>Node3&#45;&gt;Node4</title>
<path fill="none" stroke="midnightblue" d="M320.746,-39.0079C332.362,-36.8652 344.165,-34.6879 353.783,-32.9138"/>
<polygon fill="midnightblue" stroke="midnightblue" points="319.846,-35.615 310.646,-40.871 321.115,-42.4988 319.846,-35.615"/>
</g>
<!-- Node5&#45;&gt;Node4 -->
<g id="edge5" class="edge"><title>Node5&#45;&gt;Node4</title>
<path fill="none" stroke="midnightblue" d="M327.836,-20.2999C337.091,-22.007 346.157,-23.6795 353.829,-25.0947"/>
<polygon fill="midnightblue" stroke="midnightblue" points="328.246,-16.8165 317.777,-18.4443 326.976,-23.7004 328.246,-16.8165"/>
</g>
</g>
</svg>
