<?xml version="1.0" encoding="UTF-8" standalone="no"?>
<!DOCTYPE svg PUBLIC "-//W3C//DTD SVG 1.1//EN"
 "http://www.w3.org/Graphics/SVG/1.1/DTD/svg11.dtd">
<!-- Generated by graphviz version 2.36.0 (20140111.2315)
 -->
<!-- Title: read_grammar Pages: 1 -->
<svg width="568pt" height="902pt"
 viewBox="0.00 0.00 568.00 902.00" xmlns="http://www.w3.org/2000/svg" xmlns:xlink="http://www.w3.org/1999/xlink">
<g id="graph0" class="graph" transform="scale(1 1) rotate(0) translate(4 898)">
<title>read_grammar</title>
<polygon fill="white" stroke="none" points="-4,4 -4,-898 564,-898 564,4 -4,4"/>
<!-- Node1 -->
<g id="node1" class="node"><title>Node1</title>
<polygon fill="#bfbfbf" stroke="black" points="0.5,-418.5 0.5,-437.5 79.5,-437.5 79.5,-418.5 0.5,-418.5"/>
<text text-anchor="middle" x="40" y="-425.5" font-family="Helvetica,sans-Serif" font-size="10.00">read_grammar</text>
</g>
<!-- Node2 -->
<g id="node2" class="node"><title>Node2</title>
<g id="a_node2"><a xlink:href="reader_8c.html#a34bf32e056d8bc6f1fb490f4efc7ce90" target="_top" xlink:title="add_symbol">
<polygon fill="white" stroke="black" points="129.5,-722.5 129.5,-741.5 198.5,-741.5 198.5,-722.5 129.5,-722.5"/>
<text text-anchor="middle" x="164" y="-729.5" font-family="Helvetica,sans-Serif" font-size="10.00">add_symbol</text>
</a>
</g>
</g>
<!-- Node1&#45;&gt;Node2 -->
<g id="edge1" class="edge"><title>Node1&#45;&gt;Node2</title>
<path fill="none" stroke="midnightblue" d="M44.921,-437.77C62.2374,-480.919 132.032,-654.833 155.362,-712.968"/>
<polygon fill="midnightblue" stroke="midnightblue" points="152.182,-714.441 159.154,-722.418 158.678,-711.834 152.182,-714.441"/>
</g>
<!-- Node3 -->
<g id="node3" class="node"><title>Node3</title>
<g id="a_node3"><a xlink:href="reader_8c.html#ae8594bb30d2b0297a4f533a4268c5d0a" target="_top" xlink:title="end_rule">
<polygon fill="white" stroke="red" points="268.5,-874.5 268.5,-893.5 321.5,-893.5 321.5,-874.5 268.5,-874.5"/>
<text text-anchor="middle" x="295" y="-881.5" font-family="Helvetica,sans-Serif" font-size="10.00">end_rule</text>
</a>
</g>
</g>
<!-- Node1&#45;&gt;Node3 -->
<g id="edge40" class="edge"><title>Node1&#45;&gt;Node3</title>
<path fill="none" stroke="midnightblue" d="M40.9182,-437.637C41.0115,-478.938 45.9513,-643.762 116,-751 153.206,-807.959 223.627,-849.56 263.841,-869.931"/>
<polygon fill="midnightblue" stroke="midnightblue" points="262.383,-873.115 272.898,-874.418 265.491,-866.843 262.383,-873.115"/>
</g>
<!-- Node10 -->
<g id="node10" class="node"><title>Node10</title>
<g id="a_node10"><a xlink:href="reader_8c.html#a11446424d65669df0f3a9e3b1cca57fa" target="_top" xlink:title="nextc">
<polygon fill="white" stroke="red" points="403.5,-418.5 403.5,-437.5 444.5,-437.5 444.5,-418.5 403.5,-418.5"/>
<text text-anchor="middle" x="424" y="-425.5" font-family="Helvetica,sans-Serif" font-size="10.00">nextc</text>
</a>
</g>
</g>
<!-- Node1&#45;&gt;Node10 -->
<g id="edge47" class="edge"><title>Node1&#45;&gt;Node10</title>
<path fill="none" stroke="midnightblue" d="M79.764,-436.357C91.3655,-438.554 104.152,-440.677 116,-442 215.848,-453.149 242.197,-458.549 342,-447 359.254,-445.003 378.171,-440.69 393.381,-436.678"/>
<polygon fill="midnightblue" stroke="midnightblue" points="394.53,-439.992 403.253,-433.98 392.684,-433.24 394.53,-439.992"/>
</g>
<!-- Node11 -->
<g id="node11" class="node"><title>Node11</title>
<g id="a_node11"><a xlink:href="reader_8c.html#a7691871ff8cdc7f1f7bdaf2443070ff1" target="_top" xlink:title="start_rule">
<polygon fill="white" stroke="red" points="266.5,-418.5 266.5,-437.5 323.5,-437.5 323.5,-418.5 266.5,-418.5"/>
<text text-anchor="middle" x="295" y="-425.5" font-family="Helvetica,sans-Serif" font-size="10.00">start_rule</text>
</a>
</g>
</g>
<!-- Node1&#45;&gt;Node11 -->
<g id="edge48" class="edge"><title>Node1&#45;&gt;Node11</title>
<path fill="none" stroke="midnightblue" d="M79.7007,-428C127.574,-428 208.55,-428 256.066,-428"/>
<polygon fill="midnightblue" stroke="midnightblue" points="256.244,-431.5 266.244,-428 256.244,-424.5 256.244,-431.5"/>
</g>
<!-- Node12 -->
<g id="node12" class="node"><title>Node12</title>
<g id="a_node12"><a xlink:href="reader_8c.html#ac910677446efcb4dbebc9a6d3d90a9ff" target="_top" xlink:title="advance_to_start">
<polygon fill="white" stroke="black" points="118,-190.5 118,-209.5 210,-209.5 210,-190.5 118,-190.5"/>
<text text-anchor="middle" x="164" y="-197.5" font-family="Helvetica,sans-Serif" font-size="10.00">advance_to_start</text>
</a>
</g>
</g>
<!-- Node1&#45;&gt;Node12 -->
<g id="edge14" class="edge"><title>Node1&#45;&gt;Node12</title>
<path fill="none" stroke="midnightblue" d="M42.0673,-418.207C46.0101,-386.378 62.4211,-284.416 116,-224 119.093,-220.513 122.812,-217.464 126.788,-214.816"/>
<polygon fill="midnightblue" stroke="midnightblue" points="128.838,-217.674 135.755,-209.648 125.343,-211.609 128.838,-217.674"/>
</g>
<!-- Node15 -->
<g id="node15" class="node"><title>Node15</title>
<g id="a_node15"><a xlink:href="error_8c.html#ae2027917ace8b6f808a14b5cd4085eaf" target="_top" xlink:title="syntax_error">
<polygon fill="white" stroke="red" points="388.5,-190.5 388.5,-209.5 459.5,-209.5 459.5,-190.5 388.5,-190.5"/>
<text text-anchor="middle" x="424" y="-197.5" font-family="Helvetica,sans-Serif" font-size="10.00">syntax_error</text>
</a>
</g>
</g>
<!-- Node1&#45;&gt;Node15 -->
<g id="edge49" class="edge"><title>Node1&#45;&gt;Node15</title>
<path fill="none" stroke="midnightblue" d="M53.746,-418.419C68.4635,-407.492 93.5351,-389.293 116,-375 216.589,-311.001 341.37,-243.323 395.65,-214.431"/>
<polygon fill="midnightblue" stroke="midnightblue" points="397.453,-217.437 404.644,-209.656 394.17,-211.254 397.453,-217.437"/>
</g>
<!-- Node20 -->
<g id="node20" class="node"><title>Node20</title>
<g id="a_node20"><a xlink:href="reader_8c.html#abb83807b1bba8d346650d3e4ae4e7425" target="_top" xlink:title="copy_action">
<polygon fill="white" stroke="red" points="129.5,-570.5 129.5,-589.5 198.5,-589.5 198.5,-570.5 129.5,-570.5"/>
<text text-anchor="middle" x="164" y="-577.5" font-family="Helvetica,sans-Serif" font-size="10.00">copy_action</text>
</a>
</g>
</g>
<!-- Node1&#45;&gt;Node20 -->
<g id="edge33" class="edge"><title>Node1&#45;&gt;Node20</title>
<path fill="none" stroke="midnightblue" d="M48.6316,-437.508C68.6583,-462.46 122.953,-530.106 148.867,-562.392"/>
<polygon fill="midnightblue" stroke="midnightblue" points="146.382,-564.887 155.371,-570.495 151.841,-560.506 146.382,-564.887"/>
</g>
<!-- Node24 -->
<g id="node24" class="node"><title>Node24</title>
<g id="a_node24"><a xlink:href="reader_8c.html#a329c5f0f613a0bef43be8262a531e952" target="_top" xlink:title="initialize_grammar">
<polygon fill="white" stroke="red" points="116.5,-152.5 116.5,-171.5 211.5,-171.5 211.5,-152.5 116.5,-152.5"/>
<text text-anchor="middle" x="164" y="-159.5" font-family="Helvetica,sans-Serif" font-size="10.00">initialize_grammar</text>
</a>
</g>
</g>
<!-- Node1&#45;&gt;Node24 -->
<g id="edge41" class="edge"><title>Node1&#45;&gt;Node24</title>
<path fill="none" stroke="midnightblue" d="M41.1091,-418.055C42.0409,-381.519 50.0727,-253.099 116,-181 117.336,-179.539 118.801,-178.187 120.361,-176.938"/>
<polygon fill="midnightblue" stroke="midnightblue" points="122.287,-179.86 128.802,-171.505 118.499,-173.974 122.287,-179.86"/>
</g>
<!-- Node25 -->
<g id="node25" class="node"><title>Node25</title>
<g id="a_node25"><a xlink:href="reader_8c.html#aae3985d515e47c03afc20f92c0292531" target="_top" xlink:title="mark_symbol">
<polygon fill="white" stroke="red" points="257.5,-342.5 257.5,-361.5 332.5,-361.5 332.5,-342.5 257.5,-342.5"/>
<text text-anchor="middle" x="295" y="-349.5" font-family="Helvetica,sans-Serif" font-size="10.00">mark_symbol</text>
</a>
</g>
</g>
<!-- Node1&#45;&gt;Node25 -->
<g id="edge42" class="edge"><title>Node1&#45;&gt;Node25</title>
<path fill="none" stroke="midnightblue" d="M72.7864,-418.452C118.325,-404.772 202.178,-379.583 252.54,-364.454"/>
<polygon fill="midnightblue" stroke="midnightblue" points="253.574,-367.798 262.145,-361.569 251.56,-361.094 253.574,-367.798"/>
</g>
<!-- Node2&#45;&gt;Node3 -->
<g id="edge2" class="edge"><title>Node2&#45;&gt;Node3</title>
<path fill="none" stroke="midnightblue" d="M169.086,-741.535C179.343,-764.532 208.231,-823.818 248,-860 251.898,-863.546 256.416,-866.725 261.068,-869.519"/>
<polygon fill="midnightblue" stroke="midnightblue" points="259.595,-872.702 270.05,-874.413 262.944,-866.555 259.595,-872.702"/>
</g>
<!-- Node4 -->
<g id="node4" class="node"><title>Node4</title>
<g id="a_node4"><a xlink:href="reader_8c.html#a2d5a55a1a526ac853c3234ea51ee18f8" target="_top" xlink:title="expand_items">
<polygon fill="white" stroke="red" points="385.5,-836.5 385.5,-855.5 462.5,-855.5 462.5,-836.5 385.5,-836.5"/>
<text text-anchor="middle" x="424" y="-843.5" font-family="Helvetica,sans-Serif" font-size="10.00">expand_items</text>
</a>
</g>
</g>
<!-- Node2&#45;&gt;Node4 -->
<g id="edge4" class="edge"><title>Node2&#45;&gt;Node4</title>
<path fill="none" stroke="midnightblue" d="M170.633,-741.628C182.332,-760.641 211.257,-802.821 248,-822 287.342,-842.535 338.127,-847.523 374.845,-847.979"/>
<polygon fill="midnightblue" stroke="midnightblue" points="375.279,-851.479 385.283,-847.992 375.288,-844.479 375.279,-851.479"/>
</g>
<!-- Node5 -->
<g id="node5" class="node"><title>Node5</title>
<g id="a_node5"><a xlink:href="reader_8c.html#acfb64f081b0d9c4536e90c5352ce9c2c" target="_top" xlink:title="get_literal">
<polygon fill="white" stroke="red" points="394.5,-532.5 394.5,-551.5 453.5,-551.5 453.5,-532.5 394.5,-532.5"/>
<text text-anchor="middle" x="424" y="-539.5" font-family="Helvetica,sans-Serif" font-size="10.00">get_literal</text>
</a>
</g>
</g>
<!-- Node2&#45;&gt;Node5 -->
<g id="edge5" class="edge"><title>Node2&#45;&gt;Node5</title>
<path fill="none" stroke="midnightblue" d="M174.656,-741.623C189.123,-755.283 217.949,-779.675 248,-789 287.901,-801.382 308.168,-813.51 342,-789 416.603,-734.953 423.733,-610.045 423.56,-561.652"/>
<polygon fill="midnightblue" stroke="midnightblue" points="427.058,-561.51 423.408,-551.564 420.059,-561.616 427.058,-561.51"/>
</g>
<!-- Node8 -->
<g id="node8" class="node"><title>Node8</title>
<g id="a_node8"><a xlink:href="reader_8c.html#a47f6ab5db224a190b33568ed55a03eaf" target="_top" xlink:title="get_name">
<polygon fill="white" stroke="red" points="394.5,-342.5 394.5,-361.5 453.5,-361.5 453.5,-342.5 394.5,-342.5"/>
<text text-anchor="middle" x="424" y="-349.5" font-family="Helvetica,sans-Serif" font-size="10.00">get_name</text>
</a>
</g>
</g>
<!-- Node2&#45;&gt;Node8 -->
<g id="edge8" class="edge"><title>Node2&#45;&gt;Node8</title>
<path fill="none" stroke="midnightblue" d="M175.551,-722.433C190.655,-709.149 219.746,-685.056 248,-670 287.076,-649.178 313.649,-671.011 342,-637 407.687,-558.199 336.877,-502.986 378,-409 384.524,-394.089 395.912,-379.722 405.598,-369.142"/>
<polygon fill="midnightblue" stroke="midnightblue" points="408.192,-371.493 412.566,-361.843 403.129,-366.66 408.192,-371.493"/>
</g>
<!-- Node9 -->
<g id="node9" class="node"><title>Node9</title>
<g id="a_node9"><a xlink:href="reader_8c.html#ac59b5c8d9dca9fc4b2614fd186ec6c55" target="_top" xlink:title="insert_empty_rule">
<polygon fill="white" stroke="red" points="248,-760.5 248,-779.5 342,-779.5 342,-760.5 248,-760.5"/>
<text text-anchor="middle" x="295" y="-767.5" font-family="Helvetica,sans-Serif" font-size="10.00">insert_empty_rule</text>
</a>
</g>
</g>
<!-- Node2&#45;&gt;Node9 -->
<g id="edge9" class="edge"><title>Node2&#45;&gt;Node9</title>
<path fill="none" stroke="midnightblue" d="M197.552,-741.589C213.899,-746.404 233.909,-752.299 251.457,-757.468"/>
<polygon fill="midnightblue" stroke="midnightblue" points="250.877,-760.946 261.458,-760.414 252.855,-754.231 250.877,-760.946"/>
</g>
<!-- Node2&#45;&gt;Node10 -->
<g id="edge11" class="edge"><title>Node2&#45;&gt;Node10</title>
<path fill="none" stroke="midnightblue" d="M198.557,-729.628C238.565,-724.96 304.69,-711.107 342,-670 387.207,-620.193 355.488,-586.385 378,-523 387.734,-495.594 402.787,-465.496 412.765,-446.677"/>
<polygon fill="midnightblue" stroke="midnightblue" points="415.936,-448.169 417.592,-437.704 409.772,-444.852 415.936,-448.169"/>
</g>
<!-- Node2&#45;&gt;Node11 -->
<g id="edge13" class="edge"><title>Node2&#45;&gt;Node11</title>
<path fill="none" stroke="midnightblue" d="M168.559,-722.314C179.622,-692.373 214.668,-598.759 248,-523 259.823,-496.128 274.863,-465.684 284.464,-446.663"/>
<polygon fill="midnightblue" stroke="midnightblue" points="287.658,-448.102 289.063,-437.601 281.416,-444.934 287.658,-448.102"/>
</g>
<!-- Node3&#45;&gt;Node4 -->
<g id="edge3" class="edge"><title>Node3&#45;&gt;Node4</title>
<path fill="none" stroke="midnightblue" d="M321.7,-876.31C338.814,-871.19 361.686,-864.346 381.366,-858.457"/>
<polygon fill="midnightblue" stroke="midnightblue" points="382.447,-861.787 391.024,-855.568 380.441,-855.081 382.447,-861.787"/>
</g>
<!-- Node6 -->
<g id="node6" class="node"><title>Node6</title>
<g id="a_node6"><a xlink:href="reader_8c.html#a416a4e795e86e5666f1a734793f9636e" target="_top" xlink:title="dup_line">
<polygon fill="white" stroke="red" points="506.5,-532.5 506.5,-551.5 559.5,-551.5 559.5,-532.5 506.5,-532.5"/>
<text text-anchor="middle" x="533" y="-539.5" font-family="Helvetica,sans-Serif" font-size="10.00">dup_line</text>
</a>
</g>
</g>
<!-- Node5&#45;&gt;Node6 -->
<g id="edge6" class="edge"><title>Node5&#45;&gt;Node6</title>
<path fill="none" stroke="midnightblue" d="M453.674,-542C466.697,-542 482.242,-542 496.037,-542"/>
<polygon fill="midnightblue" stroke="midnightblue" points="496.175,-545.5 506.175,-542 496.175,-538.5 496.175,-545.5"/>
</g>
<!-- Node7 -->
<g id="node7" class="node"><title>Node7</title>
<g id="a_node7"><a xlink:href="reader_8c.html#a204317aa3b6d154f1abff12df35953df" target="_top" xlink:title="get_line">
<polygon fill="white" stroke="red" points="508,-456.5 508,-475.5 558,-475.5 558,-456.5 508,-456.5"/>
<text text-anchor="middle" x="533" y="-463.5" font-family="Helvetica,sans-Serif" font-size="10.00">get_line</text>
</a>
</g>
</g>
<!-- Node5&#45;&gt;Node7 -->
<g id="edge7" class="edge"><title>Node5&#45;&gt;Node7</title>
<path fill="none" stroke="midnightblue" d="M445.232,-532.346C453.17,-528.27 462.222,-523.252 470,-518 485.892,-507.269 502.464,-493.197 514.472,-482.399"/>
<polygon fill="midnightblue" stroke="midnightblue" points="516.971,-484.857 521.992,-475.527 512.249,-479.689 516.971,-484.857"/>
</g>
<!-- Node9&#45;&gt;Node4 -->
<g id="edge10" class="edge"><title>Node9&#45;&gt;Node4</title>
<path fill="none" stroke="midnightblue" d="M312.085,-779.625C333.842,-792.645 372.853,-815.991 398.329,-831.236"/>
<polygon fill="midnightblue" stroke="midnightblue" points="396.668,-834.321 407.046,-836.453 400.262,-828.314 396.668,-834.321"/>
</g>
<!-- Node10&#45;&gt;Node7 -->
<g id="edge12" class="edge"><title>Node10&#45;&gt;Node7</title>
<path fill="none" stroke="midnightblue" d="M444.625,-434.97C459.453,-440.236 480.178,-447.596 497.722,-453.826"/>
<polygon fill="midnightblue" stroke="midnightblue" points="497.021,-457.292 507.615,-457.34 499.363,-450.695 497.021,-457.292"/>
</g>
<!-- Node12&#45;&gt;Node8 -->
<g id="edge24" class="edge"><title>Node12&#45;&gt;Node8</title>
<path fill="none" stroke="midnightblue" d="M174.543,-209.653C189.32,-224.241 219.063,-252.193 248,-271 301.673,-305.883 319.61,-306.766 378,-333 381.916,-334.759 386.043,-336.566 390.145,-338.332"/>
<polygon fill="midnightblue" stroke="midnightblue" points="388.985,-341.643 399.557,-342.339 391.727,-335.202 388.985,-341.643"/>
</g>
<!-- Node12&#45;&gt;Node10 -->
<g id="edge27" class="edge"><title>Node12&#45;&gt;Node10</title>
<path fill="none" stroke="midnightblue" d="M166.927,-209.753C173.161,-238.749 195.51,-325.25 248,-371 270.021,-390.193 349.857,-411.047 393.688,-421.398"/>
<polygon fill="midnightblue" stroke="midnightblue" points="392.955,-424.821 403.488,-423.679 394.541,-418.003 392.955,-424.821"/>
</g>
<!-- Node12&#45;&gt;Node11 -->
<g id="edge29" class="edge"><title>Node12&#45;&gt;Node11</title>
<path fill="none" stroke="midnightblue" d="M166.523,-209.784C171.933,-241.586 192.938,-343.474 248,-404 251.239,-407.561 255.13,-410.68 259.26,-413.388"/>
<polygon fill="midnightblue" stroke="midnightblue" points="257.526,-416.429 267.94,-418.378 261.015,-410.36 257.526,-416.429"/>
</g>
<!-- Node13 -->
<g id="node13" class="node"><title>Node13</title>
<g id="a_node13"><a xlink:href="reader_8c.html#a5719a5118a10bc1e96786f599eeb516f" target="_top" xlink:title="copy_text">
<polygon fill="white" stroke="red" points="394.5,-304.5 394.5,-323.5 453.5,-323.5 453.5,-304.5 394.5,-304.5"/>
<text text-anchor="middle" x="424" y="-311.5" font-family="Helvetica,sans-Serif" font-size="10.00">copy_text</text>
</a>
</g>
</g>
<!-- Node12&#45;&gt;Node13 -->
<g id="edge15" class="edge"><title>Node12&#45;&gt;Node13</title>
<path fill="none" stroke="midnightblue" d="M186.553,-209.523C232.272,-229.725 339.112,-276.933 392.089,-300.341"/>
<polygon fill="midnightblue" stroke="midnightblue" points="390.765,-303.583 401.327,-304.423 393.594,-297.18 390.765,-303.583"/>
</g>
<!-- Node14 -->
<g id="node14" class="node"><title>Node14</title>
<g id="a_node14"><a xlink:href="reader_8c.html#a279a8d9eb5a5ad8dce6c95b2647b9c98" target="_top" xlink:title="declare_start">
<polygon fill="white" stroke="red" points="258.5,-76.5 258.5,-95.5 331.5,-95.5 331.5,-76.5 258.5,-76.5"/>
<text text-anchor="middle" x="295" y="-83.5" font-family="Helvetica,sans-Serif" font-size="10.00">declare_start</text>
</a>
</g>
</g>
<!-- Node12&#45;&gt;Node14 -->
<g id="edge18" class="edge"><title>Node12&#45;&gt;Node14</title>
<path fill="none" stroke="midnightblue" d="M197.742,-190.492C202.917,-187.986 207.903,-184.865 212,-181 239.186,-155.352 220.91,-130.751 248,-105 249.628,-103.452 251.4,-102.023 253.27,-100.704"/>
<polygon fill="midnightblue" stroke="midnightblue" points="255.103,-103.686 261.951,-95.602 251.556,-97.6513 255.103,-103.686"/>
</g>
<!-- Node12&#45;&gt;Node15 -->
<g id="edge30" class="edge"><title>Node12&#45;&gt;Node15</title>
<path fill="none" stroke="midnightblue" d="M210.235,-200C257.395,-200 330.867,-200 377.955,-200"/>
<polygon fill="midnightblue" stroke="midnightblue" points="378.164,-203.5 388.164,-200 378.164,-196.5 378.164,-203.5"/>
</g>
<!-- Node16 -->
<g id="node16" class="node"><title>Node16</title>
<g id="a_node16"><a xlink:href="error_8c.html#a6859daa9b91716c6fbe56b822641877c" target="_top" xlink:title="terminal_start">
<polygon fill="white" stroke="red" points="386,-0.5 386,-19.5 462,-19.5 462,-0.5 386,-0.5"/>
<text text-anchor="middle" x="424" y="-7.5" font-family="Helvetica,sans-Serif" font-size="10.00">terminal_start</text>
</a>
</g>
</g>
<!-- Node12&#45;&gt;Node16 -->
<g id="edge31" class="edge"><title>Node12&#45;&gt;Node16</title>
<path fill="none" stroke="midnightblue" d="M199.809,-190.366C204.375,-187.907 208.631,-184.835 212,-181 253.839,-133.384 201.664,-86.2526 248,-43 282.025,-11.239 336.552,-5.42122 375.701,-6.01752"/>
<polygon fill="midnightblue" stroke="midnightblue" points="375.702,-9.51901 385.802,-6.3171 375.91,-2.52209 375.702,-9.51901"/>
</g>
<!-- Node17 -->
<g id="node17" class="node"><title>Node17</title>
<g id="a_node17"><a xlink:href="error_8c.html#a65962bc9ddf21cd2dc0b5f6b7dcb35fc" target="_top" xlink:title="unexpected_EOF">
<polygon fill="white" stroke="red" points="378,-57.5 378,-76.5 470,-76.5 470,-57.5 378,-57.5"/>
<text text-anchor="middle" x="424" y="-64.5" font-family="Helvetica,sans-Serif" font-size="10.00">unexpected_EOF</text>
</a>
</g>
</g>
<!-- Node12&#45;&gt;Node17 -->
<g id="edge32" class="edge"><title>Node12&#45;&gt;Node17</title>
<path fill="none" stroke="midnightblue" d="M199.16,-190.46C203.929,-187.981 208.415,-184.877 212,-181 248.072,-141.988 205.144,-98.4085 248,-67 287.254,-38.2312 345.902,-45.4651 384.304,-54.91"/>
<polygon fill="midnightblue" stroke="midnightblue" points="383.525,-58.324 394.085,-57.4709 385.298,-51.5523 383.525,-58.324"/>
</g>
<!-- Node18 -->
<g id="node18" class="node"><title>Node18</title>
<g id="a_node18"><a xlink:href="reader_8c.html#a7b9f905e2f933d429fa1b479fd058f03" target="_top" xlink:title="keyword">
<polygon fill="white" stroke="red" points="268.5,-152.5 268.5,-171.5 321.5,-171.5 321.5,-152.5 268.5,-152.5"/>
<text text-anchor="middle" x="295" y="-159.5" font-family="Helvetica,sans-Serif" font-size="10.00">keyword</text>
</a>
</g>
</g>
<!-- Node12&#45;&gt;Node18 -->
<g id="edge25" class="edge"><title>Node12&#45;&gt;Node18</title>
<path fill="none" stroke="midnightblue" d="M197.552,-190.411C216.153,-184.932 239.496,-178.055 258.559,-172.44"/>
<polygon fill="midnightblue" stroke="midnightblue" points="259.766,-175.733 268.369,-169.55 257.788,-169.019 259.766,-175.733"/>
</g>
<!-- Node19 -->
<g id="node19" class="node"><title>Node19</title>
<g id="a_node19"><a xlink:href="error_8c.html#aa247f6f1a935ef2a5bffb181f2a9f48d" target="_top" xlink:title="no_grammar">
<polygon fill="white" stroke="red" points="259.5,-114.5 259.5,-133.5 330.5,-133.5 330.5,-114.5 259.5,-114.5"/>
<text text-anchor="middle" x="295" y="-121.5" font-family="Helvetica,sans-Serif" font-size="10.00">no_grammar</text>
</a>
</g>
</g>
<!-- Node12&#45;&gt;Node19 -->
<g id="edge28" class="edge"><title>Node12&#45;&gt;Node19</title>
<path fill="none" stroke="midnightblue" d="M194.329,-190.407C200.421,-187.803 206.618,-184.668 212,-181 231.223,-167.897 228.826,-156.176 248,-143 250.553,-141.246 253.292,-139.611 256.116,-138.095"/>
<polygon fill="midnightblue" stroke="midnightblue" points="257.814,-141.162 265.299,-133.664 254.772,-134.858 257.814,-141.162"/>
</g>
<!-- Node13&#45;&gt;Node6 -->
<g id="edge16" class="edge"><title>Node13&#45;&gt;Node6</title>
<path fill="none" stroke="midnightblue" d="M453.819,-321.457C459.883,-324.212 465.729,-327.949 470,-333 514.826,-386.013 483.487,-419.327 506,-485 510.483,-498.077 516.923,-512.218 522.272,-523.144"/>
<polygon fill="midnightblue" stroke="midnightblue" points="519.178,-524.782 526.79,-532.151 525.435,-521.644 519.178,-524.782"/>
</g>
<!-- Node13&#45;&gt;Node7 -->
<g id="edge17" class="edge"><title>Node13&#45;&gt;Node7</title>
<path fill="none" stroke="midnightblue" d="M453.575,-322.337C459.509,-325.035 465.36,-328.527 470,-333 503.032,-364.842 520.273,-417.704 527.592,-446.253"/>
<polygon fill="midnightblue" stroke="midnightblue" points="524.251,-447.329 529.996,-456.231 531.056,-445.69 524.251,-447.329"/>
</g>
<!-- Node14&#45;&gt;Node8 -->
<g id="edge19" class="edge"><title>Node14&#45;&gt;Node8</title>
<path fill="none" stroke="midnightblue" d="M330.873,-95.7138C335.117,-98.1547 339.003,-101.201 342,-105 405.533,-185.548 314.782,-252.204 378,-333 380.09,-335.672 382.626,-337.972 385.417,-339.952"/>
<polygon fill="midnightblue" stroke="midnightblue" points="383.933,-343.133 394.365,-344.983 387.363,-337.031 383.933,-343.133"/>
</g>
<!-- Node14&#45;&gt;Node10 -->
<g id="edge20" class="edge"><title>Node14&#45;&gt;Node10</title>
<path fill="none" stroke="midnightblue" d="M330.95,-95.6537C335.182,-98.1033 339.046,-101.168 342,-105 414.844,-199.479 331.388,-261.183 378,-371 384.359,-385.982 395.748,-400.349 405.477,-410.911"/>
<polygon fill="midnightblue" stroke="midnightblue" points="403.027,-413.413 412.482,-418.193 408.072,-408.56 403.027,-413.413"/>
</g>
<!-- Node14&#45;&gt;Node15 -->
<g id="edge21" class="edge"><title>Node14&#45;&gt;Node15</title>
<path fill="none" stroke="midnightblue" d="M325.33,-95.67C331.126,-98.2411 336.967,-101.344 342,-105 371.501,-126.43 397.209,-160.721 411.369,-181.715"/>
<polygon fill="midnightblue" stroke="midnightblue" points="408.616,-183.898 417.034,-190.331 414.465,-180.052 408.616,-183.898"/>
</g>
<!-- Node14&#45;&gt;Node16 -->
<g id="edge22" class="edge"><title>Node14&#45;&gt;Node16</title>
<path fill="none" stroke="midnightblue" d="M312.085,-76.3745C333.842,-63.3546 372.853,-40.0093 398.329,-24.7636"/>
<polygon fill="midnightblue" stroke="midnightblue" points="400.262,-27.6857 407.046,-19.5473 396.668,-21.679 400.262,-27.6857"/>
</g>
<!-- Node14&#45;&gt;Node17 -->
<g id="edge23" class="edge"><title>Node14&#45;&gt;Node17</title>
<path fill="none" stroke="midnightblue" d="M331.715,-80.6569C342.834,-78.9933 355.37,-77.1179 367.508,-75.3019"/>
<polygon fill="midnightblue" stroke="midnightblue" points="368.2,-78.7375 377.572,-73.7963 367.164,-71.8145 368.2,-78.7375"/>
</g>
<!-- Node18&#45;&gt;Node15 -->
<g id="edge26" class="edge"><title>Node18&#45;&gt;Node15</title>
<path fill="none" stroke="midnightblue" d="M321.7,-169.69C338.814,-174.81 361.686,-181.654 381.366,-187.543"/>
<polygon fill="midnightblue" stroke="midnightblue" points="380.441,-190.919 391.024,-190.432 382.447,-184.213 380.441,-190.919"/>
</g>
<!-- Node20&#45;&gt;Node6 -->
<g id="edge36" class="edge"><title>Node20&#45;&gt;Node6</title>
<path fill="none" stroke="midnightblue" d="M174.656,-589.623C189.123,-603.283 217.949,-627.675 248,-637 287.901,-649.382 301.34,-646.599 342,-637 407.289,-621.587 475.722,-580.115 509.869,-557.397"/>
<polygon fill="midnightblue" stroke="midnightblue" points="512.234,-560.023 518.56,-551.524 508.314,-554.223 512.234,-560.023"/>
</g>
<!-- Node20&#45;&gt;Node7 -->
<g id="edge37" class="edge"><title>Node20&#45;&gt;Node7</title>
<path fill="none" stroke="midnightblue" d="M175.948,-570.289C191.058,-557.428 219.662,-534.979 248,-523 333.331,-486.93 442.917,-473.256 497.663,-468.424"/>
<polygon fill="midnightblue" stroke="midnightblue" points="498.184,-471.892 507.857,-467.571 497.6,-464.917 498.184,-471.892"/>
</g>
<!-- Node20&#45;&gt;Node9 -->
<g id="edge39" class="edge"><title>Node20&#45;&gt;Node9</title>
<path fill="none" stroke="midnightblue" d="M167.592,-589.875C175.346,-617.723 200.794,-697.973 248,-746 251.449,-749.509 255.521,-752.613 259.792,-755.326"/>
<polygon fill="midnightblue" stroke="midnightblue" points="258.275,-758.488 268.705,-760.348 261.711,-752.39 258.275,-758.488"/>
</g>
<!-- Node21 -->
<g id="node21" class="node"><title>Node21</title>
<g id="a_node21"><a xlink:href="error_8c.html#aa7751e4500f0f24aba5df3a1da874632" target="_top" xlink:title="dollar_error">
<polygon fill="white" stroke="red" points="262.5,-532.5 262.5,-551.5 327.5,-551.5 327.5,-532.5 262.5,-532.5"/>
<text text-anchor="middle" x="295" y="-539.5" font-family="Helvetica,sans-Serif" font-size="10.00">dollar_error</text>
</a>
</g>
</g>
<!-- Node20&#45;&gt;Node21 -->
<g id="edge34" class="edge"><title>Node20&#45;&gt;Node21</title>
<path fill="none" stroke="midnightblue" d="M197.552,-570.411C214.304,-565.476 234.902,-559.409 252.756,-554.149"/>
<polygon fill="midnightblue" stroke="midnightblue" points="253.747,-557.506 262.35,-551.323 251.769,-550.792 253.747,-557.506"/>
</g>
<!-- Node22 -->
<g id="node22" class="node"><title>Node22</title>
<g id="a_node22"><a xlink:href="error_8c.html#ae78233a24912be6e0e72a1446c3058cd" target="_top" xlink:title="dollar_warning">
<polygon fill="white" stroke="black" points="255.5,-608.5 255.5,-627.5 334.5,-627.5 334.5,-608.5 255.5,-608.5"/>
<text text-anchor="middle" x="295" y="-615.5" font-family="Helvetica,sans-Serif" font-size="10.00">dollar_warning</text>
</a>
</g>
</g>
<!-- Node20&#45;&gt;Node22 -->
<g id="edge35" class="edge"><title>Node20&#45;&gt;Node22</title>
<path fill="none" stroke="midnightblue" d="M197.552,-589.589C213.899,-594.404 233.909,-600.299 251.457,-605.468"/>
<polygon fill="midnightblue" stroke="midnightblue" points="250.877,-608.946 261.458,-608.414 252.855,-602.231 250.877,-608.946"/>
</g>
<!-- Node23 -->
<g id="node23" class="node"><title>Node23</title>
<g id="a_node23"><a xlink:href="reader_8c.html#aceeb8c6c5418f8ac9c9b5666f4047ae3" target="_top" xlink:title="get_number">
<polygon fill="white" stroke="black" points="261,-570.5 261,-589.5 329,-589.5 329,-570.5 261,-570.5"/>
<text text-anchor="middle" x="295" y="-577.5" font-family="Helvetica,sans-Serif" font-size="10.00">get_number</text>
</a>
</g>
</g>
<!-- Node20&#45;&gt;Node23 -->
<g id="edge38" class="edge"><title>Node20&#45;&gt;Node23</title>
<path fill="none" stroke="midnightblue" d="M198.556,-580C214.383,-580 233.467,-580 250.397,-580"/>
<polygon fill="midnightblue" stroke="midnightblue" points="250.612,-583.5 260.612,-580 250.611,-576.5 250.612,-583.5"/>
</g>
<!-- Node25&#45;&gt;Node5 -->
<g id="edge43" class="edge"><title>Node25&#45;&gt;Node5</title>
<path fill="none" stroke="midnightblue" d="M304.556,-361.78C314.119,-372.893 329.855,-391.734 342,-409 369.723,-448.412 398.105,-497.412 412.791,-523.547"/>
<polygon fill="midnightblue" stroke="midnightblue" points="409.789,-525.35 417.719,-532.376 415.902,-521.938 409.789,-525.35"/>
</g>
<!-- Node25&#45;&gt;Node8 -->
<g id="edge44" class="edge"><title>Node25&#45;&gt;Node8</title>
<path fill="none" stroke="midnightblue" d="M332.734,-352C348.839,-352 367.756,-352 384.101,-352"/>
<polygon fill="midnightblue" stroke="midnightblue" points="384.415,-355.5 394.415,-352 384.415,-348.5 384.415,-355.5"/>
</g>
<!-- Node25&#45;&gt;Node10 -->
<g id="edge45" class="edge"><title>Node25&#45;&gt;Node10</title>
<path fill="none" stroke="midnightblue" d="M315.457,-361.662C323.732,-365.896 333.43,-371.027 342,-376 362.057,-387.639 384.169,-401.939 400.216,-412.595"/>
<polygon fill="midnightblue" stroke="midnightblue" points="398.643,-415.753 408.902,-418.4 402.533,-409.934 398.643,-415.753"/>
</g>
<!-- Node25&#45;&gt;Node15 -->
<g id="edge46" class="edge"><title>Node25&#45;&gt;Node15</title>
<path fill="none" stroke="midnightblue" d="M303.944,-342.492C324.881,-317.434 381.796,-249.316 408.632,-217.196"/>
<polygon fill="midnightblue" stroke="midnightblue" points="411.333,-219.423 415.059,-209.505 405.961,-214.935 411.333,-219.423"/>
</g>
</g>
</svg>
