<?xml version="1.0" encoding="UTF-8" standalone="no"?>
<!DOCTYPE svg PUBLIC "-//W3C//DTD SVG 1.1//EN"
 "http://www.w3.org/Graphics/SVG/1.1/DTD/svg11.dtd">
<!-- Generated by graphviz version 2.36.0 (20140111.2315)
 -->
<!-- Title: nextc Pages: 1 -->
<svg width="500pt" height="348pt"
 viewBox="0.00 0.00 500.00 347.86" xmlns="http://www.w3.org/2000/svg" xmlns:xlink="http://www.w3.org/1999/xlink">
<g id="graph0" class="graph" transform="scale(1 1) rotate(0) translate(4 343.859)">
<title>nextc</title>
<polygon fill="white" stroke="none" points="-4,4 -4,-343.859 496,-343.859 496,4 -4,4"/>
<!-- Node1 -->
<g id="node1" class="node"><title>Node1</title>
<polygon fill="#bfbfbf" stroke="black" points="0.5,-149.359 0.5,-168.359 41.5,-168.359 41.5,-149.359 0.5,-149.359"/>
<text text-anchor="middle" x="21" y="-156.359" font-family="Helvetica,sans-Serif" font-size="10.00">nextc</text>
</g>
<!-- Node2 -->
<g id="node2" class="node"><title>Node2</title>
<g id="a_node2"><a xlink:href="reader_8c.html#a34bf32e056d8bc6f1fb490f4efc7ce90" target="_top" xlink:title="add_symbol">
<polygon fill="white" stroke="black" points="201.5,-320.359 201.5,-339.359 270.5,-339.359 270.5,-320.359 201.5,-320.359"/>
<text text-anchor="middle" x="236" y="-327.359" font-family="Helvetica,sans-Serif" font-size="10.00">add_symbol</text>
</a>
</g>
</g>
<!-- Node1&#45;&gt;Node2 -->
<g id="edge1" class="edge"><title>Node1&#45;&gt;Node2</title>
<path fill="none" stroke="midnightblue" d="M23.4029,-178.631C26.8167,-210.765 38.4649,-273.937 78,-305.859 112.862,-334.008 166.725,-336.091 201.42,-333.858"/>
<polygon fill="midnightblue" stroke="midnightblue" points="26.8881,-178.308 22.5066,-168.661 19.9162,-178.935 26.8881,-178.308"/>
</g>
<!-- Node3 -->
<g id="node3" class="node"><title>Node3</title>
<g id="a_node3"><a xlink:href="reader_8c.html#af6d4fba61bb761ca9fe92fef83e8ee94" target="_top" xlink:title="read_grammar">
<polygon fill="white" stroke="black" points="325.5,-225.359 325.5,-244.359 404.5,-244.359 404.5,-225.359 325.5,-225.359"/>
<text text-anchor="middle" x="365" y="-232.359" font-family="Helvetica,sans-Serif" font-size="10.00">read_grammar</text>
</a>
</g>
</g>
<!-- Node1&#45;&gt;Node3 -->
<g id="edge24" class="edge"><title>Node1&#45;&gt;Node3</title>
<path fill="none" stroke="midnightblue" d="M25.1845,-178.549C30.6841,-205.297 44.7549,-252.15 78,-272.859 166.007,-327.68 298.684,-269 346.25,-244.528"/>
<polygon fill="midnightblue" stroke="midnightblue" points="28.5779,-177.65 23.3214,-168.452 21.6941,-178.921 28.5779,-177.65"/>
</g>
<!-- Node5 -->
<g id="node5" class="node"><title>Node5</title>
<g id="a_node5"><a xlink:href="reader_8c.html#ac910677446efcb4dbebc9a6d3d90a9ff" target="_top" xlink:title="advance_to_start">
<polygon fill="white" stroke="black" points="190,-206.359 190,-225.359 282,-225.359 282,-206.359 190,-206.359"/>
<text text-anchor="middle" x="236" y="-213.359" font-family="Helvetica,sans-Serif" font-size="10.00">advance_to_start</text>
</a>
</g>
</g>
<!-- Node1&#45;&gt;Node5 -->
<g id="edge4" class="edge"><title>Node1&#45;&gt;Node5</title>
<path fill="none" stroke="midnightblue" d="M40.5709,-174.783C50.9143,-182.757 64.4181,-191.773 78,-196.859 113.997,-210.339 157.577,-214.758 189.68,-215.995"/>
<polygon fill="midnightblue" stroke="midnightblue" points="42.6773,-171.986 32.6935,-168.44 38.2869,-177.438 42.6773,-171.986"/>
</g>
<!-- Node6 -->
<g id="node6" class="node"><title>Node6</title>
<g id="a_node6"><a xlink:href="reader_8c.html#a475e9b3fc05ea753aeeb760cea34a511" target="_top" xlink:title="copy_ident">
<polygon fill="white" stroke="black" points="84,-16.3592 84,-35.3592 148,-35.3592 148,-16.3592 84,-16.3592"/>
<text text-anchor="middle" x="116" y="-23.3592" font-family="Helvetica,sans-Serif" font-size="10.00">copy_ident</text>
</a>
</g>
</g>
<!-- Node1&#45;&gt;Node6 -->
<g id="edge6" class="edge"><title>Node1&#45;&gt;Node6</title>
<path fill="none" stroke="midnightblue" d="M28.3773,-139.648C36.8458,-116.339 53.6277,-76.8217 78,-49.8592 83.1343,-44.1792 89.9032,-39.2746 96.2462,-35.4063"/>
<polygon fill="midnightblue" stroke="midnightblue" points="25.0644,-138.519 25.074,-149.113 31.6735,-140.825 25.0644,-138.519"/>
</g>
<!-- Node7 -->
<g id="node7" class="node"><title>Node7</title>
<g id="a_node7"><a xlink:href="reader_8c.html#a07addfee5457e48ddb310769dd0e39af" target="_top" xlink:title="read_declarations">
<polygon fill="white" stroke="black" points="318.5,-73.3592 318.5,-92.3592 411.5,-92.3592 411.5,-73.3592 318.5,-73.3592"/>
<text text-anchor="middle" x="365" y="-80.3592" font-family="Helvetica,sans-Serif" font-size="10.00">read_declarations</text>
</a>
</g>
</g>
<!-- Node1&#45;&gt;Node7 -->
<g id="edge23" class="edge"><title>Node1&#45;&gt;Node7</title>
<path fill="none" stroke="midnightblue" d="M22.5515,-139.146C24.689,-105.384 34.4762,-37.2078 78,-6.85922 107.485,13.7006 266.21,-18.5952 282,-24.8592 310.851,-36.3047 339.225,-59.8744 353.837,-73.1747"/>
<polygon fill="midnightblue" stroke="midnightblue" points="19.0537,-139.019 22.0821,-149.172 26.046,-139.346 19.0537,-139.019"/>
</g>
<!-- Node8 -->
<g id="node8" class="node"><title>Node8</title>
<g id="a_node8"><a xlink:href="reader_8c.html#a279a8d9eb5a5ad8dce6c95b2647b9c98" target="_top" xlink:title="declare_start">
<polygon fill="white" stroke="black" points="79.5,-168.359 79.5,-187.359 152.5,-187.359 152.5,-168.359 79.5,-168.359"/>
<text text-anchor="middle" x="116" y="-175.359" font-family="Helvetica,sans-Serif" font-size="10.00">declare_start</text>
</a>
</g>
</g>
<!-- Node1&#45;&gt;Node8 -->
<g id="edge9" class="edge"><title>Node1&#45;&gt;Node8</title>
<path fill="none" stroke="midnightblue" d="M51.7999,-164.947C60.5086,-166.727 70.1186,-168.69 79.1602,-170.537"/>
<polygon fill="midnightblue" stroke="midnightblue" points="52.2211,-161.461 41.7229,-162.889 50.8199,-168.32 52.2211,-161.461"/>
</g>
<!-- Node9 -->
<g id="node9" class="node"><title>Node9</title>
<g id="a_node9"><a xlink:href="reader_8c.html#a0b749a023a959fabb8ed2778b46ec217" target="_top" xlink:title="declare_tokens">
<polygon fill="white" stroke="black" points="194.5,-92.3592 194.5,-111.359 277.5,-111.359 277.5,-92.3592 194.5,-92.3592"/>
<text text-anchor="middle" x="236" y="-99.3592" font-family="Helvetica,sans-Serif" font-size="10.00">declare_tokens</text>
</a>
</g>
</g>
<!-- Node1&#45;&gt;Node9 -->
<g id="edge12" class="edge"><title>Node1&#45;&gt;Node9</title>
<path fill="none" stroke="midnightblue" d="M40.5709,-142.935C50.9143,-134.962 64.4181,-125.945 78,-120.859 115.797,-106.705 161.953,-102.541 194.407,-101.562"/>
<polygon fill="midnightblue" stroke="midnightblue" points="38.2869,-140.281 32.6935,-149.279 42.6773,-145.733 38.2869,-140.281"/>
</g>
<!-- Node10 -->
<g id="node10" class="node"><title>Node10</title>
<g id="a_node10"><a xlink:href="reader_8c.html#a860dbc8da656fd831b19668da20207c7" target="_top" xlink:title="declare_types">
<polygon fill="white" stroke="black" points="197.5,-54.3592 197.5,-73.3592 274.5,-73.3592 274.5,-54.3592 197.5,-54.3592"/>
<text text-anchor="middle" x="236" y="-61.3592" font-family="Helvetica,sans-Serif" font-size="10.00">declare_types</text>
</a>
</g>
</g>
<!-- Node1&#45;&gt;Node10 -->
<g id="edge14" class="edge"><title>Node1&#45;&gt;Node10</title>
<path fill="none" stroke="midnightblue" d="M34.502,-140.821C44.6907,-127.496 60.2594,-109.98 78,-99.8592 115.163,-78.6579 163.984,-69.9398 197.254,-66.3566"/>
<polygon fill="midnightblue" stroke="midnightblue" points="31.4268,-139.097 28.3472,-149.234 37.0764,-143.23 31.4268,-139.097"/>
</g>
<!-- Node11 -->
<g id="node11" class="node"><title>Node11</title>
<g id="a_node11"><a xlink:href="reader_8c.html#a0d5a7fe7641edf38078ba5e99536772d" target="_top" xlink:title="get_tag">
<polygon fill="white" stroke="black" points="91.5,-130.359 91.5,-149.359 140.5,-149.359 140.5,-130.359 91.5,-130.359"/>
<text text-anchor="middle" x="116" y="-137.359" font-family="Helvetica,sans-Serif" font-size="10.00">get_tag</text>
</a>
</g>
</g>
<!-- Node1&#45;&gt;Node11 -->
<g id="edge16" class="edge"><title>Node1&#45;&gt;Node11</title>
<path fill="none" stroke="midnightblue" d="M51.8956,-152.752C64.6653,-150.143 79.3582,-147.141 91.3518,-144.691"/>
<polygon fill="midnightblue" stroke="midnightblue" points="50.8199,-149.399 41.7229,-154.83 52.2211,-156.257 50.8199,-149.399"/>
</g>
<!-- Node13 -->
<g id="node13" class="node"><title>Node13</title>
<g id="a_node13"><a xlink:href="reader_8c.html#aae3985d515e47c03afc20f92c0292531" target="_top" xlink:title="mark_symbol">
<polygon fill="white" stroke="black" points="78.5,-244.359 78.5,-263.359 153.5,-263.359 153.5,-244.359 78.5,-244.359"/>
<text text-anchor="middle" x="116" y="-251.359" font-family="Helvetica,sans-Serif" font-size="10.00">mark_symbol</text>
</a>
</g>
</g>
<!-- Node1&#45;&gt;Node13 -->
<g id="edge21" class="edge"><title>Node1&#45;&gt;Node13</title>
<path fill="none" stroke="midnightblue" d="M33.7514,-176.919C44.2067,-192.138 60.5139,-213.919 78,-229.859 83.8847,-235.224 91.0945,-240.191 97.5816,-244.197"/>
<polygon fill="midnightblue" stroke="midnightblue" points="36.5162,-174.758 28.0394,-168.402 30.7025,-178.657 36.5162,-174.758"/>
</g>
<!-- Node2&#45;&gt;Node3 -->
<g id="edge2" class="edge"><title>Node2&#45;&gt;Node3</title>
<path fill="none" stroke="midnightblue" d="M266.154,-315.542C271.551,-312.55 277.044,-309.263 282,-305.859 310.252,-286.457 339.778,-258.757 354.488,-244.364"/>
<polygon fill="midnightblue" stroke="midnightblue" points="264.458,-312.48 257.275,-320.268 267.747,-318.659 264.458,-312.48"/>
</g>
<!-- Node4 -->
<g id="node4" class="node"><title>Node4</title>
<g id="a_node4"><a xlink:href="reader_8c.html#a3351a985e2d992eea6ed332cc837ad5b" target="_top" xlink:title="reader">
<polygon fill="white" stroke="red" points="448,-158.359 448,-177.359 492,-177.359 492,-158.359 448,-158.359"/>
<text text-anchor="middle" x="470" y="-165.359" font-family="Helvetica,sans-Serif" font-size="10.00">reader</text>
</a>
</g>
</g>
<!-- Node3&#45;&gt;Node4 -->
<g id="edge3" class="edge"><title>Node3&#45;&gt;Node4</title>
<path fill="none" stroke="midnightblue" d="M389.272,-219.721C409.205,-206.755 437.302,-188.478 454.27,-177.441"/>
<polygon fill="midnightblue" stroke="midnightblue" points="387.232,-216.873 380.757,-225.26 391.048,-222.741 387.232,-216.873"/>
</g>
<!-- Node5&#45;&gt;Node3 -->
<g id="edge5" class="edge"><title>Node5&#45;&gt;Node3</title>
<path fill="none" stroke="midnightblue" d="M292.237,-224.123C303.388,-225.791 314.886,-227.511 325.322,-229.073"/>
<polygon fill="midnightblue" stroke="midnightblue" points="292.541,-220.63 282.133,-222.611 291.505,-227.553 292.541,-220.63"/>
</g>
<!-- Node6&#45;&gt;Node7 -->
<g id="edge7" class="edge"><title>Node6&#45;&gt;Node7</title>
<path fill="none" stroke="midnightblue" d="M158.707,-26.9955C192.498,-28.7841 241.049,-33.3359 282,-44.8592 305.713,-51.5319 331.182,-64.3125 347.334,-73.1995"/>
<polygon fill="midnightblue" stroke="midnightblue" points="158.436,-23.479 148.283,-26.5066 158.108,-30.4713 158.436,-23.479"/>
</g>
<!-- Node7&#45;&gt;Node4 -->
<g id="edge8" class="edge"><title>Node7&#45;&gt;Node4</title>
<path fill="none" stroke="midnightblue" d="M385.56,-99.0007C406.751,-116.489 439.864,-143.815 457.322,-158.222"/>
<polygon fill="midnightblue" stroke="midnightblue" points="387.756,-96.2753 377.815,-92.6098 383.301,-101.674 387.756,-96.2753"/>
</g>
<!-- Node8&#45;&gt;Node5 -->
<g id="edge10" class="edge"><title>Node8&#45;&gt;Node5</title>
<path fill="none" stroke="midnightblue" d="M156.376,-190.54C172.32,-195.674 190.421,-201.503 205.233,-206.273"/>
<polygon fill="midnightblue" stroke="midnightblue" points="157.368,-187.182 146.776,-187.448 155.222,-193.845 157.368,-187.182"/>
</g>
<!-- Node8&#45;&gt;Node7 -->
<g id="edge11" class="edge"><title>Node8&#45;&gt;Node7</title>
<path fill="none" stroke="midnightblue" d="M162.707,-180.093C197.021,-180.032 244.37,-176.165 282,-158.859 315.33,-143.531 344.141,-109.412 356.939,-92.6019"/>
<polygon fill="midnightblue" stroke="midnightblue" points="162.533,-176.591 152.501,-180 162.469,-183.591 162.533,-176.591"/>
</g>
<!-- Node9&#45;&gt;Node7 -->
<g id="edge13" class="edge"><title>Node9&#45;&gt;Node7</title>
<path fill="none" stroke="midnightblue" d="M287.458,-94.3103C297.579,-92.7963 308.16,-91.2132 318.115,-89.7239"/>
<polygon fill="midnightblue" stroke="midnightblue" points="286.905,-90.8541 277.533,-95.7953 287.941,-97.7771 286.905,-90.8541"/>
</g>
<!-- Node10&#45;&gt;Node7 -->
<g id="edge15" class="edge"><title>Node10&#45;&gt;Node7</title>
<path fill="none" stroke="midnightblue" d="M284.93,-71.0299C295.791,-72.6548 307.3,-74.3765 318.076,-75.9887"/>
<polygon fill="midnightblue" stroke="midnightblue" points="285.168,-67.5266 274.76,-69.5084 284.132,-74.4496 285.168,-67.5266"/>
</g>
<!-- Node11&#45;&gt;Node9 -->
<g id="edge19" class="edge"><title>Node11&#45;&gt;Node9</title>
<path fill="none" stroke="midnightblue" d="M150.272,-129.145C167.523,-123.589 188.424,-116.858 205.15,-111.472"/>
<polygon fill="midnightblue" stroke="midnightblue" points="149.041,-125.864 140.595,-132.261 151.187,-132.527 149.041,-125.864"/>
</g>
<!-- Node11&#45;&gt;Node10 -->
<g id="edge20" class="edge"><title>Node11&#45;&gt;Node10</title>
<path fill="none" stroke="midnightblue" d="M135.293,-123.355C149.497,-111.108 170.067,-94.5712 190,-82.8592 195.996,-79.3365 202.767,-76.1211 209.203,-73.3776"/>
<polygon fill="midnightblue" stroke="midnightblue" points="132.927,-120.775 127.719,-130.001 137.544,-126.036 132.927,-120.775"/>
</g>
<!-- Node12 -->
<g id="node12" class="node"><title>Node12</title>
<g id="a_node12"><a xlink:href="reader_8c.html#abb83807b1bba8d346650d3e4ae4e7425" target="_top" xlink:title="copy_action">
<polygon fill="white" stroke="black" points="201.5,-130.359 201.5,-149.359 270.5,-149.359 270.5,-130.359 201.5,-130.359"/>
<text text-anchor="middle" x="236" y="-137.359" font-family="Helvetica,sans-Serif" font-size="10.00">copy_action</text>
</a>
</g>
</g>
<!-- Node11&#45;&gt;Node12 -->
<g id="edge17" class="edge"><title>Node11&#45;&gt;Node12</title>
<path fill="none" stroke="midnightblue" d="M150.968,-139.859C166.729,-139.859 185.417,-139.859 201.162,-139.859"/>
<polygon fill="midnightblue" stroke="midnightblue" points="150.595,-136.359 140.595,-139.859 150.595,-143.359 150.595,-136.359"/>
</g>
<!-- Node12&#45;&gt;Node3 -->
<g id="edge18" class="edge"><title>Node12&#45;&gt;Node3</title>
<path fill="none" stroke="midnightblue" d="M258.37,-155.844C284.912,-175.699 329.348,-208.939 351.148,-225.245"/>
<polygon fill="midnightblue" stroke="midnightblue" points="260.217,-152.855 250.113,-149.668 256.024,-158.461 260.217,-152.855"/>
</g>
<!-- Node13&#45;&gt;Node3 -->
<g id="edge22" class="edge"><title>Node13&#45;&gt;Node3</title>
<path fill="none" stroke="midnightblue" d="M163.896,-250.252C210.718,-246.65 281.818,-241.181 325.458,-237.824"/>
<polygon fill="midnightblue" stroke="midnightblue" points="163.414,-246.779 153.712,-251.035 163.951,-253.758 163.414,-246.779"/>
</g>
</g>
</svg>
