<?xml version="1.0" encoding="UTF-8" standalone="no"?>
<!DOCTYPE svg PUBLIC "-//W3C//DTD SVG 1.1//EN"
 "http://www.w3.org/Graphics/SVG/1.1/DTD/svg11.dtd">
<!-- Generated by graphviz version 2.36.0 (20140111.2315)
 -->
<!-- Title: reader Pages: 1 -->
<svg width="462pt" height="560pt"
 viewBox="0.00 0.00 462.00 560.00" xmlns="http://www.w3.org/2000/svg" xmlns:xlink="http://www.w3.org/1999/xlink">
<g id="graph0" class="graph" transform="scale(1 1) rotate(0) translate(4 556)">
<title>reader</title>
<polygon fill="white" stroke="none" points="-4,4 -4,-556 458,-556 458,4 -4,4"/>
<!-- Node1 -->
<g id="node1" class="node"><title>Node1</title>
<polygon fill="#bfbfbf" stroke="black" points="0,-209.5 0,-228.5 44,-228.5 44,-209.5 0,-209.5"/>
<text text-anchor="middle" x="22" y="-216.5" font-family="Helvetica,sans-Serif" font-size="10.00">reader</text>
</g>
<!-- Node2 -->
<g id="node2" class="node"><title>Node2</title>
<g id="a_node2"><a xlink:href="reader_8c.html#a57996ead211e5a17b36a1b7da0313239" target="_top" xlink:title="check_symbols">
<polygon fill="white" stroke="black" points="91.5,-494.5 91.5,-513.5 176.5,-513.5 176.5,-494.5 91.5,-494.5"/>
<text text-anchor="middle" x="134" y="-501.5" font-family="Helvetica,sans-Serif" font-size="10.00">check_symbols</text>
</a>
</g>
</g>
<!-- Node1&#45;&gt;Node2 -->
<g id="edge1" class="edge"><title>Node1&#45;&gt;Node2</title>
<path fill="none" stroke="midnightblue" d="M23.9181,-228.909C27.2422,-261.265 40.6044,-366.101 80,-442 88.7989,-458.952 103.038,-475.251 114.542,-486.88"/>
<polygon fill="midnightblue" stroke="midnightblue" points="112.37,-489.651 121.969,-494.135 117.262,-484.644 112.37,-489.651"/>
</g>
<!-- Node5 -->
<g id="node5" class="node"><title>Node5</title>
<g id="a_node5"><a xlink:href="symtab_8c.html#aeeef4e0a9c6733adb569531e181de719" target="_top" xlink:title="create_symbol_table">
<polygon fill="white" stroke="black" points="80.5,-361.5 80.5,-380.5 187.5,-380.5 187.5,-361.5 80.5,-361.5"/>
<text text-anchor="middle" x="134" y="-368.5" font-family="Helvetica,sans-Serif" font-size="10.00">create_symbol_table</text>
</a>
</g>
</g>
<!-- Node1&#45;&gt;Node5 -->
<g id="edge4" class="edge"><title>Node1&#45;&gt;Node5</title>
<path fill="none" stroke="midnightblue" d="M26.0734,-228.77C33.0188,-249.7 51.5675,-299.666 80,-333 87.5168,-341.813 97.49,-349.65 106.756,-355.885"/>
<polygon fill="midnightblue" stroke="midnightblue" points="105.007,-358.921 115.32,-361.351 108.773,-353.021 105.007,-358.921"/>
</g>
<!-- Node10 -->
<g id="node10" class="node"><title>Node10</title>
<g id="a_node10"><a xlink:href="symtab_8c.html#a14c153a2da9dd2e76fe4344cd7ea8f39" target="_top" xlink:title="free_symbol_table">
<polygon fill="white" stroke="black" points="86,-190.5 86,-209.5 182,-209.5 182,-190.5 86,-190.5"/>
<text text-anchor="middle" x="134" y="-197.5" font-family="Helvetica,sans-Serif" font-size="10.00">free_symbol_table</text>
</a>
</g>
</g>
<!-- Node1&#45;&gt;Node10 -->
<g id="edge10" class="edge"><title>Node1&#45;&gt;Node10</title>
<path fill="none" stroke="midnightblue" d="M44.2091,-215.337C53.3836,-213.752 64.6061,-211.813 75.9452,-209.855"/>
<polygon fill="midnightblue" stroke="midnightblue" points="76.633,-213.288 85.8914,-208.137 75.4415,-206.39 76.633,-213.288"/>
</g>
<!-- Node11 -->
<g id="node11" class="node"><title>Node11</title>
<g id="a_node11"><a xlink:href="symtab_8c.html#aa478da0ed8af2de7934c4aa3dcf06771" target="_top" xlink:title="free_symbols">
<polygon fill="white" stroke="black" points="96.5,-152.5 96.5,-171.5 171.5,-171.5 171.5,-152.5 96.5,-152.5"/>
<text text-anchor="middle" x="134" y="-159.5" font-family="Helvetica,sans-Serif" font-size="10.00">free_symbols</text>
</a>
</g>
</g>
<!-- Node1&#45;&gt;Node11 -->
<g id="edge11" class="edge"><title>Node1&#45;&gt;Node11</title>
<path fill="none" stroke="midnightblue" d="M35.5825,-209.304C46.7839,-200.998 63.8507,-189.124 80,-181 84.089,-178.943 88.4556,-177.003 92.8612,-175.205"/>
<polygon fill="midnightblue" stroke="midnightblue" points="94.3978,-178.364 102.476,-171.509 91.8859,-171.83 94.3978,-178.364"/>
</g>
<!-- Node12 -->
<g id="node12" class="node"><title>Node12</title>
<g id="a_node12"><a xlink:href="reader_8c.html#ae565a221030d4176917fd2ac6ff858e0" target="_top" xlink:title="free_tags">
<polygon fill="white" stroke="black" points="105.5,-114.5 105.5,-133.5 162.5,-133.5 162.5,-114.5 105.5,-114.5"/>
<text text-anchor="middle" x="134" y="-121.5" font-family="Helvetica,sans-Serif" font-size="10.00">free_tags</text>
</a>
</g>
</g>
<!-- Node1&#45;&gt;Node12 -->
<g id="edge12" class="edge"><title>Node1&#45;&gt;Node12</title>
<path fill="none" stroke="midnightblue" d="M27.782,-209.404C36.2082,-193.425 55.1838,-161.314 80,-143 84.7866,-139.468 90.2927,-136.541 95.9057,-134.132"/>
<polygon fill="midnightblue" stroke="midnightblue" points="97.2371,-137.37 105.345,-130.55 94.7535,-130.825 97.2371,-137.37"/>
</g>
<!-- Node13 -->
<g id="node13" class="node"><title>Node13</title>
<g id="a_node13"><a xlink:href="group__memopt.html#gac095dad6352a9764b63b751824aa223d" target="_top" xlink:title="pack_grammar">
<polygon fill="white" stroke="black" points="93.5,-266.5 93.5,-285.5 174.5,-285.5 174.5,-266.5 93.5,-266.5"/>
<text text-anchor="middle" x="134" y="-273.5" font-family="Helvetica,sans-Serif" font-size="10.00">pack_grammar</text>
</a>
</g>
</g>
<!-- Node1&#45;&gt;Node13 -->
<g id="edge13" class="edge"><title>Node1&#45;&gt;Node13</title>
<path fill="none" stroke="midnightblue" d="M35.5825,-228.696C46.7839,-237.002 63.8507,-248.876 80,-257 84.089,-259.057 88.4556,-260.997 92.8612,-262.795"/>
<polygon fill="midnightblue" stroke="midnightblue" points="91.8859,-266.17 102.476,-266.491 94.3978,-259.636 91.8859,-266.17"/>
</g>
<!-- Node14 -->
<g id="node14" class="node"><title>Node14</title>
<g id="a_node14"><a xlink:href="group__memopt.html#ga9f8a3fd57d7687e5e2fe6b548fee5bc5" target="_top" xlink:title="pack_names">
<polygon fill="white" stroke="black" points="255,-456.5 255,-475.5 327,-475.5 327,-456.5 255,-456.5"/>
<text text-anchor="middle" x="291" y="-463.5" font-family="Helvetica,sans-Serif" font-size="10.00">pack_names</text>
</a>
</g>
</g>
<!-- Node1&#45;&gt;Node14 -->
<g id="edge15" class="edge"><title>Node1&#45;&gt;Node14</title>
<path fill="none" stroke="midnightblue" d="M23.4576,-228.548C25.3224,-256.973 34.6157,-342.041 80,-390 123.573,-436.045 197.15,-454.276 244.63,-461.438"/>
<polygon fill="midnightblue" stroke="midnightblue" points="244.249,-464.919 254.638,-462.843 245.222,-457.987 244.249,-464.919"/>
</g>
<!-- Node15 -->
<g id="node15" class="node"><title>Node15</title>
<g id="a_node15"><a xlink:href="group__memopt.html#gad4d46b52f342745925534555eb129ffb" target="_top" xlink:title="pack_symbols">
<polygon fill="white" stroke="black" points="94,-304.5 94,-323.5 174,-323.5 174,-304.5 94,-304.5"/>
<text text-anchor="middle" x="134" y="-311.5" font-family="Helvetica,sans-Serif" font-size="10.00">pack_symbols</text>
</a>
</g>
</g>
<!-- Node1&#45;&gt;Node15 -->
<g id="edge18" class="edge"><title>Node1&#45;&gt;Node15</title>
<path fill="none" stroke="midnightblue" d="M27.782,-228.596C36.2082,-244.575 55.1838,-276.686 80,-295 82.5143,-296.856 85.2272,-298.544 88.0498,-300.078"/>
<polygon fill="midnightblue" stroke="midnightblue" points="86.7937,-303.356 97.33,-304.468 89.787,-297.028 86.7937,-303.356"/>
</g>
<!-- Node16 -->
<g id="node16" class="node"><title>Node16</title>
<g id="a_node16"><a xlink:href="reader_8c.html#a037e2fd887e3a8ddac0b8527a017388e" target="_top" xlink:title="print_grammar">
<polygon fill="white" stroke="black" points="94.5,-76.5 94.5,-95.5 173.5,-95.5 173.5,-76.5 94.5,-76.5"/>
<text text-anchor="middle" x="134" y="-83.5" font-family="Helvetica,sans-Serif" font-size="10.00">print_grammar</text>
</a>
</g>
</g>
<!-- Node1&#45;&gt;Node16 -->
<g id="edge20" class="edge"><title>Node1&#45;&gt;Node16</title>
<path fill="none" stroke="midnightblue" d="M25.2369,-209.238C30.7265,-187.429 46.8948,-134.37 80,-105 81.9194,-103.297 84.0024,-101.744 86.1953,-100.327"/>
<polygon fill="midnightblue" stroke="midnightblue" points="87.9576,-103.353 95.0845,-95.5135 84.6244,-97.1976 87.9576,-103.353"/>
</g>
<!-- Node17 -->
<g id="node17" class="node"><title>Node17</title>
<g id="a_node17"><a xlink:href="reader_8c.html#a07addfee5457e48ddb310769dd0e39af" target="_top" xlink:title="read_declarations">
<polygon fill="white" stroke="red" points="87.5,-228.5 87.5,-247.5 180.5,-247.5 180.5,-228.5 87.5,-228.5"/>
<text text-anchor="middle" x="134" y="-235.5" font-family="Helvetica,sans-Serif" font-size="10.00">read_declarations</text>
</a>
</g>
</g>
<!-- Node1&#45;&gt;Node17 -->
<g id="edge21" class="edge"><title>Node1&#45;&gt;Node17</title>
<path fill="none" stroke="midnightblue" d="M44.2091,-222.663C53.7689,-224.315 65.5523,-226.35 77.3744,-228.392"/>
<polygon fill="midnightblue" stroke="midnightblue" points="76.8161,-231.847 87.266,-230.1 78.0076,-224.949 76.8161,-231.847"/>
</g>
<!-- Node24 -->
<g id="node24" class="node"><title>Node24</title>
<g id="a_node24"><a xlink:href="reader_8c.html#af6d4fba61bb761ca9fe92fef83e8ee94" target="_top" xlink:title="read_grammar">
<polygon fill="white" stroke="red" points="94.5,-38.5 94.5,-57.5 173.5,-57.5 173.5,-38.5 94.5,-38.5"/>
<text text-anchor="middle" x="134" y="-45.5" font-family="Helvetica,sans-Serif" font-size="10.00">read_grammar</text>
</a>
</g>
</g>
<!-- Node1&#45;&gt;Node24 -->
<g id="edge29" class="edge"><title>Node1&#45;&gt;Node24</title>
<path fill="none" stroke="midnightblue" d="M23.8567,-209.313C26.7141,-182.775 38.2479,-108.149 80,-67 81.6687,-65.3554 83.4895,-63.8522 85.4194,-62.4784"/>
<polygon fill="midnightblue" stroke="midnightblue" points="87.5492,-65.2894 94.445,-57.2458 84.0383,-59.2335 87.5492,-65.2894"/>
</g>
<!-- Node25 -->
<g id="node25" class="node"><title>Node25</title>
<g id="a_node25"><a xlink:href="skeleton_8c.html#abac8d941eb63d23dccd28ed36b2050ff" target="_top" xlink:title="write_section">
<polygon fill="white" stroke="black" points="97,-0.5 97,-19.5 171,-19.5 171,-0.5 97,-0.5"/>
<text text-anchor="middle" x="134" y="-7.5" font-family="Helvetica,sans-Serif" font-size="10.00">write_section</text>
</a>
</g>
</g>
<!-- Node1&#45;&gt;Node25 -->
<g id="edge30" class="edge"><title>Node1&#45;&gt;Node25</title>
<path fill="none" stroke="midnightblue" d="M23.0114,-209.224C23.5812,-178.411 29.5171,-82.2193 80,-29 82.3208,-26.5534 84.9787,-24.4211 87.8406,-22.5629"/>
<polygon fill="midnightblue" stroke="midnightblue" points="89.701,-25.5384 96.9055,-17.7702 86.4292,-19.3501 89.701,-25.5384"/>
</g>
<!-- Node3 -->
<g id="node3" class="node"><title>Node3</title>
<g id="a_node3"><a xlink:href="group__eh.html#ga4000cace0a889b23c1ec8411e02979a3" target="_top" xlink:title="undefined_goal">
<polygon fill="white" stroke="red" points="250,-494.5 250,-513.5 332,-513.5 332,-494.5 250,-494.5"/>
<text text-anchor="middle" x="291" y="-501.5" font-family="Helvetica,sans-Serif" font-size="10.00">undefined_goal</text>
</a>
</g>
</g>
<!-- Node2&#45;&gt;Node3 -->
<g id="edge2" class="edge"><title>Node2&#45;&gt;Node3</title>
<path fill="none" stroke="midnightblue" d="M176.537,-504C196.022,-504 219.404,-504 239.866,-504"/>
<polygon fill="midnightblue" stroke="midnightblue" points="239.955,-507.5 249.955,-504 239.955,-500.5 239.955,-507.5"/>
</g>
<!-- Node4 -->
<g id="node4" class="node"><title>Node4</title>
<g id="a_node4"><a xlink:href="group__eh.html#gae6a521b17a781796ffe5cbd6cefc0d09" target="_top" xlink:title="undefined_symbol_warning">
<polygon fill="white" stroke="black" points="224,-532.5 224,-551.5 358,-551.5 358,-532.5 224,-532.5"/>
<text text-anchor="middle" x="291" y="-539.5" font-family="Helvetica,sans-Serif" font-size="10.00">undefined_symbol_warning</text>
</a>
</g>
</g>
<!-- Node2&#45;&gt;Node4 -->
<g id="edge3" class="edge"><title>Node2&#45;&gt;Node4</title>
<path fill="none" stroke="midnightblue" d="M174.113,-513.589C194.475,-518.581 219.566,-524.732 241.189,-530.033"/>
<polygon fill="midnightblue" stroke="midnightblue" points="240.622,-533.498 251.168,-532.48 242.289,-526.699 240.622,-533.498"/>
</g>
<!-- Node6 -->
<g id="node6" class="node"><title>Node6</title>
<g id="a_node6"><a xlink:href="group__eh.html#ga03b3d711852aa32c4076f12ea7bb93a4" target="_top" xlink:title="no_space">
<polygon fill="white" stroke="red" points="394.5,-323.5 394.5,-342.5 453.5,-342.5 453.5,-323.5 394.5,-323.5"/>
<text text-anchor="middle" x="424" y="-330.5" font-family="Helvetica,sans-Serif" font-size="10.00">no_space</text>
</a>
</g>
</g>
<!-- Node5&#45;&gt;Node6 -->
<g id="edge5" class="edge"><title>Node5&#45;&gt;Node6</title>
<path fill="none" stroke="midnightblue" d="M187.824,-364.03C244.524,-356.549 333.263,-344.84 383.973,-338.149"/>
<polygon fill="midnightblue" stroke="midnightblue" points="384.735,-341.579 394.192,-336.801 383.82,-334.639 384.735,-341.579"/>
</g>
<!-- Node7 -->
<g id="node7" class="node"><title>Node7</title>
<g id="a_node7"><a xlink:href="symtab_8c.html#aa9c886d3ff3a8214ae40b7bf98ad7dd4" target="_top" xlink:title="make_bucket">
<polygon fill="white" stroke="black" points="253.5,-418.5 253.5,-437.5 328.5,-437.5 328.5,-418.5 253.5,-418.5"/>
<text text-anchor="middle" x="291" y="-425.5" font-family="Helvetica,sans-Serif" font-size="10.00">make_bucket</text>
</a>
</g>
</g>
<!-- Node5&#45;&gt;Node7 -->
<g id="edge6" class="edge"><title>Node5&#45;&gt;Node7</title>
<path fill="none" stroke="midnightblue" d="M155.573,-380.641C173.429,-388.801 200.099,-400.494 224,-409 230.415,-411.283 237.253,-413.493 244.005,-415.549"/>
<polygon fill="midnightblue" stroke="midnightblue" points="243.196,-418.96 253.778,-418.442 245.182,-412.247 243.196,-418.96"/>
</g>
<!-- Node9 -->
<g id="node9" class="node"><title>Node9</title>
<g id="a_node9"><a xlink:href="symtab_8c.html#a9560ff0249886c6495396bd0d25a7320" target="_top" xlink:title="hash">
<polygon fill="white" stroke="black" points="272,-380.5 272,-399.5 310,-399.5 310,-380.5 272,-380.5"/>
<text text-anchor="middle" x="291" y="-387.5" font-family="Helvetica,sans-Serif" font-size="10.00">hash</text>
</a>
</g>
</g>
<!-- Node5&#45;&gt;Node9 -->
<g id="edge9" class="edge"><title>Node5&#45;&gt;Node9</title>
<path fill="none" stroke="midnightblue" d="M187.909,-377.486C212.703,-380.525 241.244,-384.023 261.833,-386.547"/>
<polygon fill="midnightblue" stroke="midnightblue" points="261.462,-390.028 271.814,-387.771 262.314,-383.08 261.462,-390.028"/>
</g>
<!-- Node7&#45;&gt;Node6 -->
<g id="edge7" class="edge"><title>Node7&#45;&gt;Node6</title>
<path fill="none" stroke="midnightblue" d="M328.565,-421.528C338.62,-418.697 349.176,-414.678 358,-409 381.037,-394.176 400.368,-368.755 411.811,-351.431"/>
<polygon fill="midnightblue" stroke="midnightblue" points="414.914,-353.074 417.33,-342.758 409.008,-349.316 414.914,-353.074"/>
</g>
<!-- Node8 -->
<g id="node8" class="node"><title>Node8</title>
<g id="a_node8"><a xlink:href="defs_8h.html#add539a5755e4c4070b0c8ca97477fe47" target="_top" xlink:title="strcpy">
<polygon fill="white" stroke="black" points="402,-437.5 402,-456.5 446,-456.5 446,-437.5 402,-437.5"/>
<text text-anchor="middle" x="424" y="-444.5" font-family="Helvetica,sans-Serif" font-size="10.00">strcpy</text>
</a>
</g>
</g>
<!-- Node7&#45;&gt;Node8 -->
<g id="edge8" class="edge"><title>Node7&#45;&gt;Node8</title>
<path fill="none" stroke="midnightblue" d="M328.839,-433.343C348.761,-436.233 373.09,-439.761 392.026,-442.508"/>
<polygon fill="midnightblue" stroke="midnightblue" points="391.531,-445.972 401.93,-443.944 392.536,-439.045 391.531,-445.972"/>
</g>
<!-- Node13&#45;&gt;Node6 -->
<g id="edge14" class="edge"><title>Node13&#45;&gt;Node6</title>
<path fill="none" stroke="midnightblue" d="M174.662,-282.151C219.399,-289.313 294.233,-301.965 358,-316 366.597,-317.892 375.774,-320.146 384.442,-322.384"/>
<polygon fill="midnightblue" stroke="midnightblue" points="383.758,-325.823 394.319,-324.981 385.538,-319.053 383.758,-325.823"/>
</g>
<!-- Node14&#45;&gt;Node6 -->
<g id="edge16" class="edge"><title>Node14&#45;&gt;Node6</title>
<path fill="none" stroke="midnightblue" d="M327.255,-461.128C337.951,-458.331 349.19,-453.929 358,-447 389.495,-422.229 408.394,-377.688 417.139,-352.232"/>
<polygon fill="midnightblue" stroke="midnightblue" points="420.506,-353.197 420.273,-342.605 413.85,-351.031 420.506,-353.197"/>
</g>
<!-- Node14&#45;&gt;Node8 -->
<g id="edge17" class="edge"><title>Node14&#45;&gt;Node8</title>
<path fill="none" stroke="midnightblue" d="M327.106,-460.908C347.185,-457.996 372.161,-454.374 391.589,-451.556"/>
<polygon fill="midnightblue" stroke="midnightblue" points="392.351,-454.982 401.745,-450.083 391.347,-448.054 392.351,-454.982"/>
</g>
<!-- Node15&#45;&gt;Node6 -->
<g id="edge19" class="edge"><title>Node15&#45;&gt;Node6</title>
<path fill="none" stroke="midnightblue" d="M174.141,-316.582C229.334,-320.223 329.417,-326.826 384.346,-330.45"/>
<polygon fill="midnightblue" stroke="midnightblue" points="384.17,-333.946 394.379,-331.112 384.631,-326.961 384.17,-333.946"/>
</g>
<!-- Node17&#45;&gt;Node6 -->
<g id="edge28" class="edge"><title>Node17&#45;&gt;Node6</title>
<path fill="none" stroke="midnightblue" d="M180.706,-242.259C227.026,-247.838 299.938,-260.139 358,-286 375.157,-293.642 392.278,-306.278 404.639,-316.524"/>
<polygon fill="midnightblue" stroke="midnightblue" points="402.503,-319.303 412.377,-323.145 407.054,-313.984 402.503,-319.303"/>
</g>
<!-- Node18 -->
<g id="node18" class="node"><title>Node18</title>
<g id="a_node18"><a xlink:href="reader_8c.html#a475e9b3fc05ea753aeeb760cea34a511" target="_top" xlink:title="copy_ident">
<polygon fill="white" stroke="red" points="259,-76.5 259,-95.5 323,-95.5 323,-76.5 259,-76.5"/>
<text text-anchor="middle" x="291" y="-83.5" font-family="Helvetica,sans-Serif" font-size="10.00">copy_ident</text>
</a>
</g>
</g>
<!-- Node17&#45;&gt;Node18 -->
<g id="edge22" class="edge"><title>Node17&#45;&gt;Node18</title>
<path fill="none" stroke="midnightblue" d="M174.818,-228.418C179.7,-225.96 184.272,-222.874 188,-219 224.844,-180.716 185.952,-142.087 224,-105 230.835,-98.3379 239.848,-93.9844 249.01,-91.1471"/>
<polygon fill="midnightblue" stroke="midnightblue" points="250.085,-94.485 258.913,-88.626 248.358,-87.7014 250.085,-94.485"/>
</g>
<!-- Node19 -->
<g id="node19" class="node"><title>Node19</title>
<g id="a_node19"><a xlink:href="reader_8c.html#a5719a5118a10bc1e96786f599eeb516f" target="_top" xlink:title="copy_text">
<polygon fill="white" stroke="red" points="261.5,-38.5 261.5,-57.5 320.5,-57.5 320.5,-38.5 261.5,-38.5"/>
<text text-anchor="middle" x="291" y="-45.5" font-family="Helvetica,sans-Serif" font-size="10.00">copy_text</text>
</a>
</g>
</g>
<!-- Node17&#45;&gt;Node19 -->
<g id="edge23" class="edge"><title>Node17&#45;&gt;Node19</title>
<path fill="none" stroke="midnightblue" d="M175.612,-228.391C180.252,-225.939 184.547,-222.862 188,-219 234.275,-167.247 176.095,-117.248 224,-67 231.22,-59.427 241.245,-54.8133 251.303,-52.0199"/>
<polygon fill="midnightblue" stroke="midnightblue" points="252.275,-55.3891 261.271,-49.7911 250.748,-48.5578 252.275,-55.3891"/>
</g>
<!-- Node20 -->
<g id="node20" class="node"><title>Node20</title>
<g id="a_node20"><a xlink:href="reader_8c.html#a7ee403ea2ff911fb368d38ab6ef937c3" target="_top" xlink:title="copy_union">
<polygon fill="white" stroke="red" points="258,-0.5 258,-19.5 324,-19.5 324,-0.5 258,-0.5"/>
<text text-anchor="middle" x="291" y="-7.5" font-family="Helvetica,sans-Serif" font-size="10.00">copy_union</text>
</a>
</g>
</g>
<!-- Node17&#45;&gt;Node20 -->
<g id="edge24" class="edge"><title>Node17&#45;&gt;Node20</title>
<path fill="none" stroke="midnightblue" d="M176.039,-228.396C180.552,-225.944 184.699,-222.865 188,-219 243.822,-153.649 166.118,-92.5342 224,-29 230.31,-22.0739 238.964,-17.6096 247.93,-14.7483"/>
<polygon fill="midnightblue" stroke="midnightblue" points="248.875,-18.1191 257.684,-12.2321 247.127,-11.341 248.875,-18.1191"/>
</g>
<!-- Node21 -->
<g id="node21" class="node"><title>Node21</title>
<g id="a_node21"><a xlink:href="reader_8c.html#a279a8d9eb5a5ad8dce6c95b2647b9c98" target="_top" xlink:title="declare_start">
<polygon fill="white" stroke="red" points="254.5,-190.5 254.5,-209.5 327.5,-209.5 327.5,-190.5 254.5,-190.5"/>
<text text-anchor="middle" x="291" y="-197.5" font-family="Helvetica,sans-Serif" font-size="10.00">declare_start</text>
</a>
</g>
</g>
<!-- Node17&#45;&gt;Node21 -->
<g id="edge25" class="edge"><title>Node17&#45;&gt;Node21</title>
<path fill="none" stroke="midnightblue" d="M174.113,-228.411C195.5,-223.168 222.105,-216.645 244.428,-211.173"/>
<polygon fill="midnightblue" stroke="midnightblue" points="245.47,-214.521 254.349,-208.74 243.803,-207.722 245.47,-214.521"/>
</g>
<!-- Node22 -->
<g id="node22" class="node"><title>Node22</title>
<g id="a_node22"><a xlink:href="reader_8c.html#a0b749a023a959fabb8ed2778b46ec217" target="_top" xlink:title="declare_tokens">
<polygon fill="white" stroke="red" points="249.5,-152.5 249.5,-171.5 332.5,-171.5 332.5,-152.5 249.5,-152.5"/>
<text text-anchor="middle" x="291" y="-159.5" font-family="Helvetica,sans-Serif" font-size="10.00">declare_tokens</text>
</a>
</g>
</g>
<!-- Node17&#45;&gt;Node22 -->
<g id="edge26" class="edge"><title>Node17&#45;&gt;Node22</title>
<path fill="none" stroke="midnightblue" d="M169.205,-228.408C175.711,-225.855 182.27,-222.74 188,-219 207.481,-206.283 204.122,-193.088 224,-181 228.96,-177.984 234.421,-175.427 240.012,-173.265"/>
<polygon fill="midnightblue" stroke="midnightblue" points="241.176,-176.566 249.481,-169.987 238.886,-169.952 241.176,-176.566"/>
</g>
<!-- Node23 -->
<g id="node23" class="node"><title>Node23</title>
<g id="a_node23"><a xlink:href="reader_8c.html#a860dbc8da656fd831b19668da20207c7" target="_top" xlink:title="declare_types">
<polygon fill="white" stroke="red" points="252.5,-114.5 252.5,-133.5 329.5,-133.5 329.5,-114.5 252.5,-114.5"/>
<text text-anchor="middle" x="291" y="-121.5" font-family="Helvetica,sans-Serif" font-size="10.00">declare_types</text>
</a>
</g>
</g>
<!-- Node17&#45;&gt;Node23 -->
<g id="edge27" class="edge"><title>Node17&#45;&gt;Node23</title>
<path fill="none" stroke="midnightblue" d="M173.261,-228.443C178.608,-225.97 183.727,-222.873 188,-219 215.693,-193.9 195.519,-167.202 224,-143 229.372,-138.435 235.783,-134.965 242.467,-132.328"/>
<polygon fill="midnightblue" stroke="midnightblue" points="243.985,-135.511 252.365,-129.03 241.772,-128.87 243.985,-135.511"/>
</g>
</g>
</svg>
