<?xml version="1.0" encoding="UTF-8" standalone="no"?>
<!DOCTYPE svg PUBLIC "-//W3C//DTD SVG 1.1//EN"
 "http://www.w3.org/Graphics/SVG/1.1/DTD/svg11.dtd">
<!-- Generated by graphviz version 2.36.0 (20140111.2315)
 -->
<!-- Title: expand_rules Pages: 1 -->
<svg width="456pt" height="142pt"
 viewBox="0.00 0.00 456.00 142.00" xmlns="http://www.w3.org/2000/svg" xmlns:xlink="http://www.w3.org/1999/xlink">
<g id="graph0" class="graph" transform="scale(1 1) rotate(0) translate(4 138)">
<title>expand_rules</title>
<polygon fill="white" stroke="none" points="-4,4 -4,-138 452,-138 452,4 -4,4"/>
<!-- Node1 -->
<g id="node1" class="node"><title>Node1</title>
<polygon fill="#bfbfbf" stroke="black" points="0,-57.5 0,-76.5 74,-76.5 74,-57.5 0,-57.5"/>
<text text-anchor="middle" x="37" y="-64.5" font-family="Helvetica,sans-Serif" font-size="10.00">expand_rules</text>
</g>
<!-- Node2 -->
<g id="node2" class="node"><title>Node2</title>
<g id="a_node2"><a xlink:href="reader_8c.html#ac59b5c8d9dca9fc4b2614fd186ec6c55" target="_top" xlink:title="insert_empty_rule">
<polygon fill="white" stroke="black" points="110,-76.5 110,-95.5 204,-95.5 204,-76.5 110,-76.5"/>
<text text-anchor="middle" x="157" y="-83.5" font-family="Helvetica,sans-Serif" font-size="10.00">insert_empty_rule</text>
</a>
</g>
</g>
<!-- Node1&#45;&gt;Node2 -->
<g id="edge1" class="edge"><title>Node1&#45;&gt;Node2</title>
<path fill="none" stroke="midnightblue" d="M84.0832,-74.4202C92.5031,-75.7759 101.292,-77.1911 109.718,-78.5478"/>
<polygon fill="midnightblue" stroke="midnightblue" points="84.4743,-70.9382 74.0451,-72.8039 83.3615,-77.8491 84.4743,-70.9382"/>
</g>
<!-- Node6 -->
<g id="node6" class="node"><title>Node6</title>
<g id="a_node6"><a xlink:href="reader_8c.html#a7691871ff8cdc7f1f7bdaf2443070ff1" target="_top" xlink:title="start_rule">
<polygon fill="white" stroke="black" points="128.5,-38.5 128.5,-57.5 185.5,-57.5 185.5,-38.5 128.5,-38.5"/>
<text text-anchor="middle" x="157" y="-45.5" font-family="Helvetica,sans-Serif" font-size="10.00">start_rule</text>
</a>
</g>
</g>
<!-- Node1&#45;&gt;Node6 -->
<g id="edge6" class="edge"><title>Node1&#45;&gt;Node6</title>
<path fill="none" stroke="midnightblue" d="M84.1669,-59.5664C99.127,-57.1575 115.244,-54.5624 128.413,-52.4419"/>
<polygon fill="midnightblue" stroke="midnightblue" points="83.3615,-56.1509 74.0451,-61.1961 84.4743,-63.0619 83.3615,-56.1509"/>
</g>
<!-- Node3 -->
<g id="node3" class="node"><title>Node3</title>
<g id="a_node3"><a xlink:href="reader_8c.html#a34bf32e056d8bc6f1fb490f4efc7ce90" target="_top" xlink:title="add_symbol">
<polygon fill="white" stroke="black" points="251.5,-76.5 251.5,-95.5 320.5,-95.5 320.5,-76.5 251.5,-76.5"/>
<text text-anchor="middle" x="286" y="-83.5" font-family="Helvetica,sans-Serif" font-size="10.00">add_symbol</text>
</a>
</g>
</g>
<!-- Node2&#45;&gt;Node3 -->
<g id="edge2" class="edge"><title>Node2&#45;&gt;Node3</title>
<path fill="none" stroke="midnightblue" d="M214.245,-86C226.912,-86 239.969,-86 251.365,-86"/>
<polygon fill="midnightblue" stroke="midnightblue" points="214.209,-82.5001 204.209,-86 214.209,-89.5001 214.209,-82.5001"/>
</g>
<!-- Node5 -->
<g id="node5" class="node"><title>Node5</title>
<g id="a_node5"><a xlink:href="reader_8c.html#abb83807b1bba8d346650d3e4ae4e7425" target="_top" xlink:title="copy_action">
<polygon fill="white" stroke="black" points="251.5,-114.5 251.5,-133.5 320.5,-133.5 320.5,-114.5 251.5,-114.5"/>
<text text-anchor="middle" x="286" y="-121.5" font-family="Helvetica,sans-Serif" font-size="10.00">copy_action</text>
</a>
</g>
</g>
<!-- Node2&#45;&gt;Node5 -->
<g id="edge4" class="edge"><title>Node2&#45;&gt;Node5</title>
<path fill="none" stroke="midnightblue" d="M199.894,-98.5353C217.171,-103.705 236.871,-109.599 252.963,-114.414"/>
<polygon fill="midnightblue" stroke="midnightblue" points="200.631,-95.1025 190.047,-95.589 198.624,-101.809 200.631,-95.1025"/>
</g>
<!-- Node4 -->
<g id="node4" class="node"><title>Node4</title>
<g id="a_node4"><a xlink:href="reader_8c.html#af6d4fba61bb761ca9fe92fef83e8ee94" target="_top" xlink:title="read_grammar">
<polygon fill="white" stroke="red" points="368.5,-57.5 368.5,-76.5 447.5,-76.5 447.5,-57.5 368.5,-57.5"/>
<text text-anchor="middle" x="408" y="-64.5" font-family="Helvetica,sans-Serif" font-size="10.00">read_grammar</text>
</a>
</g>
</g>
<!-- Node3&#45;&gt;Node4 -->
<g id="edge3" class="edge"><title>Node3&#45;&gt;Node4</title>
<path fill="none" stroke="midnightblue" d="M330.814,-79.0628C343.135,-77.1119 356.441,-75.0052 368.431,-73.1067"/>
<polygon fill="midnightblue" stroke="midnightblue" points="330.076,-75.636 320.746,-80.6569 331.17,-82.5499 330.076,-75.636"/>
</g>
<!-- Node5&#45;&gt;Node4 -->
<g id="edge5" class="edge"><title>Node5&#45;&gt;Node4</title>
<path fill="none" stroke="midnightblue" d="M319.897,-110.423C323.991,-108.641 328.105,-106.806 332,-105 351.731,-95.8496 373.901,-84.478 388.986,-76.5705"/>
<polygon fill="midnightblue" stroke="midnightblue" points="318.31,-107.295 310.491,-114.444 321.062,-113.731 318.31,-107.295"/>
</g>
<!-- Node6&#45;&gt;Node3 -->
<g id="edge9" class="edge"><title>Node6&#45;&gt;Node3</title>
<path fill="none" stroke="midnightblue" d="M195.32,-59.1667C213.636,-64.6469 235.474,-71.1811 253.014,-76.4294"/>
<polygon fill="midnightblue" stroke="midnightblue" points="196.141,-55.7589 185.557,-56.2454 194.134,-62.4652 196.141,-55.7589"/>
</g>
<!-- Node6&#45;&gt;Node4 -->
<g id="edge10" class="edge"><title>Node6&#45;&gt;Node4</title>
<path fill="none" stroke="midnightblue" d="M195.585,-50.868C242.174,-54.4229 321.166,-60.4504 368.275,-64.0451"/>
<polygon fill="midnightblue" stroke="midnightblue" points="195.836,-47.377 185.599,-50.1059 195.303,-54.3567 195.836,-47.377"/>
</g>
<!-- Node7 -->
<g id="node7" class="node"><title>Node7</title>
<g id="a_node7"><a xlink:href="reader_8c.html#ac910677446efcb4dbebc9a6d3d90a9ff" target="_top" xlink:title="advance_to_start">
<polygon fill="white" stroke="black" points="240,-0.5 240,-19.5 332,-19.5 332,-0.5 240,-0.5"/>
<text text-anchor="middle" x="286" y="-7.5" font-family="Helvetica,sans-Serif" font-size="10.00">advance_to_start</text>
</a>
</g>
</g>
<!-- Node6&#45;&gt;Node7 -->
<g id="edge7" class="edge"><title>Node6&#45;&gt;Node7</title>
<path fill="none" stroke="midnightblue" d="M195.32,-36.8333C213.636,-31.3531 235.474,-24.8189 253.014,-19.5706"/>
<polygon fill="midnightblue" stroke="midnightblue" points="194.134,-33.5348 185.557,-39.7546 196.141,-40.2411 194.134,-33.5348"/>
</g>
<!-- Node7&#45;&gt;Node4 -->
<g id="edge8" class="edge"><title>Node7&#45;&gt;Node4</title>
<path fill="none" stroke="midnightblue" d="M316.257,-23.8971C338.152,-34.2972 367.531,-48.252 386.849,-57.4284"/>
<polygon fill="midnightblue" stroke="midnightblue" points="317.62,-20.6697 307.085,-19.5405 314.616,-26.9926 317.62,-20.6697"/>
</g>
</g>
</svg>
