<?xml version="1.0" encoding="UTF-8" standalone="no"?>
<!DOCTYPE svg PUBLIC "-//W3C//DTD SVG 1.1//EN"
 "http://www.w3.org/Graphics/SVG/1.1/DTD/svg11.dtd">
<!-- Generated by graphviz version 2.36.0 (20140111.2315)
 -->
<!-- Title: declare_start Pages: 1 -->
<svg width="420pt" height="66pt"
 viewBox="0.00 0.00 420.00 66.00" xmlns="http://www.w3.org/2000/svg" xmlns:xlink="http://www.w3.org/1999/xlink">
<g id="graph0" class="graph" transform="scale(1 1) rotate(0) translate(4 62)">
<title>declare_start</title>
<polygon fill="white" stroke="none" points="-4,4 -4,-62 416,-62 416,4 -4,4"/>
<!-- Node1 -->
<g id="node1" class="node"><title>Node1</title>
<polygon fill="#bfbfbf" stroke="black" points="0.5,-19.5 0.5,-38.5 73.5,-38.5 73.5,-19.5 0.5,-19.5"/>
<text text-anchor="middle" x="37" y="-26.5" font-family="Helvetica,sans-Serif" font-size="10.00">declare_start</text>
</g>
<!-- Node2 -->
<g id="node2" class="node"><title>Node2</title>
<g id="a_node2"><a xlink:href="reader_8c.html#ac910677446efcb4dbebc9a6d3d90a9ff" target="_top" xlink:title="advance_to_start">
<polygon fill="white" stroke="black" points="110,-38.5 110,-57.5 202,-57.5 202,-38.5 110,-38.5"/>
<text text-anchor="middle" x="156" y="-45.5" font-family="Helvetica,sans-Serif" font-size="10.00">advance_to_start</text>
</a>
</g>
</g>
<!-- Node1&#45;&gt;Node2 -->
<g id="edge1" class="edge"><title>Node1&#45;&gt;Node2</title>
<path fill="none" stroke="midnightblue" d="M83.6562,-36.4143C92.2988,-37.8178 101.335,-39.2851 109.958,-40.6855"/>
<polygon fill="midnightblue" stroke="midnightblue" points="84.1713,-32.9521 73.7396,-34.8039 83.0492,-39.8616 84.1713,-32.9521"/>
</g>
<!-- Node5 -->
<g id="node5" class="node"><title>Node5</title>
<g id="a_node5"><a xlink:href="reader_8c.html#a07addfee5457e48ddb310769dd0e39af" target="_top" xlink:title="read_declarations">
<polygon fill="white" stroke="black" points="238.5,-0.5 238.5,-19.5 331.5,-19.5 331.5,-0.5 238.5,-0.5"/>
<text text-anchor="middle" x="285" y="-7.5" font-family="Helvetica,sans-Serif" font-size="10.00">read_declarations</text>
</a>
</g>
</g>
<!-- Node1&#45;&gt;Node5 -->
<g id="edge4" class="edge"><title>Node1&#45;&gt;Node5</title>
<path fill="none" stroke="midnightblue" d="M83.6728,-25.4724C127.827,-22.0621 194.347,-16.9244 238.457,-13.5176"/>
<polygon fill="midnightblue" stroke="midnightblue" points="83.2085,-21.9978 73.5078,-26.2575 83.7477,-28.977 83.2085,-21.9978"/>
</g>
<!-- Node3 -->
<g id="node3" class="node"><title>Node3</title>
<g id="a_node3"><a xlink:href="reader_8c.html#af6d4fba61bb761ca9fe92fef83e8ee94" target="_top" xlink:title="read_grammar">
<polygon fill="white" stroke="black" points="245.5,-38.5 245.5,-57.5 324.5,-57.5 324.5,-38.5 245.5,-38.5"/>
<text text-anchor="middle" x="285" y="-45.5" font-family="Helvetica,sans-Serif" font-size="10.00">read_grammar</text>
</a>
</g>
</g>
<!-- Node2&#45;&gt;Node3 -->
<g id="edge2" class="edge"><title>Node2&#45;&gt;Node3</title>
<path fill="none" stroke="midnightblue" d="M212.237,-48C223.388,-48 234.886,-48 245.322,-48"/>
<polygon fill="midnightblue" stroke="midnightblue" points="212.133,-44.5001 202.133,-48 212.133,-51.5001 212.133,-44.5001"/>
</g>
<!-- Node4 -->
<g id="node4" class="node"><title>Node4</title>
<g id="a_node4"><a xlink:href="reader_8c.html#a3351a985e2d992eea6ed332cc837ad5b" target="_top" xlink:title="reader">
<polygon fill="white" stroke="red" points="368,-19.5 368,-38.5 412,-38.5 412,-19.5 368,-19.5"/>
<text text-anchor="middle" x="390" y="-26.5" font-family="Helvetica,sans-Serif" font-size="10.00">reader</text>
</a>
</g>
</g>
<!-- Node3&#45;&gt;Node4 -->
<g id="edge3" class="edge"><title>Node3&#45;&gt;Node4</title>
<path fill="none" stroke="midnightblue" d="M334.746,-39.0079C346.362,-36.8652 358.165,-34.6879 367.783,-32.9138"/>
<polygon fill="midnightblue" stroke="midnightblue" points="333.846,-35.615 324.646,-40.871 335.115,-42.4988 333.846,-35.615"/>
</g>
<!-- Node5&#45;&gt;Node4 -->
<g id="edge5" class="edge"><title>Node5&#45;&gt;Node4</title>
<path fill="none" stroke="midnightblue" d="M341.836,-20.2999C351.091,-22.007 360.157,-23.6795 367.829,-25.0947"/>
<polygon fill="midnightblue" stroke="midnightblue" points="342.246,-16.8165 331.777,-18.4443 340.976,-23.7004 342.246,-16.8165"/>
</g>
</g>
</svg>
