<?xml version="1.0" encoding="UTF-8" standalone="no"?>
<!DOCTYPE svg PUBLIC "-//W3C//DTD SVG 1.1//EN"
 "http://www.w3.org/Graphics/SVG/1.1/DTD/svg11.dtd">
<!-- Generated by graphviz version 2.36.0 (20140111.2315)
 -->
<!-- Title: mark_symbol Pages: 1 -->
<!--zoomable 431 -->
<svg id="main" version="1.1" xmlns="http://www.w3.org/2000/svg" xmlns:xlink="http://www.w3.org/1999/xlink" xml:space="preserve" onload="init(evt)">
<style type="text/css"><![CDATA[
.edge:hover path { stroke: red; }
.edge:hover polygon { stroke: red; fill: red; }
]]></style>
<script type="text/javascript"><![CDATA[
var edges = document.getElementsByTagName('g');
if (edges && edges.length) {
  for (var i=0;i<edges.length;i++) {
    if (edges[i].id.substr(0,4)=='edge') {
      edges[i].setAttribute('class','edge');
    }
  }
}
]]></script>
        <defs>
                <circle id="rim" cx="0" cy="0" r="7"/>
                <circle id="rim2" cx="0" cy="0" r="3.5"/>
                <g id="zoomPlus">
                        <use xlink:href="#rim" fill="#404040">
                                <set attributeName="fill" to="#808080" begin="zoomplus.mouseover" end="zoomplus.mouseout"/>
                        </use>
                        <path d="M-4,0h8M0,-4v8" fill="none" stroke="white" stroke-width="1.5" pointer-events="none"/>
                </g>
                <g id="zoomMin">
                        <use xlink:href="#rim" fill="#404040">
                                <set attributeName="fill" to="#808080" begin="zoomminus.mouseover" end="zoomminus.mouseout"/>
                        </use>
                        <path d="M-4,0h8" fill="none" stroke="white" stroke-width="1.5" pointer-events="none"/>
                </g>
                <g id="dirArrow">
                        <path fill="none" stroke="white" stroke-width="1.5" d="M0,-3.0v7 M-2.5,-0.5L0,-3.0L2.5,-0.5"/>
                </g>
               <g id="resetDef">
                       <use xlink:href="#rim2" fill="#404040">
                               <set attributeName="fill" to="#808080" begin="reset.mouseover" end="reset.mouseout"/>
                       </use>
               </g>
        </defs>

<script type="text/javascript">
var viewWidth = 668;
var viewHeight = 431;
var sectionId = 'dynsection-49';
</script>
<script xlink:href="svgpan.js"/>
<svg id="graph" class="graph">
<g id="viewport">
<title>mark_symbol</title>
<polygon fill="white" stroke="none" points="-4,4 -4,-427.321 664,-427.321 664,4 -4,4"/>
<!-- Node1 -->
<g id="node1" class="node"><title>Node1</title>
<polygon fill="#bfbfbf" stroke="black" points="0.5,-232.821 0.5,-251.821 75.5,-251.821 75.5,-232.821 0.5,-232.821"/>
<text text-anchor="middle" x="38" y="-239.821" font-family="Helvetica,sans-Serif" font-size="10.00">mark_symbol</text>
</g>
<!-- Node2 -->
<g id="node2" class="node"><title>Node2</title>
<g id="a_node2"><a xlink:href="reader_8c.html#acfb64f081b0d9c4536e90c5352ce9c2c" target="_top" xlink:title="get_literal">
<polygon fill="white" stroke="black" points="244.5,-213.821 244.5,-232.821 303.5,-232.821 303.5,-213.821 244.5,-213.821"/>
<text text-anchor="middle" x="274" y="-220.821" font-family="Helvetica,sans-Serif" font-size="10.00">get_literal</text>
</a>
</g>
</g>
<!-- Node1&#45;&gt;Node2 -->
<g id="edge1" class="edge"><title>Node1&#45;&gt;Node2</title>
<path fill="none" stroke="midnightblue" d="M75.5625,-239.353C118.759,-235.845 190.309,-230.036 234.383,-226.457"/>
<polygon fill="midnightblue" stroke="midnightblue" points="234.74,-229.94 244.424,-225.642 234.174,-222.963 234.74,-229.94"/>
</g>
<!-- Node13 -->
<g id="node13" class="node"><title>Node13</title>
<g id="a_node13"><a xlink:href="reader_8c.html#a47f6ab5db224a190b33568ed55a03eaf" target="_top" xlink:title="get_name">
<polygon fill="white" stroke="black" points="244.5,-61.8214 244.5,-80.8214 303.5,-80.8214 303.5,-61.8214 244.5,-61.8214"/>
<text text-anchor="middle" x="274" y="-68.8214" font-family="Helvetica,sans-Serif" font-size="10.00">get_name</text>
</a>
</g>
</g>
<!-- Node1&#45;&gt;Node13 -->
<g id="edge18" class="edge"><title>Node1&#45;&gt;Node13</title>
<path fill="none" stroke="midnightblue" d="M73.4291,-232.769C113.971,-221.048 178.294,-200.823 198,-185.321 230.73,-159.574 253.874,-115.436 265.164,-90.3029"/>
<polygon fill="midnightblue" stroke="midnightblue" points="268.389,-91.6621 269.149,-81.0946 261.965,-88.8815 268.389,-91.6621"/>
</g>
<!-- Node16 -->
<g id="node16" class="node"><title>Node16</title>
<g id="a_node16"><a xlink:href="reader_8c.html#a11446424d65669df0f3a9e3b1cca57fa" target="_top" xlink:title="nextc">
<polygon fill="white" stroke="black" points="134.5,-289.821 134.5,-308.821 175.5,-308.821 175.5,-289.821 134.5,-289.821"/>
<text text-anchor="middle" x="155" y="-296.821" font-family="Helvetica,sans-Serif" font-size="10.00">nextc</text>
</a>
</g>
</g>
<!-- Node1&#45;&gt;Node16 -->
<g id="edge24" class="edge"><title>Node1&#45;&gt;Node16</title>
<path fill="none" stroke="midnightblue" d="M58.2484,-251.862C76.6574,-260.986 104.64,-274.856 125.608,-285.249"/>
<polygon fill="midnightblue" stroke="midnightblue" points="124.175,-288.445 134.689,-289.75 127.283,-282.173 124.175,-288.445"/>
</g>
<!-- Node19 -->
<g id="node19" class="node"><title>Node19</title>
<g id="a_node19"><a xlink:href="error_8c.html#a73b7d91e555fcb312db3d1561b8b0468" target="_top" xlink:title="prec_redeclared">
<polygon fill="white" stroke="black" points="112,-156.821 112,-175.821 198,-175.821 198,-156.821 112,-156.821"/>
<text text-anchor="middle" x="155" y="-163.821" font-family="Helvetica,sans-Serif" font-size="10.00">prec_redeclared</text>
</a>
</g>
</g>
<!-- Node1&#45;&gt;Node19 -->
<g id="edge32" class="edge"><title>Node1&#45;&gt;Node19</title>
<path fill="none" stroke="midnightblue" d="M51.6554,-232.72C66.0059,-221.972 90.2405,-204.239 112,-190.321 116.864,-187.21 122.144,-184.039 127.267,-181.065"/>
<polygon fill="midnightblue" stroke="midnightblue" points="129.237,-183.971 136.193,-175.979 125.772,-177.889 129.237,-183.971"/>
</g>
<!-- Node20 -->
<g id="node20" class="node"><title>Node20</title>
<g id="a_node20"><a xlink:href="error_8c.html#ae2027917ace8b6f808a14b5cd4085eaf" target="_top" xlink:title="syntax_error">
<polygon fill="white" stroke="black" points="374.5,-403.821 374.5,-422.821 445.5,-422.821 445.5,-403.821 374.5,-403.821"/>
<text text-anchor="middle" x="410" y="-410.821" font-family="Helvetica,sans-Serif" font-size="10.00">syntax_error</text>
</a>
</g>
</g>
<!-- Node1&#45;&gt;Node20 -->
<g id="edge33" class="edge"><title>Node1&#45;&gt;Node20</title>
<path fill="none" stroke="midnightblue" d="M45.724,-251.964C57.399,-268.011 82.9694,-300.219 112,-318.321 192.988,-368.821 303.286,-394.821 364.114,-406.115"/>
<polygon fill="midnightblue" stroke="midnightblue" points="363.696,-409.596 374.159,-407.93 364.94,-402.708 363.696,-409.596"/>
</g>
<!-- Node3 -->
<g id="node3" class="node"><title>Node3</title>
<g id="a_node3"><a xlink:href="reader_8c.html#a04707e6fc9527eaf37d68dafdc9483a9" target="_top" xlink:title="cachec">
<polygon fill="white" stroke="black" points="386,-61.8214 386,-80.8214 434,-80.8214 434,-61.8214 386,-61.8214"/>
<text text-anchor="middle" x="410" y="-68.8214" font-family="Helvetica,sans-Serif" font-size="10.00">cachec</text>
</a>
</g>
</g>
<!-- Node2&#45;&gt;Node3 -->
<g id="edge2" class="edge"><title>Node2&#45;&gt;Node3</title>
<path fill="none" stroke="midnightblue" d="M277.731,-213.68C285.131,-189.297 307.897,-124.679 350,-90.3214 357.47,-84.2258 366.938,-80.0697 376.09,-77.242"/>
<polygon fill="midnightblue" stroke="midnightblue" points="377.022,-80.616 385.788,-74.6663 375.225,-73.8506 377.022,-80.616"/>
</g>
<!-- Node4 -->
<g id="node4" class="node"><title>Node4</title>
<g id="a_node4"><a xlink:href="error_8c.html#a03b3d711852aa32c4076f12ea7bb93a4" target="_top" xlink:title="no_space">
<polygon fill="white" stroke="black" points="516.5,-213.821 516.5,-232.821 575.5,-232.821 575.5,-213.821 516.5,-213.821"/>
<text text-anchor="middle" x="546" y="-220.821" font-family="Helvetica,sans-Serif" font-size="10.00">no_space</text>
</a>
</g>
</g>
<!-- Node2&#45;&gt;Node4 -->
<g id="edge14" class="edge"><title>Node2&#45;&gt;Node4</title>
<path fill="none" stroke="midnightblue" d="M283.529,-213.718C296.357,-200.081 322.102,-175.719 350,-166.321 400.542,-149.295 419.458,-149.295 470,-166.321 493.321,-174.178 515.137,-192.49 529.162,-206.254"/>
<polygon fill="midnightblue" stroke="midnightblue" points="526.974,-209.022 536.471,-213.718 531.975,-204.124 526.974,-209.022"/>
</g>
<!-- Node6 -->
<g id="node6" class="node"><title>Node6</title>
<g id="a_node6"><a xlink:href="reader_8c.html#a416a4e795e86e5666f1a734793f9636e" target="_top" xlink:title="dup_line">
<polygon fill="white" stroke="black" points="383.5,-213.821 383.5,-232.821 436.5,-232.821 436.5,-213.821 383.5,-213.821"/>
<text text-anchor="middle" x="410" y="-220.821" font-family="Helvetica,sans-Serif" font-size="10.00">dup_line</text>
</a>
</g>
</g>
<!-- Node2&#45;&gt;Node6 -->
<g id="edge5" class="edge"><title>Node2&#45;&gt;Node6</title>
<path fill="none" stroke="midnightblue" d="M303.746,-223.321C324.101,-223.321 351.54,-223.321 373.299,-223.321"/>
<polygon fill="midnightblue" stroke="midnightblue" points="373.468,-226.821 383.468,-223.321 373.468,-219.821 373.468,-226.821"/>
</g>
<!-- Node7 -->
<g id="node7" class="node"><title>Node7</title>
<g id="a_node7"><a xlink:href="reader_8c.html#a204317aa3b6d154f1abff12df35953df" target="_top" xlink:title="get_line">
<polygon fill="white" stroke="black" points="385,-327.821 385,-346.821 435,-346.821 435,-327.821 385,-327.821"/>
<text text-anchor="middle" x="410" y="-334.821" font-family="Helvetica,sans-Serif" font-size="10.00">get_line</text>
</a>
</g>
</g>
<!-- Node2&#45;&gt;Node7 -->
<g id="edge7" class="edge"><title>Node2&#45;&gt;Node7</title>
<path fill="none" stroke="midnightblue" d="M281.496,-232.924C296.312,-254.58 332.654,-306.275 350,-318.321 357.433,-323.483 366.349,-327.304 374.972,-330.108"/>
<polygon fill="midnightblue" stroke="midnightblue" points="374.275,-333.55 384.853,-332.952 376.211,-326.823 374.275,-333.55"/>
</g>
<!-- Node8 -->
<g id="node8" class="node"><title>Node8</title>
<g id="a_node8"><a xlink:href="reader_8c.html#a9ce1e6abd7c2eac7e850297b7e1bbc6e" target="_top" xlink:title="hexval">
<polygon fill="white" stroke="black" points="387.5,-175.821 387.5,-194.821 432.5,-194.821 432.5,-175.821 387.5,-175.821"/>
<text text-anchor="middle" x="410" y="-182.821" font-family="Helvetica,sans-Serif" font-size="10.00">hexval</text>
</a>
</g>
</g>
<!-- Node2&#45;&gt;Node8 -->
<g id="edge9" class="edge"><title>Node2&#45;&gt;Node8</title>
<path fill="none" stroke="midnightblue" d="M303.746,-215.169C325.487,-209.004 355.308,-200.547 377.659,-194.209"/>
<polygon fill="midnightblue" stroke="midnightblue" points="378.68,-197.558 387.346,-191.462 376.771,-190.823 378.68,-197.558"/>
</g>
<!-- Node9 -->
<g id="node9" class="node"><title>Node9</title>
<g id="a_node9"><a xlink:href="error_8c.html#aad64de11ac1b5b04da452109e0c6e55a" target="_top" xlink:title="illegal_character">
<polygon fill="white" stroke="black" points="366.5,-289.821 366.5,-308.821 453.5,-308.821 453.5,-289.821 366.5,-289.821"/>
<text text-anchor="middle" x="410" y="-296.821" font-family="Helvetica,sans-Serif" font-size="10.00">illegal_character</text>
</a>
</g>
</g>
<!-- Node2&#45;&gt;Node9 -->
<g id="edge10" class="edge"><title>Node2&#45;&gt;Node9</title>
<path fill="none" stroke="midnightblue" d="M285.389,-233.069C299.188,-245.559 324.768,-267.163 350,-280.321 354.192,-282.508 358.684,-284.503 363.248,-286.309"/>
<polygon fill="midnightblue" stroke="midnightblue" points="362.052,-289.598 372.646,-289.75 364.458,-283.025 362.052,-289.598"/>
</g>
<!-- Node11 -->
<g id="node11" class="node"><title>Node11</title>
<g id="a_node11"><a xlink:href="defs_8h.html#aeb8facfda1fb8dcf16a3120589eb90e0" target="_top" xlink:title="lookup">
<polygon fill="white" stroke="black" points="387.5,-99.8214 387.5,-118.821 432.5,-118.821 432.5,-99.8214 387.5,-99.8214"/>
<text text-anchor="middle" x="410" y="-106.821" font-family="Helvetica,sans-Serif" font-size="10.00">lookup</text>
</a>
</g>
</g>
<!-- Node2&#45;&gt;Node11 -->
<g id="edge13" class="edge"><title>Node2&#45;&gt;Node11</title>
<path fill="none" stroke="midnightblue" d="M280.807,-213.58C292.049,-195.469 318.473,-156.366 350,-133.321 358.282,-127.267 368.31,-122.449 377.731,-118.767"/>
<polygon fill="midnightblue" stroke="midnightblue" points="379.013,-122.025 387.229,-115.335 376.635,-115.441 379.013,-122.025"/>
</g>
<!-- Node12 -->
<g id="node12" class="node"><title>Node12</title>
<g id="a_node12"><a xlink:href="error_8c.html#a1be74faa1a912de2fd380aa9a4de6eb2" target="_top" xlink:title="unterminated_string">
<polygon fill="white" stroke="black" points="359,-251.821 359,-270.821 461,-270.821 461,-251.821 359,-251.821"/>
<text text-anchor="middle" x="410" y="-258.821" font-family="Helvetica,sans-Serif" font-size="10.00">unterminated_string</text>
</a>
</g>
</g>
<!-- Node2&#45;&gt;Node12 -->
<g id="edge15" class="edge"><title>Node2&#45;&gt;Node12</title>
<path fill="none" stroke="midnightblue" d="M303.746,-231.473C321.722,-236.571 345.223,-243.235 365.457,-248.973"/>
<polygon fill="midnightblue" stroke="midnightblue" points="364.513,-252.344 375.089,-251.705 366.423,-245.609 364.513,-252.344"/>
</g>
<!-- Node3&#45;&gt;Node4 -->
<g id="edge3" class="edge"><title>Node3&#45;&gt;Node4</title>
<path fill="none" stroke="midnightblue" d="M434.212,-74.6663C445.952,-77.3168 459.828,-82.021 470,-90.3214 507.334,-120.787 529.463,-175.045 539.157,-203.947"/>
<polygon fill="midnightblue" stroke="midnightblue" points="535.89,-205.221 542.269,-213.68 542.557,-203.089 535.89,-205.221"/>
</g>
<!-- Node5 -->
<g id="node5" class="node"><title>Node5</title>
<g id="a_node5"><a xlink:href="main_8c.html#a67b6b9fd02aac96bef4297b1e6a1789a" target="_top" xlink:title="done">
<polygon fill="white" stroke="black" points="622,-270.821 622,-289.821 660,-289.821 660,-270.821 622,-270.821"/>
<text text-anchor="middle" x="641" y="-277.821" font-family="Helvetica,sans-Serif" font-size="10.00">done</text>
</a>
</g>
</g>
<!-- Node4&#45;&gt;Node5 -->
<g id="edge4" class="edge"><title>Node4&#45;&gt;Node5</title>
<path fill="none" stroke="midnightblue" d="M562.776,-232.991C577.293,-241.888 599.041,-255.218 615.762,-265.466"/>
<polygon fill="midnightblue" stroke="midnightblue" points="614.102,-268.553 624.457,-270.795 617.76,-262.585 614.102,-268.553"/>
</g>
<!-- Node6&#45;&gt;Node4 -->
<g id="edge6" class="edge"><title>Node6&#45;&gt;Node4</title>
<path fill="none" stroke="midnightblue" d="M436.52,-223.321C456.186,-223.321 483.713,-223.321 506.116,-223.321"/>
<polygon fill="midnightblue" stroke="midnightblue" points="506.323,-226.821 516.323,-223.321 506.323,-219.821 506.323,-226.821"/>
</g>
<!-- Node7&#45;&gt;Node4 -->
<g id="edge8" class="edge"><title>Node7&#45;&gt;Node4</title>
<path fill="none" stroke="midnightblue" d="M435.147,-332.952C446.446,-330.089 459.659,-325.503 470,-318.321 499.186,-298.052 522.539,-263.109 535.03,-241.722"/>
<polygon fill="midnightblue" stroke="midnightblue" points="538.114,-243.379 539.987,-232.951 532.02,-239.935 538.114,-243.379"/>
</g>
<!-- Node9&#45;&gt;Node5 -->
<g id="edge11" class="edge"><title>Node9&#45;&gt;Node5</title>
<path fill="none" stroke="midnightblue" d="M453.536,-295.792C499.745,-291.958 572.249,-285.943 611.858,-282.656"/>
<polygon fill="midnightblue" stroke="midnightblue" points="612.2,-286.14 621.877,-281.825 611.622,-279.164 612.2,-286.14"/>
</g>
<!-- Node10 -->
<g id="node10" class="node"><title>Node10</title>
<g id="a_node10"><a xlink:href="error_8c.html#a3c01cc3498c6cb3655588b53da0e8f7e" target="_top" xlink:title="print_pos">
<polygon fill="white" stroke="black" points="518,-327.821 518,-346.821 574,-346.821 574,-327.821 518,-327.821"/>
<text text-anchor="middle" x="546" y="-334.821" font-family="Helvetica,sans-Serif" font-size="10.00">print_pos</text>
</a>
</g>
</g>
<!-- Node9&#45;&gt;Node10 -->
<g id="edge12" class="edge"><title>Node9&#45;&gt;Node10</title>
<path fill="none" stroke="midnightblue" d="M444.814,-308.91C464.093,-314.378 488.276,-321.235 508.053,-326.844"/>
<polygon fill="midnightblue" stroke="midnightblue" points="507.368,-330.288 517.944,-329.649 509.278,-323.553 507.368,-330.288"/>
</g>
<!-- Node12&#45;&gt;Node5 -->
<g id="edge16" class="edge"><title>Node12&#45;&gt;Node5</title>
<path fill="none" stroke="midnightblue" d="M461.255,-265.491C507.39,-269.319 574.099,-274.854 611.612,-277.966"/>
<polygon fill="midnightblue" stroke="midnightblue" points="611.564,-281.474 621.819,-278.813 612.143,-274.498 611.564,-281.474"/>
</g>
<!-- Node12&#45;&gt;Node10 -->
<g id="edge17" class="edge"><title>Node12&#45;&gt;Node10</title>
<path fill="none" stroke="midnightblue" d="M447.354,-270.893C455.031,-273.498 462.939,-276.639 470,-280.321 491.092,-291.321 512.428,-308.222 526.922,-320.768"/>
<polygon fill="midnightblue" stroke="midnightblue" points="524.803,-323.567 534.611,-327.574 529.442,-318.325 524.803,-323.567"/>
</g>
<!-- Node13&#45;&gt;Node3 -->
<g id="edge19" class="edge"><title>Node13&#45;&gt;Node3</title>
<path fill="none" stroke="midnightblue" d="M303.746,-71.3214C324.762,-71.3214 353.329,-71.3214 375.4,-71.3214"/>
<polygon fill="midnightblue" stroke="midnightblue" points="375.651,-74.8215 385.651,-71.3214 375.651,-67.8215 375.651,-74.8215"/>
</g>
<!-- Node13&#45;&gt;Node11 -->
<g id="edge21" class="edge"><title>Node13&#45;&gt;Node11</title>
<path fill="none" stroke="midnightblue" d="M303.746,-79.4734C325.487,-85.6385 355.308,-94.0953 377.659,-100.434"/>
<polygon fill="midnightblue" stroke="midnightblue" points="376.771,-103.82 387.346,-103.181 378.68,-97.0852 376.771,-103.82"/>
</g>
<!-- Node14 -->
<g id="node14" class="node"><title>Node14</title>
<g id="a_node14"><a xlink:href="reader_8c.html#a205d802dd9de1b8e85d44a321f33365c" target="_top" xlink:title="is_reserved">
<polygon fill="white" stroke="black" points="376.5,-23.8214 376.5,-42.8214 443.5,-42.8214 443.5,-23.8214 376.5,-23.8214"/>
<text text-anchor="middle" x="410" y="-30.8214" font-family="Helvetica,sans-Serif" font-size="10.00">is_reserved</text>
</a>
</g>
</g>
<!-- Node13&#45;&gt;Node14 -->
<g id="edge20" class="edge"><title>Node13&#45;&gt;Node14</title>
<path fill="none" stroke="midnightblue" d="M303.746,-63.1694C321.986,-57.9969 345.915,-51.2112 366.347,-45.417"/>
<polygon fill="midnightblue" stroke="midnightblue" points="367.391,-48.7592 376.056,-42.6636 365.481,-42.0247 367.391,-48.7592"/>
</g>
<!-- Node15 -->
<g id="node15" class="node"><title>Node15</title>
<g id="a_node15"><a xlink:href="error_8c.html#a28ccf9e0cd69034b61cd32e13e9a9e00" target="_top" xlink:title="used_reserved">
<polygon fill="white" stroke="black" points="506,-80.8214 506,-99.8214 586,-99.8214 586,-80.8214 506,-80.8214"/>
<text text-anchor="middle" x="546" y="-87.8214" font-family="Helvetica,sans-Serif" font-size="10.00">used_reserved</text>
</a>
</g>
</g>
<!-- Node13&#45;&gt;Node15 -->
<g id="edge22" class="edge"><title>Node13&#45;&gt;Node15</title>
<path fill="none" stroke="midnightblue" d="M283.529,-61.718C296.357,-48.0814 322.102,-23.7194 350,-14.3214 400.542,2.70513 420.794,6.25142 470,-14.3214 497.945,-26.0051 520.771,-53.7349 533.628,-72.268"/>
<polygon fill="midnightblue" stroke="midnightblue" points="530.817,-74.3617 539.268,-80.7522 536.647,-70.4866 530.817,-74.3617"/>
</g>
<!-- Node15&#45;&gt;Node5 -->
<g id="edge23" class="edge"><title>Node15&#45;&gt;Node5</title>
<path fill="none" stroke="midnightblue" d="M551.74,-100.005C566.382,-129.918 611.081,-221.24 630.654,-261.228"/>
<polygon fill="midnightblue" stroke="midnightblue" points="627.618,-262.987 635.158,-270.43 633.906,-259.909 627.618,-262.987"/>
</g>
<!-- Node16&#45;&gt;Node7 -->
<g id="edge25" class="edge"><title>Node16&#45;&gt;Node7</title>
<path fill="none" stroke="midnightblue" d="M175.726,-304.884C191.405,-309.122 213.957,-314.808 234,-318.321 282.421,-326.81 339.086,-332.133 374.517,-334.916"/>
<polygon fill="midnightblue" stroke="midnightblue" points="374.561,-338.43 384.798,-335.7 375.093,-331.45 374.561,-338.43"/>
</g>
<!-- Node17 -->
<g id="node17" class="node"><title>Node17</title>
<g id="a_node17"><a xlink:href="reader_8c.html#ac812a775973bb1eb24e86256b2de6b8b" target="_top" xlink:title="skip_comment">
<polygon fill="white" stroke="black" points="234,-289.821 234,-308.821 314,-308.821 314,-289.821 234,-289.821"/>
<text text-anchor="middle" x="274" y="-296.821" font-family="Helvetica,sans-Serif" font-size="10.00">skip_comment</text>
</a>
</g>
</g>
<!-- Node16&#45;&gt;Node17 -->
<g id="edge26" class="edge"><title>Node16&#45;&gt;Node17</title>
<path fill="none" stroke="midnightblue" d="M175.583,-299.321C188.728,-299.321 206.67,-299.321 223.576,-299.321"/>
<polygon fill="midnightblue" stroke="midnightblue" points="223.916,-302.821 233.916,-299.321 223.916,-295.821 223.916,-302.821"/>
</g>
<!-- Node17&#45;&gt;Node6 -->
<g id="edge27" class="edge"><title>Node17&#45;&gt;Node6</title>
<path fill="none" stroke="midnightblue" d="M285.389,-289.574C299.188,-277.084 324.768,-255.48 350,-242.321 357.313,-238.508 365.535,-235.275 373.467,-232.616"/>
<polygon fill="midnightblue" stroke="midnightblue" points="374.765,-235.877 383.268,-229.556 372.679,-229.196 374.765,-235.877"/>
</g>
<!-- Node17&#45;&gt;Node7 -->
<g id="edge28" class="edge"><title>Node17&#45;&gt;Node7</title>
<path fill="none" stroke="midnightblue" d="M308.814,-308.91C329.11,-314.666 354.841,-321.963 375.144,-327.721"/>
<polygon fill="midnightblue" stroke="midnightblue" points="374.342,-331.131 384.918,-330.492 376.252,-324.397 374.342,-331.131"/>
</g>
<!-- Node18 -->
<g id="node18" class="node"><title>Node18</title>
<g id="a_node18"><a xlink:href="error_8c.html#a81c4e76cf37319065a21afcaec1b8ab1" target="_top" xlink:title="unterminated_comment">
<polygon fill="white" stroke="black" points="350.5,-365.821 350.5,-384.821 469.5,-384.821 469.5,-365.821 350.5,-365.821"/>
<text text-anchor="middle" x="410" y="-372.821" font-family="Helvetica,sans-Serif" font-size="10.00">unterminated_comment</text>
</a>
</g>
</g>
<!-- Node17&#45;&gt;Node18 -->
<g id="edge29" class="edge"><title>Node17&#45;&gt;Node18</title>
<path fill="none" stroke="midnightblue" d="M285.389,-309.069C299.188,-321.559 324.768,-343.163 350,-356.321 354.192,-358.508 358.684,-360.503 363.248,-362.309"/>
<polygon fill="midnightblue" stroke="midnightblue" points="362.052,-365.598 372.646,-365.75 364.458,-359.025 362.052,-365.598"/>
</g>
<!-- Node18&#45;&gt;Node5 -->
<g id="edge30" class="edge"><title>Node18&#45;&gt;Node5</title>
<path fill="none" stroke="midnightblue" d="M469.503,-380.629C505.422,-381.182 551.075,-376.813 586,-356.321 608.16,-343.32 623.6,-317.223 632.134,-299.269"/>
<polygon fill="midnightblue" stroke="midnightblue" points="635.377,-300.59 636.262,-290.033 628.986,-297.734 635.377,-300.59"/>
</g>
<!-- Node18&#45;&gt;Node10 -->
<g id="edge31" class="edge"><title>Node18&#45;&gt;Node10</title>
<path fill="none" stroke="midnightblue" d="M444.814,-365.732C464.093,-360.265 488.276,-353.407 508.053,-347.799"/>
<polygon fill="midnightblue" stroke="midnightblue" points="509.278,-351.09 517.944,-344.994 507.368,-344.355 509.278,-351.09"/>
</g>
<!-- Node20&#45;&gt;Node5 -->
<g id="edge34" class="edge"><title>Node20&#45;&gt;Node5</title>
<path fill="none" stroke="midnightblue" d="M445.666,-415.447C483.665,-415.997 544.707,-411.45 586,-381.321 613.456,-361.289 628.321,-322.98 635.169,-299.732"/>
<polygon fill="midnightblue" stroke="midnightblue" points="638.582,-300.521 637.838,-289.952 631.829,-298.678 638.582,-300.521"/>
</g>
<!-- Node20&#45;&gt;Node10 -->
<g id="edge35" class="edge"><title>Node20&#45;&gt;Node10</title>
<path fill="none" stroke="midnightblue" d="M445.802,-404.27C453.958,-401.567 462.462,-398.252 470,-394.321 491.092,-383.322 512.428,-366.42 526.922,-353.875"/>
<polygon fill="midnightblue" stroke="midnightblue" points="529.442,-356.318 534.611,-347.069 524.803,-351.076 529.442,-356.318"/>
</g>
</g>
</svg>
        <g id="navigator" transform="translate(0 0)" fill="#404254">
                <rect fill="#f2f5e9" fill-opacity="0.5" stroke="#606060" stroke-width=".5" x="0" y="0" width="60" height="60"/>
                <use id="zoomplus" xlink:href="#zoomPlus" x="17" y="9" onmousedown="handleZoom(evt,'in')"/>
                <use id="zoomminus" xlink:href="#zoomMin" x="42" y="9" onmousedown="handleZoom(evt,'out')"/>
                <use id="reset" xlink:href="#resetDef" x="30" y="36" onmousedown="handleReset()"/>
                <g id="arrowUp" xlink:href="#dirArrow" transform="translate(30 24)" onmousedown="handlePan(0,-1)">
                  <use xlink:href="#rim" fill="#404040">
                        <set attributeName="fill" to="#808080" begin="arrowUp.mouseover" end="arrowUp.mouseout"/>
                  </use>
                  <path fill="none" stroke="white" stroke-width="1.5" d="M0,-3.0v7 M-2.5,-0.5L0,-3.0L2.5,-0.5"/>
                </g>
                <g id="arrowRight" xlink:href="#dirArrow" transform="rotate(90) translate(36 -43)" onmousedown="handlePan(1,0)">
                  <use xlink:href="#rim" fill="#404040">
                        <set attributeName="fill" to="#808080" begin="arrowRight.mouseover" end="arrowRight.mouseout"/>
                  </use>
                  <path fill="none" stroke="white" stroke-width="1.5" d="M0,-3.0v7 M-2.5,-0.5L0,-3.0L2.5,-0.5"/>
                </g>
                <g id="arrowDown" xlink:href="#dirArrow" transform="rotate(180) translate(-30 -48)" onmousedown="handlePan(0,1)">
                  <use xlink:href="#rim" fill="#404040">
                        <set attributeName="fill" to="#808080" begin="arrowDown.mouseover" end="arrowDown.mouseout"/>
                  </use>
                  <path fill="none" stroke="white" stroke-width="1.5" d="M0,-3.0v7 M-2.5,-0.5L0,-3.0L2.5,-0.5"/>
                </g>
                <g id="arrowLeft" xlink:href="#dirArrow" transform="rotate(270) translate(-36 17)" onmousedown="handlePan(-1,0)">
                  <use xlink:href="#rim" fill="#404040">
                        <set attributeName="fill" to="#808080" begin="arrowLeft.mouseover" end="arrowLeft.mouseout"/>
                  </use>
                  <path fill="none" stroke="white" stroke-width="1.5" d="M0,-3.0v7 M-2.5,-0.5L0,-3.0L2.5,-0.5"/>
                </g>
        </g>
        <svg viewBox="0 0 15 15" width="100%" height="30px" preserveAspectRatio="xMaxYMin meet">
         <g id="arrow_out" transform="scale(0.3 0.3)">
          <a xlink:href="reader_8c_aae3985d515e47c03afc20f92c0292531_cgraph_org.svg" target="_base">
           <rect id="button" ry="5" rx="5" y="6" x="6" height="38" width="38"
                fill="#f2f5e9" fill-opacity="0.5" stroke="#606060" stroke-width="1.0"/>
           <path id="arrow"
             d="M 11.500037,31.436501 C 11.940474,20.09759 22.043105,11.32322 32.158766,21.979434 L 37.068811,17.246167 C 37.068811,17.246167 37.088388,32 37.088388,32 L 22.160133,31.978069 C 22.160133,31.978069 26.997745,27.140456 26.997745,27.140456 C 18.528582,18.264221 13.291696,25.230495 11.500037,31.436501 z"
             style="fill:#404040;"/>
          </a>
         </g>
        </svg>
</svg>
