<?xml version="1.0" encoding="UTF-8" standalone="no"?>
<!DOCTYPE svg PUBLIC "-//W3C//DTD SVG 1.1//EN"
 "http://www.w3.org/Graphics/SVG/1.1/DTD/svg11.dtd">
<!-- Generated by graphviz version 2.36.0 (20140111.2315)
 -->
<!-- Title: hexval Pages: 1 -->
<svg width="400pt" height="142pt"
 viewBox="0.00 0.00 400.00 142.00" xmlns="http://www.w3.org/2000/svg" xmlns:xlink="http://www.w3.org/1999/xlink">
<g id="graph0" class="graph" transform="scale(1 1) rotate(0) translate(4 138)">
<title>hexval</title>
<polygon fill="white" stroke="none" points="-4,4 -4,-138 396,-138 396,4 -4,4"/>
<!-- Node1 -->
<g id="node1" class="node"><title>Node1</title>
<polygon fill="#bfbfbf" stroke="black" points="0.5,-57.5 0.5,-76.5 45.5,-76.5 45.5,-57.5 0.5,-57.5"/>
<text text-anchor="middle" x="23" y="-64.5" font-family="Helvetica,sans-Serif" font-size="10.00">hexval</text>
</g>
<!-- Node2 -->
<g id="node2" class="node"><title>Node2</title>
<g id="a_node2"><a xlink:href="reader_8c.html#acfb64f081b0d9c4536e90c5352ce9c2c" target="_top" xlink:title="get_literal">
<polygon fill="white" stroke="black" points="82.5,-57.5 82.5,-76.5 141.5,-76.5 141.5,-57.5 82.5,-57.5"/>
<text text-anchor="middle" x="112" y="-64.5" font-family="Helvetica,sans-Serif" font-size="10.00">get_literal</text>
</a>
</g>
</g>
<!-- Node1&#45;&gt;Node2 -->
<g id="edge1" class="edge"><title>Node1&#45;&gt;Node2</title>
<path fill="none" stroke="midnightblue" d="M55.6491,-67C64.3261,-67 73.6842,-67 82.1926,-67"/>
<polygon fill="midnightblue" stroke="midnightblue" points="55.5057,-63.5001 45.5056,-67 55.5056,-70.5001 55.5057,-63.5001"/>
</g>
<!-- Node3 -->
<g id="node3" class="node"><title>Node3</title>
<g id="a_node3"><a xlink:href="reader_8c.html#a34bf32e056d8bc6f1fb490f4efc7ce90" target="_top" xlink:title="add_symbol">
<polygon fill="white" stroke="black" points="185.5,-114.5 185.5,-133.5 254.5,-133.5 254.5,-114.5 185.5,-114.5"/>
<text text-anchor="middle" x="220" y="-121.5" font-family="Helvetica,sans-Serif" font-size="10.00">add_symbol</text>
</a>
</g>
</g>
<!-- Node2&#45;&gt;Node3 -->
<g id="edge2" class="edge"><title>Node2&#45;&gt;Node3</title>
<path fill="none" stroke="midnightblue" d="M137.158,-81.8601C149.266,-89.1177 164.244,-97.8124 178,-105 184.119,-108.197 190.876,-111.441 197.109,-114.323"/>
<polygon fill="midnightblue" stroke="midnightblue" points="138.895,-78.82 128.527,-76.639 135.272,-84.8095 138.895,-78.82"/>
</g>
<!-- Node5 -->
<g id="node5" class="node"><title>Node5</title>
<g id="a_node5"><a xlink:href="reader_8c.html#a0b749a023a959fabb8ed2778b46ec217" target="_top" xlink:title="declare_tokens">
<polygon fill="white" stroke="black" points="178.5,-38.5 178.5,-57.5 261.5,-57.5 261.5,-38.5 178.5,-38.5"/>
<text text-anchor="middle" x="220" y="-45.5" font-family="Helvetica,sans-Serif" font-size="10.00">declare_tokens</text>
</a>
</g>
</g>
<!-- Node2&#45;&gt;Node5 -->
<g id="edge4" class="edge"><title>Node2&#45;&gt;Node5</title>
<path fill="none" stroke="midnightblue" d="M151.587,-60.0835C160.295,-58.5226 169.564,-56.8611 178.354,-55.2856"/>
<polygon fill="midnightblue" stroke="midnightblue" points="150.911,-56.6488 141.685,-61.8583 152.146,-63.539 150.911,-56.6488"/>
</g>
<!-- Node7 -->
<g id="node7" class="node"><title>Node7</title>
<g id="a_node7"><a xlink:href="reader_8c.html#a860dbc8da656fd831b19668da20207c7" target="_top" xlink:title="declare_types">
<polygon fill="white" stroke="black" points="181.5,-0.5 181.5,-19.5 258.5,-19.5 258.5,-0.5 181.5,-0.5"/>
<text text-anchor="middle" x="220" y="-7.5" font-family="Helvetica,sans-Serif" font-size="10.00">declare_types</text>
</a>
</g>
</g>
<!-- Node2&#45;&gt;Node7 -->
<g id="edge6" class="edge"><title>Node2&#45;&gt;Node7</title>
<path fill="none" stroke="midnightblue" d="M137.158,-52.1399C149.266,-44.8823 164.244,-36.1876 178,-29 184.119,-25.8028 190.876,-22.5586 197.109,-19.6775"/>
<polygon fill="midnightblue" stroke="midnightblue" points="135.272,-49.1905 128.527,-57.361 138.895,-55.18 135.272,-49.1905"/>
</g>
<!-- Node8 -->
<g id="node8" class="node"><title>Node8</title>
<g id="a_node8"><a xlink:href="reader_8c.html#aae3985d515e47c03afc20f92c0292531" target="_top" xlink:title="mark_symbol">
<polygon fill="white" stroke="black" points="182.5,-76.5 182.5,-95.5 257.5,-95.5 257.5,-76.5 182.5,-76.5"/>
<text text-anchor="middle" x="220" y="-83.5" font-family="Helvetica,sans-Serif" font-size="10.00">mark_symbol</text>
</a>
</g>
</g>
<!-- Node2&#45;&gt;Node8 -->
<g id="edge8" class="edge"><title>Node2&#45;&gt;Node8</title>
<path fill="none" stroke="midnightblue" d="M151.754,-73.9464C161.731,-75.7348 172.436,-77.6536 182.305,-79.4226"/>
<polygon fill="midnightblue" stroke="midnightblue" points="152.146,-70.461 141.685,-72.1417 150.911,-77.3512 152.146,-70.461"/>
</g>
<!-- Node4 -->
<g id="node4" class="node"><title>Node4</title>
<g id="a_node4"><a xlink:href="reader_8c.html#af6d4fba61bb761ca9fe92fef83e8ee94" target="_top" xlink:title="read_grammar">
<polygon fill="white" stroke="red" points="305.5,-85.5 305.5,-104.5 384.5,-104.5 384.5,-85.5 305.5,-85.5"/>
<text text-anchor="middle" x="345" y="-92.5" font-family="Helvetica,sans-Serif" font-size="10.00">read_grammar</text>
</a>
</g>
</g>
<!-- Node3&#45;&gt;Node4 -->
<g id="edge3" class="edge"><title>Node3&#45;&gt;Node4</title>
<path fill="none" stroke="midnightblue" d="M264.478,-113.749C277.756,-110.619 292.263,-107.198 305.209,-104.146"/>
<polygon fill="midnightblue" stroke="midnightblue" points="263.54,-110.374 254.61,-116.076 265.147,-117.187 263.54,-110.374"/>
</g>
<!-- Node6 -->
<g id="node6" class="node"><title>Node6</title>
<g id="a_node6"><a xlink:href="reader_8c.html#a07addfee5457e48ddb310769dd0e39af" target="_top" xlink:title="read_declarations">
<polygon fill="white" stroke="red" points="298.5,-28.5 298.5,-47.5 391.5,-47.5 391.5,-28.5 298.5,-28.5"/>
<text text-anchor="middle" x="345" y="-35.5" font-family="Helvetica,sans-Serif" font-size="10.00">read_declarations</text>
</a>
</g>
</g>
<!-- Node5&#45;&gt;Node6 -->
<g id="edge5" class="edge"><title>Node5&#45;&gt;Node6</title>
<path fill="none" stroke="midnightblue" d="M271.764,-43.8729C280.565,-43.1573 289.669,-42.4171 298.325,-41.7134"/>
<polygon fill="midnightblue" stroke="midnightblue" points="271.299,-40.399 261.616,-44.6979 271.866,-47.376 271.299,-40.399"/>
</g>
<!-- Node7&#45;&gt;Node6 -->
<g id="edge7" class="edge"><title>Node7&#45;&gt;Node6</title>
<path fill="none" stroke="midnightblue" d="M268.475,-20.8074C279.5,-23.3171 291.16,-25.9715 301.934,-28.424"/>
<polygon fill="midnightblue" stroke="midnightblue" points="269.1,-17.3601 258.572,-18.5531 267.546,-24.1855 269.1,-17.3601"/>
</g>
<!-- Node8&#45;&gt;Node4 -->
<g id="edge9" class="edge"><title>Node8&#45;&gt;Node4</title>
<path fill="none" stroke="midnightblue" d="M267.718,-89.4184C280.092,-90.3238 293.315,-91.2913 305.217,-92.1622"/>
<polygon fill="midnightblue" stroke="midnightblue" points="267.8,-85.9151 257.571,-88.6759 267.289,-92.8964 267.8,-85.9151"/>
</g>
</g>
</svg>
