<?xml version="1.0" encoding="UTF-8" standalone="no"?>
<!DOCTYPE svg PUBLIC "-//W3C//DTD SVG 1.1//EN"
 "http://www.w3.org/Graphics/SVG/1.1/DTD/svg11.dtd">
<!-- Generated by graphviz version 2.36.0 (20140111.2315)
 -->
<!-- Title: end_rule Pages: 1 -->
<svg width="384pt" height="66pt"
 viewBox="0.00 0.00 384.00 66.00" xmlns="http://www.w3.org/2000/svg" xmlns:xlink="http://www.w3.org/1999/xlink">
<g id="graph0" class="graph" transform="scale(1 1) rotate(0) translate(4 62)">
<title>end_rule</title>
<polygon fill="white" stroke="none" points="-4,4 -4,-62 380,-62 380,4 -4,4"/>
<!-- Node1 -->
<g id="node1" class="node"><title>Node1</title>
<polygon fill="#bfbfbf" stroke="black" points="0.5,-19.5 0.5,-38.5 53.5,-38.5 53.5,-19.5 0.5,-19.5"/>
<text text-anchor="middle" x="27" y="-26.5" font-family="Helvetica,sans-Serif" font-size="10.00">end_rule</text>
</g>
<!-- Node2 -->
<g id="node2" class="node"><title>Node2</title>
<g id="a_node2"><a xlink:href="error_8c.html#adb0403f76d903f343861ba458e8d4a57" target="_top" xlink:title="default_action_warning">
<polygon fill="white" stroke="black" points="90,-38.5 90,-57.5 206,-57.5 206,-38.5 90,-38.5"/>
<text text-anchor="middle" x="148" y="-45.5" font-family="Helvetica,sans-Serif" font-size="10.00">default_action_warning</text>
</a>
</g>
</g>
<!-- Node1&#45;&gt;Node2 -->
<g id="edge1" class="edge"><title>Node1&#45;&gt;Node2</title>
<path fill="none" stroke="midnightblue" d="M53.5285,-33.076C61.3523,-34.3252 70.3547,-35.7625 79.6165,-37.2413"/>
<polygon fill="midnightblue" stroke="midnightblue" points="79.298,-40.7347 89.7248,-38.8552 80.4017,-33.8222 79.298,-40.7347"/>
</g>
<!-- Node3 -->
<g id="node3" class="node"><title>Node3</title>
<g id="a_node3"><a xlink:href="reader_8c.html#a2d5a55a1a526ac853c3234ea51ee18f8" target="_top" xlink:title="expand_items">
<polygon fill="white" stroke="black" points="109.5,-0.5 109.5,-19.5 186.5,-19.5 186.5,-0.5 109.5,-0.5"/>
<text text-anchor="middle" x="148" y="-7.5" font-family="Helvetica,sans-Serif" font-size="10.00">expand_items</text>
</a>
</g>
</g>
<!-- Node1&#45;&gt;Node3 -->
<g id="edge2" class="edge"><title>Node1&#45;&gt;Node3</title>
<path fill="none" stroke="midnightblue" d="M53.5285,-24.924C66.8617,-22.7952 83.6175,-20.1199 99.2471,-17.6244"/>
<polygon fill="midnightblue" stroke="midnightblue" points="99.985,-21.051 109.308,-16.018 98.8813,-14.1386 99.985,-21.051"/>
</g>
<!-- Node4 -->
<g id="node4" class="node"><title>Node4</title>
<g id="a_node4"><a xlink:href="error_8c.html#a03b3d711852aa32c4076f12ea7bb93a4" target="_top" xlink:title="no_space">
<polygon fill="white" stroke="black" points="242.5,-0.5 242.5,-19.5 301.5,-19.5 301.5,-0.5 242.5,-0.5"/>
<text text-anchor="middle" x="272" y="-7.5" font-family="Helvetica,sans-Serif" font-size="10.00">no_space</text>
</a>
</g>
</g>
<!-- Node3&#45;&gt;Node4 -->
<g id="edge3" class="edge"><title>Node3&#45;&gt;Node4</title>
<path fill="none" stroke="midnightblue" d="M186.6,-10C201.022,-10 217.502,-10 232.049,-10"/>
<polygon fill="midnightblue" stroke="midnightblue" points="232.242,-13.5001 242.242,-10 232.242,-6.5001 232.242,-13.5001"/>
</g>
<!-- Node5 -->
<g id="node5" class="node"><title>Node5</title>
<g id="a_node5"><a xlink:href="main_8c.html#a67b6b9fd02aac96bef4297b1e6a1789a" target="_top" xlink:title="done">
<polygon fill="white" stroke="black" points="338,-0.5 338,-19.5 376,-19.5 376,-0.5 338,-0.5"/>
<text text-anchor="middle" x="357" y="-7.5" font-family="Helvetica,sans-Serif" font-size="10.00">done</text>
</a>
</g>
</g>
<!-- Node4&#45;&gt;Node5 -->
<g id="edge4" class="edge"><title>Node4&#45;&gt;Node5</title>
<path fill="none" stroke="midnightblue" d="M301.564,-10C310.005,-10 319.238,-10 327.665,-10"/>
<polygon fill="midnightblue" stroke="midnightblue" points="327.785,-13.5001 337.785,-10 327.785,-6.5001 327.785,-13.5001"/>
</g>
</g>
</svg>
