<?xml version="1.0" encoding="UTF-8" standalone="no"?>
<!DOCTYPE svg PUBLIC "-//W3C//DTD SVG 1.1//EN"
 "http://www.w3.org/Graphics/SVG/1.1/DTD/svg11.dtd">
<!-- Generated by graphviz version 2.36.0 (20140111.2315)
 -->
<!-- Title: skip_comment Pages: 1 -->
<svg width="414pt" height="123pt"
 viewBox="0.00 0.00 414.00 123.00" xmlns="http://www.w3.org/2000/svg" xmlns:xlink="http://www.w3.org/1999/xlink">
<g id="graph0" class="graph" transform="scale(1 1) rotate(0) translate(4 119)">
<title>skip_comment</title>
<polygon fill="white" stroke="none" points="-4,4 -4,-119 410,-119 410,4 -4,4"/>
<!-- Node1 -->
<g id="node1" class="node"><title>Node1</title>
<polygon fill="#bfbfbf" stroke="black" points="0,-57.5 0,-76.5 80,-76.5 80,-57.5 0,-57.5"/>
<text text-anchor="middle" x="40" y="-64.5" font-family="Helvetica,sans-Serif" font-size="10.00">skip_comment</text>
</g>
<!-- Node2 -->
<g id="node2" class="node"><title>Node2</title>
<g id="a_node2"><a xlink:href="reader_8c.html#a416a4e795e86e5666f1a734793f9636e" target="_top" xlink:title="dup_line">
<polygon fill="white" stroke="black" points="149.5,-95.5 149.5,-114.5 202.5,-114.5 202.5,-95.5 149.5,-95.5"/>
<text text-anchor="middle" x="176" y="-102.5" font-family="Helvetica,sans-Serif" font-size="10.00">dup_line</text>
</a>
</g>
</g>
<!-- Node1&#45;&gt;Node2 -->
<g id="edge1" class="edge"><title>Node1&#45;&gt;Node2</title>
<path fill="none" stroke="midnightblue" d="M74.8139,-76.589C94.5791,-82.1941 119.499,-89.261 139.541,-94.9444"/>
<polygon fill="midnightblue" stroke="midnightblue" points="138.657,-98.3318 149.233,-97.6929 140.567,-91.5974 138.657,-98.3318"/>
</g>
<!-- Node5 -->
<g id="node5" class="node"><title>Node5</title>
<g id="a_node5"><a xlink:href="reader_8c.html#a204317aa3b6d154f1abff12df35953df" target="_top" xlink:title="get_line">
<polygon fill="white" stroke="black" points="151,-57.5 151,-76.5 201,-76.5 201,-57.5 151,-57.5"/>
<text text-anchor="middle" x="176" y="-64.5" font-family="Helvetica,sans-Serif" font-size="10.00">get_line</text>
</a>
</g>
</g>
<!-- Node1&#45;&gt;Node5 -->
<g id="edge4" class="edge"><title>Node1&#45;&gt;Node5</title>
<path fill="none" stroke="midnightblue" d="M80.1186,-67C99.3224,-67 122.246,-67 140.749,-67"/>
<polygon fill="midnightblue" stroke="midnightblue" points="140.797,-70.5001 150.797,-67 140.797,-63.5001 140.797,-70.5001"/>
</g>
<!-- Node6 -->
<g id="node6" class="node"><title>Node6</title>
<g id="a_node6"><a xlink:href="error_8c.html#a81c4e76cf37319065a21afcaec1b8ab1" target="_top" xlink:title="unterminated_comment">
<polygon fill="white" stroke="black" points="116.5,-19.5 116.5,-38.5 235.5,-38.5 235.5,-19.5 116.5,-19.5"/>
<text text-anchor="middle" x="176" y="-26.5" font-family="Helvetica,sans-Serif" font-size="10.00">unterminated_comment</text>
</a>
</g>
</g>
<!-- Node1&#45;&gt;Node6 -->
<g id="edge6" class="edge"><title>Node1&#45;&gt;Node6</title>
<path fill="none" stroke="midnightblue" d="M74.8139,-57.411C92.0326,-52.5281 113.164,-46.5357 131.573,-41.315"/>
<polygon fill="midnightblue" stroke="midnightblue" points="132.531,-44.6815 141.197,-38.5859 130.621,-37.947 132.531,-44.6815"/>
</g>
<!-- Node3 -->
<g id="node3" class="node"><title>Node3</title>
<g id="a_node3"><a xlink:href="error_8c.html#a03b3d711852aa32c4076f12ea7bb93a4" target="_top" xlink:title="no_space">
<polygon fill="white" stroke="black" points="272.5,-76.5 272.5,-95.5 331.5,-95.5 331.5,-76.5 272.5,-76.5"/>
<text text-anchor="middle" x="302" y="-83.5" font-family="Helvetica,sans-Serif" font-size="10.00">no_space</text>
</a>
</g>
</g>
<!-- Node2&#45;&gt;Node3 -->
<g id="edge2" class="edge"><title>Node2&#45;&gt;Node3</title>
<path fill="none" stroke="midnightblue" d="M202.693,-101.063C219.89,-98.4281 242.842,-94.9113 262.244,-91.9385"/>
<polygon fill="midnightblue" stroke="midnightblue" points="262.952,-95.3709 272.306,-90.3967 261.891,-88.4517 262.952,-95.3709"/>
</g>
<!-- Node4 -->
<g id="node4" class="node"><title>Node4</title>
<g id="a_node4"><a xlink:href="main_8c.html#a67b6b9fd02aac96bef4297b1e6a1789a" target="_top" xlink:title="done">
<polygon fill="white" stroke="black" points="368,-57.5 368,-76.5 406,-76.5 406,-57.5 368,-57.5"/>
<text text-anchor="middle" x="387" y="-64.5" font-family="Helvetica,sans-Serif" font-size="10.00">done</text>
</a>
</g>
</g>
<!-- Node3&#45;&gt;Node4 -->
<g id="edge3" class="edge"><title>Node3&#45;&gt;Node4</title>
<path fill="none" stroke="midnightblue" d="M331.564,-79.4613C340.098,-77.5076 349.444,-75.3683 357.945,-73.4222"/>
<polygon fill="midnightblue" stroke="midnightblue" points="358.818,-76.8129 367.785,-71.1696 357.256,-69.9894 358.818,-76.8129"/>
</g>
<!-- Node5&#45;&gt;Node3 -->
<g id="edge5" class="edge"><title>Node5&#45;&gt;Node3</title>
<path fill="none" stroke="midnightblue" d="M201.203,-70.7085C218.488,-73.3571 242.112,-76.9768 262.036,-80.0297"/>
<polygon fill="midnightblue" stroke="midnightblue" points="261.65,-83.5113 272.064,-81.5663 262.71,-76.592 261.65,-83.5113"/>
</g>
<!-- Node6&#45;&gt;Node4 -->
<g id="edge7" class="edge"><title>Node6&#45;&gt;Node4</title>
<path fill="none" stroke="midnightblue" d="M229.47,-38.54C270.1,-45.9273 324.819,-55.8761 357.634,-61.8426"/>
<polygon fill="midnightblue" stroke="midnightblue" points="357.407,-65.3585 367.872,-63.7039 358.659,-58.4714 357.407,-65.3585"/>
</g>
<!-- Node7 -->
<g id="node7" class="node"><title>Node7</title>
<g id="a_node7"><a xlink:href="error_8c.html#a3c01cc3498c6cb3655588b53da0e8f7e" target="_top" xlink:title="print_pos">
<polygon fill="white" stroke="black" points="274,-0.5 274,-19.5 330,-19.5 330,-0.5 274,-0.5"/>
<text text-anchor="middle" x="302" y="-7.5" font-family="Helvetica,sans-Serif" font-size="10.00">print_pos</text>
</a>
</g>
</g>
<!-- Node6&#45;&gt;Node7 -->
<g id="edge8" class="edge"><title>Node6&#45;&gt;Node7</title>
<path fill="none" stroke="midnightblue" d="M235.732,-20.0008C245.27,-18.5392 254.912,-17.0619 263.751,-15.7075"/>
<polygon fill="midnightblue" stroke="midnightblue" points="264.349,-19.1568 273.704,-14.1825 263.289,-12.2375 264.349,-19.1568"/>
</g>
</g>
</svg>
