<?xml version="1.0" encoding="UTF-8" standalone="no"?>
<!DOCTYPE svg PUBLIC "-//W3C//DTD SVG 1.1//EN"
 "http://www.w3.org/Graphics/SVG/1.1/DTD/svg11.dtd">
<!-- Generated by graphviz version 2.36.0 (20140111.2315)
 -->
<!-- Title: check_symbols Pages: 1 -->
<svg width="338pt" height="66pt"
 viewBox="0.00 0.00 338.00 66.00" xmlns="http://www.w3.org/2000/svg" xmlns:xlink="http://www.w3.org/1999/xlink">
<g id="graph0" class="graph" transform="scale(1 1) rotate(0) translate(4 62)">
<title>check_symbols</title>
<polygon fill="white" stroke="none" points="-4,4 -4,-62 334,-62 334,4 -4,4"/>
<!-- Node1 -->
<g id="node1" class="node"><title>Node1</title>
<polygon fill="#bfbfbf" stroke="black" points="0.5,-19.5 0.5,-38.5 85.5,-38.5 85.5,-19.5 0.5,-19.5"/>
<text text-anchor="middle" x="43" y="-26.5" font-family="Helvetica,sans-Serif" font-size="10.00">check_symbols</text>
</g>
<!-- Node2 -->
<g id="node2" class="node"><title>Node2</title>
<g id="a_node2"><a xlink:href="error_8c.html#a4000cace0a889b23c1ec8411e02979a3" target="_top" xlink:title="undefined_goal">
<polygon fill="white" stroke="black" points="148,-38.5 148,-57.5 230,-57.5 230,-38.5 148,-38.5"/>
<text text-anchor="middle" x="189" y="-45.5" font-family="Helvetica,sans-Serif" font-size="10.00">undefined_goal</text>
</a>
</g>
</g>
<!-- Node1&#45;&gt;Node2 -->
<g id="edge1" class="edge"><title>Node1&#45;&gt;Node2</title>
<path fill="none" stroke="midnightblue" d="M85.6508,-34.4956C101.885,-36.6375 120.638,-39.1119 137.622,-41.3529"/>
<polygon fill="midnightblue" stroke="midnightblue" points="137.558,-44.8747 147.93,-42.713 138.474,-37.9348 137.558,-44.8747"/>
</g>
<!-- Node4 -->
<g id="node4" class="node"><title>Node4</title>
<g id="a_node4"><a xlink:href="error_8c.html#ae6a521b17a781796ffe5cbd6cefc0d09" target="_top" xlink:title="undefined_symbol_warning">
<polygon fill="white" stroke="black" points="122,-0.5 122,-19.5 256,-19.5 256,-0.5 122,-0.5"/>
<text text-anchor="middle" x="189" y="-7.5" font-family="Helvetica,sans-Serif" font-size="10.00">undefined_symbol_warning</text>
</a>
</g>
</g>
<!-- Node1&#45;&gt;Node4 -->
<g id="edge3" class="edge"><title>Node1&#45;&gt;Node4</title>
<path fill="none" stroke="midnightblue" d="M85.6508,-23.5044C93.8585,-22.4214 102.71,-21.2535 111.652,-20.0737"/>
<polygon fill="midnightblue" stroke="midnightblue" points="112.3,-23.5187 121.756,-18.7406 111.384,-16.5788 112.3,-23.5187"/>
</g>
<!-- Node3 -->
<g id="node3" class="node"><title>Node3</title>
<g id="a_node3"><a xlink:href="main_8c.html#a67b6b9fd02aac96bef4297b1e6a1789a" target="_top" xlink:title="done">
<polygon fill="white" stroke="black" points="292,-38.5 292,-57.5 330,-57.5 330,-38.5 292,-38.5"/>
<text text-anchor="middle" x="311" y="-45.5" font-family="Helvetica,sans-Serif" font-size="10.00">done</text>
</a>
</g>
</g>
<!-- Node2&#45;&gt;Node3 -->
<g id="edge2" class="edge"><title>Node2&#45;&gt;Node3</title>
<path fill="none" stroke="midnightblue" d="M230.292,-48C247.058,-48 266.133,-48 281.419,-48"/>
<polygon fill="midnightblue" stroke="midnightblue" points="281.792,-51.5001 291.792,-48 281.792,-44.5001 281.792,-51.5001"/>
</g>
</g>
</svg>
