<?xml version="1.0" encoding="UTF-8" standalone="no"?>
<!DOCTYPE svg PUBLIC "-//W3C//DTD SVG 1.1//EN"
 "http://www.w3.org/Graphics/SVG/1.1/DTD/svg11.dtd">
<!-- Generated by graphviz version 2.36.0 (20140111.2315)
 -->
<!-- Title: start_rule Pages: 1 -->
<svg width="390pt" height="104pt"
 viewBox="0.00 0.00 390.00 104.00" xmlns="http://www.w3.org/2000/svg" xmlns:xlink="http://www.w3.org/1999/xlink">
<g id="graph0" class="graph" transform="scale(1 1) rotate(0) translate(4 100)">
<title>start_rule</title>
<polygon fill="white" stroke="none" points="-4,4 -4,-100 386,-100 386,4 -4,4"/>
<!-- Node1 -->
<g id="node1" class="node"><title>Node1</title>
<polygon fill="#bfbfbf" stroke="black" points="0.5,-38.5 0.5,-57.5 57.5,-57.5 57.5,-38.5 0.5,-38.5"/>
<text text-anchor="middle" x="29" y="-45.5" font-family="Helvetica,sans-Serif" font-size="10.00">start_rule</text>
</g>
<!-- Node2 -->
<g id="node2" class="node"><title>Node2</title>
<g id="a_node2"><a xlink:href="reader_8c.html#a34bf32e056d8bc6f1fb490f4efc7ce90" target="_top" xlink:title="add_symbol">
<polygon fill="white" stroke="black" points="105.5,-76.5 105.5,-95.5 174.5,-95.5 174.5,-76.5 105.5,-76.5"/>
<text text-anchor="middle" x="140" y="-83.5" font-family="Helvetica,sans-Serif" font-size="10.00">add_symbol</text>
</a>
</g>
</g>
<!-- Node1&#45;&gt;Node2 -->
<g id="edge1" class="edge"><title>Node1&#45;&gt;Node2</title>
<path fill="none" stroke="midnightblue" d="M67.2085,-60.9718C81.7303,-66.0344 98.0794,-71.7341 111.503,-76.4141"/>
<polygon fill="midnightblue" stroke="midnightblue" points="68.1001,-57.5761 57.5053,-57.589 65.7957,-64.1859 68.1001,-57.5761"/>
</g>
<!-- Node3 -->
<g id="node3" class="node"><title>Node3</title>
<g id="a_node3"><a xlink:href="reader_8c.html#af6d4fba61bb761ca9fe92fef83e8ee94" target="_top" xlink:title="read_grammar">
<polygon fill="white" stroke="black" points="222.5,-38.5 222.5,-57.5 301.5,-57.5 301.5,-38.5 222.5,-38.5"/>
<text text-anchor="middle" x="262" y="-45.5" font-family="Helvetica,sans-Serif" font-size="10.00">read_grammar</text>
</a>
</g>
</g>
<!-- Node1&#45;&gt;Node3 -->
<g id="edge6" class="edge"><title>Node1&#45;&gt;Node3</title>
<path fill="none" stroke="midnightblue" d="M68.1067,-48C110.726,-48 179.386,-48 222.261,-48"/>
<polygon fill="midnightblue" stroke="midnightblue" points="67.864,-44.5001 57.864,-48 67.864,-51.5001 67.864,-44.5001"/>
</g>
<!-- Node5 -->
<g id="node5" class="node"><title>Node5</title>
<g id="a_node5"><a xlink:href="reader_8c.html#ac910677446efcb4dbebc9a6d3d90a9ff" target="_top" xlink:title="advance_to_start">
<polygon fill="white" stroke="black" points="94,-0.5 94,-19.5 186,-19.5 186,-0.5 94,-0.5"/>
<text text-anchor="middle" x="140" y="-7.5" font-family="Helvetica,sans-Serif" font-size="10.00">advance_to_start</text>
</a>
</g>
</g>
<!-- Node1&#45;&gt;Node5 -->
<g id="edge4" class="edge"><title>Node1&#45;&gt;Node5</title>
<path fill="none" stroke="midnightblue" d="M67.2085,-35.0282C81.7303,-29.9656 98.0794,-24.2659 111.503,-19.5859"/>
<polygon fill="midnightblue" stroke="midnightblue" points="65.7957,-31.8141 57.5053,-38.411 68.1001,-38.4239 65.7957,-31.8141"/>
</g>
<!-- Node2&#45;&gt;Node3 -->
<g id="edge2" class="edge"><title>Node2&#45;&gt;Node3</title>
<path fill="none" stroke="midnightblue" d="M181.043,-73.3196C197.257,-68.1852 215.666,-62.3559 230.729,-57.5859"/>
<polygon fill="midnightblue" stroke="midnightblue" points="179.758,-70.0553 171.281,-76.411 181.871,-76.7287 179.758,-70.0553"/>
</g>
<!-- Node4 -->
<g id="node4" class="node"><title>Node4</title>
<g id="a_node4"><a xlink:href="reader_8c.html#a3351a985e2d992eea6ed332cc837ad5b" target="_top" xlink:title="reader">
<polygon fill="white" stroke="red" points="338,-38.5 338,-57.5 382,-57.5 382,-38.5 338,-38.5"/>
<text text-anchor="middle" x="360" y="-45.5" font-family="Helvetica,sans-Serif" font-size="10.00">reader</text>
</a>
</g>
</g>
<!-- Node3&#45;&gt;Node4 -->
<g id="edge3" class="edge"><title>Node3&#45;&gt;Node4</title>
<path fill="none" stroke="midnightblue" d="M311.963,-48C321.035,-48 330.061,-48 337.745,-48"/>
<polygon fill="midnightblue" stroke="midnightblue" points="311.77,-44.5001 301.77,-48 311.77,-51.5001 311.77,-44.5001"/>
</g>
<!-- Node5&#45;&gt;Node3 -->
<g id="edge5" class="edge"><title>Node5&#45;&gt;Node3</title>
<path fill="none" stroke="midnightblue" d="M181.043,-22.6804C197.257,-27.8148 215.666,-33.6441 230.729,-38.4141"/>
<polygon fill="midnightblue" stroke="midnightblue" points="181.871,-19.2713 171.281,-19.589 179.758,-25.9447 181.871,-19.2713"/>
</g>
</g>
</svg>
