<?xml version="1.0" encoding="UTF-8" standalone="no"?>
<!DOCTYPE svg PUBLIC "-//W3C//DTD SVG 1.1//EN"
 "http://www.w3.org/Graphics/SVG/1.1/DTD/svg11.dtd">
<!-- Generated by graphviz version 2.36.0 (20140111.2315)
 -->
<!-- Title: copy_text Pages: 1 -->
<svg width="394pt" height="184pt"
 viewBox="0.00 0.00 394.00 184.28" xmlns="http://www.w3.org/2000/svg" xmlns:xlink="http://www.w3.org/1999/xlink">
<g id="graph0" class="graph" transform="scale(1 1) rotate(0) translate(4 180.279)">
<title>copy_text</title>
<polygon fill="white" stroke="none" points="-4,4 -4,-180.279 390,-180.279 390,4 -4,4"/>
<!-- Node1 -->
<g id="node1" class="node"><title>Node1</title>
<polygon fill="#bfbfbf" stroke="black" points="0.5,-80.7795 0.5,-99.7795 59.5,-99.7795 59.5,-80.7795 0.5,-80.7795"/>
<text text-anchor="middle" x="30" y="-87.7795" font-family="Helvetica,sans-Serif" font-size="10.00">copy_text</text>
</g>
<!-- Node2 -->
<g id="node2" class="node"><title>Node2</title>
<g id="a_node2"><a xlink:href="reader_8c.html#a416a4e795e86e5666f1a734793f9636e" target="_top" xlink:title="dup_line">
<polygon fill="white" stroke="black" points="129.5,-118.779 129.5,-137.779 182.5,-137.779 182.5,-118.779 129.5,-118.779"/>
<text text-anchor="middle" x="156" y="-125.779" font-family="Helvetica,sans-Serif" font-size="10.00">dup_line</text>
</a>
</g>
</g>
<!-- Node1&#45;&gt;Node2 -->
<g id="edge1" class="edge"><title>Node1&#45;&gt;Node2</title>
<path fill="none" stroke="midnightblue" d="M59.7598,-99.0929C77.5895,-104.557 100.626,-111.617 119.577,-117.424"/>
<polygon fill="midnightblue" stroke="midnightblue" points="118.758,-120.834 129.345,-120.417 120.809,-114.141 118.758,-120.834"/>
</g>
<!-- Node5 -->
<g id="node5" class="node"><title>Node5</title>
<g id="a_node5"><a xlink:href="reader_8c.html#a204317aa3b6d154f1abff12df35953df" target="_top" xlink:title="get_line">
<polygon fill="white" stroke="black" points="131,-156.779 131,-175.779 181,-175.779 181,-156.779 131,-156.779"/>
<text text-anchor="middle" x="156" y="-163.779" font-family="Helvetica,sans-Serif" font-size="10.00">get_line</text>
</a>
</g>
</g>
<!-- Node1&#45;&gt;Node5 -->
<g id="edge4" class="edge"><title>Node1&#45;&gt;Node5</title>
<path fill="none" stroke="midnightblue" d="M39.7418,-100.113C51.4173,-112.696 73.281,-134.4 96,-147.279 103.738,-151.666 112.63,-155.201 121.123,-157.976"/>
<polygon fill="midnightblue" stroke="midnightblue" points="120.235,-161.364 130.819,-160.891 122.25,-154.66 120.235,-161.364"/>
</g>
<!-- Node6 -->
<g id="node6" class="node"><title>Node6</title>
<g id="a_node6"><a xlink:href="group__eh.html#ga81c4e76cf37319065a21afcaec1b8ab1" target="_top" xlink:title="unterminated_comment">
<polygon fill="white" stroke="black" points="96.5,-80.7795 96.5,-99.7795 215.5,-99.7795 215.5,-80.7795 96.5,-80.7795"/>
<text text-anchor="middle" x="156" y="-87.7795" font-family="Helvetica,sans-Serif" font-size="10.00">unterminated_comment</text>
</a>
</g>
</g>
<!-- Node1&#45;&gt;Node6 -->
<g id="edge6" class="edge"><title>Node1&#45;&gt;Node6</title>
<path fill="none" stroke="midnightblue" d="M59.7598,-90.2795C67.7459,-90.2795 76.7768,-90.2795 86.0172,-90.2795"/>
<polygon fill="midnightblue" stroke="midnightblue" points="86.0868,-93.7795 96.0868,-90.2795 86.0867,-86.7795 86.0868,-93.7795"/>
</g>
<!-- Node8 -->
<g id="node8" class="node"><title>Node8</title>
<g id="a_node8"><a xlink:href="group__eh.html#ga1be74faa1a912de2fd380aa9a4de6eb2" target="_top" xlink:title="unterminated_string">
<polygon fill="white" stroke="black" points="105,-42.7795 105,-61.7795 207,-61.7795 207,-42.7795 105,-42.7795"/>
<text text-anchor="middle" x="156" y="-49.7795" font-family="Helvetica,sans-Serif" font-size="10.00">unterminated_string</text>
</a>
</g>
</g>
<!-- Node1&#45;&gt;Node8 -->
<g id="edge9" class="edge"><title>Node1&#45;&gt;Node8</title>
<path fill="none" stroke="midnightblue" d="M59.7598,-81.466C75.9378,-76.5082 96.4029,-70.2366 114.213,-64.7788"/>
<polygon fill="midnightblue" stroke="midnightblue" points="115.254,-68.1204 123.79,-61.8439 113.203,-61.4276 115.254,-68.1204"/>
</g>
<!-- Node9 -->
<g id="node9" class="node"><title>Node9</title>
<g id="a_node9"><a xlink:href="group__eh.html#ga60e968f02480372518e9cce97e70ef5b" target="_top" xlink:title="unterminated_text">
<polygon fill="white" stroke="black" points="108.5,-4.77945 108.5,-23.7795 203.5,-23.7795 203.5,-4.77945 108.5,-4.77945"/>
<text text-anchor="middle" x="156" y="-11.7795" font-family="Helvetica,sans-Serif" font-size="10.00">unterminated_text</text>
</a>
</g>
</g>
<!-- Node1&#45;&gt;Node9 -->
<g id="edge12" class="edge"><title>Node1&#45;&gt;Node9</title>
<path fill="none" stroke="midnightblue" d="M39.7418,-80.4457C51.4173,-67.863 73.281,-46.159 96,-33.2795 99.7387,-31.1599 103.747,-29.2393 107.849,-27.5071"/>
<polygon fill="midnightblue" stroke="midnightblue" points="109.427,-30.6508 117.511,-23.8024 106.92,-24.1149 109.427,-30.6508"/>
</g>
<!-- Node3 -->
<g id="node3" class="node"><title>Node3</title>
<g id="a_node3"><a xlink:href="group__eh.html#ga03b3d711852aa32c4076f12ea7bb93a4" target="_top" xlink:title="no_space">
<polygon fill="white" stroke="black" points="252.5,-137.779 252.5,-156.779 311.5,-156.779 311.5,-137.779 252.5,-137.779"/>
<text text-anchor="middle" x="282" y="-144.779" font-family="Helvetica,sans-Serif" font-size="10.00">no_space</text>
</a>
</g>
</g>
<!-- Node2&#45;&gt;Node3 -->
<g id="edge2" class="edge"><title>Node2&#45;&gt;Node3</title>
<path fill="none" stroke="midnightblue" d="M182.693,-132.216C199.89,-134.851 222.842,-138.368 242.244,-141.341"/>
<polygon fill="midnightblue" stroke="midnightblue" points="241.891,-144.828 252.306,-142.883 242.952,-137.909 241.891,-144.828"/>
</g>
<!-- Node4 -->
<g id="node4" class="node"><title>Node4</title>
<g id="a_node4"><a xlink:href="group__eh.html#ga67b6b9fd02aac96bef4297b1e6a1789a" target="_top" xlink:title="Shutdown function. ">
<polygon fill="white" stroke="black" points="348,-80.7795 348,-99.7795 386,-99.7795 386,-80.7795 348,-80.7795"/>
<text text-anchor="middle" x="367" y="-87.7795" font-family="Helvetica,sans-Serif" font-size="10.00">done</text>
</a>
</g>
</g>
<!-- Node3&#45;&gt;Node4 -->
<g id="edge3" class="edge"><title>Node3&#45;&gt;Node4</title>
<path fill="none" stroke="midnightblue" d="M297.08,-137.61C309.796,-128.878 328.729,-115.875 343.535,-105.707"/>
<polygon fill="midnightblue" stroke="midnightblue" points="345.866,-108.352 352.128,-99.8059 341.903,-102.582 345.866,-108.352"/>
</g>
<!-- Node5&#45;&gt;Node3 -->
<g id="edge5" class="edge"><title>Node5&#45;&gt;Node3</title>
<path fill="none" stroke="midnightblue" d="M181.203,-162.571C198.488,-159.922 222.112,-156.303 242.036,-153.25"/>
<polygon fill="midnightblue" stroke="midnightblue" points="242.71,-156.687 252.064,-151.713 241.65,-149.768 242.71,-156.687"/>
</g>
<!-- Node6&#45;&gt;Node4 -->
<g id="edge8" class="edge"><title>Node6&#45;&gt;Node4</title>
<path fill="none" stroke="midnightblue" d="M215.774,-90.2795C255.519,-90.2795 306.257,-90.2795 337.422,-90.2795"/>
<polygon fill="midnightblue" stroke="midnightblue" points="337.579,-93.7795 347.579,-90.2795 337.579,-86.7795 337.579,-93.7795"/>
</g>
<!-- Node7 -->
<g id="node7" class="node"><title>Node7</title>
<g id="a_node7"><a xlink:href="group__eh.html#ga3c01cc3498c6cb3655588b53da0e8f7e" target="_top" xlink:title="print_pos">
<polygon fill="white" stroke="black" points="254,-23.7795 254,-42.7795 310,-42.7795 310,-23.7795 254,-23.7795"/>
<text text-anchor="middle" x="282" y="-30.7795" font-family="Helvetica,sans-Serif" font-size="10.00">print_pos</text>
</a>
</g>
</g>
<!-- Node6&#45;&gt;Node7 -->
<g id="edge7" class="edge"><title>Node6&#45;&gt;Node7</title>
<path fill="none" stroke="midnightblue" d="M190.862,-80.7681C199.213,-78.044 208.042,-74.836 216,-71.2795 230.455,-64.8192 245.783,-55.9653 257.921,-48.4291"/>
<polygon fill="midnightblue" stroke="midnightblue" points="259.941,-51.293 266.515,-42.9844 256.194,-45.3799 259.941,-51.293"/>
</g>
<!-- Node8&#45;&gt;Node4 -->
<g id="edge11" class="edge"><title>Node8&#45;&gt;Node4</title>
<path fill="none" stroke="midnightblue" d="M207.061,-61.3814C248.033,-68.831 304.497,-79.0971 337.93,-85.1757"/>
<polygon fill="midnightblue" stroke="midnightblue" points="337.461,-88.6479 347.926,-86.9933 338.714,-81.7608 337.461,-88.6479"/>
</g>
<!-- Node8&#45;&gt;Node7 -->
<g id="edge10" class="edge"><title>Node8&#45;&gt;Node7</title>
<path fill="none" stroke="midnightblue" d="M207.078,-44.6062C219.326,-42.7295 232.219,-40.7539 243.747,-38.9876"/>
<polygon fill="midnightblue" stroke="midnightblue" points="244.537,-42.4074 253.892,-37.4331 243.477,-35.4882 244.537,-42.4074"/>
</g>
<!-- Node9&#45;&gt;Node4 -->
<g id="edge14" class="edge"><title>Node9&#45;&gt;Node4</title>
<path fill="none" stroke="midnightblue" d="M196.268,-4.75647C229.082,1.05314 276.132,4.23538 312,-14.2795 334.951,-26.1265 350.271,-52.7327 358.556,-71.0958"/>
<polygon fill="midnightblue" stroke="midnightblue" points="355.426,-72.6836 362.532,-80.5424 361.878,-69.9678 355.426,-72.6836"/>
</g>
<!-- Node9&#45;&gt;Node7 -->
<g id="edge13" class="edge"><title>Node9&#45;&gt;Node7</title>
<path fill="none" stroke="midnightblue" d="M203.526,-21.4084C216.733,-23.4321 230.942,-25.6092 243.538,-27.5394"/>
<polygon fill="midnightblue" stroke="midnightblue" points="243.269,-31.0388 253.683,-29.0938 244.329,-24.1195 243.269,-31.0388"/>
</g>
</g>
</svg>
