<?xml version="1.0" encoding="UTF-8" standalone="no"?>
<!DOCTYPE svg PUBLIC "-//W3C//DTD SVG 1.1//EN"
 "http://www.w3.org/Graphics/SVG/1.1/DTD/svg11.dtd">
<!-- Generated by graphviz version 2.36.0 (20140111.2315)
 -->
<!-- Title: get_line Pages: 1 -->
<!--zoomable 516 -->
<svg id="main" version="1.1" xmlns="http://www.w3.org/2000/svg" xmlns:xlink="http://www.w3.org/1999/xlink" xml:space="preserve" onload="init(evt)">
<style type="text/css"><![CDATA[
.edge:hover path { stroke: red; }
.edge:hover polygon { stroke: red; fill: red; }
]]></style>
<script type="text/javascript"><![CDATA[
var edges = document.getElementsByTagName('g');
if (edges && edges.length) {
  for (var i=0;i<edges.length;i++) {
    if (edges[i].id.substr(0,4)=='edge') {
      edges[i].setAttribute('class','edge');
    }
  }
}
]]></script>
        <defs>
                <circle id="rim" cx="0" cy="0" r="7"/>
                <circle id="rim2" cx="0" cy="0" r="3.5"/>
                <g id="zoomPlus">
                        <use xlink:href="#rim" fill="#404040">
                                <set attributeName="fill" to="#808080" begin="zoomplus.mouseover" end="zoomplus.mouseout"/>
                        </use>
                        <path d="M-4,0h8M0,-4v8" fill="none" stroke="white" stroke-width="1.5" pointer-events="none"/>
                </g>
                <g id="zoomMin">
                        <use xlink:href="#rim" fill="#404040">
                                <set attributeName="fill" to="#808080" begin="zoomminus.mouseover" end="zoomminus.mouseout"/>
                        </use>
                        <path d="M-4,0h8" fill="none" stroke="white" stroke-width="1.5" pointer-events="none"/>
                </g>
                <g id="dirArrow">
                        <path fill="none" stroke="white" stroke-width="1.5" d="M0,-3.0v7 M-2.5,-0.5L0,-3.0L2.5,-0.5"/>
                </g>
               <g id="resetDef">
                       <use xlink:href="#rim2" fill="#404040">
                               <set attributeName="fill" to="#808080" begin="reset.mouseover" end="reset.mouseout"/>
                       </use>
               </g>
        </defs>

<script type="text/javascript">
var viewWidth = 724;
var viewHeight = 516;
var sectionId = 'dynsection-33';
</script>
<script xlink:href="svgpan.js"/>
<svg id="graph" class="graph">
<g id="viewport">
<title>get_line</title>
<polygon fill="white" stroke="none" points="-4,4 -4,-512 720,-512 720,4 -4,4"/>
<!-- Node1 -->
<g id="node1" class="node"><title>Node1</title>
<polygon fill="#bfbfbf" stroke="black" points="0,-227.5 0,-246.5 50,-246.5 50,-227.5 0,-227.5"/>
<text text-anchor="middle" x="25" y="-234.5" font-family="Helvetica,sans-Serif" font-size="10.00">get_line</text>
</g>
<!-- Node2 -->
<g id="node2" class="node"><title>Node2</title>
<g id="a_node2"><a xlink:href="reader_8c.html#abb83807b1bba8d346650d3e4ae4e7425" target="_top" xlink:title="copy_action">
<polygon fill="white" stroke="black" points="425.5,-76.5 425.5,-95.5 494.5,-95.5 494.5,-76.5 425.5,-76.5"/>
<text text-anchor="middle" x="460" y="-83.5" font-family="Helvetica,sans-Serif" font-size="10.00">copy_action</text>
</a>
</g>
</g>
<!-- Node1&#45;&gt;Node2 -->
<g id="edge1" class="edge"><title>Node1&#45;&gt;Node2</title>
<path fill="none" stroke="midnightblue" d="M47.9224,-221.528C59.0086,-214.12 72.868,-205.476 86,-199 178.564,-153.353 204.834,-147.595 304,-119 345.24,-107.108 393.776,-97.4554 425.402,-91.7286"/>
<polygon fill="midnightblue" stroke="midnightblue" points="45.6264,-218.858 39.339,-227.385 49.5719,-224.64 45.6264,-218.858"/>
</g>
<!-- Node5 -->
<g id="node5" class="node"><title>Node5</title>
<g id="a_node5"><a xlink:href="reader_8c.html#a5719a5118a10bc1e96786f599eeb516f" target="_top" xlink:title="copy_text">
<polygon fill="white" stroke="black" points="311.5,-0.5 311.5,-19.5 370.5,-19.5 370.5,-0.5 311.5,-0.5"/>
<text text-anchor="middle" x="341" y="-7.5" font-family="Helvetica,sans-Serif" font-size="10.00">copy_text</text>
</a>
</g>
</g>
<!-- Node1&#45;&gt;Node5 -->
<g id="edge4" class="edge"><title>Node1&#45;&gt;Node5</title>
<path fill="none" stroke="midnightblue" d="M27.3312,-217.225C30.7667,-182.493 42.9694,-110.565 86,-72 150.395,-14.2884 259.603,-8.13568 311.272,-8.76526"/>
<polygon fill="midnightblue" stroke="midnightblue" points="23.8195,-217.218 26.4703,-227.476 30.795,-217.804 23.8195,-217.218"/>
</g>
<!-- Node8 -->
<g id="node8" class="node"><title>Node8</title>
<g id="a_node8"><a xlink:href="reader_8c.html#a7ee403ea2ff911fb368d38ab6ef937c3" target="_top" xlink:title="copy_union">
<polygon fill="white" stroke="black" points="202,-488.5 202,-507.5 268,-507.5 268,-488.5 202,-488.5"/>
<text text-anchor="middle" x="235" y="-495.5" font-family="Helvetica,sans-Serif" font-size="10.00">copy_union</text>
</a>
</g>
</g>
<!-- Node1&#45;&gt;Node8 -->
<g id="edge9" class="edge"><title>Node1&#45;&gt;Node8</title>
<path fill="none" stroke="midnightblue" d="M33.4691,-256.306C43.3908,-280.637 62.4394,-323.123 86,-355 128.261,-412.178 194.25,-466.872 221.541,-488.393"/>
<polygon fill="midnightblue" stroke="midnightblue" points="36.631,-254.786 29.6789,-246.791 30.1279,-257.377 36.631,-254.786"/>
</g>
<!-- Node9 -->
<g id="node9" class="node"><title>Node9</title>
<g id="a_node9"><a xlink:href="reader_8c.html#acfb64f081b0d9c4536e90c5352ce9c2c" target="_top" xlink:title="get_literal">
<polygon fill="white" stroke="black" points="311.5,-380.5 311.5,-399.5 370.5,-399.5 370.5,-380.5 311.5,-380.5"/>
<text text-anchor="middle" x="341" y="-387.5" font-family="Helvetica,sans-Serif" font-size="10.00">get_literal</text>
</a>
</g>
</g>
<!-- Node1&#45;&gt;Node9 -->
<g id="edge11" class="edge"><title>Node1&#45;&gt;Node9</title>
<path fill="none" stroke="midnightblue" d="M54.6328,-250.952C117.596,-281.631 266.737,-354.302 320.365,-380.433"/>
<polygon fill="midnightblue" stroke="midnightblue" points="56.1648,-247.805 45.6421,-246.571 53.0986,-254.098 56.1648,-247.805"/>
</g>
<!-- Node14 -->
<g id="node14" class="node"><title>Node14</title>
<g id="a_node14"><a xlink:href="reader_8c.html#a11446424d65669df0f3a9e3b1cca57fa" target="_top" xlink:title="nextc">
<polygon fill="white" stroke="black" points="214.5,-234.5 214.5,-253.5 255.5,-253.5 255.5,-234.5 214.5,-234.5"/>
<text text-anchor="middle" x="235" y="-241.5" font-family="Helvetica,sans-Serif" font-size="10.00">nextc</text>
</a>
</g>
</g>
<!-- Node1&#45;&gt;Node14 -->
<g id="edge20" class="edge"><title>Node1&#45;&gt;Node14</title>
<path fill="none" stroke="midnightblue" d="M60.4696,-238.16C104.39,-239.638 178.838,-242.144 214.206,-243.334"/>
<polygon fill="midnightblue" stroke="midnightblue" points="60.3794,-234.655 50.2673,-237.817 60.1439,-241.651 60.3794,-234.655"/>
</g>
<!-- Node18 -->
<g id="node18" class="node"><title>Node18</title>
<g id="a_node18"><a xlink:href="reader_8c.html#ac812a775973bb1eb24e86256b2de6b8b" target="_top" xlink:title="skip_comment">
<polygon fill="white" stroke="black" points="86,-208.5 86,-227.5 166,-227.5 166,-208.5 86,-208.5"/>
<text text-anchor="middle" x="126" y="-215.5" font-family="Helvetica,sans-Serif" font-size="10.00">skip_comment</text>
</a>
</g>
</g>
<!-- Node1&#45;&gt;Node18 -->
<g id="edge37" class="edge"><title>Node1&#45;&gt;Node18</title>
<path fill="none" stroke="midnightblue" d="M60.2993,-230.417C68.5869,-228.827 77.5042,-227.115 85.9903,-225.487"/>
<polygon fill="midnightblue" stroke="midnightblue" points="59.3792,-227.03 50.2181,-232.352 60.6986,-233.904 59.3792,-227.03"/>
</g>
<!-- Node3 -->
<g id="node3" class="node"><title>Node3</title>
<g id="a_node3"><a xlink:href="reader_8c.html#af6d4fba61bb761ca9fe92fef83e8ee94" target="_top" xlink:title="read_grammar">
<polygon fill="white" stroke="black" points="549.5,-152.5 549.5,-171.5 628.5,-171.5 628.5,-152.5 549.5,-152.5"/>
<text text-anchor="middle" x="589" y="-159.5" font-family="Helvetica,sans-Serif" font-size="10.00">read_grammar</text>
</a>
</g>
</g>
<!-- Node2&#45;&gt;Node3 -->
<g id="edge2" class="edge"><title>Node2&#45;&gt;Node3</title>
<path fill="none" stroke="midnightblue" d="M489.153,-100.596C494.776,-103.629 500.609,-106.859 506,-110 530.179,-124.087 557.479,-141.77 573.687,-152.461"/>
<polygon fill="midnightblue" stroke="midnightblue" points="490.476,-97.3355 480.003,-95.7303 487.189,-103.516 490.476,-97.3355"/>
</g>
<!-- Node4 -->
<g id="node4" class="node"><title>Node4</title>
<g id="a_node4"><a xlink:href="reader_8c.html#a3351a985e2d992eea6ed332cc837ad5b" target="_top" xlink:title="reader">
<polygon fill="white" stroke="red" points="672,-230.5 672,-249.5 716,-249.5 716,-230.5 672,-230.5"/>
<text text-anchor="middle" x="694" y="-237.5" font-family="Helvetica,sans-Serif" font-size="10.00">reader</text>
</a>
</g>
</g>
<!-- Node3&#45;&gt;Node4 -->
<g id="edge3" class="edge"><title>Node3&#45;&gt;Node4</title>
<path fill="none" stroke="midnightblue" d="M610.828,-177.773C631.623,-193.52 662.914,-217.216 680.267,-230.357"/>
<polygon fill="midnightblue" stroke="midnightblue" points="612.715,-174.811 602.63,-171.564 608.489,-180.392 612.715,-174.811"/>
</g>
<!-- Node6 -->
<g id="node6" class="node"><title>Node6</title>
<g id="a_node6"><a xlink:href="reader_8c.html#ac910677446efcb4dbebc9a6d3d90a9ff" target="_top" xlink:title="advance_to_start">
<polygon fill="white" stroke="black" points="414,-38.5 414,-57.5 506,-57.5 506,-38.5 414,-38.5"/>
<text text-anchor="middle" x="460" y="-45.5" font-family="Helvetica,sans-Serif" font-size="10.00">advance_to_start</text>
</a>
</g>
</g>
<!-- Node5&#45;&gt;Node6 -->
<g id="edge5" class="edge"><title>Node5&#45;&gt;Node6</title>
<path fill="none" stroke="midnightblue" d="M380.23,-22.4166C396.222,-27.6105 414.52,-33.5534 429.452,-38.4033"/>
<polygon fill="midnightblue" stroke="midnightblue" points="381.214,-19.0561 370.621,-19.2958 379.051,-25.7138 381.214,-19.0561"/>
</g>
<!-- Node7 -->
<g id="node7" class="node"><title>Node7</title>
<g id="a_node7"><a xlink:href="reader_8c.html#a07addfee5457e48ddb310769dd0e39af" target="_top" xlink:title="read_declarations">
<polygon fill="white" stroke="black" points="542.5,-270.5 542.5,-289.5 635.5,-289.5 635.5,-270.5 542.5,-270.5"/>
<text text-anchor="middle" x="589" y="-277.5" font-family="Helvetica,sans-Serif" font-size="10.00">read_declarations</text>
</a>
</g>
</g>
<!-- Node5&#45;&gt;Node7 -->
<g id="edge7" class="edge"><title>Node5&#45;&gt;Node7</title>
<path fill="none" stroke="midnightblue" d="M380.882,-2.98465C417.678,1.27648 472.175,1.07529 506,-29 557.882,-75.1307 519.257,-115.407 542,-181 553.797,-215.022 573.421,-253.076 582.756,-270.436"/>
<polygon fill="midnightblue" stroke="midnightblue" points="379.995,0.42853 370.54,-4.35253 380.913,-6.51104 379.995,0.42853"/>
</g>
<!-- Node6&#45;&gt;Node3 -->
<g id="edge6" class="edge"><title>Node6&#45;&gt;Node3</title>
<path fill="none" stroke="midnightblue" d="M498.413,-62.1671C501.061,-63.6584 503.622,-65.2691 506,-67 540.175,-91.8714 569.645,-133.604 581.914,-152.359"/>
<polygon fill="midnightblue" stroke="midnightblue" points="499.709,-58.902 489.2,-57.5559 496.576,-65.1617 499.709,-58.902"/>
</g>
<!-- Node7&#45;&gt;Node4 -->
<g id="edge8" class="edge"><title>Node7&#45;&gt;Node4</title>
<path fill="none" stroke="midnightblue" d="M624.071,-266.768C639.777,-260.669 657.933,-253.618 671.668,-248.284"/>
<polygon fill="midnightblue" stroke="midnightblue" points="622.726,-263.536 614.671,-270.419 625.26,-270.061 622.726,-263.536"/>
</g>
<!-- Node8&#45;&gt;Node7 -->
<g id="edge10" class="edge"><title>Node8&#45;&gt;Node7</title>
<path fill="none" stroke="midnightblue" d="M278.385,-498.857C336.924,-497.725 442.47,-487.015 506,-429 551.133,-387.785 576.891,-315.803 585.098,-289.757"/>
<polygon fill="midnightblue" stroke="midnightblue" points="278.33,-495.357 268.369,-498.965 278.406,-502.357 278.33,-495.357"/>
</g>
<!-- Node10 -->
<g id="node10" class="node"><title>Node10</title>
<g id="a_node10"><a xlink:href="reader_8c.html#a0b749a023a959fabb8ed2778b46ec217" target="_top" xlink:title="declare_tokens">
<polygon fill="white" stroke="black" points="418.5,-361.5 418.5,-380.5 501.5,-380.5 501.5,-361.5 418.5,-361.5"/>
<text text-anchor="middle" x="460" y="-368.5" font-family="Helvetica,sans-Serif" font-size="10.00">declare_tokens</text>
</a>
</g>
</g>
<!-- Node9&#45;&gt;Node10 -->
<g id="edge12" class="edge"><title>Node9&#45;&gt;Node10</title>
<path fill="none" stroke="midnightblue" d="M380.814,-383.697C392.849,-381.742 406.143,-379.584 418.302,-377.609"/>
<polygon fill="midnightblue" stroke="midnightblue" points="379.931,-380.294 370.621,-385.352 381.053,-387.204 379.931,-380.294"/>
</g>
<!-- Node11 -->
<g id="node11" class="node"><title>Node11</title>
<g id="a_node11"><a xlink:href="reader_8c.html#a860dbc8da656fd831b19668da20207c7" target="_top" xlink:title="declare_types">
<polygon fill="white" stroke="black" points="421.5,-313.5 421.5,-332.5 498.5,-332.5 498.5,-313.5 421.5,-313.5"/>
<text text-anchor="middle" x="460" y="-320.5" font-family="Helvetica,sans-Serif" font-size="10.00">declare_types</text>
</a>
</g>
</g>
<!-- Node9&#45;&gt;Node11 -->
<g id="edge14" class="edge"><title>Node9&#45;&gt;Node11</title>
<path fill="none" stroke="midnightblue" d="M367.522,-375.385C390.213,-362.391 422.733,-343.768 442.268,-332.582"/>
<polygon fill="midnightblue" stroke="midnightblue" points="365.702,-372.394 358.763,-380.401 369.18,-378.468 365.702,-372.394"/>
</g>
<!-- Node12 -->
<g id="node12" class="node"><title>Node12</title>
<g id="a_node12"><a xlink:href="reader_8c.html#a34bf32e056d8bc6f1fb490f4efc7ce90" target="_top" xlink:title="add_symbol">
<polygon fill="white" stroke="black" points="425.5,-190.5 425.5,-209.5 494.5,-209.5 494.5,-190.5 425.5,-190.5"/>
<text text-anchor="middle" x="460" y="-197.5" font-family="Helvetica,sans-Serif" font-size="10.00">add_symbol</text>
</a>
</g>
</g>
<!-- Node9&#45;&gt;Node12 -->
<g id="edge16" class="edge"><title>Node9&#45;&gt;Node12</title>
<path fill="none" stroke="midnightblue" d="M354.301,-371.777C361.543,-360.753 370.685,-346.3 378,-333 396.012,-300.251 394.295,-288.759 414,-257 425.034,-239.216 440.68,-220.529 450.317,-209.587"/>
<polygon fill="midnightblue" stroke="midnightblue" points="351.37,-369.865 348.748,-380.131 357.199,-373.741 351.37,-369.865"/>
</g>
<!-- Node13 -->
<g id="node13" class="node"><title>Node13</title>
<g id="a_node13"><a xlink:href="reader_8c.html#aae3985d515e47c03afc20f92c0292531" target="_top" xlink:title="mark_symbol">
<polygon fill="white" stroke="black" points="422.5,-266.5 422.5,-285.5 497.5,-285.5 497.5,-266.5 422.5,-266.5"/>
<text text-anchor="middle" x="460" y="-273.5" font-family="Helvetica,sans-Serif" font-size="10.00">mark_symbol</text>
</a>
</g>
</g>
<!-- Node9&#45;&gt;Node13 -->
<g id="edge18" class="edge"><title>Node9&#45;&gt;Node13</title>
<path fill="none" stroke="midnightblue" d="M354.439,-371.989C367.766,-353.517 390.231,-324.646 414,-304 422.058,-297.001 432.053,-290.595 440.575,-285.683"/>
<polygon fill="midnightblue" stroke="midnightblue" points="351.426,-370.187 348.504,-380.371 357.139,-374.231 351.426,-370.187"/>
</g>
<!-- Node10&#45;&gt;Node7 -->
<g id="edge13" class="edge"><title>Node10&#45;&gt;Node7</title>
<path fill="none" stroke="midnightblue" d="M485.363,-355.771C492.115,-351.423 499.401,-346.612 506,-342 531.455,-324.212 560.189,-301.962 575.985,-289.533"/>
<polygon fill="midnightblue" stroke="midnightblue" points="483.156,-353.026 476.601,-361.35 486.916,-358.931 483.156,-353.026"/>
</g>
<!-- Node11&#45;&gt;Node7 -->
<g id="edge15" class="edge"><title>Node11&#45;&gt;Node7</title>
<path fill="none" stroke="midnightblue" d="M498.741,-310.222C518.35,-303.582 541.905,-295.607 559.893,-289.516"/>
<polygon fill="midnightblue" stroke="midnightblue" points="497.535,-306.935 489.185,-313.457 499.78,-313.565 497.535,-306.935"/>
</g>
<!-- Node12&#45;&gt;Node3 -->
<g id="edge17" class="edge"><title>Node12&#45;&gt;Node3</title>
<path fill="none" stroke="midnightblue" d="M502.894,-187.465C520.171,-182.295 539.871,-176.401 555.963,-171.586"/>
<polygon fill="midnightblue" stroke="midnightblue" points="501.624,-184.191 493.047,-190.411 503.631,-190.897 501.624,-184.191"/>
</g>
<!-- Node13&#45;&gt;Node3 -->
<g id="edge19" class="edge"><title>Node13&#45;&gt;Node3</title>
<path fill="none" stroke="midnightblue" d="M479.402,-259.481C506.292,-235.344 555.478,-191.193 577.199,-171.695"/>
<polygon fill="midnightblue" stroke="midnightblue" points="476.932,-256.996 471.828,-266.28 481.608,-262.205 476.932,-256.996"/>
</g>
<!-- Node14&#45;&gt;Node3 -->
<g id="edge36" class="edge"><title>Node14&#45;&gt;Node3</title>
<path fill="none" stroke="midnightblue" d="M242.432,-224.961C251.736,-200.832 271.491,-160.303 304,-143 390.371,-97.0285 513.027,-133.535 564.172,-152.437"/>
<polygon fill="midnightblue" stroke="midnightblue" points="239.104,-223.873 238.981,-234.467 245.683,-226.262 239.104,-223.873"/>
</g>
<!-- Node14&#45;&gt;Node6 -->
<g id="edge33" class="edge"><title>Node14&#45;&gt;Node6</title>
<path fill="none" stroke="midnightblue" d="M241.009,-224.811C249.424,-196.121 269.008,-142.006 304,-110 334.903,-81.7345 380.304,-65.6245 413.989,-56.9531"/>
<polygon fill="midnightblue" stroke="midnightblue" points="237.633,-223.89 238.322,-234.462 244.376,-225.767 237.633,-223.89"/>
</g>
<!-- Node14&#45;&gt;Node7 -->
<g id="edge32" class="edge"><title>Node14&#45;&gt;Node7</title>
<path fill="none" stroke="midnightblue" d="M265.931,-243.254C315.983,-242.493 419.685,-243.001 506,-257 524.244,-259.959 544.221,-265.512 559.89,-270.42"/>
<polygon fill="midnightblue" stroke="midnightblue" points="265.742,-239.757 255.807,-243.437 265.869,-246.755 265.742,-239.757"/>
</g>
<!-- Node14&#45;&gt;Node10 -->
<g id="edge27" class="edge"><title>Node14&#45;&gt;Node10</title>
<path fill="none" stroke="midnightblue" d="M237.397,-263.974C241.133,-300.199 254.748,-376.027 304,-409 349.586,-439.519 417.378,-400.097 445.756,-380.667"/>
<polygon fill="midnightblue" stroke="midnightblue" points="240.857,-263.366 236.499,-253.709 233.884,-263.976 240.857,-263.366"/>
</g>
<!-- Node14&#45;&gt;Node11 -->
<g id="edge28" class="edge"><title>Node14&#45;&gt;Node11</title>
<path fill="none" stroke="midnightblue" d="M243.979,-262.726C254.294,-284.231 274.506,-318.417 304,-333 345.093,-353.318 399.961,-342.241 432.188,-332.506"/>
<polygon fill="midnightblue" stroke="midnightblue" points="247.15,-261.246 239.825,-253.591 240.778,-264.143 247.15,-261.246"/>
</g>
<!-- Node14&#45;&gt;Node12 -->
<g id="edge34" class="edge"><title>Node14&#45;&gt;Node12</title>
<path fill="none" stroke="midnightblue" d="M265.581,-234.373C277.434,-230.759 291.275,-226.843 304,-224 345.324,-214.766 393.635,-207.895 425.198,-203.923"/>
<polygon fill="midnightblue" stroke="midnightblue" points="264.26,-231.119 255.755,-237.436 266.343,-237.801 264.26,-231.119"/>
</g>
<!-- Node14&#45;&gt;Node13 -->
<g id="edge35" class="edge"><title>Node14&#45;&gt;Node13</title>
<path fill="none" stroke="midnightblue" d="M265.847,-248.283C306.366,-254.097 378.731,-264.482 422.455,-270.756"/>
<polygon fill="midnightblue" stroke="midnightblue" points="266.186,-244.796 255.79,-246.84 265.191,-251.725 266.186,-244.796"/>
</g>
<!-- Node15 -->
<g id="node15" class="node"><title>Node15</title>
<g id="a_node15"><a xlink:href="reader_8c.html#a475e9b3fc05ea753aeeb760cea34a511" target="_top" xlink:title="copy_ident">
<polygon fill="white" stroke="black" points="309,-456.5 309,-475.5 373,-475.5 373,-456.5 309,-456.5"/>
<text text-anchor="middle" x="341" y="-463.5" font-family="Helvetica,sans-Serif" font-size="10.00">copy_ident</text>
</a>
</g>
</g>
<!-- Node14&#45;&gt;Node15 -->
<g id="edge21" class="edge"><title>Node14&#45;&gt;Node15</title>
<path fill="none" stroke="midnightblue" d="M238.543,-263.96C244.264,-302.092 261.162,-386.438 304,-442 308.403,-447.711 314.566,-452.514 320.55,-456.286"/>
<polygon fill="midnightblue" stroke="midnightblue" points="241.959,-263.113 237.11,-253.693 235.026,-264.081 241.959,-263.113"/>
</g>
<!-- Node16 -->
<g id="node16" class="node"><title>Node16</title>
<g id="a_node16"><a xlink:href="reader_8c.html#a0d5a7fe7641edf38078ba5e99536772d" target="_top" xlink:title="get_tag">
<polygon fill="white" stroke="black" points="316.5,-304.5 316.5,-323.5 365.5,-323.5 365.5,-304.5 316.5,-304.5"/>
<text text-anchor="middle" x="341" y="-311.5" font-family="Helvetica,sans-Serif" font-size="10.00">get_tag</text>
</a>
</g>
</g>
<!-- Node14&#45;&gt;Node16 -->
<g id="edge23" class="edge"><title>Node14&#45;&gt;Node16</title>
<path fill="none" stroke="midnightblue" d="M258.525,-259.293C271.755,-268.261 288.81,-279.799 304,-290 311.109,-294.774 319.025,-300.055 325.62,-304.446"/>
<polygon fill="midnightblue" stroke="midnightblue" points="260.287,-256.259 250.047,-253.543 256.358,-262.052 260.287,-256.259"/>
</g>
<!-- Node17 -->
<g id="node17" class="node"><title>Node17</title>
<g id="a_node17"><a xlink:href="reader_8c.html#a279a8d9eb5a5ad8dce6c95b2647b9c98" target="_top" xlink:title="declare_start">
<polygon fill="white" stroke="black" points="304.5,-152.5 304.5,-171.5 377.5,-171.5 377.5,-152.5 304.5,-152.5"/>
<text text-anchor="middle" x="341" y="-159.5" font-family="Helvetica,sans-Serif" font-size="10.00">declare_start</text>
</a>
</g>
</g>
<!-- Node14&#45;&gt;Node17 -->
<g id="edge29" class="edge"><title>Node14&#45;&gt;Node17</title>
<path fill="none" stroke="midnightblue" d="M254.333,-227.332C267.747,-215.395 286.572,-199.169 304,-186 310.592,-181.019 318.166,-175.887 324.661,-171.654"/>
<polygon fill="midnightblue" stroke="midnightblue" points="251.846,-224.861 246.741,-234.145 256.521,-230.071 251.846,-224.861"/>
</g>
<!-- Node15&#45;&gt;Node7 -->
<g id="edge22" class="edge"><title>Node15&#45;&gt;Node7</title>
<path fill="none" stroke="midnightblue" d="M382.742,-453.497C417.971,-441.278 468.926,-420.108 506,-390 542.611,-360.268 571.642,-310.725 582.918,-289.802"/>
<polygon fill="midnightblue" stroke="midnightblue" points="381.6,-450.188 373.247,-456.705 383.842,-456.819 381.6,-450.188"/>
</g>
<!-- Node16&#45;&gt;Node2 -->
<g id="edge26" class="edge"><title>Node16&#45;&gt;Node2</title>
<path fill="none" stroke="midnightblue" d="M351.451,-295.582C375.125,-249.449 436.338,-130.161 454.101,-95.5472"/>
<polygon fill="midnightblue" stroke="midnightblue" points="348.33,-293.998 346.878,-304.493 354.558,-297.194 348.33,-293.998"/>
</g>
<!-- Node16&#45;&gt;Node10 -->
<g id="edge24" class="edge"><title>Node16&#45;&gt;Node10</title>
<path fill="none" stroke="midnightblue" d="M370.813,-328.037C392.13,-338.422 420.602,-352.293 439.353,-361.428"/>
<polygon fill="midnightblue" stroke="midnightblue" points="372.106,-324.774 361.583,-323.541 369.04,-331.067 372.106,-324.774"/>
</g>
<!-- Node16&#45;&gt;Node11 -->
<g id="edge25" class="edge"><title>Node16&#45;&gt;Node11</title>
<path fill="none" stroke="midnightblue" d="M375.957,-316.612C390.089,-317.699 406.554,-318.966 421.079,-320.083"/>
<polygon fill="midnightblue" stroke="midnightblue" points="375.916,-313.099 365.677,-315.821 375.379,-320.078 375.916,-313.099"/>
</g>
<!-- Node17&#45;&gt;Node6 -->
<g id="edge30" class="edge"><title>Node17&#45;&gt;Node6</title>
<path fill="none" stroke="midnightblue" d="M352.059,-143.409C364.262,-122.372 386.639,-88.2742 414,-67 418.82,-63.2521 424.489,-60.1095 430.147,-57.5281"/>
<polygon fill="midnightblue" stroke="midnightblue" points="348.899,-141.887 347.047,-152.319 355,-145.319 348.899,-141.887"/>
</g>
<!-- Node17&#45;&gt;Node7 -->
<g id="edge31" class="edge"><title>Node17&#45;&gt;Node7</title>
<path fill="none" stroke="midnightblue" d="M387.807,-158.425C422.305,-157.758 469.699,-161.301 506,-181 544.839,-202.076 572.652,-249.773 583.261,-270.303"/>
<polygon fill="midnightblue" stroke="midnightblue" points="387.424,-154.936 377.541,-158.754 387.648,-161.932 387.424,-154.936"/>
</g>
<!-- Node18&#45;&gt;Node14 -->
<g id="edge38" class="edge"><title>Node18&#45;&gt;Node14</title>
<path fill="none" stroke="midnightblue" d="M175.98,-229.902C189.526,-233.193 203.462,-236.579 214.279,-239.208"/>
<polygon fill="midnightblue" stroke="midnightblue" points="176.779,-226.494 166.235,-227.534 175.126,-233.296 176.779,-226.494"/>
</g>
</g>
</svg>
        <g id="navigator" transform="translate(0 0)" fill="#404254">
                <rect fill="#f2f5e9" fill-opacity="0.5" stroke="#606060" stroke-width=".5" x="0" y="0" width="60" height="60"/>
                <use id="zoomplus" xlink:href="#zoomPlus" x="17" y="9" onmousedown="handleZoom(evt,'in')"/>
                <use id="zoomminus" xlink:href="#zoomMin" x="42" y="9" onmousedown="handleZoom(evt,'out')"/>
                <use id="reset" xlink:href="#resetDef" x="30" y="36" onmousedown="handleReset()"/>
                <g id="arrowUp" xlink:href="#dirArrow" transform="translate(30 24)" onmousedown="handlePan(0,-1)">
                  <use xlink:href="#rim" fill="#404040">
                        <set attributeName="fill" to="#808080" begin="arrowUp.mouseover" end="arrowUp.mouseout"/>
                  </use>
                  <path fill="none" stroke="white" stroke-width="1.5" d="M0,-3.0v7 M-2.5,-0.5L0,-3.0L2.5,-0.5"/>
                </g>
                <g id="arrowRight" xlink:href="#dirArrow" transform="rotate(90) translate(36 -43)" onmousedown="handlePan(1,0)">
                  <use xlink:href="#rim" fill="#404040">
                        <set attributeName="fill" to="#808080" begin="arrowRight.mouseover" end="arrowRight.mouseout"/>
                  </use>
                  <path fill="none" stroke="white" stroke-width="1.5" d="M0,-3.0v7 M-2.5,-0.5L0,-3.0L2.5,-0.5"/>
                </g>
                <g id="arrowDown" xlink:href="#dirArrow" transform="rotate(180) translate(-30 -48)" onmousedown="handlePan(0,1)">
                  <use xlink:href="#rim" fill="#404040">
                        <set attributeName="fill" to="#808080" begin="arrowDown.mouseover" end="arrowDown.mouseout"/>
                  </use>
                  <path fill="none" stroke="white" stroke-width="1.5" d="M0,-3.0v7 M-2.5,-0.5L0,-3.0L2.5,-0.5"/>
                </g>
                <g id="arrowLeft" xlink:href="#dirArrow" transform="rotate(270) translate(-36 17)" onmousedown="handlePan(-1,0)">
                  <use xlink:href="#rim" fill="#404040">
                        <set attributeName="fill" to="#808080" begin="arrowLeft.mouseover" end="arrowLeft.mouseout"/>
                  </use>
                  <path fill="none" stroke="white" stroke-width="1.5" d="M0,-3.0v7 M-2.5,-0.5L0,-3.0L2.5,-0.5"/>
                </g>
        </g>
        <svg viewBox="0 0 15 15" width="100%" height="30px" preserveAspectRatio="xMaxYMin meet">
         <g id="arrow_out" transform="scale(0.3 0.3)">
          <a xlink:href="reader_8c_a204317aa3b6d154f1abff12df35953df_icgraph_org.svg" target="_base">
           <rect id="button" ry="5" rx="5" y="6" x="6" height="38" width="38"
                fill="#f2f5e9" fill-opacity="0.5" stroke="#606060" stroke-width="1.0"/>
           <path id="arrow"
             d="M 11.500037,31.436501 C 11.940474,20.09759 22.043105,11.32322 32.158766,21.979434 L 37.068811,17.246167 C 37.068811,17.246167 37.088388,32 37.088388,32 L 22.160133,31.978069 C 22.160133,31.978069 26.997745,27.140456 26.997745,27.140456 C 18.528582,18.264221 13.291696,25.230495 11.500037,31.436501 z"
             style="fill:#404040;"/>
          </a>
         </g>
        </svg>
</svg>
