<?xml version="1.0" encoding="UTF-8" standalone="no"?>
<!DOCTYPE svg PUBLIC "-//W3C//DTD SVG 1.1//EN"
 "http://www.w3.org/Graphics/SVG/1.1/DTD/svg11.dtd">
<!-- Generated by graphviz version 2.36.0 (20140111.2315)
 -->
<!-- Title: copy_union Pages: 1 -->
<svg width="400pt" height="218pt"
 viewBox="0.00 0.00 400.00 218.00" xmlns="http://www.w3.org/2000/svg" xmlns:xlink="http://www.w3.org/1999/xlink">
<g id="graph0" class="graph" transform="scale(1 1) rotate(0) translate(4 214)">
<title>copy_union</title>
<polygon fill="white" stroke="none" points="-4,4 -4,-214 396,-214 396,4 -4,4"/>
<!-- Node1 -->
<g id="node1" class="node"><title>Node1</title>
<polygon fill="#bfbfbf" stroke="black" points="0,-95.5 0,-114.5 66,-114.5 66,-95.5 0,-95.5"/>
<text text-anchor="middle" x="33" y="-102.5" font-family="Helvetica,sans-Serif" font-size="10.00">copy_union</text>
</g>
<!-- Node2 -->
<g id="node2" class="node"><title>Node2</title>
<g id="a_node2"><a xlink:href="reader_8c.html#a416a4e795e86e5666f1a734793f9636e" target="_top" xlink:title="dup_line">
<polygon fill="white" stroke="black" points="135.5,-190.5 135.5,-209.5 188.5,-209.5 188.5,-190.5 135.5,-190.5"/>
<text text-anchor="middle" x="162" y="-197.5" font-family="Helvetica,sans-Serif" font-size="10.00">dup_line</text>
</a>
</g>
</g>
<!-- Node1&#45;&gt;Node2 -->
<g id="edge1" class="edge"><title>Node1&#45;&gt;Node2</title>
<path fill="none" stroke="midnightblue" d="M40.1065,-114.656C50.7507,-130.723 74.2379,-162.961 102,-181 109.121,-185.627 117.458,-189.207 125.585,-191.945"/>
<polygon fill="midnightblue" stroke="midnightblue" points="124.712,-195.338 135.298,-194.882 126.739,-188.638 124.712,-195.338"/>
</g>
<!-- Node5 -->
<g id="node5" class="node"><title>Node5</title>
<g id="a_node5"><a xlink:href="reader_8c.html#a204317aa3b6d154f1abff12df35953df" target="_top" xlink:title="get_line">
<polygon fill="white" stroke="black" points="137,-152.5 137,-171.5 187,-171.5 187,-152.5 137,-152.5"/>
<text text-anchor="middle" x="162" y="-159.5" font-family="Helvetica,sans-Serif" font-size="10.00">get_line</text>
</a>
</g>
</g>
<!-- Node1&#45;&gt;Node5 -->
<g id="edge4" class="edge"><title>Node1&#45;&gt;Node5</title>
<path fill="none" stroke="midnightblue" d="M49.2176,-114.657C62.7134,-122.937 83.1521,-134.795 102,-143 109.927,-146.451 118.688,-149.606 126.981,-152.313"/>
<polygon fill="midnightblue" stroke="midnightblue" points="126.186,-155.732 136.775,-155.381 128.278,-149.052 126.186,-155.732"/>
</g>
<!-- Node6 -->
<g id="node6" class="node"><title>Node6</title>
<g id="a_node6"><a xlink:href="group__eh.html#gaa9bb2f4291d5b51cee6f8dc4156e0fd5" target="_top" xlink:title="over_unionized">
<polygon fill="white" stroke="black" points="121,-0.5 121,-19.5 203,-19.5 203,-0.5 121,-0.5"/>
<text text-anchor="middle" x="162" y="-7.5" font-family="Helvetica,sans-Serif" font-size="10.00">over_unionized</text>
</a>
</g>
</g>
<!-- Node1&#45;&gt;Node6 -->
<g id="edge6" class="edge"><title>Node1&#45;&gt;Node6</title>
<path fill="none" stroke="midnightblue" d="M40.1065,-95.3442C50.7507,-79.2768 74.2379,-47.0393 102,-29 105.116,-26.9753 108.465,-25.1512 111.927,-23.5103"/>
<polygon fill="midnightblue" stroke="midnightblue" points="113.411,-26.6833 121.274,-19.5829 110.699,-20.2298 113.411,-26.6833"/>
</g>
<!-- Node8 -->
<g id="node8" class="node"><title>Node8</title>
<g id="a_node8"><a xlink:href="group__eh.html#ga81c4e76cf37319065a21afcaec1b8ab1" target="_top" xlink:title="unterminated_comment">
<polygon fill="white" stroke="black" points="102.5,-114.5 102.5,-133.5 221.5,-133.5 221.5,-114.5 102.5,-114.5"/>
<text text-anchor="middle" x="162" y="-121.5" font-family="Helvetica,sans-Serif" font-size="10.00">unterminated_comment</text>
</a>
</g>
</g>
<!-- Node1&#45;&gt;Node8 -->
<g id="edge9" class="edge"><title>Node1&#45;&gt;Node8</title>
<path fill="none" stroke="midnightblue" d="M66.0475,-109.795C74.1419,-111.005 83.1487,-112.353 92.3004,-113.722"/>
<polygon fill="midnightblue" stroke="midnightblue" points="91.8437,-117.193 102.252,-115.211 92.8795,-110.27 91.8437,-117.193"/>
</g>
<!-- Node9 -->
<g id="node9" class="node"><title>Node9</title>
<g id="a_node9"><a xlink:href="group__eh.html#ga1be74faa1a912de2fd380aa9a4de6eb2" target="_top" xlink:title="unterminated_string">
<polygon fill="white" stroke="black" points="111,-76.5 111,-95.5 213,-95.5 213,-76.5 111,-76.5"/>
<text text-anchor="middle" x="162" y="-83.5" font-family="Helvetica,sans-Serif" font-size="10.00">unterminated_string</text>
</a>
</g>
</g>
<!-- Node1&#45;&gt;Node9 -->
<g id="edge12" class="edge"><title>Node1&#45;&gt;Node9</title>
<path fill="none" stroke="midnightblue" d="M66.0475,-100.205C76.6105,-98.6252 88.7269,-96.8125 100.692,-95.0225"/>
<polygon fill="midnightblue" stroke="midnightblue" points="101.297,-98.4709 110.669,-93.5298 100.262,-91.548 101.297,-98.4709"/>
</g>
<!-- Node10 -->
<g id="node10" class="node"><title>Node10</title>
<g id="a_node10"><a xlink:href="group__eh.html#ga81dd9930c4155592c10afdb2b0e34588" target="_top" xlink:title="unterminated_union">
<polygon fill="white" stroke="black" points="111.5,-38.5 111.5,-57.5 212.5,-57.5 212.5,-38.5 111.5,-38.5"/>
<text text-anchor="middle" x="162" y="-45.5" font-family="Helvetica,sans-Serif" font-size="10.00">unterminated_union</text>
</a>
</g>
</g>
<!-- Node1&#45;&gt;Node10 -->
<g id="edge15" class="edge"><title>Node1&#45;&gt;Node10</title>
<path fill="none" stroke="midnightblue" d="M49.2176,-95.3434C62.7134,-87.0628 83.1521,-75.2046 102,-67 107.057,-64.7988 112.453,-62.7174 117.851,-60.7961"/>
<polygon fill="midnightblue" stroke="midnightblue" points="119.153,-64.0504 127.495,-57.5194 116.901,-57.4225 119.153,-64.0504"/>
</g>
<!-- Node3 -->
<g id="node3" class="node"><title>Node3</title>
<g id="a_node3"><a xlink:href="group__eh.html#ga03b3d711852aa32c4076f12ea7bb93a4" target="_top" xlink:title="no_space">
<polygon fill="white" stroke="black" points="258.5,-171.5 258.5,-190.5 317.5,-190.5 317.5,-171.5 258.5,-171.5"/>
<text text-anchor="middle" x="288" y="-178.5" font-family="Helvetica,sans-Serif" font-size="10.00">no_space</text>
</a>
</g>
</g>
<!-- Node2&#45;&gt;Node3 -->
<g id="edge2" class="edge"><title>Node2&#45;&gt;Node3</title>
<path fill="none" stroke="midnightblue" d="M188.693,-196.063C205.89,-193.428 228.842,-189.911 248.244,-186.938"/>
<polygon fill="midnightblue" stroke="midnightblue" points="248.952,-190.371 258.306,-185.397 247.891,-183.452 248.952,-190.371"/>
</g>
<!-- Node4 -->
<g id="node4" class="node"><title>Node4</title>
<g id="a_node4"><a xlink:href="group__eh.html#ga67b6b9fd02aac96bef4297b1e6a1789a" target="_top" xlink:title="Shutdown function. ">
<polygon fill="white" stroke="black" points="354,-95.5 354,-114.5 392,-114.5 392,-95.5 354,-95.5"/>
<text text-anchor="middle" x="373" y="-102.5" font-family="Helvetica,sans-Serif" font-size="10.00">done</text>
</a>
</g>
</g>
<!-- Node3&#45;&gt;Node4 -->
<g id="edge3" class="edge"><title>Node3&#45;&gt;Node4</title>
<path fill="none" stroke="midnightblue" d="M301.022,-171.389C306.307,-167.078 312.541,-161.875 318,-157 330.687,-145.671 344.493,-132.357 354.97,-122.037"/>
<polygon fill="midnightblue" stroke="midnightblue" points="357.621,-124.338 362.259,-114.812 352.693,-119.366 357.621,-124.338"/>
</g>
<!-- Node5&#45;&gt;Node3 -->
<g id="edge5" class="edge"><title>Node5&#45;&gt;Node3</title>
<path fill="none" stroke="midnightblue" d="M187.203,-165.708C204.488,-168.357 228.112,-171.977 248.036,-175.03"/>
<polygon fill="midnightblue" stroke="midnightblue" points="247.65,-178.511 258.064,-176.566 248.71,-171.592 247.65,-178.511"/>
</g>
<!-- Node6&#45;&gt;Node4 -->
<g id="edge8" class="edge"><title>Node6&#45;&gt;Node4</title>
<path fill="none" stroke="midnightblue" d="M203.035,-7.45403C236.097,-7.18924 283.095,-11.198 318,-32 339.282,-44.6832 354.785,-69.3052 363.584,-86.4279"/>
<polygon fill="midnightblue" stroke="midnightblue" points="360.469,-88.0263 367.983,-95.4959 366.767,-84.971 360.469,-88.0263"/>
</g>
<!-- Node7 -->
<g id="node7" class="node"><title>Node7</title>
<g id="a_node7"><a xlink:href="group__eh.html#ga3c01cc3498c6cb3655588b53da0e8f7e" target="_top" xlink:title="print_pos">
<polygon fill="white" stroke="black" points="260,-57.5 260,-76.5 316,-76.5 316,-57.5 260,-57.5"/>
<text text-anchor="middle" x="288" y="-64.5" font-family="Helvetica,sans-Serif" font-size="10.00">print_pos</text>
</a>
</g>
</g>
<!-- Node6&#45;&gt;Node7 -->
<g id="edge7" class="edge"><title>Node6&#45;&gt;Node7</title>
<path fill="none" stroke="midnightblue" d="M196.862,-19.5114C205.213,-22.2354 214.042,-25.4435 222,-29 236.455,-35.4603 251.783,-44.3141 263.921,-51.8504"/>
<polygon fill="midnightblue" stroke="midnightblue" points="262.194,-54.8995 272.515,-57.295 265.941,-48.9864 262.194,-54.8995"/>
</g>
<!-- Node8&#45;&gt;Node4 -->
<g id="edge11" class="edge"><title>Node8&#45;&gt;Node4</title>
<path fill="none" stroke="midnightblue" d="M221.782,-125.156C250.866,-124.954 286.421,-123.546 318,-119 326.493,-117.778 335.575,-115.724 343.821,-113.562"/>
<polygon fill="midnightblue" stroke="midnightblue" points="345.011,-116.864 353.711,-110.819 343.14,-110.119 345.011,-116.864"/>
</g>
<!-- Node8&#45;&gt;Node7 -->
<g id="edge10" class="edge"><title>Node8&#45;&gt;Node7</title>
<path fill="none" stroke="midnightblue" d="M196.862,-114.489C205.213,-111.765 214.042,-108.557 222,-105 236.455,-98.5397 251.783,-89.6859 263.921,-82.1496"/>
<polygon fill="midnightblue" stroke="midnightblue" points="265.941,-85.0136 272.515,-76.705 262.194,-79.1005 265.941,-85.0136"/>
</g>
<!-- Node9&#45;&gt;Node4 -->
<g id="edge14" class="edge"><title>Node9&#45;&gt;Node4</title>
<path fill="none" stroke="midnightblue" d="M213.061,-90.551C254.033,-94.2758 310.497,-99.4088 343.93,-102.448"/>
<polygon fill="midnightblue" stroke="midnightblue" points="343.65,-105.937 353.926,-103.357 344.284,-98.9659 343.65,-105.937"/>
</g>
<!-- Node9&#45;&gt;Node7 -->
<g id="edge13" class="edge"><title>Node9&#45;&gt;Node7</title>
<path fill="none" stroke="midnightblue" d="M213.078,-78.3267C225.326,-76.45 238.219,-74.4745 249.747,-72.7082"/>
<polygon fill="midnightblue" stroke="midnightblue" points="250.537,-76.128 259.892,-71.1537 249.477,-69.2087 250.537,-76.128"/>
</g>
<!-- Node10&#45;&gt;Node4 -->
<g id="edge17" class="edge"><title>Node10&#45;&gt;Node4</title>
<path fill="none" stroke="midnightblue" d="M211.083,-38.4678C242.737,-34.4431 284.381,-33.5393 318,-48 336.314,-55.8773 351.327,-73.3574 360.833,-86.8973"/>
<polygon fill="midnightblue" stroke="midnightblue" points="358.071,-89.0661 366.508,-95.4752 363.909,-85.2039 358.071,-89.0661"/>
</g>
<!-- Node10&#45;&gt;Node7 -->
<g id="edge16" class="edge"><title>Node10&#45;&gt;Node7</title>
<path fill="none" stroke="midnightblue" d="M212.721,-55.6185C224.999,-57.4998 237.945,-59.4836 249.53,-61.2586"/>
<polygon fill="midnightblue" stroke="midnightblue" points="249.313,-64.7661 259.728,-62.8212 250.373,-57.8469 249.313,-64.7661"/>
</g>
</g>
</svg>
