<?xml version="1.0" encoding="UTF-8" standalone="no"?>
<!DOCTYPE svg PUBLIC "-//W3C//DTD SVG 1.1//EN"
 "http://www.w3.org/Graphics/SVG/1.1/DTD/svg11.dtd">
<!-- Generated by graphviz version 2.36.0 (20140111.2315)
 -->
<!-- Title: add_symbol Pages: 1 -->
<!--zoomable 466 -->
<svg id="main" version="1.1" xmlns="http://www.w3.org/2000/svg" xmlns:xlink="http://www.w3.org/1999/xlink" xml:space="preserve" onload="init(evt)">
<style type="text/css"><![CDATA[
.edge:hover path { stroke: red; }
.edge:hover polygon { stroke: red; fill: red; }
]]></style>
<script type="text/javascript"><![CDATA[
var edges = document.getElementsByTagName('g');
if (edges && edges.length) {
  for (var i=0;i<edges.length;i++) {
    if (edges[i].id.substr(0,4)=='edge') {
      edges[i].setAttribute('class','edge');
    }
  }
}
]]></script>
        <defs>
                <circle id="rim" cx="0" cy="0" r="7"/>
                <circle id="rim2" cx="0" cy="0" r="3.5"/>
                <g id="zoomPlus">
                        <use xlink:href="#rim" fill="#404040">
                                <set attributeName="fill" to="#808080" begin="zoomplus.mouseover" end="zoomplus.mouseout"/>
                        </use>
                        <path d="M-4,0h8M0,-4v8" fill="none" stroke="white" stroke-width="1.5" pointer-events="none"/>
                </g>
                <g id="zoomMin">
                        <use xlink:href="#rim" fill="#404040">
                                <set attributeName="fill" to="#808080" begin="zoomminus.mouseover" end="zoomminus.mouseout"/>
                        </use>
                        <path d="M-4,0h8" fill="none" stroke="white" stroke-width="1.5" pointer-events="none"/>
                </g>
                <g id="dirArrow">
                        <path fill="none" stroke="white" stroke-width="1.5" d="M0,-3.0v7 M-2.5,-0.5L0,-3.0L2.5,-0.5"/>
                </g>
               <g id="resetDef">
                       <use xlink:href="#rim2" fill="#404040">
                               <set attributeName="fill" to="#808080" begin="reset.mouseover" end="reset.mouseout"/>
                       </use>
               </g>
        </defs>

<script type="text/javascript">
var viewWidth = 688;
var viewHeight = 466;
var sectionId = 'dynsection-1';
</script>
<script xlink:href="svgpan.js"/>
<svg id="graph" class="graph">
<g id="viewport">
<title>add_symbol</title>
<polygon fill="white" stroke="none" points="-4,4 -4,-462.496 684,-462.496 684,4 -4,4"/>
<!-- Node1 -->
<g id="node1" class="node"><title>Node1</title>
<polygon fill="#bfbfbf" stroke="black" points="0.5,-248.996 0.5,-267.996 69.5,-267.996 69.5,-248.996 0.5,-248.996"/>
<text text-anchor="middle" x="35" y="-255.996" font-family="Helvetica,sans-Serif" font-size="10.00">add_symbol</text>
</g>
<!-- Node2 -->
<g id="node2" class="node"><title>Node2</title>
<g id="a_node2"><a xlink:href="reader_8c.html#ae8594bb30d2b0297a4f533a4268c5d0a" target="_top" xlink:title="end_rule">
<polygon fill="white" stroke="black" points="126.5,-248.996 126.5,-267.996 179.5,-267.996 179.5,-248.996 126.5,-248.996"/>
<text text-anchor="middle" x="153" y="-255.996" font-family="Helvetica,sans-Serif" font-size="10.00">end_rule</text>
</a>
</g>
</g>
<!-- Node1&#45;&gt;Node2 -->
<g id="edge1" class="edge"><title>Node1&#45;&gt;Node2</title>
<path fill="none" stroke="midnightblue" d="M69.552,-258.496C84.0898,-258.496 101.136,-258.496 115.944,-258.496"/>
<polygon fill="midnightblue" stroke="midnightblue" points="116.263,-261.997 126.263,-258.496 116.263,-254.997 116.263,-261.997"/>
</g>
<!-- Node4 -->
<g id="node4" class="node"><title>Node4</title>
<g id="a_node4"><a xlink:href="reader_8c.html#a2d5a55a1a526ac853c3234ea51ee18f8" target="_top" xlink:title="expand_items">
<polygon fill="white" stroke="black" points="255.5,-286.996 255.5,-305.996 332.5,-305.996 332.5,-286.996 255.5,-286.996"/>
<text text-anchor="middle" x="294" y="-293.996" font-family="Helvetica,sans-Serif" font-size="10.00">expand_items</text>
</a>
</g>
</g>
<!-- Node1&#45;&gt;Node4 -->
<g id="edge6" class="edge"><title>Node1&#45;&gt;Node4</title>
<path fill="none" stroke="midnightblue" d="M66.7623,-268.016C78.8869,-271.459 92.999,-275.088 106,-277.496 152.927,-286.188 207.267,-291.15 245.235,-293.807"/>
<polygon fill="midnightblue" stroke="midnightblue" points="245.278,-297.318 255.491,-294.496 245.748,-290.333 245.278,-297.318"/>
</g>
<!-- Node7 -->
<g id="node7" class="node"><title>Node7</title>
<g id="a_node7"><a xlink:href="reader_8c.html#acfb64f081b0d9c4536e90c5352ce9c2c" target="_top" xlink:title="get_literal">
<polygon fill="white" stroke="black" points="264.5,-210.996 264.5,-229.996 323.5,-229.996 323.5,-210.996 264.5,-210.996"/>
<text text-anchor="middle" x="294" y="-217.996" font-family="Helvetica,sans-Serif" font-size="10.00">get_literal</text>
</a>
</g>
</g>
<!-- Node1&#45;&gt;Node7 -->
<g id="edge7" class="edge"><title>Node1&#45;&gt;Node7</title>
<path fill="none" stroke="midnightblue" d="M66.7623,-248.977C78.8869,-245.534 92.999,-241.905 106,-239.496 156.74,-230.098 216.147,-225.061 254.153,-222.583"/>
<polygon fill="midnightblue" stroke="midnightblue" points="254.518,-226.067 264.281,-221.951 254.082,-219.081 254.518,-226.067"/>
</g>
<!-- Node16 -->
<g id="node16" class="node"><title>Node16</title>
<g id="a_node16"><a xlink:href="reader_8c.html#a47f6ab5db224a190b33568ed55a03eaf" target="_top" xlink:title="get_name">
<polygon fill="white" stroke="black" points="264.5,-58.9964 264.5,-77.9964 323.5,-77.9964 323.5,-58.9964 264.5,-58.9964"/>
<text text-anchor="middle" x="294" y="-65.9964" font-family="Helvetica,sans-Serif" font-size="10.00">get_name</text>
</a>
</g>
</g>
<!-- Node1&#45;&gt;Node16 -->
<g id="edge23" class="edge"><title>Node1&#45;&gt;Node16</title>
<path fill="none" stroke="midnightblue" d="M41.1505,-248.712C51.3658,-230.072 75.8326,-189.056 106,-163.496 151.558,-124.896 215.478,-96.768 255.544,-81.5339"/>
<polygon fill="midnightblue" stroke="midnightblue" points="256.797,-84.8022 264.945,-78.0299 254.352,-78.2431 256.797,-84.8022"/>
</g>
<!-- Node19 -->
<g id="node19" class="node"><title>Node19</title>
<g id="a_node19"><a xlink:href="reader_8c.html#ac59b5c8d9dca9fc4b2614fd186ec6c55" target="_top" xlink:title="insert_empty_rule">
<polygon fill="white" stroke="black" points="106,-324.996 106,-343.996 200,-343.996 200,-324.996 106,-324.996"/>
<text text-anchor="middle" x="153" y="-331.996" font-family="Helvetica,sans-Serif" font-size="10.00">insert_empty_rule</text>
</a>
</g>
</g>
<!-- Node1&#45;&gt;Node19 -->
<g id="edge29" class="edge"><title>Node1&#45;&gt;Node19</title>
<path fill="none" stroke="midnightblue" d="M47.9765,-268.31C61.595,-279.247 84.7065,-297.149 106,-310.496 111.281,-313.806 117.067,-317.08 122.7,-320.096"/>
<polygon fill="midnightblue" stroke="midnightblue" points="121.431,-323.381 131.918,-324.887 124.66,-317.17 121.431,-323.381"/>
</g>
<!-- Node22 -->
<g id="node22" class="node"><title>Node22</title>
<g id="a_node22"><a xlink:href="reader_8c.html#a11446424d65669df0f3a9e3b1cca57fa" target="_top" xlink:title="nextc">
<polygon fill="white" stroke="black" points="132.5,-172.996 132.5,-191.996 173.5,-191.996 173.5,-172.996 132.5,-172.996"/>
<text text-anchor="middle" x="153" y="-179.996" font-family="Helvetica,sans-Serif" font-size="10.00">nextc</text>
</a>
</g>
</g>
<!-- Node1&#45;&gt;Node22 -->
<g id="edge34" class="edge"><title>Node1&#45;&gt;Node22</title>
<path fill="none" stroke="midnightblue" d="M47.9765,-248.683C61.595,-237.746 84.7065,-219.843 106,-206.496 111.51,-203.043 117.57,-199.629 123.432,-196.506"/>
<polygon fill="midnightblue" stroke="midnightblue" points="125.102,-199.583 132.373,-191.876 121.883,-193.367 125.102,-199.583"/>
</g>
<!-- Node24 -->
<g id="node24" class="node"><title>Node24</title>
<g id="a_node24"><a xlink:href="reader_8c.html#a7691871ff8cdc7f1f7bdaf2443070ff1" target="_top" xlink:title="start_rule">
<polygon fill="white" stroke="black" points="124.5,-362.996 124.5,-381.996 181.5,-381.996 181.5,-362.996 124.5,-362.996"/>
<text text-anchor="middle" x="153" y="-369.996" font-family="Helvetica,sans-Serif" font-size="10.00">start_rule</text>
</a>
</g>
</g>
<!-- Node1&#45;&gt;Node24 -->
<g id="edge39" class="edge"><title>Node1&#45;&gt;Node24</title>
<path fill="none" stroke="midnightblue" d="M40.8199,-268.206C50.6363,-287.08 74.6934,-329.011 106,-353.496 108.808,-355.692 111.905,-357.674 115.125,-359.453"/>
<polygon fill="midnightblue" stroke="midnightblue" points="113.864,-362.731 124.39,-363.942 116.916,-356.432 113.864,-362.731"/>
</g>
<!-- Node3 -->
<g id="node3" class="node"><title>Node3</title>
<g id="a_node3"><a xlink:href="group__eh.html#gadb0403f76d903f343861ba458e8d4a57" target="_top" xlink:title="default_action_warning">
<polygon fill="white" stroke="black" points="236,-248.996 236,-267.996 352,-267.996 352,-248.996 236,-248.996"/>
<text text-anchor="middle" x="294" y="-255.996" font-family="Helvetica,sans-Serif" font-size="10.00">default_action_warning</text>
</a>
</g>
</g>
<!-- Node2&#45;&gt;Node3 -->
<g id="edge2" class="edge"><title>Node2&#45;&gt;Node3</title>
<path fill="none" stroke="midnightblue" d="M179.819,-258.496C192.888,-258.496 209.421,-258.496 225.786,-258.496"/>
<polygon fill="midnightblue" stroke="midnightblue" points="225.92,-261.997 235.92,-258.496 225.92,-254.997 225.92,-261.997"/>
</g>
<!-- Node2&#45;&gt;Node4 -->
<g id="edge3" class="edge"><title>Node2&#45;&gt;Node4</title>
<path fill="none" stroke="midnightblue" d="M179.819,-265.555C199.037,-270.809 225.748,-278.111 248.395,-284.302"/>
<polygon fill="midnightblue" stroke="midnightblue" points="247.576,-287.707 258.145,-286.968 249.422,-280.955 247.576,-287.707"/>
</g>
<!-- Node5 -->
<g id="node5" class="node"><title>Node5</title>
<g id="a_node5"><a xlink:href="group__eh.html#ga03b3d711852aa32c4076f12ea7bb93a4" target="_top" xlink:title="no_space">
<polygon fill="white" stroke="black" points="536.5,-210.996 536.5,-229.996 595.5,-229.996 595.5,-210.996 536.5,-210.996"/>
<text text-anchor="middle" x="566" y="-217.996" font-family="Helvetica,sans-Serif" font-size="10.00">no_space</text>
</a>
</g>
</g>
<!-- Node4&#45;&gt;Node5 -->
<g id="edge4" class="edge"><title>Node4&#45;&gt;Node5</title>
<path fill="none" stroke="midnightblue" d="M332.698,-298.795C373.04,-299.911 438.221,-297.789 490,-277.496 512.657,-268.617 534.314,-250.803 548.478,-237.44"/>
<polygon fill="midnightblue" stroke="midnightblue" points="551.195,-239.679 555.904,-230.188 546.304,-234.672 551.195,-239.679"/>
</g>
<!-- Node6 -->
<g id="node6" class="node"><title>Node6</title>
<g id="a_node6"><a xlink:href="group__eh.html#ga67b6b9fd02aac96bef4297b1e6a1789a" target="_top" xlink:title="Shutdown function. ">
<polygon fill="white" stroke="black" points="642,-324.996 642,-343.996 680,-343.996 680,-324.996 642,-324.996"/>
<text text-anchor="middle" x="661" y="-331.996" font-family="Helvetica,sans-Serif" font-size="10.00">done</text>
</a>
</g>
</g>
<!-- Node5&#45;&gt;Node6 -->
<g id="edge5" class="edge"><title>Node5&#45;&gt;Node6</title>
<path fill="none" stroke="midnightblue" d="M574.929,-230.216C590.578,-249.398 625.636,-292.373 645.517,-316.743"/>
<polygon fill="midnightblue" stroke="midnightblue" points="643.058,-319.265 652.091,-324.801 648.482,-314.84 643.058,-319.265"/>
</g>
<!-- Node7&#45;&gt;Node5 -->
<g id="edge21" class="edge"><title>Node7&#45;&gt;Node5</title>
<path fill="none" stroke="midnightblue" d="M323.639,-220.496C372.344,-220.496 471.351,-220.496 526.216,-220.496"/>
<polygon fill="midnightblue" stroke="midnightblue" points="526.248,-223.997 536.248,-220.496 526.248,-216.997 526.248,-223.997"/>
</g>
<!-- Node8 -->
<g id="node8" class="node"><title>Node8</title>
<g id="a_node8"><a xlink:href="reader_8c.html#a416a4e795e86e5666f1a734793f9636e" target="_top" xlink:title="dup_line">
<polygon fill="white" stroke="black" points="412.5,-172.996 412.5,-191.996 465.5,-191.996 465.5,-172.996 412.5,-172.996"/>
<text text-anchor="middle" x="439" y="-179.996" font-family="Helvetica,sans-Serif" font-size="10.00">dup_line</text>
</a>
</g>
</g>
<!-- Node7&#45;&gt;Node8 -->
<g id="edge8" class="edge"><title>Node7&#45;&gt;Node8</title>
<path fill="none" stroke="midnightblue" d="M323.594,-212.898C346.274,-206.871 378.092,-198.416 402.417,-191.952"/>
<polygon fill="midnightblue" stroke="midnightblue" points="403.569,-195.267 412.335,-189.316 401.772,-188.502 403.569,-195.267"/>
</g>
<!-- Node9 -->
<g id="node9" class="node"><title>Node9</title>
<g id="a_node9"><a xlink:href="group__eh.html#ga1be74faa1a912de2fd380aa9a4de6eb2" target="_top" xlink:title="unterminated_string">
<polygon fill="white" stroke="black" points="388,-400.996 388,-419.996 490,-419.996 490,-400.996 388,-400.996"/>
<text text-anchor="middle" x="439" y="-407.996" font-family="Helvetica,sans-Serif" font-size="10.00">unterminated_string</text>
</a>
</g>
</g>
<!-- Node7&#45;&gt;Node9 -->
<g id="edge10" class="edge"><title>Node7&#45;&gt;Node9</title>
<path fill="none" stroke="midnightblue" d="M323.679,-224.17C333.899,-226.854 344.679,-231.491 352,-239.496 398.853,-290.727 342.217,-339.307 388,-391.496 389.179,-392.84 390.463,-394.089 391.83,-395.25"/>
<polygon fill="midnightblue" stroke="midnightblue" points="390.151,-398.338 400.41,-400.984 394.041,-392.518 390.151,-398.338"/>
</g>
<!-- Node11 -->
<g id="node11" class="node"><title>Node11</title>
<g id="a_node11"><a xlink:href="reader_8c.html#a204317aa3b6d154f1abff12df35953df" target="_top" xlink:title="get_line">
<polygon fill="white" stroke="black" points="414,-134.996 414,-153.996 464,-153.996 464,-134.996 414,-134.996"/>
<text text-anchor="middle" x="439" y="-141.996" font-family="Helvetica,sans-Serif" font-size="10.00">get_line</text>
</a>
</g>
</g>
<!-- Node7&#45;&gt;Node11 -->
<g id="edge13" class="edge"><title>Node7&#45;&gt;Node11</title>
<path fill="none" stroke="midnightblue" d="M323.774,-213.903C333.215,-210.976 343.466,-206.932 352,-201.496 371.623,-188.999 368.64,-176.397 388,-163.496 393,-160.165 398.667,-157.303 404.343,-154.887"/>
<polygon fill="midnightblue" stroke="midnightblue" points="405.724,-158.106 413.791,-151.238 403.201,-151.577 405.724,-158.106"/>
</g>
<!-- Node12 -->
<g id="node12" class="node"><title>Node12</title>
<g id="a_node12"><a xlink:href="group__eh.html#gaad64de11ac1b5b04da452109e0c6e55a" target="_top" xlink:title="illegal_character">
<polygon fill="white" stroke="black" points="395.5,-362.996 395.5,-381.996 482.5,-381.996 482.5,-362.996 395.5,-362.996"/>
<text text-anchor="middle" x="439" y="-369.996" font-family="Helvetica,sans-Serif" font-size="10.00">illegal_character</text>
</a>
</g>
</g>
<!-- Node7&#45;&gt;Node12 -->
<g id="edge15" class="edge"><title>Node7&#45;&gt;Node12</title>
<path fill="none" stroke="midnightblue" d="M323.517,-225.946C333.254,-228.81 343.755,-233.107 352,-239.496 372.682,-255.524 410.142,-321.225 428.004,-353.886"/>
<polygon fill="midnightblue" stroke="midnightblue" points="425.033,-355.749 432.878,-362.87 431.186,-352.411 425.033,-355.749"/>
</g>
<!-- Node13 -->
<g id="node13" class="node"><title>Node13</title>
<g id="a_node13"><a xlink:href="reader_8c.html#a9ce1e6abd7c2eac7e850297b7e1bbc6e" target="_top" xlink:title="hexval">
<polygon fill="white" stroke="black" points="416.5,-248.996 416.5,-267.996 461.5,-267.996 461.5,-248.996 416.5,-248.996"/>
<text text-anchor="middle" x="439" y="-255.996" font-family="Helvetica,sans-Serif" font-size="10.00">hexval</text>
</a>
</g>
</g>
<!-- Node7&#45;&gt;Node13 -->
<g id="edge18" class="edge"><title>Node7&#45;&gt;Node13</title>
<path fill="none" stroke="midnightblue" d="M323.594,-228.095C347.557,-234.463 381.723,-243.542 406.473,-250.119"/>
<polygon fill="midnightblue" stroke="midnightblue" points="405.883,-253.583 416.446,-252.769 407.681,-246.818 405.883,-253.583"/>
</g>
<!-- Node14 -->
<g id="node14" class="node"><title>Node14</title>
<g id="a_node14"><a xlink:href="reader_8c.html#a04707e6fc9527eaf37d68dafdc9483a9" target="_top" xlink:title="cachec">
<polygon fill="white" stroke="black" points="415,-96.9964 415,-115.996 463,-115.996 463,-96.9964 415,-96.9964"/>
<text text-anchor="middle" x="439" y="-103.996" font-family="Helvetica,sans-Serif" font-size="10.00">cachec</text>
</a>
</g>
</g>
<!-- Node7&#45;&gt;Node14 -->
<g id="edge19" class="edge"><title>Node7&#45;&gt;Node14</title>
<path fill="none" stroke="midnightblue" d="M323.712,-215.719C333.579,-212.915 344.115,-208.484 352,-201.496 379.974,-176.709 360.546,-150.858 388,-125.496 392.879,-120.989 398.936,-117.517 405.13,-114.854"/>
<polygon fill="midnightblue" stroke="midnightblue" points="406.643,-118.028 414.829,-111.302 404.235,-111.455 406.643,-118.028"/>
</g>
<!-- Node15 -->
<g id="node15" class="node"><title>Node15</title>
<g id="a_node15"><a xlink:href="defs_8h.html#aeb8facfda1fb8dcf16a3120589eb90e0" target="_top" xlink:title="lookup">
<polygon fill="white" stroke="black" points="416.5,-58.9964 416.5,-77.9964 461.5,-77.9964 461.5,-58.9964 416.5,-58.9964"/>
<text text-anchor="middle" x="439" y="-65.9964" font-family="Helvetica,sans-Serif" font-size="10.00">lookup</text>
</a>
</g>
</g>
<!-- Node7&#45;&gt;Node15 -->
<g id="edge22" class="edge"><title>Node7&#45;&gt;Node15</title>
<path fill="none" stroke="midnightblue" d="M323.667,-216.454C333.764,-213.725 344.463,-209.154 352,-201.496 389.271,-163.629 351.52,-126.127 388,-87.4964 393.012,-82.189 399.66,-78.3496 406.468,-75.577"/>
<polygon fill="midnightblue" stroke="midnightblue" points="408.027,-78.7449 416.383,-72.2315 405.789,-72.1123 408.027,-78.7449"/>
</g>
<!-- Node8&#45;&gt;Node5 -->
<g id="edge9" class="edge"><title>Node8&#45;&gt;Node5</title>
<path fill="none" stroke="midnightblue" d="M465.597,-190.278C483.195,-195.628 506.874,-202.826 526.706,-208.855"/>
<polygon fill="midnightblue" stroke="midnightblue" points="525.796,-212.236 536.381,-211.796 527.832,-205.539 525.796,-212.236"/>
</g>
<!-- Node9&#45;&gt;Node6 -->
<g id="edge12" class="edge"><title>Node9&#45;&gt;Node6</title>
<path fill="none" stroke="midnightblue" d="M490.094,-413.508C524.418,-413.536 570.058,-409.447 606,-391.496 623.637,-382.688 638.581,-365.64 648.246,-352.473"/>
<polygon fill="midnightblue" stroke="midnightblue" points="651.216,-354.333 654.061,-344.127 645.473,-350.331 651.216,-354.333"/>
</g>
<!-- Node10 -->
<g id="node10" class="node"><title>Node10</title>
<g id="a_node10"><a xlink:href="group__eh.html#ga3c01cc3498c6cb3655588b53da0e8f7e" target="_top" xlink:title="print_pos">
<polygon fill="white" stroke="black" points="538,-362.996 538,-381.996 594,-381.996 594,-362.996 538,-362.996"/>
<text text-anchor="middle" x="566" y="-369.996" font-family="Helvetica,sans-Serif" font-size="10.00">print_pos</text>
</a>
</g>
</g>
<!-- Node9&#45;&gt;Node10 -->
<g id="edge11" class="edge"><title>Node9&#45;&gt;Node10</title>
<path fill="none" stroke="midnightblue" d="M471.543,-400.907C488.752,-395.676 510.149,-389.171 528.126,-383.706"/>
<polygon fill="midnightblue" stroke="midnightblue" points="529.163,-387.049 537.713,-380.792 527.127,-380.352 529.163,-387.049"/>
</g>
<!-- Node11&#45;&gt;Node5 -->
<g id="edge14" class="edge"><title>Node11&#45;&gt;Node5</title>
<path fill="none" stroke="midnightblue" d="M464.026,-152.045C472.474,-155.107 481.88,-158.991 490,-163.496 510.801,-175.037 532.177,-191.864 546.759,-204.245"/>
<polygon fill="midnightblue" stroke="midnightblue" points="544.652,-207.05 554.504,-210.948 549.232,-201.757 544.652,-207.05"/>
</g>
<!-- Node12&#45;&gt;Node6 -->
<g id="edge17" class="edge"><title>Node12&#45;&gt;Node6</title>
<path fill="none" stroke="midnightblue" d="M480.123,-362.964C494.54,-359.716 510.954,-356.221 526,-353.496 562.332,-346.917 604.55,-341.256 631.739,-337.865"/>
<polygon fill="midnightblue" stroke="midnightblue" points="632.225,-341.332 641.723,-336.638 631.37,-334.384 632.225,-341.332"/>
</g>
<!-- Node12&#45;&gt;Node10 -->
<g id="edge16" class="edge"><title>Node12&#45;&gt;Node10</title>
<path fill="none" stroke="midnightblue" d="M482.668,-372.496C497.209,-372.496 513.347,-372.496 527.456,-372.496"/>
<polygon fill="midnightblue" stroke="midnightblue" points="527.789,-375.997 537.789,-372.496 527.789,-368.997 527.789,-375.997"/>
</g>
<!-- Node14&#45;&gt;Node5 -->
<g id="edge20" class="edge"><title>Node14&#45;&gt;Node5</title>
<path fill="none" stroke="midnightblue" d="M463.207,-112.425C472.126,-115.417 482.063,-119.675 490,-125.496 518.506,-146.404 541.936,-180.86 554.65,-202.027"/>
<polygon fill="midnightblue" stroke="midnightblue" points="551.658,-203.844 559.718,-210.721 557.706,-200.319 551.658,-203.844"/>
</g>
<!-- Node16&#45;&gt;Node14 -->
<g id="edge24" class="edge"><title>Node16&#45;&gt;Node14</title>
<path fill="none" stroke="midnightblue" d="M323.594,-76.095C346.987,-82.3111 380.102,-91.1109 404.689,-97.6446"/>
<polygon fill="midnightblue" stroke="midnightblue" points="404.088,-101.106 414.651,-100.292 405.886,-94.341 404.088,-101.106"/>
</g>
<!-- Node16&#45;&gt;Node15 -->
<g id="edge28" class="edge"><title>Node16&#45;&gt;Node15</title>
<path fill="none" stroke="midnightblue" d="M323.594,-68.4964C347.45,-68.4964 381.418,-68.4964 406.141,-68.4964"/>
<polygon fill="midnightblue" stroke="midnightblue" points="406.446,-71.9965 416.446,-68.4964 406.446,-64.9965 406.446,-71.9965"/>
</g>
<!-- Node17 -->
<g id="node17" class="node"><title>Node17</title>
<g id="a_node17"><a xlink:href="reader_8c.html#a205d802dd9de1b8e85d44a321f33365c" target="_top" xlink:title="is_reserved">
<polygon fill="white" stroke="black" points="405.5,-20.9964 405.5,-39.9964 472.5,-39.9964 472.5,-20.9964 405.5,-20.9964"/>
<text text-anchor="middle" x="439" y="-27.9964" font-family="Helvetica,sans-Serif" font-size="10.00">is_reserved</text>
</a>
</g>
</g>
<!-- Node16&#45;&gt;Node17 -->
<g id="edge25" class="edge"><title>Node16&#45;&gt;Node17</title>
<path fill="none" stroke="midnightblue" d="M323.594,-60.8979C344.184,-55.4265 372.307,-47.9534 395.517,-41.7857"/>
<polygon fill="midnightblue" stroke="midnightblue" points="396.692,-45.095 405.457,-39.1441 394.894,-38.3298 396.692,-45.095"/>
</g>
<!-- Node18 -->
<g id="node18" class="node"><title>Node18</title>
<g id="a_node18"><a xlink:href="group__eh.html#ga28ccf9e0cd69034b61cd32e13e9a9e00" target="_top" xlink:title="used_reserved">
<polygon fill="white" stroke="black" points="526,-77.9964 526,-96.9964 606,-96.9964 606,-77.9964 526,-77.9964"/>
<text text-anchor="middle" x="566" y="-84.9964" font-family="Helvetica,sans-Serif" font-size="10.00">used_reserved</text>
</a>
</g>
</g>
<!-- Node16&#45;&gt;Node18 -->
<g id="edge26" class="edge"><title>Node16&#45;&gt;Node18</title>
<path fill="none" stroke="midnightblue" d="M306.049,-58.8549C322.543,-45.1708 355.193,-20.7502 388,-11.4964 431.631,0.810491 448.175,5.99047 490,-11.4964 517.945,-23.1802 540.771,-50.9099 553.628,-69.443"/>
<polygon fill="midnightblue" stroke="midnightblue" points="550.817,-71.5368 559.268,-77.9272 556.647,-67.6617 550.817,-71.5368"/>
</g>
<!-- Node18&#45;&gt;Node6 -->
<g id="edge27" class="edge"><title>Node18&#45;&gt;Node6</title>
<path fill="none" stroke="midnightblue" d="M570.646,-97.1791C584.506,-133.991 634.081,-265.659 652.787,-315.339"/>
<polygon fill="midnightblue" stroke="midnightblue" points="649.58,-316.755 656.379,-324.881 656.131,-314.289 649.58,-316.755"/>
</g>
<!-- Node19&#45;&gt;Node4 -->
<g id="edge31" class="edge"><title>Node19&#45;&gt;Node4</title>
<path fill="none" stroke="midnightblue" d="M189.076,-324.907C207.019,-320.002 229.058,-313.977 248.217,-308.739"/>
<polygon fill="midnightblue" stroke="midnightblue" points="249.213,-312.096 257.936,-306.082 247.367,-305.343 249.213,-312.096"/>
</g>
<!-- Node20 -->
<g id="node20" class="node"><title>Node20</title>
<g id="a_node20"><a xlink:href="defs_8h.html#ae2d24c742f22bea84ba3c02349ca8e9b" target="_top" xlink:title="make_bucket">
<polygon fill="white" stroke="black" points="256.5,-324.996 256.5,-343.996 331.5,-343.996 331.5,-324.996 256.5,-324.996"/>
<text text-anchor="middle" x="294" y="-331.996" font-family="Helvetica,sans-Serif" font-size="10.00">make_bucket</text>
</a>
</g>
</g>
<!-- Node19&#45;&gt;Node20 -->
<g id="edge30" class="edge"><title>Node19&#45;&gt;Node20</title>
<path fill="none" stroke="midnightblue" d="M200.285,-334.496C214.902,-334.496 231.066,-334.496 245.749,-334.496"/>
<polygon fill="midnightblue" stroke="midnightblue" points="246.135,-337.997 256.135,-334.496 246.135,-330.997 246.135,-337.997"/>
</g>
<!-- Node21 -->
<g id="node21" class="node"><title>Node21</title>
<g id="a_node21"><a xlink:href="reader_8c.html#a26f803a6175f255b34b89151133c51f6" target="_top" xlink:title="expand_rules">
<polygon fill="white" stroke="black" points="257,-362.996 257,-381.996 331,-381.996 331,-362.996 257,-362.996"/>
<text text-anchor="middle" x="294" y="-369.996" font-family="Helvetica,sans-Serif" font-size="10.00">expand_rules</text>
</a>
</g>
</g>
<!-- Node19&#45;&gt;Node21 -->
<g id="edge32" class="edge"><title>Node19&#45;&gt;Node21</title>
<path fill="none" stroke="midnightblue" d="M189.076,-344.085C207.019,-348.991 229.058,-355.016 248.217,-360.254"/>
<polygon fill="midnightblue" stroke="midnightblue" points="247.367,-363.649 257.936,-362.91 249.213,-356.897 247.367,-363.649"/>
</g>
<!-- Node21&#45;&gt;Node5 -->
<g id="edge33" class="edge"><title>Node21&#45;&gt;Node5</title>
<path fill="none" stroke="midnightblue" d="M331.216,-364.895C372.304,-355.059 440.075,-335.076 490,-301.496 515.594,-284.282 538.651,-256.697 552.244,-238.585"/>
<polygon fill="midnightblue" stroke="midnightblue" points="555.382,-240.223 558.453,-230.083 549.729,-236.095 555.382,-240.223"/>
</g>
<!-- Node22&#45;&gt;Node11 -->
<g id="edge35" class="edge"><title>Node22&#45;&gt;Node11</title>
<path fill="none" stroke="midnightblue" d="M173.736,-177.14C190.255,-172.846 214.507,-166.981 236,-163.496 294.569,-154 363.52,-148.775 403.832,-146.311"/>
<polygon fill="midnightblue" stroke="midnightblue" points="404.148,-149.799 413.925,-145.716 403.736,-142.811 404.148,-149.799"/>
</g>
<!-- Node23 -->
<g id="node23" class="node"><title>Node23</title>
<g id="a_node23"><a xlink:href="reader_8c.html#ac812a775973bb1eb24e86256b2de6b8b" target="_top" xlink:title="skip_comment">
<polygon fill="white" stroke="red" points="254,-172.996 254,-191.996 334,-191.996 334,-172.996 254,-172.996"/>
<text text-anchor="middle" x="294" y="-179.996" font-family="Helvetica,sans-Serif" font-size="10.00">skip_comment</text>
</a>
</g>
</g>
<!-- Node22&#45;&gt;Node23 -->
<g id="edge36" class="edge"><title>Node22&#45;&gt;Node23</title>
<path fill="none" stroke="midnightblue" d="M173.62,-182.496C191.759,-182.496 219.477,-182.496 243.64,-182.496"/>
<polygon fill="midnightblue" stroke="midnightblue" points="243.739,-185.997 253.739,-182.496 243.739,-178.997 243.739,-185.997"/>
</g>
<!-- Node23&#45;&gt;Node8 -->
<g id="edge37" class="edge"><title>Node23&#45;&gt;Node8</title>
<path fill="none" stroke="midnightblue" d="M334.075,-182.496C355.44,-182.496 381.704,-182.496 402.484,-182.496"/>
<polygon fill="midnightblue" stroke="midnightblue" points="402.496,-185.997 412.496,-182.496 402.496,-178.997 402.496,-185.997"/>
</g>
<!-- Node23&#45;&gt;Node11 -->
<g id="edge38" class="edge"><title>Node23&#45;&gt;Node11</title>
<path fill="none" stroke="midnightblue" d="M331.085,-172.907C353.37,-166.985 381.796,-159.432 403.735,-153.602"/>
<polygon fill="midnightblue" stroke="midnightblue" points="404.855,-156.926 413.62,-150.975 403.057,-150.161 404.855,-156.926"/>
</g>
<!-- Node24&#45;&gt;Node21 -->
<g id="edge42" class="edge"><title>Node24&#45;&gt;Node21</title>
<path fill="none" stroke="midnightblue" d="M181.795,-372.496C200.314,-372.496 225.102,-372.496 246.575,-372.496"/>
<polygon fill="midnightblue" stroke="midnightblue" points="246.808,-375.997 256.808,-372.496 246.808,-368.997 246.808,-375.997"/>
</g>
<!-- Node25 -->
<g id="node25" class="node"><title>Node25</title>
<g id="a_node25"><a xlink:href="group__eh.html#gab2b1e22a832ff68240af1b58df86bee3" target="_top" xlink:title="terminal_lhs">
<polygon fill="white" stroke="black" points="531.5,-438.996 531.5,-457.996 600.5,-457.996 600.5,-438.996 531.5,-438.996"/>
<text text-anchor="middle" x="566" y="-445.996" font-family="Helvetica,sans-Serif" font-size="10.00">terminal_lhs</text>
</a>
</g>
</g>
<!-- Node24&#45;&gt;Node25 -->
<g id="edge40" class="edge"><title>Node24&#45;&gt;Node25</title>
<path fill="none" stroke="midnightblue" d="M181.843,-380.546C225.438,-392.86 312.624,-416.33 388,-429.496 433.028,-437.362 485.106,-442.481 521.059,-445.401"/>
<polygon fill="midnightblue" stroke="midnightblue" points="520.968,-448.905 531.212,-446.203 521.519,-441.927 520.968,-448.905"/>
</g>
<!-- Node25&#45;&gt;Node6 -->
<g id="edge41" class="edge"><title>Node25&#45;&gt;Node6</title>
<path fill="none" stroke="midnightblue" d="M586.569,-438.919C593.236,-435.048 600.41,-430.15 606,-424.496 626.743,-403.519 642.847,-373.078 651.884,-353.534"/>
<polygon fill="midnightblue" stroke="midnightblue" points="655.183,-354.729 656.057,-344.17 648.789,-351.879 655.183,-354.729"/>
</g>
</g>
</svg>
        <g id="navigator" transform="translate(0 0)" fill="#404254">
                <rect fill="#f2f5e9" fill-opacity="0.5" stroke="#606060" stroke-width=".5" x="0" y="0" width="60" height="60"/>
                <use id="zoomplus" xlink:href="#zoomPlus" x="17" y="9" onmousedown="handleZoom(evt,'in')"/>
                <use id="zoomminus" xlink:href="#zoomMin" x="42" y="9" onmousedown="handleZoom(evt,'out')"/>
                <use id="reset" xlink:href="#resetDef" x="30" y="36" onmousedown="handleReset()"/>
                <g id="arrowUp" xlink:href="#dirArrow" transform="translate(30 24)" onmousedown="handlePan(0,-1)">
                  <use xlink:href="#rim" fill="#404040">
                        <set attributeName="fill" to="#808080" begin="arrowUp.mouseover" end="arrowUp.mouseout"/>
                  </use>
                  <path fill="none" stroke="white" stroke-width="1.5" d="M0,-3.0v7 M-2.5,-0.5L0,-3.0L2.5,-0.5"/>
                </g>
                <g id="arrowRight" xlink:href="#dirArrow" transform="rotate(90) translate(36 -43)" onmousedown="handlePan(1,0)">
                  <use xlink:href="#rim" fill="#404040">
                        <set attributeName="fill" to="#808080" begin="arrowRight.mouseover" end="arrowRight.mouseout"/>
                  </use>
                  <path fill="none" stroke="white" stroke-width="1.5" d="M0,-3.0v7 M-2.5,-0.5L0,-3.0L2.5,-0.5"/>
                </g>
                <g id="arrowDown" xlink:href="#dirArrow" transform="rotate(180) translate(-30 -48)" onmousedown="handlePan(0,1)">
                  <use xlink:href="#rim" fill="#404040">
                        <set attributeName="fill" to="#808080" begin="arrowDown.mouseover" end="arrowDown.mouseout"/>
                  </use>
                  <path fill="none" stroke="white" stroke-width="1.5" d="M0,-3.0v7 M-2.5,-0.5L0,-3.0L2.5,-0.5"/>
                </g>
                <g id="arrowLeft" xlink:href="#dirArrow" transform="rotate(270) translate(-36 17)" onmousedown="handlePan(-1,0)">
                  <use xlink:href="#rim" fill="#404040">
                        <set attributeName="fill" to="#808080" begin="arrowLeft.mouseover" end="arrowLeft.mouseout"/>
                  </use>
                  <path fill="none" stroke="white" stroke-width="1.5" d="M0,-3.0v7 M-2.5,-0.5L0,-3.0L2.5,-0.5"/>
                </g>
        </g>
        <svg viewBox="0 0 15 15" width="100%" height="30px" preserveAspectRatio="xMaxYMin meet">
         <g id="arrow_out" transform="scale(0.3 0.3)">
          <a xlink:href="reader_8c_a34bf32e056d8bc6f1fb490f4efc7ce90_cgraph_org.svg" target="_base">
           <rect id="button" ry="5" rx="5" y="6" x="6" height="38" width="38"
                fill="#f2f5e9" fill-opacity="0.5" stroke="#606060" stroke-width="1.0"/>
           <path id="arrow"
             d="M 11.500037,31.436501 C 11.940474,20.09759 22.043105,11.32322 32.158766,21.979434 L 37.068811,17.246167 C 37.068811,17.246167 37.088388,32 37.088388,32 L 22.160133,31.978069 C 22.160133,31.978069 26.997745,27.140456 26.997745,27.140456 C 18.528582,18.264221 13.291696,25.230495 11.500037,31.436501 z"
             style="fill:#404040;"/>
          </a>
         </g>
        </svg>
</svg>
