<?xml version="1.0" encoding="UTF-8" standalone="no"?>
<!DOCTYPE svg PUBLIC "-//W3C//DTD SVG 1.1//EN"
 "http://www.w3.org/Graphics/SVG/1.1/DTD/svg11.dtd">
<!-- Generated by graphviz version 2.36.0 (20140111.2315)
 -->
<!-- Title: write_section Pages: 1 -->
<svg width="236pt" height="66pt"
 viewBox="0.00 0.00 236.00 66.00" xmlns="http://www.w3.org/2000/svg" xmlns:xlink="http://www.w3.org/1999/xlink">
<g id="graph0" class="graph" transform="scale(1 1) rotate(0) translate(4 62)">
<title>write_section</title>
<polygon fill="white" stroke="none" points="-4,4 -4,-62 232,-62 232,4 -4,4"/>
<!-- Node1 -->
<g id="node1" class="node"><title>Node1</title>
<polygon fill="#bfbfbf" stroke="black" points="0,-19.5 0,-38.5 74,-38.5 74,-19.5 0,-19.5"/>
<text text-anchor="middle" x="37" y="-26.5" font-family="Helvetica,sans-Serif" font-size="10.00">write_section</text>
</g>
<!-- Node2 -->
<g id="node2" class="node"><title>Node2</title>
<g id="a_node2"><a xlink:href="output_8c.html#a3939045b11b9aaefdf692feb963f0dfc" target="_top" xlink:title="output">
<polygon fill="white" stroke="black" points="110,-38.5 110,-57.5 154,-57.5 154,-38.5 110,-38.5"/>
<text text-anchor="middle" x="132" y="-45.5" font-family="Helvetica,sans-Serif" font-size="10.00">output</text>
</a>
</g>
</g>
<!-- Node1&#45;&gt;Node2 -->
<g id="edge1" class="edge"><title>Node1&#45;&gt;Node2</title>
<path fill="none" stroke="midnightblue" d="M84.2425,-38.4474C93.1846,-40.2743 102.139,-42.1038 109.784,-43.6656"/>
<polygon fill="midnightblue" stroke="midnightblue" points="84.7208,-34.9729 74.2225,-36.4003 83.3195,-41.8312 84.7208,-34.9729"/>
</g>
<!-- Node4 -->
<g id="node4" class="node"><title>Node4</title>
<g id="a_node4"><a xlink:href="reader_8c.html#a3351a985e2d992eea6ed332cc837ad5b" target="_top" xlink:title="reader">
<polygon fill="white" stroke="black" points="110,-0.5 110,-19.5 154,-19.5 154,-0.5 110,-0.5"/>
<text text-anchor="middle" x="132" y="-7.5" font-family="Helvetica,sans-Serif" font-size="10.00">reader</text>
</a>
</g>
</g>
<!-- Node1&#45;&gt;Node4 -->
<g id="edge3" class="edge"><title>Node1&#45;&gt;Node4</title>
<path fill="none" stroke="midnightblue" d="M84.2425,-19.5526C93.1846,-17.7257 102.139,-15.8962 109.784,-14.3344"/>
<polygon fill="midnightblue" stroke="midnightblue" points="83.3195,-16.1688 74.2225,-21.5997 84.7208,-23.0271 83.3195,-16.1688"/>
</g>
<!-- Node3 -->
<g id="node3" class="node"><title>Node3</title>
<g id="a_node3"><a xlink:href="main_8c.html#afced8478b91af5c169926dfa4426333d" target="_top" xlink:title="main">
<polygon fill="white" stroke="black" points="190,-19.5 190,-38.5 228,-38.5 228,-19.5 190,-19.5"/>
<text text-anchor="middle" x="209" y="-26.5" font-family="Helvetica,sans-Serif" font-size="10.00">main</text>
</a>
</g>
</g>
<!-- Node2&#45;&gt;Node3 -->
<g id="edge2" class="edge"><title>Node2&#45;&gt;Node3</title>
<path fill="none" stroke="midnightblue" d="M164.246,-40.0844C173.01,-37.8641 182.244,-35.5249 189.958,-33.5706"/>
<polygon fill="midnightblue" stroke="midnightblue" points="163.126,-36.7575 154.291,-42.6062 164.845,-43.5432 163.126,-36.7575"/>
</g>
<!-- Node4&#45;&gt;Node3 -->
<g id="edge4" class="edge"><title>Node4&#45;&gt;Node3</title>
<path fill="none" stroke="midnightblue" d="M164.246,-17.9156C173.01,-20.1359 182.244,-22.4751 189.958,-24.4294"/>
<polygon fill="midnightblue" stroke="midnightblue" points="164.845,-14.4568 154.291,-15.3938 163.126,-21.2425 164.845,-14.4568"/>
</g>
</g>
</svg>
