<?xml version="1.0" encoding="UTF-8" standalone="no"?>
<!DOCTYPE svg PUBLIC "-//W3C//DTD SVG 1.1//EN"
 "http://www.w3.org/Graphics/SVG/1.1/DTD/svg11.dtd">
<!-- Generated by graphviz version 2.36.0 (20140111.2315)
 -->
<!-- Title: shorts Pages: 1 -->
<svg width="91pt" height="96pt"
 viewBox="0.00 0.00 91.00 96.00" xmlns="http://www.w3.org/2000/svg" xmlns:xlink="http://www.w3.org/1999/xlink">
<g id="graph0" class="graph" transform="scale(1 1) rotate(0) translate(4 92)">
<title>shorts</title>
<polygon fill="white" stroke="none" points="-4,4 -4,-92 87,-92 87,4 -4,4"/>
<!-- Node1 -->
<g id="node1" class="node"><title>Node1</title>
<polygon fill="#bfbfbf" stroke="black" points="-1,-0.5 -1,-19.5 43,-19.5 43,-0.5 -1,-0.5"/>
<text text-anchor="middle" x="21" y="-7.5" font-family="Helvetica,sans-Serif" font-size="10.00">shorts</text>
</g>
<!-- Node1&#45;&gt;Node1 -->
<g id="edge2" class="edge"><title>Node1&#45;&gt;Node1</title>
<path fill="none" stroke="#9a32cd" stroke-dasharray="5,2" d="M53.1113,-15.5914C57.2587,-14.6238 60,-12.76 60,-10 60,-5.35156 52.2241,-3.24524 43.051,-3.68103"/>
<polygon fill="#9a32cd" stroke="#9a32cd" points="52.7725,-12.1067 43.051,-16.319 53.2774,-19.0885 52.7725,-12.1067"/>
<text text-anchor="middle" x="71" y="-7.5" font-family="Helvetica,sans-Serif" font-size="10.00"> next</text>
</g>
<!-- Node2 -->
<g id="node2" class="node"><title>Node2</title>
<polygon fill="white" stroke="#bfbfbf" points="2,-68.5 2,-87.5 40,-87.5 40,-68.5 2,-68.5"/>
<text text-anchor="middle" x="21" y="-75.5" font-family="Helvetica,sans-Serif" font-size="10.00">short</text>
</g>
<!-- Node2&#45;&gt;Node1 -->
<g id="edge1" class="edge"><title>Node2&#45;&gt;Node1</title>
<path fill="none" stroke="#9a32cd" stroke-dasharray="5,2" d="M21,-58.0413C21,-45.4724 21,-29.5631 21,-19.8411"/>
<polygon fill="#9a32cd" stroke="#9a32cd" points="17.5001,-58.3716 21,-68.3717 24.5001,-58.3717 17.5001,-58.3716"/>
<text text-anchor="middle" x="34.5" y="-41.5" font-family="Helvetica,sans-Serif" font-size="10.00"> value</text>
</g>
</g>
</svg>
