<?xml version="1.0" encoding="UTF-8" standalone="no"?>
<!DOCTYPE svg PUBLIC "-//W3C//DTD SVG 1.1//EN"
 "http://www.w3.org/Graphics/SVG/1.1/DTD/svg11.dtd">
<!-- Generated by graphviz version 2.36.0 (20140111.2315)
 -->
<!-- Title: shifts Pages: 1 -->
<svg width="88pt" height="118pt"
 viewBox="0.00 0.00 88.00 118.00" xmlns="http://www.w3.org/2000/svg" xmlns:xlink="http://www.w3.org/1999/xlink">
<g id="graph0" class="graph" transform="scale(1 1) rotate(0) translate(4 114)">
<title>shifts</title>
<polygon fill="white" stroke="none" points="-4,4 -4,-114 84,-114 84,4 -4,4"/>
<!-- Node1 -->
<g id="node1" class="node"><title>Node1</title>
<polygon fill="#bfbfbf" stroke="black" points="-0.5,-0.5 -0.5,-19.5 40.5,-19.5 40.5,-0.5 -0.5,-0.5"/>
<text text-anchor="middle" x="20" y="-7.5" font-family="Helvetica,sans-Serif" font-size="10.00">shifts</text>
</g>
<!-- Node1&#45;&gt;Node1 -->
<g id="edge1" class="edge"><title>Node1&#45;&gt;Node1</title>
<path fill="none" stroke="#9a32cd" stroke-dasharray="5,2" d="M50.9382,-17.3405C55.1742,-16.1207 58,-13.6738 58,-10 58,-3.8125 49.9844,-1.10547 40.7163,-1.87891"/>
<polygon fill="#9a32cd" stroke="#9a32cd" points="50.4207,-13.8697 40.7163,-18.1211 50.9538,-20.8494 50.4207,-13.8697"/>
<text text-anchor="middle" x="69" y="-7.5" font-family="Helvetica,sans-Serif" font-size="10.00"> next</text>
</g>
<!-- Node2 -->
<g id="node2" class="node"><title>Node2</title>
<polygon fill="white" stroke="#bfbfbf" points="1,-90.5 1,-109.5 39,-109.5 39,-90.5 1,-90.5"/>
<text text-anchor="middle" x="20" y="-97.5" font-family="Helvetica,sans-Serif" font-size="10.00">short</text>
</g>
<!-- Node2&#45;&gt;Node1 -->
<g id="edge2" class="edge"><title>Node2&#45;&gt;Node1</title>
<path fill="none" stroke="#9a32cd" stroke-dasharray="5,2" d="M20,-79.9784C20,-61.3096 20,-33.6696 20,-19.7241"/>
<polygon fill="#9a32cd" stroke="#9a32cd" points="16.5001,-80.2405 20,-90.2405 23.5001,-80.2405 16.5001,-80.2405"/>
<text text-anchor="middle" x="38" y="-63.5" font-family="Helvetica,sans-Serif" font-size="10.00"> number</text>
<text text-anchor="middle" x="38" y="-52.5" font-family="Helvetica,sans-Serif" font-size="10.00">shift</text>
<text text-anchor="middle" x="38" y="-41.5" font-family="Helvetica,sans-Serif" font-size="10.00">nshifts</text>
</g>
</g>
</svg>
