<?xml version="1.0" encoding="UTF-8" standalone="no"?>
<!DOCTYPE svg PUBLIC "-//W3C//DTD SVG 1.1//EN"
 "http://www.w3.org/Graphics/SVG/1.1/DTD/svg11.dtd">
<!-- Generated by graphviz version 2.36.0 (20140111.2315)
 -->
<!-- Title: reductions Pages: 1 -->
<svg width="109pt" height="118pt"
 viewBox="0.00 0.00 109.00 118.00" xmlns="http://www.w3.org/2000/svg" xmlns:xlink="http://www.w3.org/1999/xlink">
<g id="graph0" class="graph" transform="scale(1 1) rotate(0) translate(4 114)">
<title>reductions</title>
<polygon fill="white" stroke="none" points="-4,4 -4,-114 105,-114 105,4 -4,4"/>
<!-- Node1 -->
<g id="node1" class="node"><title>Node1</title>
<polygon fill="#bfbfbf" stroke="black" points="-1,-0.5 -1,-19.5 61,-19.5 61,-0.5 -1,-0.5"/>
<text text-anchor="middle" x="30" y="-7.5" font-family="Helvetica,sans-Serif" font-size="10.00">reductions</text>
</g>
<!-- Node1&#45;&gt;Node1 -->
<g id="edge2" class="edge"><title>Node1&#45;&gt;Node1</title>
<path fill="none" stroke="#9a32cd" stroke-dasharray="5,2" d="M71.4011,-16.6955C75.4379,-15.3444 78,-13.1125 78,-10 78,-4.75781 70.7324,-2.01385 61.3924,-1.76813"/>
<polygon fill="#9a32cd" stroke="#9a32cd" points="70.7456,-13.255 61.3924,-18.2319 71.8078,-20.174 70.7456,-13.255"/>
<text text-anchor="middle" x="89" y="-7.5" font-family="Helvetica,sans-Serif" font-size="10.00"> next</text>
</g>
<!-- Node2 -->
<g id="node2" class="node"><title>Node2</title>
<polygon fill="white" stroke="#bfbfbf" points="11,-90.5 11,-109.5 49,-109.5 49,-90.5 11,-90.5"/>
<text text-anchor="middle" x="30" y="-97.5" font-family="Helvetica,sans-Serif" font-size="10.00">short</text>
</g>
<!-- Node2&#45;&gt;Node1 -->
<g id="edge1" class="edge"><title>Node2&#45;&gt;Node1</title>
<path fill="none" stroke="#9a32cd" stroke-dasharray="5,2" d="M30,-79.9784C30,-61.3096 30,-33.6696 30,-19.7241"/>
<polygon fill="#9a32cd" stroke="#9a32cd" points="26.5001,-80.2405 30,-90.2405 33.5001,-80.2405 26.5001,-80.2405"/>
<text text-anchor="middle" x="46.5" y="-63.5" font-family="Helvetica,sans-Serif" font-size="10.00"> rules</text>
<text text-anchor="middle" x="46.5" y="-52.5" font-family="Helvetica,sans-Serif" font-size="10.00">number</text>
<text text-anchor="middle" x="46.5" y="-41.5" font-family="Helvetica,sans-Serif" font-size="10.00">nreds</text>
</g>
</g>
</svg>
