<?xml version="1.0" encoding="UTF-8" standalone="no"?>
<!DOCTYPE svg PUBLIC "-//W3C//DTD SVG 1.1//EN"
 "http://www.w3.org/Graphics/SVG/1.1/DTD/svg11.dtd">
<!-- Generated by graphviz version 2.36.0 (20140111.2315)
 -->
<!-- Title: bucket Pages: 1 -->
<svg width="117pt" height="130pt"
 viewBox="0.00 0.00 117.00 130.00" xmlns="http://www.w3.org/2000/svg" xmlns:xlink="http://www.w3.org/1999/xlink">
<g id="graph0" class="graph" transform="scale(1 1) rotate(0) translate(4 126)">
<title>bucket</title>
<polygon fill="white" stroke="none" points="-4,4 -4,-126 113,-126 113,4 -4,4"/>
<!-- Node1 -->
<g id="node1" class="node"><title>Node1</title>
<polygon fill="#bfbfbf" stroke="black" points="23,-1.5 23,-20.5 69,-20.5 69,-1.5 23,-1.5"/>
<text text-anchor="middle" x="46" y="-8.5" font-family="Helvetica,sans-Serif" font-size="10.00">bucket</text>
</g>
<!-- Node1&#45;&gt;Node1 -->
<g id="edge3" class="edge"><title>Node1&#45;&gt;Node1</title>
<path fill="none" stroke="#9a32cd" stroke-dasharray="5,2" d="M79.4107,-19.3323C83.9644,-17.9431 87,-15.1656 87,-11 87,-4.16406 78.8254,-1.06653 69.1818,-1.7074"/>
<polygon fill="#9a32cd" stroke="#9a32cd" points="78.8109,-15.8731 69.1818,-20.2926 79.4652,-22.8425 78.8109,-15.8731"/>
<text text-anchor="middle" x="98" y="-14" font-family="Helvetica,sans-Serif" font-size="10.00"> next</text>
<text text-anchor="middle" x="98" y="-3" font-family="Helvetica,sans-Serif" font-size="10.00">link</text>
</g>
<!-- Node2 -->
<g id="node2" class="node"><title>Node2</title>
<polygon fill="white" stroke="#bfbfbf" points="0,-102.5 0,-121.5 38,-121.5 38,-102.5 0,-102.5"/>
<text text-anchor="middle" x="19" y="-109.5" font-family="Helvetica,sans-Serif" font-size="10.00">short</text>
</g>
<!-- Node2&#45;&gt;Node1 -->
<g id="edge1" class="edge"><title>Node2&#45;&gt;Node1</title>
<path fill="none" stroke="#9a32cd" stroke-dasharray="5,2" d="M19.1343,-92.1372C19.7689,-77.5142 21.8361,-56.9538 28,-40 30.5275,-33.0482 35.0275,-26.0482 38.8956,-20.7861"/>
<polygon fill="#9a32cd" stroke="#9a32cd" points="15.6287,-92.3261 18.8815,-102.409 22.6266,-92.4984 15.6287,-92.3261"/>
<text text-anchor="middle" x="40" y="-70.5" font-family="Helvetica,sans-Serif" font-size="10.00"> prec</text>
<text text-anchor="middle" x="40" y="-59.5" font-family="Helvetica,sans-Serif" font-size="10.00">value</text>
<text text-anchor="middle" x="40" y="-48.5" font-family="Helvetica,sans-Serif" font-size="10.00">index</text>
</g>
<!-- Node3 -->
<g id="node3" class="node"><title>Node3</title>
<polygon fill="white" stroke="#bfbfbf" points="56.5,-102.5 56.5,-121.5 91.5,-121.5 91.5,-102.5 56.5,-102.5"/>
<text text-anchor="middle" x="74" y="-109.5" font-family="Helvetica,sans-Serif" font-size="10.00">char</text>
</g>
<!-- Node3&#45;&gt;Node1 -->
<g id="edge2" class="edge"><title>Node3&#45;&gt;Node1</title>
<path fill="none" stroke="#9a32cd" stroke-dasharray="5,2" d="M68.7182,-92.3249C62.6465,-70.8571 52.9405,-36.5398 48.4393,-20.6245"/>
<polygon fill="#9a32cd" stroke="#9a32cd" points="65.4257,-93.5444 71.5152,-102.214 72.1615,-91.6393 65.4257,-93.5444"/>
<text text-anchor="middle" x="81" y="-76" font-family="Helvetica,sans-Serif" font-size="10.00"> assoc</text>
<text text-anchor="middle" x="81" y="-65" font-family="Helvetica,sans-Serif" font-size="10.00">class</text>
<text text-anchor="middle" x="81" y="-54" font-family="Helvetica,sans-Serif" font-size="10.00">tag</text>
<text text-anchor="middle" x="81" y="-43" font-family="Helvetica,sans-Serif" font-size="10.00">name</text>
</g>
</g>
</svg>
