<?xml version="1.0" encoding="UTF-8" standalone="no"?>
<!DOCTYPE svg PUBLIC "-//W3C//DTD SVG 1.1//EN"
 "http://www.w3.org/Graphics/SVG/1.1/DTD/svg11.dtd">
<!-- Generated by graphviz version 2.36.0 (20140111.2315)
 -->
<!-- Title: action Pages: 1 -->
<svg width="126pt" height="118pt"
 viewBox="0.00 0.00 126.00 118.00" xmlns="http://www.w3.org/2000/svg" xmlns:xlink="http://www.w3.org/1999/xlink">
<g id="graph0" class="graph" transform="scale(1 1) rotate(0) translate(4 114)">
<title>action</title>
<polygon fill="white" stroke="none" points="-4,4 -4,-114 122,-114 122,4 -4,4"/>
<!-- Node1 -->
<g id="node1" class="node"><title>Node1</title>
<polygon fill="#bfbfbf" stroke="black" points="33.5,-0.5 33.5,-19.5 76.5,-19.5 76.5,-0.5 33.5,-0.5"/>
<text text-anchor="middle" x="55" y="-7.5" font-family="Helvetica,sans-Serif" font-size="10.00">action</text>
</g>
<!-- Node1&#45;&gt;Node1 -->
<g id="edge3" class="edge"><title>Node1&#45;&gt;Node1</title>
<path fill="none" stroke="#9a32cd" stroke-dasharray="5,2" d="M86.9327,-17.2889C91.1798,-16.0525 94,-13.6228 94,-10 94,-3.89844 86.0004,-1.18134 76.657,-1.84869"/>
<polygon fill="#9a32cd" stroke="#9a32cd" points="86.3293,-13.8272 76.657,-18.1513 86.9147,-20.8027 86.3293,-13.8272"/>
<text text-anchor="middle" x="105" y="-7.5" font-family="Helvetica,sans-Serif" font-size="10.00"> next</text>
</g>
<!-- Node2 -->
<g id="node2" class="node"><title>Node2</title>
<polygon fill="white" stroke="#bfbfbf" points="-0.5,-90.5 -0.5,-109.5 34.5,-109.5 34.5,-90.5 -0.5,-90.5"/>
<text text-anchor="middle" x="17" y="-97.5" font-family="Helvetica,sans-Serif" font-size="10.00">char</text>
</g>
<!-- Node2&#45;&gt;Node1 -->
<g id="edge1" class="edge"><title>Node2&#45;&gt;Node1</title>
<path fill="none" stroke="#9a32cd" stroke-dasharray="5,2" d="M13.1409,-80.2472C11.5052,-67.6083 11.2872,-50.9448 18,-38 22.1001,-30.0935 29.6946,-23.9373 36.9412,-19.5131"/>
<polygon fill="#9a32cd" stroke="#9a32cd" points="9.69205,-80.8438 14.8048,-90.1233 16.5948,-79.6808 9.69205,-80.8438"/>
<text text-anchor="middle" x="44.5" y="-63.5" font-family="Helvetica,sans-Serif" font-size="10.00"> assoc</text>
<text text-anchor="middle" x="44.5" y="-52.5" font-family="Helvetica,sans-Serif" font-size="10.00">suppressed</text>
<text text-anchor="middle" x="44.5" y="-41.5" font-family="Helvetica,sans-Serif" font-size="10.00">action_code</text>
</g>
<!-- Node3 -->
<g id="node3" class="node"><title>Node3</title>
<polygon fill="white" stroke="#bfbfbf" points="74,-90.5 74,-109.5 112,-109.5 112,-90.5 74,-90.5"/>
<text text-anchor="middle" x="93" y="-97.5" font-family="Helvetica,sans-Serif" font-size="10.00">short</text>
</g>
<!-- Node3&#45;&gt;Node1 -->
<g id="edge2" class="edge"><title>Node3&#45;&gt;Node1</title>
<path fill="none" stroke="#9a32cd" stroke-dasharray="5,2" d="M87.3448,-80.5185C83.3406,-68.2293 77.5351,-51.8617 71,-38 68.0259,-31.6915 64.0259,-24.9415 60.7694,-19.7687"/>
<polygon fill="#9a32cd" stroke="#9a32cd" points="84.0227,-81.6217 90.3729,-90.1027 90.6975,-79.5128 84.0227,-81.6217"/>
<text text-anchor="middle" x="101.5" y="-63.5" font-family="Helvetica,sans-Serif" font-size="10.00"> prec</text>
<text text-anchor="middle" x="101.5" y="-52.5" font-family="Helvetica,sans-Serif" font-size="10.00">number</text>
<text text-anchor="middle" x="101.5" y="-41.5" font-family="Helvetica,sans-Serif" font-size="10.00">symbol</text>
</g>
</g>
</svg>
