<?xml version="1.0" encoding="UTF-8" standalone="no"?>
<!DOCTYPE svg PUBLIC "-//W3C//DTD SVG 1.1//EN"
 "http://www.w3.org/Graphics/SVG/1.1/DTD/svg11.dtd">
<!-- Generated by graphviz version 2.36.0 (20140111.2315)
 -->
<!-- Title: core Pages: 1 -->
<svg width="109pt" height="130pt"
 viewBox="0.00 0.00 109.00 130.00" xmlns="http://www.w3.org/2000/svg" xmlns:xlink="http://www.w3.org/1999/xlink">
<g id="graph0" class="graph" transform="scale(1 1) rotate(0) translate(4 126)">
<title>core</title>
<polygon fill="white" stroke="none" points="-4,4 -4,-126 105,-126 105,4 -4,4"/>
<!-- Node1 -->
<g id="node1" class="node"><title>Node1</title>
<polygon fill="#bfbfbf" stroke="black" points="1.5,-1.5 1.5,-20.5 36.5,-20.5 36.5,-1.5 1.5,-1.5"/>
<text text-anchor="middle" x="19" y="-8.5" font-family="Helvetica,sans-Serif" font-size="10.00">core</text>
</g>
<!-- Node1&#45;&gt;Node1 -->
<g id="edge2" class="edge"><title>Node1&#45;&gt;Node1</title>
<path fill="none" stroke="#9a32cd" stroke-dasharray="5,2" d="M46.8337,-19.5596C51.1,-18.2599 54,-15.4067 54,-11 54,-3.57812 45.7741,-0.562988 36.6485,-1.95459"/>
<polygon fill="#9a32cd" stroke="#9a32cd" points="46.4703,-16.0728 36.6485,-20.0454 46.8039,-23.0649 46.4703,-16.0728"/>
<text text-anchor="middle" x="65" y="-14" font-family="Helvetica,sans-Serif" font-size="10.00"> next</text>
<text text-anchor="middle" x="65" y="-3" font-family="Helvetica,sans-Serif" font-size="10.00">link</text>
</g>
<!-- Node2 -->
<g id="node2" class="node"><title>Node2</title>
<polygon fill="white" stroke="#bfbfbf" points="0,-102.5 0,-121.5 38,-121.5 38,-102.5 0,-102.5"/>
<text text-anchor="middle" x="19" y="-109.5" font-family="Helvetica,sans-Serif" font-size="10.00">short</text>
</g>
<!-- Node2&#45;&gt;Node1 -->
<g id="edge1" class="edge"><title>Node2&#45;&gt;Node1</title>
<path fill="none" stroke="#9a32cd" stroke-dasharray="5,2" d="M19,-92.0287C19,-70.5427 19,-36.4668 19,-20.6245"/>
<polygon fill="#9a32cd" stroke="#9a32cd" points="15.5001,-92.2144 19,-102.214 22.5001,-92.2144 15.5001,-92.2144"/>
<text text-anchor="middle" x="60" y="-76" font-family="Helvetica,sans-Serif" font-size="10.00"> nitems</text>
<text text-anchor="middle" x="60" y="-65" font-family="Helvetica,sans-Serif" font-size="10.00">number</text>
<text text-anchor="middle" x="60" y="-54" font-family="Helvetica,sans-Serif" font-size="10.00">items</text>
<text text-anchor="middle" x="60" y="-43" font-family="Helvetica,sans-Serif" font-size="10.00">accessing_symbol</text>
</g>
</g>
</svg>
