<?xml version="1.0" encoding="UTF-8" standalone="no"?>
<!DOCTYPE svg PUBLIC "-//W3C//DTD SVG 1.1//EN"
 "http://www.w3.org/Graphics/SVG/1.1/DTD/svg11.dtd">
<!-- Generated by graphviz version 2.36.0 (20140111.2315)
 -->
<!-- Title: lookup Pages: 1 -->
<svg width="336pt" height="85pt"
 viewBox="0.00 0.00 336.00 85.00" xmlns="http://www.w3.org/2000/svg" xmlns:xlink="http://www.w3.org/1999/xlink">
<g id="graph0" class="graph" transform="scale(1 1) rotate(0) translate(4 81)">
<title>lookup</title>
<polygon fill="white" stroke="none" points="-4,4 -4,-81 332,-81 332,4 -4,4"/>
<!-- Node1 -->
<g id="node1" class="node"><title>Node1</title>
<polygon fill="#bfbfbf" stroke="black" points="0.5,-38.5 0.5,-57.5 45.5,-57.5 45.5,-38.5 0.5,-38.5"/>
<text text-anchor="middle" x="23" y="-45.5" font-family="Helvetica,sans-Serif" font-size="10.00">lookup</text>
</g>
<!-- Node2 -->
<g id="node2" class="node"><title>Node2</title>
<g id="a_node2"><a xlink:href="symtab_8c.html#a9560ff0249886c6495396bd0d25a7320" target="_top" xlink:title="hash">
<polygon fill="white" stroke="black" points="101,-57.5 101,-76.5 139,-76.5 139,-57.5 101,-57.5"/>
<text text-anchor="middle" x="120" y="-64.5" font-family="Helvetica,sans-Serif" font-size="10.00">hash</text>
</a>
</g>
</g>
<!-- Node1&#45;&gt;Node2 -->
<g id="edge1" class="edge"><title>Node1&#45;&gt;Node2</title>
<path fill="none" stroke="midnightblue" d="M45.557,-52.3114C58.9487,-54.9897 76.3091,-58.4618 90.7888,-61.3578"/>
<polygon fill="midnightblue" stroke="midnightblue" points="90.233,-64.8158 100.725,-63.345 91.6058,-57.9518 90.233,-64.8158"/>
</g>
<!-- Node3 -->
<g id="node3" class="node"><title>Node3</title>
<g id="a_node3"><a xlink:href="symtab_8c.html#aa9c886d3ff3a8214ae40b7bf98ad7dd4" target="_top" xlink:title="make_bucket">
<polygon fill="white" stroke="black" points="82.5,-19.5 82.5,-38.5 157.5,-38.5 157.5,-19.5 82.5,-19.5"/>
<text text-anchor="middle" x="120" y="-26.5" font-family="Helvetica,sans-Serif" font-size="10.00">make_bucket</text>
</a>
</g>
</g>
<!-- Node1&#45;&gt;Node3 -->
<g id="edge2" class="edge"><title>Node1&#45;&gt;Node3</title>
<path fill="none" stroke="midnightblue" d="M45.557,-43.6886C53.5171,-42.0966 62.8794,-40.2241 72.2055,-38.3589"/>
<polygon fill="midnightblue" stroke="midnightblue" points="73.1235,-41.7447 82.2429,-36.3514 71.7507,-34.8806 73.1235,-41.7447"/>
</g>
<!-- Node4 -->
<g id="node4" class="node"><title>Node4</title>
<g id="a_node4"><a xlink:href="group__eh.html#ga03b3d711852aa32c4076f12ea7bb93a4" target="_top" xlink:title="no_space">
<polygon fill="white" stroke="black" points="194.5,-38.5 194.5,-57.5 253.5,-57.5 253.5,-38.5 194.5,-38.5"/>
<text text-anchor="middle" x="224" y="-45.5" font-family="Helvetica,sans-Serif" font-size="10.00">no_space</text>
</a>
</g>
</g>
<!-- Node3&#45;&gt;Node4 -->
<g id="edge3" class="edge"><title>Node3&#45;&gt;Node4</title>
<path fill="none" stroke="midnightblue" d="M157.536,-35.8058C166.247,-37.4283 175.571,-39.1651 184.371,-40.8045"/>
<polygon fill="midnightblue" stroke="midnightblue" points="183.923,-44.281 194.394,-42.6715 185.204,-37.3994 183.923,-44.281"/>
</g>
<!-- Node6 -->
<g id="node6" class="node"><title>Node6</title>
<g id="a_node6"><a xlink:href="defs_8h.html#add539a5755e4c4070b0c8ca97477fe47" target="_top" xlink:title="strcpy">
<polygon fill="white" stroke="black" points="202,-0.5 202,-19.5 246,-19.5 246,-0.5 202,-0.5"/>
<text text-anchor="middle" x="224" y="-7.5" font-family="Helvetica,sans-Serif" font-size="10.00">strcpy</text>
</a>
</g>
</g>
<!-- Node3&#45;&gt;Node6 -->
<g id="edge5" class="edge"><title>Node3&#45;&gt;Node6</title>
<path fill="none" stroke="midnightblue" d="M157.536,-22.1942C168.799,-20.0962 181.088,-17.8071 191.946,-15.7846"/>
<polygon fill="midnightblue" stroke="midnightblue" points="192.647,-19.2144 201.837,-13.9422 191.365,-12.3327 192.647,-19.2144"/>
</g>
<!-- Node5 -->
<g id="node5" class="node"><title>Node5</title>
<g id="a_node5"><a xlink:href="group__eh.html#ga67b6b9fd02aac96bef4297b1e6a1789a" target="_top" xlink:title="Shutdown function. ">
<polygon fill="white" stroke="black" points="290,-38.5 290,-57.5 328,-57.5 328,-38.5 290,-38.5"/>
<text text-anchor="middle" x="309" y="-45.5" font-family="Helvetica,sans-Serif" font-size="10.00">done</text>
</a>
</g>
</g>
<!-- Node4&#45;&gt;Node5 -->
<g id="edge4" class="edge"><title>Node4&#45;&gt;Node5</title>
<path fill="none" stroke="midnightblue" d="M253.564,-48C262.005,-48 271.238,-48 279.665,-48"/>
<polygon fill="midnightblue" stroke="midnightblue" points="279.785,-51.5001 289.785,-48 279.785,-44.5001 279.785,-51.5001"/>
</g>
</g>
</svg>
