<?xml version="1.0" encoding="UTF-8" standalone="no"?>
<!DOCTYPE svg PUBLIC "-//W3C//DTD SVG 1.1//EN"
 "http://www.w3.org/Graphics/SVG/1.1/DTD/svg11.dtd">
<!-- Generated by graphviz version 2.36.0 (20140111.2315)
 -->
<!-- Title: hash Pages: 1 -->
<svg width="344pt" height="66pt"
 viewBox="0.00 0.00 344.00 66.00" xmlns="http://www.w3.org/2000/svg" xmlns:xlink="http://www.w3.org/1999/xlink">
<g id="graph0" class="graph" transform="scale(1 1) rotate(0) translate(4 62)">
<title>hash</title>
<polygon fill="white" stroke="none" points="-4,4 -4,-62 340,-62 340,4 -4,4"/>
<!-- Node1 -->
<g id="node1" class="node"><title>Node1</title>
<polygon fill="#bfbfbf" stroke="black" points="0,-19.5 0,-38.5 38,-38.5 38,-19.5 0,-19.5"/>
<text text-anchor="middle" x="19" y="-26.5" font-family="Helvetica,sans-Serif" font-size="10.00">hash</text>
</g>
<!-- Node2 -->
<g id="node2" class="node"><title>Node2</title>
<g id="a_node2"><a xlink:href="symtab_8c.html#aeeef4e0a9c6733adb569531e181de719" target="_top" xlink:title="create_symbol_table">
<polygon fill="white" stroke="black" points="74.5,-38.5 74.5,-57.5 181.5,-57.5 181.5,-38.5 74.5,-38.5"/>
<text text-anchor="middle" x="128" y="-45.5" font-family="Helvetica,sans-Serif" font-size="10.00">create_symbol_table</text>
</a>
</g>
</g>
<!-- Node1&#45;&gt;Node2 -->
<g id="edge1" class="edge"><title>Node1&#45;&gt;Node2</title>
<path fill="none" stroke="midnightblue" d="M48.0545,-33.9816C56.0909,-35.4087 65.1258,-37.013 74.1367,-38.6131"/>
<polygon fill="midnightblue" stroke="midnightblue" points="48.609,-30.5254 38.1511,-32.2231 47.3851,-37.4176 48.609,-30.5254"/>
</g>
<!-- Node5 -->
<g id="node5" class="node"><title>Node5</title>
<g id="a_node5"><a xlink:href="symtab_8c.html#aee518732e7aee5ce3c6fd5208c4ffdea" target="_top" xlink:title="lookup">
<polygon fill="white" stroke="black" points="105.5,-0.5 105.5,-19.5 150.5,-19.5 150.5,-0.5 105.5,-0.5"/>
<text text-anchor="middle" x="128" y="-7.5" font-family="Helvetica,sans-Serif" font-size="10.00">lookup</text>
</a>
</g>
</g>
<!-- Node1&#45;&gt;Node5 -->
<g id="edge4" class="edge"><title>Node1&#45;&gt;Node5</title>
<path fill="none" stroke="midnightblue" d="M48.0545,-24.0184C65.9977,-20.8322 88.919,-16.762 105.435,-13.8292"/>
<polygon fill="midnightblue" stroke="midnightblue" points="47.3851,-20.5824 38.1511,-25.7769 48.609,-27.4746 47.3851,-20.5824"/>
</g>
<!-- Node3 -->
<g id="node3" class="node"><title>Node3</title>
<g id="a_node3"><a xlink:href="reader_8c.html#a3351a985e2d992eea6ed332cc837ad5b" target="_top" xlink:title="reader">
<polygon fill="white" stroke="black" points="218,-38.5 218,-57.5 262,-57.5 262,-38.5 218,-38.5"/>
<text text-anchor="middle" x="240" y="-45.5" font-family="Helvetica,sans-Serif" font-size="10.00">reader</text>
</a>
</g>
</g>
<!-- Node2&#45;&gt;Node3 -->
<g id="edge2" class="edge"><title>Node2&#45;&gt;Node3</title>
<path fill="none" stroke="midnightblue" d="M191.921,-48C201.235,-48 210.239,-48 217.836,-48"/>
<polygon fill="midnightblue" stroke="midnightblue" points="191.745,-44.5001 181.745,-48 191.745,-51.5001 191.745,-44.5001"/>
</g>
<!-- Node4 -->
<g id="node4" class="node"><title>Node4</title>
<g id="a_node4"><a xlink:href="main_8c.html#afced8478b91af5c169926dfa4426333d" target="_top" xlink:title="main">
<polygon fill="white" stroke="black" points="298,-38.5 298,-57.5 336,-57.5 336,-38.5 298,-38.5"/>
<text text-anchor="middle" x="317" y="-45.5" font-family="Helvetica,sans-Serif" font-size="10.00">main</text>
</a>
</g>
</g>
<!-- Node3&#45;&gt;Node4 -->
<g id="edge3" class="edge"><title>Node3&#45;&gt;Node4</title>
<path fill="none" stroke="midnightblue" d="M272.532,-48C281.211,-48 290.328,-48 297.958,-48"/>
<polygon fill="midnightblue" stroke="midnightblue" points="272.291,-44.5001 262.291,-48 272.291,-51.5001 272.291,-44.5001"/>
</g>
</g>
</svg>
