<?xml version="1.0" encoding="UTF-8" standalone="no"?>
<!DOCTYPE svg PUBLIC "-//W3C//DTD SVG 1.1//EN"
 "http://www.w3.org/Graphics/SVG/1.1/DTD/svg11.dtd">
<!-- Generated by graphviz version 2.36.0 (20140111.2315)
 -->
<!-- Title: make_bucket Pages: 1 -->
<svg width="254pt" height="66pt"
 viewBox="0.00 0.00 254.00 66.00" xmlns="http://www.w3.org/2000/svg" xmlns:xlink="http://www.w3.org/1999/xlink">
<g id="graph0" class="graph" transform="scale(1 1) rotate(0) translate(4 62)">
<title>make_bucket</title>
<polygon fill="white" stroke="none" points="-4,4 -4,-62 250,-62 250,4 -4,4"/>
<!-- Node1 -->
<g id="node1" class="node"><title>Node1</title>
<polygon fill="#bfbfbf" stroke="black" points="0.5,-19.5 0.5,-38.5 75.5,-38.5 75.5,-19.5 0.5,-19.5"/>
<text text-anchor="middle" x="38" y="-26.5" font-family="Helvetica,sans-Serif" font-size="10.00">make_bucket</text>
</g>
<!-- Node2 -->
<g id="node2" class="node"><title>Node2</title>
<g id="a_node2"><a xlink:href="group__eh.html#ga03b3d711852aa32c4076f12ea7bb93a4" target="_top" xlink:title="no_space">
<polygon fill="white" stroke="black" points="112.5,-38.5 112.5,-57.5 171.5,-57.5 171.5,-38.5 112.5,-38.5"/>
<text text-anchor="middle" x="142" y="-45.5" font-family="Helvetica,sans-Serif" font-size="10.00">no_space</text>
</a>
</g>
</g>
<!-- Node1&#45;&gt;Node2 -->
<g id="edge1" class="edge"><title>Node1&#45;&gt;Node2</title>
<path fill="none" stroke="midnightblue" d="M75.5362,-35.8058C84.2466,-37.4283 93.5705,-39.1651 102.371,-40.8045"/>
<polygon fill="midnightblue" stroke="midnightblue" points="101.923,-44.281 112.394,-42.6715 103.204,-37.3994 101.923,-44.281"/>
</g>
<!-- Node4 -->
<g id="node4" class="node"><title>Node4</title>
<g id="a_node4"><a xlink:href="defs_8h.html#add539a5755e4c4070b0c8ca97477fe47" target="_top" xlink:title="strcpy">
<polygon fill="white" stroke="black" points="120,-0.5 120,-19.5 164,-19.5 164,-0.5 120,-0.5"/>
<text text-anchor="middle" x="142" y="-7.5" font-family="Helvetica,sans-Serif" font-size="10.00">strcpy</text>
</a>
</g>
</g>
<!-- Node1&#45;&gt;Node4 -->
<g id="edge3" class="edge"><title>Node1&#45;&gt;Node4</title>
<path fill="none" stroke="midnightblue" d="M75.5362,-22.1942C86.7993,-20.0962 99.0883,-17.8071 109.946,-15.7846"/>
<polygon fill="midnightblue" stroke="midnightblue" points="110.647,-19.2144 119.837,-13.9422 109.365,-12.3327 110.647,-19.2144"/>
</g>
<!-- Node3 -->
<g id="node3" class="node"><title>Node3</title>
<g id="a_node3"><a xlink:href="group__eh.html#ga67b6b9fd02aac96bef4297b1e6a1789a" target="_top" xlink:title="Shutdown function. ">
<polygon fill="white" stroke="black" points="208,-38.5 208,-57.5 246,-57.5 246,-38.5 208,-38.5"/>
<text text-anchor="middle" x="227" y="-45.5" font-family="Helvetica,sans-Serif" font-size="10.00">done</text>
</a>
</g>
</g>
<!-- Node2&#45;&gt;Node3 -->
<g id="edge2" class="edge"><title>Node2&#45;&gt;Node3</title>
<path fill="none" stroke="midnightblue" d="M171.564,-48C180.005,-48 189.238,-48 197.665,-48"/>
<polygon fill="midnightblue" stroke="midnightblue" points="197.785,-51.5001 207.785,-48 197.785,-44.5001 197.785,-51.5001"/>
</g>
</g>
</svg>
