<?xml version="1.0" encoding="UTF-8" standalone="no"?>
<!DOCTYPE svg PUBLIC "-//W3C//DTD SVG 1.1//EN"
 "http://www.w3.org/Graphics/SVG/1.1/DTD/svg11.dtd">
<!-- Generated by graphviz version 2.36.0 (20140111.2315)
 -->
<!-- Title: create_symbol_table Pages: 1 -->
<svg width="398pt" height="104pt"
 viewBox="0.00 0.00 398.00 104.00" xmlns="http://www.w3.org/2000/svg" xmlns:xlink="http://www.w3.org/1999/xlink">
<g id="graph0" class="graph" transform="scale(1 1) rotate(0) translate(4 100)">
<title>create_symbol_table</title>
<polygon fill="white" stroke="none" points="-4,4 -4,-100 394,-100 394,4 -4,4"/>
<!-- Node1 -->
<g id="node1" class="node"><title>Node1</title>
<polygon fill="#bfbfbf" stroke="black" points="0.5,-38.5 0.5,-57.5 107.5,-57.5 107.5,-38.5 0.5,-38.5"/>
<text text-anchor="middle" x="54" y="-45.5" font-family="Helvetica,sans-Serif" font-size="10.00">create_symbol_table</text>
</g>
<!-- Node2 -->
<g id="node2" class="node"><title>Node2</title>
<g id="a_node2"><a xlink:href="symtab_8c.html#a9560ff0249886c6495396bd0d25a7320" target="_top" xlink:title="hash">
<polygon fill="white" stroke="black" points="163,-76.5 163,-95.5 201,-95.5 201,-76.5 163,-76.5"/>
<text text-anchor="middle" x="182" y="-83.5" font-family="Helvetica,sans-Serif" font-size="10.00">hash</text>
</a>
</g>
</g>
<!-- Node1&#45;&gt;Node2 -->
<g id="edge1" class="edge"><title>Node1&#45;&gt;Node2</title>
<path fill="none" stroke="midnightblue" d="M86.7951,-57.589C107.282,-63.7676 133.659,-71.7225 153.289,-77.6426"/>
<polygon fill="midnightblue" stroke="midnightblue" points="152.287,-80.9962 162.872,-80.5328 154.308,-74.2944 152.287,-80.9962"/>
</g>
<!-- Node3 -->
<g id="node3" class="node"><title>Node3</title>
<g id="a_node3"><a xlink:href="symtab_8c.html#aa9c886d3ff3a8214ae40b7bf98ad7dd4" target="_top" xlink:title="make_bucket">
<polygon fill="white" stroke="black" points="144.5,-0.5 144.5,-19.5 219.5,-19.5 219.5,-0.5 144.5,-0.5"/>
<text text-anchor="middle" x="182" y="-7.5" font-family="Helvetica,sans-Serif" font-size="10.00">make_bucket</text>
</a>
</g>
</g>
<!-- Node1&#45;&gt;Node3 -->
<g id="edge2" class="edge"><title>Node1&#45;&gt;Node3</title>
<path fill="none" stroke="midnightblue" d="M86.7951,-38.411C102.762,-33.5956 122.307,-27.7012 139.447,-22.532"/>
<polygon fill="midnightblue" stroke="midnightblue" points="140.652,-25.8244 149.215,-19.5859 138.63,-19.1225 140.652,-25.8244"/>
</g>
<!-- Node4 -->
<g id="node4" class="node"><title>Node4</title>
<g id="a_node4"><a xlink:href="error_8c.html#a03b3d711852aa32c4076f12ea7bb93a4" target="_top" xlink:title="no_space">
<polygon fill="white" stroke="black" points="256.5,-38.5 256.5,-57.5 315.5,-57.5 315.5,-38.5 256.5,-38.5"/>
<text text-anchor="middle" x="286" y="-45.5" font-family="Helvetica,sans-Serif" font-size="10.00">no_space</text>
</a>
</g>
</g>
<!-- Node1&#45;&gt;Node4 -->
<g id="edge6" class="edge"><title>Node1&#45;&gt;Node4</title>
<path fill="none" stroke="midnightblue" d="M107.767,-48C149.954,-48 208.131,-48 246.145,-48"/>
<polygon fill="midnightblue" stroke="midnightblue" points="246.303,-51.5001 256.303,-48 246.303,-44.5001 246.303,-51.5001"/>
</g>
<!-- Node3&#45;&gt;Node4 -->
<g id="edge3" class="edge"><title>Node3&#45;&gt;Node4</title>
<path fill="none" stroke="midnightblue" d="M208.739,-19.589C221.181,-24.2244 236.307,-29.8596 249.797,-34.8853"/>
<polygon fill="midnightblue" stroke="midnightblue" points="248.677,-38.2027 259.269,-38.4141 251.12,-31.6431 248.677,-38.2027"/>
</g>
<!-- Node6 -->
<g id="node6" class="node"><title>Node6</title>
<g id="a_node6"><a xlink:href="defs_8h.html#add539a5755e4c4070b0c8ca97477fe47" target="_top" xlink:title="strcpy">
<polygon fill="white" stroke="black" points="264,-0.5 264,-19.5 308,-19.5 308,-0.5 264,-0.5"/>
<text text-anchor="middle" x="286" y="-7.5" font-family="Helvetica,sans-Serif" font-size="10.00">strcpy</text>
</a>
</g>
</g>
<!-- Node3&#45;&gt;Node6 -->
<g id="edge5" class="edge"><title>Node3&#45;&gt;Node6</title>
<path fill="none" stroke="midnightblue" d="M219.536,-10C230.683,-10 242.835,-10 253.609,-10"/>
<polygon fill="midnightblue" stroke="midnightblue" points="253.837,-13.5001 263.837,-10 253.836,-6.5001 253.837,-13.5001"/>
</g>
<!-- Node5 -->
<g id="node5" class="node"><title>Node5</title>
<g id="a_node5"><a xlink:href="main_8c.html#a67b6b9fd02aac96bef4297b1e6a1789a" target="_top" xlink:title="done">
<polygon fill="white" stroke="black" points="352,-38.5 352,-57.5 390,-57.5 390,-38.5 352,-38.5"/>
<text text-anchor="middle" x="371" y="-45.5" font-family="Helvetica,sans-Serif" font-size="10.00">done</text>
</a>
</g>
</g>
<!-- Node4&#45;&gt;Node5 -->
<g id="edge4" class="edge"><title>Node4&#45;&gt;Node5</title>
<path fill="none" stroke="midnightblue" d="M315.564,-48C324.005,-48 333.238,-48 341.665,-48"/>
<polygon fill="midnightblue" stroke="midnightblue" points="341.785,-51.5001 351.785,-48 341.785,-44.5001 341.785,-51.5001"/>
</g>
</g>
</svg>
