<?xml version="1.0" encoding="UTF-8" standalone="no"?>
<!DOCTYPE svg PUBLIC "-//W3C//DTD SVG 1.1//EN"
 "http://www.w3.org/Graphics/SVG/1.1/DTD/svg11.dtd">
<!-- Generated by graphviz version 2.36.0 (20140111.2315)
 -->
<!-- Title: print_actions Pages: 1 -->
<svg width="202pt" height="104pt"
 viewBox="0.00 0.00 202.00 104.00" xmlns="http://www.w3.org/2000/svg" xmlns:xlink="http://www.w3.org/1999/xlink">
<g id="graph0" class="graph" transform="scale(1 1) rotate(0) translate(4 100)">
<title>print_actions</title>
<polygon fill="white" stroke="none" points="-4,4 -4,-100 198,-100 198,4 -4,4"/>
<!-- Node1 -->
<g id="node1" class="node"><title>Node1</title>
<polygon fill="#bfbfbf" stroke="black" points="0,-38.5 0,-57.5 72,-57.5 72,-38.5 0,-38.5"/>
<text text-anchor="middle" x="36" y="-45.5" font-family="Helvetica,sans-Serif" font-size="10.00">print_actions</text>
</g>
<!-- Node2 -->
<g id="node2" class="node"><title>Node2</title>
<g id="a_node2"><a xlink:href="verbose_8c.html#a16325c030b7ca106c93a115bb1bddac9" target="_top" xlink:title="print_gotos">
<polygon fill="white" stroke="black" points="118.5,-76.5 118.5,-95.5 183.5,-95.5 183.5,-76.5 118.5,-76.5"/>
<text text-anchor="middle" x="151" y="-83.5" font-family="Helvetica,sans-Serif" font-size="10.00">print_gotos</text>
</a>
</g>
</g>
<!-- Node1&#45;&gt;Node2 -->
<g id="edge1" class="edge"><title>Node1&#45;&gt;Node2</title>
<path fill="none" stroke="midnightblue" d="M65.5147,-57.589C79.5666,-62.3144 96.7082,-68.0789 111.87,-73.1774"/>
<polygon fill="midnightblue" stroke="midnightblue" points="110.9,-76.544 121.494,-76.4141 113.132,-69.9091 110.9,-76.544"/>
</g>
<!-- Node3 -->
<g id="node3" class="node"><title>Node3</title>
<g id="a_node3"><a xlink:href="verbose_8c.html#a5d799faf27a7c46b7f4c2912f811be40" target="_top" xlink:title="print_reductions">
<polygon fill="white" stroke="black" points="108,-38.5 108,-57.5 194,-57.5 194,-38.5 108,-38.5"/>
<text text-anchor="middle" x="151" y="-45.5" font-family="Helvetica,sans-Serif" font-size="10.00">print_reductions</text>
</a>
</g>
</g>
<!-- Node1&#45;&gt;Node3 -->
<g id="edge2" class="edge"><title>Node1&#45;&gt;Node3</title>
<path fill="none" stroke="midnightblue" d="M72.1345,-48C80.237,-48 89.0271,-48 97.6853,-48"/>
<polygon fill="midnightblue" stroke="midnightblue" points="97.7397,-51.5001 107.74,-48 97.7396,-44.5001 97.7397,-51.5001"/>
</g>
<!-- Node4 -->
<g id="node4" class="node"><title>Node4</title>
<g id="a_node4"><a xlink:href="verbose_8c.html#a0b08f91b4ae38460b3de67b33393d722" target="_top" xlink:title="print_shifts">
<polygon fill="white" stroke="black" points="118.5,-0.5 118.5,-19.5 183.5,-19.5 183.5,-0.5 118.5,-0.5"/>
<text text-anchor="middle" x="151" y="-7.5" font-family="Helvetica,sans-Serif" font-size="10.00">print_shifts</text>
</a>
</g>
</g>
<!-- Node1&#45;&gt;Node4 -->
<g id="edge3" class="edge"><title>Node1&#45;&gt;Node4</title>
<path fill="none" stroke="midnightblue" d="M65.5147,-38.411C79.5666,-33.6856 96.7082,-27.9211 111.87,-22.8226"/>
<polygon fill="midnightblue" stroke="midnightblue" points="113.132,-26.0909 121.494,-19.5859 110.9,-19.456 113.132,-26.0909"/>
</g>
</g>
</svg>
