<?xml version="1.0" encoding="UTF-8" standalone="no"?>
<!DOCTYPE svg PUBLIC "-//W3C//DTD SVG 1.1//EN"
 "http://www.w3.org/Graphics/SVG/1.1/DTD/svg11.dtd">
<!-- Generated by graphviz version 2.36.0 (20140111.2315)
 -->
<!-- Title: verbose Pages: 1 -->
<svg width="404pt" height="237pt"
 viewBox="0.00 0.00 404.00 237.00" xmlns="http://www.w3.org/2000/svg" xmlns:xlink="http://www.w3.org/1999/xlink">
<g id="graph0" class="graph" transform="scale(1 1) rotate(0) translate(4 233)">
<title>verbose</title>
<polygon fill="white" stroke="none" points="-4,4 -4,-233 400,-233 400,4 -4,4"/>
<!-- Node1 -->
<g id="node1" class="node"><title>Node1</title>
<polygon fill="#bfbfbf" stroke="black" points="0.5,-152.5 0.5,-171.5 51.5,-171.5 51.5,-152.5 0.5,-152.5"/>
<text text-anchor="middle" x="26" y="-159.5" font-family="Helvetica,sans-Serif" font-size="10.00">verbose</text>
</g>
<!-- Node2 -->
<g id="node2" class="node"><title>Node2</title>
<g id="a_node2"><a xlink:href="verbose_8c.html#ac77843426adc9e9b6346ac2ac1d6fdc3" target="_top" xlink:title="log_conflicts">
<polygon fill="white" stroke="black" points="88.5,-209.5 88.5,-228.5 159.5,-228.5 159.5,-209.5 88.5,-209.5"/>
<text text-anchor="middle" x="124" y="-216.5" font-family="Helvetica,sans-Serif" font-size="10.00">log_conflicts</text>
</a>
</g>
</g>
<!-- Node1&#45;&gt;Node2 -->
<g id="edge1" class="edge"><title>Node1&#45;&gt;Node2</title>
<path fill="none" stroke="midnightblue" d="M41.889,-171.622C54.1471,-179.46 72.0416,-190.709 88,-200 90.5207,-201.468 93.1612,-202.967 95.8134,-204.449"/>
<polygon fill="midnightblue" stroke="midnightblue" points="94.2698,-207.594 104.719,-209.343 97.641,-201.46 94.2698,-207.594"/>
</g>
<!-- Node3 -->
<g id="node3" class="node"><title>Node3</title>
<g id="a_node3"><a xlink:href="verbose_8c.html#a9f010efab9b5e885bb85c4fb14888065" target="_top" xlink:title="log_unused">
<polygon fill="white" stroke="black" points="91,-171.5 91,-190.5 157,-190.5 157,-171.5 91,-171.5"/>
<text text-anchor="middle" x="124" y="-178.5" font-family="Helvetica,sans-Serif" font-size="10.00">log_unused</text>
</a>
</g>
</g>
<!-- Node1&#45;&gt;Node3 -->
<g id="edge2" class="edge"><title>Node1&#45;&gt;Node3</title>
<path fill="none" stroke="midnightblue" d="M51.7224,-166.893C60.5461,-168.639 70.7545,-170.66 80.6393,-172.616"/>
<polygon fill="midnightblue" stroke="midnightblue" points="80.2624,-176.109 90.7517,-174.618 81.6215,-169.243 80.2624,-176.109"/>
</g>
<!-- Node4 -->
<g id="node4" class="node"><title>Node4</title>
<g id="a_node4"><a xlink:href="group__eh.html#ga03b3d711852aa32c4076f12ea7bb93a4" target="_top" xlink:title="no_space">
<polygon fill="white" stroke="black" points="94.5,-133.5 94.5,-152.5 153.5,-152.5 153.5,-133.5 94.5,-133.5"/>
<text text-anchor="middle" x="124" y="-140.5" font-family="Helvetica,sans-Serif" font-size="10.00">no_space</text>
</a>
</g>
</g>
<!-- Node1&#45;&gt;Node4 -->
<g id="edge3" class="edge"><title>Node1&#45;&gt;Node4</title>
<path fill="none" stroke="midnightblue" d="M51.7224,-157.107C61.6754,-155.137 73.3902,-152.819 84.4153,-150.637"/>
<polygon fill="midnightblue" stroke="midnightblue" points="85.1459,-154.06 94.2761,-148.685 83.7868,-147.193 85.1459,-154.06"/>
</g>
<!-- Node6 -->
<g id="node6" class="node"><title>Node6</title>
<g id="a_node6"><a xlink:href="verbose_8c.html#addc9cef22a1860f5c3a28468a4089893" target="_top" xlink:title="print_state">
<polygon fill="white" stroke="black" points="93,-76.5 93,-95.5 155,-95.5 155,-76.5 93,-76.5"/>
<text text-anchor="middle" x="124" y="-83.5" font-family="Helvetica,sans-Serif" font-size="10.00">print_state</text>
</a>
</g>
</g>
<!-- Node1&#45;&gt;Node6 -->
<g id="edge5" class="edge"><title>Node1&#45;&gt;Node6</title>
<path fill="none" stroke="midnightblue" d="M39.1585,-152.375C55.2441,-139.64 83.8064,-117.028 103.07,-101.778"/>
<polygon fill="midnightblue" stroke="midnightblue" points="105.272,-104.499 110.94,-95.5473 100.927,-99.0102 105.272,-104.499"/>
</g>
<!-- Node5 -->
<g id="node5" class="node"><title>Node5</title>
<g id="a_node5"><a xlink:href="group__eh.html#ga67b6b9fd02aac96bef4297b1e6a1789a" target="_top" xlink:title="Shutdown function. ">
<polygon fill="white" stroke="black" points="216,-152.5 216,-171.5 254,-171.5 254,-152.5 216,-152.5"/>
<text text-anchor="middle" x="235" y="-159.5" font-family="Helvetica,sans-Serif" font-size="10.00">done</text>
</a>
</g>
</g>
<!-- Node4&#45;&gt;Node5 -->
<g id="edge4" class="edge"><title>Node4&#45;&gt;Node5</title>
<path fill="none" stroke="midnightblue" d="M153.638,-147.992C169.782,-150.806 189.866,-154.307 205.918,-157.105"/>
<polygon fill="midnightblue" stroke="midnightblue" points="205.349,-160.559 215.802,-158.828 206.551,-153.663 205.349,-160.559"/>
</g>
<!-- Node7 -->
<g id="node7" class="node"><title>Node7</title>
<g id="a_node7"><a xlink:href="verbose_8c.html#a66b6f430acc8445d785ba8a77b2cc0ac" target="_top" xlink:title="print_actions">
<polygon fill="white" stroke="black" points="199,-114.5 199,-133.5 271,-133.5 271,-114.5 199,-114.5"/>
<text text-anchor="middle" x="235" y="-121.5" font-family="Helvetica,sans-Serif" font-size="10.00">print_actions</text>
</a>
</g>
</g>
<!-- Node6&#45;&gt;Node7 -->
<g id="edge6" class="edge"><title>Node6&#45;&gt;Node7</title>
<path fill="none" stroke="midnightblue" d="M152.505,-95.589C165.931,-100.269 182.28,-105.969 196.801,-111.032"/>
<polygon fill="midnightblue" stroke="midnightblue" points="195.909,-114.427 206.503,-114.414 198.213,-107.817 195.909,-114.427"/>
</g>
<!-- Node11 -->
<g id="node11" class="node"><title>Node11</title>
<g id="a_node11"><a xlink:href="verbose_8c.html#ab7b979880ffb0d5a58f63bac764cc0e2" target="_top" xlink:title="print_conflicts">
<polygon fill="white" stroke="black" points="196.5,-76.5 196.5,-95.5 273.5,-95.5 273.5,-76.5 196.5,-76.5"/>
<text text-anchor="middle" x="235" y="-83.5" font-family="Helvetica,sans-Serif" font-size="10.00">print_conflicts</text>
</a>
</g>
</g>
<!-- Node6&#45;&gt;Node11 -->
<g id="edge10" class="edge"><title>Node6&#45;&gt;Node11</title>
<path fill="none" stroke="midnightblue" d="M155.073,-86C164.62,-86 175.427,-86 185.914,-86"/>
<polygon fill="midnightblue" stroke="midnightblue" points="186.234,-89.5001 196.234,-86 186.234,-82.5001 186.234,-89.5001"/>
</g>
<!-- Node12 -->
<g id="node12" class="node"><title>Node12</title>
<g id="a_node12"><a xlink:href="verbose_8c.html#a4358c308a92b3689750bccf18e8e8683" target="_top" xlink:title="print_core">
<polygon fill="white" stroke="black" points="205.5,-38.5 205.5,-57.5 264.5,-57.5 264.5,-38.5 205.5,-38.5"/>
<text text-anchor="middle" x="235" y="-45.5" font-family="Helvetica,sans-Serif" font-size="10.00">print_core</text>
</a>
</g>
</g>
<!-- Node6&#45;&gt;Node12 -->
<g id="edge11" class="edge"><title>Node6&#45;&gt;Node12</title>
<path fill="none" stroke="midnightblue" d="M152.505,-76.411C165.931,-71.7306 182.28,-66.0308 196.801,-60.9685"/>
<polygon fill="midnightblue" stroke="midnightblue" points="198.213,-64.1828 206.503,-57.5859 195.909,-57.573 198.213,-64.1828"/>
</g>
<!-- Node13 -->
<g id="node13" class="node"><title>Node13</title>
<g id="a_node13"><a xlink:href="verbose_8c.html#a099cfea24f994468db50d7eb4bf613f1" target="_top" xlink:title="print_nulls">
<polygon fill="white" stroke="black" points="204.5,-0.5 204.5,-19.5 265.5,-19.5 265.5,-0.5 204.5,-0.5"/>
<text text-anchor="middle" x="235" y="-7.5" font-family="Helvetica,sans-Serif" font-size="10.00">print_nulls</text>
</a>
</g>
</g>
<!-- Node6&#45;&gt;Node13 -->
<g id="edge12" class="edge"><title>Node6&#45;&gt;Node13</title>
<path fill="none" stroke="midnightblue" d="M135.523,-76.3558C148.928,-64.3598 173.111,-43.6729 196,-29 198.445,-27.4326 201.037,-25.8979 203.673,-24.4229"/>
<polygon fill="midnightblue" stroke="midnightblue" points="205.447,-27.4441 212.653,-19.6773 202.176,-21.2551 205.447,-27.4441"/>
</g>
<!-- Node8 -->
<g id="node8" class="node"><title>Node8</title>
<g id="a_node8"><a xlink:href="verbose_8c.html#a16325c030b7ca106c93a115bb1bddac9" target="_top" xlink:title="print_gotos">
<polygon fill="white" stroke="black" points="320.5,-152.5 320.5,-171.5 385.5,-171.5 385.5,-152.5 320.5,-152.5"/>
<text text-anchor="middle" x="353" y="-159.5" font-family="Helvetica,sans-Serif" font-size="10.00">print_gotos</text>
</a>
</g>
</g>
<!-- Node7&#45;&gt;Node8 -->
<g id="edge7" class="edge"><title>Node7&#45;&gt;Node8</title>
<path fill="none" stroke="midnightblue" d="M265.272,-133.589C279.697,-138.314 297.293,-144.079 312.857,-149.177"/>
<polygon fill="midnightblue" stroke="midnightblue" points="312.145,-152.627 322.738,-152.414 314.324,-145.975 312.145,-152.627"/>
</g>
<!-- Node9 -->
<g id="node9" class="node"><title>Node9</title>
<g id="a_node9"><a xlink:href="verbose_8c.html#a5d799faf27a7c46b7f4c2912f811be40" target="_top" xlink:title="print_reductions">
<polygon fill="white" stroke="black" points="310,-114.5 310,-133.5 396,-133.5 396,-114.5 310,-114.5"/>
<text text-anchor="middle" x="353" y="-121.5" font-family="Helvetica,sans-Serif" font-size="10.00">print_reductions</text>
</a>
</g>
</g>
<!-- Node7&#45;&gt;Node9 -->
<g id="edge8" class="edge"><title>Node7&#45;&gt;Node9</title>
<path fill="none" stroke="midnightblue" d="M271.119,-124C280.031,-124 289.802,-124 299.376,-124"/>
<polygon fill="midnightblue" stroke="midnightblue" points="299.638,-127.5 309.638,-124 299.638,-120.5 299.638,-127.5"/>
</g>
<!-- Node10 -->
<g id="node10" class="node"><title>Node10</title>
<g id="a_node10"><a xlink:href="verbose_8c.html#a0b08f91b4ae38460b3de67b33393d722" target="_top" xlink:title="print_shifts">
<polygon fill="white" stroke="black" points="320.5,-76.5 320.5,-95.5 385.5,-95.5 385.5,-76.5 320.5,-76.5"/>
<text text-anchor="middle" x="353" y="-83.5" font-family="Helvetica,sans-Serif" font-size="10.00">print_shifts</text>
</a>
</g>
</g>
<!-- Node7&#45;&gt;Node10 -->
<g id="edge9" class="edge"><title>Node7&#45;&gt;Node10</title>
<path fill="none" stroke="midnightblue" d="M265.272,-114.411C279.697,-109.686 297.293,-103.921 312.857,-98.8226"/>
<polygon fill="midnightblue" stroke="midnightblue" points="314.324,-102.025 322.738,-95.5859 312.145,-95.373 314.324,-102.025"/>
</g>
</g>
</svg>
