<?xml version="1.0" encoding="UTF-8" standalone="no"?>
<!DOCTYPE svg PUBLIC "-//W3C//DTD SVG 1.1//EN"
 "http://www.w3.org/Graphics/SVG/1.1/DTD/svg11.dtd">
<!-- Generated by graphviz version 2.36.0 (20140111.2315)
 -->
<!-- Title: print_nulls Pages: 1 -->
<svg width="330pt" height="28pt"
 viewBox="0.00 0.00 330.00 28.00" xmlns="http://www.w3.org/2000/svg" xmlns:xlink="http://www.w3.org/1999/xlink">
<g id="graph0" class="graph" transform="scale(1 1) rotate(0) translate(4 24)">
<title>print_nulls</title>
<polygon fill="white" stroke="none" points="-4,4 -4,-24 326,-24 326,4 -4,4"/>
<!-- Node1 -->
<g id="node1" class="node"><title>Node1</title>
<polygon fill="#bfbfbf" stroke="black" points="0.5,-0.5 0.5,-19.5 61.5,-19.5 61.5,-0.5 0.5,-0.5"/>
<text text-anchor="middle" x="31" y="-7.5" font-family="Helvetica,sans-Serif" font-size="10.00">print_nulls</text>
</g>
<!-- Node2 -->
<g id="node2" class="node"><title>Node2</title>
<g id="a_node2"><a xlink:href="verbose_8c.html#addc9cef22a1860f5c3a28468a4089893" target="_top" xlink:title="print_state">
<polygon fill="white" stroke="black" points="98,-0.5 98,-19.5 160,-19.5 160,-0.5 98,-0.5"/>
<text text-anchor="middle" x="129" y="-7.5" font-family="Helvetica,sans-Serif" font-size="10.00">print_state</text>
</a>
</g>
</g>
<!-- Node1&#45;&gt;Node2 -->
<g id="edge1" class="edge"><title>Node1&#45;&gt;Node2</title>
<path fill="none" stroke="midnightblue" d="M71.8593,-10C80.4923,-10 89.4872,-10 97.6827,-10"/>
<polygon fill="midnightblue" stroke="midnightblue" points="71.5865,-6.5001 61.5865,-10 71.5865,-13.5001 71.5865,-6.5001"/>
</g>
<!-- Node3 -->
<g id="node3" class="node"><title>Node3</title>
<g id="a_node3"><a xlink:href="verbose_8c.html#a51c39b5f33bea9632e037e0b94fa0db8" target="_top" xlink:title="verbose">
<polygon fill="white" stroke="black" points="196.5,-0.5 196.5,-19.5 247.5,-19.5 247.5,-0.5 196.5,-0.5"/>
<text text-anchor="middle" x="222" y="-7.5" font-family="Helvetica,sans-Serif" font-size="10.00">verbose</text>
</a>
</g>
</g>
<!-- Node2&#45;&gt;Node3 -->
<g id="edge2" class="edge"><title>Node2&#45;&gt;Node3</title>
<path fill="none" stroke="midnightblue" d="M170.299,-10C179.206,-10 188.383,-10 196.44,-10"/>
<polygon fill="midnightblue" stroke="midnightblue" points="170.049,-6.5001 160.049,-10 170.049,-13.5001 170.049,-6.5001"/>
</g>
<!-- Node4 -->
<g id="node4" class="node"><title>Node4</title>
<g id="a_node4"><a xlink:href="main_8c.html#afced8478b91af5c169926dfa4426333d" target="_top" xlink:title="main">
<polygon fill="white" stroke="black" points="284,-0.5 284,-19.5 322,-19.5 322,-0.5 284,-0.5"/>
<text text-anchor="middle" x="303" y="-7.5" font-family="Helvetica,sans-Serif" font-size="10.00">main</text>
</a>
</g>
</g>
<!-- Node3&#45;&gt;Node4 -->
<g id="edge3" class="edge"><title>Node3&#45;&gt;Node4</title>
<path fill="none" stroke="midnightblue" d="M257.584,-10C266.686,-10 276.142,-10 283.978,-10"/>
<polygon fill="midnightblue" stroke="midnightblue" points="257.563,-6.5001 247.563,-10 257.563,-13.5001 257.563,-6.5001"/>
</g>
</g>
</svg>
