<?xml version="1.0" encoding="UTF-8" standalone="no"?>
<!DOCTYPE svg PUBLIC "-//W3C//DTD SVG 1.1//EN"
 "http://www.w3.org/Graphics/SVG/1.1/DTD/svg11.dtd">
<!-- Generated by graphviz version 2.36.0 (20140111.2315)
 -->
<!-- Title: print_state Pages: 1 -->
<svg width="306pt" height="180pt"
 viewBox="0.00 0.00 306.00 180.00" xmlns="http://www.w3.org/2000/svg" xmlns:xlink="http://www.w3.org/1999/xlink">
<g id="graph0" class="graph" transform="scale(1 1) rotate(0) translate(4 176)">
<title>print_state</title>
<polygon fill="white" stroke="none" points="-4,4 -4,-176 302,-176 302,4 -4,4"/>
<!-- Node1 -->
<g id="node1" class="node"><title>Node1</title>
<polygon fill="#bfbfbf" stroke="black" points="0,-57.5 0,-76.5 62,-76.5 62,-57.5 0,-57.5"/>
<text text-anchor="middle" x="31" y="-64.5" font-family="Helvetica,sans-Serif" font-size="10.00">print_state</text>
</g>
<!-- Node2 -->
<g id="node2" class="node"><title>Node2</title>
<g id="a_node2"><a xlink:href="verbose_8c.html#a66b6f430acc8445d785ba8a77b2cc0ac" target="_top" xlink:title="print_actions">
<polygon fill="white" stroke="black" points="101,-114.5 101,-133.5 173,-133.5 173,-114.5 101,-114.5"/>
<text text-anchor="middle" x="137" y="-121.5" font-family="Helvetica,sans-Serif" font-size="10.00">print_actions</text>
</a>
</g>
</g>
<!-- Node1&#45;&gt;Node2 -->
<g id="edge1" class="edge"><title>Node1&#45;&gt;Node2</title>
<path fill="none" stroke="midnightblue" d="M48.1247,-76.638C61.3965,-84.4849 80.7622,-95.7385 98,-105 100.924,-106.571 103.994,-108.177 107.069,-109.756"/>
<polygon fill="midnightblue" stroke="midnightblue" points="105.661,-112.967 116.164,-114.357 108.82,-106.72 105.661,-112.967"/>
</g>
<!-- Node6 -->
<g id="node6" class="node"><title>Node6</title>
<g id="a_node6"><a xlink:href="verbose_8c.html#ab7b979880ffb0d5a58f63bac764cc0e2" target="_top" xlink:title="print_conflicts">
<polygon fill="white" stroke="black" points="98.5,-76.5 98.5,-95.5 175.5,-95.5 175.5,-76.5 98.5,-76.5"/>
<text text-anchor="middle" x="137" y="-83.5" font-family="Helvetica,sans-Serif" font-size="10.00">print_conflicts</text>
</a>
</g>
</g>
<!-- Node1&#45;&gt;Node6 -->
<g id="edge5" class="edge"><title>Node1&#45;&gt;Node6</title>
<path fill="none" stroke="midnightblue" d="M62.0811,-72.4956C70.2754,-73.9926 79.3586,-75.6521 88.2732,-77.2807"/>
<polygon fill="midnightblue" stroke="midnightblue" points="87.7438,-80.7418 98.21,-79.0961 89.0019,-73.8558 87.7438,-80.7418"/>
</g>
<!-- Node7 -->
<g id="node7" class="node"><title>Node7</title>
<g id="a_node7"><a xlink:href="verbose_8c.html#a4358c308a92b3689750bccf18e8e8683" target="_top" xlink:title="print_core">
<polygon fill="white" stroke="black" points="107.5,-38.5 107.5,-57.5 166.5,-57.5 166.5,-38.5 107.5,-38.5"/>
<text text-anchor="middle" x="137" y="-45.5" font-family="Helvetica,sans-Serif" font-size="10.00">print_core</text>
</a>
</g>
</g>
<!-- Node1&#45;&gt;Node7 -->
<g id="edge6" class="edge"><title>Node1&#45;&gt;Node7</title>
<path fill="none" stroke="midnightblue" d="M62.0811,-61.5044C73.1241,-59.487 85.7813,-57.1746 97.4646,-55.0401"/>
<polygon fill="midnightblue" stroke="midnightblue" points="98.2079,-58.4623 107.416,-53.2221 96.9498,-51.5763 98.2079,-58.4623"/>
</g>
<!-- Node8 -->
<g id="node8" class="node"><title>Node8</title>
<g id="a_node8"><a xlink:href="verbose_8c.html#a099cfea24f994468db50d7eb4bf613f1" target="_top" xlink:title="print_nulls">
<polygon fill="white" stroke="black" points="106.5,-0.5 106.5,-19.5 167.5,-19.5 167.5,-0.5 106.5,-0.5"/>
<text text-anchor="middle" x="137" y="-7.5" font-family="Helvetica,sans-Serif" font-size="10.00">print_nulls</text>
</a>
</g>
</g>
<!-- Node1&#45;&gt;Node8 -->
<g id="edge7" class="edge"><title>Node1&#45;&gt;Node8</title>
<path fill="none" stroke="midnightblue" d="M48.1247,-57.362C61.3965,-49.5151 80.7622,-38.2615 98,-29 100.924,-27.4291 103.994,-25.8233 107.069,-24.2436"/>
<polygon fill="midnightblue" stroke="midnightblue" points="108.82,-27.2798 116.164,-19.643 105.661,-21.0334 108.82,-27.2798"/>
</g>
<!-- Node3 -->
<g id="node3" class="node"><title>Node3</title>
<g id="a_node3"><a xlink:href="verbose_8c.html#a16325c030b7ca106c93a115bb1bddac9" target="_top" xlink:title="print_gotos">
<polygon fill="white" stroke="black" points="222.5,-152.5 222.5,-171.5 287.5,-171.5 287.5,-152.5 222.5,-152.5"/>
<text text-anchor="middle" x="255" y="-159.5" font-family="Helvetica,sans-Serif" font-size="10.00">print_gotos</text>
</a>
</g>
</g>
<!-- Node2&#45;&gt;Node3 -->
<g id="edge2" class="edge"><title>Node2&#45;&gt;Node3</title>
<path fill="none" stroke="midnightblue" d="M167.272,-133.589C181.697,-138.314 199.293,-144.079 214.857,-149.177"/>
<polygon fill="midnightblue" stroke="midnightblue" points="214.145,-152.627 224.738,-152.414 216.324,-145.975 214.145,-152.627"/>
</g>
<!-- Node4 -->
<g id="node4" class="node"><title>Node4</title>
<g id="a_node4"><a xlink:href="verbose_8c.html#a5d799faf27a7c46b7f4c2912f811be40" target="_top" xlink:title="print_reductions">
<polygon fill="white" stroke="black" points="212,-114.5 212,-133.5 298,-133.5 298,-114.5 212,-114.5"/>
<text text-anchor="middle" x="255" y="-121.5" font-family="Helvetica,sans-Serif" font-size="10.00">print_reductions</text>
</a>
</g>
</g>
<!-- Node2&#45;&gt;Node4 -->
<g id="edge3" class="edge"><title>Node2&#45;&gt;Node4</title>
<path fill="none" stroke="midnightblue" d="M173.119,-124C182.031,-124 191.802,-124 201.376,-124"/>
<polygon fill="midnightblue" stroke="midnightblue" points="201.638,-127.5 211.638,-124 201.638,-120.5 201.638,-127.5"/>
</g>
<!-- Node5 -->
<g id="node5" class="node"><title>Node5</title>
<g id="a_node5"><a xlink:href="verbose_8c.html#a0b08f91b4ae38460b3de67b33393d722" target="_top" xlink:title="print_shifts">
<polygon fill="white" stroke="black" points="222.5,-76.5 222.5,-95.5 287.5,-95.5 287.5,-76.5 222.5,-76.5"/>
<text text-anchor="middle" x="255" y="-83.5" font-family="Helvetica,sans-Serif" font-size="10.00">print_shifts</text>
</a>
</g>
</g>
<!-- Node2&#45;&gt;Node5 -->
<g id="edge4" class="edge"><title>Node2&#45;&gt;Node5</title>
<path fill="none" stroke="midnightblue" d="M167.272,-114.411C181.697,-109.686 199.293,-103.921 214.857,-98.8226"/>
<polygon fill="midnightblue" stroke="midnightblue" points="216.324,-102.025 224.738,-95.5859 214.145,-95.373 216.324,-102.025"/>
</g>
</g>
</svg>
