<?xml version="1.0" encoding="UTF-8" standalone="no"?>
<!DOCTYPE svg PUBLIC "-//W3C//DTD SVG 1.1//EN"
 "http://www.w3.org/Graphics/SVG/1.1/DTD/svg11.dtd">
<!-- Generated by graphviz version 2.36.0 (20140111.2315)
 -->
<!-- Title: print_reductions Pages: 1 -->
<svg width="388pt" height="28pt"
 viewBox="0.00 0.00 388.00 28.00" xmlns="http://www.w3.org/2000/svg" xmlns:xlink="http://www.w3.org/1999/xlink">
<g id="graph0" class="graph" transform="scale(1 1) rotate(0) translate(4 24)">
<title>print_reductions</title>
<polygon fill="white" stroke="none" points="-4,4 -4,-24 384,-24 384,4 -4,4"/>
<!-- Node1 -->
<g id="node1" class="node"><title>Node1</title>
<polygon fill="#bfbfbf" stroke="black" points="0,-0.5 0,-19.5 86,-19.5 86,-0.5 0,-0.5"/>
<text text-anchor="middle" x="43" y="-7.5" font-family="Helvetica,sans-Serif" font-size="10.00">print_reductions</text>
</g>
<!-- Node2 -->
<g id="node2" class="node"><title>Node2</title>
<g id="a_node2"><a xlink:href="verbose_8c.html#a66b6f430acc8445d785ba8a77b2cc0ac" target="_top" xlink:title="print_actions">
<polygon fill="white" stroke="black" points="122,-0.5 122,-19.5 194,-19.5 194,-0.5 122,-0.5"/>
<text text-anchor="middle" x="158" y="-7.5" font-family="Helvetica,sans-Serif" font-size="10.00">print_actions</text>
</a>
</g>
</g>
<!-- Node1&#45;&gt;Node2 -->
<g id="edge1" class="edge"><title>Node1&#45;&gt;Node2</title>
<path fill="none" stroke="midnightblue" d="M96.1939,-10C104.908,-10 113.76,-10 121.914,-10"/>
<polygon fill="midnightblue" stroke="midnightblue" points="96.0771,-6.5001 86.077,-10 96.077,-13.5001 96.0771,-6.5001"/>
</g>
<!-- Node3 -->
<g id="node3" class="node"><title>Node3</title>
<g id="a_node3"><a xlink:href="verbose_8c.html#addc9cef22a1860f5c3a28468a4089893" target="_top" xlink:title="print_state">
<polygon fill="white" stroke="black" points="230,-0.5 230,-19.5 292,-19.5 292,-0.5 230,-0.5"/>
<text text-anchor="middle" x="261" y="-7.5" font-family="Helvetica,sans-Serif" font-size="10.00">print_state</text>
</a>
</g>
</g>
<!-- Node2&#45;&gt;Node3 -->
<g id="edge2" class="edge"><title>Node2&#45;&gt;Node3</title>
<path fill="none" stroke="midnightblue" d="M204.073,-10C212.756,-10 221.655,-10 229.729,-10"/>
<polygon fill="midnightblue" stroke="midnightblue" points="204.041,-6.5001 194.041,-10 204.041,-13.5001 204.041,-6.5001"/>
</g>
<!-- Node4 -->
<g id="node4" class="node"><title>Node4</title>
<g id="a_node4"><a xlink:href="verbose_8c.html#a51c39b5f33bea9632e037e0b94fa0db8" target="_top" xlink:title="verbose">
<polygon fill="white" stroke="red" points="328.5,-0.5 328.5,-19.5 379.5,-19.5 379.5,-0.5 328.5,-0.5"/>
<text text-anchor="middle" x="354" y="-7.5" font-family="Helvetica,sans-Serif" font-size="10.00">verbose</text>
</a>
</g>
</g>
<!-- Node3&#45;&gt;Node4 -->
<g id="edge3" class="edge"><title>Node3&#45;&gt;Node4</title>
<path fill="none" stroke="midnightblue" d="M302.299,-10C311.206,-10 320.383,-10 328.44,-10"/>
<polygon fill="midnightblue" stroke="midnightblue" points="302.049,-6.5001 292.049,-10 302.049,-13.5001 302.049,-6.5001"/>
</g>
</g>
</svg>
