<?xml version="1.0" encoding="UTF-8" standalone="no"?>
<!DOCTYPE svg PUBLIC "-//W3C//DTD SVG 1.1//EN"
 "http://www.w3.org/Graphics/SVG/1.1/DTD/svg11.dtd">
<!-- Generated by graphviz version 2.36.0 (20140111.2315)
 -->
<!-- Title: transitive_closure Pages: 1 -->
<svg width="452pt" height="38pt"
 viewBox="0.00 0.00 452.00 38.00" xmlns="http://www.w3.org/2000/svg" xmlns:xlink="http://www.w3.org/1999/xlink">
<g id="graph0" class="graph" transform="scale(1 1) rotate(0) translate(4 34)">
<title>transitive_closure</title>
<polygon fill="white" stroke="none" points="-4,4 -4,-34 448,-34 448,4 -4,4"/>
<!-- Node1 -->
<g id="node1" class="node"><title>Node1</title>
<polygon fill="#bfbfbf" stroke="black" points="0.5,-5.5 0.5,-24.5 93.5,-24.5 93.5,-5.5 0.5,-5.5"/>
<text text-anchor="middle" x="47" y="-12.5" font-family="Helvetica,sans-Serif" font-size="10.00">transitive_closure</text>
</g>
<!-- Node2 -->
<g id="node2" class="node"><title>Node2</title>
<g id="a_node2"><a xlink:href="warshall_8c.html#a5b17363d658cbdfeba8682ae963937dc" target="_top" xlink:title="reflexive_transitive\l_closure">
<polygon fill="white" stroke="black" points="130,-0 130,-30 228,-30 228,-0 130,-0"/>
<text text-anchor="start" x="138" y="-18" font-family="Helvetica,sans-Serif" font-size="10.00">reflexive_transitive</text>
<text text-anchor="middle" x="179" y="-7" font-family="Helvetica,sans-Serif" font-size="10.00">_closure</text>
</a>
</g>
</g>
<!-- Node1&#45;&gt;Node2 -->
<g id="edge1" class="edge"><title>Node1&#45;&gt;Node2</title>
<path fill="none" stroke="midnightblue" d="M103.88,-15C112.557,-15 121.455,-15 129.939,-15"/>
<polygon fill="midnightblue" stroke="midnightblue" points="103.833,-11.5001 93.8331,-15 103.833,-18.5001 103.833,-11.5001"/>
</g>
<!-- Node3 -->
<g id="node3" class="node"><title>Node3</title>
<g id="a_node3"><a xlink:href="closure_8c.html#a8771690f7fd06e6be291505119de2fcb" target="_top" xlink:title="set_EFF">
<polygon fill="white" stroke="black" points="264,-5.5 264,-24.5 318,-24.5 318,-5.5 264,-5.5"/>
<text text-anchor="middle" x="291" y="-12.5" font-family="Helvetica,sans-Serif" font-size="10.00">set_EFF</text>
</a>
</g>
</g>
<!-- Node2&#45;&gt;Node3 -->
<g id="edge2" class="edge"><title>Node2&#45;&gt;Node3</title>
<path fill="none" stroke="midnightblue" d="M238.337,-15C247.275,-15 256.094,-15 263.847,-15"/>
<polygon fill="midnightblue" stroke="midnightblue" points="238.248,-11.5001 228.248,-15 238.248,-18.5001 238.248,-11.5001"/>
</g>
<!-- Node4 -->
<g id="node4" class="node"><title>Node4</title>
<g id="a_node4"><a xlink:href="closure_8c.html#ab7198901ee6f38f5ed229dce745ceaa6" target="_top" xlink:title="set_first_derives">
<polygon fill="white" stroke="red" points="354.5,-5.5 354.5,-24.5 443.5,-24.5 443.5,-5.5 354.5,-5.5"/>
<text text-anchor="middle" x="399" y="-12.5" font-family="Helvetica,sans-Serif" font-size="10.00">set_first_derives</text>
</a>
</g>
</g>
<!-- Node3&#45;&gt;Node4 -->
<g id="edge3" class="edge"><title>Node3&#45;&gt;Node4</title>
<path fill="none" stroke="midnightblue" d="M328.393,-15C336.755,-15 345.73,-15 354.362,-15"/>
<polygon fill="midnightblue" stroke="midnightblue" points="328.202,-11.5001 318.202,-15 328.202,-18.5001 328.202,-11.5001"/>
</g>
</g>
</svg>
