<?xml version="1.0" encoding="UTF-8" standalone="no"?>
<!DOCTYPE svg PUBLIC "-//W3C//DTD SVG 1.1//EN"
 "http://www.w3.org/Graphics/SVG/1.1/DTD/svg11.dtd">
<!-- Generated by graphviz version 2.36.0 (20140111.2315)
 -->
<!-- Title: reflexive_transitive_closure Pages: 1 -->
<svg width="444pt" height="38pt"
 viewBox="0.00 0.00 444.00 38.00" xmlns="http://www.w3.org/2000/svg" xmlns:xlink="http://www.w3.org/1999/xlink">
<g id="graph0" class="graph" transform="scale(1 1) rotate(0) translate(4 34)">
<title>reflexive_transitive_closure</title>
<polygon fill="white" stroke="none" points="-4,4 -4,-34 440,-34 440,4 -4,4"/>
<!-- Node1 -->
<g id="node1" class="node"><title>Node1</title>
<polygon fill="#bfbfbf" stroke="black" points="0,-0 0,-30 98,-30 98,-0 0,-0"/>
<text text-anchor="start" x="8" y="-18" font-family="Helvetica,sans-Serif" font-size="10.00">reflexive_transitive</text>
<text text-anchor="middle" x="49" y="-7" font-family="Helvetica,sans-Serif" font-size="10.00">_closure</text>
</g>
<!-- Node2 -->
<g id="node2" class="node"><title>Node2</title>
<g id="a_node2"><a xlink:href="closure_8c.html#a8771690f7fd06e6be291505119de2fcb" target="_top" xlink:title="set_EFF">
<polygon fill="white" stroke="black" points="134,-5.5 134,-24.5 188,-24.5 188,-5.5 134,-5.5"/>
<text text-anchor="middle" x="161" y="-12.5" font-family="Helvetica,sans-Serif" font-size="10.00">set_EFF</text>
</a>
</g>
</g>
<!-- Node1&#45;&gt;Node2 -->
<g id="edge1" class="edge"><title>Node1&#45;&gt;Node2</title>
<path fill="none" stroke="midnightblue" d="M108.337,-15C117.275,-15 126.094,-15 133.847,-15"/>
<polygon fill="midnightblue" stroke="midnightblue" points="108.248,-11.5001 98.2476,-15 108.248,-18.5001 108.248,-11.5001"/>
</g>
<!-- Node3 -->
<g id="node3" class="node"><title>Node3</title>
<g id="a_node3"><a xlink:href="closure_8c.html#ab7198901ee6f38f5ed229dce745ceaa6" target="_top" xlink:title="set_first_derives">
<polygon fill="white" stroke="black" points="224.5,-5.5 224.5,-24.5 313.5,-24.5 313.5,-5.5 224.5,-5.5"/>
<text text-anchor="middle" x="269" y="-12.5" font-family="Helvetica,sans-Serif" font-size="10.00">set_first_derives</text>
</a>
</g>
</g>
<!-- Node2&#45;&gt;Node3 -->
<g id="edge2" class="edge"><title>Node2&#45;&gt;Node3</title>
<path fill="none" stroke="midnightblue" d="M198.393,-15C206.755,-15 215.73,-15 224.362,-15"/>
<polygon fill="midnightblue" stroke="midnightblue" points="198.202,-11.5001 188.202,-15 198.202,-18.5001 198.202,-11.5001"/>
</g>
<!-- Node4 -->
<g id="node4" class="node"><title>Node4</title>
<g id="a_node4"><a xlink:href="lr0_8c.html#a81209dc209ca0c6fb2a5e74bd98c02c7" target="_top" xlink:title="generate_states">
<polygon fill="white" stroke="red" points="350,-5.5 350,-24.5 436,-24.5 436,-5.5 350,-5.5"/>
<text text-anchor="middle" x="393" y="-12.5" font-family="Helvetica,sans-Serif" font-size="10.00">generate_states</text>
</a>
</g>
</g>
<!-- Node3&#45;&gt;Node4 -->
<g id="edge3" class="edge"><title>Node3&#45;&gt;Node4</title>
<path fill="none" stroke="midnightblue" d="M323.801,-15C332.521,-15 341.439,-15 349.83,-15"/>
<polygon fill="midnightblue" stroke="midnightblue" points="323.7,-11.5001 313.7,-15 323.7,-18.5001 323.7,-11.5001"/>
</g>
</g>
</svg>
